<?xml version="1.0" encoding="UTF-8" standalone="no"?>
<!-- Created with Inkscape (http://www.inkscape.org/) -->

<svg
   xmlns:dc="http://purl.org/dc/elements/1.1/"
   xmlns:cc="http://creativecommons.org/ns#"
   xmlns:rdf="http://www.w3.org/1999/02/22-rdf-syntax-ns#"
   xmlns:svg="http://www.w3.org/2000/svg"
   xmlns="http://www.w3.org/2000/svg"
   xmlns:sodipodi="http://sodipodi.sourceforge.net/DTD/sodipodi-0.dtd"
   xmlns:inkscape="http://www.inkscape.org/namespaces/inkscape"
   width="297mm"
   height="210mm"
   viewBox="0 0 1052.3622 744.09448"
   id="svg2"
   version="1.1"
   inkscape:version="0.91 r13725"
   sodipodi:docname="circles_and_diamonds.svg">
  <defs
     id="defs4" />
  <sodipodi:namedview
     id="base"
     pagecolor="#000000"
     bordercolor="#666666"
     borderopacity="1.0"
     inkscape:pageopacity="0"
     inkscape:pageshadow="2"
     inkscape:zoom="0.35"
     inkscape:cx="2847.6804"
     inkscape:cy="237.90582"
     inkscape:document-units="px"
     inkscape:current-layer="layer1"
     showgrid="false"
     inkscape:snap-object-midpoints="true"
     inkscape:object-nodes="true"
     inkscape:window-width="1879"
     inkscape:window-height="1056"
     inkscape:window-x="41"
     inkscape:window-y="24"
     inkscape:window-maximized="1" />
  <metadata
     id="metadata7">
    <rdf:RDF>
      <cc:Work
         rdf:about="">
        <dc:format>image/svg+xml</dc:format>
        <dc:type
           rdf:resource="http://purl.org/dc/dcmitype/StillImage" />
        <dc:title></dc:title>
      </cc:Work>
    </rdf:RDF>
  </metadata>
  <g
     inkscape:label="Layer 1"
     inkscape:groupmode="layer"
     id="layer1"
     transform="translate(0,-308.26772)">
    <g
       id="g7643"
       style="stroke:#f2f2f2"
       transform="translate(1870,-52.857143)">
      <path
         id="rect4175"
         d="m 388.13874,483.49345 -70.85742,70.85742 a 167.5,167.5 0 0 1 49.13281,118.36719 167.5,167.5 0 0 1 -49.13476,118.36523 l 70.85937,70.85938 a 167.5,167.5 0 0 1 118.36719,-49.13282 167.5,167.5 0 0 1 118.36523,49.13282 l 70.85938,-70.85938 A 167.5,167.5 0 0 1 646.59577,672.71806 167.5,167.5 0 0 1 695.72859,554.35087 L 624.87116,483.49345 A 167.5,167.5 0 0 1 506.50593,532.62626 167.5,167.5 0 0 1 388.13874,483.49345 Z"
         style="opacity:1;fill:none;fill-opacity:1;stroke:#f2f2f2;stroke-width:15;stroke-linecap:round;stroke-linejoin:round;stroke-miterlimit:4;stroke-dasharray:none;stroke-opacity:1"
         inkscape:connector-curvature="0" />
      <circle
         r="142.5"
         cy="365.12646"
         cx="506.50525"
         id="path4178"
         style="opacity:1;fill:none;fill-opacity:1;stroke:#f2f2f2;stroke-width:15;stroke-linecap:round;stroke-linejoin:round;stroke-miterlimit:4;stroke-dasharray:none;stroke-opacity:1" />
      <circle
         style="opacity:1;fill:none;fill-opacity:1;stroke:#f2f2f2;stroke-width:15;stroke-linecap:round;stroke-linejoin:round;stroke-miterlimit:4;stroke-dasharray:none;stroke-opacity:1"
         id="circle4182"
         cx="814.09668"
         cy="672.7179"
         r="142.5" />
      <circle
         r="142.5"
         cy="980.30933"
         cx="506.50525"
         id="circle4186"
         style="opacity:1;fill:none;fill-opacity:1;stroke:#f2f2f2;stroke-width:15;stroke-linecap:round;stroke-linejoin:round;stroke-miterlimit:4;stroke-dasharray:none;stroke-opacity:1" />
      <circle
         style="opacity:1;fill:none;fill-opacity:1;stroke:#f2f2f2;stroke-width:15;stroke-linecap:round;stroke-linejoin:round;stroke-miterlimit:4;stroke-dasharray:none;stroke-opacity:1"
         id="circle4190"
         cx="198.9138"
         cy="672.7179"
         r="142.5" />
      <path
         id="path4194"
         d="m 506.50593,197.62626 a 167.5,167.5 0 0 0 -167.5,167.5 167.5,167.5 0 0 0 33.26758,99.88672 l -73.48633,73.48633 a 167.5,167.5 0 0 0 -99.87305,-33.28125 167.5,167.5 0 0 0 -167.499997,167.5 167.5,167.5 0 0 0 167.499997,167.5 167.5,167.5 0 0 0 99.88672,-33.26758 l 73.48633,73.48633 a 167.5,167.5 0 0 0 -33.28125,99.87304 167.5,167.5 0 0 0 167.5,167.50005 167.5,167.5 0 0 0 167.5,-167.50005 167.5,167.5 0 0 0 -33.26758,-99.88867 l 73.48438,-73.48437 a 167.5,167.5 0 0 0 99.87304,33.28125 167.5,167.5 0 0 0 167.5,-167.5 167.5,167.5 0 0 0 -167.5,-167.5 167.5,167.5 0 0 0 -99.88672,33.26757 l -73.48632,-73.48632 a 167.5,167.5 0 0 0 33.2832,-99.87305 167.5,167.5 0 0 0 -167.5,-167.5 z"
         style="opacity:1;fill:none;fill-opacity:1;stroke:#f2f2f2;stroke-width:15;stroke-linecap:round;stroke-linejoin:round;stroke-miterlimit:4;stroke-dasharray:none;stroke-opacity:1"
         inkscape:connector-curvature="0" />
      <path
         id="rect4212"
         d="m 388.13874,483.49345 -70.85742,70.85742 a 167.5,167.5 0 0 1 49.13281,118.36719 167.5,167.5 0 0 1 -49.13476,118.36523 l 70.85937,70.85938 a 167.5,167.5 0 0 1 118.36719,-49.13282 167.5,167.5 0 0 1 118.36719,49.13282 l 70.85742,-70.85743 A 167.5,167.5 0 0 1 646.59577,672.71806 167.5,167.5 0 0 1 695.73054,554.35087 L 624.87312,483.49345 A 167.5,167.5 0 0 1 506.50593,532.62626 167.5,167.5 0 0 1 388.13874,483.49345 Z"
         style="opacity:1;fill:none;fill-opacity:1;stroke:#f2f2f2;stroke-width:14.99999905;stroke-linecap:round;stroke-linejoin:round;stroke-miterlimit:4;stroke-dasharray:none;stroke-opacity:1"
         inkscape:connector-curvature="0" />
      <path
         id="rect4214"
         d="m 404.16218,497.46806 -72.82813,72.82812 a 167.5,167.5 0 0 1 35.08008,102.42188 167.5,167.5 0 0 1 -35.1582,102.34179 l 72.82812,72.82813 a 167.5,167.5 0 0 1 102.42188,-35.07813 167.5,167.5 0 0 1 102.33984,35.15821 l 72.82813,-72.82813 a 167.5,167.5 0 0 1 -35.07813,-102.42187 167.5,167.5 0 0 1 35.15821,-102.3418 l -72.82813,-72.82813 a 167.5,167.5 0 0 1 -102.41992,35.07813 167.5,167.5 0 0 1 -102.34375,-35.1582 z"
         style="opacity:1;fill:none;fill-opacity:1;stroke:#f2f2f2;stroke-width:14.99999905;stroke-linecap:round;stroke-linejoin:round;stroke-miterlimit:4;stroke-dasharray:none;stroke-opacity:1"
         inkscape:connector-curvature="0" />
      <path
         id="rect4216"
         d="m 590.93366,509.55595 a 167.5,167.5 0 0 1 -84.42773,23.07031 167.5,167.5 0 0 1 -84.45313,-23.04883 l -78.71093,78.71094 a 167.5,167.5 0 0 1 23.07226,84.42969 167.5,167.5 0 0 1 -23.04883,84.45117 l 78.71094,78.71094 a 167.5,167.5 0 0 1 84.42969,-23.07032 167.5,167.5 0 0 1 84.45117,23.04688 l 78.70899,-78.70899 a 167.5,167.5 0 0 1 -23.07032,-84.42968 167.5,167.5 0 0 1 23.04883,-84.45118 l -78.71094,-78.71093 z"
         style="opacity:1;fill:none;fill-opacity:1;stroke:#f2f2f2;stroke-width:14.99999905;stroke-linecap:round;stroke-linejoin:round;stroke-miterlimit:4;stroke-dasharray:none;stroke-opacity:1"
         inkscape:connector-curvature="0" />
      <path
         id="rect4218"
         d="m 570.94538,519.56767 a 167.5,167.5 0 0 1 -64.43945,13.05859 167.5,167.5 0 0 1 -64.5332,-12.96875 l -88.61914,88.62109 a 167.5,167.5 0 0 1 13.06054,64.43946 167.5,167.5 0 0 1 -12.96875,64.53125 l 88.61914,88.62109 a 167.5,167.5 0 0 1 64.44141,-13.06055 167.5,167.5 0 0 1 64.53125,12.9668 l 88.61719,-88.61719 a 167.5,167.5 0 0 1 -13.0586,-64.4414 167.5,167.5 0 0 1 12.96875,-64.53125 l -88.61914,-88.61914 z"
         style="opacity:1;fill:none;fill-opacity:1;stroke:#f2f2f2;stroke-width:14.99999809;stroke-linecap:round;stroke-linejoin:round;stroke-miterlimit:4;stroke-dasharray:none;stroke-opacity:1"
         inkscape:connector-curvature="0" />
      <path
         id="rect4220"
         d="m 464.55671,527.07353 -103.62305,103.625 a 167.5,167.5 0 0 1 5.48047,42.01953 167.5,167.5 0 0 1 -5.55273,41.94726 l 103.62109,103.62305 a 167.5,167.5 0 0 1 42.02344,-5.47852 167.5,167.5 0 0 1 41.94726,5.55078 l 103.6211,-103.62109 a 167.5,167.5 0 0 1 -5.47852,-42.02148 167.5,167.5 0 0 1 5.55274,-41.94727 L 548.52546,527.14774 a 167.5,167.5 0 0 1 -42.01953,5.47852 167.5,167.5 0 0 1 -41.94922,-5.55273 z"
         style="opacity:1;fill:none;fill-opacity:1;stroke:#f2f2f2;stroke-width:14.99999714;stroke-linecap:round;stroke-linejoin:round;stroke-miterlimit:4;stroke-dasharray:none;stroke-opacity:1"
         inkscape:connector-curvature="0" />
      <path
         id="rect4222"
         d="m 523.01765,531.63993 a 167.5,167.5 0 0 1 -16.51172,0.98633 167.5,167.5 0 0 1 -16.66797,-0.83399 L 365.4278,656.20438 a 167.5,167.5 0 0 1 0.98633,16.51368 167.5,167.5 0 0 1 -0.83594,16.66601 L 489.9903,813.79618 a 167.5,167.5 0 0 1 16.51563,-0.98633 167.5,167.5 0 0 1 16.66406,0.83399 L 647.5821,689.23173 a 167.5,167.5 0 0 1 -0.98633,-16.51367 167.5,167.5 0 0 1 0.83399,-16.66602 L 523.01765,531.63993 Z"
         style="opacity:1;fill:none;fill-opacity:1;stroke:#f2f2f2;stroke-width:14.99999619;stroke-linecap:round;stroke-linejoin:round;stroke-miterlimit:4;stroke-dasharray:none;stroke-opacity:1"
         inkscape:connector-curvature="0" />
      <rect
         transform="matrix(0.70710678,-0.70710678,0.70710678,0.70710678,0,0)"
         y="743.61578"
         x="-207.7511"
         height="180.44136"
         width="180.44136"
         id="rect4224"
         style="opacity:1;fill:none;fill-opacity:1;stroke:#f2f2f2;stroke-width:14.99999619;stroke-linecap:round;stroke-linejoin:round;stroke-miterlimit:4;stroke-dasharray:none;stroke-opacity:1" />
      <rect
         style="opacity:1;fill:none;fill-opacity:1;stroke:#f2f2f2;stroke-width:14.99999619;stroke-linecap:round;stroke-linejoin:round;stroke-miterlimit:4;stroke-dasharray:none;stroke-opacity:1"
         id="rect4226"
         width="138.01495"
         height="138.01495"
         x="-186.5379"
         y="764.82898"
         transform="matrix(0.70710678,-0.70710678,0.70710678,0.70710678,0,0)" />
      <rect
         transform="matrix(0.70710678,-0.70710678,0.70710678,0.70710678,0,0)"
         y="786.04218"
         x="-165.32471"
         height="95.588547"
         width="95.588547"
         id="rect4228"
         style="opacity:1;fill:none;fill-opacity:1;stroke:#f2f2f2;stroke-width:14.99999619;stroke-linecap:round;stroke-linejoin:round;stroke-miterlimit:4;stroke-dasharray:none;stroke-opacity:1" />
      <rect
         style="opacity:1;fill:none;fill-opacity:1;stroke:#f2f2f2;stroke-width:14.99999619;stroke-linecap:round;stroke-linejoin:round;stroke-miterlimit:4;stroke-dasharray:none;stroke-opacity:1"
         id="rect4230"
         width="53.162144"
         height="53.162144"
         x="-144.11151"
         y="807.25537"
         transform="matrix(0.70710678,-0.70710678,0.70710678,0.70710678,0,0)" />
      <circle
         r="117.5"
         cy="672.7179"
         cx="814.09668"
         id="path4232"
         style="opacity:1;fill:none;fill-opacity:1;stroke:#f2f2f2;stroke-width:15.00000095;stroke-linecap:round;stroke-linejoin:round;stroke-miterlimit:4;stroke-dasharray:none;stroke-opacity:1" />
      <circle
         style="opacity:1;fill:none;fill-opacity:1;stroke:#f2f2f2;stroke-width:15.00000191;stroke-linecap:round;stroke-linejoin:round;stroke-miterlimit:4;stroke-dasharray:none;stroke-opacity:1"
         id="circle4308"
         cx="814.09668"
         cy="672.7179"
         r="92.5" />
      <circle
         r="67.5"
         cy="672.7179"
         cx="814.09668"
         id="circle4310"
         style="opacity:1;fill:none;fill-opacity:1;stroke:#f2f2f2;stroke-width:15.00000286;stroke-linecap:round;stroke-linejoin:round;stroke-miterlimit:4;stroke-dasharray:none;stroke-opacity:1" />
      <circle
         style="opacity:1;fill:none;fill-opacity:1;stroke:#f2f2f2;stroke-width:15.00000286;stroke-linecap:round;stroke-linejoin:round;stroke-miterlimit:4;stroke-dasharray:none;stroke-opacity:1"
         id="circle4312"
         cx="814.09668"
         cy="672.7179"
         r="42.5" />
      <circle
         r="17.499998"
         cy="672.7179"
         cx="814.09668"
         id="circle4314"
         style="opacity:1;fill:none;fill-opacity:1;stroke:#f2f2f2;stroke-width:15.00000286;stroke-linecap:round;stroke-linejoin:round;stroke-miterlimit:4;stroke-dasharray:none;stroke-opacity:1" />
      <circle
         style="opacity:1;fill:none;fill-opacity:1;stroke:#f2f2f2;stroke-width:15.00000095;stroke-linecap:round;stroke-linejoin:round;stroke-miterlimit:4;stroke-dasharray:none;stroke-opacity:1"
         id="circle4318"
         cx="198.9138"
         cy="672.7179"
         r="117.5" />
      <circle
         r="92.5"
         cy="672.7179"
         cx="198.9138"
         id="circle4320"
         style="opacity:1;fill:none;fill-opacity:1;stroke:#f2f2f2;stroke-width:15.00000191;stroke-linecap:round;stroke-linejoin:round;stroke-miterlimit:4;stroke-dasharray:none;stroke-opacity:1" />
      <circle
         style="opacity:1;fill:none;fill-opacity:1;stroke:#f2f2f2;stroke-width:15.00000286;stroke-linecap:round;stroke-linejoin:round;stroke-miterlimit:4;stroke-dasharray:none;stroke-opacity:1"
         id="circle4322"
         cx="198.9138"
         cy="672.7179"
         r="67.5" />
      <circle
         r="42.5"
         cy="672.7179"
         cx="198.9138"
         id="circle4324"
         style="opacity:1;fill:none;fill-opacity:1;stroke:#f2f2f2;stroke-width:15.00000286;stroke-linecap:round;stroke-linejoin:round;stroke-miterlimit:4;stroke-dasharray:none;stroke-opacity:1" />
      <circle
         style="opacity:1;fill:none;fill-opacity:1;stroke:#f2f2f2;stroke-width:15.00000286;stroke-linecap:round;stroke-linejoin:round;stroke-miterlimit:4;stroke-dasharray:none;stroke-opacity:1"
         id="circle4326"
         cx="198.9138"
         cy="672.7179"
         r="17.499998" />
      <circle
         r="117.5"
         cy="365.12646"
         cx="506.50525"
         id="circle4330"
         style="opacity:1;fill:none;fill-opacity:1;stroke:#f2f2f2;stroke-width:15.00000095;stroke-linecap:round;stroke-linejoin:round;stroke-miterlimit:4;stroke-dasharray:none;stroke-opacity:1" />
      <circle
         style="opacity:1;fill:none;fill-opacity:1;stroke:#f2f2f2;stroke-width:15.00000191;stroke-linecap:round;stroke-linejoin:round;stroke-miterlimit:4;stroke-dasharray:none;stroke-opacity:1"
         id="circle4332"
         cx="506.50525"
         cy="365.12646"
         r="92.5" />
      <circle
         r="67.5"
         cy="365.12646"
         cx="506.50525"
         id="circle4334"
         style="opacity:1;fill:none;fill-opacity:1;stroke:#f2f2f2;stroke-width:15.00000286;stroke-linecap:round;stroke-linejoin:round;stroke-miterlimit:4;stroke-dasharray:none;stroke-opacity:1" />
      <circle
         style="opacity:1;fill:none;fill-opacity:1;stroke:#f2f2f2;stroke-width:15.00000286;stroke-linecap:round;stroke-linejoin:round;stroke-miterlimit:4;stroke-dasharray:none;stroke-opacity:1"
         id="circle4336"
         cx="506.50525"
         cy="365.12646"
         r="42.5" />
      <circle
         r="17.499998"
         cy="365.12646"
         cx="506.50525"
         id="circle4338"
         style="opacity:1;fill:none;fill-opacity:1;stroke:#f2f2f2;stroke-width:15.00000286;stroke-linecap:round;stroke-linejoin:round;stroke-miterlimit:4;stroke-dasharray:none;stroke-opacity:1" />
      <circle
         style="opacity:1;fill:none;fill-opacity:1;stroke:#f2f2f2;stroke-width:15.00000095;stroke-linecap:round;stroke-linejoin:round;stroke-miterlimit:4;stroke-dasharray:none;stroke-opacity:1"
         id="circle4342"
         cx="506.50525"
         cy="980.30933"
         r="117.5" />
      <circle
         r="92.5"
         cy="980.30933"
         cx="506.50525"
         id="circle4344"
         style="opacity:1;fill:none;fill-opacity:1;stroke:#f2f2f2;stroke-width:15.00000191;stroke-linecap:round;stroke-linejoin:round;stroke-miterlimit:4;stroke-dasharray:none;stroke-opacity:1" />
      <circle
         style="opacity:1;fill:none;fill-opacity:1;stroke:#f2f2f2;stroke-width:15.00000286;stroke-linecap:round;stroke-linejoin:round;stroke-miterlimit:4;stroke-dasharray:none;stroke-opacity:1"
         id="circle4346"
         cx="506.50525"
         cy="980.30933"
         r="67.5" />
      <circle
         r="42.5"
         cy="980.30933"
         cx="506.50525"
         id="circle4348"
         style="opacity:1;fill:none;fill-opacity:1;stroke:#f2f2f2;stroke-width:15.00000286;stroke-linecap:round;stroke-linejoin:round;stroke-miterlimit:4;stroke-dasharray:none;stroke-opacity:1" />
      <circle
         style="opacity:1;fill:none;fill-opacity:1;stroke:#f2f2f2;stroke-width:15.00000286;stroke-linecap:round;stroke-linejoin:round;stroke-miterlimit:4;stroke-dasharray:none;stroke-opacity:1"
         id="circle4350"
         cx="506.50525"
         cy="980.30933"
         r="17.499998" />
    </g>
  </g>
</svg>
