<?xml version="1.0" encoding="UTF-8" standalone="no"?>
<!-- Created with Inkscape (http://www.inkscape.org/) -->

<svg
   xmlns:dc="http://purl.org/dc/elements/1.1/"
   xmlns:cc="http://creativecommons.org/ns#"
   xmlns:rdf="http://www.w3.org/1999/02/22-rdf-syntax-ns#"
   xmlns:svg="http://www.w3.org/2000/svg"
   xmlns="http://www.w3.org/2000/svg"
   xmlns:sodipodi="http://sodipodi.sourceforge.net/DTD/sodipodi-0.dtd"
   xmlns:inkscape="http://www.inkscape.org/namespaces/inkscape"
   width="297mm"
   height="210mm"
   viewBox="0 0 1052.3622 744.09448"
   id="svg2"
   version="1.1"
   inkscape:version="0.91 r13725"
   sodipodi:docname="crown.svg">
  <defs
     id="defs4" />
  <sodipodi:namedview
     id="base"
     pagecolor="#ffffff"
     bordercolor="#666666"
     borderopacity="1.0"
     inkscape:pageopacity="0.0"
     inkscape:pageshadow="2"
     inkscape:zoom="0.70710678"
     inkscape:cx="451.78969"
     inkscape:cy="443.86913"
     inkscape:document-units="px"
     inkscape:current-layer="layer1"
     showgrid="false"
     inkscape:object-nodes="true"
     inkscape:window-width="1879"
     inkscape:window-height="1056"
     inkscape:window-x="41"
     inkscape:window-y="24"
     inkscape:window-maximized="1" />
  <metadata
     id="metadata7">
    <rdf:RDF>
      <cc:Work
         rdf:about="">
        <dc:format>image/svg+xml</dc:format>
        <dc:type
           rdf:resource="http://purl.org/dc/dcmitype/StillImage" />
        <dc:title></dc:title>
      </cc:Work>
    </rdf:RDF>
  </metadata>
  <g
     inkscape:label="Layer 1"
     inkscape:groupmode="layer"
     id="layer1"
     transform="translate(0,-308.26772)">
    <path
       style="color:#000000;font-style:normal;font-variant:normal;font-weight:normal;font-stretch:normal;font-size:medium;line-height:normal;font-family:sans-serif;text-indent:0;text-align:start;text-decoration:none;text-decoration-line:none;text-decoration-style:solid;text-decoration-color:#000000;letter-spacing:normal;word-spacing:normal;text-transform:none;direction:ltr;block-progression:tb;writing-mode:lr-tb;baseline-shift:baseline;text-anchor:start;white-space:normal;clip-rule:nonzero;display:inline;overflow:visible;visibility:visible;opacity:1;isolation:auto;mix-blend-mode:normal;color-interpolation:sRGB;color-interpolation-filters:linearRGB;solid-color:#000000;solid-opacity:1;fill:#000000;fill-opacity:1;fill-rule:nonzero;stroke:none;stroke-width:30;stroke-linecap:butt;stroke-linejoin:miter;stroke-miterlimit:4;stroke-dasharray:none;stroke-dashoffset:0;stroke-opacity:1;color-rendering:auto;image-rendering:auto;shape-rendering:auto;text-rendering:auto;enable-background:accumulate"
       d="M 491.0332 85.068359 L 477.60742 112.01953 L 407.8457 252.05469 L 244.38867 152.66211 L 256.45508 190.7793 L 324.02148 404.19336 L 332.05273 404.19336 L 658.04297 404.19336 L 737.67578 152.66211 L 703.51562 173.43555 L 574.2207 252.05469 L 491.0332 85.068359 z M 491.0332 152.34766 L 548.49805 267.69727 L 491.0332 302.63867 L 433.56836 267.69727 L 491.0332 152.34766 z M 297.125 219.83984 L 394.41992 279.00195 L 346.99805 374.19336 L 345.99219 374.19336 L 297.125 219.83984 z M 684.93945 219.83984 L 636.07227 374.19336 L 635.06641 374.19336 L 587.64453 279.00195 L 684.93945 219.83984 z M 420.14453 294.64453 L 462.16211 320.19531 L 383.625 367.94922 L 420.14453 294.64453 z M 561.92188 294.64453 L 598.44141 367.95117 L 519.90234 320.19531 L 561.92188 294.64453 z M 491.0332 337.75 L 550.96484 374.19336 L 431.09961 374.19336 L 491.0332 337.75 z M 324.77344 433.09375 L 324.77344 463.09375 L 657.29102 463.09375 L 657.29102 433.09375 L 324.77344 433.09375 z "
       transform="translate(0,308.26772)"
       id="rect4138" />
  </g>
</svg>
