<?xml version="1.0" encoding="UTF-8" standalone="no"?>
<!-- Created with Inkscape (http://www.inkscape.org/) -->

<svg
   xmlns:dc="http://purl.org/dc/elements/1.1/"
   xmlns:cc="http://creativecommons.org/ns#"
   xmlns:rdf="http://www.w3.org/1999/02/22-rdf-syntax-ns#"
   xmlns:svg="http://www.w3.org/2000/svg"
   xmlns="http://www.w3.org/2000/svg"
   xmlns:sodipodi="http://sodipodi.sourceforge.net/DTD/sodipodi-0.dtd"
   xmlns:inkscape="http://www.inkscape.org/namespaces/inkscape"
   width="420mm"
   height="297mm"
   viewBox="0 0 1488.189 1052.3622"
   id="svg8824"
   version="1.1"
   inkscape:version="0.91 r13725"
   sodipodi:docname="doppler.svg">
  <defs
     id="defs8826" />
  <sodipodi:namedview
     id="base"
     pagecolor="#ffffff"
     bordercolor="#666666"
     borderopacity="1.0"
     inkscape:pageopacity="0.0"
     inkscape:pageshadow="2"
     inkscape:zoom="0.7"
     inkscape:cx="549.11904"
     inkscape:cy="515.21794"
     inkscape:document-units="px"
     inkscape:current-layer="layer1"
     showgrid="false"
     inkscape:snap-center="true"
     inkscape:window-width="1879"
     inkscape:window-height="1056"
     inkscape:window-x="41"
     inkscape:window-y="24"
     inkscape:window-maximized="1" />
  <metadata
     id="metadata8829">
    <rdf:RDF>
      <cc:Work
         rdf:about="">
        <dc:format>image/svg+xml</dc:format>
        <dc:type
           rdf:resource="http://purl.org/dc/dcmitype/StillImage" />
        <dc:title></dc:title>
      </cc:Work>
    </rdf:RDF>
  </metadata>
  <g
     inkscape:label="Layer 1"
     inkscape:groupmode="layer"
     id="layer1"
     transform="translate(0,-1.6535434e-6)">
    <circle
       style="opacity:1;fill:none;fill-opacity:1;stroke:#000000;stroke-width:5;stroke-miterlimit:4;stroke-dasharray:none;stroke-opacity:1"
       id="path9374"
       cx="744.09448"
       cy="526.18109"
       r="449.11194" />
    <circle
       r="149.70398"
       cy="526.18109"
       cx="744.09448"
       id="circle9376"
       style="opacity:1;fill:none;fill-opacity:1;stroke:#000000;stroke-width:5;stroke-miterlimit:4;stroke-dasharray:none;stroke-opacity:1" />
    <g
       id="g9410">
      <circle
         r="149.70398"
         cy="826.18109"
         cx="744.09448"
         id="circle9378"
         style="opacity:1;fill:none;fill-opacity:1;stroke:#000000;stroke-width:1;stroke-miterlimit:4;stroke-dasharray:none;stroke-opacity:1" />
      <circle
         style="opacity:1;fill:none;fill-opacity:1;stroke:#000000;stroke-width:1;stroke-miterlimit:4;stroke-dasharray:none;stroke-opacity:1"
         id="circle9382"
         cx="744.09448"
         cy="851.18109"
         r="124.75331" />
      <circle
         r="99.80265"
         cy="876.18109"
         cx="744.09448"
         id="circle9386"
         style="opacity:1;fill:none;fill-opacity:1;stroke:#000000;stroke-width:1;stroke-miterlimit:4;stroke-dasharray:none;stroke-opacity:1" />
      <circle
         style="opacity:1;fill:none;fill-opacity:1;stroke:#000000;stroke-width:1;stroke-miterlimit:4;stroke-dasharray:none;stroke-opacity:1"
         id="circle9388"
         cx="744.09448"
         cy="901.18109"
         r="74.85199" />
      <circle
         r="49.901325"
         cy="926.18109"
         cx="744.09448"
         id="circle9390"
         style="opacity:1;fill:none;fill-opacity:1;stroke:#000000;stroke-width:1;stroke-miterlimit:4;stroke-dasharray:none;stroke-opacity:1" />
      <circle
         style="opacity:1;fill:none;fill-opacity:1;stroke:#000000;stroke-width:1;stroke-miterlimit:4;stroke-dasharray:none;stroke-opacity:1"
         id="circle9392"
         cx="744.09448"
         cy="951.18109"
         r="24.950663" />
      <circle
         r="12.696076"
         cy="963.68121"
         cx="744.09448"
         id="circle9400"
         style="opacity:1;fill:none;fill-opacity:1;stroke:#000000;stroke-width:1;stroke-miterlimit:4;stroke-dasharray:none;stroke-opacity:1" />
      <path
         inkscape:connector-curvature="0"
         id="path9402"
         d="m 736.8961,973.1581 c -4.3542,-3.15417 -5.8592,-9.38287 -3.49424,-14.46157 2.06757,-4.44009 5.79638,-6.79789 10.75069,-6.79789 8.86622,0 14.44405,9.1278 10.46152,17.11968 -0.80359,1.61261 -2.13437,3.25283 -3.35877,4.13978 -1.92348,1.39336 -2.29304,1.46897 -7.1796,1.46897 -4.88656,0 -5.25612,-0.0756 -7.1796,-1.46897 z"
         style="opacity:1;fill:#000000;fill-opacity:1;stroke:#000000;stroke-width:0.50507629;stroke-miterlimit:4;stroke-dasharray:none;stroke-opacity:1" />
      <path
         inkscape:connector-curvature="0"
         id="path9404"
         d="m 725.03976,971.40389 c -5.21753,-2.278 -7.77674,-3.8258 -12.13964,-7.34197 -5.72647,-4.61512 -11.10861,-11.78647 -14.07169,-18.74961 -2.68035,-6.29873 -3.68778,-11.55586 -3.67406,-19.17256 0.015,-8.3176 1.16428,-13.60286 4.48019,-20.6028 2.85025,-6.01694 5.71896,-10.01908 10.41963,-14.53645 6.39468,-6.14531 12.17273,-9.50791 20.88953,-12.1569 4.13707,-1.25723 5.29481,-1.38421 12.87944,-1.41256 7.19426,-0.0269 8.91616,0.12799 12.59315,1.13272 17.67652,4.83007 31.08544,18.55454 35.49059,36.32576 1.55215,6.26169 1.54779,16.25566 -0.01,22.54187 -2.9075,11.73394 -9.7378,21.88811 -19.32525,28.72957 -3.52127,2.51272 -10.8214,6.19105 -13.34383,6.72357 l -1.51523,0.31989 1.76777,-1.41854 c 10.1046,-8.10835 13.00432,-21.29446 7.20236,-32.75174 -1.74822,-3.45226 -6.66088,-8.42444 -10.17326,-10.29652 -7.62952,-4.06649 -17.10271,-4.13948 -24.51794,-0.1889 -3.43016,1.82747 -8.92449,7.32889 -10.5777,10.59135 -5.0639,9.99313 -3.24104,22.37012 4.40094,29.88175 1.43188,1.40745 3.05798,2.89625 3.61356,3.30845 1.76936,1.31271 -0.22405,0.89194 -4.38873,-0.92638 l 2e-5,0 z"
         style="opacity:1;fill:#000000;fill-opacity:1;stroke:#000000;stroke-width:0.50507629;stroke-miterlimit:4;stroke-dasharray:none;stroke-opacity:1" />
      <path
         inkscape:connector-curvature="0"
         id="path9406"
         d="m 704.8387,967.09556 c -6.11119,-2.67776 -12.94647,-6.55374 -18.59423,-10.54396 -5.63607,-3.98196 -17.28129,-15.37841 -21.26978,-20.8154 -11.66498,-15.90135 -18.26008,-33.57264 -19.60414,-52.52846 -4.15801,-58.64224 43.61463,-108.12861 102.24068,-105.90832 61.31535,2.32214 105.58996,58.61097 93.44274,118.79908 -3.70981,18.38169 -12.45137,34.89711 -25.75476,48.65842 -8.73673,9.03746 -17.56745,15.44177 -28.61809,20.75475 -6.27308,3.01599 -11.62734,4.87653 -7.25008,2.51931 11.45749,-6.17004 22.00597,-16.01838 28.91037,-26.99148 2.76953,-4.4016 6.57909,-12.95062 8.16487,-18.3228 4.37669,-14.82689 4.04608,-31.20594 -0.92964,-46.05747 -5.53688,-16.52651 -18.45816,-32.21998 -33.71638,-40.95007 -12.41579,-7.10377 -26.76875,-10.57612 -41.06756,-9.93529 -27.47233,1.23122 -52.04499,17.13955 -64.14042,41.52449 -3.44237,6.93996 -5.01453,11.42163 -6.64425,18.94036 -1.63463,7.54139 -1.63766,22.58955 -0.006,30.00813 3.35886,15.27193 9.93288,27.36113 20.76945,38.19374 5.74234,5.74023 10.99407,9.76195 16.93876,12.97153 4.10597,2.21685 2.50828,2.04072 -2.87151,-0.31656 z"
         style="opacity:1;fill:#000000;fill-opacity:1;stroke:#000000;stroke-width:0.50507629;stroke-miterlimit:4;stroke-dasharray:none;stroke-opacity:1" />
      <path
         inkscape:connector-curvature="0"
         id="path9408"
         d="m 684.72924,962.81988 c -18.45613,-8.30558 -31.99376,-17.608 -45.99011,-31.60224 -24.7447,-24.74094 -39.67396,-56.42632 -42.93656,-91.12718 -0.8686,-9.23837 -0.34981,-27.96084 1.00951,-36.43171 7.21834,-44.98254 33.40356,-83.40295 72.41826,-106.2561 38.9614,-22.82192 87.13532,-26.47139 129.3936,-9.80235 51.28172,20.22839 87.01105,66.74567 93.43279,121.64348 0.99497,8.50568 0.99497,25.27606 0,33.78173 -6.26416,53.55073 -40.23875,99.05972 -89.81575,120.30826 -5.96947,2.55849 -5.79175,2.02921 0.42357,-1.26147 11.50455,-6.09104 20.72156,-12.91603 30.07653,-22.271 19.48907,-19.48907 31.36656,-43.21074 35.67015,-71.24025 1.24529,-8.11067 1.24596,-26.73197 10e-4,-34.85026 -4.23881,-27.64813 -16.41788,-51.97941 -35.66558,-71.253 -48.8662,-48.93194 -128.51111,-48.9194 -177.31185,0.0279 -19.95669,20.01664 -31.85329,44.32759 -35.96631,73.49793 -0.92564,6.56484 -0.76718,25.37887 0.27144,32.22649 2.17013,14.3078 5.7899,25.94881 11.96663,38.48419 11.73283,23.81121 30.35243,43.00376 53.67773,55.32947 6.593,3.48392 6.24837,3.90277 -0.65506,0.7961 z"
         style="opacity:1;fill:#000000;fill-opacity:1;stroke:#000000;stroke-width:0.50507629;stroke-miterlimit:4;stroke-dasharray:none;stroke-opacity:1" />
    </g>
    <g
       id="g9447"
       inkscape:transform-center-y="150.00001"
       transform="matrix(0.5,-0.8660254,0.8660254,0.5,-83.638951,907.49527)"
       inkscape:transform-center-x="-259.80763">
      <circle
         style="opacity:1;fill:none;fill-opacity:1;stroke:#000000;stroke-width:1;stroke-miterlimit:4;stroke-dasharray:none;stroke-opacity:1"
         id="circle9449"
         cx="744.09448"
         cy="826.18109"
         r="149.70398" />
      <circle
         r="124.75331"
         cy="851.18109"
         cx="744.09448"
         id="circle9451"
         style="opacity:1;fill:none;fill-opacity:1;stroke:#000000;stroke-width:1;stroke-miterlimit:4;stroke-dasharray:none;stroke-opacity:1" />
      <circle
         style="opacity:1;fill:none;fill-opacity:1;stroke:#000000;stroke-width:1;stroke-miterlimit:4;stroke-dasharray:none;stroke-opacity:1"
         id="circle9453"
         cx="744.09448"
         cy="876.18109"
         r="99.80265" />
      <circle
         r="74.85199"
         cy="901.18109"
         cx="744.09448"
         id="circle9455"
         style="opacity:1;fill:none;fill-opacity:1;stroke:#000000;stroke-width:1;stroke-miterlimit:4;stroke-dasharray:none;stroke-opacity:1" />
      <circle
         style="opacity:1;fill:none;fill-opacity:1;stroke:#000000;stroke-width:1;stroke-miterlimit:4;stroke-dasharray:none;stroke-opacity:1"
         id="circle9457"
         cx="744.09448"
         cy="926.18109"
         r="49.901325" />
      <circle
         r="24.950663"
         cy="951.18109"
         cx="744.09448"
         id="circle9459"
         style="opacity:1;fill:none;fill-opacity:1;stroke:#000000;stroke-width:1;stroke-miterlimit:4;stroke-dasharray:none;stroke-opacity:1" />
      <circle
         style="opacity:1;fill:none;fill-opacity:1;stroke:#000000;stroke-width:1;stroke-miterlimit:4;stroke-dasharray:none;stroke-opacity:1"
         id="circle9461"
         cx="744.09448"
         cy="963.68121"
         r="12.696076" />
      <path
         style="opacity:1;fill:#000000;fill-opacity:1;stroke:#000000;stroke-width:0.50507629;stroke-miterlimit:4;stroke-dasharray:none;stroke-opacity:1"
         d="m 736.8961,973.1581 c -4.3542,-3.15417 -5.8592,-9.38287 -3.49424,-14.46157 2.06757,-4.44009 5.79638,-6.79789 10.75069,-6.79789 8.86622,0 14.44405,9.1278 10.46152,17.11968 -0.80359,1.61261 -2.13437,3.25283 -3.35877,4.13978 -1.92348,1.39336 -2.29304,1.46897 -7.1796,1.46897 -4.88656,0 -5.25612,-0.0756 -7.1796,-1.46897 z"
         id="path9463"
         inkscape:connector-curvature="0" />
      <path
         style="opacity:1;fill:#000000;fill-opacity:1;stroke:#000000;stroke-width:0.50507629;stroke-miterlimit:4;stroke-dasharray:none;stroke-opacity:1"
         d="m 725.03976,971.40389 c -5.21753,-2.278 -7.77674,-3.8258 -12.13964,-7.34197 -5.72647,-4.61512 -11.10861,-11.78647 -14.07169,-18.74961 -2.68035,-6.29873 -3.68778,-11.55586 -3.67406,-19.17256 0.015,-8.3176 1.16428,-13.60286 4.48019,-20.6028 2.85025,-6.01694 5.71896,-10.01908 10.41963,-14.53645 6.39468,-6.14531 12.17273,-9.50791 20.88953,-12.1569 4.13707,-1.25723 5.29481,-1.38421 12.87944,-1.41256 7.19426,-0.0269 8.91616,0.12799 12.59315,1.13272 17.67652,4.83007 31.08544,18.55454 35.49059,36.32576 1.55215,6.26169 1.54779,16.25566 -0.01,22.54187 -2.9075,11.73394 -9.7378,21.88811 -19.32525,28.72957 -3.52127,2.51272 -10.8214,6.19105 -13.34383,6.72357 l -1.51523,0.31989 1.76777,-1.41854 c 10.1046,-8.10835 13.00432,-21.29446 7.20236,-32.75174 -1.74822,-3.45226 -6.66088,-8.42444 -10.17326,-10.29652 -7.62952,-4.06649 -17.10271,-4.13948 -24.51794,-0.1889 -3.43016,1.82747 -8.92449,7.32889 -10.5777,10.59135 -5.0639,9.99313 -3.24104,22.37012 4.40094,29.88175 1.43188,1.40745 3.05798,2.89625 3.61356,3.30845 1.76936,1.31271 -0.22405,0.89194 -4.38873,-0.92638 l 2e-5,0 z"
         id="path9465"
         inkscape:connector-curvature="0" />
      <path
         style="opacity:1;fill:#000000;fill-opacity:1;stroke:#000000;stroke-width:0.50507629;stroke-miterlimit:4;stroke-dasharray:none;stroke-opacity:1"
         d="m 704.8387,967.09556 c -6.11119,-2.67776 -12.94647,-6.55374 -18.59423,-10.54396 -5.63607,-3.98196 -17.28129,-15.37841 -21.26978,-20.8154 -11.66498,-15.90135 -18.26008,-33.57264 -19.60414,-52.52846 -4.15801,-58.64224 43.61463,-108.12861 102.24068,-105.90832 61.31535,2.32214 105.58996,58.61097 93.44274,118.79908 -3.70981,18.38169 -12.45137,34.89711 -25.75476,48.65842 -8.73673,9.03746 -17.56745,15.44177 -28.61809,20.75475 -6.27308,3.01599 -11.62734,4.87653 -7.25008,2.51931 11.45749,-6.17004 22.00597,-16.01838 28.91037,-26.99148 2.76953,-4.4016 6.57909,-12.95062 8.16487,-18.3228 4.37669,-14.82689 4.04608,-31.20594 -0.92964,-46.05747 -5.53688,-16.52651 -18.45816,-32.21998 -33.71638,-40.95007 -12.41579,-7.10377 -26.76875,-10.57612 -41.06756,-9.93529 -27.47233,1.23122 -52.04499,17.13955 -64.14042,41.52449 -3.44237,6.93996 -5.01453,11.42163 -6.64425,18.94036 -1.63463,7.54139 -1.63766,22.58955 -0.006,30.00813 3.35886,15.27193 9.93288,27.36113 20.76945,38.19374 5.74234,5.74023 10.99407,9.76195 16.93876,12.97153 4.10597,2.21685 2.50828,2.04072 -2.87151,-0.31656 z"
         id="path9467"
         inkscape:connector-curvature="0" />
      <path
         style="opacity:1;fill:#000000;fill-opacity:1;stroke:#000000;stroke-width:0.50507629;stroke-miterlimit:4;stroke-dasharray:none;stroke-opacity:1"
         d="m 684.72924,962.81988 c -18.45613,-8.30558 -31.99376,-17.608 -45.99011,-31.60224 -24.7447,-24.74094 -39.67396,-56.42632 -42.93656,-91.12718 -0.8686,-9.23837 -0.34981,-27.96084 1.00951,-36.43171 7.21834,-44.98254 33.40356,-83.40295 72.41826,-106.2561 38.9614,-22.82192 87.13532,-26.47139 129.3936,-9.80235 51.28172,20.22839 87.01105,66.74567 93.43279,121.64348 0.99497,8.50568 0.99497,25.27606 0,33.78173 -6.26416,53.55073 -40.23875,99.05972 -89.81575,120.30826 -5.96947,2.55849 -5.79175,2.02921 0.42357,-1.26147 11.50455,-6.09104 20.72156,-12.91603 30.07653,-22.271 19.48907,-19.48907 31.36656,-43.21074 35.67015,-71.24025 1.24529,-8.11067 1.24596,-26.73197 10e-4,-34.85026 -4.23881,-27.64813 -16.41788,-51.97941 -35.66558,-71.253 -48.8662,-48.93194 -128.51111,-48.9194 -177.31185,0.0279 -19.95669,20.01664 -31.85329,44.32759 -35.96631,73.49793 -0.92564,6.56484 -0.76718,25.37887 0.27144,32.22649 2.17013,14.3078 5.7899,25.94881 11.96663,38.48419 11.73283,23.81121 30.35243,43.00376 53.67773,55.32947 6.593,3.48392 6.24837,3.90277 -0.65506,0.7961 z"
         id="path9469"
         inkscape:connector-curvature="0" />
    </g>
    <g
       inkscape:transform-center-x="-259.80763"
       transform="matrix(-0.5,-0.8660254,0.8660254,-0.5,660.45553,1433.6764)"
       inkscape:transform-center-y="-149.99996"
       id="g9471">
      <circle
         r="149.70398"
         cy="826.18109"
         cx="744.09448"
         id="circle9473"
         style="opacity:1;fill:none;fill-opacity:1;stroke:#000000;stroke-width:1;stroke-miterlimit:4;stroke-dasharray:none;stroke-opacity:1" />
      <circle
         style="opacity:1;fill:none;fill-opacity:1;stroke:#000000;stroke-width:1;stroke-miterlimit:4;stroke-dasharray:none;stroke-opacity:1"
         id="circle9475"
         cx="744.09448"
         cy="851.18109"
         r="124.75331" />
      <circle
         r="99.80265"
         cy="876.18109"
         cx="744.09448"
         id="circle9477"
         style="opacity:1;fill:none;fill-opacity:1;stroke:#000000;stroke-width:1;stroke-miterlimit:4;stroke-dasharray:none;stroke-opacity:1" />
      <circle
         style="opacity:1;fill:none;fill-opacity:1;stroke:#000000;stroke-width:1;stroke-miterlimit:4;stroke-dasharray:none;stroke-opacity:1"
         id="circle9479"
         cx="744.09448"
         cy="901.18109"
         r="74.85199" />
      <circle
         r="49.901325"
         cy="926.18109"
         cx="744.09448"
         id="circle9481"
         style="opacity:1;fill:none;fill-opacity:1;stroke:#000000;stroke-width:1;stroke-miterlimit:4;stroke-dasharray:none;stroke-opacity:1" />
      <circle
         style="opacity:1;fill:none;fill-opacity:1;stroke:#000000;stroke-width:1;stroke-miterlimit:4;stroke-dasharray:none;stroke-opacity:1"
         id="circle9483"
         cx="744.09448"
         cy="951.18109"
         r="24.950663" />
      <circle
         r="12.696076"
         cy="963.68121"
         cx="744.09448"
         id="circle9485"
         style="opacity:1;fill:none;fill-opacity:1;stroke:#000000;stroke-width:1;stroke-miterlimit:4;stroke-dasharray:none;stroke-opacity:1" />
      <path
         inkscape:connector-curvature="0"
         id="path9487"
         d="m 736.8961,973.1581 c -4.3542,-3.15417 -5.8592,-9.38287 -3.49424,-14.46157 2.06757,-4.44009 5.79638,-6.79789 10.75069,-6.79789 8.86622,0 14.44405,9.1278 10.46152,17.11968 -0.80359,1.61261 -2.13437,3.25283 -3.35877,4.13978 -1.92348,1.39336 -2.29304,1.46897 -7.1796,1.46897 -4.88656,0 -5.25612,-0.0756 -7.1796,-1.46897 z"
         style="opacity:1;fill:#000000;fill-opacity:1;stroke:#000000;stroke-width:0.50507629;stroke-miterlimit:4;stroke-dasharray:none;stroke-opacity:1" />
      <path
         inkscape:connector-curvature="0"
         id="path9489"
         d="m 725.03976,971.40389 c -5.21753,-2.278 -7.77674,-3.8258 -12.13964,-7.34197 -5.72647,-4.61512 -11.10861,-11.78647 -14.07169,-18.74961 -2.68035,-6.29873 -3.68778,-11.55586 -3.67406,-19.17256 0.015,-8.3176 1.16428,-13.60286 4.48019,-20.6028 2.85025,-6.01694 5.71896,-10.01908 10.41963,-14.53645 6.39468,-6.14531 12.17273,-9.50791 20.88953,-12.1569 4.13707,-1.25723 5.29481,-1.38421 12.87944,-1.41256 7.19426,-0.0269 8.91616,0.12799 12.59315,1.13272 17.67652,4.83007 31.08544,18.55454 35.49059,36.32576 1.55215,6.26169 1.54779,16.25566 -0.01,22.54187 -2.9075,11.73394 -9.7378,21.88811 -19.32525,28.72957 -3.52127,2.51272 -10.8214,6.19105 -13.34383,6.72357 l -1.51523,0.31989 1.76777,-1.41854 c 10.1046,-8.10835 13.00432,-21.29446 7.20236,-32.75174 -1.74822,-3.45226 -6.66088,-8.42444 -10.17326,-10.29652 -7.62952,-4.06649 -17.10271,-4.13948 -24.51794,-0.1889 -3.43016,1.82747 -8.92449,7.32889 -10.5777,10.59135 -5.0639,9.99313 -3.24104,22.37012 4.40094,29.88175 1.43188,1.40745 3.05798,2.89625 3.61356,3.30845 1.76936,1.31271 -0.22405,0.89194 -4.38873,-0.92638 l 2e-5,0 z"
         style="opacity:1;fill:#000000;fill-opacity:1;stroke:#000000;stroke-width:0.50507629;stroke-miterlimit:4;stroke-dasharray:none;stroke-opacity:1" />
      <path
         inkscape:connector-curvature="0"
         id="path9491"
         d="m 704.8387,967.09556 c -6.11119,-2.67776 -12.94647,-6.55374 -18.59423,-10.54396 -5.63607,-3.98196 -17.28129,-15.37841 -21.26978,-20.8154 -11.66498,-15.90135 -18.26008,-33.57264 -19.60414,-52.52846 -4.15801,-58.64224 43.61463,-108.12861 102.24068,-105.90832 61.31535,2.32214 105.58996,58.61097 93.44274,118.79908 -3.70981,18.38169 -12.45137,34.89711 -25.75476,48.65842 -8.73673,9.03746 -17.56745,15.44177 -28.61809,20.75475 -6.27308,3.01599 -11.62734,4.87653 -7.25008,2.51931 11.45749,-6.17004 22.00597,-16.01838 28.91037,-26.99148 2.76953,-4.4016 6.57909,-12.95062 8.16487,-18.3228 4.37669,-14.82689 4.04608,-31.20594 -0.92964,-46.05747 -5.53688,-16.52651 -18.45816,-32.21998 -33.71638,-40.95007 -12.41579,-7.10377 -26.76875,-10.57612 -41.06756,-9.93529 -27.47233,1.23122 -52.04499,17.13955 -64.14042,41.52449 -3.44237,6.93996 -5.01453,11.42163 -6.64425,18.94036 -1.63463,7.54139 -1.63766,22.58955 -0.006,30.00813 3.35886,15.27193 9.93288,27.36113 20.76945,38.19374 5.74234,5.74023 10.99407,9.76195 16.93876,12.97153 4.10597,2.21685 2.50828,2.04072 -2.87151,-0.31656 z"
         style="opacity:1;fill:#000000;fill-opacity:1;stroke:#000000;stroke-width:0.50507629;stroke-miterlimit:4;stroke-dasharray:none;stroke-opacity:1" />
      <path
         inkscape:connector-curvature="0"
         id="path9493"
         d="m 684.72924,962.81988 c -18.45613,-8.30558 -31.99376,-17.608 -45.99011,-31.60224 -24.7447,-24.74094 -39.67396,-56.42632 -42.93656,-91.12718 -0.8686,-9.23837 -0.34981,-27.96084 1.00951,-36.43171 7.21834,-44.98254 33.40356,-83.40295 72.41826,-106.2561 38.9614,-22.82192 87.13532,-26.47139 129.3936,-9.80235 51.28172,20.22839 87.01105,66.74567 93.43279,121.64348 0.99497,8.50568 0.99497,25.27606 0,33.78173 -6.26416,53.55073 -40.23875,99.05972 -89.81575,120.30826 -5.96947,2.55849 -5.79175,2.02921 0.42357,-1.26147 11.50455,-6.09104 20.72156,-12.91603 30.07653,-22.271 19.48907,-19.48907 31.36656,-43.21074 35.67015,-71.24025 1.24529,-8.11067 1.24596,-26.73197 10e-4,-34.85026 -4.23881,-27.64813 -16.41788,-51.97941 -35.66558,-71.253 -48.8662,-48.93194 -128.51111,-48.9194 -177.31185,0.0279 -19.95669,20.01664 -31.85329,44.32759 -35.96631,73.49793 -0.92564,6.56484 -0.76718,25.37887 0.27144,32.22649 2.17013,14.3078 5.7899,25.94881 11.96663,38.48419 11.73283,23.81121 30.35243,43.00376 53.67773,55.32947 6.593,3.48392 6.24837,3.90277 -0.65506,0.7961 z"
         style="opacity:1;fill:#000000;fill-opacity:1;stroke:#000000;stroke-width:0.50507629;stroke-miterlimit:4;stroke-dasharray:none;stroke-opacity:1" />
    </g>
    <g
       id="g9495"
       inkscape:transform-center-y="-300.2461"
       transform="matrix(-1,0,0,-1,1488.189,1052.3622)"
       inkscape:transform-center-x="-4.4592172e-05">
      <circle
         style="opacity:1;fill:none;fill-opacity:1;stroke:#000000;stroke-width:1;stroke-miterlimit:4;stroke-dasharray:none;stroke-opacity:1"
         id="circle9497"
         cx="744.09448"
         cy="826.18109"
         r="149.70398" />
      <circle
         r="124.75331"
         cy="851.18109"
         cx="744.09448"
         id="circle9499"
         style="opacity:1;fill:none;fill-opacity:1;stroke:#000000;stroke-width:1;stroke-miterlimit:4;stroke-dasharray:none;stroke-opacity:1" />
      <circle
         style="opacity:1;fill:none;fill-opacity:1;stroke:#000000;stroke-width:1;stroke-miterlimit:4;stroke-dasharray:none;stroke-opacity:1"
         id="circle9501"
         cx="744.09448"
         cy="876.18109"
         r="99.80265" />
      <circle
         r="74.85199"
         cy="901.18109"
         cx="744.09448"
         id="circle9503"
         style="opacity:1;fill:none;fill-opacity:1;stroke:#000000;stroke-width:1;stroke-miterlimit:4;stroke-dasharray:none;stroke-opacity:1" />
      <circle
         style="opacity:1;fill:none;fill-opacity:1;stroke:#000000;stroke-width:1;stroke-miterlimit:4;stroke-dasharray:none;stroke-opacity:1"
         id="circle9505"
         cx="744.09448"
         cy="926.18109"
         r="49.901325" />
      <circle
         r="24.950663"
         cy="951.18109"
         cx="744.09448"
         id="circle9507"
         style="opacity:1;fill:none;fill-opacity:1;stroke:#000000;stroke-width:1;stroke-miterlimit:4;stroke-dasharray:none;stroke-opacity:1" />
      <circle
         style="opacity:1;fill:none;fill-opacity:1;stroke:#000000;stroke-width:1;stroke-miterlimit:4;stroke-dasharray:none;stroke-opacity:1"
         id="circle9509"
         cx="744.09448"
         cy="963.68121"
         r="12.696076" />
      <path
         style="opacity:1;fill:#000000;fill-opacity:1;stroke:#000000;stroke-width:0.50507629;stroke-miterlimit:4;stroke-dasharray:none;stroke-opacity:1"
         d="m 736.8961,973.1581 c -4.3542,-3.15417 -5.8592,-9.38287 -3.49424,-14.46157 2.06757,-4.44009 5.79638,-6.79789 10.75069,-6.79789 8.86622,0 14.44405,9.1278 10.46152,17.11968 -0.80359,1.61261 -2.13437,3.25283 -3.35877,4.13978 -1.92348,1.39336 -2.29304,1.46897 -7.1796,1.46897 -4.88656,0 -5.25612,-0.0756 -7.1796,-1.46897 z"
         id="path9511"
         inkscape:connector-curvature="0" />
      <path
         style="opacity:1;fill:#000000;fill-opacity:1;stroke:#000000;stroke-width:0.50507629;stroke-miterlimit:4;stroke-dasharray:none;stroke-opacity:1"
         d="m 725.03976,971.40389 c -5.21753,-2.278 -7.77674,-3.8258 -12.13964,-7.34197 -5.72647,-4.61512 -11.10861,-11.78647 -14.07169,-18.74961 -2.68035,-6.29873 -3.68778,-11.55586 -3.67406,-19.17256 0.015,-8.3176 1.16428,-13.60286 4.48019,-20.6028 2.85025,-6.01694 5.71896,-10.01908 10.41963,-14.53645 6.39468,-6.14531 12.17273,-9.50791 20.88953,-12.1569 4.13707,-1.25723 5.29481,-1.38421 12.87944,-1.41256 7.19426,-0.0269 8.91616,0.12799 12.59315,1.13272 17.67652,4.83007 31.08544,18.55454 35.49059,36.32576 1.55215,6.26169 1.54779,16.25566 -0.01,22.54187 -2.9075,11.73394 -9.7378,21.88811 -19.32525,28.72957 -3.52127,2.51272 -10.8214,6.19105 -13.34383,6.72357 l -1.51523,0.31989 1.76777,-1.41854 c 10.1046,-8.10835 13.00432,-21.29446 7.20236,-32.75174 -1.74822,-3.45226 -6.66088,-8.42444 -10.17326,-10.29652 -7.62952,-4.06649 -17.10271,-4.13948 -24.51794,-0.1889 -3.43016,1.82747 -8.92449,7.32889 -10.5777,10.59135 -5.0639,9.99313 -3.24104,22.37012 4.40094,29.88175 1.43188,1.40745 3.05798,2.89625 3.61356,3.30845 1.76936,1.31271 -0.22405,0.89194 -4.38873,-0.92638 l 2e-5,0 z"
         id="path9513"
         inkscape:connector-curvature="0" />
      <path
         style="opacity:1;fill:#000000;fill-opacity:1;stroke:#000000;stroke-width:0.50507629;stroke-miterlimit:4;stroke-dasharray:none;stroke-opacity:1"
         d="m 704.8387,967.09556 c -6.11119,-2.67776 -12.94647,-6.55374 -18.59423,-10.54396 -5.63607,-3.98196 -17.28129,-15.37841 -21.26978,-20.8154 -11.66498,-15.90135 -18.26008,-33.57264 -19.60414,-52.52846 -4.15801,-58.64224 43.61463,-108.12861 102.24068,-105.90832 61.31535,2.32214 105.58996,58.61097 93.44274,118.79908 -3.70981,18.38169 -12.45137,34.89711 -25.75476,48.65842 -8.73673,9.03746 -17.56745,15.44177 -28.61809,20.75475 -6.27308,3.01599 -11.62734,4.87653 -7.25008,2.51931 11.45749,-6.17004 22.00597,-16.01838 28.91037,-26.99148 2.76953,-4.4016 6.57909,-12.95062 8.16487,-18.3228 4.37669,-14.82689 4.04608,-31.20594 -0.92964,-46.05747 -5.53688,-16.52651 -18.45816,-32.21998 -33.71638,-40.95007 -12.41579,-7.10377 -26.76875,-10.57612 -41.06756,-9.93529 -27.47233,1.23122 -52.04499,17.13955 -64.14042,41.52449 -3.44237,6.93996 -5.01453,11.42163 -6.64425,18.94036 -1.63463,7.54139 -1.63766,22.58955 -0.006,30.00813 3.35886,15.27193 9.93288,27.36113 20.76945,38.19374 5.74234,5.74023 10.99407,9.76195 16.93876,12.97153 4.10597,2.21685 2.50828,2.04072 -2.87151,-0.31656 z"
         id="path9515"
         inkscape:connector-curvature="0" />
      <path
         style="opacity:1;fill:#000000;fill-opacity:1;stroke:#000000;stroke-width:0.50507629;stroke-miterlimit:4;stroke-dasharray:none;stroke-opacity:1"
         d="m 684.72924,962.81988 c -18.45613,-8.30558 -31.99376,-17.608 -45.99011,-31.60224 -24.7447,-24.74094 -39.67396,-56.42632 -42.93656,-91.12718 -0.8686,-9.23837 -0.34981,-27.96084 1.00951,-36.43171 7.21834,-44.98254 33.40356,-83.40295 72.41826,-106.2561 38.9614,-22.82192 87.13532,-26.47139 129.3936,-9.80235 51.28172,20.22839 87.01105,66.74567 93.43279,121.64348 0.99497,8.50568 0.99497,25.27606 0,33.78173 -6.26416,53.55073 -40.23875,99.05972 -89.81575,120.30826 -5.96947,2.55849 -5.79175,2.02921 0.42357,-1.26147 11.50455,-6.09104 20.72156,-12.91603 30.07653,-22.271 19.48907,-19.48907 31.36656,-43.21074 35.67015,-71.24025 1.24529,-8.11067 1.24596,-26.73197 10e-4,-34.85026 -4.23881,-27.64813 -16.41788,-51.97941 -35.66558,-71.253 -48.8662,-48.93194 -128.51111,-48.9194 -177.31185,0.0279 -19.95669,20.01664 -31.85329,44.32759 -35.96631,73.49793 -0.92564,6.56484 -0.76718,25.37887 0.27144,32.22649 2.17013,14.3078 5.7899,25.94881 11.96663,38.48419 11.73283,23.81121 30.35243,43.00376 53.67773,55.32947 6.593,3.48392 6.24837,3.90277 -0.65506,0.7961 z"
         id="path9517"
         inkscape:connector-curvature="0" />
    </g>
    <g
       inkscape:transform-center-x="259.80763"
       transform="matrix(-0.5,0.8660254,-0.8660254,-0.5,1571.8279,144.86688)"
       inkscape:transform-center-y="-150.00004"
       id="g9519">
      <circle
         r="149.70398"
         cy="826.18109"
         cx="744.09448"
         id="circle9521"
         style="opacity:1;fill:none;fill-opacity:1;stroke:#000000;stroke-width:1;stroke-miterlimit:4;stroke-dasharray:none;stroke-opacity:1" />
      <circle
         style="opacity:1;fill:none;fill-opacity:1;stroke:#000000;stroke-width:1;stroke-miterlimit:4;stroke-dasharray:none;stroke-opacity:1"
         id="circle9523"
         cx="744.09448"
         cy="851.18109"
         r="124.75331" />
      <circle
         r="99.80265"
         cy="876.18109"
         cx="744.09448"
         id="circle9525"
         style="opacity:1;fill:none;fill-opacity:1;stroke:#000000;stroke-width:1;stroke-miterlimit:4;stroke-dasharray:none;stroke-opacity:1" />
      <circle
         style="opacity:1;fill:none;fill-opacity:1;stroke:#000000;stroke-width:1;stroke-miterlimit:4;stroke-dasharray:none;stroke-opacity:1"
         id="circle9527"
         cx="744.09448"
         cy="901.18109"
         r="74.85199" />
      <circle
         r="49.901325"
         cy="926.18109"
         cx="744.09448"
         id="circle9529"
         style="opacity:1;fill:none;fill-opacity:1;stroke:#000000;stroke-width:1;stroke-miterlimit:4;stroke-dasharray:none;stroke-opacity:1" />
      <circle
         style="opacity:1;fill:none;fill-opacity:1;stroke:#000000;stroke-width:1;stroke-miterlimit:4;stroke-dasharray:none;stroke-opacity:1"
         id="circle9531"
         cx="744.09448"
         cy="951.18109"
         r="24.950663" />
      <circle
         r="12.696076"
         cy="963.68121"
         cx="744.09448"
         id="circle9533"
         style="opacity:1;fill:none;fill-opacity:1;stroke:#000000;stroke-width:1;stroke-miterlimit:4;stroke-dasharray:none;stroke-opacity:1" />
      <path
         inkscape:connector-curvature="0"
         id="path9535"
         d="m 736.8961,973.1581 c -4.3542,-3.15417 -5.8592,-9.38287 -3.49424,-14.46157 2.06757,-4.44009 5.79638,-6.79789 10.75069,-6.79789 8.86622,0 14.44405,9.1278 10.46152,17.11968 -0.80359,1.61261 -2.13437,3.25283 -3.35877,4.13978 -1.92348,1.39336 -2.29304,1.46897 -7.1796,1.46897 -4.88656,0 -5.25612,-0.0756 -7.1796,-1.46897 z"
         style="opacity:1;fill:#000000;fill-opacity:1;stroke:#000000;stroke-width:0.50507629;stroke-miterlimit:4;stroke-dasharray:none;stroke-opacity:1" />
      <path
         inkscape:connector-curvature="0"
         id="path9537"
         d="m 725.03976,971.40389 c -5.21753,-2.278 -7.77674,-3.8258 -12.13964,-7.34197 -5.72647,-4.61512 -11.10861,-11.78647 -14.07169,-18.74961 -2.68035,-6.29873 -3.68778,-11.55586 -3.67406,-19.17256 0.015,-8.3176 1.16428,-13.60286 4.48019,-20.6028 2.85025,-6.01694 5.71896,-10.01908 10.41963,-14.53645 6.39468,-6.14531 12.17273,-9.50791 20.88953,-12.1569 4.13707,-1.25723 5.29481,-1.38421 12.87944,-1.41256 7.19426,-0.0269 8.91616,0.12799 12.59315,1.13272 17.67652,4.83007 31.08544,18.55454 35.49059,36.32576 1.55215,6.26169 1.54779,16.25566 -0.01,22.54187 -2.9075,11.73394 -9.7378,21.88811 -19.32525,28.72957 -3.52127,2.51272 -10.8214,6.19105 -13.34383,6.72357 l -1.51523,0.31989 1.76777,-1.41854 c 10.1046,-8.10835 13.00432,-21.29446 7.20236,-32.75174 -1.74822,-3.45226 -6.66088,-8.42444 -10.17326,-10.29652 -7.62952,-4.06649 -17.10271,-4.13948 -24.51794,-0.1889 -3.43016,1.82747 -8.92449,7.32889 -10.5777,10.59135 -5.0639,9.99313 -3.24104,22.37012 4.40094,29.88175 1.43188,1.40745 3.05798,2.89625 3.61356,3.30845 1.76936,1.31271 -0.22405,0.89194 -4.38873,-0.92638 l 2e-5,0 z"
         style="opacity:1;fill:#000000;fill-opacity:1;stroke:#000000;stroke-width:0.50507629;stroke-miterlimit:4;stroke-dasharray:none;stroke-opacity:1" />
      <path
         inkscape:connector-curvature="0"
         id="path9539"
         d="m 704.8387,967.09556 c -6.11119,-2.67776 -12.94647,-6.55374 -18.59423,-10.54396 -5.63607,-3.98196 -17.28129,-15.37841 -21.26978,-20.8154 -11.66498,-15.90135 -18.26008,-33.57264 -19.60414,-52.52846 -4.15801,-58.64224 43.61463,-108.12861 102.24068,-105.90832 61.31535,2.32214 105.58996,58.61097 93.44274,118.79908 -3.70981,18.38169 -12.45137,34.89711 -25.75476,48.65842 -8.73673,9.03746 -17.56745,15.44177 -28.61809,20.75475 -6.27308,3.01599 -11.62734,4.87653 -7.25008,2.51931 11.45749,-6.17004 22.00597,-16.01838 28.91037,-26.99148 2.76953,-4.4016 6.57909,-12.95062 8.16487,-18.3228 4.37669,-14.82689 4.04608,-31.20594 -0.92964,-46.05747 -5.53688,-16.52651 -18.45816,-32.21998 -33.71638,-40.95007 -12.41579,-7.10377 -26.76875,-10.57612 -41.06756,-9.93529 -27.47233,1.23122 -52.04499,17.13955 -64.14042,41.52449 -3.44237,6.93996 -5.01453,11.42163 -6.64425,18.94036 -1.63463,7.54139 -1.63766,22.58955 -0.006,30.00813 3.35886,15.27193 9.93288,27.36113 20.76945,38.19374 5.74234,5.74023 10.99407,9.76195 16.93876,12.97153 4.10597,2.21685 2.50828,2.04072 -2.87151,-0.31656 z"
         style="opacity:1;fill:#000000;fill-opacity:1;stroke:#000000;stroke-width:0.50507629;stroke-miterlimit:4;stroke-dasharray:none;stroke-opacity:1" />
      <path
         inkscape:connector-curvature="0"
         id="path9541"
         d="m 684.72924,962.81988 c -18.45613,-8.30558 -31.99376,-17.608 -45.99011,-31.60224 -24.7447,-24.74094 -39.67396,-56.42632 -42.93656,-91.12718 -0.8686,-9.23837 -0.34981,-27.96084 1.00951,-36.43171 7.21834,-44.98254 33.40356,-83.40295 72.41826,-106.2561 38.9614,-22.82192 87.13532,-26.47139 129.3936,-9.80235 51.28172,20.22839 87.01105,66.74567 93.43279,121.64348 0.99497,8.50568 0.99497,25.27606 0,33.78173 -6.26416,53.55073 -40.23875,99.05972 -89.81575,120.30826 -5.96947,2.55849 -5.79175,2.02921 0.42357,-1.26147 11.50455,-6.09104 20.72156,-12.91603 30.07653,-22.271 19.48907,-19.48907 31.36656,-43.21074 35.67015,-71.24025 1.24529,-8.11067 1.24596,-26.73197 10e-4,-34.85026 -4.23881,-27.64813 -16.41788,-51.97941 -35.66558,-71.253 -48.8662,-48.93194 -128.51111,-48.9194 -177.31185,0.0279 -19.95669,20.01664 -31.85329,44.32759 -35.96631,73.49793 -0.92564,6.56484 -0.76718,25.37887 0.27144,32.22649 2.17013,14.3078 5.7899,25.94881 11.96663,38.48419 11.73283,23.81121 30.35243,43.00376 53.67773,55.32947 6.593,3.48392 6.24837,3.90277 -0.65506,0.7961 z"
         style="opacity:1;fill:#000000;fill-opacity:1;stroke:#000000;stroke-width:0.50507629;stroke-miterlimit:4;stroke-dasharray:none;stroke-opacity:1" />
    </g>
    <g
       id="g9543"
       inkscape:transform-center-y="149.99999"
       transform="matrix(0.5,0.8660254,-0.8660254,0.5,827.73339,-381.31419)"
       inkscape:transform-center-x="259.80766">
      <circle
         style="opacity:1;fill:none;fill-opacity:1;stroke:#000000;stroke-width:1;stroke-miterlimit:4;stroke-dasharray:none;stroke-opacity:1"
         id="circle9545"
         cx="744.09448"
         cy="826.18109"
         r="149.70398" />
      <circle
         r="124.75331"
         cy="851.18109"
         cx="744.09448"
         id="circle9547"
         style="opacity:1;fill:none;fill-opacity:1;stroke:#000000;stroke-width:1;stroke-miterlimit:4;stroke-dasharray:none;stroke-opacity:1" />
      <circle
         style="opacity:1;fill:none;fill-opacity:1;stroke:#000000;stroke-width:1;stroke-miterlimit:4;stroke-dasharray:none;stroke-opacity:1"
         id="circle9549"
         cx="744.09448"
         cy="876.18109"
         r="99.80265" />
      <circle
         r="74.85199"
         cy="901.18109"
         cx="744.09448"
         id="circle9551"
         style="opacity:1;fill:none;fill-opacity:1;stroke:#000000;stroke-width:1;stroke-miterlimit:4;stroke-dasharray:none;stroke-opacity:1" />
      <circle
         style="opacity:1;fill:none;fill-opacity:1;stroke:#000000;stroke-width:1;stroke-miterlimit:4;stroke-dasharray:none;stroke-opacity:1"
         id="circle9553"
         cx="744.09448"
         cy="926.18109"
         r="49.901325" />
      <circle
         r="24.950663"
         cy="951.18109"
         cx="744.09448"
         id="circle9555"
         style="opacity:1;fill:none;fill-opacity:1;stroke:#000000;stroke-width:1;stroke-miterlimit:4;stroke-dasharray:none;stroke-opacity:1" />
      <circle
         style="opacity:1;fill:none;fill-opacity:1;stroke:#000000;stroke-width:1;stroke-miterlimit:4;stroke-dasharray:none;stroke-opacity:1"
         id="circle9557"
         cx="744.09448"
         cy="963.68121"
         r="12.696076" />
      <path
         style="opacity:1;fill:#000000;fill-opacity:1;stroke:#000000;stroke-width:0.50507629;stroke-miterlimit:4;stroke-dasharray:none;stroke-opacity:1"
         d="m 736.8961,973.1581 c -4.3542,-3.15417 -5.8592,-9.38287 -3.49424,-14.46157 2.06757,-4.44009 5.79638,-6.79789 10.75069,-6.79789 8.86622,0 14.44405,9.1278 10.46152,17.11968 -0.80359,1.61261 -2.13437,3.25283 -3.35877,4.13978 -1.92348,1.39336 -2.29304,1.46897 -7.1796,1.46897 -4.88656,0 -5.25612,-0.0756 -7.1796,-1.46897 z"
         id="path9559"
         inkscape:connector-curvature="0" />
      <path
         style="opacity:1;fill:#000000;fill-opacity:1;stroke:#000000;stroke-width:0.50507629;stroke-miterlimit:4;stroke-dasharray:none;stroke-opacity:1"
         d="m 725.03976,971.40389 c -5.21753,-2.278 -7.77674,-3.8258 -12.13964,-7.34197 -5.72647,-4.61512 -11.10861,-11.78647 -14.07169,-18.74961 -2.68035,-6.29873 -3.68778,-11.55586 -3.67406,-19.17256 0.015,-8.3176 1.16428,-13.60286 4.48019,-20.6028 2.85025,-6.01694 5.71896,-10.01908 10.41963,-14.53645 6.39468,-6.14531 12.17273,-9.50791 20.88953,-12.1569 4.13707,-1.25723 5.29481,-1.38421 12.87944,-1.41256 7.19426,-0.0269 8.91616,0.12799 12.59315,1.13272 17.67652,4.83007 31.08544,18.55454 35.49059,36.32576 1.55215,6.26169 1.54779,16.25566 -0.01,22.54187 -2.9075,11.73394 -9.7378,21.88811 -19.32525,28.72957 -3.52127,2.51272 -10.8214,6.19105 -13.34383,6.72357 l -1.51523,0.31989 1.76777,-1.41854 c 10.1046,-8.10835 13.00432,-21.29446 7.20236,-32.75174 -1.74822,-3.45226 -6.66088,-8.42444 -10.17326,-10.29652 -7.62952,-4.06649 -17.10271,-4.13948 -24.51794,-0.1889 -3.43016,1.82747 -8.92449,7.32889 -10.5777,10.59135 -5.0639,9.99313 -3.24104,22.37012 4.40094,29.88175 1.43188,1.40745 3.05798,2.89625 3.61356,3.30845 1.76936,1.31271 -0.22405,0.89194 -4.38873,-0.92638 l 2e-5,0 z"
         id="path9561"
         inkscape:connector-curvature="0" />
      <path
         style="opacity:1;fill:#000000;fill-opacity:1;stroke:#000000;stroke-width:0.50507629;stroke-miterlimit:4;stroke-dasharray:none;stroke-opacity:1"
         d="m 704.8387,967.09556 c -6.11119,-2.67776 -12.94647,-6.55374 -18.59423,-10.54396 -5.63607,-3.98196 -17.28129,-15.37841 -21.26978,-20.8154 -11.66498,-15.90135 -18.26008,-33.57264 -19.60414,-52.52846 -4.15801,-58.64224 43.61463,-108.12861 102.24068,-105.90832 61.31535,2.32214 105.58996,58.61097 93.44274,118.79908 -3.70981,18.38169 -12.45137,34.89711 -25.75476,48.65842 -8.73673,9.03746 -17.56745,15.44177 -28.61809,20.75475 -6.27308,3.01599 -11.62734,4.87653 -7.25008,2.51931 11.45749,-6.17004 22.00597,-16.01838 28.91037,-26.99148 2.76953,-4.4016 6.57909,-12.95062 8.16487,-18.3228 4.37669,-14.82689 4.04608,-31.20594 -0.92964,-46.05747 -5.53688,-16.52651 -18.45816,-32.21998 -33.71638,-40.95007 -12.41579,-7.10377 -26.76875,-10.57612 -41.06756,-9.93529 -27.47233,1.23122 -52.04499,17.13955 -64.14042,41.52449 -3.44237,6.93996 -5.01453,11.42163 -6.64425,18.94036 -1.63463,7.54139 -1.63766,22.58955 -0.006,30.00813 3.35886,15.27193 9.93288,27.36113 20.76945,38.19374 5.74234,5.74023 10.99407,9.76195 16.93876,12.97153 4.10597,2.21685 2.50828,2.04072 -2.87151,-0.31656 z"
         id="path9563"
         inkscape:connector-curvature="0" />
      <path
         style="opacity:1;fill:#000000;fill-opacity:1;stroke:#000000;stroke-width:0.50507629;stroke-miterlimit:4;stroke-dasharray:none;stroke-opacity:1"
         d="m 684.72924,962.81988 c -18.45613,-8.30558 -31.99376,-17.608 -45.99011,-31.60224 -24.7447,-24.74094 -39.67396,-56.42632 -42.93656,-91.12718 -0.8686,-9.23837 -0.34981,-27.96084 1.00951,-36.43171 7.21834,-44.98254 33.40356,-83.40295 72.41826,-106.2561 38.9614,-22.82192 87.13532,-26.47139 129.3936,-9.80235 51.28172,20.22839 87.01105,66.74567 93.43279,121.64348 0.99497,8.50568 0.99497,25.27606 0,33.78173 -6.26416,53.55073 -40.23875,99.05972 -89.81575,120.30826 -5.96947,2.55849 -5.79175,2.02921 0.42357,-1.26147 11.50455,-6.09104 20.72156,-12.91603 30.07653,-22.271 19.48907,-19.48907 31.36656,-43.21074 35.67015,-71.24025 1.24529,-8.11067 1.24596,-26.73197 10e-4,-34.85026 -4.23881,-27.64813 -16.41788,-51.97941 -35.66558,-71.253 -48.8662,-48.93194 -128.51111,-48.9194 -177.31185,0.0279 -19.95669,20.01664 -31.85329,44.32759 -35.96631,73.49793 -0.92564,6.56484 -0.76718,25.37887 0.27144,32.22649 2.17013,14.3078 5.7899,25.94881 11.96663,38.48419 11.73283,23.81121 30.35243,43.00376 53.67773,55.32947 6.593,3.48392 6.24837,3.90277 -0.65506,0.7961 z"
         id="path9565"
         inkscape:connector-curvature="0" />
    </g>
  </g>
</svg>
