<?xml version="1.0" encoding="UTF-8" standalone="no"?>
<!-- Created with Inkscape (http://www.inkscape.org/) -->

<svg
   xmlns:dc="http://purl.org/dc/elements/1.1/"
   xmlns:cc="http://creativecommons.org/ns#"
   xmlns:rdf="http://www.w3.org/1999/02/22-rdf-syntax-ns#"
   xmlns:svg="http://www.w3.org/2000/svg"
   xmlns="http://www.w3.org/2000/svg"
   xmlns:sodipodi="http://sodipodi.sourceforge.net/DTD/sodipodi-0.dtd"
   xmlns:inkscape="http://www.inkscape.org/namespaces/inkscape"
   width="297mm"
   height="210mm"
   viewBox="0 0 1052.3622 744.09448"
   id="svg2"
   version="1.1"
   inkscape:version="0.91 r13725"
   sodipodi:docname="eh_voila_white.svg">
  <defs
     id="defs4" />
  <sodipodi:namedview
     id="base"
     pagecolor="#ffffff"
     bordercolor="#666666"
     borderopacity="1.0"
     inkscape:pageopacity="0.0"
     inkscape:pageshadow="2"
     inkscape:zoom="1"
     inkscape:cx="549"
     inkscape:cy="380.71429"
     inkscape:document-units="px"
     inkscape:current-layer="layer1"
     showgrid="false"
     inkscape:window-width="1879"
     inkscape:window-height="1056"
     inkscape:window-x="41"
     inkscape:window-y="24"
     inkscape:window-maximized="1" />
  <metadata
     id="metadata7">
    <rdf:RDF>
      <cc:Work
         rdf:about="">
        <dc:format>image/svg+xml</dc:format>
        <dc:type
           rdf:resource="http://purl.org/dc/dcmitype/StillImage" />
        <dc:title></dc:title>
      </cc:Work>
    </rdf:RDF>
  </metadata>
  <g
     inkscape:label="Layer 1"
     inkscape:groupmode="layer"
     id="layer1"
     transform="translate(0,-308.26772)">
    <g
       style="font-style:normal;font-weight:normal;font-size:57.19660187px;line-height:125%;font-family:sans-serif;letter-spacing:0px;word-spacing:0px;fill:#ffffff;fill-opacity:1;stroke:none;stroke-width:1px;stroke-linecap:butt;stroke-linejoin:miter;stroke-opacity:1"
       id="text4140"
       transform="matrix(1.5858437,0,0,1.5858437,-239.88628,-328.50133)">
      <path
         d="m 355.32787,471.15452 c 4.37554,-5.91985 28.82709,1.02954 28.82709,10.29539 0,12.35446 -5.1477,21.8777 -12.61186,32.68786 -0.77215,0.77215 -1.80169,2.31646 -0.51476,3.346 0.51476,1.02954 2.05907,2.05907 3.60338,1.80169 2.31646,-0.77215 4.89031,-1.54431 6.692,-2.83123 4.11816,-4.11816 25.48109,-16.47262 25.48109,-37.0634 0,-28.05493 -25.2237,-43.24063 -50.96217,-43.24063 -47.61617,0 -75.41372,79.27449 -40.15202,111.96235 0.51477,0.25738 1.8017,1.02954 2.57385,1.80169 3.346,2.31646 3.60339,3.60339 0.77216,7.46416 -62.54449,43.7554 -25.48109,119.4265 37.32078,115.30834 26.76801,-1.28692 58.16894,-44.01278 59.45586,-67.69217 -0.25738,0 0,-0.25739 -0.25738,-0.51477 -0.51477,-7.46416 -12.09708,-7.46416 -16.73001,-4.37554 -4.89031,11.58231 -53.02125,50.96217 -61.25756,54.82294 -45.2997,14.67093 30.88617,-96.77665 66.66264,-105.01296 0.25739,0 0.77216,-0.25738 1.02954,-0.77215 6.94939,-6.17724 -48.13094,-18.27432 -59.19848,-9.00847 -2.31646,1.80169 -3.08862,1.80169 -3.60339,-1.28692 -3.86077,-21.8777 1.54431,-61.51495 12.86924,-67.69218 z"
         style="font-style:normal;font-variant:normal;font-weight:normal;font-stretch:normal;font-size:257.38470459px;font-family:'Stonestick free tester';-inkscape-font-specification:'Stonestick free tester';fill:#ffffff"
         id="path4157"
         inkscape:connector-curvature="0" />
      <path
         d="m 470.44318,580.02825 c -8.4937,21.8777 -4.63293,-14.67093 -4.63293,-25.73847 -0.25738,-12.61185 4.37554,-53.53602 5.66247,-66.14787 4.11815,-4.89031 9.26585,-11.58231 10.038,-12.61185 5.40508,-6.43462 10.03801,-13.89877 13.89878,-21.8777 2.57384,-5.66246 1.5443,-13.64139 -2.83124,-17.24477 -2.83123,-2.05908 -5.91984,-3.86078 -9.00846,-4.89031 -19.81862,-5.1477 -35.26171,37.57816 -40.66678,56.10986 -2.83124,10.55277 -36.03386,148.76836 -3.08862,181.19883 4.89031,7.72154 27.02539,-15.70046 26.25324,-26.25324 -1.02954,-15.70046 1.80169,-33.71739 7.97893,-49.41786 0.51476,-4.11815 26.51062,-52.50648 32.43047,-53.27863 10.81016,-1.54431 -10.03801,44.52755 -10.03801,66.40525 0,16.47262 7.46416,31.65832 28.05494,35.51909 13.12662,0 16.21523,-4.37554 21.10554,-18.78908 7.46416,-21.36293 9.52324,-32.43048 11.8397,-46.32925 0.51477,-1.80169 -3.08862,-7.97893 -4.89031,-0.25739 -5.40508,18.78909 -8.4937,33.97479 -14.92831,48.9031 -4.89031,11.32493 -9.78062,6.43462 -8.75108,-9.26585 0.51477,-7.46416 3.08861,-53.53602 0.51477,-66.66264 -1.8017,-9.52323 -12.09708,-24.45155 -23.93678,-16.47262 -4.11816,2.57385 -16.47262,11.06754 -35.00432,47.1014 z m 8.23631,-111.19019 c -0.77215,0.77215 -3.08862,3.86077 -5.66246,7.46415 0,-0.51476 0,-1.02953 0.25738,-1.5443 2.05908,-10.03801 2.83123,-18.5317 5.66246,-27.79755 1.02954,-3.346 3.60339,-5.66247 6.43462,-7.20677 1.8017,-1.02954 3.346,-0.51477 4.11816,1.28692 1.28692,2.83123 2.31646,6.17723 0.77215,9.00846 -3.346,6.69201 -6.692,13.38401 -11.58231,18.78909 z"
         style="font-style:normal;font-variant:normal;font-weight:normal;font-stretch:normal;font-size:257.38470459px;font-family:'Stonestick free tester';-inkscape-font-specification:'Stonestick free tester';fill:#ffffff"
         id="path4159"
         inkscape:connector-curvature="0" />
      <path
         d="m 614.96871,601.39118 0.51477,-1.02954 c 13.384,-26.76801 80.04664,-96.00449 60.22802,-138.73035 -28.05493,-50.44741 -61.25756,-35.77648 -85.70911,-9.00847 -14.15616,15.95785 -21.62031,38.60771 -15.44308,53.53602 2.05908,5.91985 18.01693,2.05908 19.81862,-3.60339 3.08862,-15.70046 20.59078,-59.71325 43.24063,-57.91155 4.11816,0.51477 7.46416,2.57384 7.97893,6.692 5.40508,37.0634 -43.49802,100.63742 -54.82294,145.67974 l 24.19416,4.37554 z m -24.96632,21.10555 c -3.60338,2.05907 -0.25738,9.78062 0.25739,13.89877 0.77215,3.346 1.02953,7.20677 4.63292,8.75108 4.63293,2.31646 9.00847,3.60339 14.41354,2.83123 3.86077,-0.25738 14.67093,-5.40508 14.15616,-9.52323 0,-3.346 -10.29539,-23.67939 -9.78062,-26.76801 l -23.67939,10.81016 z"
         style="font-style:normal;font-variant:normal;font-weight:normal;font-stretch:normal;font-size:257.38470459px;font-family:'Stonestick free tester';-inkscape-font-specification:'Stonestick free tester';fill:#ffffff"
         id="path4161"
         inkscape:connector-curvature="0" />
    </g>
    <g
       style="font-style:normal;font-weight:normal;font-size:40px;line-height:125%;font-family:sans-serif;letter-spacing:0px;word-spacing:0px;fill:#ffffff;fill-opacity:1;stroke:none;stroke-width:1px;stroke-linecap:butt;stroke-linejoin:miter;stroke-opacity:1"
       id="text4152"
       transform="translate(50.873,-1.7083564e-6)">
      <path
         d="m 258.83713,952.37031 c -0.51475,1.54425 -5.66226,15.95725 -9.00813,10.80975 -13.64087,-23.16375 9.00813,-214.90813 -29.59813,-205.64263 -3.60325,0.51475 -35.003,30.11288 -37.57675,32.42925 -2.059,1.80163 4.63275,198.43613 48.3865,200.23775 11.06713,0.25738 21.87688,-8.75075 31.39976,-13.64087 1.02949,-0.25738 1.80162,-1.28688 2.57374,-1.80163 10.295,-11.58187 28.05388,-89.05175 40.40788,-138.9825 1.0295,-4.37537 18.78837,-13.12612 19.81787,-17.5015 0.25738,-1.54425 0.77213,-3.0885 1.0295,-4.63275 0.77213,-2.83112 -16.472,2.83113 -15.95725,0 1.80163,-9.52287 3.34588,-17.75887 3.86063,-24.45062 -0.77213,-13.3835 -28.56863,-46.07013 -42.98163,-31.14238 -11.06712,10.55238 -14.15562,53.534 12.61138,67.43225 2.31637,1.28688 2.83112,3.60325 2.31637,6.177 -2.83112,14.413 -22.649,106.0385 -27.28174,120.70888 z m 24.19324,-137.18088 c -23.93587,-14.92775 6.94913,-71.29287 6.94913,-16.72937 -0.51475,5.40487 1.0295,12.09662 -1.54425,17.24412 -1.80163,1.28688 -3.86063,0.77213 -5.40488,-0.51475 z"
         style="font-style:normal;font-variant:normal;font-weight:normal;font-stretch:normal;font-size:257.375px;font-family:'Stonestick free tester';-inkscape-font-specification:'Stonestick free tester';fill:#ffffff"
         id="path4164"
         inkscape:connector-curvature="0" />
      <path
         d="m 408.69372,909.64606 c 0.51475,-2.83113 -1.28688,-2.83113 9.2655,-1.54425 10.55237,0.77212 20.59,-4.63275 23.42112,-21.10475 1.0295,-2.059 -0.51475,-2.57375 -2.57375,-4.118 -0.25737,0.51475 -0.77212,1.28687 -1.28687,2.059 -1.54425,4.118 -3.60325,11.06712 -12.09663,13.12612 -7.72125,2.059 -16.72937,-6.43437 -15.18512,-15.95725 1.0295,-24.45062 -12.86875,-49.15862 -41.95213,-59.19625 -2.31637,-1.80162 -4.118,-2.059 -5.91962,-2.83112 -1.0295,-0.25738 -3.60325,-1.54425 -2.059,-2.57375 4.118,-6.177 1.80162,-6.177 -2.31638,-7.72125 -34.23087,11.3245 -52.24712,118.13512 -16.72937,135.37925 2.31637,1.54425 37.062,10.03762 53.534,-7.2065 9.52287,-7.2065 12.09662,-15.95725 13.89825,-28.31125 z m -59.45363,-60.22575 c 1.80163,11.83925 6.43438,20.84737 14.67038,29.8555 1.54425,1.80162 2.059,3.60325 1.28687,6.43437 -3.34587,15.4425 -4.37537,38.86363 -11.83925,52.24713 -30.885,10.80975 -21.6195,-87.76488 -5.40487,-106.0385 l 1.28687,17.5015 z m 17.24413,17.5015 c -8.49338,-7.72125 -15.69988,-24.45063 -15.18513,-36.0325 -0.25737,-2.83113 1.0295,-3.34588 2.83113,-2.57375 9.52287,4.89012 13.12612,23.93587 12.86875,35.26037 0,0.51475 0,1.28688 0,1.54425 0,0.25738 -0.51475,1.0295 -0.51475,1.80163 z"
         style="font-style:normal;font-variant:normal;font-weight:normal;font-stretch:normal;font-size:257.375px;font-family:'Stonestick free tester';-inkscape-font-specification:'Stonestick free tester';fill:#ffffff"
         id="path4166"
         inkscape:connector-curvature="0" />
      <path
         d="m 465.66609,852.76618 c -5.40488,2.059 -26.25225,6.43438 -27.28175,17.75888 -5.91963,20.07525 -13.89825,97.28775 22.13425,85.4485 11.06712,0.51475 32.17187,-41.43738 38.60625,-60.48313 1.28687,-3.60325 4.118,-14.92775 0,-15.18512 -3.60325,4.118 -6.43438,16.472 -8.75075,21.10475 -6.43438,13.3835 -13.89825,30.62762 -19.5605,36.80462 -6.69175,7.2065 -9.2655,2.31638 -7.72125,-4.37537 1.28687,-16.98675 7.46387,-46.07013 4.89012,-68.20438 -0.25737,-2.83112 -1.54425,-10.295 -2.31637,-12.86875 z m 13.64087,-22.13425 c 3.34588,-2.57375 -1.28687,-9.52287 -2.83112,-13.64087 -1.28688,-3.0885 -2.31638,-6.69175 -5.91963,-7.72125 -5.1475,-1.28688 -9.78025,-1.80163 -14.92775,0 -3.60325,1.0295 -5.40487,5.91962 -4.118,10.03762 0.51475,3.0885 14.413,21.10475 14.67038,24.19325 l 13.12612,-12.86875 z"
         style="font-style:normal;font-variant:normal;font-weight:normal;font-stretch:normal;font-size:257.375px;font-family:'Stonestick free tester';-inkscape-font-specification:'Stonestick free tester';fill:#ffffff"
         id="path4168"
         inkscape:connector-curvature="0" />
      <path
         d="m 576.47005,886.99706 c -2.059,8.236 -19.81788,79.01412 -29.8555,89.5665 -3.34588,3.60325 -5.40488,2.31637 -6.43438,-2.83113 -4.63275,-23.93587 -8.75075,-141.55625 0.77213,-152.88075 8.75075,-10.295 29.8555,-64.34375 5.40487,-64.34375 -4.89012,0 -8.49337,2.059 -11.06712,5.66225 -30.885,41.43738 -56.36513,132.8055 -41.43738,188.14113 2.31638,8.236 31.65713,39.121 40.40788,40.1505 4.118,0.51475 12.61137,-1.80163 16.472,-4.63275 12.354,-9.00813 28.56862,-80.04363 31.14237,-100.37625 -0.25737,-3.0885 -4.118,-1.54425 -5.40487,1.54425 z M 552.01942,763.19968 c 0,0.25738 0.25738,0.25738 0.77213,0.25738 1.0295,6.94912 -9.00813,42.72425 -12.354,46.84225 -2.57375,4.63275 -3.60325,2.83112 -3.60325,-0.25738 0,-10.295 5.66225,-42.2095 15.18512,-46.84225 z"
         style="font-style:normal;font-variant:normal;font-weight:normal;font-stretch:normal;font-size:257.375px;font-family:'Stonestick free tester';-inkscape-font-specification:'Stonestick free tester';fill:#ffffff"
         id="path4170"
         inkscape:connector-curvature="0" />
      <path
         d="m 710.42167,878.50368 c -2.059,-0.51475 -1.80163,1.28688 -3.34588,5.66225 -4.37537,13.64088 -13.89825,64.34375 -25.99487,70.52075 -3.0885,1.54425 -5.40488,2.059 -6.177,-2.059 -3.86063,-13.3835 -2.83113,-51.98975 -1.80163,-68.71912 1.0295,-10.55238 2.059,-15.4425 3.60325,-27.53913 0.25738,-5.66225 -25.22275,-31.14237 -34.74562,-29.34075 -2.57375,0.25738 13.64087,-9.2655 14.15562,-12.86875 0,-4.37537 -14.413,-16.21462 -18.78837,-14.92775 -46.07013,12.86875 -69.74863,80.81575 -65.11588,120.4515 1.54425,9.78025 2.83113,10.295 7.72125,14.15563 6.43438,5.1475 24.19325,10.55237 28.31125,10.03762 8.236,-1.28687 23.42113,-39.37837 28.56863,-50.70287 4.118,-9.00813 -1.28688,16.98675 2.31637,40.66525 1.54425,10.80975 4.89013,19.81787 11.83925,24.45062 28.826,19.30313 41.43738,14.67038 54.5635,-43.75375 3.86063,-17.24412 8.75075,-35.26037 4.89013,-36.0325 z m -118.13513,13.89825 c 6.177,-19.81787 16.21463,-36.0325 25.7375,-45.81275 10.295,-10.55237 18.78838,-11.83925 11.58188,0.25738 -10.80975,18.27362 -25.22275,46.3275 -35.77513,65.888 -8.236,15.18512 -6.43437,-4.89013 -1.54425,-20.33263 z m 25.22275,-129.45962 c -0.51475,5.40487 19.5605,15.69987 25.48013,17.5015 49.67337,12.354 -11.58188,-34.23088 -22.649,-36.80463 l -2.83113,19.30313 z"
         style="font-style:normal;font-variant:normal;font-weight:normal;font-stretch:normal;font-size:257.375px;font-family:'Stonestick free tester';-inkscape-font-specification:'Stonestick free tester';fill:#ffffff"
         id="path4172"
         inkscape:connector-curvature="0" />
      <path
         d="m 762.38729,896.77731 c 9.78025,-4.63275 5.1475,-118.64988 2.059,-129.717 -33.71612,-97.28775 -44.78325,125.08425 -37.57675,146.189 l 35.51775,-16.472 z m -38.86362,50.4455 c -1.28688,4.118 6.43437,7.2065 10.03762,9.78025 2.83113,1.80162 5.66225,4.37537 9.2655,3.0885 4.89013,-1.80163 9.00813,-3.86063 12.354,-8.236 2.31638,-2.83113 5.1475,-15.18513 1.80163,-17.75888 -2.31638,-2.31637 -23.93588,-9.52287 -25.7375,-12.09662 l -7.72125,25.22275 z"
         style="font-style:normal;font-variant:normal;font-weight:normal;font-stretch:normal;font-size:257.375px;font-family:'Stonestick free tester';-inkscape-font-specification:'Stonestick free tester';fill:#ffffff"
         id="path4174"
         inkscape:connector-curvature="0" />
    </g>
  </g>
</svg>
