<?xml version="1.0" encoding="UTF-8" standalone="no"?>
<!-- Created with Inkscape (http://www.inkscape.org/) -->

<svg
   xmlns:dc="http://purl.org/dc/elements/1.1/"
   xmlns:cc="http://creativecommons.org/ns#"
   xmlns:rdf="http://www.w3.org/1999/02/22-rdf-syntax-ns#"
   xmlns:svg="http://www.w3.org/2000/svg"
   xmlns="http://www.w3.org/2000/svg"
   xmlns:sodipodi="http://sodipodi.sourceforge.net/DTD/sodipodi-0.dtd"
   xmlns:inkscape="http://www.inkscape.org/namespaces/inkscape"
   width="1500"
   height="1500"
   viewBox="0 0 1500 1500"
   id="svg4394"
   version="1.1"
   inkscape:version="0.91 r13725"
   sodipodi:docname="elemental_symbol_simple.svg">
  <defs
     id="defs4396" />
  <sodipodi:namedview
     id="base"
     pagecolor="#ffffff"
     bordercolor="#666666"
     borderopacity="1.0"
     inkscape:pageopacity="0.0"
     inkscape:pageshadow="2"
     inkscape:zoom="0.35"
     inkscape:cx="649.28571"
     inkscape:cy="597.14286"
     inkscape:document-units="px"
     inkscape:current-layer="layer1"
     showgrid="false"
     units="px"
     inkscape:window-width="1879"
     inkscape:window-height="1056"
     inkscape:window-x="41"
     inkscape:window-y="24"
     inkscape:window-maximized="1" />
  <metadata
     id="metadata4399">
    <rdf:RDF>
      <cc:Work
         rdf:about="">
        <dc:format>image/svg+xml</dc:format>
        <dc:type
           rdf:resource="http://purl.org/dc/dcmitype/StillImage" />
        <dc:title></dc:title>
      </cc:Work>
    </rdf:RDF>
  </metadata>
  <g
     inkscape:label="Layer 1"
     inkscape:groupmode="layer"
     id="layer1"
     transform="translate(0,447.63784)">
    <g
       transform="matrix(0.97480127,0,0,0.97480127,4546.0103,-380.82712)"
       id="g4948">
      <path
         id="path7585"
         d="m -4082.8471,399.17167 -112.967,112.96697 a 267.04285,267.04285 0 0 1 78.3317,188.71112 267.04285,267.04285 0 0 1 -78.3348,188.70799 l 112.9701,112.97015 a 267.04285,267.04285 0 0 1 188.7111,-78.3318 267.04285,267.04285 0 0 1 188.708,78.3318 l 112.9701,-112.97015 a 267.04285,267.04285 0 0 1 -78.3349,-188.70799 267.04285,267.04285 0 0 1 78.3318,-188.71112 l -112.967,-112.96697 a 267.04285,267.04285 0 0 1 -188.708,78.33174 267.04285,267.04285 0 0 1 -188.7111,-78.33174 z"
         style="opacity:1;fill:none;fill-opacity:1;stroke:#000000;stroke-width:23.91428566;stroke-linecap:round;stroke-linejoin:round;stroke-miterlimit:4;stroke-dasharray:none;stroke-opacity:1"
         inkscape:connector-curvature="0" />
      <circle
         r="227.18571"
         cy="210.46085"
         cx="-3894.137"
         id="circle7587"
         style="opacity:1;fill:none;fill-opacity:1;stroke:#000000;stroke-width:23.91428566;stroke-linecap:round;stroke-linejoin:round;stroke-miterlimit:4;stroke-dasharray:none;stroke-opacity:1" />
      <circle
         style="opacity:1;fill:none;fill-opacity:1;stroke:#000000;stroke-width:23.91428566;stroke-linecap:round;stroke-linejoin:round;stroke-miterlimit:4;stroke-dasharray:none;stroke-opacity:1"
         id="circle7589"
         cx="-3403.7483"
         cy="700.84955"
         r="227.18571" />
      <circle
         r="227.18571"
         cy="1191.2382"
         cx="-3894.137"
         id="circle7591"
         style="opacity:1;fill:none;fill-opacity:1;stroke:#000000;stroke-width:23.91428566;stroke-linecap:round;stroke-linejoin:round;stroke-miterlimit:4;stroke-dasharray:none;stroke-opacity:1" />
      <circle
         style="opacity:1;fill:none;fill-opacity:1;stroke:#000000;stroke-width:23.91428566;stroke-linecap:round;stroke-linejoin:round;stroke-miterlimit:4;stroke-dasharray:none;stroke-opacity:1"
         id="circle7593"
         cx="-4384.5259"
         cy="700.84955"
         r="227.18571" />
      <path
         id="path7595"
         d="m -3894.136,-56.582299 a 267.04285,267.04285 0 0 0 -267.0429,267.042849 267.04285,267.04285 0 0 0 53.038,159.24797 l -117.1582,117.15821 a 267.04285,267.04285 0 0 0 -159.2261,-53.05982 267.04285,267.04285 0 0 0 -267.0429,267.04285 267.04285,267.04285 0 0 0 267.0429,267.04285 267.04285,267.04285 0 0 0 159.2479,-53.03802 l 117.1582,117.15821 a 267.04285,267.04285 0 0 0 -53.0598,159.2261 267.04285,267.04285 0 0 0 267.0429,267.043 267.04285,267.04285 0 0 0 267.0428,-267.043 267.04285,267.04285 0 0 0 -53.038,-159.251 l 117.1551,-117.15511 a 267.04285,267.04285 0 0 0 159.2261,53.05982 267.04285,267.04285 0 0 0 267.0428,-267.04285 267.04285,267.04285 0 0 0 -267.0428,-267.04285 267.04285,267.04285 0 0 0 -159.2479,53.03801 l -117.1582,-117.15819 a 267.04285,267.04285 0 0 0 53.0629,-159.22618 267.04285,267.04285 0 0 0 -267.0428,-267.042849 z"
         style="opacity:1;fill:none;fill-opacity:1;stroke:#000000;stroke-width:23.91428566;stroke-linecap:round;stroke-linejoin:round;stroke-miterlimit:4;stroke-dasharray:none;stroke-opacity:1"
         inkscape:connector-curvature="0" />
      <path
         id="path7597"
         d="m -4082.8471,399.17167 -112.967,112.96697 a 267.04285,267.04285 0 0 1 78.3317,188.71112 267.04285,267.04285 0 0 1 -78.3348,188.70799 l 112.9701,112.97015 a 267.04285,267.04285 0 0 1 188.7111,-78.3318 267.04285,267.04285 0 0 1 188.7111,78.3318 l 112.967,-112.96704 a 267.04285,267.04285 0 0 1 -78.3349,-188.7111 267.04285,267.04285 0 0 1 78.3349,-188.71112 l -112.967,-112.96697 a 267.04285,267.04285 0 0 1 -188.7111,78.33174 267.04285,267.04285 0 0 1 -188.7111,-78.33174 z"
         style="opacity:1;fill:none;fill-opacity:1;stroke:#000000;stroke-width:23.91428375;stroke-linecap:round;stroke-linejoin:round;stroke-miterlimit:4;stroke-dasharray:none;stroke-opacity:1"
         inkscape:connector-curvature="0" />
      <path
         id="path7617"
         d="m -4408.4462,507.86133 133.7641,231.68656 -47.6156,0 -124.6816,0 -23.8085,41.23638 172.2972,0 47.6155,0 47.6171,0 -23.807,-41.23487 0,-0.002 -133.7641,-231.68655 -47.6156,0 z m -86.1486,231.68656 -23.8071,41.23638 0,0 23.807,-41.23638 0,0 z"
         style="opacity:1;fill:none;fill-rule:evenodd;stroke:#000000;stroke-width:20;stroke-linecap:butt;stroke-linejoin:round;stroke-miterlimit:4;stroke-dasharray:none;stroke-opacity:1"
         inkscape:connector-curvature="0" />
      <path
         inkscape:connector-curvature="0"
         style="opacity:1;fill:none;fill-rule:evenodd;stroke:#000000;stroke-width:20;stroke-linecap:butt;stroke-linejoin:round;stroke-miterlimit:4;stroke-dasharray:none;stroke-opacity:1"
         d="m -4542.2104,822.02066 47.614,8e-5 0,0 219.9112,0 7e-4,0 47.6153,-7e-4 23.8082,-41.23567 -47.616,-6.2e-4 -47.6153,7e-4 -172.2972,2e-5 86.1486,-149.21375 -23.8077,-41.23629 -109.9562,190.45074 -23.8082,41.23572 z"
         id="path7619" />
      <path
         id="path7621"
         d="m -4408.4462,507.86133 -23.8071,41.23488 0,0.003 -109.9556,190.44865 0,0 -23.8071,41.23638 23.8071,41.2364 23.8085,-41.2364 23.807,-41.23638 86.1486,-149.21378 86.1486,149.21378 47.6156,0 -109.9572,-190.45016 -23.807,-41.2364 z"
         style="opacity:1;fill:none;fill-rule:evenodd;stroke:#000000;stroke-width:20;stroke-linecap:butt;stroke-linejoin:round;stroke-miterlimit:4;stroke-dasharray:none;stroke-opacity:1"
         inkscape:connector-curvature="0" />
      <path
         inkscape:connector-curvature="0"
         style="opacity:1;fill:none;fill-rule:evenodd;stroke:#000000;stroke-width:20;stroke-linecap:butt;stroke-linejoin:round;stroke-miterlimit:4;stroke-dasharray:none;stroke-opacity:1"
         d="m -3246.064,582.92523 -133.7644,231.68644 -23.8078,-41.2363 -62.3408,-107.97743 -47.616,-6.1e-4 86.1486,149.21373 23.8078,41.23629 23.8085,41.23761 23.8069,-41.23492 6e-4,-0.002 133.7644,-231.68644 -23.8078,-41.23629 z m -243.7208,41.23642 -47.6152,7e-4 7e-4,0.001 47.6153,-7e-4 -8e-4,-10e-4 z"
         id="path7637" />
      <path
         id="path7639"
         d="m -3585.0161,624.16173 23.8069,41.23494 0,0.002 109.9556,190.44866 4e-4,6.6e-4 23.8082,41.23569 47.6153,7.1e-4 -23.8075,-41.237 -23.8082,-41.23569 -86.1487,-149.21375 172.2972,2e-5 23.8078,-41.23629 -219.9132,5.9e-4 -47.6153,-7e-4 z"
         style="opacity:1;fill:none;fill-rule:evenodd;stroke:#000000;stroke-width:20;stroke-linecap:butt;stroke-linejoin:round;stroke-miterlimit:4;stroke-dasharray:none;stroke-opacity:1"
         inkscape:connector-curvature="0" />
      <path
         inkscape:connector-curvature="0"
         style="opacity:1;fill:none;fill-rule:evenodd;stroke:#000000;stroke-width:20;stroke-linecap:butt;stroke-linejoin:round;stroke-miterlimit:4;stroke-dasharray:none;stroke-opacity:1"
         d="m -3246.064,582.92523 -47.614,-5e-5 0,0.002 -219.9112,-3e-5 -7e-4,-10e-4 -47.6153,7.1e-4 -23.8083,41.23568 47.6161,6.2e-4 47.6153,-7.1e-4 172.2972,-2e-5 -86.1487,149.21375 23.8078,41.23629 109.9561,-190.45074 23.8083,-41.23569 z"
         id="path7641" />
      <g
         transform="matrix(0.32416495,0,0,0.32416495,-4551.6131,-688.8205)"
         id="g8068">
        <path
           id="path8046"
           d="m 1961.7654,2251.6051 373.3355,646.637 -132.8949,0 -347.9863,0 -66.4497,115.0907 480.8813,0 132.8949,0 132.8996,0 -66.4456,-115.0864 0,0 -373.3356,-646.6373 -132.8952,0 z m -240.4406,646.637 -66.4456,115.0907 0,0 66.4456,-115.0907 0,0 z"
           style="opacity:1;fill:none;fill-rule:evenodd;stroke:#000000;stroke-width:61.69708633;stroke-linecap:butt;stroke-linejoin:round;stroke-miterlimit:4;stroke-dasharray:none;stroke-opacity:1"
           inkscape:connector-curvature="0" />
        <path
           inkscape:connector-curvature="0"
           style="opacity:1;fill:none;fill-rule:evenodd;stroke:#000000;stroke-width:61.69708633;stroke-linecap:butt;stroke-linejoin:round;stroke-miterlimit:4;stroke-dasharray:none;stroke-opacity:1"
           d="m 1961.7559,2481.7891 -105.2286,182.2636 132.8926,0 38.7832,-67.1738 -66.4472,-115.0898 z m -160.2247,277.5195 -146.6621,254.0273 -66.4492,115.0899 0.01,0 132.8906,0 613.7715,0 132.8945,0 66.4492,-115.0879 -132.8964,0 -132.8946,0 -480.8808,0 146.6621,-254.0273 -132.8946,0 z"
           transform="translate(0,3.464567e-6)"
           id="path8048" />
        <path
           inkscape:connector-curvature="0"
           style="opacity:1;fill:none;fill-opacity:1;stroke:#000000;stroke-width:61.69708633;stroke-linecap:round;stroke-linejoin:round;stroke-miterlimit:4;stroke-dasharray:none;stroke-opacity:1"
           d="m 1530.8965,2664.0527 -62.8574,95.2559 653.9629,0 -54.9961,-95.2559 -536.1094,0 z m 801.8926,0 54.9961,95.2559 200.6054,0 -62.8574,-95.2559 -192.7441,0 z"
           transform="translate(0,3.464567e-6)"
           id="path8050" />
        <path
           inkscape:connector-curvature="0"
           style="opacity:1;fill:none;fill-rule:evenodd;stroke:#000000;stroke-width:61.69708633;stroke-linecap:butt;stroke-linejoin:round;stroke-miterlimit:4;stroke-dasharray:none;stroke-opacity:1"
           d="m 1961.7695,2251.5957 0,0.01 -66.4453,115.0859 -171.6816,297.3613 132.8945,0 105.2363,-182.2754 240.4414,416.4571 132.8946,0 -306.8907,-531.5469 -66.4453,-115.0918 z m -293.1269,507.7129 -80.209,138.9258 -66.4453,115.0898 66.4453,115.0918 66.4492,-115.0918 66.4453,-115.0898 80.209,-138.9258 -132.8945,0 z"
           transform="translate(0,3.464567e-6)"
           id="path8052" />
      </g>
      <g
         id="g8101"
         transform="matrix(-0.32416495,0,0,-0.32416495,-3236.6608,2094.641)">
        <path
           inkscape:connector-curvature="0"
           style="opacity:1;fill:none;fill-rule:evenodd;stroke:#000000;stroke-width:61.69708633;stroke-linecap:butt;stroke-linejoin:round;stroke-miterlimit:4;stroke-dasharray:none;stroke-opacity:1"
           d="m 1961.7654,2251.6051 373.3355,646.637 -132.8949,0 -347.9863,0 -66.4497,115.0907 480.8813,0 132.8949,0 132.8996,0 -66.4456,-115.0864 0,0 -373.3356,-646.6373 -132.8952,0 z m -240.4406,646.637 -66.4456,115.0907 0,0 66.4456,-115.0907 0,0 z"
           id="path8103" />
        <path
           id="path8105"
           transform="translate(0,3.464567e-6)"
           d="m 1961.7559,2481.7891 -105.2286,182.2636 132.8926,0 38.7832,-67.1738 -66.4472,-115.0898 z m -160.2247,277.5195 -146.6621,254.0273 -66.4492,115.0899 0.01,0 132.8906,0 613.7715,0 132.8945,0 66.4492,-115.0879 -132.8964,0 -132.8946,0 -480.8808,0 146.6621,-254.0273 -132.8946,0 z"
           style="opacity:1;fill:none;fill-rule:evenodd;stroke:#000000;stroke-width:61.69708633;stroke-linecap:butt;stroke-linejoin:round;stroke-miterlimit:4;stroke-dasharray:none;stroke-opacity:1"
           inkscape:connector-curvature="0" />
        <path
           id="path8107"
           transform="translate(0,3.464567e-6)"
           d="m 1530.8965,2664.0527 -62.8574,95.2559 653.9629,0 -54.9961,-95.2559 -536.1094,0 z m 801.8926,0 54.9961,95.2559 200.6054,0 -62.8574,-95.2559 -192.7441,0 z"
           style="opacity:1;fill:none;fill-opacity:1;stroke:#000000;stroke-width:61.69708633;stroke-linecap:round;stroke-linejoin:round;stroke-miterlimit:4;stroke-dasharray:none;stroke-opacity:1"
           inkscape:connector-curvature="0" />
        <path
           id="path8109"
           transform="translate(0,3.464567e-6)"
           d="m 1961.7695,2251.5957 0,0.01 -66.4453,115.0859 -171.6816,297.3613 132.8945,0 105.2363,-182.2754 240.4414,416.4571 132.8946,0 -306.8907,-531.5469 -66.4453,-115.0918 z m -293.1269,507.7129 -80.209,138.9258 -66.4453,115.0898 66.4453,115.0918 66.4492,-115.0918 66.4453,-115.0898 80.209,-138.9258 -132.8945,0 z"
           style="opacity:1;fill:none;fill-rule:evenodd;stroke:#000000;stroke-width:61.69708633;stroke-linecap:butt;stroke-linejoin:round;stroke-miterlimit:4;stroke-dasharray:none;stroke-opacity:1"
           inkscape:connector-curvature="0" />
      </g>
    </g>
  </g>
</svg>
