<?xml version="1.0" encoding="UTF-8" standalone="no"?>
<!-- Created with Inkscape (http://www.inkscape.org/) -->

<svg
   xmlns:dc="http://purl.org/dc/elements/1.1/"
   xmlns:cc="http://creativecommons.org/ns#"
   xmlns:rdf="http://www.w3.org/1999/02/22-rdf-syntax-ns#"
   xmlns:svg="http://www.w3.org/2000/svg"
   xmlns="http://www.w3.org/2000/svg"
   xmlns:sodipodi="http://sodipodi.sourceforge.net/DTD/sodipodi-0.dtd"
   xmlns:inkscape="http://www.inkscape.org/namespaces/inkscape"
   width="210mm"
   height="297mm"
   viewBox="0 0 744.09448819 1052.3622047"
   id="svg8719"
   version="1.1"
   inkscape:version="0.91 r13725"
   sodipodi:docname="elemental_thin.svg">
  <defs
     id="defs8721" />
  <sodipodi:namedview
     id="base"
     pagecolor="#ffffff"
     bordercolor="#666666"
     borderopacity="1.0"
     inkscape:pageopacity="0.0"
     inkscape:pageshadow="2"
     inkscape:zoom="0.35"
     inkscape:cx="-50.714286"
     inkscape:cy="520"
     inkscape:document-units="px"
     inkscape:current-layer="layer1"
     showgrid="false"
     inkscape:window-width="1879"
     inkscape:window-height="1056"
     inkscape:window-x="41"
     inkscape:window-y="24"
     inkscape:window-maximized="1" />
  <metadata
     id="metadata8724">
    <rdf:RDF>
      <cc:Work
         rdf:about="">
        <dc:format>image/svg+xml</dc:format>
        <dc:type
           rdf:resource="http://purl.org/dc/dcmitype/StillImage" />
        <dc:title></dc:title>
      </cc:Work>
    </rdf:RDF>
  </metadata>
  <g
     inkscape:label="Layer 1"
     inkscape:groupmode="layer"
     id="layer1">
    <path
       style="opacity:1;fill:none;fill-opacity:1;stroke:#000000;stroke-width:5;stroke-linecap:round;stroke-linejoin:round;stroke-miterlimit:4;stroke-dasharray:none;stroke-opacity:1"
       d="m 312.84441,689.50085 19.73438,34.18164 39.46875,68.36133 39.46875,-68.36133 19.73437,-34.18164 -118.40625,0 z"
       id="path4217"
       inkscape:connector-curvature="0" />
    <path
       style="opacity:1;fill:none;fill-opacity:1;stroke:#000000;stroke-width:5;stroke-linecap:round;stroke-linejoin:round;stroke-miterlimit:4;stroke-dasharray:none;stroke-opacity:1"
       d="m 473.12143,356.7182 a 105,105 0 0 1 -101.07418,76.96289 105,105 0 0 1 -101.15624,-76.85742 197.5,197.5 0 0 0 -68.29688,68.28516 105,105 0 0 1 76.95312,101.07226 105,105 0 0 1 -76.85742,101.15625 197.5,197.5 0 0 0 68.28516,68.29688 105,105 0 0 1 101.07226,-76.95313 105,105 0 0 1 101.10938,76.72266 197.5,197.5 0 0 0 68.3047,-68.16016 105,105 0 0 1 -76.9141,-101.0625 105,105 0 0 1 76.8731,-101.16015 197.5,197.5 0 0 0 -68.2989,-68.30274 z"
       id="circle4152"
       inkscape:connector-curvature="0" />
    <path
       style="opacity:1;fill:none;fill-opacity:1;stroke:#000000;stroke-width:5;stroke-linecap:round;stroke-linejoin:round;stroke-miterlimit:4;stroke-dasharray:none;stroke-opacity:1"
       d="m 372.04725,223.68111 a 105,105 0 0 0 -105,104.99999 105,105 0 0 0 2.10547,20.42383 205,205 0 0 0 -74.07421,74.11913 105,105 0 0 0 -20.53126,-2.04297 105,105 0 0 0 -104.99999,105 105,105 0 0 0 104.99999,105 105,105 0 0 0 20.42383,-2.10546 205,205 0 0 0 74.1211,74.07421 105,105 0 0 0 -2.04493,20.53125 105,105 0 0 0 105,105 105,105 0 0 0 104.99998,-105 105,105 0 0 0 -2.1328,-20.54296 205,205 0 0 0 74.1641,-73.99023 105,105 0 0 0 20.4687,2.03319 105,105 0 0 0 105,-105 105,105 0 0 0 -105,-105 105,105 0 0 0 -20.4785,2.11915 205,205 0 0 0 -74.0683,-74.05468 105,105 0 0 0 2.0468,-20.56446 105,105 0 0 0 -104.99998,-104.99999 z"
       id="circle4142"
       inkscape:connector-curvature="0" />
    <circle
       r="97.5"
       cy="526.1817"
       cx="569.54742"
       id="circle4138"
       style="opacity:1;fill:none;fill-opacity:1;stroke:#000000;stroke-width:5;stroke-linecap:round;stroke-linejoin:round;stroke-miterlimit:4;stroke-dasharray:none;stroke-opacity:1" />
    <circle
       style="opacity:1;fill:none;fill-opacity:1;stroke:#000000;stroke-width:5;stroke-linecap:round;stroke-linejoin:round;stroke-miterlimit:4;stroke-dasharray:none;stroke-opacity:1"
       id="circle4156"
       cx="372.04749"
       cy="328.68167"
       r="97.5" />
    <circle
       r="97.5"
       cy="723.6817"
       cx="372.04749"
       id="circle4158"
       style="opacity:1;fill:none;fill-opacity:1;stroke:#000000;stroke-width:5;stroke-linecap:round;stroke-linejoin:round;stroke-miterlimit:4;stroke-dasharray:none;stroke-opacity:1" />
    <circle
       style="opacity:1;fill:none;fill-opacity:1;stroke:#000000;stroke-width:5;stroke-linecap:round;stroke-linejoin:round;stroke-miterlimit:4;stroke-dasharray:none;stroke-opacity:1"
       id="circle4160"
       cx="174.54755"
       cy="526.1817"
       r="97.5" />
    <path
       sodipodi:type="star"
       style="opacity:1;fill:none;fill-opacity:1;stroke:#000000;stroke-width:5;stroke-linecap:round;stroke-linejoin:round;stroke-miterlimit:4;stroke-dasharray:none;stroke-opacity:1"
       id="path4213"
       sodipodi:sides="3"
       sodipodi:cx="174.54754"
       sodipodi:cy="526.18172"
       sodipodi:r1="68.362778"
       sodipodi:r2="34.181389"
       sodipodi:arg1="0.52359878"
       sodipodi:arg2="1.5707963"
       inkscape:flatsided="true"
       inkscape:rounded="0"
       inkscape:randomized="0"
       d="m 233.75145,560.36309 -118.40781,0 59.20391,-102.54417 z"
       inkscape:transform-center-y="-17.090694" />
    <path
       inkscape:transform-center-y="-17.090694"
       d="m 431.25139,362.86309 -118.40781,0 59.20391,-102.54417 z"
       inkscape:randomized="0"
       inkscape:rounded="0"
       inkscape:flatsided="true"
       sodipodi:arg2="1.5707963"
       sodipodi:arg1="0.52359878"
       sodipodi:r2="34.181389"
       sodipodi:r1="68.362778"
       sodipodi:cy="328.68169"
       sodipodi:cx="372.04748"
       sodipodi:sides="3"
       id="path4219"
       style="opacity:1;fill:none;fill-opacity:1;stroke:#000000;stroke-width:5;stroke-linecap:round;stroke-linejoin:round;stroke-miterlimit:4;stroke-dasharray:none;stroke-opacity:1"
       sodipodi:type="star" />
    <path
       inkscape:connector-curvature="0"
       id="path4223"
       d="m 310.34401,328.68168 123.407,0 z"
       style="opacity:1;fill:none;fill-rule:evenodd;stroke:#000000;stroke-width:5;stroke-linecap:butt;stroke-linejoin:miter;stroke-miterlimit:4;stroke-dasharray:none;stroke-opacity:1" />
    <path
       style="opacity:1;fill:none;fill-rule:evenodd;stroke:#000000;stroke-width:5;stroke-linecap:butt;stroke-linejoin:miter;stroke-miterlimit:4;stroke-dasharray:none;stroke-opacity:1"
       d="m 310.34401,723.68168 123.407,0 z"
       id="path4278"
       inkscape:connector-curvature="0" />
    <path
       style="opacity:1;fill:none;fill-opacity:1;stroke:#000000;stroke-width:5.00000048;stroke-linecap:round;stroke-linejoin:round;stroke-miterlimit:4;stroke-dasharray:none;stroke-opacity:1"
       d="m 470.73893,364.14734 a 105,105 0 0 1 -98.69139,69.53515 105,105 0 0 1 -98.69532,-69.45702 190,190 0 0 0 -63.43945,63.22851 105,105 0 0 1 69.63477,98.72851 105,105 0 0 1 -69.55664,98.72852 190,190 0 0 0 63.38086,63.26368 105,105 0 0 1 98.67578,-69.4922 105,105 0 0 1 98.68159,69.41602 190,190 0 0 0 63.3907,-63.21289 105,105 0 0 1 -69.5723,-98.70313 105,105 0 0 1 69.6211,-98.75194 190,190 0 0 0 -63.4297,-63.2832 z"
       id="circle5700"
       inkscape:connector-curvature="0" />
    <path
       style="opacity:1;fill:none;fill-opacity:1;stroke:#000000;stroke-width:5.00000048;stroke-linecap:round;stroke-linejoin:round;stroke-miterlimit:4;stroke-dasharray:none;stroke-opacity:1"
       d="m 276.19988,371.23524 a 182.5,182.5 0 0 0 -59.23242,58.9746 105,105 0 0 1 62.58008,95.97265 105,105 0 0 1 -62.51758,95.87892 182.5,182.5 0 0 0 59.14648,58.99219 105,105 0 0 1 95.8711,-62.3711 105,105 0 0 1 95.82029,62.38672 182.5,182.5 0 0 0 59.168,-58.96094 105,105 0 0 1 -62.4883,-95.92579 105,105 0 0 1 62.6094,-95.92187 182.5,182.5 0 0 0 -59.211,-59.0078 105,105 0 0 1 -95.89839,62.42967 105,105 0 0 1 -95.84766,-62.44725 z"
       id="circle5702"
       inkscape:connector-curvature="0" />
    <path
       style="opacity:1;fill:none;fill-opacity:1;stroke:#000000;stroke-width:5.00000048;stroke-linecap:round;stroke-linejoin:round;stroke-miterlimit:4;stroke-dasharray:none;stroke-opacity:1"
       d="m 279.44597,378.00868 a 175,175 0 0 0 -55.71679,55.46873 105,105 0 0 1 55.81836,92.70508 105,105 0 0 1 -55.72266,92.62891 175,175 0 0 0 55.63086,55.45312 105,105 0 0 1 92.5918,-55.58203 105,105 0 0 1 92.56449,55.60742 175,175 0 0 0 55.6445,-55.45507 105,105 0 0 1 -55.709,-92.65235 105,105 0 0 1 55.8262,-92.6914 175,175 0 0 0 -55.6992,-55.46093 105,105 0 0 1 -92.62699,55.65233 105,105 0 0 1 -92.60157,-55.67381 z"
       id="circle5708"
       inkscape:connector-curvature="0" />
    <path
       style="opacity:1;fill:none;fill-opacity:1;stroke:#000000;stroke-width:5.00000048;stroke-linecap:round;stroke-linejoin:round;stroke-miterlimit:4;stroke-dasharray:none;stroke-opacity:1"
       d="m 460.85413,384.46766 a 105,105 0 0 1 -88.80659,49.21483 105,105 0 0 1 -88.87696,-49.18164 167.5,167.5 0 0 0 -52.98828,52.78125 105,105 0 0 1 49.36524,88.90039 105,105 0 0 1 -49.22266,88.90235 167.5,167.5 0 0 0 52.95508,52.74609 105,105 0 0 1 88.76758,-49.14844 105,105 0 0 1 88.83789,49.11328 167.5,167.5 0 0 0 52.9258,-52.77734 105,105 0 0 1 -49.2637,-88.83594 105,105 0 0 1 49.3281,-88.96289 167.5,167.5 0 0 0 -53.0215,-52.75194 z"
       id="circle5788"
       inkscape:connector-curvature="0" />
    <path
       style="opacity:1;fill:none;fill-opacity:1;stroke:#000000;stroke-width:5.00000048;stroke-linecap:round;stroke-linejoin:round;stroke-miterlimit:4;stroke-dasharray:none;stroke-opacity:1"
       d="m 287.45183,390.66882 a 160,160 0 0 0 -51.04296,50.81055 105,105 0 0 1 43.13867,84.70312 105,105 0 0 1 -43.05664,84.62697 160,160 0 0 0 50.99609,50.82226 105,105 0 0 1 84.56055,-42.94922 105,105 0 0 1 84.55659,42.95703 160,160 0 0 0 50.9942,-50.82031 105,105 0 0 1 -43.0508,-84.63672 105,105 0 0 1 43.1426,-84.6914 160,160 0 0 0 -51.041,-50.81446 105,105 0 0 1 -84.60159,43.00586 105,105 0 0 1 -84.59571,-43.01367 z"
       id="circle5790"
       inkscape:connector-curvature="0" />
    <path
       style="opacity:1;fill:none;fill-opacity:1;stroke:#000000;stroke-width:5.00000048;stroke-linecap:round;stroke-linejoin:round;stroke-miterlimit:4;stroke-dasharray:none;stroke-opacity:1"
       d="m 292.12761,396.60241 a 152.5,152.5 0 0 0 -49.71874,49.47461 105,105 0 0 1 37.13867,80.10547 105,105 0 0 1 -37.12891,79.96289 152.5,152.5 0 0 0 49.65234,49.53711 105,105 0 0 1 79.97657,-37 105,105 0 0 1 79.88479,37.03907 152.5,152.5 0 0 0 49.6933,-49.49219 105,105 0 0 1 -37.0781,-80.04688 105,105 0 0 1 37.1895,-80.01758 152.5,152.5 0 0 0 -49.6778,-49.52148 105,105 0 0 1 -80.01169,37.03906 105,105 0 0 1 -79.91993,-37.08008 z"
       id="circle5792"
       inkscape:connector-curvature="0" />
    <path
       style="opacity:1;fill:none;fill-opacity:1;stroke:#000000;stroke-width:5.00000048;stroke-linecap:round;stroke-linejoin:round;stroke-miterlimit:4;stroke-dasharray:none;stroke-opacity:1"
       d="m 446.88347,402.20007 a 105,105 0 0 1 -74.83593,31.48242 105,105 0 0 1 -74.83203,-31.39062 145,145 0 0 0 -49.17969,49.02734 105,105 0 0 1 31.51172,74.86328 105,105 0 0 1 -31.44922,74.89649 145,145 0 0 0 49.13086,49.06641 105,105 0 0 1 74.81836,-31.4629 105,105 0 0 1 74.8164,31.37306 145,145 0 0 0 49.16989,-49.03516 105,105 0 0 1 -31.4863,-74.8379 105,105 0 0 1 31.4766,-74.92578 145,145 0 0 0 -49.14066,-49.05664 z"
       id="circle5794"
       inkscape:connector-curvature="0" />
    <path
       style="opacity:1;fill:none;fill-opacity:1;stroke:#000000;stroke-width:5.00000048;stroke-linecap:round;stroke-linejoin:round;stroke-miterlimit:4;stroke-dasharray:none;stroke-opacity:1"
       d="m 441.1784,407.53796 a 105,105 0 0 1 -69.13086,26.14453 105,105 0 0 1 -69.13477,-26.08398 137.5,137.5 0 0 0 -49.52148,49.43945 105,105 0 0 1 26.15625,69.14453 105,105 0 0 1 -26.15039,69.20899 137.5,137.5 0 0 0 49.50586,49.44531 105,105 0 0 1 69.14453,-26.1543 105,105 0 0 1 69.14843,26.09375 137.5,137.5 0 0 0 49.52736,-49.42578 105,105 0 0 1 -26.1758,-69.16797 105,105 0 0 1 26.1289,-69.1875 137.5,137.5 0 0 0 -49.49803,-49.45703 z"
       id="circle5796"
       inkscape:connector-curvature="0" />
    <path
       style="opacity:1;fill:none;fill-opacity:1;stroke:#000000;stroke-width:5.00000048;stroke-linecap:round;stroke-linejoin:round;stroke-miterlimit:4;stroke-dasharray:none;stroke-opacity:1"
       d="m 309.09832,412.55749 a 130,130 0 0 0 -50.64453,50.67188 105,105 0 0 1 21.09375,62.95312 105,105 0 0 1 -21.17774,63.01954 130,130 0 0 0 50.76563,50.54493 105,105 0 0 1 62.91211,-21.06447 105,105 0 0 1 62.97656,21.14454 130,130 0 0 0 50.66213,-50.62891 105,105 0 0 1 -21.1387,-63.01563 105,105 0 0 1 21.0859,-62.90039 130,130 0 0 0 -50.73628,-50.62109 105,105 0 0 1 -62.84961,21.02148 105,105 0 0 1 -62.94922,-21.125 z"
       id="circle5798"
       inkscape:connector-curvature="0" />
    <path
       style="opacity:1;fill:none;fill-opacity:1;stroke:#000000;stroke-width:5.00000048;stroke-linecap:round;stroke-linejoin:round;stroke-miterlimit:4;stroke-dasharray:none;stroke-opacity:1"
       d="m 316.0534,417.36023 a 122.5,122.5 0 0 0 -52.84375,52.62891 105,105 0 0 1 16.33789,56.19335 105,105 0 0 1 -16.33203,56.01369 122.5,122.5 0 0 0 52.77929,52.74217 105,105 0 0 1 56.05274,-16.25586 105,105 0 0 1 55.92578,16.27931 122.5,122.5 0 0 0 52.83981,-52.70898 105,105 0 0 1 -16.2656,-56.07033 105,105 0 0 1 16.3672,-56.0703 122.5,122.5 0 0 0 -52.77735,-52.70898 105,105 0 0 1 -56.08984,16.27928 105,105 0 0 1 -55.99414,-16.32226 z"
       id="circle5800"
       inkscape:connector-curvature="0" />
    <path
       style="opacity:1;fill:none;fill-opacity:1;stroke:#000000;stroke-width:5.00000048;stroke-linecap:round;stroke-linejoin:round;stroke-miterlimit:4;stroke-dasharray:none;stroke-opacity:1"
       d="m 420.3034,421.89734 a 105,105 0 0 1 -48.25586,11.78515 105,105 0 0 1 -48.0918,-11.76953 115,115 0 0 0 -56.17773,56.03711 105,105 0 0 1 11.76953,48.23242 105,105 0 0 1 -11.80469,48.16797 115,115 0 0 0 56.03125,56.125 105,105 0 0 1 48.27344,-11.79297 105,105 0 0 1 48.0664,11.75586 115,115 0 0 0 56.18359,-56.05859 105,105 0 0 1 -11.75,-48.19727 105,105 0 0 1 11.7813,-48.11914 115,115 0 0 0 -56.02543,-56.16601 z"
       id="circle5802"
       inkscape:connector-curvature="0" />
    <path
       style="opacity:1;fill:none;fill-opacity:1;stroke:#000000;stroke-width:5.00000048;stroke-linecap:round;stroke-linejoin:round;stroke-miterlimit:4;stroke-dasharray:none;stroke-opacity:1"
       d="m 333.09246,426.09851 a 107.5,107.5 0 0 0 -61.17383,60.93556 105,105 0 0 1 7.62891,39.14842 105,105 0 0 1 -7.58789,38.96875 107.5,107.5 0 0 0 61.14062,61.06836 105,105 0 0 1 38.94727,-7.53711 105,105 0 0 1 38.86718,7.54883 107.5,107.5 0 0 0 61.18161,-61.08203 105,105 0 0 1 -7.5488,-38.9668 105,105 0 0 1 7.625,-39.07031 107.5,107.5 0 0 0 -61.13085,-60.99023 105,105 0 0 1 -38.99414,7.56054 105,105 0 0 1 -38.95508,-7.58398 z"
       id="circle5804"
       inkscape:connector-curvature="0" />
    <path
       style="opacity:1;fill:none;fill-opacity:1;stroke:#000000;stroke-width:5.00000048;stroke-linecap:round;stroke-linejoin:round;stroke-miterlimit:4;stroke-dasharray:none;stroke-opacity:1"
       d="m 345.00066,430.00867 a 100,100 0 0 0 -69.12109,68.79296 105,105 0 0 1 3.66797,27.38086 105,105 0 0 1 -3.68164,27.08203 100,100 0 0 0 69,69.04102 105,105 0 0 1 27.18164,-3.62305 105,105 0 0 1 26.97656,3.6543 100,100 0 0 0 69.14453,-68.98438 105,105 0 0 1 -3.6211,-27.16992 105,105 0 0 1 3.7012,-27.16015 100,100 0 0 0 -68.97463,-68.97461 105,105 0 0 1 -27.22656,3.63476 105,105 0 0 1 -27.04688,-3.67382 z"
       id="circle5806"
       inkscape:connector-curvature="0" />
    <circle
       style="opacity:1;fill:none;fill-opacity:1;stroke:#000000;stroke-width:5.00000048;stroke-linecap:round;stroke-linejoin:round;stroke-miterlimit:4;stroke-dasharray:none;stroke-opacity:1"
       id="circle5808"
       cx="372.04724"
       cy="526.18109"
       r="92.5" />
    <circle
       r="85"
       cy="526.18109"
       cx="372.04724"
       id="circle5857"
       style="opacity:1;fill:none;fill-opacity:1;stroke:#000000;stroke-width:5.00000048;stroke-linecap:round;stroke-linejoin:round;stroke-miterlimit:4;stroke-dasharray:none;stroke-opacity:1" />
    <circle
       style="opacity:1;fill:none;fill-opacity:1;stroke:#000000;stroke-width:5.00000048;stroke-linecap:round;stroke-linejoin:round;stroke-miterlimit:4;stroke-dasharray:none;stroke-opacity:1"
       id="circle5859"
       cx="372.04724"
       cy="526.18109"
       r="77.5" />
    <circle
       r="70"
       cy="526.17621"
       cx="372.02771"
       id="circle5861"
       style="opacity:1;fill:none;fill-opacity:1;stroke:#000000;stroke-width:5.00000048;stroke-linecap:round;stroke-linejoin:round;stroke-miterlimit:4;stroke-dasharray:none;stroke-opacity:1" />
    <circle
       style="opacity:1;fill:none;fill-opacity:1;stroke:#000000;stroke-width:5.00000048;stroke-linecap:round;stroke-linejoin:round;stroke-miterlimit:4;stroke-dasharray:none;stroke-opacity:1"
       id="circle5863"
       cx="372.04724"
       cy="526.18109"
       r="62.5" />
    <circle
       r="55"
       cy="526.18109"
       cx="372.04724"
       id="circle5865"
       style="opacity:1;fill:none;fill-opacity:1;stroke:#000000;stroke-width:5.00000048;stroke-linecap:round;stroke-linejoin:round;stroke-miterlimit:4;stroke-dasharray:none;stroke-opacity:1" />
    <circle
       style="opacity:1;fill:none;fill-opacity:1;stroke:#000000;stroke-width:5.00000048;stroke-linecap:round;stroke-linejoin:round;stroke-miterlimit:4;stroke-dasharray:none;stroke-opacity:1"
       id="circle5867"
       cx="372.04724"
       cy="526.18109"
       r="47.5" />
    <circle
       r="40"
       cy="526.17621"
       cx="372.02771"
       id="circle5869"
       style="opacity:1;fill:none;fill-opacity:1;stroke:#000000;stroke-width:5.00000048;stroke-linecap:round;stroke-linejoin:round;stroke-miterlimit:4;stroke-dasharray:none;stroke-opacity:1" />
    <circle
       style="opacity:1;fill:none;fill-opacity:1;stroke:#000000;stroke-width:5.00000048;stroke-linecap:round;stroke-linejoin:round;stroke-miterlimit:4;stroke-dasharray:none;stroke-opacity:1"
       id="circle5875"
       cx="372.02771"
       cy="526.17621"
       r="32.5" />
    <circle
       r="25"
       cy="526.18109"
       cx="372.04724"
       id="circle5877"
       style="opacity:1;fill:none;fill-opacity:1;stroke:#000000;stroke-width:5.00000048;stroke-linecap:round;stroke-linejoin:round;stroke-miterlimit:4;stroke-dasharray:none;stroke-opacity:1" />
    <circle
       style="opacity:1;fill:none;fill-opacity:1;stroke:#000000;stroke-width:5.00000048;stroke-linecap:round;stroke-linejoin:round;stroke-miterlimit:4;stroke-dasharray:none;stroke-opacity:1"
       id="circle5879"
       cx="372.04724"
       cy="526.18109"
       r="17.5" />
    <path
       inkscape:transform-center-y="17.090694"
       d="m 765.45189,689.4815 -118.40781,0 59.20391,-102.54417 z"
       inkscape:randomized="0"
       inkscape:rounded="0"
       inkscape:flatsided="true"
       sodipodi:arg2="1.5707963"
       sodipodi:arg1="0.52359878"
       sodipodi:r2="34.181389"
       sodipodi:r1="68.362778"
       sodipodi:cy="655.30011"
       sodipodi:cx="706.24799"
       sodipodi:sides="3"
       id="path4215"
       style="opacity:1;fill:none;fill-opacity:1;stroke:#000000;stroke-width:5;stroke-linecap:round;stroke-linejoin:round;stroke-miterlimit:4;stroke-dasharray:none;stroke-opacity:1"
       sodipodi:type="star"
       transform="matrix(0.5,0.8660254,-0.8660254,0.5,783.93003,-413.09706)" />
  </g>
</svg>
