<?xml version="1.0" encoding="UTF-8" standalone="no"?>
<!-- Created with Inkscape (http://www.inkscape.org/) -->

<svg
   xmlns:dc="http://purl.org/dc/elements/1.1/"
   xmlns:cc="http://creativecommons.org/ns#"
   xmlns:rdf="http://www.w3.org/1999/02/22-rdf-syntax-ns#"
   xmlns:svg="http://www.w3.org/2000/svg"
   xmlns="http://www.w3.org/2000/svg"
   xmlns:sodipodi="http://sodipodi.sourceforge.net/DTD/sodipodi-0.dtd"
   xmlns:inkscape="http://www.inkscape.org/namespaces/inkscape"
   width="210mm"
   height="297mm"
   viewBox="0 0 744.09448819 1052.3622047"
   id="svg6681"
   version="1.1"
   inkscape:version="0.91 r13725"
   sodipodi:docname="elemental_thick.svg">
  <defs
     id="defs6683" />
  <sodipodi:namedview
     id="base"
     pagecolor="#ffffff"
     bordercolor="#666666"
     borderopacity="1.0"
     inkscape:pageopacity="0.0"
     inkscape:pageshadow="2"
     inkscape:zoom="0.7"
     inkscape:cx="364.42115"
     inkscape:cy="503.76242"
     inkscape:document-units="px"
     inkscape:current-layer="layer1"
     showgrid="false"
     inkscape:window-width="1879"
     inkscape:window-height="1056"
     inkscape:window-x="41"
     inkscape:window-y="24"
     inkscape:window-maximized="1" />
  <metadata
     id="metadata6686">
    <rdf:RDF>
      <cc:Work
         rdf:about="">
        <dc:format>image/svg+xml</dc:format>
        <dc:type
           rdf:resource="http://purl.org/dc/dcmitype/StillImage" />
        <dc:title />
      </cc:Work>
    </rdf:RDF>
  </metadata>
  <g
     inkscape:label="Layer 1"
     inkscape:groupmode="layer"
     id="layer1">
    <path
       transform="matrix(0.5,0.8660254,-0.8660254,0.5,781.42979,-413.0969)"
       sodipodi:type="star"
       style="opacity:1;fill:none;fill-opacity:1;stroke:#000000;stroke-width:10;stroke-linecap:round;stroke-linejoin:round;stroke-miterlimit:4;stroke-dasharray:none;stroke-opacity:1"
       id="path6321"
       sodipodi:sides="3"
       sodipodi:cx="706.24799"
       sodipodi:cy="655.30011"
       sodipodi:r1="68.362778"
       sodipodi:r2="34.181389"
       sodipodi:arg1="0.52359878"
       sodipodi:arg2="1.5707963"
       inkscape:flatsided="true"
       inkscape:rounded="0"
       inkscape:randomized="0"
       d="m 765.45189,689.4815 -118.40781,0 59.20391,-102.54417 z"
       inkscape:transform-center-y="17.090673" />
    <path
       d="m 236.25114,560.36321 -118.4078,0 59.2039,-102.54416 z"
       inkscape:randomized="0"
       inkscape:rounded="0"
       inkscape:flatsided="true"
       sodipodi:arg2="1.5707963"
       sodipodi:arg1="0.52359878"
       sodipodi:r2="34.181389"
       sodipodi:r1="68.362778"
       sodipodi:cy="526.18185"
       sodipodi:cx="177.04724"
       sodipodi:sides="3"
       id="path6323"
       style="opacity:1;fill:none;fill-opacity:1;stroke:#000000;stroke-width:10;stroke-linecap:round;stroke-linejoin:round;stroke-miterlimit:4;stroke-dasharray:none;stroke-opacity:1"
       sodipodi:type="star"
       inkscape:transform-center-y="-17.090695" />
    <path
       inkscape:connector-curvature="0"
       id="path6325"
       d="m 312.84414,687.00105 19.7344,34.18163 39.4688,68.36134 39.4687,-68.36135 19.7344,-34.18164 -118.4063,2e-5 z"
       style="opacity:1;fill:none;fill-opacity:1;stroke:#000000;stroke-width:10;stroke-linecap:round;stroke-linejoin:round;stroke-miterlimit:4;stroke-dasharray:none;stroke-opacity:1" />
    <path
       inkscape:connector-curvature="0"
       id="path6327"
       d="m 310.34374,721.18187 123.407,0 z"
       style="opacity:1;fill:none;fill-rule:evenodd;stroke:#000000;stroke-width:10;stroke-linecap:butt;stroke-linejoin:round;stroke-miterlimit:4;stroke-dasharray:none;stroke-opacity:1" />
    <path
       sodipodi:type="star"
       style="opacity:1;fill:none;fill-opacity:1;stroke:#000000;stroke-width:10;stroke-linecap:round;stroke-linejoin:round;stroke-miterlimit:4;stroke-dasharray:none;stroke-opacity:1"
       id="path6329"
       sodipodi:sides="3"
       sodipodi:cx="372.04724"
       sodipodi:cy="331.18187"
       sodipodi:r1="68.362778"
       sodipodi:r2="34.181389"
       sodipodi:arg1="0.52359878"
       sodipodi:arg2="1.5707963"
       inkscape:flatsided="true"
       inkscape:rounded="0"
       inkscape:randomized="0"
       d="m 431.25114,365.36327 -118.4078,0 59.2039,-102.54416 z"
       inkscape:transform-center-y="-17.090695" />
    <path
       style="opacity:1;fill:none;fill-rule:evenodd;stroke:#000000;stroke-width:10;stroke-linecap:butt;stroke-linejoin:round;stroke-miterlimit:4;stroke-dasharray:none;stroke-opacity:1"
       d="m 310.34374,331.18189 123.407,0 z"
       id="path6331"
       inkscape:connector-curvature="0" />
    <path
       inkscape:connector-curvature="0"
       style="opacity:1;fill:none;fill-opacity:1;stroke:#000000;stroke-width:10.00000095;stroke-linecap:round;stroke-linejoin:round;stroke-miterlimit:4;stroke-dasharray:none;stroke-opacity:1"
       d="m 475.22497,361.07758 a 107.49999,107.49999 0 0 1 -103.17773,77.60352 107.49999,107.49999 0 0 1 -103.19922,-77.59375 195,195 0 0 0 -62.10937,61.86719 107.49999,107.49999 0 0 1 77.80859,103.22656 107.49999,107.49999 0 0 1 -77.59375,103.20117 195,195 0 0 0 61.86523,62.10742 107.49999,107.49999 0 0 1 103.22852,-77.80859 107.49999,107.49999 0 0 1 103.17383,77.51563 195,195 0 0 0 62.0039,-61.82032 107.49999,107.49999 0 0 1 -77.67773,-103.19531 107.49999,107.49999 0 0 1 77.78711,-103.26367 195,195 0 0 0 -62.10938,-61.83985 z"
       id="path6371" />
    <circle
       r="95"
       cy="526.18182"
       cx="567.04724"
       id="circle6373"
       style="opacity:1;fill:none;fill-opacity:1;stroke:#000000;stroke-width:10.00000095;stroke-linecap:round;stroke-linejoin:round;stroke-miterlimit:4;stroke-dasharray:none;stroke-opacity:1" />
    <circle
       style="opacity:1;fill:none;fill-opacity:1;stroke:#000000;stroke-width:10.00000095;stroke-linecap:round;stroke-linejoin:round;stroke-miterlimit:4;stroke-dasharray:none;stroke-opacity:1"
       id="circle6375"
       cx="177.04724"
       cy="526.18182"
       r="95" />
    <circle
       r="95"
       cy="331.18185"
       cx="372.04724"
       id="circle6390"
       style="opacity:1;fill:none;fill-opacity:1;stroke:#000000;stroke-width:10.00000095;stroke-linecap:round;stroke-linejoin:round;stroke-miterlimit:4;stroke-dasharray:none;stroke-opacity:1" />
    <circle
       style="opacity:1;fill:none;fill-opacity:1;stroke:#000000;stroke-width:10.00000095;stroke-linecap:round;stroke-linejoin:round;stroke-miterlimit:4;stroke-dasharray:none;stroke-opacity:1"
       id="circle6392"
       cx="372.04724"
       cy="721.18188"
       r="95" />
    <path
       inkscape:connector-curvature="0"
       style="opacity:1;fill:none;fill-opacity:1;stroke:#000000;stroke-width:10.00000191;stroke-linecap:round;stroke-linejoin:round;stroke-miterlimit:4;stroke-dasharray:none;stroke-opacity:1"
       d="m 372.04724,223.6811 a 107.49999,107.49999 0 0 0 -107.5,107.5 107.49999,107.49999 0 0 0 1.42383,17.10742 207.50001,207.50001 0 0 0 -72.01953,71.86328 107.49999,107.49999 0 0 0 -16.9043,-1.4707 107.49999,107.49999 0 0 0 -107.499996,107.5 107.49999,107.49999 0 0 0 107.499996,107.5 107.49999,107.49999 0 0 0 17.10938,-1.42187 207.50001,207.50001 0 0 0 71.86132,72.01757 107.49999,107.49999 0 0 0 -1.4707,16.9043 107.49999,107.49999 0 0 0 107.5,107.5 107.49999,107.49999 0 0 0 107.5,-107.5 107.49999,107.49999 0 0 0 -1.42383,-17.11328 207.50001,207.50001 0 0 0 72.00781,-71.85742 107.49999,107.49999 0 0 0 16.91602,1.4707 107.49999,107.49999 0 0 0 107.5,-107.5 107.49999,107.49999 0 0 0 -107.5,-107.5 107.49999,107.49999 0 0 0 -16.94336,1.4043 207.50001,207.50001 0 0 0 -72.01758,-72.0586 107.49999,107.49999 0 0 0 1.46094,-16.8457 107.49999,107.49999 0 0 0 -107.5,-107.5 z"
       id="path6402" />
    <path
       inkscape:connector-curvature="0"
       style="opacity:1;fill:none;fill-opacity:1;stroke:#000000;stroke-width:10;stroke-linecap:round;stroke-linejoin:round;stroke-miterlimit:4;stroke-dasharray:none;stroke-opacity:1"
       d="m 475.22497,361.07758 a 107.49999,107.49999 0 0 1 -103.17773,77.60352 107.49999,107.49999 0 0 1 -103.19922,-77.59375 195,195 0 0 0 -62.10937,61.86719 107.49999,107.49999 0 0 1 77.80859,103.22656 107.49999,107.49999 0 0 1 -77.66016,103.22461 195,195 0 0 0 62.00391,61.79687 107.49999,107.49999 0 0 1 103.15625,-77.52148 107.49999,107.49999 0 0 1 103.17383,77.51563 195,195 0 0 0 62.0039,-61.82032 107.49999,107.49999 0 0 1 -77.67773,-103.19531 107.49999,107.49999 0 0 1 77.78711,-103.26367 195,195 0 0 0 -62.10938,-61.83985 z"
       id="path6422" />
    <path
       inkscape:connector-curvature="0"
       style="opacity:1;fill:none;fill-opacity:1;stroke:#000000;stroke-width:10;stroke-linecap:round;stroke-linejoin:round;stroke-miterlimit:4;stroke-dasharray:none;stroke-opacity:1"
       d="m 273.18591,373.10883 a 182.5,182.5 0 0 0 -54.33789,54.03516 107.49999,107.49999 0 0 1 65.69922,99.03711 107.49999,107.49999 0 0 1 -65.7207,98.92969 182.5,182.5 0 0 0 54.22851,54.16406 107.49999,107.49999 0 0 1 98.99219,-65.59375 107.49999,107.49999 0 0 1 98.88867,65.63281 182.5,182.5 0 0 0 54.25781,-54.11328 107.49999,107.49999 0 0 1 -65.64648,-99.01953 107.49999,107.49999 0 0 1 65.74609,-98.93945 182.5,182.5 0 0 0 -54.28906,-54.08008 107.49999,107.49999 0 0 1 -98.95703,65.51953 107.49999,107.49999 0 0 1 -98.86133,-65.57227 z"
       id="circle6424" />
    <path
       inkscape:connector-curvature="0"
       style="opacity:1;fill:none;fill-opacity:1;stroke:#000000;stroke-width:10;stroke-linecap:round;stroke-linejoin:round;stroke-miterlimit:4;stroke-dasharray:none;stroke-opacity:1"
       d="m 465.39294,384.34126 a 107.49999,107.49999 0 0 1 -93.3457,54.33984 107.49999,107.49999 0 0 1 -93.26758,-54.31445 170,170 0 0 0 -48.6289,48.43359 107.49999,107.49999 0 0 1 54.39648,93.38086 107.49999,107.49999 0 0 1 -54.48828,93.36719 170,170 0 0 0 48.56445,48.60156 107.49999,107.49999 0 0 1 93.42383,-54.46875 107.49999,107.49999 0 0 1 93.33398,54.43164 170,170 0 0 0 48.60743,-48.52148 107.49999,107.49999 0 0 1 -54.44141,-93.41016 107.49999,107.49999 0 0 1 54.41211,-93.32227 170,170 0 0 0 -48.56641,-48.51757 z"
       id="circle6426" />
    <path
       inkscape:connector-curvature="0"
       style="opacity:1;fill:none;fill-opacity:1;stroke:#000000;stroke-width:10;stroke-linecap:round;stroke-linejoin:round;stroke-miterlimit:4;stroke-dasharray:none;stroke-opacity:1"
       d="m 458.55505,394.79438 a 107.49999,107.49999 0 0 1 -86.50781,43.88672 107.49999,107.49999 0 0 1 -86.46875,-43.83984 157.5,157.5 0 0 0 -44.9668,44.79492 107.49999,107.49999 0 0 1 43.93555,86.54492 107.49999,107.49999 0 0 1 -44.00195,86.58594 157.5,157.5 0 0 0 44.89843,44.92773 107.49999,107.49999 0 0 1 86.60352,-44.01367 107.49999,107.49999 0 0 1 86.55078,43.95313 157.5,157.5 0 0 0 44.93164,-44.8711 107.49999,107.49999 0 0 1 -43.98242,-86.58203 107.49999,107.49999 0 0 1 43.92383,-86.5293 157.5,157.5 0 0 0 -44.91602,-44.85742 z"
       id="circle6428" />
    <path
       inkscape:connector-curvature="0"
       style="opacity:1;fill:none;fill-opacity:1;stroke:#000000;stroke-width:10;stroke-linecap:round;stroke-linejoin:round;stroke-miterlimit:4;stroke-dasharray:none;stroke-opacity:1"
       d="m 450.47497,404.50727 a 107.49999,107.49999 0 0 1 -78.42773,34.17383 107.49999,107.49999 0 0 1 -78.47461,-34.15039 145,145 0 0 0 -43.33203,43.10156 107.49999,107.49999 0 0 1 34.30664,78.54883 107.49999,107.49999 0 0 1 -34.26758,78.57813 145,145 0 0 0 43.26953,43.17187 107.49999,107.49999 0 0 1 78.49805,-34.25 107.49999,107.49999 0 0 1 78.52539,34.20898 145,145 0 0 0 43.25391,-43.18554 107.49999,107.49999 0 0 1 -34.2793,-78.52344 107.49999,107.49999 0 0 1 34.26367,-78.57422 145,145 0 0 0 -43.33594,-43.09961 z"
       id="circle6430" />
    <path
       inkscape:connector-curvature="0"
       style="opacity:1;fill:none;fill-opacity:1;stroke:#000000;stroke-width:10;stroke-linecap:round;stroke-linejoin:round;stroke-miterlimit:4;stroke-dasharray:none;stroke-opacity:1"
       d="m 441.09021,413.43696 a 107.49999,107.49999 0 0 1 -69.04297,25.24414 107.49999,107.49999 0 0 1 -69.11914,-25.17773 132.5,132.5 0 0 0 -43.72461,43.52148 107.49999,107.49999 0 0 1 25.34375,69.15625 107.49999,107.49999 0 0 1 -25.31641,69.29297 132.5,132.5 0 0 0 43.65821,43.55273 107.49999,107.49999 0 0 1 69.1582,-25.3457 107.49999,107.49999 0 0 1 69.22656,25.25977 132.5,132.5 0 0 0 43.63672,-43.57813 107.49999,107.49999 0 0 1 -25.36328,-69.18164 107.49999,107.49999 0 0 1 25.27148,-69.24219 132.5,132.5 0 0 0 -43.72851,-43.50195 z"
       id="circle6432" />
    <path
       inkscape:connector-curvature="0"
       style="opacity:1;fill:none;fill-opacity:1;stroke:#000000;stroke-width:10;stroke-linecap:round;stroke-linejoin:round;stroke-miterlimit:4;stroke-dasharray:none;stroke-opacity:1"
       d="m 313.87146,421.45063 a 120,120 0 0 0 -46.51172,46.44336 107.49999,107.49999 0 0 1 17.1875,58.28711 107.49999,107.49999 0 0 1 -17.35938,58.38672 120,120 0 0 0 46.48047,46.36719 107.49999,107.49999 0 0 1 58.37891,-17.25391 107.49999,107.49999 0 0 1 58.38086,17.35547 120,120 0 0 0 46.41992,-46.41016 107.49999,107.49999 0 0 1 -17.30078,-58.44531 107.49999,107.49999 0 0 1 17.22852,-58.17187 120,120 0 0 0 -46.56836,-46.42383 107.49999,107.49999 0 0 1 -58.16016,17.0957 107.49999,107.49999 0 0 1 -58.17578,-17.23047 z"
       id="circle6434" />
    <path
       inkscape:connector-curvature="0"
       style="opacity:1;fill:none;fill-opacity:1;stroke:#000000;stroke-width:10;stroke-linecap:round;stroke-linejoin:round;stroke-miterlimit:4;stroke-dasharray:none;stroke-opacity:1"
       d="m 416.95154,428.71235 a 107.49999,107.49999 0 0 1 -44.9043,9.96875 107.49999,107.49999 0 0 1 -44.83008,-9.91992 107.5,107.5 0 0 0 -52.65234,52.48437 107.49999,107.49999 0 0 1 9.98242,44.93555 107.49999,107.49999 0 0 1 -10.03125,45.06055 107.5,107.5 0 0 0 52.37891,52.51953 107.49999,107.49999 0 0 1 45.15234,-10.08008 107.49999,107.49999 0 0 1 45.03516,10.01758 107.5,107.5 0 0 0 52.48828,-52.49024 107.49999,107.49999 0 0 1 -10.02344,-45.02734 107.49999,107.49999 0 0 1 9.9668,-44.92383 107.5,107.5 0 0 0 -52.5625,-52.54492 z"
       id="circle6440" />
    <path
       inkscape:connector-curvature="0"
       style="opacity:1;fill:none;fill-opacity:1;stroke:#000000;stroke-width:10;stroke-linecap:round;stroke-linejoin:round;stroke-miterlimit:4;stroke-dasharray:none;stroke-opacity:1"
       d="m 345.38513,435.18501 a 95,95 0 0 0 -64.34766,64.06054 107.49999,107.49999 0 0 1 3.50977,26.93555 107.49999,107.49999 0 0 1 -3.57617,26.97266 95,95 0 0 0 63.85937,64.09961 107.49999,107.49999 0 0 1 27.2168,-3.57227 107.49999,107.49999 0 0 1 27.0625,3.59961 95,95 0 0 0 63.97266,-64.05078 107.49999,107.49999 0 0 1 -3.53516,-27.04883 107.49999,107.49999 0 0 1 3.5332,-26.80078 95,95 0 0 0 -64.19336,-64.1875 107.49999,107.49999 0 0 1 -26.83984,3.48828 107.49999,107.49999 0 0 1 -26.66211,-3.49609 z"
       id="circle6442" />
    <circle
       r="82.5"
       cy="526.28357"
       cx="372.0365"
       id="circle6444"
       style="opacity:1;fill:none;fill-opacity:1;stroke:#000000;stroke-width:10;stroke-linecap:round;stroke-linejoin:round;stroke-miterlimit:4;stroke-dasharray:none;stroke-opacity:1" />
    <circle
       style="opacity:1;fill:none;fill-opacity:1;stroke:#000000;stroke-width:10;stroke-linecap:round;stroke-linejoin:round;stroke-miterlimit:4;stroke-dasharray:none;stroke-opacity:1"
       id="circle6446"
       cx="372.0365"
       cy="526.28357"
       r="70" />
    <circle
       r="57.5"
       cy="526.28357"
       cx="372.0365"
       id="circle6448"
       style="opacity:1;fill:none;fill-opacity:1;stroke:#000000;stroke-width:10;stroke-linecap:round;stroke-linejoin:round;stroke-miterlimit:4;stroke-dasharray:none;stroke-opacity:1" />
    <circle
       style="opacity:1;fill:none;fill-opacity:1;stroke:#000000;stroke-width:10;stroke-linecap:round;stroke-linejoin:round;stroke-miterlimit:4;stroke-dasharray:none;stroke-opacity:1"
       id="circle6450"
       cx="372.0365"
       cy="526.28357"
       r="45" />
    <circle
       r="32.5"
       cy="526.28357"
       cx="372.0365"
       id="circle6452"
       style="opacity:1;fill:none;fill-opacity:1;stroke:#000000;stroke-width:10;stroke-linecap:round;stroke-linejoin:round;stroke-miterlimit:4;stroke-dasharray:none;stroke-opacity:1" />
    <circle
       style="opacity:1;fill:none;fill-opacity:1;stroke:#000000;stroke-width:10;stroke-linecap:round;stroke-linejoin:round;stroke-miterlimit:4;stroke-dasharray:none;stroke-opacity:1"
       id="circle6454"
       cx="372.0365"
       cy="526.28357"
       r="20" />
  </g>
</svg>
