<?xml version="1.0" encoding="UTF-8" standalone="no"?>
<!-- Created with Inkscape (http://www.inkscape.org/) -->

<svg
   xmlns:dc="http://purl.org/dc/elements/1.1/"
   xmlns:cc="http://creativecommons.org/ns#"
   xmlns:rdf="http://www.w3.org/1999/02/22-rdf-syntax-ns#"
   xmlns:svg="http://www.w3.org/2000/svg"
   xmlns="http://www.w3.org/2000/svg"
   xmlns:sodipodi="http://sodipodi.sourceforge.net/DTD/sodipodi-0.dtd"
   xmlns:inkscape="http://www.inkscape.org/namespaces/inkscape"
   width="1500"
   height="1500"
   viewBox="0 0 1500 1500"
   id="svg5209"
   version="1.1"
   inkscape:version="0.91 r13725"
   sodipodi:docname="elemental_symbol_complex_black.svg">
  <defs
     id="defs5211" />
  <sodipodi:namedview
     id="base"
     pagecolor="#ffffff"
     bordercolor="#666666"
     borderopacity="1.0"
     inkscape:pageopacity="0.0"
     inkscape:pageshadow="2"
     inkscape:zoom="0.35"
     inkscape:cx="-50.714286"
     inkscape:cy="520"
     inkscape:document-units="px"
     inkscape:current-layer="layer1"
     showgrid="false"
     units="px"
     inkscape:window-width="1879"
     inkscape:window-height="1056"
     inkscape:window-x="41"
     inkscape:window-y="24"
     inkscape:window-maximized="1" />
  <metadata
     id="metadata5214">
    <rdf:RDF>
      <cc:Work
         rdf:about="">
        <dc:format>image/svg+xml</dc:format>
        <dc:type
           rdf:resource="http://purl.org/dc/dcmitype/StillImage" />
        <dc:title></dc:title>
      </cc:Work>
    </rdf:RDF>
  </metadata>
  <g
     inkscape:label="Layer 1"
     inkscape:groupmode="layer"
     id="layer1"
     transform="translate(0,447.63784)">
    <g
       id="g5114"
       transform="matrix(0.9408602,0,0,0.9408602,1289.1345,-301.04886)"
       style="stroke:#000000">
      <path
         id="rect4175"
         d="m -761.73227,339.66188 -112.967,112.96697 a 267.04285,267.04285 0 0 1 78.3317,188.71112 267.04285,267.04285 0 0 1 -78.3348,188.70799 l 112.9701,112.9701 a 267.04285,267.04285 0 0 1 188.7111,-78.33175 267.04285,267.04285 0 0 1 188.708,78.33175 l 112.9701,-112.9701 a 267.04285,267.04285 0 0 1 -78.3349,-188.70799 267.04285,267.04285 0 0 1 78.3318,-188.71112 l -112.967,-112.96697 a 267.04285,267.04285 0 0 1 -188.708,78.33174 267.04285,267.04285 0 0 1 -188.7111,-78.33174 z"
         style="opacity:1;fill:none;fill-opacity:1;stroke:#000000;stroke-width:23.91428566;stroke-linecap:round;stroke-linejoin:round;stroke-miterlimit:4;stroke-dasharray:none;stroke-opacity:1"
         inkscape:connector-curvature="0" />
      <circle
         r="227.18571"
         cy="150.95105"
         cx="-573.02246"
         id="path4178"
         style="opacity:1;fill:none;fill-opacity:1;stroke:#000000;stroke-width:23.91428566;stroke-linecap:round;stroke-linejoin:round;stroke-miterlimit:4;stroke-dasharray:none;stroke-opacity:1" />
      <circle
         style="opacity:1;fill:none;fill-opacity:1;stroke:#000000;stroke-width:23.91428566;stroke-linecap:round;stroke-linejoin:round;stroke-miterlimit:4;stroke-dasharray:none;stroke-opacity:1"
         id="circle4182"
         cx="-82.633522"
         cy="641.33972"
         r="227.18571" />
      <circle
         r="227.18571"
         cy="1131.7284"
         cx="-573.02246"
         id="circle4186"
         style="opacity:1;fill:none;fill-opacity:1;stroke:#000000;stroke-width:23.91428566;stroke-linecap:round;stroke-linejoin:round;stroke-miterlimit:4;stroke-dasharray:none;stroke-opacity:1" />
      <circle
         style="opacity:1;fill:none;fill-opacity:1;stroke:#000000;stroke-width:23.91428566;stroke-linecap:round;stroke-linejoin:round;stroke-miterlimit:4;stroke-dasharray:none;stroke-opacity:1"
         id="circle4190"
         cx="-1063.4109"
         cy="641.33972"
         r="227.18571" />
      <path
         id="path4194"
         d="m -573.02117,-116.09209 a 267.04285,267.04285 0 0 0 -267.0429,267.04285 267.04285,267.04285 0 0 0 53.038,159.24797 l -117.1582,117.15821 a 267.04285,267.04285 0 0 0 -159.22613,-53.05982 267.04285,267.04285 0 0 0 -267.0429,267.04285 267.04285,267.04285 0 0 0 267.0429,267.04285 267.04285,267.04285 0 0 0 159.24793,-53.03802 l 117.1582,117.15823 a 267.04285,267.04285 0 0 0 -53.0598,159.22607 267.04285,267.04285 0 0 0 267.0429,267.043 267.04285,267.04285 0 0 0 267.0428,-267.043 267.04285,267.04285 0 0 0 -53.038,-159.25097 L -241.86127,855.323 A 267.04285,267.04285 0 0 0 -82.635168,908.38282 267.04285,267.04285 0 0 0 184.40759,641.33997 267.04285,267.04285 0 0 0 -82.635168,374.29712 267.04285,267.04285 0 0 0 -241.88307,427.33513 l -117.1582,-117.15819 a 267.04285,267.04285 0 0 0 53.0629,-159.22618 267.04285,267.04285 0 0 0 -267.0428,-267.04285 z"
         style="opacity:1;fill:none;fill-opacity:1;stroke:#000000;stroke-width:23.91428566;stroke-linecap:round;stroke-linejoin:round;stroke-miterlimit:4;stroke-dasharray:none;stroke-opacity:1"
         inkscape:connector-curvature="0" />
      <path
         id="rect4212"
         d="m -761.73227,339.66188 -112.967,112.96697 a 267.04285,267.04285 0 0 1 78.3317,188.71112 267.04285,267.04285 0 0 1 -78.3348,188.70799 l 112.9701,112.9701 a 267.04285,267.04285 0 0 1 188.7111,-78.33175 267.04285,267.04285 0 0 1 188.7111,78.33175 l 112.967,-112.96699 a 267.04285,267.04285 0 0 1 -78.3349,-188.7111 267.04285,267.04285 0 0 1 78.3349,-188.71112 l -112.967,-112.96697 a 267.04285,267.04285 0 0 1 -188.7111,78.33174 267.04285,267.04285 0 0 1 -188.7111,-78.33174 z"
         style="opacity:1;fill:none;fill-opacity:1;stroke:#000000;stroke-width:23.91428375;stroke-linecap:round;stroke-linejoin:round;stroke-miterlimit:4;stroke-dasharray:none;stroke-opacity:1"
         inkscape:connector-curvature="0" />
      <path
         id="rect4214"
         d="m -736.18637,361.9414 -116.1088,116.10883 a 267.04285,267.04285 0 0 1 55.9276,163.28974 267.04285,267.04285 0 0 1 -56.0522,163.16205 l 116.1088,116.10885 a 267.04285,267.04285 0 0 1 163.2898,-55.92456 267.04285,267.04285 0 0 1 163.1589,56.05223 l 116.1089,-116.10885 a 267.04285,267.04285 0 0 1 -55.9246,-163.28972 267.04285,267.04285 0 0 1 56.0522,-163.16207 l -116.1088,-116.10884 a 267.04285,267.04285 0 0 1 -163.2866,55.92456 267.04285,267.04285 0 0 1 -163.1652,-56.05222 z"
         style="opacity:1;fill:none;fill-opacity:1;stroke:#000000;stroke-width:23.91428375;stroke-linecap:round;stroke-linejoin:round;stroke-miterlimit:4;stroke-dasharray:none;stroke-opacity:1"
         inkscape:connector-curvature="0" />
      <path
         id="rect4216"
         d="m -438.41927,381.21295 a 267.04285,267.04285 0 0 1 -134.6019,36.78067 267.04285,267.04285 0 0 1 -134.6424,-36.74642 l -125.4878,125.48772 a 267.04285,267.04285 0 0 1 36.7838,134.60505 267.04285,267.04285 0 0 1 -36.7464,134.63929 l 125.4877,125.48773 a 267.04285,267.04285 0 0 1 134.6051,-36.78068 267.04285,267.04285 0 0 1 134.6393,36.74331 L -312.89727,775.945 a 267.04285,267.04285 0 0 1 -36.7807,-134.60503 267.04285,267.04285 0 0 1 36.7464,-134.63931 l -125.4877,-125.48771 z"
         style="opacity:1;fill:none;fill-opacity:1;stroke:#000000;stroke-width:23.91428375;stroke-linecap:round;stroke-linejoin:round;stroke-miterlimit:4;stroke-dasharray:none;stroke-opacity:1"
         inkscape:connector-curvature="0" />
      <path
         id="rect4218"
         d="m -470.28627,397.17449 a 267.04285,267.04285 0 0 1 -102.7349,20.81913 267.04285,267.04285 0 0 1 -102.8844,-20.6759 l -141.2842,141.28734 a 267.04285,267.04285 0 0 1 20.8222,102.73491 267.04285,267.04285 0 0 1 -20.6759,102.88125 l 141.2843,141.28734 a 267.04285,267.04285 0 0 1 102.738,-20.82225 267.04285,267.04285 0 0 1 102.8812,20.67278 l 141.2811,-141.28112 a 267.04285,267.04285 0 0 1 -20.8191,-102.738 267.04285,267.04285 0 0 1 20.6759,-102.88125 l -141.2842,-141.28423 z"
         style="opacity:1;fill:none;fill-opacity:1;stroke:#000000;stroke-width:23.91428185;stroke-linecap:round;stroke-linejoin:round;stroke-miterlimit:4;stroke-dasharray:none;stroke-opacity:1"
         inkscape:connector-curvature="0" />
      <path
         id="rect4220"
         d="m -639.90027,409.14098 -165.2047,165.20785 a 267.04285,267.04285 0 0 1 8.7374,66.99114 267.04285,267.04285 0 0 1 -8.8526,66.87592 l 165.2016,165.20474 a 267.04285,267.04285 0 0 1 66.9974,-8.73432 267.04285,267.04285 0 0 1 66.8759,8.84953 l 165.2016,-165.20163 a 267.04285,267.04285 0 0 1 -8.7343,-66.99424 267.04285,267.04285 0 0 1 8.8527,-66.87593 l -165.2048,-165.20475 a 267.04285,267.04285 0 0 1 -66.9911,8.73433 267.04285,267.04285 0 0 1 -66.8791,-8.85264 z"
         style="opacity:1;fill:none;fill-opacity:1;stroke:#000000;stroke-width:23.91428185;stroke-linecap:round;stroke-linejoin:round;stroke-miterlimit:4;stroke-dasharray:none;stroke-opacity:1"
         inkscape:connector-curvature="0" />
      <path
         id="rect4222"
         d="m -546.69677,416.42112 a 267.04285,267.04285 0 0 1 -26.3244,1.5725 267.04285,267.04285 0 0 1 -26.5735,-1.32962 l -198.3454,198.34845 a 267.04285,267.04285 0 0 1 1.5725,26.32752 267.04285,267.04285 0 0 1 -1.3327,26.57038 l 198.3484,198.34845 a 267.04285,267.04285 0 0 1 26.3307,-1.57249 267.04285,267.04285 0 0 1 26.5673,1.32962 l 198.3484,-198.34845 a 267.04285,267.04285 0 0 1 -1.5725,-26.32751 267.04285,267.04285 0 0 1 1.3296,-26.5704 l -198.3484,-198.34845 z"
         style="opacity:1;fill:none;fill-opacity:1;stroke:#000000;stroke-width:23.91427994;stroke-linecap:round;stroke-linejoin:round;stroke-miterlimit:4;stroke-dasharray:none;stroke-opacity:1"
         inkscape:connector-curvature="0" />
      <rect
         transform="matrix(0.70710678,-0.70710678,0.70710678,0.70710678,0,0)"
         y="-95.530128"
         x="-1002.5217"
         height="287.67508"
         width="287.67508"
         id="rect4224"
         style="opacity:1;fill:none;fill-opacity:1;stroke:#000000;stroke-width:23.91427803;stroke-linecap:round;stroke-linejoin:round;stroke-miterlimit:4;stroke-dasharray:none;stroke-opacity:1" />
      <rect
         style="opacity:1;fill:none;fill-opacity:1;stroke:#000000;stroke-width:23.91427803;stroke-linecap:round;stroke-linejoin:round;stroke-miterlimit:4;stroke-dasharray:none;stroke-opacity:1"
         id="rect4226"
         width="220.03526"
         height="220.03526"
         x="-968.70184"
         y="-61.7103"
         transform="matrix(0.70710678,-0.70710678,0.70710678,0.70710678,0,0)" />
      <rect
         transform="matrix(0.70710678,-0.70710678,0.70710678,0.70710678,0,0)"
         y="-27.890476"
         x="-934.88202"
         height="152.39545"
         width="152.39545"
         id="rect4228"
         style="opacity:1;fill:none;fill-opacity:1;stroke:#000000;stroke-width:23.91427803;stroke-linecap:round;stroke-linejoin:round;stroke-miterlimit:4;stroke-dasharray:none;stroke-opacity:1" />
      <rect
         style="opacity:1;fill:none;fill-opacity:1;stroke:#000000;stroke-width:23.91427803;stroke-linecap:round;stroke-linejoin:round;stroke-miterlimit:4;stroke-dasharray:none;stroke-opacity:1"
         id="rect4230"
         width="84.755646"
         height="84.755646"
         x="-901.06195"
         y="5.9295912"
         transform="matrix(0.70710678,-0.70710678,0.70710678,0.70710678,0,0)" />
      <path
         id="path5113"
         d="m -804.49267,283.22528 a 426.47142,426.47142 0 0 0 -126.3565,126.84225 267.04285,267.04285 0 0 1 26.6638,17.28803 l 117.1582,-117.1582 a 267.04285,267.04285 0 0 1 -17.4655,-26.97208 z m 462.7414,0.28648 a 267.04285,267.04285 0 0 1 -17.2911,26.66381 l 117.1582,117.1582 a 267.04285,267.04285 0 0 1 26.9752,-17.46553 426.47142,426.47142 0 0 0 -126.8423,-126.35648 z m 99.8889,571.80987 -117.1551,117.1551 a 267.04285,267.04285 0 0 1 17.4655,26.9783 426.47142,426.47142 0 0 0 126.3534,-126.84225 267.04285,267.04285 0 0 1 -26.6638,-17.29115 z m -662.3012,0.0218 a 267.04285,267.04285 0 0 1 -26.972,17.46864 426.47142,426.47142 0 0 0 126.8422,126.35336 267.04285,267.04285 0 0 1 17.288,-26.6638 l -117.1582,-117.1582 z"
         style="opacity:1;fill:none;fill-opacity:1;stroke:#000000;stroke-width:23.91428566;stroke-linecap:round;stroke-linejoin:round;stroke-miterlimit:4;stroke-dasharray:none;stroke-opacity:1"
         inkscape:connector-curvature="0" />
      <path
         id="circle5115"
         d="m -821.68107,247.04558 a 466.32857,466.32857 0 0 0 -145.2917,145.78684 267.04285,267.04285 0 0 1 62.7874,34.52314 l 117.1582,-117.1582 a 267.04285,267.04285 0 0 1 -34.6539,-63.15178 z m 497.168,0.34254 a 267.04285,267.04285 0 0 1 -34.5293,62.78745 l 117.1582,117.1582 a 267.04285,267.04285 0 0 1 63.1549,-34.65081 466.32857,466.32857 0 0 0 -145.7838,-145.29484 z m 82.6507,607.93351 -117.1551,117.1551 a 267.04285,267.04285 0 0 1 34.657,63.15487 466.32857,466.32857 0 0 0 145.2886,-145.78372 267.04285,267.04285 0 0 1 -62.7905,-34.52625 z m -662.3012,0.0218 a 267.04285,267.04285 0 0 1 -63.1549,34.65703 466.32857,466.32857 0 0 0 145.7869,145.29174 267.04285,267.04285 0 0 1 34.5262,-62.79057 l -117.1582,-117.1582 z"
         style="opacity:1;fill:none;fill-opacity:1;stroke:#000000;stroke-width:23.91428566;stroke-linecap:round;stroke-linejoin:round;stroke-miterlimit:4;stroke-dasharray:none;stroke-opacity:1"
         inkscape:connector-curvature="0" />
      <path
         id="circle5117"
         d="m -833.61327,207.99803 a 506.18571,506.18571 0 0 0 -172.69983,172.83677 267.04285,267.04285 0 0 1 102.12773,46.52076 l 117.1582,-117.1582 a 267.04285,267.04285 0 0 1 -46.5861,-102.19933 z m 521.0948,0.0529 a 267.04285,267.04285 0 0 1 -46.5239,102.12459 l 117.1582,117.15821 a 267.04285,267.04285 0 0 1 102.1994,-46.58615 506.18571,506.18571 0 0 0 -172.8337,-172.69663 z m 70.6561,647.27066 -117.1551,117.15504 a 267.04285,267.04285 0 0 1 46.5893,102.20257 506.18571,506.18571 0 0 0 172.6967,-172.83685 267.04285,267.04285 0 0 1 -102.1309,-46.52076 z m -662.3012,0.0218 a 267.04285,267.04285 0 0 1 -102.19933,46.58927 506.18571,506.18571 0 0 0 172.83683,172.69974 267.04285,267.04285 0 0 1 46.5207,-102.13077 l -117.1582,-117.15824 z"
         style="opacity:1;fill:none;fill-opacity:1;stroke:#000000;stroke-width:23.91428566;stroke-linecap:round;stroke-linejoin:round;stroke-miterlimit:4;stroke-dasharray:none;stroke-opacity:1"
         inkscape:connector-curvature="0" />
      <path
         id="circle5119"
         d="m -306.53367,165.02395 a 267.04285,267.04285 0 0 1 -52.5087,145.15162 l 117.1582,117.1582 A 267.04285,267.04285 0 0 1 -97.062668,375.04307 546.04285,546.04285 0 0 0 -306.53367,165.02395 Z m -532.7842,0.35186 A 546.04285,546.04285 0 0 0 -1049.337,374.85 a 267.04285,267.04285 0 0 1 145.15163,52.50556 l 117.1582,-117.1582 a 267.04285,267.04285 0 0 1 -52.2907,-144.82155 z m 597.4555,689.94582 -117.1551,117.1551 a 267.04285,267.04285 0 0 1 52.2907,144.82157 546.04285,546.04285 0 0 0 210.019102,-209.47112 267.04285,267.04285 0 0 1 -145.154702,-52.50555 z m -662.3012,0.0218 a 267.04285,267.04285 0 0 1 -144.82153,52.29071 546.04285,546.04285 0 0 0 209.47423,210.01916 267.04285,267.04285 0 0 1 52.5055,-145.15167 l -117.1582,-117.1582 z"
         style="opacity:1;fill:none;fill-opacity:1;stroke:#000000;stroke-width:23.91428757;stroke-linecap:round;stroke-linejoin:round;stroke-miterlimit:4;stroke-dasharray:none;stroke-opacity:1"
         inkscape:connector-curvature="0" />
      <path
         id="circle5121"
         d="m -837.77647,118.73051 a 585.89999,585.89999 0 0 0 -257.10973,257.62971 267.04285,267.04285 0 0 1 31.4747,-2.06448 267.04285,267.04285 0 0 1 159.22613,53.05982 l 117.1582,-117.1582 a 267.04285,267.04285 0 0 1 -53.038,-159.24797 267.04285,267.04285 0 0 1 2.2887,-32.21888 z m 529.7357,0.74732 a 267.04285,267.04285 0 0 1 2.0613,31.47156 267.04285,267.04285 0 0 1 -53.0629,159.22618 l 117.1582,117.1582 a 267.04285,267.04285 0 0 1 159.248002,-53.03803 267.04285,267.04285 0 0 1 32.2188,2.28868 585.89999,585.89999 0 0 0 -257.623402,-257.10659 z m 66.1784,735.8438 -117.1551,117.1551 a 267.04285,267.04285 0 0 1 53.038,159.25107 267.04285,267.04285 0 0 1 -2.2855,32.219 585.89999,585.89999 0 0 0 257.106502,-257.62671 267.04285,267.04285 0 0 1 -31.4777,2.06136 267.04285,267.04285 0 0 1 -159.226202,-53.05982 z m -662.3012,0.0218 a 267.04285,267.04285 0 0 1 -159.24793,53.03803 267.04285,267.04285 0 0 1 -32.2189,-2.28557 585.89999,585.89999 0 0 0 257.62973,257.10661 267.04285,267.04285 0 0 1 -2.0645,-31.4747 267.04285,267.04285 0 0 1 53.0598,-159.22617 l -117.1582,-117.1582 z"
         style="opacity:1;fill:none;fill-opacity:1;stroke:#000000;stroke-width:23.91428757;stroke-linecap:round;stroke-linejoin:round;stroke-miterlimit:4;stroke-dasharray:none;stroke-opacity:1"
         inkscape:connector-curvature="0" />
      <path
         id="circle5123"
         d="m -318.58427,70.176406 a 267.04285,267.04285 0 0 1 12.6048,80.772984 267.04285,267.04285 0 0 1 -53.0629,159.22618 l 117.1582,117.1582 A 267.04285,267.04285 0 0 1 -82.636168,374.29574 267.04285,267.04285 0 0 1 -2.1217077,387.04692 625.75714,625.75714 0 0 0 -318.58427,70.176406 Z m -508.7297,0.25845 a 625.75714,625.75714 0 0 0 -316.87683,316.468814 267.04285,267.04285 0 0 1 80.7793,-12.60793 267.04285,267.04285 0 0 1 159.22613,53.05982 l 117.1582,-117.1582 a 267.04285,267.04285 0 0 1 -53.038,-159.24797 267.04285,267.04285 0 0 1 12.7512,-80.514534 z m 585.4516,784.886774 -117.1551,117.1551 a 267.04285,267.04285 0 0 1 53.038,159.25107 267.04285,267.04285 0 0 1 -12.748,80.5115 A 625.75714,625.75714 0 0 0 -1.8571077,895.77663 267.04285,267.04285 0 0 1 -82.636168,908.38145 267.04285,267.04285 0 0 1 -241.86237,855.32163 Z m -662.3012,0.0218 a 267.04285,267.04285 0 0 1 -159.24793,53.03803 267.04285,267.04285 0 0 1 -80.5146,-12.74807 625.75714,625.75714 0 0 0 316.46883,316.87371 267.04285,267.04285 0 0 1 -12.6079,-80.7793 267.04285,267.04285 0 0 1 53.0598,-159.22617 l -117.1582,-117.1582 z"
         style="opacity:1;fill:none;fill-opacity:1;stroke:#000000;stroke-width:23.91428757;stroke-linecap:round;stroke-linejoin:round;stroke-miterlimit:4;stroke-dasharray:none;stroke-opacity:1"
         inkscape:connector-curvature="0" />
      <path
         id="circle5125"
         d="m -803.97887,17.561869 a 665.61428,665.61428 0 0 0 -392.26283,392.371761 267.04285,267.04285 0 0 1 132.8302,-35.63789 267.04285,267.04285 0 0 1 159.22613,53.05982 l 117.1582,-117.1582 a 267.04285,267.04285 0 0 1 -53.038,-159.24797 267.04285,267.04285 0 0 1 36.0863,-133.387521 z m 462.3678,0.560487 a 267.04285,267.04285 0 0 1 35.6316,132.827034 267.04285,267.04285 0 0 1 -53.0629,159.22618 l 117.1582,117.1582 A 267.04285,267.04285 0 0 1 -82.636168,374.29574 267.04285,267.04285 0 0 1 50.754292,410.38202 665.61428,665.61428 0 0 0 -341.61107,18.122356 Z m 99.7487,837.199274 -117.1551,117.1551 a 267.04285,267.04285 0 0 1 53.038,159.25107 267.04285,267.04285 0 0 1 -36.0831,133.3906 665.61428,665.61428 0 0 0 392.256562,-392.37172 267.04285,267.04285 0 0 1 -132.83016,35.63477 267.04285,267.04285 0 0 1 -159.226202,-53.05982 z m -662.3012,0.0218 a 267.04285,267.04285 0 0 1 -159.24793,53.03803 267.04285,267.04285 0 0 1 -133.3907,-36.08629 665.61428,665.61428 0 0 0 392.37183,392.26283 267.04285,267.04285 0 0 1 -35.6348,-132.8302 267.04285,267.04285 0 0 1 53.0598,-159.22617 l -117.1582,-117.1582 z"
         style="opacity:1;fill:none;fill-opacity:1;stroke:#000000;stroke-width:23.91428757;stroke-linecap:round;stroke-linejoin:round;stroke-miterlimit:4;stroke-dasharray:none;stroke-opacity:1"
         inkscape:connector-curvature="0" />
      <path
         id="circle5127"
         d="m -760.79307,-38.633593 a 705.47137,705.47137 0 0 0 -491.21433,491.158323 267.04285,267.04285 0 0 1 188.5959,-78.22899 267.04285,267.04285 0 0 1 159.22613,53.05982 l 117.1582,-117.1582 a 267.04285,267.04285 0 0 1 -53.038,-159.24797 267.04285,267.04285 0 0 1 79.2721,-189.582983 z m 376.5909,0.990211 a 267.04285,267.04285 0 0 1 78.2227,188.592772 267.04285,267.04285 0 0 1 -53.0629,159.22618 l 117.1582,117.1582 A 267.04285,267.04285 0 0 1 -82.636168,374.29574 267.04285,267.04285 0 0 1 106.95289,453.57409 705.47137,705.47137 0 0 0 -384.20217,-37.643382 Z M -1252.9976,829.10933 a 705.47137,705.47137 0 0 0 491.15833,491.21117 267.04285,267.04285 0 0 1 -78.2259,-188.5927 267.04285,267.04285 0 0 1 53.0598,-159.22617 l -117.1582,-117.1582 a 267.04285,267.04285 0 0 1 -159.24793,53.03802 267.04285,267.04285 0 0 1 -189.5861,-79.27212 z m 1358.96029,1.04625 A 267.04285,267.04285 0 0 1 -82.636168,908.38145 267.04285,267.04285 0 0 1 -241.86237,855.32163 l -117.1551,117.1551 a 267.04285,267.04285 0 0 1 53.038,159.25107 267.04285,267.04285 0 0 1 -79.269,189.5861 705.47137,705.47137 0 0 0 491.21116,-491.15832 z"
         style="opacity:1;fill:none;fill-opacity:1;stroke:#000000;stroke-width:23.91428566;stroke-linecap:round;stroke-linejoin:round;stroke-miterlimit:4;stroke-dasharray:none;stroke-opacity:1"
         inkscape:connector-curvature="0" />
      <path
         id="circle5129"
         d="m -472.69127,-96.348598 a 267.04285,267.04285 0 0 1 166.7118,247.297988 267.04285,267.04285 0 0 1 -53.0629,159.22618 l 117.1582,117.1582 A 267.04285,267.04285 0 0 1 -82.636168,374.29574 267.04285,267.04285 0 0 1 164.65549,540.98579 745.32852,745.32852 0 0 0 -472.69127,-96.348598 Z m -200.6838,0.01 a 745.32852,745.32852 0 0 0 -637.33443,637.352998 267.04285,267.04285 0 0 1 247.298,-166.71806 267.04285,267.04285 0 0 1 159.22613,53.05982 l 117.1582,-117.15836 a 267.04285,267.04285 0 0 1 -53.038,-159.24797 267.04285,267.04285 0 0 1 166.6901,-247.288648 z M 164.66489,741.66694 A 267.04285,267.04285 0 0 1 -82.636168,908.38189 267.04285,267.04285 0 0 1 -241.86237,855.32207 l -117.1551,117.15506 a 267.04285,267.04285 0 0 1 53.038,159.25107 267.04285,267.04285 0 0 1 -166.6838,247.2918 745.32852,745.32852 0 0 0 637.32816,-637.35306 z m -1475.36819,0.0249 a 745.32852,745.32852 0 0 0 637.35623,637.33766 267.04285,267.04285 0 0 1 -166.7181,-247.3012 267.04285,267.04285 0 0 1 53.0598,-159.22617 L -904.16357,855.3439 a 267.04285,267.04285 0 0 1 -159.24793,53.03802 267.04285,267.04285 0 0 1 -247.2918,-166.69004 z"
         style="opacity:1;fill:none;fill-opacity:1;stroke:#000000;stroke-width:23.91428375;stroke-linecap:round;stroke-linejoin:round;stroke-miterlimit:4;stroke-dasharray:none;stroke-opacity:1"
         inkscape:connector-curvature="0" />
      <circle
         style="opacity:1;fill:none;fill-opacity:1;stroke:#000000;stroke-width:23.91428375;stroke-linecap:round;stroke-linejoin:round;stroke-miterlimit:4;stroke-dasharray:none;stroke-opacity:1"
         id="circle5131"
         cx="-573.02295"
         cy="641.33972"
         r="785.18573" />
      <path
         id="path7010"
         d="m -1087.3314,448.35154 133.76413,231.68656 -47.61563,0 -124.6816,0 -23.8085,41.23638 172.29723,0 47.6155,0 47.6171,0 -23.807,-41.23487 0,-0.002 -133.76413,-231.68655 -47.6156,0 z m -86.1486,231.68656 -23.8071,41.23638 0,0 23.807,-41.23638 0,0 z"
         style="opacity:1;fill:none;fill-rule:evenodd;stroke:#000000;stroke-width:20;stroke-linecap:butt;stroke-linejoin:round;stroke-miterlimit:4;stroke-dasharray:none;stroke-opacity:1"
         inkscape:connector-curvature="0" />
      <path
         inkscape:connector-curvature="0"
         style="opacity:1;fill:none;fill-rule:evenodd;stroke:#000000;stroke-width:20;stroke-linecap:butt;stroke-linejoin:round;stroke-miterlimit:4;stroke-dasharray:none;stroke-opacity:1"
         d="m -1221.0956,762.51087 47.614,8e-5 0,0 219.91123,0 7e-4,0 47.6153,-7e-4 23.8082,-41.23567 -47.616,-6.2e-4 -47.6153,7e-4 -172.29723,2e-5 86.1486,-149.21375 -23.8077,-41.23629 -109.9562,190.45074 -23.8082,41.23572 z"
         id="path7012" />
      <path
         id="path7014"
         d="m -1087.3314,448.35154 -23.8071,41.23488 0,0.003 -109.9556,190.44865 0,0 -23.8071,41.23638 23.8071,41.2364 23.8085,-41.2364 23.807,-41.23638 86.1486,-149.21378 86.1486,149.21378 47.61563,0 -109.95723,-190.45016 -23.807,-41.2364 z"
         style="opacity:1;fill:none;fill-rule:evenodd;stroke:#000000;stroke-width:20;stroke-linecap:butt;stroke-linejoin:round;stroke-miterlimit:4;stroke-dasharray:none;stroke-opacity:1"
         inkscape:connector-curvature="0" />
      <path
         inkscape:connector-curvature="0"
         style="opacity:1;fill:none;fill-rule:evenodd;stroke:#000000;stroke-width:20;stroke-linecap:butt;stroke-linejoin:round;stroke-miterlimit:4;stroke-dasharray:none;stroke-opacity:1"
         d="m 75.050792,523.41544 -133.76436,231.68644 -23.8078,-41.2363 -62.340802,-107.97743 -47.616,-6.1e-4 86.1486,149.21373 23.807802,41.23629 23.8085,41.23761 23.8069,-41.23492 6e-4,-0.002 133.76436,-231.68644 -23.8078,-41.23629 z m -243.720762,41.23642 -47.6152,7e-4 7e-4,10e-4 47.6153,-7e-4 -8e-4,-10e-4 z"
         id="path7038" />
      <path
         id="path7040"
         d="m -263.90127,564.65194 23.8069,41.23494 0,0.002 109.9556,190.44866 4e-4,6.6e-4 23.8082,41.23569 47.615302,7.1e-4 -23.8075,-41.237 -23.808202,-41.23569 -86.1487,-149.21375 172.297162,2e-5 23.8078003,-41.23629 -219.9131623,5.9e-4 -47.6153,-7e-4 z"
         style="opacity:1;fill:none;fill-rule:evenodd;stroke:#000000;stroke-width:20;stroke-linecap:butt;stroke-linejoin:round;stroke-miterlimit:4;stroke-dasharray:none;stroke-opacity:1"
         inkscape:connector-curvature="0" />
      <path
         inkscape:connector-curvature="0"
         style="opacity:1;fill:none;fill-rule:evenodd;stroke:#000000;stroke-width:20;stroke-linecap:butt;stroke-linejoin:round;stroke-miterlimit:4;stroke-dasharray:none;stroke-opacity:1"
         d="m 75.050792,523.41544 -47.614,-5e-5 0,0.002 -219.911162,-3e-5 -7e-4,-10e-4 -47.6153,7.1e-4 -23.8083,41.23568 47.6161,6.2e-4 47.6153,-7.1e-4 172.2971623,-2e-5 -86.1486603,149.21375 23.8078,41.23629 109.95606,-190.45074 23.8083,-41.23569 z"
         id="path7042" />
      <g
         transform="matrix(0.32416495,0,0,0.32416495,-1230.4986,-753.47026)"
         id="g4425"
         style="stroke:#000000">
        <path
           id="path4427"
           d="m 1961.7654,2251.6051 373.3355,646.637 -132.8949,0 -347.9863,0 -66.4497,115.0907 480.8813,0 132.8949,0 132.8996,0 -66.4456,-115.0864 0,0 -373.3356,-646.6373 -132.8952,0 z m -240.4406,646.637 -66.4456,115.0907 0,0 66.4456,-115.0907 0,0 z"
           style="opacity:1;fill:none;fill-rule:evenodd;stroke:#000000;stroke-width:61.69708633;stroke-linecap:butt;stroke-linejoin:round;stroke-miterlimit:4;stroke-dasharray:none;stroke-opacity:1"
           inkscape:connector-curvature="0" />
        <path
           inkscape:connector-curvature="0"
           style="opacity:1;fill:none;fill-rule:evenodd;stroke:#000000;stroke-width:61.69708633;stroke-linecap:butt;stroke-linejoin:round;stroke-miterlimit:4;stroke-dasharray:none;stroke-opacity:1"
           d="m 1961.7559,2481.7891 -105.2286,182.2636 132.8926,0 38.7832,-67.1738 -66.4472,-115.0898 z m -160.2247,277.5195 -146.6621,254.0273 -66.4492,115.0899 0.01,0 132.8906,0 613.7715,0 132.8945,0 66.4492,-115.0879 -132.8964,0 -132.8946,0 -480.8808,0 146.6621,-254.0273 -132.8946,0 z"
           transform="translate(0,3.464567e-6)"
           id="path4429" />
        <path
           inkscape:connector-curvature="0"
           style="opacity:1;fill:none;fill-opacity:1;stroke:#000000;stroke-width:61.69708633;stroke-linecap:round;stroke-linejoin:round;stroke-miterlimit:4;stroke-dasharray:none;stroke-opacity:1"
           d="m 1530.8965,2664.0527 -62.8574,95.2559 653.9629,0 -54.9961,-95.2559 -536.1094,0 z m 801.8926,0 54.9961,95.2559 200.6054,0 -62.8574,-95.2559 -192.7441,0 z"
           transform="translate(0,3.464567e-6)"
           id="path4431" />
        <path
           inkscape:connector-curvature="0"
           style="opacity:1;fill:none;fill-rule:evenodd;stroke:#000000;stroke-width:61.69708633;stroke-linecap:butt;stroke-linejoin:round;stroke-miterlimit:4;stroke-dasharray:none;stroke-opacity:1"
           d="m 1961.7695,2251.5957 0,0.01 -66.4453,115.0859 -171.6816,297.3613 132.8945,0 105.2363,-182.2754 240.4414,416.4571 132.8946,0 -306.8907,-531.5469 -66.4453,-115.0918 z m -293.1269,507.7129 -80.209,138.9258 -66.4453,115.0898 66.4453,115.0918 66.4492,-115.0918 66.4453,-115.0898 80.209,-138.9258 -132.8945,0 z"
           transform="translate(0,3.464567e-6)"
           id="path4433" />
      </g>
      <g
         id="g4435"
         transform="matrix(-0.32416495,0,0,-0.32416495,84.453731,2037.0622)"
         style="stroke:#000000">
        <path
           inkscape:connector-curvature="0"
           style="opacity:1;fill:none;fill-rule:evenodd;stroke:#000000;stroke-width:61.69708633;stroke-linecap:butt;stroke-linejoin:round;stroke-miterlimit:4;stroke-dasharray:none;stroke-opacity:1"
           d="m 1961.7654,2251.6051 373.3355,646.637 -132.8949,0 -347.9863,0 -66.4497,115.0907 480.8813,0 132.8949,0 132.8996,0 -66.4456,-115.0864 0,0 -373.3356,-646.6373 -132.8952,0 z m -240.4406,646.637 -66.4456,115.0907 0,0 66.4456,-115.0907 0,0 z"
           id="path4437" />
        <path
           id="path4439"
           transform="translate(0,3.464567e-6)"
           d="m 1961.7559,2481.7891 -105.2286,182.2636 132.8926,0 38.7832,-67.1738 -66.4472,-115.0898 z m -160.2247,277.5195 -146.6621,254.0273 -66.4492,115.0899 0.01,0 132.8906,0 613.7715,0 132.8945,0 66.4492,-115.0879 -132.8964,0 -132.8946,0 -480.8808,0 146.6621,-254.0273 -132.8946,0 z"
           style="opacity:1;fill:none;fill-rule:evenodd;stroke:#000000;stroke-width:61.69708633;stroke-linecap:butt;stroke-linejoin:round;stroke-miterlimit:4;stroke-dasharray:none;stroke-opacity:1"
           inkscape:connector-curvature="0" />
        <path
           id="path4441"
           transform="translate(0,3.464567e-6)"
           d="m 1530.8965,2664.0527 -62.8574,95.2559 653.9629,0 -54.9961,-95.2559 -536.1094,0 z m 801.8926,0 54.9961,95.2559 200.6054,0 -62.8574,-95.2559 -192.7441,0 z"
           style="opacity:1;fill:none;fill-opacity:1;stroke:#000000;stroke-width:61.69708633;stroke-linecap:round;stroke-linejoin:round;stroke-miterlimit:4;stroke-dasharray:none;stroke-opacity:1"
           inkscape:connector-curvature="0" />
        <path
           id="path4443"
           transform="translate(0,3.464567e-6)"
           d="m 1961.7695,2251.5957 0,0.01 -66.4453,115.0859 -171.6816,297.3613 132.8945,0 105.2363,-182.2754 240.4414,416.4571 132.8946,0 -306.8907,-531.5469 -66.4453,-115.0918 z m -293.1269,507.7129 -80.209,138.9258 -66.4453,115.0898 66.4453,115.0918 66.4492,-115.0918 66.4453,-115.0898 80.209,-138.9258 -132.8945,0 z"
           style="opacity:1;fill:none;fill-rule:evenodd;stroke:#000000;stroke-width:61.69708633;stroke-linecap:butt;stroke-linejoin:round;stroke-miterlimit:4;stroke-dasharray:none;stroke-opacity:1"
           inkscape:connector-curvature="0" />
      </g>
    </g>
  </g>
</svg>
