<?xml version="1.0" encoding="UTF-8" standalone="no"?>
<!-- Created with Inkscape (http://www.inkscape.org/) -->

<svg
   xmlns:dc="http://purl.org/dc/elements/1.1/"
   xmlns:cc="http://creativecommons.org/ns#"
   xmlns:rdf="http://www.w3.org/1999/02/22-rdf-syntax-ns#"
   xmlns:svg="http://www.w3.org/2000/svg"
   xmlns="http://www.w3.org/2000/svg"
   xmlns:sodipodi="http://sodipodi.sourceforge.net/DTD/sodipodi-0.dtd"
   xmlns:inkscape="http://www.inkscape.org/namespaces/inkscape"
   width="297mm"
   height="210mm"
   viewBox="0 0 1052.3622 744.09448"
   id="svg2"
   version="1.1"
   inkscape:version="0.91 r13725"
   sodipodi:docname="eye_of_the_sun.svg">
  <defs
     id="defs4" />
  <sodipodi:namedview
     id="base"
     pagecolor="#ffffff"
     bordercolor="#666666"
     borderopacity="1.0"
     inkscape:pageopacity="0.0"
     inkscape:pageshadow="2"
     inkscape:zoom="0.70710678"
     inkscape:cx="456.73651"
     inkscape:cy="338.77189"
     inkscape:document-units="px"
     inkscape:current-layer="layer1"
     showgrid="false"
     inkscape:snap-smooth-nodes="true"
     inkscape:window-width="1879"
     inkscape:window-height="1056"
     inkscape:window-x="41"
     inkscape:window-y="24"
     inkscape:window-maximized="1" />
  <metadata
     id="metadata7">
    <rdf:RDF>
      <cc:Work
         rdf:about="">
        <dc:format>image/svg+xml</dc:format>
        <dc:type
           rdf:resource="http://purl.org/dc/dcmitype/StillImage" />
        <dc:title></dc:title>
      </cc:Work>
    </rdf:RDF>
  </metadata>
  <g
     inkscape:label="Layer 1"
     inkscape:groupmode="layer"
     id="layer1"
     transform="translate(0,-308.26772)">
    <g
       id="g4382">
      <g
         transform="matrix(1.7316444,0,0,1.7316444,-381.46408,-397.34516)"
         id="g4311">
        <path
           inkscape:connector-curvature="0"
           style="opacity:1;fill:none;fill-opacity:1;stroke:#000000;stroke-width:10;stroke-linecap:butt;stroke-linejoin:round;stroke-miterlimit:4;stroke-dasharray:none;stroke-opacity:1"
           d="m 586.15039,459.91225 a 125,125 0 0 0 -59.55078,16.71094 125,125 0 0 0 -2.50977,1.57031 125,125 0 0 0 -59.95312,109.6543 125,125 0 0 1 119.87109,-0.0781 125,125 0 0 1 48.39258,47.10547 125,125 0 0 1 16.71094,59.5293 125,125 0 0 1 -62.46289,111.22461 125,125 0 0 1 -58.8711,16.66211 200,200 0 0 0 96.3711,-26.71094 200,200 0 0 0 77.36133,-265.37695 200,200 0 0 0 -0.006,-0.0137 125,125 0 0 0 -2.99414,-5.63672 200,200 0 0 0 -0.01,-0.0195 200,200 0 0 0 -1.11328,-2.17187 200,200 0 0 0 -6.33984,-9.63281 125,125 0 0 0 -104.89649,-52.81641 z m 104.89649,52.81641 a 125,125 0 0 1 1.61328,2.14648 200,200 0 0 0 -2.73047,-3.84375 200,200 0 0 1 1.11719,1.69727 z"
           id="path4249" />
        <path
           inkscape:connector-curvature="0"
           style="opacity:1;fill:none;fill-opacity:1;stroke:#000000;stroke-width:10;stroke-linecap:butt;stroke-linejoin:round;stroke-miterlimit:4;stroke-dasharray:none;stroke-opacity:1"
           d="m 347.73047,528.39858 a 200,200 0 0 0 3.21289,193.97656 200,200 0 0 0 162.99219,99.55078 125,125 0 0 1 -0.13282,-0.0176 200,200 0 0 0 14.11133,0.37305 125,125 0 0 0 58.73438,-16.65234 125,125 0 0 0 62.46289,-111.22461 125,125 0 0 0 -16.71094,-59.5293 125,125 0 0 0 -48.39258,-47.10547 125,125 0 0 1 -59.80078,103.78907 125,125 0 0 1 -2.51172,1.57031 125,125 0 0 1 -122.35742,1.35547 125,125 0 0 1 -48.39453,-47.10938 125,125 0 0 1 -3.21289,-118.97656 z"
           id="path4247" />
        <path
           id="path4309"
           d="m 352.47558,649.87911 a 125,125 0 0 0 44.24749,43.21702 125,125 0 0 0 2.61482,1.38837 125,125 0 0 0 124.93996,-2.90623 125,125 0 0 1 -60.00318,-103.77236 125,125 0 0 1 16.59824,-65.46193 125,125 0 0 1 43.19842,-44.23675 125,125 0 0 1 127.55478,-1.51786 125,125 0 0 1 43.86536,42.65282 200,200 0 0 0 -71.3179,-70.10436 200,200 0 0 0 -268.50385,65.6916 200,200 0 0 0 -0.008,0.0121 125,125 0 0 0 -3.38448,5.41136 200,200 0 0 0 -0.0122,0.0184 200,200 0 0 0 -1.32425,2.05007 200,200 0 0 0 -5.17234,10.30686 125,125 0 0 0 6.70789,117.25124 z m -6.70789,-117.25123 a 125,125 0 0 1 1.05227,-2.47038 200,200 0 0 0 -1.96355,4.28653 200,200 0 0 1 0.91128,-1.81615 z"
           style="opacity:1;fill:none;fill-opacity:1;stroke:#000000;stroke-width:10;stroke-linecap:butt;stroke-linejoin:round;stroke-miterlimit:4;stroke-dasharray:none;stroke-opacity:1"
           inkscape:connector-curvature="0" />
      </g>
      <g
         transform="matrix(0.8658222,-1.499648,1.499648,0.8658222,-860.9499,927.51744)"
         id="g4316">
        <path
           id="path4318"
           d="m 586.15039,459.91225 a 125,125 0 0 0 -59.55078,16.71094 125,125 0 0 0 -2.50977,1.57031 125,125 0 0 0 -59.95312,109.6543 125,125 0 0 1 119.87109,-0.0781 125,125 0 0 1 48.39258,47.10547 125,125 0 0 1 16.71094,59.5293 125,125 0 0 1 -62.46289,111.22461 125,125 0 0 1 -58.8711,16.66211 200,200 0 0 0 96.3711,-26.71094 200,200 0 0 0 77.36133,-265.37695 200,200 0 0 0 -0.006,-0.0137 125,125 0 0 0 -2.99414,-5.63672 200,200 0 0 0 -0.01,-0.0195 200,200 0 0 0 -1.11328,-2.17187 200,200 0 0 0 -6.33984,-9.63281 125,125 0 0 0 -104.89649,-52.81641 z m 104.89649,52.81641 a 125,125 0 0 1 1.61328,2.14648 200,200 0 0 0 -2.73047,-3.84375 200,200 0 0 1 1.11719,1.69727 z"
           style="opacity:1;fill:none;fill-opacity:1;stroke:#000000;stroke-width:10;stroke-linecap:butt;stroke-linejoin:round;stroke-miterlimit:4;stroke-dasharray:none;stroke-opacity:1"
           inkscape:connector-curvature="0" />
        <path
           id="path4320"
           d="m 347.73047,528.39858 a 200,200 0 0 0 3.21289,193.97656 200,200 0 0 0 162.99219,99.55078 125,125 0 0 1 -0.13282,-0.0176 200,200 0 0 0 14.11133,0.37305 125,125 0 0 0 58.73438,-16.65234 125,125 0 0 0 62.46289,-111.22461 125,125 0 0 0 -16.71094,-59.5293 125,125 0 0 0 -48.39258,-47.10547 125,125 0 0 1 -59.80078,103.78907 125,125 0 0 1 -2.51172,1.57031 125,125 0 0 1 -122.35742,1.35547 125,125 0 0 1 -48.39453,-47.10938 125,125 0 0 1 -3.21289,-118.97656 z"
           style="opacity:1;fill:none;fill-opacity:1;stroke:#000000;stroke-width:10;stroke-linecap:butt;stroke-linejoin:round;stroke-miterlimit:4;stroke-dasharray:none;stroke-opacity:1"
           inkscape:connector-curvature="0" />
        <path
           inkscape:connector-curvature="0"
           style="opacity:1;fill:none;fill-opacity:1;stroke:#000000;stroke-width:10;stroke-linecap:butt;stroke-linejoin:round;stroke-miterlimit:4;stroke-dasharray:none;stroke-opacity:1"
           d="m 352.47558,649.87911 a 125,125 0 0 0 44.24749,43.21702 125,125 0 0 0 2.61482,1.38837 125,125 0 0 0 124.93996,-2.90623 125,125 0 0 1 -60.00318,-103.77236 125,125 0 0 1 16.59824,-65.46193 125,125 0 0 1 43.19842,-44.23675 125,125 0 0 1 127.55478,-1.51786 125,125 0 0 1 43.86536,42.65282 200,200 0 0 0 -71.3179,-70.10436 200,200 0 0 0 -268.50385,65.6916 200,200 0 0 0 -0.008,0.0121 125,125 0 0 0 -3.38448,5.41136 200,200 0 0 0 -0.0122,0.0184 200,200 0 0 0 -1.32425,2.05007 200,200 0 0 0 -5.17234,10.30686 125,125 0 0 0 6.70789,117.25124 z m -6.70789,-117.25123 a 125,125 0 0 1 1.05227,-2.47038 200,200 0 0 0 -1.96355,4.28653 200,200 0 0 1 0.91128,-1.81615 z"
           id="path4322" />
      </g>
      <g
         transform="matrix(1.499648,-0.8658222,0.8658222,1.499648,-798.70492,200.84722)"
         id="g4324">
        <path
           id="path4326"
           d="m 586.15039,459.91225 a 125,125 0 0 0 -59.55078,16.71094 125,125 0 0 0 -2.50977,1.57031 125,125 0 0 0 -59.95312,109.6543 125,125 0 0 1 119.87109,-0.0781 125,125 0 0 1 48.39258,47.10547 125,125 0 0 1 16.71094,59.5293 125,125 0 0 1 -62.46289,111.22461 125,125 0 0 1 -58.8711,16.66211 200,200 0 0 0 96.3711,-26.71094 200,200 0 0 0 77.36133,-265.37695 200,200 0 0 0 -0.006,-0.0137 125,125 0 0 0 -2.99414,-5.63672 200,200 0 0 0 -0.01,-0.0195 200,200 0 0 0 -1.11328,-2.17187 200,200 0 0 0 -6.33984,-9.63281 125,125 0 0 0 -104.89649,-52.81641 z m 104.89649,52.81641 a 125,125 0 0 1 1.61328,2.14648 200,200 0 0 0 -2.73047,-3.84375 200,200 0 0 1 1.11719,1.69727 z"
           style="opacity:1;fill:none;fill-opacity:1;stroke:#000000;stroke-width:10;stroke-linecap:butt;stroke-linejoin:round;stroke-miterlimit:4;stroke-dasharray:none;stroke-opacity:1"
           inkscape:connector-curvature="0" />
        <path
           id="path4328"
           d="m 347.73047,528.39858 a 200,200 0 0 0 3.21289,193.97656 200,200 0 0 0 162.99219,99.55078 125,125 0 0 1 -0.13282,-0.0176 200,200 0 0 0 14.11133,0.37305 125,125 0 0 0 58.73438,-16.65234 125,125 0 0 0 62.46289,-111.22461 125,125 0 0 0 -16.71094,-59.5293 125,125 0 0 0 -48.39258,-47.10547 125,125 0 0 1 -59.80078,103.78907 125,125 0 0 1 -2.51172,1.57031 125,125 0 0 1 -122.35742,1.35547 125,125 0 0 1 -48.39453,-47.10938 125,125 0 0 1 -3.21289,-118.97656 z"
           style="opacity:1;fill:none;fill-opacity:1;stroke:#000000;stroke-width:10;stroke-linecap:butt;stroke-linejoin:round;stroke-miterlimit:4;stroke-dasharray:none;stroke-opacity:1"
           inkscape:connector-curvature="0" />
        <path
           inkscape:connector-curvature="0"
           style="opacity:1;fill:none;fill-opacity:1;stroke:#000000;stroke-width:10;stroke-linecap:butt;stroke-linejoin:round;stroke-miterlimit:4;stroke-dasharray:none;stroke-opacity:1"
           d="m 352.47558,649.87911 a 125,125 0 0 0 44.24749,43.21702 125,125 0 0 0 2.61482,1.38837 125,125 0 0 0 124.93996,-2.90623 125,125 0 0 1 -60.00318,-103.77236 125,125 0 0 1 16.59824,-65.46193 125,125 0 0 1 43.19842,-44.23675 125,125 0 0 1 127.55478,-1.51786 125,125 0 0 1 43.86536,42.65282 200,200 0 0 0 -71.3179,-70.10436 200,200 0 0 0 -268.50385,65.6916 200,200 0 0 0 -0.008,0.0121 125,125 0 0 0 -3.38448,5.41136 200,200 0 0 0 -0.0122,0.0184 200,200 0 0 0 -1.32425,2.05007 200,200 0 0 0 -5.17234,10.30686 125,125 0 0 0 6.70789,117.25124 z m -6.70789,-117.25123 a 125,125 0 0 1 1.05227,-2.47038 200,200 0 0 0 -1.96355,4.28653 200,200 0 0 1 0.91128,-1.81615 z"
           id="path4330" />
      </g>
      <g
         id="g4332"
         transform="matrix(0,-1.7316444,1.7316444,0,-551.45308,1587.8809)">
        <path
           inkscape:connector-curvature="0"
           style="opacity:1;fill:none;fill-opacity:1;stroke:#000000;stroke-width:10;stroke-linecap:butt;stroke-linejoin:round;stroke-miterlimit:4;stroke-dasharray:none;stroke-opacity:1"
           d="m 586.15039,459.91225 a 125,125 0 0 0 -59.55078,16.71094 125,125 0 0 0 -2.50977,1.57031 125,125 0 0 0 -59.95312,109.6543 125,125 0 0 1 119.87109,-0.0781 125,125 0 0 1 48.39258,47.10547 125,125 0 0 1 16.71094,59.5293 125,125 0 0 1 -62.46289,111.22461 125,125 0 0 1 -58.8711,16.66211 200,200 0 0 0 96.3711,-26.71094 200,200 0 0 0 77.36133,-265.37695 200,200 0 0 0 -0.006,-0.0137 125,125 0 0 0 -2.99414,-5.63672 200,200 0 0 0 -0.01,-0.0195 200,200 0 0 0 -1.11328,-2.17187 200,200 0 0 0 -6.33984,-9.63281 125,125 0 0 0 -104.89649,-52.81641 z m 104.89649,52.81641 a 125,125 0 0 1 1.61328,2.14648 200,200 0 0 0 -2.73047,-3.84375 200,200 0 0 1 1.11719,1.69727 z"
           id="path4334" />
        <path
           inkscape:connector-curvature="0"
           style="opacity:1;fill:none;fill-opacity:1;stroke:#000000;stroke-width:10;stroke-linecap:butt;stroke-linejoin:round;stroke-miterlimit:4;stroke-dasharray:none;stroke-opacity:1"
           d="m 347.73047,528.39858 a 200,200 0 0 0 3.21289,193.97656 200,200 0 0 0 162.99219,99.55078 125,125 0 0 1 -0.13282,-0.0176 200,200 0 0 0 14.11133,0.37305 125,125 0 0 0 58.73438,-16.65234 125,125 0 0 0 62.46289,-111.22461 125,125 0 0 0 -16.71094,-59.5293 125,125 0 0 0 -48.39258,-47.10547 125,125 0 0 1 -59.80078,103.78907 125,125 0 0 1 -2.51172,1.57031 125,125 0 0 1 -122.35742,1.35547 125,125 0 0 1 -48.39453,-47.10938 125,125 0 0 1 -3.21289,-118.97656 z"
           id="path4336" />
        <path
           id="path4338"
           d="m 352.47558,649.87911 a 125,125 0 0 0 44.24749,43.21702 125,125 0 0 0 2.61482,1.38837 125,125 0 0 0 124.93996,-2.90623 125,125 0 0 1 -60.00318,-103.77236 125,125 0 0 1 16.59824,-65.46193 125,125 0 0 1 43.19842,-44.23675 125,125 0 0 1 127.55478,-1.51786 125,125 0 0 1 43.86536,42.65282 200,200 0 0 0 -71.3179,-70.10436 200,200 0 0 0 -268.50385,65.6916 200,200 0 0 0 -0.008,0.0121 125,125 0 0 0 -3.38448,5.41136 200,200 0 0 0 -0.0122,0.0184 200,200 0 0 0 -1.32425,2.05007 200,200 0 0 0 -5.17234,10.30686 125,125 0 0 0 6.70789,117.25124 z m -6.70789,-117.25123 a 125,125 0 0 1 1.05227,-2.47038 200,200 0 0 0 -1.96355,4.28653 200,200 0 0 1 0.91128,-1.81615 z"
           style="opacity:1;fill:none;fill-opacity:1;stroke:#000000;stroke-width:10;stroke-linecap:butt;stroke-linejoin:round;stroke-miterlimit:4;stroke-dasharray:none;stroke-opacity:1"
           inkscape:connector-curvature="0" />
      </g>
    </g>
  </g>
</svg>
