<?xml version="1.0" encoding="UTF-8" standalone="no"?>
<!-- Created with Inkscape (http://www.inkscape.org/) -->

<svg
   xmlns:dc="http://purl.org/dc/elements/1.1/"
   xmlns:cc="http://creativecommons.org/ns#"
   xmlns:rdf="http://www.w3.org/1999/02/22-rdf-syntax-ns#"
   xmlns:svg="http://www.w3.org/2000/svg"
   xmlns="http://www.w3.org/2000/svg"
   xmlns:sodipodi="http://sodipodi.sourceforge.net/DTD/sodipodi-0.dtd"
   xmlns:inkscape="http://www.inkscape.org/namespaces/inkscape"
   width="210mm"
   height="297mm"
   viewBox="0 0 744.09448819 1052.3622047"
   id="svg2"
   version="1.1"
   inkscape:version="0.91 r13725"
   sodipodi:docname="eye_.svg">
  <defs
     id="defs4" />
  <sodipodi:namedview
     id="base"
     pagecolor="#ffffff"
     bordercolor="#666666"
     borderopacity="1.0"
     inkscape:pageopacity="0.0"
     inkscape:pageshadow="2"
     inkscape:zoom="1.4"
     inkscape:cx="291.50672"
     inkscape:cy="540.94471"
     inkscape:document-units="px"
     inkscape:current-layer="layer1"
     showgrid="false"
     inkscape:snap-center="true"
     inkscape:window-width="1879"
     inkscape:window-height="1056"
     inkscape:window-x="41"
     inkscape:window-y="24"
     inkscape:window-maximized="1" />
  <metadata
     id="metadata7">
    <rdf:RDF>
      <cc:Work
         rdf:about="">
        <dc:format>image/svg+xml</dc:format>
        <dc:type
           rdf:resource="http://purl.org/dc/dcmitype/StillImage" />
        <dc:title></dc:title>
      </cc:Work>
    </rdf:RDF>
  </metadata>
  <g
     inkscape:label="Layer 1"
     inkscape:groupmode="layer"
     id="layer1">
    <circle
       r="149.49995"
       cy="526.18109"
       cx="522.04694"
       id="circle4164"
       style="opacity:1;fill:none;stroke:#000000;stroke-width:1;stroke-miterlimit:4;stroke-dasharray:none;stroke-opacity:1"
       inkscape:transform-center-x="-149.99969" />
    <circle
       inkscape:transform-center-x="-144.88858"
       style="opacity:1;fill:none;stroke:#000000;stroke-width:1;stroke-miterlimit:4;stroke-dasharray:none;stroke-opacity:1"
       id="circle4176"
       cx="645.55542"
       cy="411.95898"
       r="149.49995"
       transform="matrix(0.96592583,0.25881905,-0.25881905,0.96592583,0,0)"
       inkscape:transform-center-y="38.822773" />
    <circle
       inkscape:transform-center-x="-144.88858"
       style="opacity:1;fill:none;stroke:#000000;stroke-width:1;stroke-miterlimit:4;stroke-dasharray:none;stroke-opacity:1"
       id="circle4178"
       cx="373.18405"
       cy="604.5448"
       r="149.49995"
       transform="matrix(0.96592583,-0.25881905,0.25881905,0.96592583,0,0)"
       inkscape:transform-center-y="-38.822795" />
    <circle
       inkscape:transform-center-y="74.999842"
       transform="matrix(0.8660254,0.5,-0.5,0.8660254,0,0)"
       r="149.49995"
       cy="269.66257"
       cx="735.2926"
       id="circle4180"
       style="opacity:1;fill:none;stroke:#000000;stroke-width:1;stroke-miterlimit:4;stroke-dasharray:none;stroke-opacity:1"
       inkscape:transform-center-x="-129.90354" />
    <circle
       inkscape:transform-center-y="-74.999879"
       transform="matrix(0.8660254,-0.5,0.5,0.8660254,0,0)"
       r="149.49995"
       cy="641.70978"
       cx="209.11151"
       id="circle4182"
       style="opacity:1;fill:none;stroke:#000000;stroke-width:1;stroke-miterlimit:4;stroke-dasharray:none;stroke-opacity:1"
       inkscape:transform-center-x="-129.90352" />
    <circle
       inkscape:transform-center-x="-106.06582"
       style="opacity:1;fill:none;stroke:#000000;stroke-width:1;stroke-miterlimit:4;stroke-dasharray:none;stroke-opacity:1"
       id="circle4184"
       cx="785.14307"
       cy="108.98908"
       r="149.49995"
       transform="matrix(0.70710678,0.70710678,-0.70710678,0.70710678,0,0)"
       inkscape:transform-center-y="106.06581" />
    <circle
       inkscape:transform-center-x="-106.06577"
       style="opacity:1;fill:none;stroke:#000000;stroke-width:1;stroke-miterlimit:4;stroke-dasharray:none;stroke-opacity:1"
       id="circle4186"
       cx="41.010601"
       cy="635.14331"
       r="149.49995"
       transform="matrix(0.70710678,-0.70710678,0.70710678,0.70710678,0,0)"
       inkscape:transform-center-y="-106.06582" />
    <circle
       inkscape:transform-center-y="129.90356"
       transform="matrix(0.5,0.8660254,-0.8660254,0.5,0,0)"
       r="149.49995"
       cy="-59.111828"
       cx="791.70953"
       id="circle4188"
       style="opacity:1;fill:none;stroke:#000000;stroke-width:1;stroke-miterlimit:4;stroke-dasharray:none;stroke-opacity:1"
       inkscape:transform-center-x="-74.999865" />
    <circle
       inkscape:transform-center-y="-129.90357"
       transform="matrix(0.5,-0.8660254,0.8660254,0.5,0,0)"
       r="149.49995"
       cy="585.29285"
       cx="-119.66288"
       id="circle4190"
       style="opacity:1;fill:none;stroke:#000000;stroke-width:1;stroke-miterlimit:4;stroke-dasharray:none;stroke-opacity:1"
       inkscape:transform-center-x="-74.999786" />
    <circle
       inkscape:transform-center-x="-38.822794"
       style="opacity:1;fill:none;stroke:#000000;stroke-width:1;stroke-miterlimit:4;stroke-dasharray:none;stroke-opacity:1"
       id="circle4192"
       cx="754.54456"
       cy="-223.18436"
       r="149.49995"
       transform="matrix(0.25881905,0.96592583,-0.96592583,0.25881905,0,0)"
       inkscape:transform-center-y="144.88862" />
    <circle
       inkscape:transform-center-x="-38.822716"
       style="opacity:1;fill:none;stroke:#000000;stroke-width:1;stroke-miterlimit:4;stroke-dasharray:none;stroke-opacity:1"
       id="circle4194"
       cx="-261.95929"
       cy="495.55566"
       r="149.49995"
       transform="matrix(0.25881905,-0.96592583,0.96592583,0.25881905,0,0)"
       inkscape:transform-center-y="-144.8886" />
    <circle
       inkscape:transform-center-y="149.99975"
       transform="matrix(0,1,-1,0,0,0)"
       r="149.49995"
       cy="-372.04724"
       cx="676.18085"
       id="circle4196"
       style="opacity:1;fill:none;stroke:#000000;stroke-width:1;stroke-miterlimit:4;stroke-dasharray:none;stroke-opacity:1" />
    <circle
       inkscape:transform-center-y="-149.99969"
       transform="matrix(0,-1,1,0,0,0)"
       r="149.49995"
       cy="372.04718"
       cx="-376.1814"
       id="circle4198"
       style="opacity:1;fill:none;stroke:#000000;stroke-width:1;stroke-miterlimit:4;stroke-dasharray:none;stroke-opacity:1"
       inkscape:transform-center-x="6.5484835e-05" />
    <circle
       style="opacity:1;fill:none;stroke:#000000;stroke-width:1;stroke-miterlimit:4;stroke-dasharray:none;stroke-opacity:1"
       id="circle4200"
       cx="561.95874"
       cy="-495.55573"
       r="149.49995"
       transform="matrix(-0.25881905,0.96592583,-0.96592583,-0.25881905,0,0)"
       inkscape:transform-center-y="144.88863"
       inkscape:transform-center-x="38.822793" />
    <circle
       inkscape:transform-center-x="38.822829"
       style="opacity:1;fill:none;stroke:#000000;stroke-width:1;stroke-miterlimit:4;stroke-dasharray:none;stroke-opacity:1"
       id="circle4202"
       cx="-454.54514"
       cy="223.1843"
       r="149.49995"
       transform="matrix(-0.25881905,-0.96592583,0.96592583,-0.25881905,0,0)"
       inkscape:transform-center-y="-144.88855" />
    <circle
       inkscape:transform-center-x="74.999878"
       inkscape:transform-center-y="129.90359"
       transform="matrix(-0.5,0.8660254,-0.8660254,-0.5,0,0)"
       r="149.49995"
       cy="-585.29291"
       cx="419.66232"
       id="circle4204"
       style="opacity:1;fill:none;stroke:#000000;stroke-width:1;stroke-miterlimit:4;stroke-dasharray:none;stroke-opacity:1" />
    <circle
       inkscape:transform-center-y="-129.9035"
       transform="matrix(-0.5,-0.8660254,0.8660254,-0.5,0,0)"
       r="149.49995"
       cy="59.111763"
       cx="-491.71014"
       id="circle4206"
       style="opacity:1;fill:none;stroke:#000000;stroke-width:1;stroke-miterlimit:4;stroke-dasharray:none;stroke-opacity:1"
       inkscape:transform-center-x="74.999885" />
    <circle
       style="opacity:1;fill:none;stroke:#000000;stroke-width:1;stroke-miterlimit:4;stroke-dasharray:none;stroke-opacity:1"
       id="circle4208"
       cx="258.98883"
       cy="-635.14337"
       r="149.49995"
       transform="matrix(-0.70710678,0.70710678,-0.70710678,-0.70710678,0,0)"
       inkscape:transform-center-y="106.06585"
       inkscape:transform-center-x="106.06581" />
    <circle
       inkscape:transform-center-x="106.06582"
       style="opacity:1;fill:none;stroke:#000000;stroke-width:1;stroke-miterlimit:4;stroke-dasharray:none;stroke-opacity:1"
       id="circle4210"
       cx="-485.14368"
       cy="-108.98914"
       r="149.49995"
       transform="matrix(-0.70710678,-0.70710678,0.70710678,-0.70710678,0,0)"
       inkscape:transform-center-y="-106.06575" />
    <circle
       inkscape:transform-center-x="129.90357"
       inkscape:transform-center-y="74.99989"
       transform="matrix(-0.8660254,0.5,-0.5,-0.8660254,0,0)"
       r="149.49995"
       cy="-641.70984"
       cx="90.887924"
       id="circle4212"
       style="opacity:1;fill:none;stroke:#000000;stroke-width:1;stroke-miterlimit:4;stroke-dasharray:none;stroke-opacity:1" />
    <circle
       inkscape:transform-center-y="-74.999789"
       transform="matrix(-0.8660254,-0.5,0.5,-0.8660254,0,0)"
       r="149.49995"
       cy="-269.66263"
       cx="-435.29324"
       id="circle4214"
       style="opacity:1;fill:none;stroke:#000000;stroke-width:1;stroke-miterlimit:4;stroke-dasharray:none;stroke-opacity:1"
       inkscape:transform-center-x="129.90355" />
    <circle
       style="opacity:1;fill:none;stroke:#000000;stroke-width:1;stroke-miterlimit:4;stroke-dasharray:none;stroke-opacity:1"
       id="circle4216"
       cx="-73.184608"
       cy="-604.54486"
       r="149.49995"
       transform="matrix(-0.96592583,0.25881905,-0.25881905,-0.96592583,0,0)"
       inkscape:transform-center-y="38.822834"
       inkscape:transform-center-x="144.88861" />
    <circle
       inkscape:transform-center-x="144.88857"
       style="opacity:1;fill:none;stroke:#000000;stroke-width:1;stroke-miterlimit:4;stroke-dasharray:none;stroke-opacity:1"
       id="circle4218"
       cx="-345.55606"
       cy="-411.95905"
       r="149.49995"
       transform="matrix(-0.96592583,-0.25881905,0.25881905,-0.96592583,0,0)"
       inkscape:transform-center-y="-38.822722" />
    <circle
       inkscape:transform-center-x="149.99974"
       inkscape:transform-center-y="6.0700839e-05"
       transform="scale(-1,-1)"
       r="149.49995"
       cy="-526.18115"
       cx="-222.0475"
       id="circle4220"
       style="opacity:1;fill:none;stroke:#000000;stroke-width:1;stroke-miterlimit:4;stroke-dasharray:none;stroke-opacity:1" />
    <path
       style="opacity:1;fill:#000000;fill-opacity:1;stroke:none;stroke-width:5;stroke-miterlimit:4;stroke-dasharray:none;stroke-opacity:1"
       d="M 365.29243,812.55629 C 354.89568,809.11614 339.221,802.0877 339.221,800.866 c 0,-0.29344 2.33036,-1.28043 5.17857,-2.19331 6.8143,-2.18405 17.67722,-6.80187 23.06021,-9.80288 l 4.31021,-2.40294 7.05526,3.53844 c 7.43535,3.72906 19.87254,8.74494 23.78861,9.59387 1.27679,0.27679 2.32143,0.79451 2.32143,1.1505 0,2.02535 -28.5696,13.60464 -33.2913,13.493 -0.74336,-0.0176 -3.60156,-0.77646 -6.35156,-1.68639 z"
       id="path6003"
       inkscape:connector-curvature="0" />
    <path
       style="opacity:1;fill:#000000;fill-opacity:1;stroke:none;stroke-width:5;stroke-miterlimit:4;stroke-dasharray:none;stroke-opacity:1"
       d="m 328.50672,794.68907 c -6.91414,-4.6423 -20.77686,-15.90632 -21.16891,-17.20059 -0.11892,-0.39261 3.13067,-1.78922 7.22132,-3.10357 4.09065,-1.31435 11.66738,-4.44854 16.83717,-6.96487 l 9.39961,-4.57515 5.75629,5.08065 c 6.43117,5.67633 14.00377,11.41476 19.63848,14.88184 2.05954,1.26724 3.74461,2.45547 3.74461,2.64051 0,1.47222 -30.20071,13.86403 -33.66189,13.812 -0.53953,-0.008 -4.03454,-2.06498 -7.76668,-4.57082 z"
       id="path6005"
       inkscape:connector-curvature="0" />
    <path
       style="opacity:1;fill:#000000;fill-opacity:1;stroke:none;stroke-width:5;stroke-miterlimit:4;stroke-dasharray:none;stroke-opacity:1"
       d="m 398.14957,796.3951 c -4.32142,-1.54317 -11.62035,-4.6326 -16.21982,-6.86542 l -8.36269,-4.05965 4.07697,-2.5161 c 5.61739,-3.46675 12.98351,-9.02593 19.90758,-15.02414 l 5.8306,-5.05096 6.2507,3.18949 c 6.86108,3.50094 18.80948,8.33575 24.09207,9.74863 1.85448,0.496 3.26052,1.23562 3.12453,1.6436 -0.93219,2.79657 -26.72935,21.85183 -29.48214,21.77719 -0.74836,-0.0203 -4.89637,-1.29948 -9.2178,-2.84264 z"
       id="path6007"
       inkscape:connector-curvature="0" />
    <path
       style="opacity:1;fill:#000000;fill-opacity:1;stroke:none;stroke-width:5;stroke-miterlimit:4;stroke-dasharray:none;stroke-opacity:1"
       d="m 364.41726,779.54253 c -7.15078,-4.84652 -16.14613,-12.0655 -19.67942,-15.79319 l -1.98316,-2.09228 6.26887,-4.15327 c 6.59793,-4.37127 10.33157,-7.28041 18.21086,-14.18938 l 4.79913,-4.20812 5.20087,4.61291 c 6.22144,5.51811 15.19563,12.35164 20.4266,15.55415 l 3.79714,2.3247 -2.01143,2.12178 c -5.17032,5.45398 -25.33212,20.55481 -27.44366,20.55481 -0.33211,0 -3.74571,-2.12945 -7.5858,-4.73211 z"
       id="path6009"
       inkscape:connector-curvature="0" />
    <path
       style="opacity:1;fill:#000000;fill-opacity:1;stroke:none;stroke-width:5;stroke-miterlimit:4;stroke-dasharray:none;stroke-opacity:1"
       d="m 368.05939,731.95321 c -5.28102,-5.63941 -8.47548,-9.74385 -13.83784,-17.77974 l -4.86283,-7.28729 4.92023,-5.58364 c 5.52378,-6.26856 11.26208,-13.91374 15.09028,-20.10488 l 2.5651,-4.14841 3.87178,5.93412 c 4.06801,6.2349 14.12983,19.03758 17.21307,21.90195 l 1.81064,1.68211 -3.26401,5.1036 c -5.97271,9.33895 -17.86073,24.03218 -19.44398,24.03218 -0.30291,0 -2.13101,-1.6875 -4.06244,-3.75 z"
       id="path6011"
       inkscape:connector-curvature="0" />
    <path
       style="opacity:1;fill:#000000;fill-opacity:1;stroke:none;stroke-width:5;stroke-miterlimit:4;stroke-dasharray:none;stroke-opacity:1"
       d="m 336.09531,754.87215 c -4.74176,-5.19542 -10.33341,-12.6577 -15.00138,-20.01994 l -2.57756,-4.06528 5.88803,-3.84173 c 6.23713,-4.0695 19.00489,-14.11457 21.89953,-17.22951 l 1.72579,-1.85714 3.53581,5.52947 c 4.06932,6.36379 8.96871,12.78535 14.91909,19.55423 l 4.166,4.73905 -4.59945,4.30255 c -7.2929,6.82215 -22.5689,18.00507 -24.59514,18.00507 -0.3799,0 -2.79223,-2.30255 -5.36072,-5.11677 z"
       id="path6013"
       inkscape:connector-curvature="0" />
    <path
       style="opacity:1;fill:#000000;fill-opacity:1;stroke:none;stroke-width:5;stroke-miterlimit:4;stroke-dasharray:none;stroke-opacity:1"
       d="m 395.29243,755.61105 c -7.15255,-4.85114 -12.44196,-9.09264 -18.00182,-14.43539 l -3.71611,-3.571 3.71611,-4.22943 c 5.40304,-6.14938 12.24873,-15.18102 15.65178,-20.64965 l 2.96415,-4.76334 5.40723,4.79243 c 7.5666,6.70627 10.91531,9.29249 18.06754,13.95355 l 6.23173,4.06119 -2.6603,4.28519 c -5.79212,9.32988 -18.56188,24.94454 -20.38419,24.92544 -0.46615,-0.005 -3.7404,-1.97093 -7.27612,-4.36899 z"
       id="path6015"
       inkscape:connector-curvature="0" />
    <path
       style="opacity:1;fill:#000000;fill-opacity:1;stroke:none;stroke-width:5;stroke-miterlimit:4;stroke-dasharray:none;stroke-opacity:1"
       d="m 367.60244,664.45321 c -3.75364,-7.8913 -9.09572,-22.47873 -9.09572,-24.83739 0,-0.58631 1.74743,-4.67972 3.88317,-9.09646 2.13575,-4.41674 5.10897,-11.64604 6.60715,-16.06511 1.49818,-4.41908 2.88468,-8.03072 3.08111,-8.02589 0.19642,0.005 1.42869,3.29902 2.73836,7.32039 1.30967,4.02138 4.35142,11.45019 6.75944,16.50846 l 4.37822,9.19686 -3.05128,9.01743 c -3.01813,8.91942 -9.87942,24.37456 -10.82107,24.37456 -0.26794,0 -2.28366,-3.77678 -4.47938,-8.39285 z"
       id="path6017"
       inkscape:connector-curvature="0" />
    <path
       style="opacity:1;fill:#000000;fill-opacity:1;stroke:none;stroke-width:5;stroke-miterlimit:4;stroke-dasharray:none;stroke-opacity:1"
       d="m 344.16553,696.65876 c -2.00531,-4.18873 -5.05413,-11.82172 -6.77515,-16.9622 l -3.12914,-9.34631 3.44589,-3.57352 c 4.7097,-4.88414 10.60961,-12.44152 15.05765,-19.28781 2.04191,-3.14286 3.89459,-5.64899 4.11707,-5.56919 0.22247,0.0798 1.27134,2.81195 2.33081,6.07143 2.46887,7.59547 6.64789,17.64133 9.53331,22.91693 l 2.26075,4.13345 -1.70128,3.00941 c -4.64531,8.21712 -18.9637,26.22369 -20.85245,26.22369 -0.3528,0 -2.28215,-3.42715 -4.28746,-7.61588 z"
       id="path6019"
       inkscape:connector-curvature="0" />
    <path
       style="opacity:1;fill:#000000;fill-opacity:1;stroke:none;stroke-width:5;stroke-miterlimit:4;stroke-dasharray:none;stroke-opacity:1"
       d="m 390.29156,699.22397 c -5.65533,-6.52167 -13.10024,-16.689 -15.4926,-21.15787 l -1.60294,-2.99425 3.31406,-6.64861 c 3.54941,-7.12075 6.76165,-14.94619 8.73986,-21.29146 0.67363,-2.16072 1.36945,-4.37985 1.54628,-4.93142 0.18619,-0.58076 2.44314,2.12495 5.36237,6.42857 5.74454,8.46879 8.66672,12.19475 13.97509,17.81912 l 3.73669,3.95912 -2.85162,8.54088 c -2.36398,7.08035 -10.74307,26.04087 -11.50806,26.04087 -0.121,0 -2.46961,-2.59422 -5.21913,-5.76495 z"
       id="path6021"
       inkscape:connector-curvature="0" />
    <path
       style="opacity:1;fill:#000000;fill-opacity:1;stroke:none;stroke-width:5;stroke-miterlimit:4;stroke-dasharray:none;stroke-opacity:1"
       d="m 370.32774,589.83898 c -0.69552,-4.04253 -1.41944,-12.17149 -1.60872,-18.06434 -0.28449,-8.85715 -0.0851,-12.1288 1.15035,-18.87493 0.82197,-4.48835 1.49449,-9.28299 1.49449,-10.65476 0,-4.54121 1.0136,-1.57969 2.48093,7.24875 1.87,11.25117 1.90185,29.00441 0.0707,39.42379 -0.69041,3.92857 -1.49557,7.39681 -1.78924,7.7072 -0.29367,0.31039 -1.10301,-2.74318 -1.79853,-6.78571 z"
       id="path6023"
       inkscape:connector-curvature="0" />
    <path
       style="opacity:1;fill:#000000;fill-opacity:1;stroke:none;stroke-width:5;stroke-miterlimit:4;stroke-dasharray:none;stroke-opacity:1"
       d="m 370.31928,502.96027 c -2.35383,-15.32103 -2.23486,-28.0024 0.40148,-42.79278 0.43766,-2.45535 1.03356,-4.46428 1.32423,-4.46428 1.02869,0 3.04746,14.784 3.41376,25 0.28257,7.88064 0.0993,11.67141 -0.76642,15.85364 -0.62579,3.02307 -1.35458,7.61247 -1.61954,10.19865 -0.26496,2.58618 -0.68031,4.82487 -0.92299,4.97485 -0.24268,0.14999 -1.06642,-3.79655 -1.83052,-8.77008 z"
       id="path6025"
       inkscape:connector-curvature="0" />
    <path
       style="opacity:1;fill:#000000;fill-opacity:1;stroke:none;stroke-width:5;stroke-miterlimit:4;stroke-dasharray:none;stroke-opacity:1"
       d="m 371.12986,444.35465 c -0.75624,-3.78123 -5.54675,-15.92404 -9.14134,-23.17118 -1.91499,-3.86085 -3.4818,-7.60191 -3.4818,-8.31346 0,-3.75205 12.05428,-33.59537 13.56981,-33.59537 0.7931,0 7.6524,15.17927 10.28751,22.76572 3.90054,11.22963 3.92323,10.41286 -0.5428,19.54347 -2.16506,4.42637 -5.13086,11.58366 -6.59067,15.90509 -1.4598,4.32143 -2.88281,8.11831 -3.16224,8.4375 -0.27942,0.3192 -0.70173,-0.3881 -0.93847,-1.57177 z"
       id="path6027"
       inkscape:connector-curvature="0" />
    <path
       style="opacity:1;fill:#000000;fill-opacity:1;stroke:none;stroke-width:5;stroke-miterlimit:4;stroke-dasharray:none;stroke-opacity:1"
       d="m 356.13397,629.84799 c -1.70661,-8.76565 -2.62725,-17.25171 -2.62725,-24.21679 0,-6.03483 0.094,-6.37645 3.97791,-14.4535 2.18786,-4.54992 5.05905,-11.37731 6.38042,-15.17198 2.72886,-7.83664 2.48332,-8.20189 3.87818,5.76892 0.43145,4.32142 1.37141,10.64315 2.08878,14.04827 l 1.30433,6.19113 -1.63315,5.65687 c -2.51298,8.70444 -9.61167,25.50464 -11.62904,27.52201 -0.32206,0.32206 -1.10514,-2.08316 -1.74018,-5.34493 z"
       id="path6029"
       inkscape:connector-curvature="0" />
    <path
       style="opacity:1;fill:#000000;fill-opacity:1;stroke:none;stroke-width:5;stroke-miterlimit:4;stroke-dasharray:none;stroke-opacity:1"
       d="m 385.38017,634.12666 c -1.92894,-2.90637 -7.83083,-17.16188 -10.31222,-24.90826 l -2.19053,-6.8384 1.75036,-8.64065 c 0.96271,-4.75236 1.98823,-12.44214 2.27894,-17.0884 l 0.52857,-8.44774 2.36791,6.78571 c 1.30236,3.73214 4.27557,10.76097 6.60715,15.61962 4.12489,8.59566 4.23922,8.99362 4.23922,14.7559 0,6.28019 -1.61208,20.21827 -3.09592,26.76734 l -0.8901,3.92857 -1.28338,-1.93369 z"
       id="path6031"
       inkscape:connector-curvature="0" />
    <path
       style="opacity:1;fill:#000000;fill-opacity:1;stroke:none;stroke-width:5;stroke-miterlimit:4;stroke-dasharray:none;stroke-opacity:1"
       d="m 363.62359,475.8631 c -1.30407,-3.81173 -4.14626,-10.63026 -6.31599,-15.15229 l -3.94496,-8.22189 0.40065,-9.64286 c 0.33728,-8.11776 2.74174,-25.37926 3.66365,-26.30117 0.90597,-0.90597 8.81798,17.44279 11.8031,27.3726 l 1.93257,6.42857 -1.6742,8.21429 c -0.92081,4.51786 -1.8868,11.26786 -2.14665,15 -0.69562,9.99109 -1.01926,10.19153 -3.71817,2.30275 z"
       id="path6033"
       inkscape:connector-curvature="0" />
    <path
       style="opacity:1;fill:#000000;fill-opacity:1;stroke:none;stroke-width:5;stroke-miterlimit:4;stroke-dasharray:none;stroke-opacity:1"
       d="m 377.07815,478.98421 c 0,-5.19399 -1.64266,-17.8282 -3.15531,-24.26858 -0.88844,-3.78264 -0.85611,-4.67346 0.32401,-8.92857 1.89986,-6.85026 5.80422,-16.79011 9.31195,-23.70668 l 3.05305,-6.02003 1.24854,6.09921 c 1.62067,7.91715 2.78918,18.52358 2.78918,25.31706 0,4.90233 -0.27118,5.94051 -2.93631,11.2412 -3.29311,6.54966 -9.20654,21.29708 -9.20654,22.96003 0,0.59615 -0.32143,1.28256 -0.71429,1.52536 -0.44831,0.27707 -0.71428,-1.29392 -0.71428,-4.219 z"
       id="path6035"
       inkscape:connector-curvature="0" />
    <path
       style="opacity:1;fill:#000000;fill-opacity:1;stroke:none;stroke-width:5;stroke-miterlimit:4;stroke-dasharray:none;stroke-opacity:1"
       d="m 355.01453,408.39721 c -2.95759,-5.13893 -9.74178,-14.29255 -15.29748,-20.64025 l -5.39189,-6.16053 2.83832,-8.48232 c 3.30433,-9.87501 10.52859,-25.41736 11.6459,-25.05513 2.49655,0.80938 21.84019,26.37885 21.84019,28.86955 0,0.41235 -1.91584,4.72498 -4.25743,9.58363 -2.3416,4.85865 -5.43055,12.36962 -6.86434,16.69105 -1.43379,4.32143 -2.65712,7.91596 -2.7185,7.98784 -0.0614,0.0719 -0.86903,-1.18534 -1.79477,-2.79384 z"
       id="path6037"
       inkscape:connector-curvature="0" />
    <path
       style="opacity:1;fill:#000000;fill-opacity:1;stroke:none;stroke-width:5;stroke-miterlimit:4;stroke-dasharray:none;stroke-opacity:1"
       d="m 386.38384,408.97006 c -0.40384,-1.06221 -0.73427,-2.2175 -0.73427,-2.56733 0,-1.33873 -6.38026,-17.06372 -9.1943,-22.66058 -1.62171,-3.22541 -2.94855,-6.23856 -2.94855,-6.6959 0,-2.98616 19.84246,-29.20019 22.1028,-29.20019 0.98042,0 8.15168,15.98415 11.21622,25 l 3.03486,8.92858 -2.73738,2.85714 c -4.23316,4.41836 -12.07732,14.43155 -15.94115,20.34914 -1.92098,2.94203 -3.62122,5.47768 -3.77832,5.63478 -0.1571,0.1571 -0.61606,-0.58344 -1.01991,-1.64564 z"
       id="path6039"
       inkscape:connector-curvature="0" />
    <path
       style="opacity:1;fill:#000000;fill-opacity:1;stroke:none;stroke-width:5;stroke-miterlimit:4;stroke-dasharray:none;stroke-opacity:1"
       d="m 369.36521,371.05559 c -3.30409,-5.45981 -9.80533,-14.1071 -15.01216,-19.96765 -2.42977,-2.73483 -4.41776,-5.31554 -4.41776,-5.73491 0,-2.08643 15.29298,-22.78554 20.26831,-27.43323 2.21589,-2.06997 2.10624,-2.14279 8.99919,5.97624 5.26958,6.20691 15.02691,20.12889 15.0058,21.41061 -0.007,0.41454 -1.99312,3.0037 -4.41397,5.7537 -5.26746,5.98364 -11.76238,14.63943 -15.00354,19.99524 -1.29568,2.14105 -2.51651,3.89281 -2.71293,3.89281 -0.19643,0 -1.41726,-1.75176 -2.71294,-3.89281 z"
       id="path6041"
       inkscape:connector-curvature="0" />
    <path
       style="opacity:1;fill:#000000;fill-opacity:1;stroke:none;stroke-width:5;stroke-miterlimit:4;stroke-dasharray:none;stroke-opacity:1"
       d="m 342.75451,339.53151 c -7.05829,-6.23651 -12.11967,-10.11431 -18.72576,-14.3468 l -5.4602,-3.49832 2.55421,-4.24159 c 3.32642,-5.52396 11.21959,-15.97943 16.11411,-21.34513 l 3.87352,-4.24639 3.87673,2.3764 c 5.53742,3.39437 15.95437,11.36673 21.37674,16.36016 l 4.64286,4.27558 -3.65644,3.81175 c -5.17719,5.39709 -9.86405,11.3754 -14.748,18.81175 -2.32214,3.53572 -4.29103,6.49921 -4.37531,6.58554 -0.0843,0.0863 -2.54689,-1.95799 -5.47246,-4.54295 z"
       id="path6043"
       inkscape:connector-curvature="0" />
    <path
       style="opacity:1;fill:#000000;fill-opacity:1;stroke:none;stroke-width:5;stroke-miterlimit:4;stroke-dasharray:none;stroke-opacity:1"
       d="m 368.83025,310.63648 c -3.90857,-4.04745 -13.08646,-11.35427 -20.29001,-16.15354 l -6.0379,-4.02267 4.25219,-3.88931 c 5.37758,-4.91865 13.51978,-11.15825 20.19864,-15.47878 l 5.18449,-3.35383 6.93453,4.6299 c 6.45572,4.31022 19.3939,14.63259 21.458,17.11968 0.77657,0.93571 0.10612,1.62966 -4.66543,4.82897 -7.61679,5.10703 -12.73336,9.09444 -18.72283,14.59098 -2.78834,2.55886 -5.16386,4.65247 -5.27893,4.65247 -0.11507,0 -1.47981,-1.31574 -3.03275,-2.92387 z"
       id="path6045"
       inkscape:connector-curvature="0" />
    <path
       style="opacity:1;fill:#000000;fill-opacity:1;stroke:none;stroke-width:5;stroke-miterlimit:4;stroke-dasharray:none;stroke-opacity:1"
       d="m 392.42134,338.78496 c -4.18098,-6.60006 -10.67317,-14.95942 -15.61422,-20.10491 l -3.65755,-3.80887 4.64286,-4.33487 c 5.26996,-4.92037 16.52782,-13.50168 21.64765,-16.50093 2.72637,-1.59713 3.64353,-1.83686 4.45403,-1.16421 3.48862,2.89529 15.59031,18.57271 19.76519,25.60525 l 1.85834,3.13036 -6.18403,4.08753 c -6.6468,4.3934 -12.46222,8.87313 -19.22089,14.80622 l -4.24434,3.7259 -3.44704,-5.44147 z"
       id="path6047"
       inkscape:connector-curvature="0" />
    <path
       style="opacity:1;fill:#000000;fill-opacity:1;stroke:none;stroke-width:5;stroke-miterlimit:4;stroke-dasharray:none;stroke-opacity:1"
       d="m 332.43529,285.37781 c -4.71429,-2.37474 -12.47229,-5.63562 -17.24,-7.24641 l -8.66856,-2.9287 4.38285,-3.91256 c 6.20549,-5.53962 13.96214,-11.42921 20.04813,-15.22244 l 5.2239,-3.25591 5.98398,1.88914 c 6.99435,2.20812 20.79246,8.02532 25.03118,10.55298 l 2.95094,1.75973 -4.21335,2.67543 c -6.6347,4.21294 -14.47469,10.24687 -19.9208,15.33172 l -5.00684,4.67472 -8.57143,-4.3177 z"
       id="path6049"
       inkscape:connector-curvature="0" />
    <path
       style="opacity:1;fill:#000000;fill-opacity:1;stroke:none;stroke-width:5;stroke-miterlimit:4;stroke-dasharray:none;stroke-opacity:1"
       d="m 366.721,263.13799 c -5.3333,-2.98541 -12.95625,-6.22738 -21.78571,-9.26528 l -6.78572,-2.33471 8.92858,-4.2876 c 4.91071,-2.35818 12.57124,-5.49306 17.02339,-6.96641 l 8.09482,-2.6788 7.97661,2.68318 c 4.38713,1.47574 11.99446,4.60655 16.90518,6.95735 l 8.92857,4.27418 -6.78572,2.35183 c -9.34063,3.23731 -13.18627,4.8364 -20.66989,8.5949 -3.54443,1.78012 -6.69191,3.19918 -6.99441,3.15347 -0.30249,-0.0457 -2.47855,-1.16266 -4.8357,-2.48211 z"
       id="path6051"
       inkscape:connector-curvature="0" />
    <path
       style="opacity:1;fill:#000000;fill-opacity:1;stroke:none;stroke-width:5;stroke-miterlimit:4;stroke-dasharray:none;stroke-opacity:1"
       d="m 400.48043,287.28826 c -3.90154,-4.06915 -12.67721,-11.10919 -19.71995,-15.81981 -6.64547,-4.44489 -6.66759,-4.46958 -5.03228,-5.615 2.86951,-2.00988 18.02361,-8.5043 25.23164,-10.81324 l 6.94997,-2.22627 4.27073,2.59433 c 7.34912,4.46435 23.86833,17.50843 24.72002,19.5197 0.0988,0.23321 -3.54338,1.68105 -8.09364,3.21741 -4.55026,1.53636 -12.26075,4.769 -17.13442,7.18363 l -8.86121,4.39024 -2.33086,-2.43099 z"
       id="path6053"
       inkscape:connector-curvature="0" />
    <path
       style="opacity:1;fill:#000000;fill-opacity:1;stroke:none;stroke-width:5;stroke-miterlimit:4;stroke-dasharray:none;stroke-opacity:1"
       d="m 401.721,528.90507 c -2.35714,-0.5523 -7.66071,-1.4145 -11.78571,-1.916 l -7.5,-0.91181 5.71428,-0.51908 c 3.14286,-0.28549 9.19887,-1.20963 13.4578,-2.05364 6.423,-1.27286 9.04186,-1.45054 15.35714,-1.04191 10.91218,0.70609 27.01917,3.00171 26.27595,3.74493 -0.18928,0.18928 -3.82288,0.95114 -8.07466,1.69302 -10.39428,1.81367 -27.76472,2.33538 -33.4448,1.00449 z"
       id="path6055"
       inkscape:connector-curvature="0" />
    <path
       style="opacity:1;fill:#000000;fill-opacity:1;stroke:none;stroke-width:5;stroke-miterlimit:4;stroke-dasharray:none;stroke-opacity:1"
       d="m 444.87576,524.69807 c -0.538,-0.52577 -18.02602,-3.18853 -24.1994,-3.68465 l -6.04463,-0.48577 7.72032,-2.71667 c 4.24618,-1.49417 11.42572,-4.53236 15.95453,-6.75154 l 8.23421,-4.03488 9.79604,0.76968 c 9.40105,0.73864 21.73899,2.53137 24.53193,3.56455 1.00344,0.3712 -0.57126,1.39504 -6.40872,4.16682 -12.37045,5.87382 -28.0008,10.71993 -29.58428,9.17246 z"
       id="path6057"
       inkscape:connector-curvature="0" />
    <path
       style="opacity:1;fill:#000000;fill-opacity:1;stroke:none;stroke-width:5;stroke-miterlimit:4;stroke-dasharray:none;stroke-opacity:1"
       d="m 437.43529,541.04537 c -4.32143,-2.17146 -11.39286,-5.20946 -15.71429,-6.7511 l -7.85714,-2.80299 4.28571,-0.0589 c 5.57291,-0.0766 13.16358,-1.05291 22.55664,-2.90109 l 7.55664,-1.48684 8.05081,2.60266 c 7.6504,2.47321 21.05239,8.10096 23.85266,10.01618 0.71635,0.48995 0.99837,1.07875 0.6267,1.30846 -1.54897,0.95731 -18.95672,3.32434 -26.91561,3.65987 l -8.58498,0.36192 -7.85714,-3.94812 z"
       id="path6059"
       inkscape:connector-curvature="0" />
    <path
       style="opacity:1;fill:#000000;fill-opacity:1;stroke:none;stroke-width:5;stroke-miterlimit:4;stroke-dasharray:none;stroke-opacity:1"
       d="m 475.79724,535.6855 c -4.43664,-2.23041 -11.70714,-5.27353 -16.15666,-6.76249 l -8.09003,-2.70721 7.58523,-2.63061 c 8.18204,-2.8376 17.94624,-7.05018 22.67702,-9.78358 l 2.94894,-1.70387 8.86426,2.89707 c 4.87534,1.59338 12.70903,4.76402 17.4082,7.04586 l 8.54395,4.14879 -4.50167,2.28603 c -9.11465,4.62857 -28.40085,11.81271 -30.57534,11.38936 -0.35051,-0.0682 -4.26726,-1.94895 -8.7039,-4.17935 z"
       id="path6061"
       inkscape:connector-curvature="0" />
    <path
       style="opacity:1;fill:#000000;fill-opacity:1;stroke:none;stroke-width:5;stroke-miterlimit:4;stroke-dasharray:none;stroke-opacity:1"
       d="m 517.14936,523.17504 c -5.00596,-2.86156 -14.08248,-6.72083 -22.46967,-9.55393 l -7.75561,-2.61976 4.18418,-2.58912 c 6.09793,-3.77333 14.90966,-10.4804 20.443,-15.56024 l 4.83026,-4.43438 8.02689,2.61823 c 4.41478,1.44002 12.13276,4.58285 17.15106,6.98407 l 9.12419,4.36584 -2.33847,2.44607 c -5.40229,5.65089 -25.08322,20.17402 -27.30409,20.1485 -0.41177,-0.005 -2.16305,-0.81711 -3.89174,-1.80528 z"
       id="path6067"
       inkscape:connector-curvature="0" />
    <path
       style="opacity:1;fill:#000000;fill-opacity:1;stroke:none;stroke-width:5;stroke-miterlimit:4;stroke-dasharray:none;stroke-opacity:1"
       d="m 512.43529,560.24514 c -5.22682,-4.75817 -15.57705,-12.72068 -20.42425,-15.71254 -2.32023,-1.43213 -4.21861,-2.80074 -4.21861,-3.04136 0,-0.24062 3.70922,-1.68987 8.24271,-3.22057 4.53348,-1.5307 12.06148,-4.63423 16.72888,-6.89673 l 8.48618,-4.11363 5.2354,3.2561 c 6.50342,4.04474 14.61052,10.21594 20.2354,15.40338 l 4.28572,3.95242 -8.92857,4.28022 c -7.95968,3.81575 -23.17858,9.46061 -25.27805,9.37591 -0.43636,-0.0176 -2.40053,-1.49505 -4.36481,-3.2832 z"
       id="path6069"
       inkscape:connector-curvature="0" />
    <path
       style="opacity:1;fill:#000000;fill-opacity:1;stroke:none;stroke-width:5;stroke-miterlimit:4;stroke-dasharray:none;stroke-opacity:1"
       d="m 547.4077,544.14259 c -5.84405,-5.19216 -14.37181,-11.60553 -20.28414,-15.25482 l -4.20658,-2.59645 8.33058,-5.59504 c 4.58182,-3.07726 11.29615,-8.19453 14.92073,-11.37169 l 6.59014,-5.77667 5.19557,3.31414 c 6.11884,3.90307 12.60692,8.86214 19.33973,14.78205 l 4.85845,4.27185 -2.35845,2.46278 c -4.84331,5.05759 -25.05884,20.18161 -26.97576,20.18161 -0.24082,0 -2.67544,-1.98799 -5.41027,-4.41776 z"
       id="path6071"
       inkscape:connector-curvature="0" />
    <path
       style="opacity:1;fill:#000000;fill-opacity:1;stroke:none;stroke-width:5;stroke-miterlimit:4;stroke-dasharray:none;stroke-opacity:1"
       d="m 580.61328,522.42198 c -3.58944,-3.74631 -12.98456,-11.17405 -19.96371,-15.78318 -3.33928,-2.20532 -6.19233,-4.10856 -6.34011,-4.22941 -0.14777,-0.12086 1.79127,-2.56312 4.30898,-5.42725 6.24232,-7.10121 8.99051,-10.65025 13.4352,-17.35036 2.08489,-3.14286 4.03039,-5.98172 4.32333,-6.30858 1.07315,-1.19741 22.90301,14.48629 28.39528,20.40063 l 1.62267,1.74737 -4.68579,7.00847 c -4.84606,7.24819 -11.98441,16.13998 -16.2086,20.19005 l -2.42355,2.32365 -2.4637,-2.57139 z"
       id="path6073"
       inkscape:connector-curvature="0" />
    <path
       style="opacity:1;fill:#000000;fill-opacity:1;stroke:none;stroke-width:5;stroke-miterlimit:4;stroke-dasharray:none;stroke-opacity:1"
       d="m 605.02119,551.63869 c -3.60219,-5.89498 -10.573,-14.9447 -15.70866,-20.39349 l -4.55134,-4.82883 4.60488,-5.17801 c 5.51099,-6.1969 12.37718,-15.19186 15.53893,-20.35658 1.26262,-2.0625 2.5781,-3.75 2.92328,-3.75 1.93252,0 22.10701,26.51023 22.10701,29.04966 0,2.2798 -14.84725,22.22983 -20.46651,27.50056 l -2.03349,1.90737 -2.4141,-3.95068 z"
       id="path6075"
       inkscape:connector-curvature="0" />
    <path
       style="opacity:1;fill:#000000;fill-opacity:1;stroke:none;stroke-width:5;stroke-miterlimit:4;stroke-dasharray:none;stroke-opacity:1"
       d="m 573.88304,575.4405 c -3.67074,-5.89228 -9.2487,-13.24976 -14.95339,-19.72392 -2.58976,-2.93907 -4.69289,-5.5105 -4.67362,-5.71428 0.0193,-0.20379 2.72887,-2.07417 6.02136,-4.15641 5.92826,-3.74916 11.42429,-7.9534 19.22369,-14.70536 3.99089,-3.45493 4.04832,-3.47725 5.51993,-2.14546 3.21512,2.90964 11.57935,13.30687 16.37713,20.35773 l 5.05022,7.42184 -4.24831,4.0144 c -5.08399,4.80408 -13.59516,11.35086 -20.53367,15.79449 l -5.05462,3.23712 -2.72872,-4.38015 z"
       id="path6077"
       inkscape:connector-curvature="0" />
    <path
       style="opacity:1;fill:#000000;fill-opacity:1;stroke:none;stroke-width:5;stroke-miterlimit:4;stroke-dasharray:none;stroke-opacity:1"
       d="m 628.59262,520.19178 c -3.61537,-5.88908 -10.59379,-14.94842 -15.63427,-20.29629 l -4.47694,-4.74996 2.83067,-5.25688 c 3.1971,-5.93736 8.53263,-18.89776 10.33539,-25.10541 l 1.20063,-4.13425 3.63559,3.97792 c 5.22695,5.71911 8.62199,10.09719 14.15497,18.25356 l 4.87587,7.18769 -1.62059,5.13895 c -3.07637,9.75532 -10.89078,27.71704 -12.47205,28.66747 -0.22834,0.13725 -1.50152,-1.52001 -2.82927,-3.6828 z"
       id="path6079"
       inkscape:connector-curvature="0" />
    <path
       style="opacity:1;fill:#000000;fill-opacity:1;stroke:none;stroke-width:5;stroke-miterlimit:4;stroke-dasharray:none;stroke-opacity:1"
       d="m 644.99336,555.01875 c -1.91184,-6.29431 -7.59681,-19.70082 -10.53725,-24.84934 l -2.12933,-3.72832 4.35942,-8.79901 c 2.39768,-4.83945 5.59147,-12.39833 7.09731,-16.79751 1.50584,-4.39918 2.8855,-7.99851 3.06592,-7.99851 0.78061,0 8.19277,16.79546 10.81942,24.51608 2.86784,8.42957 2.87103,8.45125 1.78717,12.14286 -2.03447,6.92937 -6.12272,17.25629 -9.50265,24.00373 l -3.37325,6.73409 -1.58676,-5.22407 z"
       id="path6081"
       inkscape:connector-curvature="0" />
    <path
       style="opacity:1;fill:#000000;fill-opacity:1;stroke:none;stroke-width:5;stroke-miterlimit:4;stroke-dasharray:none;stroke-opacity:1"
       d="m 620.25372,583.54062 c -1.53444,-4.48273 -4.75452,-12.18675 -7.15574,-17.12005 l -4.36586,-8.96962 5.32878,-6.05244 c 5.06558,-5.75349 14.01991,-17.78066 15.80668,-21.23102 0.45774,-0.88393 1.09045,-1.60714 1.40601,-1.60714 1.63218,0 13.6617,29.03964 13.6617,32.97977 0,2.58874 -10.10632,16.94383 -18.74202,26.62129 l -3.14967,3.52962 -2.78988,-8.15041 z"
       id="path6087"
       inkscape:connector-curvature="0" />
    <path
       style="opacity:1;fill:#000000;fill-opacity:1;stroke:none;stroke-width:5;stroke-miterlimit:4;stroke-dasharray:none;stroke-opacity:1"
       d="m 321.00672,529.50067 c -4.72623,-0.41042 -17.5916,-2.44881 -19.19177,-3.04075 -1.57179,-0.58144 1.99896,-1.37276 12.7632,-2.82846 12.50811,-1.69154 19.89362,-1.72724 27.97078,-0.1352 4.25892,0.83945 10.15422,1.76847 13.10064,2.06448 l 5.35715,0.53822 -7.14286,0.8958 c -3.92857,0.4927 -9.39274,1.36794 -12.14259,1.94499 -4.55445,0.95573 -13.40736,1.19546 -20.71455,0.56092 z"
       id="path6089"
       inkscape:connector-curvature="0" />
    <path
       style="opacity:1;fill:#000000;fill-opacity:1;stroke:none;stroke-width:5;stroke-miterlimit:4;stroke-dasharray:none;stroke-opacity:1"
       d="m 286.3555,522.23937 c -10.91604,-3.59414 -24.90503,-10.20101 -23.0511,-10.88682 2.73101,-1.01027 15.11731,-2.81375 24.44129,-3.55872 l 9.59611,-0.76672 8.5983,4.11356 c 4.72906,2.26246 11.97019,5.30008 16.09138,6.75027 l 7.49309,2.63671 -6.04464,0.50329 c -6.89882,0.5744 -18.25255,2.20657 -22.47321,3.23066 -4.42585,1.07387 -5.84114,0.87852 -14.65122,-2.02223 z"
       id="path6091"
       inkscape:connector-curvature="0" />
    <path
       style="opacity:1;fill:#000000;fill-opacity:1;stroke:none;stroke-width:5;stroke-miterlimit:4;stroke-dasharray:none;stroke-opacity:1"
       d="m 282.79243,544.27371 c -7.55304,-0.72666 -19.23212,-2.90592 -19.70906,-3.67762 -0.71913,-1.16359 15.8688,-8.34717 27.11668,-11.74317 l 5.6219,-1.69738 9.68282,1.78835 c 5.32556,0.98359 13.03662,1.99356 17.13569,2.24436 l 7.45287,0.45601 -7.75759,2.72577 c -4.26668,1.49917 -11.39862,4.50172 -15.84875,6.67233 -8.88575,4.33413 -10.26992,4.5229 -23.69456,3.23135 z"
       id="path6093"
       inkscape:connector-curvature="0" />
    <path
       style="opacity:1;fill:#000000;fill-opacity:1;stroke:none;stroke-width:5;stroke-miterlimit:4;stroke-dasharray:none;stroke-opacity:1"
       d="m 249.93529,537.18786 c -4.51786,-1.50593 -12.07143,-4.58169 -16.78572,-6.83503 l -8.57142,-4.09698 8.54394,-4.18199 c 4.69917,-2.30009 12.53286,-5.48567 17.4082,-7.07905 l 8.86426,-2.89707 3.01784,1.76857 c 4.53582,2.65817 15.59689,7.40623 23.25781,9.98363 l 6.80634,2.28988 -7.87777,2.71303 c -4.33277,1.49217 -11.86139,4.60821 -16.73027,6.92455 -4.86887,2.31634 -9.04744,4.19734 -9.28571,4.18002 -0.23827,-0.0173 -4.12964,-1.26363 -8.6475,-2.76956 z"
       id="path6095"
       inkscape:connector-curvature="0" />
    <path
       style="opacity:1;fill:#000000;fill-opacity:1;stroke:none;stroke-width:5;stroke-miterlimit:4;stroke-dasharray:none;stroke-opacity:1"
       d="m 215.29259,520.29215 c -7.94812,-5.2772 -12.02343,-8.41855 -17.95845,-13.84282 -3.21964,-2.94257 -3.86104,-3.86542 -3.05795,-4.39983 4.35962,-2.90104 21.20718,-9.96678 29.45962,-12.35515 l 4.15766,-1.20328 4.73365,4.4281 c 5.3034,4.96107 13.73956,11.3756 20.22736,15.3801 l 4.31406,2.66279 -9.50948,3.29234 c -5.23022,1.8108 -12.9146,4.96684 -17.0764,7.01344 -4.1618,2.04659 -7.71299,3.72108 -7.89152,3.72108 -0.17854,0 -3.50788,-2.11355 -7.39855,-4.69677 z"
       id="path6097"
       inkscape:connector-curvature="0" />
    <path
       style="opacity:1;fill:#000000;fill-opacity:1;stroke:none;stroke-width:5;stroke-miterlimit:4;stroke-dasharray:none;stroke-opacity:1"
       d="m 183.84989,543.89009 c -7.08379,-4.73615 -16.19694,-12.02613 -19.84628,-15.87586 l -2.00312,-2.1131 5.2174,-4.61281 c 6.47291,-5.72284 12.24306,-10.10426 18.99633,-14.4244 l 5.2075,-3.33129 5.6775,5.00295 c 6.34039,5.58707 13.97957,11.32761 20.15443,15.14527 l 4.10408,2.53737 -4.46122,2.73258 c -6.06593,3.71549 -11.04295,7.4173 -18.86205,14.02922 -3.62953,3.06918 -6.7342,5.58033 -6.89925,5.58033 -0.16505,0 -3.44344,-2.10162 -7.28532,-4.67026 z"
       id="path6099"
       inkscape:connector-curvature="0" />
    <path
       style="opacity:1;fill:#000000;fill-opacity:1;stroke:none;stroke-width:5;stroke-miterlimit:4;stroke-dasharray:none;stroke-opacity:1"
       d="m 218.10042,560.80427 c -4.34846,-1.48866 -11.74132,-4.55909 -16.42857,-6.82319 l -8.52228,-4.11654 4.62253,-4.27936 c 5.66812,-5.24734 13.38932,-11.10271 20.08077,-15.22827 l 5.03605,-3.10493 8.49477,4.1178 c 4.67212,2.26479 12.20398,5.37019 16.73747,6.90089 4.53348,1.5307 8.2427,2.9951 8.2427,3.25422 0,0.25913 -1.40082,1.29208 -3.11294,2.29545 -4.7129,2.76194 -14.48452,10.11194 -20.20817,15.20015 -2.80876,2.49692 -5.5409,4.52874 -6.07143,4.51515 -0.53053,-0.0136 -4.52244,-1.24271 -8.8709,-2.73137 z"
       id="path6101"
       inkscape:connector-curvature="0" />
    <path
       style="opacity:1;fill:#000000;fill-opacity:1;stroke:none;stroke-width:5;stroke-miterlimit:4;stroke-dasharray:none;stroke-opacity:1"
       d="m 156.93706,520.84842 c -5.37027,-5.52609 -10.00686,-11.39914 -15.05814,-19.07378 l -4.23114,-6.42858 4.17947,-3.8322 c 6.64804,-6.09566 23.8169,-18.6678 25.49327,-18.6678 0.19216,0 1.38366,1.6875 2.64779,3.75 3.24639,5.29669 11.24054,15.80249 16.05743,21.10247 2.24707,2.47242 3.96561,4.58996 3.81899,4.70563 -0.14662,0.11567 -2.83801,1.91615 -5.98087,4.00107 -7.62347,5.05727 -13.2125,9.39131 -18.55247,14.38659 l -4.41541,4.13039 -3.95892,-4.07379 z"
       id="path6103"
       inkscape:connector-curvature="0" />
    <path
       style="opacity:1;fill:#000000;fill-opacity:1;stroke:none;stroke-width:5;stroke-miterlimit:4;stroke-dasharray:none;stroke-opacity:1"
       d="m 132.28397,551.1667 c -4.89705,-5.23496 -12.36133,-15.03436 -15.86894,-20.83336 l -2.44883,-4.04856 1.73454,-3.20018 c 3.42657,-6.3219 19.03987,-25.95282 20.64137,-25.95282 0.33016,0 1.42123,1.40082 2.42459,3.11293 2.74727,4.68787 9.75246,13.93867 15.45913,20.41479 l 5.08466,5.77023 -3.86251,4.10102 c -5.55778,5.90099 -10.1811,11.78172 -14.86137,18.90326 l -4.09488,6.2308 -4.20776,-4.49811 z"
       id="path6105"
       inkscape:connector-curvature="0" />
    <path
       style="opacity:1;fill:#000000;fill-opacity:1;stroke:none;stroke-width:5;stroke-miterlimit:4;stroke-dasharray:none;stroke-opacity:1"
       d="m 160.23115,575.07975 c -7.12197,-4.70541 -16.72583,-12.35537 -20.46718,-16.30314 l -1.95703,-2.065 4.00083,-6.03992 c 4.36028,-6.58254 13.14762,-17.67768 16.60329,-20.96377 l 2.17338,-2.06672 4.85399,4.26833 c 5.84675,5.1413 14.76181,11.89892 20.44285,15.49568 l 4.16027,2.63394 -2.94553,3.36775 c -6.50052,7.43228 -11.89473,14.38879 -15.6978,20.24428 l -4.00231,6.16225 -7.16476,-4.73368 z"
       id="path6107"
       inkscape:connector-curvature="0" />
    <path
       style="opacity:1;fill:#000000;fill-opacity:1;stroke:none;stroke-width:5;stroke-miterlimit:4;stroke-dasharray:none;stroke-opacity:1"
       d="m 111.38516,522.00209 c -2.38012,-3.90226 -7.88047,-16.88395 -10.38269,-24.50477 l -2.34253,-7.13446 1.53053,-2.68732 c 2.70847,-4.75555 9.95465,-14.51827 15.43293,-20.79265 l 5.33097,-6.10566 3.05624,8.71299 c 1.68094,4.79214 4.97507,12.57013 7.32029,17.28442 l 4.26405,8.57142 -3.80841,3.92858 c -5.22426,5.38911 -9.91293,11.33818 -14.81606,18.79888 l -4.13959,6.29889 -1.44573,-2.37032 z"
       id="path6109"
       inkscape:connector-curvature="0" />
    <path
       style="opacity:1;fill:#000000;fill-opacity:1;stroke:none;stroke-width:5;stroke-miterlimit:4;stroke-dasharray:none;stroke-opacity:1"
       d="m 93.00648,550.96158 c -2.40175,-5.05282 -5.521723,-12.68704 -6.933273,-16.96493 l -2.566454,-7.77799 2.835135,-8.47965 c 2.559147,-7.65418 10.152568,-24.89295 10.964978,-24.89295 0.180415,0 1.562372,3.61608 3.071014,8.03572 1.50864,4.41964 4.68547,11.97435 7.05962,16.78824 l 4.31664,8.75253 -1.62055,2.67604 c -2.43462,4.02033 -7.94614,16.80889 -10.499786,24.36299 l -2.260506,6.68695 -4.366818,-9.18695 z"
       id="path6111"
       inkscape:connector-curvature="0" />
    <path
       style="opacity:1;fill:#000000;fill-opacity:1;stroke:none;stroke-width:5;stroke-miterlimit:4;stroke-dasharray:none;stroke-opacity:1"
       d="m 115.27829,585.16749 c -2.99184,-3.4375 -7.96609,-10.00639 -11.05389,-14.59753 l -5.614166,-8.34754 1.304973,-4.15246 c 0.717733,-2.28386 1.982363,-6.08104 2.810283,-8.43818 1.72249,-4.90404 9.41097,-21.07207 10.01961,-21.07015 0.22246,7e-4 1.36869,1.52749 2.54718,3.39285 3.48059,5.50925 9.92492,13.96328 15.25319,20.00997 l 4.97573,5.64662 -2.06981,3.51036 c -2.68461,4.55302 -7.91827,16.91485 -10.33166,24.40321 -1.04455,3.24107 -2.01225,5.89285 -2.15045,5.89285 -0.1382,0 -2.69915,-2.8125 -5.69099,-6.25 z"
       id="path6113"
       inkscape:connector-curvature="0" />
    <path
       style="opacity:1;fill:#000000;fill-opacity:1;stroke:none;stroke-width:5;stroke-miterlimit:4;stroke-dasharray:none;stroke-opacity:1"
       d="m 302.41936,274.31254 c -2.66253,-1.0798 -19.19101,-3.65476 -26.76979,-4.17044 l -7.5,-0.51032 6.63332,-5.71429 c 3.64832,-3.14285 10.05898,-8.04464 14.24592,-10.89285 l 7.61261,-5.17858 5.41567,0 c 6.18986,0 14.93703,0.9654 23.23534,2.56441 9.13704,1.76062 8.96415,1.46938 3.10513,5.23069 -5.78668,3.71486 -18.34468,13.66072 -21.63162,17.13212 -2.28099,2.40897 -2.23887,2.39406 -4.34658,1.53926 z"
       id="path6115"
       inkscape:connector-curvature="0" />
    <path
       style="opacity:1;fill:#000000;fill-opacity:1;stroke:none;stroke-width:5;stroke-miterlimit:4;stroke-dasharray:none;stroke-opacity:1"
       d="m 325.29243,248.82797 c -4.32143,-0.92049 -11.07143,-1.88234 -15,-2.13745 -3.92857,-0.2551 -7.56317,-0.68511 -8.07689,-0.95558 -1.0928,-0.57534 9.56865,-5.70469 20.21975,-9.72795 6.09027,-2.30049 8.19544,-2.74243 14.28571,-2.999 6.94742,-0.29267 18.10902,0.88925 27.85715,2.94984 l 4.28571,0.90593 -5,1.65254 c -7.06285,2.33433 -17.79755,6.89174 -22.9732,9.75325 -5.0508,2.79249 -5.10141,2.7943 -15.59823,0.55842 z"
       id="path6117"
       inkscape:connector-curvature="0" />
    <path
       style="opacity:1;fill:#000000;fill-opacity:1;stroke:none;stroke-width:5;stroke-miterlimit:4;stroke-dasharray:none;stroke-opacity:1"
       d="m 361.721,233.84247 c -4.32143,-0.91251 -10.9982,-1.87787 -14.83727,-2.14525 -3.83907,-0.26737 -6.85774,-0.60852 -6.70816,-0.7581 0.14959,-0.14959 4.57636,-0.90524 9.83728,-1.67923 15.7029,-2.31021 38.16664,-1.73316 52.0653,1.33747 2.02605,0.44762 1.14587,0.64606 -4.64286,1.04676 -3.92857,0.27194 -11,1.28984 -15.71429,2.262 -10.0637,2.07529 -9.86755,2.07592 -20,-0.0636 z"
       id="path6119"
       inkscape:connector-curvature="0" />
    <path
       style="opacity:1;fill:#000000;fill-opacity:1;stroke:none;stroke-width:5;stroke-miterlimit:4;stroke-dasharray:none;stroke-opacity:1"
       d="m 404.221,248.81985 c -4.14698,-2.40767 -17.50902,-8.15467 -23.92857,-10.29165 l -5,-1.66444 4.28572,-0.90445 c 14.86827,-3.13774 29.14416,-3.91251 35.96149,-1.95166 5.48873,1.5787 17.00555,6.18867 22.82756,9.13745 5.54777,2.80987 5.39527,2.91507 -5.21763,3.59953 -3.53571,0.22803 -10.28571,1.20535 -15,2.17182 -4.71428,0.96648 -9.05357,1.76001 -9.64285,1.76339 -0.58929,0.003 -2.51786,-0.83361 -4.28572,-1.85999 z"
       id="path6121"
       inkscape:connector-curvature="0" />
    <path
       style="opacity:1;fill:#000000;fill-opacity:1;stroke:none;stroke-width:5;stroke-miterlimit:4;stroke-dasharray:none;stroke-opacity:1"
       d="m 435.61608,271.19083 c -5.77207,-5.30743 -12.53163,-10.61427 -19.12229,-15.01265 l -5.94149,-3.96514 2.72721,-0.72857 c 5.56284,-1.48609 16.55502,-2.9842 25.04336,-3.41313 l 8.74473,-0.44189 5.18384,3.4372 c 6.8776,4.56025 14.98952,10.79772 19.82671,15.24529 l 3.92857,3.61214 -3.77816,0.0324 c -5.99089,0.0514 -16.99749,1.42506 -25.22778,3.14849 l -7.57736,1.5867 -3.80734,-3.50086 z"
       id="path6123"
       inkscape:connector-curvature="0" />
    <path
       style="opacity:1;fill:#000000;fill-opacity:1;stroke:none;stroke-width:5;stroke-miterlimit:4;stroke-dasharray:none;stroke-opacity:1"
       d="m 290.09222,800.04429 c -10.90359,-7.30375 -21.23495,-16.03182 -20.46035,-17.28515 0.21325,-0.34505 2.5384,-0.62926 5.167,-0.63157 5.18178,-0.005 15.80978,-1.43286 24.5821,-3.30357 l 5.5171,-1.17654 4.80668,4.4964 c 5.07888,4.75105 17.56352,14.31081 21.03107,16.10394 1.13113,0.58494 2.05661,1.34185 2.05661,1.68203 0,1.30502 -25.36246,4.98751 -34.64286,5.02994 -0.39285,0.002 -4.01866,-2.21017 -8.05735,-4.91548 z"
       id="path6125"
       inkscape:connector-curvature="0" />
    <path
       style="opacity:1;fill:#000000;fill-opacity:1;stroke:none;stroke-width:5;stroke-miterlimit:4;stroke-dasharray:none;stroke-opacity:1"
       d="m 326.00672,817.53473 c -7.44191,-2.4839 -21.4379,-8.3974 -23.57721,-9.9617 -1.0386,-0.75945 0.17574,-1.04052 7.60975,-1.76132 4.86506,-0.47172 12.64418,-1.62891 17.28695,-2.57154 l 8.44139,-1.71387 8.69099,4.25151 c 4.78004,2.33832 12.2115,5.48752 16.51434,6.99821 l 7.82336,2.74671 -3.53764,0.74964 c -8.60275,1.82297 -24.9828,3.78455 -30.6805,3.67413 -0.78572,-0.0152 -4.64286,-1.10053 -8.57143,-2.41177 z"
       id="path6127"
       inkscape:connector-curvature="0" />
    <path
       style="opacity:1;fill:#000000;fill-opacity:1;stroke:none;stroke-width:5;stroke-miterlimit:4;stroke-dasharray:none;stroke-opacity:1"
       d="m 359.02511,824.25935 c -7.8644,-0.75025 -17.07122,-2.24141 -16.6207,-2.69193 0.20965,-0.20965 4.11051,-0.80913 8.66858,-1.33218 4.55807,-0.52305 11.1489,-1.6228 14.64628,-2.44388 l 6.35888,-1.49289 6.35887,1.49289 c 3.49738,0.82108 10.08821,1.92083 14.64628,2.44388 4.55807,0.52305 8.45473,1.11833 8.65925,1.32285 0.48484,0.48484 -8.13754,1.84635 -17.1644,2.71032 -8.08312,0.77365 -17.38304,0.77035 -25.55304,-0.009 z"
       id="path6129"
       inkscape:connector-curvature="0" />
    <path
       style="opacity:1;fill:#000000;fill-opacity:1;stroke:none;stroke-width:5;stroke-miterlimit:4;stroke-dasharray:none;stroke-opacity:1"
       d="m 398.19133,819.22454 c -6.3658,-0.56333 -12.57945,-1.51218 -19.29369,-2.94623 l -3.53764,-0.75558 7.82336,-2.74671 c 4.30284,-1.51069 11.7343,-4.65989 16.51434,-6.99821 l 8.69099,-4.25151 8.44139,1.71387 c 4.64277,0.94263 12.38001,2.09576 17.19388,2.56251 7.81645,0.75789 8.60042,0.95516 7.3306,1.84458 -2.50925,1.75754 -15.35391,7.19847 -23.15693,9.80915 -7.90239,2.64392 -9.00673,2.74152 -20.0063,1.76813 z"
       id="path6131"
       inkscape:connector-curvature="0" />
    <path
       style="opacity:1;fill:#000000;fill-opacity:1;stroke:none;stroke-width:5;stroke-miterlimit:4;stroke-dasharray:none;stroke-opacity:1"
       d="m 434.69084,804.20933 c -8.49957,-0.70085 -23.32698,-3.42105 -23.32698,-4.2795 0,-0.34018 0.92548,-1.09709 2.05662,-1.68203 3.46012,-1.7893 15.94757,-11.34858 21.00503,-16.07958 l 4.78064,-4.47206 7.32886,1.46398 c 8.41153,1.68024 17.56373,2.89413 23.75742,3.15103 2.35714,0.0978 4.28572,0.48458 4.28572,0.85958 0,1.23813 -12.00471,11.12278 -20.05923,16.51674 -8.71266,5.83469 -7.43638,5.54363 -19.82808,4.52184 z"
       id="path6133"
       inkscape:connector-curvature="0" />
    <path
       style="opacity:1;fill:#000000;fill-opacity:1;stroke:none;stroke-width:5;stroke-miterlimit:4;stroke-dasharray:none;stroke-opacity:1"
       d="m 96.831339,482.28796 c -1.830586,-8.71509 -2.572314,-14.20934 -3.068475,-22.72928 l -0.461819,-7.93024 3.40281,-5.26021 c 4.160715,-6.43181 10.468445,-14.70884 15.167985,-19.90349 l 3.51139,-3.88133 0.85604,9.59561 c 0.47082,5.27759 1.6394,13.43899 2.59683,18.13645 l 1.74079,8.54084 -3.38174,3.60202 c -4.81737,5.13116 -10.72861,12.66392 -15.28078,19.47248 l -3.924969,5.87046 -1.158062,-5.51331 z"
       id="path6135"
       inkscape:connector-curvature="0" />
    <path
       style="opacity:1;fill:#000000;fill-opacity:1;stroke:none;stroke-width:5;stroke-miterlimit:4;stroke-dasharray:none;stroke-opacity:1"
       d="m 82.528777,521.37538 c -1.701741,-5.41385 -4.02206,-22.87234 -4.02206,-30.26269 0,-5.2217 4.049414,-17.5952 9.430157,-28.81503 l 3.676357,-7.66588 0.566233,6.78571 c 0.66569,7.9776 2.419551,19.59466 3.720403,24.64286 l 0.920308,3.57143 -4.528055,9.33378 c -2.490431,5.13357 -5.633197,12.50748 -6.983926,16.38645 -1.35073,3.87898 -2.601467,6.58949 -2.779417,6.02337 z"
       id="path6137"
       inkscape:connector-curvature="0" />
    <path
       style="opacity:1;fill:#000000;fill-opacity:1;stroke:none;stroke-width:5;stroke-miterlimit:4;stroke-dasharray:none;stroke-opacity:1"
       d="m 75.369103,550.34606 c -2.497425,-15.15998 -2.31249,-35.51143 0.463502,-51.00685 l 0.820195,-4.57827 1.249313,9.93542 c 0.687122,5.46448 1.87245,12.61102 2.634061,15.8812 1.229554,5.2794 1.277782,6.35126 0.430326,9.56382 -1.090397,4.1335 -2.978339,15.68951 -3.767684,23.06183 l -0.535343,5 -1.29437,-7.85715 z"
       id="path6139"
       inkscape:connector-curvature="0" />
    <path
       style="opacity:1;fill:#000000;fill-opacity:1;stroke:none;stroke-width:5;stroke-miterlimit:4;stroke-dasharray:none;stroke-opacity:1"
       d="m 88.02219,590.32862 c -5.61682,-11.90495 -9.516608,-23.86632 -9.510052,-29.1691 0.0098,-7.8932 3.164952,-30.45631 4.258969,-30.45631 0.261097,0 1.043805,1.80534 1.739352,4.01187 1.868022,5.92605 7.114937,18.18868 9.888059,23.1095 l 2.425254,4.30355 -1.617008,7.6804 c -1.447945,6.87738 -2.846636,17.64031 -3.31645,25.52009 -0.165314,2.77266 -0.256631,2.65462 -3.868124,-5 z"
       id="path6141"
       inkscape:connector-curvature="0" />
    <path
       style="opacity:1;fill:#000000;fill-opacity:1;stroke:none;stroke-width:5;stroke-miterlimit:4;stroke-dasharray:none;stroke-opacity:1"
       d="m 111.12326,624.94455 c -5.08718,-5.61103 -10.65358,-12.96203 -14.754629,-19.48501 l -3.072198,-4.88653 0.459021,-8.0369 c 0.434613,-7.60956 1.643234,-16.21344 3.434596,-24.45006 l 0.802221,-3.68858 3.555909,5.4743 c 4.41802,6.80152 10.27899,14.2586 15.24987,19.40287 l 3.79616,3.92857 -1.73967,8.57143 c -0.95682,4.71428 -2.14972,12.89074 -2.65089,18.16991 l -0.91122,9.59848 -4.16917,-4.59848 z"
       id="path6143"
       inkscape:connector-curvature="0" />
    <path
       style="opacity:1;fill:#000000;fill-opacity:1;stroke:none;stroke-width:5;stroke-miterlimit:4;stroke-dasharray:none;stroke-opacity:1"
       d="m 643.86254,484.44513 c -3.71878,-5.87851 -10.37593,-14.61881 -15.43514,-20.26509 l -4.88489,-5.45174 1.73131,-8.47683 c 1.46388,-7.16743 3.22184,-21.461 3.23046,-26.26611 0.002,-1.33808 0.0276,-1.33808 1.51645,0 2.76699,2.4868 12.97175,15.55948 16.92132,21.67684 l 3.89344,6.03043 -0.49773,7.89815 c -0.45441,7.21076 -2.52265,21.47897 -3.80984,26.28292 l -0.52415,1.95622 -2.14123,-3.38479 z"
       id="path6145"
       inkscape:connector-curvature="0" />
    <path
       style="opacity:1;fill:#000000;fill-opacity:1;stroke:none;stroke-width:5;stroke-miterlimit:4;stroke-dasharray:none;stroke-opacity:1"
       d="m 658.51272,514.78787 c -1.35714,-4.01442 -4.43421,-11.28212 -6.83795,-16.15044 l -4.37042,-8.85149 1.66122,-7.57708 c 0.91367,-4.16739 2.05448,-11.97208 2.53512,-17.34375 l 0.8739,-9.76667 1.38753,2.26667 c 2.29586,3.75052 8.06907,17.679 10.13457,24.45072 1.79669,5.89043 1.90038,6.91486 1.43974,14.22462 -0.51406,8.15733 -3.00945,24.63225 -3.86741,25.53314 -0.26883,0.28228 -1.59916,-2.77129 -2.9563,-6.78572 z"
       id="path6147"
       inkscape:connector-curvature="0" />
    <path
       style="opacity:1;fill:#000000;fill-opacity:1;stroke:none;stroke-width:5;stroke-miterlimit:4;stroke-dasharray:none;stroke-opacity:1"
       d="m 666.14047,547.48892 c -0.6924,-5.5 -1.86586,-12.56597 -2.60769,-15.70216 -1.3174,-5.5695 -1.31791,-5.83539 -0.0218,-11.42857 1.32142,-5.70234 2.38827,-12.24932 3.43564,-21.08355 l 0.55044,-4.64286 1.27032,7.85714 c 2.49826,15.45221 2.29914,35.21956 -0.50727,50.35714 l -0.86075,4.64286 -1.2589,-10 z"
       id="path6149"
       inkscape:connector-curvature="0" />
    <path
       style="opacity:1;fill:#000000;fill-opacity:1;stroke:none;stroke-width:5;stroke-miterlimit:4;stroke-dasharray:none;stroke-opacity:1"
       d="m 652.14061,594.51874 c -0.0923,-5.44189 -2.09772,-20.058 -3.62908,-26.44922 l -1.33713,-5.5806 1.67713,-3.01751 c 3.03271,-5.45648 7.63715,-15.92703 10.04606,-22.84485 l 2.36766,-6.79936 0.76837,2.85351 c 1.23718,4.59455 2.78228,15.91816 3.30716,24.23739 l 0.48668,7.71368 -2.98713,8.92857 c -1.64293,4.91071 -4.70842,12.46429 -6.8122,16.78571 l -3.82506,7.85715 -0.0625,-3.68447 z"
       id="path6151"
       inkscape:connector-curvature="0" />
    <path
       style="opacity:1;fill:#000000;fill-opacity:1;stroke:none;stroke-width:5;stroke-miterlimit:4;stroke-dasharray:none;stroke-opacity:1"
       d="m 628.16443,623.0915 c -0.60249,-7.90143 -2.15988,-18.40848 -3.66317,-24.71392 l -1.15048,-4.82562 4.29814,-4.59473 c 5.02959,-5.37665 11.74443,-14.06695 15.68572,-20.30034 l 2.78553,-4.40549 1.55567,8.04733 c 1.67863,8.68336 2.94152,19.44269 2.96136,25.22961 0.0113,3.30402 -0.41599,4.2423 -5.02889,11.04235 -5.35285,7.89082 -11.32235,15.45995 -14.83205,18.80653 l -2.13016,2.03115 -0.48167,-6.31687 z"
       id="path6153"
       inkscape:connector-curvature="0" />
    <path
       style="opacity:1;fill:#000000;fill-opacity:1;stroke:none;stroke-width:5;stroke-miterlimit:4;stroke-dasharray:none;stroke-opacity:1"
       d="m 470.64957,247.81998 c -1.76785,-0.30885 -7.86342,-0.94307 -13.54571,-1.40936 -10.3119,-0.8462 -10.34496,-0.85461 -17.5,-4.45472 -3.94271,-1.98381 -10.38286,-4.85664 -14.31143,-6.38408 l -7.14286,-2.77716 5.35715,0.44961 c 16.54755,1.38881 38.54725,7.28172 50.71428,13.5845 3.54315,1.83542 2.66143,2.08014 -3.57143,0.99121 z"
       id="path6155"
       inkscape:connector-curvature="0" />
    <path
       style="opacity:1;fill:#000000;fill-opacity:1;stroke:none;stroke-width:5;stroke-miterlimit:4;stroke-dasharray:none;stroke-opacity:1"
       d="m 503.14957,272.05143 c -3.92857,-0.71994 -11.16071,-1.51725 -16.07142,-1.77181 l -8.92858,-0.46283 -3.92857,-3.72207 c -5.81604,-5.51032 -11.07385,-9.73715 -17.70617,-14.23424 l -5.92045,-4.01442 3.79634,0 c 5.03893,0 14.26196,1.16923 23.04457,2.92142 5.03133,1.00379 8.24598,2.10232 10.8745,3.7161 11.36121,6.97526 26.32141,19.08082 23.41121,18.94399 -0.78571,-0.0369 -4.64285,-0.65621 -8.57143,-1.37614 z"
       id="path6157"
       inkscape:connector-curvature="0" />
    <path
       style="opacity:1;fill:#000000;fill-opacity:1;stroke:none;stroke-width:5;stroke-miterlimit:4;stroke-dasharray:none;stroke-opacity:1"
       d="m 269.93529,246.82877 c 12.04831,-6.24128 34.64878,-12.34072 50.35714,-13.59044 l 5.71429,-0.45462 -7.14286,2.78263 c -3.92857,1.53045 -10.36619,4.40448 -14.30582,6.38674 -7.12705,3.58604 -7.21299,3.60807 -17.14286,4.39395 -5.48894,0.43441 -11.90846,1.10826 -14.26561,1.49744 -6.23279,1.02908 -6.80968,0.84679 -3.21428,-1.0157 z"
       id="path6159"
       inkscape:connector-curvature="0" />
    <path
       style="opacity:1;fill:#000000;fill-opacity:1;stroke:none;stroke-width:5;stroke-miterlimit:4;stroke-dasharray:none;stroke-opacity:1"
       d="m 234.57815,270.19858 c 4.66728,-4.31917 16.30816,-12.99437 21.16577,-15.77349 5.54924,-3.17482 26.60574,-7.11438 34.5089,-6.45644 l 2.81754,0.23456 -3.17468,2.07633 c -5.69619,3.72546 -13.37647,9.70237 -18.81427,14.64153 l -5.33113,4.84229 -8.80035,0.45268 c -4.8402,0.24898 -12.33607,1.09842 -16.6575,1.88765 -4.32143,0.78923 -8.17857,1.42709 -8.57143,1.41745 -0.39285,-0.01 0.89286,-1.50478 2.85715,-3.32256 z"
       id="path6161"
       inkscape:connector-curvature="0" />
    <path
       style="opacity:1;fill:#000000;fill-opacity:1;stroke:none;stroke-width:5;stroke-miterlimit:4;stroke-dasharray:none;stroke-opacity:1"
       d="m 648.14973,444.44895 c -3.78408,-5.98435 -10.1098,-14.17036 -14.84001,-19.20419 l -4.60321,-4.8987 -0.48914,-7.85714 c -0.47665,-7.65647 -2.74586,-23.76294 -3.73275,-26.49439 -1.4626,-4.04809 10.45045,10.23569 17.22195,20.64917 3.75601,5.77614 4.23399,6.98159 5.77201,14.55691 1.62397,7.99863 3.56252,24.40385 3.06062,25.90089 -0.13572,0.40483 -1.21099,-0.78882 -2.38947,-2.65255 z"
       id="path6163"
       inkscape:connector-curvature="0" />
    <path
       style="opacity:1;fill:#000000;fill-opacity:1;stroke:none;stroke-width:5;stroke-miterlimit:4;stroke-dasharray:none;stroke-opacity:1"
       d=""
       id="path6165"
       inkscape:connector-curvature="0" />
    <path
       style="opacity:1;fill:#000000;fill-opacity:1;stroke:none;stroke-width:5;stroke-miterlimit:4;stroke-dasharray:none;stroke-opacity:1"
       d="m 663.27356,474.76516 c -1.09461,-3.21622 -4.02163,-10.02624 -6.50448,-15.13338 l -4.51429,-9.28572 -0.43023,-8.57142 c -0.23663,-4.71429 -0.92859,-11.42815 -1.53769,-14.91969 -0.6091,-3.49154 -1.00668,-6.44903 -0.88351,-6.57219 0.12316,-0.12317 1.4689,2.57283 2.99052,5.99111 6.3876,14.34951 10.91975,31.38206 12.4796,46.90033 0.39328,3.91262 0.64199,7.18693 0.55267,7.27624 -0.0893,0.0893 -1.05797,-2.46907 -2.15259,-5.68528 z"
       id="path6167"
       inkscape:connector-curvature="0" />
    <path
       style="opacity:1;fill:#000000;fill-opacity:1;stroke:none;stroke-width:5;stroke-miterlimit:4;stroke-dasharray:none;stroke-opacity:1"
       d="m 649.57712,629.98892 c 1.31368,-7.54422 2.47485,-18.13904 2.48708,-22.69274 0.0132,-4.92698 0.25058,-5.6764 4.63752,-14.64286 2.54297,-5.19756 5.59985,-12.02154 6.79306,-15.1644 1.77005,-4.66218 2.10909,-5.18823 1.84143,-2.85714 -0.18043,1.57143 -0.52423,4.78571 -0.764,7.14286 -1.52768,15.01832 -8.389,38.45615 -14.23942,48.64093 l -1.191,2.07335 0.43533,-2.5 z"
       id="path6169"
       inkscape:connector-curvature="0" />
    <path
       style="opacity:1;fill:#000000;fill-opacity:1;stroke:none;stroke-width:5;stroke-miterlimit:4;stroke-dasharray:none;stroke-opacity:1"
       d="m 624.23039,667.69449 c 0.005,-0.11306 0.6405,-3.25914 1.41188,-6.99128 0.77137,-3.73215 1.78991,-11.60715 2.26342,-17.5 l 0.86093,-10.71429 4.69931,-5.35714 c 5.51714,-6.28946 10.18243,-12.31777 13.96612,-18.04648 1.49589,-2.26486 2.86217,-3.97554 3.03618,-3.80153 0.67193,0.67193 -1.34886,18.03689 -3.01369,25.89707 -1.88668,8.90763 -3.391,11.90544 -11.32977,22.57808 -3.30166,4.43865 -11.92189,14.5382 -11.89438,13.93557 z"
       id="path6171"
       inkscape:connector-curvature="0" />
    <path
       style="opacity:1;fill:#000000;fill-opacity:1;stroke:none;stroke-width:5;stroke-miterlimit:4;stroke-dasharray:none;stroke-opacity:1"
       d="m 454.221,802.08991 c 5.79649,-3.73528 12.41643,-8.86467 19.0316,-14.74644 l 5.10303,-4.53728 9.53983,-0.68895 c 8.4221,-0.60824 15.27127,-1.56572 23.42607,-3.27486 l 2.45767,-0.5151 -3.88624,3.51375 c -5.30968,4.80075 -11.29712,9.33838 -18.59832,14.0949 -5.71426,3.72267 -6.75581,4.1235 -15,5.7726 -4.87264,0.97468 -11.27007,1.9603 -14.21649,2.19025 -2.94643,0.22996 -6.96429,0.59021 -8.92858,0.80055 l -3.57142,0.38245 4.64285,-2.99187 z"
       id="path6173"
       inkscape:connector-curvature="0" />
    <path
       style="opacity:1;fill:#000000;fill-opacity:1;stroke:none;stroke-width:5;stroke-miterlimit:4;stroke-dasharray:none;stroke-opacity:1"
       d="m 424.57815,817.1606 c 3.14285,-1.19286 9.57142,-4.06076 14.28571,-6.37312 8.46341,-4.15131 8.66923,-4.20981 16.33221,-4.64251 4.26843,-0.24103 10.96515,-0.94767 14.88158,-1.57032 3.91644,-0.62265 7.2442,-1.00869 7.39501,-0.85788 0.47985,0.47985 -14.77124,6.75658 -21.98981,9.05011 -8.92637,2.83615 -22.79833,5.6303 -30.54756,6.15301 l -6.07143,0.40954 5.71429,-2.16883 z"
       id="path6175"
       inkscape:connector-curvature="0" />
    <path
       style="opacity:1;fill:#000000;fill-opacity:1;stroke:none;stroke-width:5;stroke-miterlimit:4;stroke-dasharray:none;stroke-opacity:1"
       d="m 311.36386,818.09459 c -8.19476,-1.2558 -18.94641,-3.9196 -26.74603,-6.62652 -7.00381,-2.43071 -18.36473,-7.32077 -17.95653,-7.72897 0.1631,-0.1631 3.5009,0.2129 7.41734,0.83555 3.91644,0.62265 10.61315,1.3377 14.88158,1.58899 7.63022,0.44921 7.90498,0.5272 16.33221,4.63577 4.71429,2.29838 11.14286,5.12992 14.28572,6.29232 l 5.71428,2.11345 -3.57143,-0.0354 c -1.96428,-0.0195 -6.625,-0.5033 -10.35714,-1.07523 z"
       id="path6177"
       inkscape:connector-curvature="0" />
    <path
       style="opacity:1;fill:#000000;fill-opacity:1;stroke:none;stroke-width:5;stroke-miterlimit:4;stroke-dasharray:none;stroke-opacity:1"
       d="m 284.35768,804.18475 c -9.97615,-0.82021 -24.41506,-3.82287 -27.76375,-5.77363 -5.47168,-3.1875 -12.8779,-8.53759 -19.29373,-13.93735 -3.61002,-3.0383 -6.48859,-5.59927 -6.39682,-5.69103 0.0918,-0.0918 3.68827,0.46869 7.99223,1.24545 4.30397,0.77677 12.09211,1.71771 17.30699,2.09099 l 9.48159,0.67869 5.51841,4.85336 c 6.82554,6.00296 12.70236,10.5315 18.66486,14.38268 2.51626,1.62526 3.96269,2.91029 3.21428,2.85562 -0.7484,-0.0547 -4.67423,-0.37181 -8.72406,-0.70478 z"
       id="path6179"
       inkscape:connector-curvature="0" />
    <path
       style="opacity:1;fill:#000000;fill-opacity:1;stroke:none;stroke-width:5;stroke-miterlimit:4;stroke-dasharray:none;stroke-opacity:1"
       d="m 114.94364,662.39079 c -5.81843,-6.69515 -12.96787,-16.65926 -15.305024,-21.33044 -2.09366,-4.18453 -4.30372,-14.62097 -5.459379,-25.78054 -1.065414,-10.28811 -0.835444,-11.54274 1.428041,-7.79089 2.745698,4.55115 9.866652,13.82063 15.162612,19.73748 4.50339,5.03137 4.87968,5.70027 4.87968,8.67432 0,5.13108 1.4017,17.42599 2.82765,24.80249 0.72145,3.73214 1.2643,6.83852 1.20633,6.90306 -0.058,0.0646 -2.19093,-2.28242 -4.73991,-5.21548 z"
       id="path6181"
       inkscape:connector-curvature="0" />
    <path
       style="opacity:1;fill:#000000;fill-opacity:1;stroke:none;stroke-width:5;stroke-miterlimit:4;stroke-dasharray:none;stroke-opacity:1"
       d="M 91.902908,626.60955 C 85.121612,611.73117 80.527282,593.97222 78.917971,576.41749 l -0.425629,-4.64285 2.758932,7.14285 c 1.517412,3.92857 4.527785,10.67857 6.689717,15 l 3.930785,7.85715 0.469129,9.28571 c 0.258021,5.10714 0.932409,11.84526 1.498641,14.97359 0.56623,3.12834 0.931203,5.78619 0.811048,5.90634 -0.120154,0.12016 -1.356613,-2.27867 -2.747686,-5.33073 z"
       id="path6183"
       inkscape:connector-curvature="0" />
    <path
       style="opacity:1;fill:#000000;fill-opacity:1;stroke:none;stroke-width:5;stroke-miterlimit:4;stroke-dasharray:none;stroke-opacity:1"
       d="m 78.935856,475.70321 c 0.734473,-8.64103 3.050054,-21.03174 5.53967,-29.64286 2.196444,-7.59709 9.571728,-26.4902 10.121833,-25.92888 0.115669,0.11803 -0.389139,4.23245 -1.121797,9.14317 -0.732658,4.91071 -1.346801,11.63838 -1.364761,14.95038 -0.03142,5.79362 -0.167767,6.28485 -3.59802,12.96285 -1.96095,3.81757 -5.006759,10.5899 -6.768462,15.04961 l -3.203098,8.10858 0.394635,-4.64285 z"
       id="path6185"
       inkscape:connector-curvature="0" />
    <path
       style="opacity:1;fill:#000000;fill-opacity:1;stroke:none;stroke-width:5;stroke-miterlimit:4;stroke-dasharray:none;stroke-opacity:1"
       d="m 93.777711,441.41749 c 0.577381,-7.96001 2.191821,-18.59594 3.740567,-24.64285 0.763269,-2.9801 2.690672,-6.67934 6.326752,-12.14286 5.28699,-7.94415 14.50448,-19.32387 15.13858,-18.68977 0.18947,0.18946 -0.30595,4.17417 -1.10094,8.85491 -0.79499,4.68073 -1.6723,12.30508 -1.94958,16.943 l -0.50414,8.43259 -4.02163,4.37249 c -5.8253,6.33352 -9.31691,10.72312 -13.988995,17.58678 l -4.132817,6.07143 0.492203,-6.78572 z"
       id="path6189"
       inkscape:connector-curvature="0" />
  </g>
</svg>
