<?xml version="1.0" encoding="UTF-8" standalone="no"?>
<!-- Created with Inkscape (http://www.inkscape.org/) -->

<svg
   xmlns:dc="http://purl.org/dc/elements/1.1/"
   xmlns:cc="http://creativecommons.org/ns#"
   xmlns:rdf="http://www.w3.org/1999/02/22-rdf-syntax-ns#"
   xmlns:svg="http://www.w3.org/2000/svg"
   xmlns="http://www.w3.org/2000/svg"
   xmlns:sodipodi="http://sodipodi.sourceforge.net/DTD/sodipodi-0.dtd"
   xmlns:inkscape="http://www.inkscape.org/namespaces/inkscape"
   width="210mm"
   height="297mm"
   viewBox="0 0 744.09448819 1052.3622047"
   id="svg2"
   version="1.1"
   inkscape:version="0.91 r13725"
   sodipodi:docname="flaming_comet.svg">
  <defs
     id="defs4" />
  <sodipodi:namedview
     id="base"
     pagecolor="#ffffff"
     bordercolor="#666666"
     borderopacity="1.0"
     inkscape:pageopacity="0.0"
     inkscape:pageshadow="2"
     inkscape:zoom="0.70710678"
     inkscape:cx="118.80114"
     inkscape:cy="695.74749"
     inkscape:document-units="px"
     inkscape:current-layer="layer1"
     showgrid="false"
     inkscape:snap-object-midpoints="true"
     inkscape:snap-center="true"
     inkscape:window-width="1879"
     inkscape:window-height="1056"
     inkscape:window-x="41"
     inkscape:window-y="24"
     inkscape:window-maximized="1" />
  <metadata
     id="metadata7">
    <rdf:RDF>
      <cc:Work
         rdf:about="">
        <dc:format>image/svg+xml</dc:format>
        <dc:type
           rdf:resource="http://purl.org/dc/dcmitype/StillImage" />
        <dc:title></dc:title>
      </cc:Work>
    </rdf:RDF>
  </metadata>
  <g
     inkscape:label="Layer 1"
     inkscape:groupmode="layer"
     id="layer1">
    <g
       id="g4433"
       transform="matrix(0.5,0.8660254,-0.8660254,0.5,415.84354,-82.028394)">
      <path
         id="rect4341"
         d="m -267.29075,177.31569 c -9.90717,0 -17.88282,7.97564 -17.88282,17.88281 0,9.90716 7.97565,17.88281 17.88282,17.88281 l 172.19922,0 c 9.90716,0 17.88281,-7.97565 17.88281,-17.88281 0,-9.90717 -7.97565,-17.88281 -17.88281,-17.88281 l -172.19922,0 z m 221.566403,0 c -9.90717,0 -17.882813,7.97564 -17.882813,17.88281 0,9.90716 7.975643,17.88281 17.882813,17.88281 l 23,0 c 9.90716,0 17.882813,-7.97565 17.882813,-17.88281 0,-9.90717 -7.975653,-17.88281 -17.882813,-17.88281 l -23,0 z m 72.529297,0 c -9.90717,0 -17.882812,7.97564 -17.882812,17.88281 -2e-6,9.90716 7.975642,17.88476 17.882812,17.88476 l 12.117187,0 110.882813,0 c 9.90716,0 17.88281,7.97565 17.88281,17.88282 0,9.90716 -7.97565,17.88281 -17.88281,17.88281 l -123,0 c -9.90717,0 -17.882812,7.97564 -17.882812,17.88281 -2e-6,9.90716 7.975642,17.88281 17.882812,17.88281 l 72,0 c 9.90716,0 17.88281,7.97565 17.88281,17.88282 0,9.90716 -7.97565,17.88281 -17.88281,17.88281 l -72,0 c -9.90717,0 -17.882812,7.97564 -17.882812,17.88281 -2e-6,9.90716 7.975642,17.88281 17.882812,17.88281 l 123,0 c 9.90716,0 17.88281,7.97565 17.88281,17.88282 0,9.90716 -7.97565,17.88281 -17.88281,17.88281 l -237,0 c -9.90717,0 -17.88281,7.97564 -17.88281,17.88281 0,9.90716 7.97564,17.88477 17.88281,17.88477 l 157,0 c 9.90716,0 17.882812,7.97564 17.882812,17.88281 0,9.90716 -7.975652,17.88281 -17.882812,17.88281 l -43,0 c -9.90717,0 -17.882812,7.97564 -17.882812,17.88281 -2e-6,9.90716 7.975642,17.88282 17.882812,17.88282 l 437.5,0 33,0 146.43555,0 c 1.31188,0 2.61964,-0.0179 3.92383,-0.0488 0.40782,-0.01 0.81364,-0.0284 1.2207,-0.041 0.88325,-0.0275 1.76501,-0.0581 2.64453,-0.0996 0.51604,-0.0244 1.03019,-0.0548 1.54492,-0.084 0.75846,-0.043 1.51594,-0.0892 2.27149,-0.14258 0.56921,-0.0402 1.13754,-0.0828 1.70507,-0.12891 0.74575,-0.0606 1.48965,-0.12861 2.23243,-0.19921 0.50617,-0.0481 1.0128,-0.0957 1.51757,-0.14844 0.84013,-0.0878 1.67753,-0.18457 2.51368,-0.28516 0.44074,-0.053 0.88264,-0.10169 1.32226,-0.1582 0.95489,-0.12283 1.906,-0.25906 2.85547,-0.39844 0.3082,-0.0452 0.61816,-0.0839 0.92578,-0.13086 1.23213,-0.18815 2.45905,-0.39167 3.68164,-0.60742 0.43513,-0.0767 0.86689,-0.16198 1.30078,-0.24219 0.78743,-0.14564 1.57415,-0.29222 2.35742,-0.44922 0.5721,-0.1146 1.1411,-0.2368 1.71094,-0.35742 0.64899,-0.13744 1.29734,-0.27472 1.94336,-0.41992 0.58028,-0.13035 1.15848,-0.26578 1.73633,-0.40234 0.6422,-0.15185 1.28274,-0.30927 1.92187,-0.46875 0.58373,-0.14558 1.16691,-0.29147 1.74805,-0.44336 0.59029,-0.15437 1.17804,-0.31571 1.76563,-0.47657 0.62923,-0.17216 1.25868,-0.34388 1.88476,-0.52343 0.54479,-0.15631 1.08654,-0.3186 1.62891,-0.48047 0.64578,-0.19264 1.29324,-0.38156 1.93555,-0.58203 0.51351,-0.16035 1.02194,-0.33077 1.5332,-0.4961 1.35179,-0.43691 2.69559,-0.89 4.03125,-1.36132 0.33886,-0.11963 0.67978,-0.23561 1.01758,-0.35743 0.80391,-0.28979 1.60255,-0.59044 2.40039,-0.89257 0.31447,-0.11914 0.62984,-0.23638 0.94336,-0.35743 0.74145,-0.28614 1.4788,-0.58022 2.21484,-0.87695 0.40639,-0.1639 0.81208,-0.32899 1.2168,-0.49609 0.73799,-0.3046 1.47273,-0.61451 2.20508,-0.92969 0.28908,-0.12446 0.57704,-0.25085 0.86523,-0.37695 0.86461,-0.37818 1.72747,-0.75952 2.58398,-1.15235 0.0851,-0.039 0.16893,-0.08 0.25391,-0.11914 4.00316,-1.84449 7.9167,-3.84688 11.73242,-6.00195 0.0137,-0.008 0.0273,-0.0157 0.041,-0.0234 0.87688,-0.49559 1.74683,-1.0022 2.61328,-1.51367 0.13397,-0.0791 0.26863,-0.15685 0.40234,-0.23633 0.86382,-0.51331 1.72298,-1.03357 2.57618,-1.5625 0.0992,-0.0615 0.19783,-0.12383 0.29687,-0.18555 20.70716,-12.90001 38.23788,-30.37588 51.20117,-51.03906 0.0948,-0.15105 0.18695,-0.30369 0.28125,-0.45508 0.7237,-1.16215 1.4343,-2.33373 2.12891,-3.51562 0.0888,-0.15097 0.17734,-0.30184 0.26562,-0.45313 2.29674,-3.93741 4.43177,-7.9799 6.39453,-12.12304 0.13716,-0.28936 0.27077,-0.58078 0.40625,-0.8711 0.48991,-1.05038 0.96973,-2.1072 1.4375,-3.16992 0.17117,-0.38868 0.34159,-0.77766 0.50977,-1.16797 0.43807,-1.01715 0.86364,-2.04036 1.28125,-3.06836 0.14801,-0.36422 0.2999,-0.72622 0.44531,-1.09179 7.33839,-18.45371 11.375,-38.60445 11.375,-59.73438 0,-21.14113 -4.04093,-41.30199 -11.38672,-59.76367 -0.13293,-0.33398 -0.27114,-0.66519 -0.40625,-0.99805 -0.42682,-1.052 -0.86425,-2.09802 -1.3125,-3.13867 -0.16613,-0.38549 -0.3329,-0.7704 -0.50195,-1.1543 -0.47841,-1.08703 -0.96914,-2.16805 -1.4707,-3.24218 -0.11984,-0.25648 -0.23823,-0.51381 -0.35938,-0.76953 -1.97499,-4.17172 -4.12401,-8.24188 -6.4375,-12.20508 -0.0648,-0.11094 -0.13026,-0.22127 -0.19531,-0.33203 -0.72191,-1.22991 -1.4595,-2.44967 -2.21289,-3.65821 -0.0695,-0.11144 -0.13923,-0.22272 -0.20899,-0.33398 -9.44408,-15.067 -21.31474,-28.44016 -35.07617,-39.58399 -0.002,-0.002 -0.004,-0.004 -0.006,-0.006 -4.3163,-3.49492 -8.81908,-6.76943 -13.49023,-9.80859 -0.89946,-0.58521 -1.80492,-1.16094 -2.7168,-1.72852 -0.036,-0.0224 -0.0714,-0.046 -0.10742,-0.0684 -0.029,-0.018 -0.0589,-0.0347 -0.0879,-0.0527 -0.88353,-0.54817 -1.77303,-1.08773 -2.66797,-1.61914 -0.0976,-0.058 -0.19521,-0.11605 -0.29297,-0.17383 -0.87072,-0.51454 -1.74568,-1.02299 -2.62695,-1.52148 -0.12197,-0.069 -0.24501,-0.13638 -0.36719,-0.20508 -3.69033,-2.0747 -7.47082,-4.00816 -11.33594,-5.79297 -0.16503,-0.0762 -0.3288,-0.15478 -0.49414,-0.23047 -0.78959,-0.36135 -1.58438,-0.71358 -2.38086,-1.0625 -0.32651,-0.14309 -0.65281,-0.28675 -0.98046,-0.42773 -0.75845,-0.32622 -1.52068,-0.64412 -2.28516,-0.95899 -0.32554,-0.13413 -0.65189,-0.26637 -0.97852,-0.39843 -0.76793,-0.31036 -1.53671,-0.61915 -2.31054,-0.91797 -0.35083,-0.13554 -0.70462,-0.26529 -1.05664,-0.39844 -0.77032,-0.29123 -1.54043,-0.58355 -2.31641,-0.86328 -0.36309,-0.13095 -0.72943,-0.2544 -1.09375,-0.38281 -0.7455,-0.26266 -1.48968,-0.52732 -2.24023,-0.7793 -0.40944,-0.13752 -0.82346,-0.26607 -1.23438,-0.40039 -0.6711,-0.21926 -1.34061,-0.44167 -2.01562,-0.65234 -0.0181,-0.006 -0.0366,-0.01 -0.0547,-0.0156 -0.62429,-0.1946 -1.25329,-0.3792 -1.88086,-0.56641 -0.54238,-0.16188 -1.08411,-0.32414 -1.62891,-0.48046 -0.62608,-0.17956 -1.25553,-0.35128 -1.88476,-0.52344 -0.5903,-0.1616 -1.18041,-0.32347 -1.77344,-0.47852 -0.56834,-0.14852 -1.13819,-0.29307 -1.70898,-0.43554 -0.66256,-0.16546 -1.32637,-0.32712 -1.99219,-0.48438 -0.55442,-0.13087 -1.10937,-0.25961 -1.66602,-0.38477 -0.66668,-0.14997 -1.33602,-0.29382 -2.00586,-0.43554 -0.55875,-0.11815 -1.11682,-0.23724 -1.67773,-0.34961 -0.78385,-0.15712 -1.57138,-0.30347 -2.35938,-0.44922 -0.43389,-0.0802 -0.86565,-0.16545 -1.30078,-0.24219 -1.22262,-0.21576 -2.44948,-0.41926 -3.68164,-0.60742 -0.30762,-0.047 -0.61758,-0.0856 -0.92578,-0.13086 -0.94949,-0.13939 -1.90055,-0.2756 -2.85547,-0.39844 -0.43962,-0.0565 -0.88152,-0.10521 -1.32226,-0.1582 -0.83701,-0.10069 -1.67464,-0.19922 -2.51563,-0.28711 -0.49955,-0.0522 -1.00102,-0.0989 -1.50195,-0.14648 -0.74993,-0.0713 -1.50095,-0.13813 -2.25391,-0.19922 -0.56366,-0.0457 -1.12804,-0.089 -1.69336,-0.12891 -0.7567,-0.0535 -1.51577,-0.0995 -2.27539,-0.14258 -0.51473,-0.0292 -1.02888,-0.0596 -1.54492,-0.084 -0.87954,-0.0416 -1.76126,-0.0721 -2.64453,-0.0996 -0.40706,-0.0127 -0.81287,-0.0314 -1.2207,-0.041 -1.30422,-0.0309 -2.61191,-0.0488 -3.92383,-0.0488 l -146.43555,0 -33,0 -425.382812,0 -12.117188,0 z m -143.5293,143.06445 c -9.90717,0 -17.88281,7.97564 -17.88281,17.88281 0,9.90716 7.97564,17.88281 17.88281,17.88281 l 23,0 c 9.90716,0 17.88282,-7.97565 17.88282,-17.88281 0,-9.90717 -7.97566,-17.88281 -17.88282,-17.88281 l -23,0 z m 74.000003,0 c -9.90717,0 -17.882812,7.97564 -17.882812,17.88281 0,9.90716 7.975642,17.88281 17.882812,17.88281 l 23,0 c 9.90716,0 17.882813,-7.97565 17.882813,-17.88281 0,-9.90717 -7.975653,-17.88281 -17.882813,-17.88281 l -23,0 z"
         style="opacity:1;fill:#d45500;stroke:none;stroke-width:5;stroke-miterlimit:4;stroke-dasharray:none;stroke-opacity:1"
         inkscape:connector-curvature="0" />
      <path
         inkscape:connector-curvature="0"
         id="path4388"
         d="m 295.80495,213.08326 c -9.90717,0 -17.88281,7.97565 -17.88281,17.88282 0,9.90716 7.97564,17.88281 17.88281,17.88281 l 264.10742,0 18.89258,0 c 9.90716,0 17.88281,7.97564 17.88281,17.88281 0,9.90716 -7.97565,17.88281 -17.88281,17.88281 l -44.25,0 -165.75,0 c -9.90717,0 -17.88281,7.97565 -17.88281,17.88282 0,9.90716 7.97564,17.88281 17.88281,17.88281 l 154.93945,0 10.06055,0 c 9.90716,0 17.88281,7.97564 17.88281,17.88281 0,9.90716 -7.97565,17.88281 -17.88281,17.88281 l -10.08984,0 -227.91016,0 c -9.90717,0 -17.88281,7.97565 -17.88281,17.88282 0,9.90716 7.97564,17.88281 17.88281,17.88281 l 238.7168,0 44.2832,0 c 9.90716,0 17.88281,7.97564 17.88281,17.88281 0,9.90716 -7.97565,17.88281 -17.88281,17.88281 l -18.75781,0 a 125.181,125.181 0 0 0 0.002,0.002 l -73.32617,0 c -9.90717,0 -17.88281,7.97564 -17.88281,17.88281 0,9.90716 7.97564,17.88281 17.88281,17.88281 l 159.63672,0 c 0.16487,0 0.3245,-0.021 0.48828,-0.0254 a 125.181,125.181 0 0 0 0.63867,0.0254 125.181,125.181 0 0 0 125.17969,-125.17969 125.181,125.181 0 0 0 -125.17969,-125.18164 125.181,125.181 0 0 0 -0.5625,0.0273 c -0.18909,-0.006 -0.37389,-0.0273 -0.56445,-0.0273 l -350.55469,0 z m -87,71.53125 c -9.90717,0 -17.88281,7.97565 -17.88281,17.88282 0,9.90716 7.97564,17.88281 17.88281,17.88281 l 23,0 c 9.90716,0 17.88281,-7.97565 17.88281,-17.88281 0,-9.90717 -7.97565,-17.88282 -17.88281,-17.88282 l -23,0 z m 81,0 c -9.90717,0 -17.88281,7.97565 -17.88281,17.88282 0,9.90716 7.97564,17.88281 17.88281,17.88281 l 23,0 c 9.90716,0 17.88281,-7.97565 17.88281,-17.88281 0,-9.90717 -7.97565,-17.88282 -17.88281,-17.88282 l -23,0 z M 192.9319,427.67897 c -9.90717,0 -17.88281,7.97564 -17.88281,17.88281 0,9.90716 7.97564,17.88281 17.88281,17.88281 l 172.19922,0 c 9.90716,0 17.88281,-7.97565 17.88281,-17.88281 0,-9.90717 -7.97565,-17.88281 -17.88281,-17.88281 l -172.19922,0 z m 219.20313,0 c -9.90717,0 -17.88281,7.97564 -17.88281,17.88281 0,9.90716 7.97564,17.88281 17.88281,17.88281 l 23,0 c 9.90716,0 17.88281,-7.97565 17.88281,-17.88281 0,-9.90717 -7.97565,-17.88281 -17.88281,-17.88281 l -23,0 z"
         style="opacity:1;fill:#d40000;stroke:none;stroke-width:4.23405933;stroke-miterlimit:4;stroke-dasharray:none;stroke-opacity:1" />
    </g>
  </g>
</svg>
