<?xml version="1.0" encoding="UTF-8" standalone="no"?>
<!-- Created with Inkscape (http://www.inkscape.org/) -->

<svg
   xmlns:dc="http://purl.org/dc/elements/1.1/"
   xmlns:cc="http://creativecommons.org/ns#"
   xmlns:rdf="http://www.w3.org/1999/02/22-rdf-syntax-ns#"
   xmlns:svg="http://www.w3.org/2000/svg"
   xmlns="http://www.w3.org/2000/svg"
   xmlns:sodipodi="http://sodipodi.sourceforge.net/DTD/sodipodi-0.dtd"
   xmlns:inkscape="http://www.inkscape.org/namespaces/inkscape"
   width="420mm"
   height="297mm"
   viewBox="0 0 1488.189 1052.3622"
   id="svg7641"
   version="1.1"
   inkscape:version="0.91 r13725"
   sodipodi:docname="flower.svg">
  <defs
     id="defs7643" />
  <sodipodi:namedview
     id="base"
     pagecolor="#ffffff"
     bordercolor="#666666"
     borderopacity="1.0"
     inkscape:pageopacity="0.0"
     inkscape:pageshadow="2"
     inkscape:zoom="0.70710678"
     inkscape:cx="468.87536"
     inkscape:cy="514.88756"
     inkscape:document-units="px"
     inkscape:current-layer="layer1"
     showgrid="false"
     inkscape:snap-center="true"
     inkscape:snap-object-midpoints="false"
     inkscape:window-width="1879"
     inkscape:window-height="1056"
     inkscape:window-x="41"
     inkscape:window-y="24"
     inkscape:window-maximized="1" />
  <metadata
     id="metadata7646">
    <rdf:RDF>
      <cc:Work
         rdf:about="">
        <dc:format>image/svg+xml</dc:format>
        <dc:type
           rdf:resource="http://purl.org/dc/dcmitype/StillImage" />
        <dc:title></dc:title>
      </cc:Work>
    </rdf:RDF>
  </metadata>
  <g
     inkscape:label="Layer 1"
     inkscape:groupmode="layer"
     id="layer1"
     transform="translate(0,-1.6535434e-6)">
    <circle
       style="opacity:1;fill:none;fill-opacity:1;stroke:#000000;stroke-width:1;stroke-miterlimit:4;stroke-dasharray:none;stroke-opacity:1"
       id="path8189"
       cx="744.09448"
       cy="526.18109"
       r="499.01199" />
    <circle
       r="249.506"
       cy="526.18109"
       cx="994.09448"
       id="circle8191"
       style="opacity:1;fill:none;fill-opacity:1;stroke:#000000;stroke-width:1;stroke-miterlimit:4;stroke-dasharray:none;stroke-opacity:1" />
    <circle
       style="opacity:1;fill:none;fill-opacity:1;stroke:#000000;stroke-width:1;stroke-miterlimit:4;stroke-dasharray:none;stroke-opacity:1"
       id="circle8193"
       cx="494.09448"
       cy="526.18109"
       r="249.506" />
    <circle
       style="opacity:1;fill:none;fill-opacity:1;stroke:#000000;stroke-width:1;stroke-miterlimit:4;stroke-dasharray:none;stroke-opacity:1"
       id="circle8195"
       cx="744.09448"
       cy="776.18109"
       r="249.506" />
    <circle
       r="249.506"
       cy="276.18109"
       cx="744.09448"
       id="circle8197"
       style="opacity:1;fill:none;fill-opacity:1;stroke:#000000;stroke-width:1;stroke-miterlimit:4;stroke-dasharray:none;stroke-opacity:1" />
    <circle
       style="opacity:1;fill:none;fill-opacity:1;stroke:#000000;stroke-width:1;stroke-miterlimit:4;stroke-dasharray:none;stroke-opacity:1"
       id="circle8199"
       cx="1119.0945"
       cy="526.18109"
       r="124.753"
       inkscape:transform-center-x="-124.75384"
       inkscape:transform-center-y="2.2107222e-05" />
    <circle
       inkscape:transform-center-y="124.75387"
       r="124.753"
       cy="-994.34064"
       cx="650.93494"
       id="circle8201"
       style="opacity:1;fill:none;fill-opacity:1;stroke:#000000;stroke-width:1;stroke-miterlimit:4;stroke-dasharray:none;stroke-opacity:1"
       transform="matrix(0,1,-1,0,0,0)" />
    <circle
       transform="scale(-1,-1)"
       style="opacity:1;fill:none;fill-opacity:1;stroke:#000000;stroke-width:1;stroke-miterlimit:4;stroke-dasharray:none;stroke-opacity:1"
       id="circle8207"
       cx="-869.58679"
       cy="-526.18109"
       r="124.753"
       inkscape:transform-center-y="2.2361855e-05"
       inkscape:transform-center-x="124.75385" />
    <circle
       inkscape:transform-center-y="-124.75386"
       r="124.753"
       cy="994.34064"
       cx="-401.42722"
       id="circle8209"
       style="opacity:1;fill:none;fill-opacity:1;stroke:#000000;stroke-width:1;stroke-miterlimit:4;stroke-dasharray:none;stroke-opacity:1"
       transform="matrix(0,-1,1,0,0,0)" />
    <circle
       inkscape:transform-center-y="2.2107222e-05"
       inkscape:transform-center-x="-124.75384"
       r="124.753"
       cy="526.18109"
       cx="618.60217"
       id="circle8211"
       style="opacity:1;fill:none;fill-opacity:1;stroke:#000000;stroke-width:1;stroke-miterlimit:4;stroke-dasharray:none;stroke-opacity:1" />
    <circle
       transform="matrix(0,1,-1,0,0,0)"
       style="opacity:1;fill:none;fill-opacity:1;stroke:#000000;stroke-width:1;stroke-miterlimit:4;stroke-dasharray:none;stroke-opacity:1"
       id="circle8213"
       cx="650.93494"
       cy="-493.84833"
       r="124.753"
       inkscape:transform-center-y="124.75387" />
    <circle
       inkscape:transform-center-x="124.75385"
       inkscape:transform-center-y="2.2361855e-05"
       r="124.753"
       cy="-526.18109"
       cx="-369.09448"
       id="circle8215"
       style="opacity:1;fill:none;fill-opacity:1;stroke:#000000;stroke-width:1;stroke-miterlimit:4;stroke-dasharray:none;stroke-opacity:1"
       transform="scale(-1,-1)" />
    <circle
       transform="matrix(0,-1,1,0,0,0)"
       style="opacity:1;fill:none;fill-opacity:1;stroke:#000000;stroke-width:1;stroke-miterlimit:4;stroke-dasharray:none;stroke-opacity:1"
       id="circle8217"
       cx="-401.42722"
       cy="493.84833"
       r="124.753"
       inkscape:transform-center-y="-124.75386" />
    <circle
       r="499.01199"
       cy="526.18109"
       cx="744.09448"
       id="circle8225"
       style="opacity:1;fill:none;fill-opacity:1;stroke:#000000;stroke-width:1;stroke-miterlimit:4;stroke-dasharray:none;stroke-opacity:1" />
    <circle
       style="opacity:1;fill:none;fill-opacity:1;stroke:#000000;stroke-width:1;stroke-miterlimit:4;stroke-dasharray:none;stroke-opacity:1"
       id="circle8229"
       cx="868.84833"
       cy="776.42725"
       r="124.753"
       inkscape:transform-center-x="-124.75384"
       inkscape:transform-center-y="2.2107222e-05" />
    <circle
       inkscape:transform-center-y="124.75387"
       r="124.753"
       cy="-744.09448"
       cx="901.18109"
       id="circle8231"
       style="opacity:1;fill:none;fill-opacity:1;stroke:#000000;stroke-width:1;stroke-miterlimit:4;stroke-dasharray:none;stroke-opacity:1"
       transform="matrix(0,1,-1,0,0,0)" />
    <circle
       transform="scale(-1,-1)"
       style="opacity:1;fill:none;fill-opacity:1;stroke:#000000;stroke-width:1;stroke-miterlimit:4;stroke-dasharray:none;stroke-opacity:1"
       id="circle8233"
       cx="-619.34064"
       cy="-776.42725"
       r="124.753"
       inkscape:transform-center-y="2.2361855e-05"
       inkscape:transform-center-x="124.75385" />
    <circle
       inkscape:transform-center-y="-124.75386"
       r="124.753"
       cy="744.09448"
       cx="-651.67334"
       id="circle8235"
       style="opacity:1;fill:none;fill-opacity:1;stroke:#000000;stroke-width:1;stroke-miterlimit:4;stroke-dasharray:none;stroke-opacity:1"
       transform="matrix(0,-1,1,0,0,0)" />
    <circle
       style="opacity:1;fill:none;fill-opacity:1;stroke:#000000;stroke-width:1;stroke-miterlimit:4;stroke-dasharray:none;stroke-opacity:1"
       id="circle8237"
       cx="744.09448"
       cy="526.18109"
       r="499.01199" />
    <circle
       inkscape:transform-center-y="2.2107222e-05"
       inkscape:transform-center-x="-124.75384"
       r="124.753"
       cy="275.93497"
       cx="868.84833"
       id="circle8241"
       style="opacity:1;fill:none;fill-opacity:1;stroke:#000000;stroke-width:1;stroke-miterlimit:4;stroke-dasharray:none;stroke-opacity:1" />
    <circle
       transform="matrix(0,1,-1,0,0,0)"
       style="opacity:1;fill:none;fill-opacity:1;stroke:#000000;stroke-width:1;stroke-miterlimit:4;stroke-dasharray:none;stroke-opacity:1"
       id="circle8243"
       cx="400.68881"
       cy="-744.09448"
       r="124.753"
       inkscape:transform-center-y="124.75387" />
    <circle
       inkscape:transform-center-x="124.75385"
       inkscape:transform-center-y="2.2361855e-05"
       r="124.753"
       cy="-275.93497"
       cx="-619.34064"
       id="circle8245"
       style="opacity:1;fill:none;fill-opacity:1;stroke:#000000;stroke-width:1;stroke-miterlimit:4;stroke-dasharray:none;stroke-opacity:1"
       transform="scale(-1,-1)" />
    <circle
       transform="matrix(0,-1,1,0,0,0)"
       style="opacity:1;fill:none;fill-opacity:1;stroke:#000000;stroke-width:1;stroke-miterlimit:4;stroke-dasharray:none;stroke-opacity:1"
       id="circle8247"
       cx="-151.18111"
       cy="744.09448"
       r="124.753"
       inkscape:transform-center-y="-124.75386" />
    <path
       style="opacity:1;fill:#000000;fill-opacity:1;stroke:#000000;stroke-width:1.41421354;stroke-miterlimit:4;stroke-dasharray:none;stroke-opacity:1"
       d="m 250.28508,463.99722 c -0.19298,-4.39468 6.369,-39.60123 10.56304,-56.67315 21.20869,-86.33028 64.51707,-164.00885 127.18342,-228.11811 52.04919,-53.24763 110.62769,-91.872845 178.97472,-118.011512 32.58798,-12.462956 80.31917,-24.887073 104.37576,-27.168322 7.89647,-0.74881 7.76606,-0.665577 -6.65906,4.249767 -60.98207,20.779582 -112.977,65.054157 -142.16422,121.055277 -17.27643,33.14802 -25.8747,63.86188 -28.53485,101.92919 l -0.95301,13.63783 -12.17624,0.91526 c -50.15388,3.76997 -93.3147,18.79019 -131.80629,45.86935 -17.1215,12.04514 -47.33711,42.25277 -59.59862,59.58293 -12.35337,17.45995 -26.53203,45.8448 -33.55502,67.17514 -3.07314,9.33381 -5.61548,16.33417 -5.64963,15.55635 z"
       id="path8360"
       inkscape:connector-curvature="0" />
    <path
       style="opacity:1;fill:#000000;fill-opacity:1;stroke:#000000;stroke-width:1.41421354;stroke-miterlimit:4;stroke-dasharray:none;stroke-opacity:1"
       d="m 667.41542,1018.1307 c -1.94454,-0.3081 -13.01184,-2.5054 -24.59399,-4.883 C 560.8991,996.43108 482.97307,958.08605 419.92805,903.56869 334.06469,829.31946 276.08965,729.24836 255.3913,619.56071 c -6.0162,-31.8819 -5.92431,-34.72279 0.50316,-15.55635 13.45824,40.13188 34.78829,73.998 64.6638,102.66796 43.66534,41.90332 97.0823,65.1868 160.33999,69.88928 l 12.17982,0.90542 0.96347,13.98878 c 6.02617,87.49586 54.26576,163.14195 130.94747,205.34304 11.21185,6.17036 23.28275,11.31606 41.0122,17.48296 12.20795,4.2464 12.72008,5.6402 1.41421,3.8489 z"
       id="path8362"
       inkscape:connector-curvature="0" />
    <path
       style="opacity:1;fill:#000000;fill-opacity:1;stroke:#000000;stroke-width:1.41421354;stroke-miterlimit:4;stroke-dasharray:none;stroke-opacity:1"
       d="m 822.97891,1014.0297 c 31.38028,-10.5614 63.11342,-28.88966 87.65313,-50.62611 48.46275,-42.92667 79.99429,-107.28568 83.06363,-169.54106 0.68817,-13.95819 1.18196,-16.61778 3.08604,-16.62184 1.24673,-0.003 9.58539,-0.67759 18.53029,-1.49986 101.0077,-9.28525 185.1929,-75.63757 216.4538,-170.6027 6.2548,-19.00099 6.7974,-17.76444 2.6801,6.10768 -24.4582,141.80781 -110.4255,266.96555 -234.69029,341.68027 -51.64558,31.05211 -109.03124,52.58902 -168.80247,63.35172 -22.53888,4.0585 -24.81,3.4182 -7.97423,-2.2481 z"
       id="path8364"
       inkscape:connector-curvature="0" />
    <path
       style="opacity:1;fill:#000000;fill-opacity:1;stroke:#000000;stroke-width:1.41421354;stroke-miterlimit:4;stroke-dasharray:none;stroke-opacity:1"
       d="m 1236.0933,461.60282 c -0.3698,-5.3982 -9.3782,-29.71527 -16.4018,-44.27465 -27.1781,-56.33842 -73.3787,-99.58747 -131.9746,-123.54319 -23.9793,-9.80348 -50.706,-15.78118 -80.3363,-17.96805 l -12.88103,-0.95069 -0.81158,-16.45027 C 991.17839,207.54737 969.96091,155.59405 934.38655,113.20979 906.409,79.876588 866.99098,53.218333 824.57566,38.945107 806.08842,32.723945 807.91448,32.024618 831.57041,36.266313 1024.2966,70.82364 1178.9834,215.2874 1226.8043,405.37971 c 5.5735,22.15548 11.0376,52.58978 10.0894,56.197 -0.5903,2.24538 -0.6482,2.24726 -0.8004,0.0262 l 0,-5e-5 z"
       id="path8366"
       inkscape:connector-curvature="0" />
    <path
       style="opacity:1;fill:#000000;fill-opacity:1;stroke:#000000;stroke-width:1.41421354;stroke-miterlimit:4;stroke-dasharray:none;stroke-opacity:1"
       d="m 742.4513,492.28149 c -5.41863,-37.85557 -19.21391,-74.21531 -39.83411,-104.98936 l -6.85936,-10.23706 11.10713,-10.97615 c 17.71702,-17.5081 29.3017,-37.78233 34.89777,-61.07424 l 2.52274,-10.50011 1.71245,8.37879 c 2.65842,13.0073 9.78688,30.03117 17.48551,41.75812 6.59607,10.04748 25.95118,30.96739 28.65104,30.96739 0.67768,0 -1.93568,4.69452 -5.80746,10.43226 -21.17224,31.37589 -35.55479,69.03447 -40.30523,105.53326 l -1.74861,13.43502 -1.82187,-12.72792 z"
       id="path8368"
       inkscape:connector-curvature="0" />
    <path
       style="opacity:1;fill:#000000;fill-opacity:1;stroke:#000000;stroke-width:1.41421354;stroke-miterlimit:4;stroke-dasharray:none;stroke-opacity:1"
       d="m 743.09737,752.49679 c -5.96813,-26.32115 -16.84821,-46.47117 -34.96627,-64.7579 l -12.31733,-12.43199 6.81448,-10.19542 c 20.34019,-30.43179 33.33533,-64.09442 39.28015,-101.7513 1.38267,-8.7584 2.69029,-14.33337 2.90582,-12.38882 4.75324,42.88497 18.62327,81.50175 41.39842,115.26095 l 6.68027,9.90205 -6.27663,4.94719 c -8.02022,6.32149 -21.46033,22.88623 -27.87286,34.35291 -5.67108,10.14083 -8.41492,17.26074 -12.10293,31.40547 -2.34801,9.0054 -2.66801,9.51632 -3.54312,5.65686 z"
       id="path8370"
       inkscape:connector-curvature="0" />
    <path
       style="opacity:1;fill:#000000;fill-opacity:1;stroke:#000000;stroke-width:1.41421354;stroke-miterlimit:4;stroke-dasharray:none;stroke-opacity:1"
       d="m 587.07811,566.46866 c -17.79064,-19.87611 -46.57728,-35.90843 -70.09418,-39.038 l -7.25332,-0.96526 9.87747,-1.99941 c 23.93481,-4.84494 46.27235,-17.18573 64.51396,-35.64196 l 10.75183,-10.87832 12.0269,7.93565 c 13.8901,9.16503 36.85667,20.72296 51.7294,26.03283 19.08597,6.81408 48.90796,13.2876 63.50336,13.78479 3.20994,0.10935 1.1007,0.67176 -5.22064,1.39203 -26.3795,3.00577 -55.8732,11.21899 -79.19595,22.054 -10.23196,4.75344 -30.36809,16.5877 -40.30509,23.68781 -2.62611,1.87639 -3.36529,1.42116 -10.33374,-6.36416 z"
       id="path8372"
       inkscape:connector-curvature="0" />
    <path
       style="opacity:1;fill:#000000;fill-opacity:1;stroke:#000000;stroke-width:1.41421354;stroke-miterlimit:4;stroke-dasharray:none;stroke-opacity:1"
       d="m 884.4972,568.47443 c -11.82464,-8.50394 -45.54465,-25.16445 -60.9542,-30.11647 -15.25316,-4.90177 -36.73239,-9.60652 -51.47578,-11.2751 -5.83363,-0.66022 -8.28335,-1.28296 -5.44383,-1.38388 10.82598,-0.38473 38.40939,-5.96289 53.77841,-10.87554 19.52137,-6.23994 45.90867,-18.842 61.68124,-29.45777 l 11.72798,-7.89354 4.53548,5.23849 c 19.21397,22.19215 48.06163,38.97869 72.81559,42.3716 l 6.64144,0.91031 -9.88361,1.97599 c -23.21262,4.64081 -45.95538,17.31363 -64.24134,35.79682 l -10.6961,10.81146 -8.48528,-6.10237 z"
       id="path8374"
       inkscape:connector-curvature="0" />
    <path
       style="opacity:1;fill:#000000;fill-opacity:1;stroke:#000000;stroke-width:1.41421354;stroke-miterlimit:4;stroke-dasharray:none;stroke-opacity:1"
       d="m 620.84059,393.40135 c 0,-15.30531 7.3415,-39.18388 17.11531,-55.66836 l 5.68127,-9.58201 3.98903,2.84043 c 7.2277,5.14658 25.87328,23.20836 35.07739,33.9791 l 9.04491,10.58443 -3.2806,2.71266 c -11.00934,9.10341 -44.61956,20.63549 -60.20269,20.65629 l -7.42462,0.01 0,-5.53245 z"
       id="path8492"
       inkscape:connector-curvature="0" />
    <path
       style="opacity:1;fill:#000000;fill-opacity:1;stroke:#000000;stroke-width:1.41421354;stroke-miterlimit:4;stroke-dasharray:none;stroke-opacity:1"
       d="m 579.76621,462.03283 c -12.15059,-10.59526 -31.95644,-32.15855 -32.55169,-35.44009 -0.35617,-1.96354 15.90706,-11.4157 26.81011,-15.58199 11.91849,-4.55431 26.9683,-7.77792 36.46073,-7.80976 l 7.32244,-0.0245 -0.74956,8.13173 c -1.08318,11.75096 -4.18584,24.74157 -8.46231,35.43107 -3.7307,9.32528 -12.30024,25.00375 -14.36356,26.27894 -0.60132,0.37164 -7.1111,-4.57177 -14.46616,-10.98535 z"
       id="path8494"
       inkscape:connector-curvature="0" />
    <path
       style="opacity:1;fill:#000000;fill-opacity:1;stroke:#000000;stroke-width:1.41421354;stroke-miterlimit:4;stroke-dasharray:none;stroke-opacity:1"
       d="M 536.8947,412.66023 C 518.91778,385.4788 503.74959,347.59268 499.97515,320.44495 l -0.78649,-5.65686 1.9449,4.96486 c 11.8379,30.21931 33.94572,54.5675 62.71905,69.07491 9.78662,4.93437 30.88417,11.45214 37.70075,11.64706 2.44089,0.0698 -0.50437,1.02044 -6.54504,2.11255 -13.99879,2.53086 -30.87849,9.03571 -41.85225,16.12839 l -8.58613,5.54948 -7.67524,-11.60511 z"
       id="path8496"
       inkscape:connector-curvature="0" />
    <path
       style="opacity:1;fill:#000000;fill-opacity:1;stroke:#000000;stroke-width:1.41421354;stroke-miterlimit:4;stroke-dasharray:none;stroke-opacity:1"
       d="m 616.88705,375.46029 c -7.20602,-37.98674 -35.81598,-73.2431 -72.41399,-89.23656 -11.89076,-5.1963 -11.53279,-5.56931 2.50986,-2.61535 29.46847,6.19888 66.26586,22.24553 89.04458,38.83066 l 5.99453,4.3646 -5.12978,8.01914 c -6.62076,10.34991 -11.39345,22.1545 -15.19443,37.5813 l -3.04564,12.36116 -1.76513,-9.30495 z"
       id="path8498"
       inkscape:connector-curvature="0" />
    <path
       style="opacity:1;fill:#000000;fill-opacity:1;stroke:#000000;stroke-width:1.41421354;stroke-miterlimit:4;stroke-dasharray:none;stroke-opacity:1"
       d="m 831.11184,713.37299 c -6.85707,-5.92173 -17.49504,-16.56715 -23.63994,-23.6565 l -11.17256,-12.88973 3.13385,-2.51781 c 12.00989,-9.64908 44.38153,-20.78648 60.47643,-20.8068 l 7.84512,-0.01 -0.9937,10.4031 c -0.54653,5.72171 -2.0189,14.47215 -3.27193,19.44544 -2.45744,9.75358 -12.88014,32.52241 -17.23408,37.64857 l -2.67581,3.1504 -12.46738,-10.76676 z"
       id="path8500"
       inkscape:connector-curvature="0" />
    <path
       style="opacity:1;fill:#000000;fill-opacity:1;stroke:#000000;stroke-width:1.41421354;stroke-miterlimit:4;stroke-dasharray:none;stroke-opacity:1"
       d="m 871.15639,644.0566 c 0,-17.84704 10.32455,-48.60435 20.94767,-62.40405 l 2.50213,-3.25033 10.54896,9.01464 c 10.75995,9.19493 28.80583,27.83177 33.96527,35.07754 l 2.86209,4.01942 -6.06813,3.83838 c -16.38271,10.36282 -36.34855,17.1497 -54.50494,18.52756 l -10.25305,0.77809 0,-5.60125 z"
       id="path8502"
       inkscape:connector-curvature="0" />
    <path
       style="opacity:1;fill:#000000;fill-opacity:1;stroke:#000000;stroke-width:1.41421354;stroke-miterlimit:4;stroke-dasharray:none;stroke-opacity:1"
       d="m 987.23243,734.10241 c -0.062,-1.16673 -1.98683,-6.08274 -4.27736,-10.92447 -16.81292,-35.53925 -50.18636,-62.05194 -87.67945,-69.65471 l -11.94322,-2.42182 7.67568,-1.01821 c 11.52277,-1.52855 28.37509,-7.54447 40.51636,-14.46347 5.95398,-3.39302 11.36603,-6.16912 12.02678,-6.16912 1.83783,0 14.08788,19.38963 22.05589,34.91051 10.92973,21.29002 24.74708,64.37434 22.46586,70.05147 -0.51869,1.29081 -0.76017,1.20169 -0.84054,-0.31018 z"
       id="path8504"
       inkscape:connector-curvature="0" />
    <path
       style="opacity:1;fill:#000000;fill-opacity:1;stroke:#000000;stroke-width:1.41421354;stroke-miterlimit:4;stroke-dasharray:none;stroke-opacity:1"
       d="m 932.67468,766.67524 c -18.91806,-4.96324 -34.72361,-10.9172 -50.91994,-19.18156 -14.01747,-7.15258 -34.63998,-20.42572 -34.63998,-22.29511 0,-0.69638 1.19219,-2.95537 2.6493,-5.01998 7.66019,-10.85386 18.36809,-39.24711 18.67556,-49.52044 0.0614,-2.05199 1.58152,2.04406 3.37801,9.10233 9.91975,38.97396 34.08433,68.28003 70.56375,85.57758 13.70858,6.50023 11.25913,6.83767 -9.7067,1.33718 z"
       id="path8506"
       inkscape:connector-curvature="0" />
    <path
       style="opacity:1;fill:#000000;fill-opacity:1;stroke:#000000;stroke-width:1.41421354;stroke-miterlimit:4;stroke-dasharray:none;stroke-opacity:1"
       d="M 637.96228,714.70377 C 628.3197,698.44067 620.84059,674.111 620.84059,659.00663 l 0,-5.91855 10.96015,0.82067 c 6.02809,0.45137 14.77854,1.82853 19.44544,3.06034 9.35788,2.46999 32.07108,12.96812 37.22172,17.20403 l 3.2806,2.69798 -9.0558,10.58443 c -9.36219,10.94253 -22.92913,24.11423 -33.16418,32.19799 l -5.8786,4.64299 -5.68764,-9.59274 z"
       id="path8508"
       inkscape:connector-curvature="0" />
    <path
       style="opacity:1;fill:#000000;fill-opacity:1;stroke:#000000;stroke-width:1.41421354;stroke-miterlimit:4;stroke-dasharray:none;stroke-opacity:1"
       d="m 500.08908,731.27398 c 3.7215,-27.52445 19.78277,-66.71261 38.96449,-95.07011 l 5.47633,-8.09598 7.61998,4.87444 c 13.98377,8.94531 37.65458,17.4596 49.51162,17.80911 2.47356,0.0729 0.0857,0.92961 -5.56965,1.99826 -43.06257,8.13716 -78.78148,38.18506 -94.92942,79.8577 l -1.93381,4.99054 0.86046,-6.36396 z"
       id="path8510"
       inkscape:connector-curvature="0" />
    <path
       style="opacity:1;fill:#000000;fill-opacity:1;stroke:#000000;stroke-width:1.41421354;stroke-miterlimit:4;stroke-dasharray:none;stroke-opacity:1"
       d="m 543.13047,766.84195 c 23.03233,-9.82921 45.66238,-29.51158 58.39917,-50.79239 7.6367,-12.7595 14.73921,-31.79444 16.08206,-43.10038 l 0.88321,-7.43613 2.45065,11.31371 c 3.26332,15.06555 8.72491,29.19189 15.41254,39.86441 l 5.48402,8.75171 -4.49036,3.42311 c -20.69085,15.77317 -54.65569,31.20018 -84.73704,38.48802 -18.64481,4.5171 -20.97413,4.39134 -9.48425,-0.51206 z"
       id="path8512"
       inkscape:connector-curvature="0" />
    <path
       style="opacity:1;fill:#000000;fill-opacity:1;stroke:#000000;stroke-width:1.41421354;stroke-miterlimit:4;stroke-dasharray:none;stroke-opacity:1"
       d="m 595.47712,647.70959 c -11.92119,-2.33821 -27.83505,-8.42175 -38.76088,-14.81749 l -10.96689,-6.41976 6.01527,-7.3497 c 7.57465,-9.25502 28.28532,-29.92521 36.15671,-36.08604 l 5.97161,-4.6739 5.03021,7.86349 c 9.35401,14.62268 16.38481,35.90365 18.13509,54.89168 l 0.74956,8.13173 -8.02955,-0.15495 c -4.41625,-0.0852 -10.85176,-0.7085 -14.30113,-1.38506 z"
       id="path8514"
       inkscape:connector-curvature="0" />
    <path
       style="opacity:1;fill:#000000;fill-opacity:1;stroke:#000000;stroke-width:1.41421354;stroke-miterlimit:4;stroke-dasharray:none;stroke-opacity:1"
       d="m 842.16501,396.58645 c -12.12252,-2.5921 -27.11592,-8.70982 -37.94106,-15.48098 l -8.12342,-5.08123 6.65506,-7.99066 c 10.26182,-12.32124 20.06201,-22.19736 31.17319,-31.41471 l 10.14855,-8.41878 2.75544,3.9006 c 9.81142,13.88909 18.06634,36.87143 19.81475,55.16585 l 1.11505,11.66726 -7.84903,-0.1153 c -4.31697,-0.0634 -12.30381,-1.06783 -17.74853,-2.23205 z"
       id="path8516"
       inkscape:connector-curvature="0" />
    <path
       style="opacity:1;fill:#000000;fill-opacity:1;stroke:#000000;stroke-width:1.41421354;stroke-miterlimit:4;stroke-dasharray:none;stroke-opacity:1"
       d="m 887.49676,463.0289 c -9.33417,-15.94557 -16.34037,-39.29419 -16.34037,-54.45534 l 0,-5.39712 7.42462,0.01 c 15.58083,0.0208 49.37048,11.61546 60.13276,20.63412 l 3.21066,2.69049 -9.72877,11.39036 c -8.9694,10.50128 -28.14675,28.95622 -35.28593,33.9567 -2.89857,2.03024 -3.24802,1.70247 -9.41297,-8.82912 z"
       id="path8518"
       inkscape:connector-curvature="0" />
    <path
       style="opacity:1;fill:#000000;fill-opacity:1;stroke:#000000;stroke-width:1.41421354;stroke-miterlimit:4;stroke-dasharray:none;stroke-opacity:1"
       d="m 867.82443,378.24545 c -1.7015,-12.82034 -10.54149,-35.33215 -18.06261,-45.998 -1.45589,-2.06462 -2.64706,-4.35773 -2.64706,-5.09581 0,-1.80815 16.78119,-12.85682 31.31709,-20.61907 16.41621,-8.76634 35.45251,-16.04935 54.56889,-20.87725 19.67785,-4.96971 23.54595,-5.12895 12.85423,-0.52921 -37.54759,16.15358 -64.08386,47.44883 -73.79403,87.02819 l -3.27386,13.34447 -0.96265,-7.25332 z"
       id="path8520"
       inkscape:connector-curvature="0" />
    <path
       style="opacity:1;fill:#000000;fill-opacity:1;stroke:#000000;stroke-width:1.41421354;stroke-miterlimit:4;stroke-dasharray:none;stroke-opacity:1"
       d="m 934.92878,418.66288 c -9.27093,-6.08909 -26.15983,-12.71059 -39.73076,-15.57692 -6.61145,-1.39642 -10.47048,-2.58371 -8.57563,-2.63844 5.66643,-0.16366 21.12679,-4.42968 31.3873,-8.66077 28.33262,-11.68343 53.35651,-36.37335 65.85677,-64.97784 5.03361,-11.51846 5.83618,-10.15261 2.49297,4.24264 -3.89922,16.78931 -10.76088,35.86453 -19.07681,53.03301 -9.07663,18.73897 -21.81294,38.95194 -24.43607,38.7809 -0.92763,-0.0605 -4.49062,-1.95165 -7.91777,-4.20258 z"
       id="path8522"
       inkscape:connector-curvature="0" />
    <path
       style="opacity:1;fill:#000000;fill-opacity:1;stroke:#000000;stroke-width:1.41421354;stroke-miterlimit:4;stroke-dasharray:none;stroke-opacity:1"
       d="m 719.15045,272.13613 c -40.89671,-8.76227 -75.09682,-37.75363 -90.09188,-76.3707 -4.5547,-11.72981 -8.21798,-28.48005 -8.21798,-37.57647 l 0,-5.73657 10.25305,0.77809 c 28.31371,2.14868 59.16432,17.25931 78.55574,38.47661 18.68964,20.44945 30.49451,46.83737 32.44374,72.52287 l 0.77809,10.25305 -6.92164,-0.11529 c -3.80691,-0.0634 -11.36651,-1.06762 -16.79912,-2.23158 z"
       id="path8524"
       inkscape:connector-curvature="0" />
    <path
       style="opacity:1;fill:#000000;fill-opacity:1;stroke:#000000;stroke-width:1.41421354;stroke-miterlimit:4;stroke-dasharray:none;stroke-opacity:1"
       d="m 745.77789,264.87822 c 3.8545,-41.47285 30.40044,-80.64372 67.22403,-99.19493 12.34838,-6.22094 30.86505,-11.51135 43.39459,-12.39828 l 11.40307,-0.80719 -1.13355,11.85867 c -4.37032,45.72001 -36.44459,86.77592 -80.28309,102.76445 -10.75664,3.9231 -27.51348,7.38207 -35.76219,7.38207 l -5.73553,0 0.89267,-9.60479 z"
       id="path8526"
       inkscape:connector-curvature="0" />
    <path
       style="opacity:1;fill:#000000;fill-opacity:1;stroke:#000000;stroke-width:1.41421354;stroke-miterlimit:4;stroke-dasharray:none;stroke-opacity:1"
       d="m 620.84059,894.24256 c 0,-25.54266 15.11732,-59.34434 35.78364,-80.01065 21.72906,-21.72907 54.08572,-36.28888 80.64573,-36.28888 l 5.60125,0 -0.77809,10.25305 c -2.33709,30.79646 -19.80958,63.63553 -44.44367,83.53068 -18.82555,15.20401 -44.10145,25.73565 -65.77712,27.40715 l -11.03174,0.85071 0,-5.74206 z"
       id="path8528"
       inkscape:connector-curvature="0" />
    <path
       style="opacity:1;fill:#000000;fill-opacity:1;stroke:#000000;stroke-width:1.41421354;stroke-miterlimit:4;stroke-dasharray:none;stroke-opacity:1"
       d="m 843.36183,897.37218 c -28.74443,-6.30603 -55.89805,-23.83297 -73.93549,-47.72339 -12.34421,-16.34978 -21.67503,-40.8702 -23.65385,-62.15982 l -0.88727,-9.54594 6.62666,0 c 15.97244,0 40.04839,7.67053 58.45771,18.62446 9.26066,5.51028 29.10342,24.47716 35.46523,33.89975 11.7348,17.38063 19.35738,38.01785 21.2127,57.4309 l 1.11505,11.66726 -7.84903,-0.142 c -4.31697,-0.0781 -11.76524,-1.00115 -16.55171,-2.05122 z"
       id="path8530"
       inkscape:connector-curvature="0" />
    <path
       style="opacity:1;fill:#000000;fill-opacity:1;stroke:#000000;stroke-width:1.41421354;stroke-miterlimit:4;stroke-dasharray:none;stroke-opacity:1"
       d="m 995.61787,520.41013 c 0.0192,-8.65271 2.88574,-22.9729 6.99693,-34.95436 13.6408,-39.75483 49.7908,-71.59706 90.8671,-80.03905 5.9952,-1.23216 13.7911,-2.24028 17.3241,-2.24028 l 6.4235,0 0,7.59684 c 0,11.64561 -6.0862,33.1859 -13.3216,47.14732 -19.2242,37.09514 -57.4368,62.99366 -98.0053,66.42296 l -10.29542,0.87028 0.0107,-4.80371 z"
       id="path8532"
       inkscape:connector-curvature="0" />
    <path
       style="opacity:1;fill:#000000;fill-opacity:1;stroke:#000000;stroke-width:1.41421354;stroke-miterlimit:4;stroke-dasharray:none;stroke-opacity:1"
       d="m 1096.1135,647.71041 c -48.98,-9.60786 -87.7736,-47.96701 -97.84154,-96.74581 -1.44519,-7.00192 -2.63598,-15.11725 -2.6462,-18.03407 -0.0183,-5.22766 0.0603,-5.3033 5.51384,-5.3033 3.0429,0 10.2023,0.91304 15.9099,2.02898 38.0284,7.43523 69.2566,30.72656 86.838,64.76741 7.2547,14.04645 13.342,35.59484 13.342,47.22914 l 0,7.59684 -7.4246,-0.15495 c -4.0835,-0.0852 -10.2447,-0.70813 -13.6914,-1.38424 z"
       id="path8534"
       inkscape:connector-curvature="0" />
    <path
       style="opacity:1;fill:#000000;fill-opacity:1;stroke:#000000;stroke-width:1.41421354;stroke-miterlimit:4;stroke-dasharray:none;stroke-opacity:1"
       d="m 475.8837,523.78828 c -33.31657,-4.60749 -66.33615,-25.97999 -85.69407,-55.46699 -10.95647,-16.68947 -19.66484,-43.00671 -19.66484,-59.42838 l 0,-5.71647 7.59684,0 c 11.6343,0 33.18269,6.08733 47.22913,13.34203 37.41353,19.32333 63.1201,57.03481 66.33969,97.32018 l 0.87593,10.96015 -6.22002,-0.21189 c -3.42101,-0.11654 -8.12921,-0.47592 -10.46266,-0.79863 z"
       id="path8536"
       inkscape:connector-curvature="0" />
    <path
       style="opacity:1;fill:#000000;fill-opacity:1;stroke:#000000;stroke-width:1.41421354;stroke-miterlimit:4;stroke-dasharray:none;stroke-opacity:1"
       d="m 370.97711,639.21778 c 4.97693,-57.6176 53.52063,-106.16129 111.13823,-111.13823 l 10.47428,-0.90475 -0.79519,10.47926 c -1.14921,15.14453 -4.53123,26.95142 -12.31889,43.00618 -12.09578,24.93621 -30.59428,43.40789 -55.91774,55.83667 -15.98886,7.84735 -27.76809,11.24365 -43.00618,12.39996 l -10.47926,0.7952 0.90475,-10.47429 z"
       id="path8538"
       inkscape:connector-curvature="0" />
    <path
       style="opacity:1;fill:#000000;fill-opacity:1;stroke:#000000;stroke-width:1.41421354;stroke-miterlimit:4;stroke-dasharray:none;stroke-opacity:1"
       d="m 747.13136,512.81256 c 3.00925,-42.64135 35.07754,-84.64849 77.57512,-101.6178 11.12122,-4.44071 27.15503,-8.01832 35.93576,-8.01832 l 6.27151,0 0,7.14545 c 0,8.8287 -3.38362,24.06741 -7.90658,35.6086 -11.24091,28.68334 -36.08404,54.58007 -64.88883,67.64079 -9.87503,4.47755 -27.46767,9.00372 -40.19521,10.34129 l -7.6317,0.80203 0.83993,-11.90204 z"
       id="path8540"
       inkscape:connector-curvature="0" />
    <path
       style="opacity:1;fill:#000000;fill-opacity:1;stroke:#000000;stroke-width:1.41421354;stroke-miterlimit:4;stroke-dasharray:none;stroke-opacity:1"
       d="m 727.78005,523.19154 c -13.90341,-1.78483 -33.69658,-8.75082 -46.83538,-16.48319 -13.37341,-7.87045 -34.40402,-28.26387 -41.47962,-40.22288 -10.79445,-18.2445 -18.62446,-42.54543 -18.62446,-57.80217 l 0,-5.92608 11.10943,0.85669 c 24.41798,1.88298 51.25113,14.26625 70.46796,32.52036 23.14519,21.98567 36.01987,47.92189 39.27428,79.11859 1.13374,10.86806 2.56132,10.05344 -13.91221,7.93868 z"
       id="path8542"
       inkscape:connector-curvature="0" />
    <path
       style="opacity:1;fill:#000000;fill-opacity:1;stroke:#000000;stroke-width:1.41421354;stroke-miterlimit:4;stroke-dasharray:none;stroke-opacity:1"
       d="m 620.84059,643.53312 c 0,-15.08758 7.98117,-39.72612 18.62446,-57.49525 10.72916,-17.91251 33.70145,-37.9018 54.2822,-47.23355 9.94754,-4.51043 27.44172,-8.96365 40.69931,-10.36018 l 8.24707,-0.86873 -0.9986,9.57185 c -4.91888,47.1489 -35.98232,88.18434 -78.9719,104.32348 -11.8097,4.43359 -27.12407,7.77886 -35.61104,7.77886 l -6.2715,0 0,-5.71648 z"
       id="path8544"
       inkscape:connector-curvature="0" />
    <path
       style="opacity:1;fill:#000000;fill-opacity:1;stroke:#000000;stroke-width:1.41421354;stroke-miterlimit:4;stroke-dasharray:none;stroke-opacity:1"
       d="m 849.94319,648.2701 c -26.4628,-4.44839 -52.65052,-18.62878 -70.86896,-38.37482 -19.16647,-20.77356 -32.26656,-51.13721 -32.34408,-74.96773 l -0.0245,-7.54893 5.3033,0.79356 c 2.91681,0.43646 8.48528,1.21643 12.37437,1.73326 14.61442,1.94216 35.04251,10.06143 48.79036,19.39203 9.42738,6.39832 24.91443,21.68127 32.01053,31.58865 12.21768,17.05802 21.69661,43.65304 21.71968,60.93886 l 0.01,7.42462 -6.71752,-0.19259 c -3.69463,-0.10593 -8.3085,-0.46004 -10.25304,-0.78691 z"
       id="path8546"
       inkscape:connector-curvature="0" />
    <path
       style="opacity:1;fill:#000000;fill-opacity:1;stroke:#000000;stroke-width:1.41421354;stroke-miterlimit:4;stroke-dasharray:none;stroke-opacity:1"
       d="m 743.30876,252.5627 c -5.94864,-25.1948 -16.32356,-45.34932 -31.8474,-61.86741 -22.29021,-23.71783 -48.89358,-36.91685 -80.73117,-40.05404 l -10.26272,-1.01127 0.89929,-10.78319 c 3.92202,-47.028405 37.65,-89.141665 83.98225,-104.861476 12.51473,-4.246055 15.66149,-4.729436 34.28552,-5.266679 17.24981,-0.497601 22.46195,-0.126326 32.82285,2.338063 23.75729,5.650782 43.39138,17.054354 60.8798,35.359275 18.79648,19.67406 31.11278,46.126617 33.3484,71.624657 l 1.00364,11.44677 -13.56189,1.62182 c -42.13312,5.03857 -78.71792,30.64042 -97.48492,68.21946 -5.80996,11.63385 -9.37253,21.59456 -11.16591,31.21903 -1.1447,6.14322 -1.18434,6.18006 -2.16774,2.01499 z"
       id="path8548"
       inkscape:connector-curvature="0" />
    <path
       style="opacity:1;fill:#000000;fill-opacity:1;stroke:#000000;stroke-width:1.41421354;stroke-miterlimit:4;stroke-dasharray:none;stroke-opacity:1"
       d="m 719.94187,1022.551 c -26.93147,-5.5956 -54.33337,-22.3162 -71.82338,-43.82643 -14.34921,-17.64749 -24.92592,-43.25223 -26.7117,-64.66534 l -0.92139,-11.04827 13.91376,-1.75735 c 29.56139,-3.73368 51.81804,-14.7471 73.43109,-36.33644 19.13551,-19.11453 28.92907,-37.07719 35.4685,-65.05383 0.93058,-3.98118 1.09444,-3.76329 2.65877,3.53554 2.56933,11.98794 4.81837,18.07146 11.53236,31.19451 18.75561,36.65936 55.45862,61.83077 97.4339,66.82144 l 12.76596,1.51782 -1.01919,11.62421 c -4.11613,46.94591 -39.03265,89.40944 -86.02383,104.61744 -10.56246,3.4184 -14.59437,3.9381 -33.23402,4.2836 -11.66726,0.2163 -24.02913,-0.1918 -27.47083,-0.9069 z"
       id="path8550"
       inkscape:connector-curvature="0" />
    <path
       style="opacity:1;fill:#000000;fill-opacity:1;stroke:#000000;stroke-width:1.41421354;stroke-miterlimit:4;stroke-dasharray:none;stroke-opacity:1"
       d="m 342.94763,646.90224 c -36.42873,-7.78937 -67.63016,-32.33136 -84.21671,-66.242 -9.21605,-18.84189 -12.63435,-33.60471 -12.64701,-54.61944 -0.0282,-46.7004 25.17509,-88.03088 66.78648,-109.52233 13.96268,-7.21144 35.57919,-13.34203 47.04412,-13.34203 l 7.41182,0 1.62309,12.65621 c 4.49311,35.03541 21.72277,65.38632 48.70132,85.78983 11.36769,8.59722 31.53126,18.31736 44.43439,21.42024 5.63369,1.35475 10.24756,2.85915 10.25305,3.3431 0.006,0.48395 -2.51324,1.2834 -5.59717,1.77654 -11.0165,1.76161 -29.75097,9.69346 -42.08093,17.81633 -30.81844,20.30294 -50.8593,52.78583 -55.65934,90.21451 l -1.67441,13.0564 -7.23961,-0.1153 c -3.98178,-0.0634 -11.69437,-1.06783 -17.13909,-2.23206 z"
       id="path8552"
       inkscape:connector-curvature="0" />
    <path
       style="opacity:1;fill:#000000;fill-opacity:1;stroke:#000000;stroke-width:1.41421354;stroke-miterlimit:4;stroke-dasharray:none;stroke-opacity:1"
       d="m 1119.481,638.57708 c -1.1917,-13.15018 -6.4875,-31.82756 -12.3306,-43.48704 -16.5092,-32.94328 -49.534,-59.31032 -82.9243,-66.20698 -4.851,-1.00195 -8.8199,-2.19942 -8.8199,-2.66105 0,-0.46162 3.3541,-1.54286 7.4537,-2.40275 34.6797,-7.27414 67.6509,-33.27986 84.2905,-66.48327 5.8721,-11.71754 11.1406,-30.35459 12.3483,-43.68208 l 0.9848,-10.86756 11.6735,0.82382 c 40.1596,2.83411 81.046,32.01336 98.8488,70.54508 8.0164,17.35042 10.676,30.13478 10.6646,51.26346 -0.019,36.50049 -11.6131,64.80762 -36.3062,88.64596 -21.6926,20.94172 -53.3214,35.18493 -78.1325,35.18493 l -6.7836,0 -0.9671,-10.67252 z"
       id="path8554"
       inkscape:connector-curvature="0" />
    <path
       style="opacity:1;fill:#000000;fill-opacity:1;stroke:#000000;stroke-width:1.41421354;stroke-miterlimit:4;stroke-dasharray:none;stroke-opacity:1"
       d="m 979.77166,773.58576 c -14.53929,-1.53946 -34.65449,-8.40675 -48.5112,-16.56161 -13.3734,-7.87045 -34.40401,-28.26387 -41.47962,-40.22288 -10.79444,-18.2445 -18.62445,-42.54543 -18.62445,-57.80217 l 0,-5.92608 11.10942,0.85669 c 24.41799,1.88298 51.25114,14.26625 70.46797,32.52036 18.15101,17.24168 30.05231,36.95236 35.60369,58.96605 3.12669,12.3987 5.18432,29.78153 3.49319,29.51037 -0.64528,-0.10346 -6.07182,-0.70679 -12.059,-1.34073 z"
       id="path8556"
       inkscape:connector-curvature="0" />
    <path
       style="opacity:1;fill:#000000;fill-opacity:1;stroke:#000000;stroke-width:1.41421354;stroke-miterlimit:4;stroke-dasharray:none;stroke-opacity:1"
       d="m 496.3898,767.84938 c 0,-24.33894 14.19912,-56.20177 34.44991,-77.30562 20.34998,-21.20721 54.1479,-36.94057 79.54023,-37.02697 l 7.21703,-0.0245 -0.62402,7.42462 c -4.95191,58.91804 -52.07101,107.02213 -110.33011,112.63646 l -10.25304,0.98806 0,-6.692 z"
       id="path8558"
       inkscape:connector-curvature="0" />
    <path
       style="opacity:1;fill:#000000;fill-opacity:1;stroke:#000000;stroke-width:1.41421354;stroke-miterlimit:4;stroke-dasharray:none;stroke-opacity:1"
       d="m 588.93621,395.48196 c -38.43174,-9.93681 -69.76151,-37.56792 -84.52809,-74.54905 -4.55357,-11.40385 -8.01832,-27.20863 -8.01832,-36.57623 l 0,-6.91199 7.42462,0.77751 c 20.69499,2.16717 43.41211,10.08862 58.5833,20.42798 9.87619,6.73074 25.26219,21.8559 32.47064,31.92014 11.82027,16.50316 20.34515,40.00491 22.10459,60.93886 l 0.62402,7.42462 -7.92413,-0.0695 c -4.35827,-0.0382 -13.68976,-1.56028 -20.73663,-3.3823 z"
       id="path8560"
       inkscape:connector-curvature="0" />
    <path
       style="opacity:1;fill:#000000;fill-opacity:1;stroke:#000000;stroke-width:1.41421354;stroke-miterlimit:4;stroke-dasharray:none;stroke-opacity:1"
       d="m 871.15639,393.42693 c 0,-15.29574 7.91932,-39.83246 18.62445,-57.70485 7.22585,-12.06367 22.77456,-27.8444 36.44375,-36.98757 17.11386,-11.44727 35.763,-17.9558 59.24902,-20.67783 l 7.5441,-0.87436 -1.00274,9.6105 c -3.24666,31.11691 -16.22813,57.285 -39.28119,79.18315 -19.08758,18.13133 -46.15151,30.6452 -70.30506,32.50779 l -11.27233,0.86926 0,-5.92609 z"
       id="path8562"
       inkscape:connector-curvature="0" />
  </g>
</svg>
