<?xml version="1.0" encoding="UTF-8" standalone="no"?>
<!-- Created with Inkscape (http://www.inkscape.org/) -->

<svg
   xmlns:dc="http://purl.org/dc/elements/1.1/"
   xmlns:cc="http://creativecommons.org/ns#"
   xmlns:rdf="http://www.w3.org/1999/02/22-rdf-syntax-ns#"
   xmlns:svg="http://www.w3.org/2000/svg"
   xmlns="http://www.w3.org/2000/svg"
   xmlns:sodipodi="http://sodipodi.sourceforge.net/DTD/sodipodi-0.dtd"
   xmlns:inkscape="http://www.inkscape.org/namespaces/inkscape"
   width="744.09448819"
   height="1052.3622047"
   id="svg5603"
   version="1.1"
   inkscape:version="0.48.4 r9939"
   sodipodi:docname="kmi_foundation_basic_logo.svg">
  <defs
     id="defs5605" />
  <sodipodi:namedview
     id="base"
     pagecolor="#ffffff"
     bordercolor="#666666"
     borderopacity="1.0"
     inkscape:pageopacity="0.0"
     inkscape:pageshadow="2"
     inkscape:zoom="0.70000002"
     inkscape:cx="250.40145"
     inkscape:cy="597.45005"
     inkscape:document-units="px"
     inkscape:current-layer="layer1"
     showgrid="false"
     inkscape:window-width="1879"
     inkscape:window-height="1056"
     inkscape:window-x="41"
     inkscape:window-y="24"
     inkscape:window-maximized="1" />
  <metadata
     id="metadata5608">
    <rdf:RDF>
      <cc:Work
         rdf:about="">
        <dc:format>image/svg+xml</dc:format>
        <dc:type
           rdf:resource="http://purl.org/dc/dcmitype/StillImage" />
        <dc:title />
      </cc:Work>
    </rdf:RDF>
  </metadata>
  <g
     inkscape:label="Layer 1"
     inkscape:groupmode="layer"
     id="layer1">
    <path
       inkscape:connector-curvature="0"
       style="fill:#000000;fill-opacity:1;stroke:none;display:inline"
       d="m 368.58434,112.66448 -6.88887,19.38003 -20.69343,0.29484 16.40464,12.51794 -6.08472,19.64798 17.04795,-11.66006 16.88712,11.84777 -5.87028,-19.70171 16.56546,-12.33032 -20.69343,-0.53608 -6.67444,-19.46039 z m -0.10721,66.61037 c -4.41787,1.88653 -8.76294,3.92983 -13.00041,6.1383 -4.23747,2.20855 -8.37006,4.5874 -12.4107,7.10335 -4.04063,2.516 -7.9668,5.17904 -11.79418,7.98788 -3.82737,2.80879 -7.5532,5.75845 -11.15086,8.84563 -4.07152,3.49375 -7.98352,7.16372 -11.74057,10.99005 -3.18064,3.2392 -6.2545,6.58845 -9.1941,10.0518 -2.93961,3.46344 -5.73171,7.049 -8.41676,10.72198 -2.68504,3.67307 -5.24926,7.44366 -7.66621,11.31174 -2.41697,3.86812 -4.69992,7.82605 -6.83527,11.87458 -1.39541,-2.64568 -2.85498,-5.25741 -4.36921,-7.82706 -1.51423,-2.56956 -3.08312,-5.09691 -4.71767,-7.58577 -1.85481,-2.8242 -3.78891,-5.59337 -5.78987,-8.30961 -2.00097,-2.71606 -4.07728,-5.38582 -6.21875,-7.98783 -2.14147,-2.60192 -4.34451,-5.13107 -6.62083,-7.61262 -2.2763,-2.48155 -4.61741,-4.90904 -7.02289,-7.26413 -0.5674,-0.55549 -1.14114,-1.11361 -1.71552,-1.66192 -1.47128,1.40448 -2.9174,2.8376 -4.3424,4.28884 -2.1414,2.18083 -4.23847,4.41731 -6.27236,6.70122 -2.03389,2.28395 -4.00207,4.61395 -5.9239,6.99601 -1.92183,2.38223 -3.79703,4.8154 -5.60224,7.29102 -1.8052,2.47558 -3.54293,4.99488 -5.22697,7.55902 -2.41061,3.67047 -4.70892,7.44211 -6.86206,11.28489 -2.15314,3.84274 -4.148,7.76459 -6.03112,11.76736 -1.88312,4.00269 -3.65319,8.07267 -5.25377,12.22307 -1.60059,4.15039 -3.03688,8.36609 -4.34241,12.65192 -1.30552,4.28588 -2.4599,8.64507 -3.45784,13.05402 -0.99792,4.409 -1.84184,8.88267 -2.51966,13.40251 -0.67781,4.51981 -1.20952,9.07902 -1.55469,13.69727 -0.34517,4.61834 -0.50929,9.28765 -0.50929,13.99219 0,4.70459 0.16412,9.37374 0.50929,13.99224 0.34517,4.61846 0.87688,9.1773 1.55469,13.69722 0.67782,4.52006 1.52174,8.99335 2.51966,13.40252 0.99794,4.4092 2.15232,8.76802 3.45784,13.05402 1.30553,4.286 2.74182,8.50152 4.34241,12.65196 1.60058,4.1504 3.37065,8.22051 5.25377,12.22307 1.88312,4.00251 3.87798,7.95188 6.03112,11.79416 2.15314,3.84237 4.45145,7.58833 6.86206,11.25814 1.68349,2.56275 3.42161,5.08581 5.22697,7.55897 1.80537,2.47316 3.68006,4.88462 5.60224,7.26405 1.92218,2.37956 3.88998,4.71452 5.9239,6.99618 2.0339,2.28165 4.13179,4.52147 6.27236,6.70125 1.42772,1.45379 2.86823,2.90875 4.3424,4.31552 3.14012,2.99675 6.3884,5.8837 9.7302,8.65809 3.34179,2.77423 6.78852,5.448 10.3199,7.98784 3.53139,2.53983 7.14714,4.94407 10.85601,7.23737 3.70888,2.29326 7.49102,4.45212 11.3653,6.48682 3.87429,2.03466 7.84701,3.94541 11.8746,5.7094 4.0276,1.76403 8.10785,3.39713 12.27667,4.87848 4.16883,1.48142 8.40759,2.80737 12.70555,3.994 4.29797,1.18658 8.66581,2.22955 13.08082,3.10935 2.94852,0.58755 5.92975,1.10776 8.92605,1.5547 2.99631,0.44689 6.01971,0.82369 9.06008,1.12575 3.04038,0.30219 6.08657,0.517 9.16729,0.67009 3.08073,0.15327 6.18397,0.24132 9.30133,0.24132 3.11735,0 6.22059,-0.088 9.30132,-0.24132 3.08073,-0.15309 6.12693,-0.3679 9.16729,-0.67009 3.04038,-0.30206 6.06377,-0.67886 9.06008,-1.12575 2.99631,-0.44694 5.97753,-0.96715 8.92605,-1.5547 4.41502,-0.8798 8.78286,-1.92277 13.08082,-3.10935 4.29796,-1.18663 8.53672,-2.51258 12.70555,-3.994 4.16883,-1.48135 8.24907,-3.11445 12.27667,-4.87848 4.0276,-1.76399 8.00032,-3.67474 11.8746,-5.7094 3.87428,-2.0347 7.65642,-4.19356 11.3653,-6.48682 3.70888,-2.2933 7.32462,-4.69754 10.85601,-7.23737 3.53138,-2.53984 6.97811,-5.21361 10.31991,-7.98784 3.34179,-2.77439 6.59008,-5.66134 9.73019,-8.65809 1.47418,-1.40677 2.91469,-2.86173 4.34241,-4.31552 2.14055,-2.17978 4.23845,-4.4196 6.27236,-6.70125 2.03391,-2.28166 4.00172,-4.61662 5.92389,-6.99618 1.92218,-2.37943 3.79688,-4.79089 5.60224,-7.26405 1.80537,-2.47316 3.54349,-4.99622 5.22697,-7.55897 2.41062,-3.66981 4.70893,-7.41577 6.86207,-11.25814 2.15314,-3.84228 4.14799,-7.79165 6.03111,-11.79416 1.88313,-4.00256 3.65319,-8.07267 5.25378,-12.22307 1.60058,-4.15044 3.03687,-8.36596 4.3424,-12.65196 1.30553,-4.286 2.45991,-8.64482 3.45784,-13.05402 0.99793,-4.40917 1.84185,-8.88246 2.51967,-13.40252 0.67781,-4.51992 1.20951,-9.07876 1.55468,-13.69722 0.34517,-4.6185 0.50929,-9.28765 0.50929,-13.99224 0,-4.70454 -0.16412,-9.37385 -0.50929,-13.99219 -0.34517,-4.61825 -0.87687,-9.17746 -1.55468,-13.69727 -0.67782,-4.51984 -1.52174,-8.99351 -2.51967,-13.40251 -0.99793,-4.40895 -2.15231,-8.76814 -3.45784,-13.05402 -1.30553,-4.28583 -2.74182,-8.50153 -4.3424,-12.65192 -1.60059,-4.1504 -3.37065,-8.22038 -5.25378,-12.22307 -1.88312,-4.00277 -3.87797,-7.92462 -6.03111,-11.76736 -2.15314,-3.84278 -4.45145,-7.61442 -6.86207,-11.28489 -1.68403,-2.56414 -3.42176,-5.08344 -5.22697,-7.55902 -1.8052,-2.47562 -3.6804,-4.90879 -5.60224,-7.29102 -1.92182,-2.38206 -3.89,-4.71206 -5.92389,-6.99601 -2.03389,-2.28391 -4.13097,-4.52039 -6.27236,-6.70122 -1.42501,-1.45124 -2.87112,-2.88436 -4.34241,-4.28884 -0.57438,0.54831 -1.14811,1.10643 -1.71551,1.66192 -2.4055,2.35509 -4.74659,4.78258 -7.0229,7.26413 -2.27632,2.48155 -4.47935,5.0107 -6.62083,7.61262 -2.14146,2.60201 -4.21777,5.27177 -6.21875,7.98783 -2.00096,2.71624 -3.93505,5.48541 -5.78986,8.30961 -1.63456,2.48886 -3.20345,5.01621 -4.71768,7.58577 -1.51422,2.56965 -2.9738,5.18138 -4.36921,7.82706 -2.13534,-4.04853 -4.41831,-8.00646 -6.83526,-11.87458 -2.41696,-3.86808 -4.98117,-7.63867 -7.66622,-11.31174 -2.68505,-3.67298 -5.47715,-7.25854 -8.41676,-10.72198 -2.93961,-3.46335 -6.01346,-6.8126 -9.1941,-10.0518 -3.75705,-3.82633 -7.66905,-7.4963 -11.74057,-10.99005 -3.59765,-3.08718 -7.32349,-6.03684 -11.15086,-8.84563 -3.82736,-2.80884 -7.75354,-5.47188 -11.79418,-7.98788 -4.04064,-2.51595 -8.17322,-4.8948 -12.4107,-7.10335 -4.23747,-2.20847 -8.58255,-4.25177 -13.0004,-6.1383 z m 0,47.73958 c 2.65112,1.55775 5.23572,3.18588 7.77343,4.90537 2.53772,1.71949 5.03446,3.54038 7.45178,5.4146 2.41733,1.87421 4.75974,3.82148 7.04971,5.84345 2.28997,2.02201 4.51879,4.10956 6.67443,6.27235 2.15565,2.16288 4.25802,4.40449 6.27236,6.7013 2.01435,2.29673 3.9506,4.6529 5.81667,7.07647 1.86609,2.4236 3.65017,4.90829 5.361,7.4518 1.71083,2.54351 3.32988,5.14372 4.87851,7.8002 1.54862,2.65653 3.01655,5.35945 4.39601,8.12194 1.37945,2.76253 2.68341,5.58205 3.88671,8.44349 1.2033,2.86157 2.30365,5.75804 3.32382,8.71166 1.02018,2.95358 1.95764,5.9677 2.78772,9.0065 0.83007,3.03867 1.56498,6.10406 2.198,9.22093 0.63302,3.11682 1.15251,6.27402 1.58149,9.46207 0.42898,3.18814 0.77381,6.42437 0.99179,9.67663 0.21797,3.25231 0.32166,6.52787 0.32166,9.83737 0,3.30942 -0.10366,6.58544 -0.32166,9.8375 -0.218,3.25197 -0.56277,6.48887 -0.99179,9.67651 -0.42901,3.18776 -0.94843,6.34571 -1.58149,9.46216 -0.63306,3.11641 -1.36788,6.18259 -2.198,9.22088 -0.83013,3.0383 -1.76749,6.02661 -2.78772,8.97965 -1.02022,2.95313 -2.12047,5.87744 -3.32382,8.73847 -1.20335,2.86098 -2.50721,5.65486 -3.88671,8.41673 -1.37951,2.76191 -2.84735,5.49283 -4.39601,8.14874 -1.54867,2.65586 -3.16764,5.25732 -4.87851,7.80016 -1.71087,2.54293 -3.49489,5.02891 -5.361,7.4518 -1.86608,2.42298 -3.82913,4.78054 -5.84347,7.07651 -2.01433,2.29601 -4.08994,4.51233 -6.24556,6.67449 -2.1556,2.16212 -4.38452,4.27778 -6.67443,6.29912 -2.28991,2.02138 -4.63248,3.96995 -7.04971,5.84345 -2.41723,1.87363 -4.91419,3.66906 -7.45178,5.38784 -2.53758,1.71877 -5.12247,3.3482 -7.77343,4.90524 -2.65096,-1.55704 -5.23586,-3.18647 -7.77344,-4.90524 -2.53759,-1.71878 -5.03455,-3.51421 -7.45178,-5.38784 -2.41723,-1.8735 -4.7598,-3.82207 -7.0497,-5.84345 -2.28991,-2.02134 -4.51883,-4.137 -6.67444,-6.29912 -2.1556,-2.16216 -4.23122,-4.37848 -6.24555,-6.67449 -2.01434,-2.29597 -3.9774,-4.65353 -5.84348,-7.07651 -1.86609,-2.42289 -3.65013,-4.90887 -5.361,-7.4518 -1.71087,-2.54284 -3.32983,-5.1443 -4.8785,-7.80016 -1.54866,-2.65591 -3.01652,-5.38683 -4.39601,-8.14874 -1.3795,-2.76187 -2.68337,-5.55575 -3.88672,-8.41673 -1.20335,-2.86103 -2.30359,-5.78534 -3.32382,-8.73847 -1.02022,-2.95304 -1.95758,-5.94135 -2.78771,-8.97965 -0.83013,-3.03829 -1.56495,-6.10447 -2.19801,-9.22088 -0.63306,-3.11645 -1.15248,-6.2744 -1.58149,-9.46216 -0.42902,-3.18764 -0.77379,-6.42454 -0.99179,-9.67651 -0.21799,-3.25206 -0.32165,-6.52808 -0.32165,-9.8375 0,-3.3095 0.10368,-6.58506 0.32165,-9.83737 0.21798,-3.25226 0.5628,-6.48849 0.99179,-9.67663 0.42899,-3.18805 0.94847,-6.34525 1.58149,-9.46207 0.63302,-3.11687 1.36793,-6.18226 2.19801,-9.22093 0.83008,-3.0388 1.76754,-6.05292 2.78771,-9.0065 1.02018,-2.95362 2.12052,-5.85009 3.32382,-8.71166 1.2033,-2.86144 2.50727,-5.68096 3.88672,-8.44349 1.37944,-2.76249 2.84739,-5.46541 4.39601,-8.12194 1.54862,-2.65648 3.16767,-5.25669 4.8785,-7.8002 1.71084,-2.54351 3.49491,-5.0282 5.361,-7.4518 1.86607,-2.42357 3.80232,-4.77974 5.81667,-7.07647 2.01435,-2.29681 4.11672,-4.53842 6.27236,-6.7013 2.15564,-2.16279 4.38447,-4.25034 6.67444,-6.27235 2.28997,-2.02197 4.63237,-3.96924 7.0497,-5.84345 2.41732,-1.87422 4.91406,-3.69511 7.45178,-5.4146 2.53771,-1.71949 5.12231,-3.34762 7.77344,-4.90537 z m -128.6638,59.74834 c 1.20148,2.41296 2.33672,4.85615 3.40423,7.34455 1.0675,2.48823 2.07324,5.02669 3.00215,7.58573 0.92891,2.55909 1.78761,5.14819 2.57327,7.77345 0.78568,2.62534 1.4798,5.27414 2.1176,7.96115 0.6378,2.68701 1.20341,5.40449 1.68871,8.14861 0.48531,2.74421 0.90486,5.51275 1.23303,8.3096 0.32817,2.79677 0.58414,5.62552 0.75054,8.47039 0.16639,2.84482 0.24124,5.71599 0.24124,8.60431 0,3.90708 0.10926,7.78518 0.34847,11.63335 0.2392,3.84825 0.60109,7.66339 1.07219,11.4458 0.4711,3.78224 1.07344,7.52177 1.76913,11.23124 0.69569,3.70943 1.49947,7.38726 2.41245,11.01673 0.91298,3.62961 1.9328,7.23299 3.05576,10.77563 1.12296,3.54272 2.34665,7.03208 3.67228,10.48078 1.32565,3.44866 2.74098,6.83816 4.26199,10.18586 1.52101,3.34775 3.14262,6.65124 4.8517,9.89102 2.13488,4.04694 4.41811,8.00888 6.83527,11.87462 2.41715,3.86574 4.98082,7.64126 7.66621,11.3117 2.68539,3.67043 5.47718,7.23403 8.41676,10.69513 2.93958,3.46126 6.01437,6.81402 9.1941,10.05192 -3.85059,-1.76574 -7.6007,-3.70442 -11.25808,-5.78988 -3.65739,-2.08547 -7.22274,-4.31314 -10.66838,-6.70122 -3.44563,-2.38807 -6.78291,-4.93897 -9.99825,-7.61262 -3.21533,-2.67365 -6.30803,-5.47455 -9.27451,-8.41673 -2.76769,-2.74504 -5.42558,-5.61483 -7.96107,-8.57764 -2.53549,-2.96277 -4.94763,-6.02816 -7.23734,-9.19413 -2.28972,-3.16596 -4.45645,-6.42912 -6.4868,-9.7838 -2.03035,-3.3546 -3.92524,-6.79106 -5.68265,-10.31992 -1.20148,-2.41242 -2.33673,-4.85644 -3.40423,-7.34455 -1.06751,-2.48802 -2.07325,-5.02686 -3.00215,-7.58581 -0.92892,-2.55901 -1.78761,-5.14802 -2.57328,-7.77341 -0.78568,-2.6253 -1.47979,-5.27389 -2.11759,-7.96111 -0.63781,-2.68705 -1.20341,-5.40432 -1.68872,-8.1487 -0.4853,-2.74433 -0.90486,-5.51245 -1.23302,-8.30943 -0.32817,-2.79698 -0.58415,-5.62548 -0.75055,-8.47038 -0.16639,-2.84499 -0.24124,-5.71599 -0.24124,-8.60445 0,-2.88832 0.0749,-5.75949 0.24124,-8.60431 0.1664,-2.84487 0.42238,-5.67362 0.75055,-8.47039 0.32816,-2.79685 0.74772,-5.56539 1.23302,-8.3096 0.48531,-2.74412 1.05091,-5.4616 1.68872,-8.14861 0.6378,-2.68701 1.33191,-5.33581 2.11759,-7.96115 0.78567,-2.62526 1.64436,-5.21436 2.57328,-7.77345 0.9289,-2.55904 1.93464,-5.0975 3.00215,-7.58573 1.0675,-2.4884 2.20275,-4.93159 3.40423,-7.34455 z m 257.32759,0 c 1.20149,2.41296 2.33673,4.85615 3.40424,7.34455 1.0675,2.48823 2.07324,5.02669 3.00215,7.58573 0.92891,2.55909 1.78761,5.14819 2.57327,7.77345 0.78568,2.62534 1.4798,5.27414 2.1176,7.96115 0.63781,2.68701 1.20341,5.40449 1.68871,8.14861 0.48531,2.74421 0.90486,5.51275 1.23303,8.3096 0.32817,2.79677 0.58414,5.62552 0.75054,8.47039 0.16639,2.84482 0.24125,5.71599 0.24125,8.60431 0,2.88846 -0.0749,5.75946 -0.24125,8.60445 -0.1664,2.8449 -0.42237,5.6734 -0.75054,8.47038 -0.32817,2.79689 -0.74772,5.5651 -1.23303,8.30943 -0.4853,2.74438 -1.0509,5.46165 -1.68871,8.1487 -0.6378,2.68722 -1.33192,5.33581 -2.1176,7.96111 -0.78566,2.62539 -1.64436,5.2144 -2.57327,7.77341 -0.92891,2.55895 -1.93465,5.09779 -3.00215,7.58581 -1.06751,2.48811 -2.20275,4.93213 -3.40424,7.34455 -1.7574,3.52886 -3.6523,6.96532 -5.68265,10.31992 -2.03035,3.35468 -4.19709,6.61784 -6.4868,9.7838 -2.2897,3.16597 -4.70184,6.23136 -7.23733,9.19413 -2.53549,2.96281 -5.19339,5.8326 -7.96107,8.57764 -2.96649,2.94218 -6.05919,5.74308 -9.27452,8.41673 -3.21533,2.67365 -6.55262,5.22455 -9.99825,7.61262 -3.44563,2.38808 -7.01098,4.61575 -10.66838,6.70122 -3.65739,2.08546 -7.40749,4.02414 -11.25808,5.78988 3.17974,-3.2379 6.25452,-6.59066 9.1941,-10.05192 2.93958,-3.4611 5.73137,-7.0247 8.41676,-10.69513 2.68539,-3.67044 5.24906,-7.44596 7.66622,-11.3117 2.41715,-3.86574 4.70039,-7.82768 6.83526,-11.87462 1.70908,-3.23978 3.33069,-6.54327 4.8517,-9.89102 1.52101,-3.3477 2.93635,-6.7372 4.26199,-10.18586 1.32564,-3.4487 2.54932,-6.93806 3.67228,-10.48078 1.12296,-3.54264 2.14278,-7.14602 3.05577,-10.77563 0.91297,-3.62947 1.71675,-7.3073 2.41244,-11.01673 0.69569,-3.70947 1.29803,-7.449 1.76912,-11.23124 0.47111,-3.78241 0.833,-7.59755 1.0722,-11.4458 0.23921,-3.84817 0.34847,-7.72627 0.34847,-11.63335 0,-2.88832 0.0749,-5.75949 0.24124,-8.60431 0.1664,-2.84487 0.42238,-5.67362 0.75054,-8.47039 0.32817,-2.79685 0.74772,-5.56539 1.23303,-8.3096 0.4853,-2.74412 1.05091,-5.4616 1.68872,-8.14861 0.63779,-2.68701 1.33191,-5.33581 2.11759,-7.96115 0.78567,-2.62526 1.64436,-5.21436 2.57327,-7.77345 0.92891,-2.55904 1.93465,-5.0975 3.00216,-7.58573 1.0675,-2.4884 2.20275,-4.93159 3.40422,-7.34455 z"
       id="path5554" />
    <text
       xml:space="preserve"
       style="font-size:258.51129150000002710px;font-style:normal;font-variant:normal;font-weight:normal;font-stretch:normal;line-height:125%;letter-spacing:0px;word-spacing:0px;fill:#000000;fill-opacity:1;stroke:none;display:inline;font-family:Trebuchet MS;-inkscape-font-specification:Trebuchet MS"
       x="168.5979"
       y="735.07056"
       id="text5556"
       sodipodi:linespacing="125%"><tspan
         sodipodi:role="line"
         id="tspan5558"
         x="168.5979"
         y="735.07056">KMI</tspan></text>
    <text
       xml:space="preserve"
       style="font-size:119.02449799px;font-style:normal;font-variant:normal;font-weight:normal;font-stretch:normal;line-height:125%;letter-spacing:0px;word-spacing:0px;fill:#000000;fill-opacity:1;stroke:none;display:inline;font-family:League Gothic;-inkscape-font-specification:League Gothic"
       x="166.78174"
       y="838.65643"
       id="text5560"
       sodipodi:linespacing="125%"><tspan
         sodipodi:role="line"
         id="tspan5562"
         x="166.78174"
         y="838.65643">FOUNDATION</tspan></text>
  </g>
</svg>
