<?xml version="1.0" encoding="UTF-8" standalone="no"?>
<!-- Created with Inkscape (http://www.inkscape.org/) -->

<svg
   xmlns:dc="http://purl.org/dc/elements/1.1/"
   xmlns:cc="http://creativecommons.org/ns#"
   xmlns:rdf="http://www.w3.org/1999/02/22-rdf-syntax-ns#"
   xmlns:svg="http://www.w3.org/2000/svg"
   xmlns="http://www.w3.org/2000/svg"
   xmlns:sodipodi="http://sodipodi.sourceforge.net/DTD/sodipodi-0.dtd"
   xmlns:inkscape="http://www.inkscape.org/namespaces/inkscape"
   width="744.09448819"
   height="1052.3622047"
   id="svg3013"
   version="1.1"
   inkscape:version="0.48.4 r9939"
   sodipodi:docname="New document 2">
  <defs
     id="defs3015" />
  <sodipodi:namedview
     id="base"
     pagecolor="#ffffff"
     bordercolor="#666666"
     borderopacity="1.0"
     inkscape:pageopacity="0.0"
     inkscape:pageshadow="2"
     inkscape:zoom="0.7"
     inkscape:cx="227.56545"
     inkscape:cy="562.3759"
     inkscape:document-units="px"
     inkscape:current-layer="layer1"
     showgrid="false"
     inkscape:window-width="1879"
     inkscape:window-height="1056"
     inkscape:window-x="41"
     inkscape:window-y="24"
     inkscape:window-maximized="1" />
  <metadata
     id="metadata3018">
    <rdf:RDF>
      <cc:Work
         rdf:about="">
        <dc:format>image/svg+xml</dc:format>
        <dc:type
           rdf:resource="http://purl.org/dc/dcmitype/StillImage" />
        <dc:title></dc:title>
      </cc:Work>
    </rdf:RDF>
  </metadata>
  <g
     inkscape:label="Layer 1"
     inkscape:groupmode="layer"
     id="layer1">
    <g
       id="g3043"
       transform="matrix(1.4327664,0,0,1.4327664,-178.54442,-186.42275)">
      <text
         sodipodi:linespacing="125%"
         id="text5556"
         y="747.24933"
         x="184.40649"
         style="font-size:258.5112915px;font-style:normal;font-variant:normal;font-weight:normal;font-stretch:normal;line-height:125%;letter-spacing:0px;word-spacing:0px;fill:#000000;fill-opacity:1;stroke:none;display:inline;font-family:Trebuchet MS;-inkscape-font-specification:Trebuchet MS"
         xml:space="preserve"><tspan
           y="747.24933"
           x="184.40649"
           id="tspan5558"
           sodipodi:role="line">KMI</tspan></text>
      <text
         sodipodi:linespacing="125%"
         id="text5560"
         y="850.83527"
         x="182.59033"
         style="font-size:119.02449799px;font-style:normal;font-variant:normal;font-weight:normal;font-stretch:normal;line-height:125%;letter-spacing:0px;word-spacing:0px;fill:#000000;fill-opacity:1;stroke:none;display:inline;font-family:League Gothic;-inkscape-font-specification:League Gothic"
         xml:space="preserve"><tspan
           y="850.83527"
           x="182.59033"
           id="tspan5562"
           sodipodi:role="line">FOUNDATION</tspan></text>
      <path
         id="path3836"
         d="m 384.28572,163.9156 c -7.77483,0 -15.44774,0.4876 -22.96222,1.44564 l 21.48296,216.20803 c 0.48116,0.30215 0.96776,0.60044 1.44564,0.90773 0.50307,-0.33113 1.00611,-0.65021 1.51289,-0.97497 l 21.48296,-216.14079 c -7.51448,-0.95804 -15.18739,-1.44564 -22.96223,-1.44564 z m -37.48592,3.9335 c -15.14633,3.21497 -29.59463,8.32688 -43.06678,15.09522 l 73.79515,195.43108 c 1.42641,0.82072 2.8358,1.65728 4.23608,2.52148 L 346.7998,167.8491 z m 74.97184,0 -34.93082,212.94692 c 1.4017,-0.88114 2.84124,-1.72217 4.26969,-2.55509 l 73.72792,-195.29661 c -13.47216,-6.76834 -27.92046,-11.88025 -43.06679,-15.09522 z m -130.71322,22.12173 c -12.80696,7.78903 -24.55589,17.13048 -34.99807,27.76984 l 111.61726,155.42369 c 2.72533,1.32767 5.42309,2.72474 8.06872,4.20245 L 291.05842,189.97083 z m 186.45462,0 -84.62068,187.22789 c 2.68106,-1.51432 5.40528,-2.92258 8.16957,-4.2697 L 512.5111,217.74067 C 502.06892,207.10131 490.32,197.75986 477.51304,189.97083 z m -230.89981,38.19194 c -9.22473,10.99042 -17.15973,23.0759 -23.56738,36.07389 l 122.00573,99.91763 c 6.4121,2.0224 12.71537,4.44301 18.82701,7.22823 L 246.61323,228.16277 z m 275.345,0 -117.03004,142.95079 c 6.11383,-2.77278 12.41099,-5.18454 18.82701,-7.16099 l 121.77041,-99.71591 c -6.40765,-12.99799 -14.34265,-25.08347 -23.56738,-36.07389 z m -304.39239,48.41231 c -5.03607,12.5215 -8.7138,25.73721 -10.82553,39.46948 l 89.49552,40.44445 c 13.37826,0.0528 26.72636,1.76247 39.6712,5.04295 L 217.56584,276.57508 z m 333.43977,0 -118.20672,84.88964 c 12.82363,-3.15772 26.03384,-4.75347 39.26776,-4.84123 l 89.76449,-40.57893 c -2.11172,-13.73227 -5.78945,-26.94798 -10.82553,-39.46948 z m -345.74456,52.14409 c -0.40179,4.90383 -0.63878,9.85243 -0.63878,14.85989 0,7.96251 0.5424,15.81145 1.54651,23.50014 l 22.05449,3.63092 c 16.5661,-7.32932 34.281,-11.97325 52.34581,-13.54872 l -75.30803,-28.44223 z m 358.04936,0 -75.577,28.50947 c 18.23867,1.55364 36.21522,6.01197 52.91735,13.41424 l 21.75192,-3.56368 c 1.00411,-7.68869 1.5465,-15.53763 1.5465,-23.50014 0,-5.00746 -0.23698,-9.95606 -0.63877,-14.85989 z M 208.0851,378.74522 c 0.14968,0.75418 0.31177,1.50174 0.47067,2.25252 1.0441,-0.63836 2.10258,-1.26748 3.16025,-1.8827 l -3.63092,-0.36982 z m 352.40126,0 -3.49645,0.3362 c 1.016,0.60434 2.0235,1.22042 3.02577,1.84908 0.1541,-0.72942 0.32528,-1.45265 0.47068,-2.18528 z"
         style="fill:#333333;stroke:none"
         inkscape:connector-curvature="0" />
      <path
         id="path3753"
         d="m 295.26086,360.79232 c -22.25724,0 -43.4662,4.5344 -62.76789,12.70823 -7.99807,3.38702 -15.68276,7.38942 -22.96223,11.9686 1.30687,5.47282 2.87821,10.83821 4.67314,16.10382 7.6686,-5.15772 15.85926,-9.60796 24.47511,-13.24615 17.38234,-7.33996 36.50496,-11.39706 56.58187,-11.39706 20.07693,0 39.19955,4.0571 56.58189,11.39706 17.38233,7.33998 33.0244,17.96281 46.15979,31.09819 13.13538,13.13538 23.75822,28.77746 31.09819,46.15979 6.38067,15.11056 10.25153,31.52501 11.16173,48.74851 16.11408,-5.2795 31.23825,-12.76839 44.9831,-22.12174 -3.6988,-1.48447 -7.72769,-2.31976 -11.93498,-2.31976 -3.49904,0 -6.85849,0.56327 -10.01866,1.61375 -3.16018,1.05048 -6.1211,2.58817 -8.77473,4.50503 -0.16069,-0.98279 -0.32449,-1.97602 -0.50429,-2.95853 -0.17981,-0.98252 -0.3756,-1.95432 -0.57154,-2.92491 2.87938,-1.78258 6.0128,-3.17724 9.34627,-4.13522 3.33346,-0.95797 6.86697,-1.47926 10.52295,-1.47926 5.22283,0 10.18266,1.06038 14.69179,2.95853 0.8013,0.33731 1.58195,0.71955 2.35338,1.10945 4.6198,-3.38508 9.0775,-6.95716 13.347,-10.75829 -2.96948,-2.04828 -6.15896,-3.81921 -9.51436,-5.24467 -6.42849,-2.73097 -13.47465,-4.23608 -20.87781,-4.23608 -4.31049,0 -8.4877,0.51384 -12.50651,1.47927 -4.01882,0.96543 -7.87924,2.38244 -11.49793,4.20246 -0.27208,-0.86944 -0.55497,-1.72586 -0.84049,-2.58872 -0.28551,-0.86287 -0.57363,-1.73216 -0.87411,-2.58871 3.88683,-1.87144 8.001,-3.34234 12.3048,-4.33694 4.3038,-0.99459 8.79724,-1.51288 13.41424,-1.51288 8.19364,0 15.97595,1.65637 23.06309,4.63951 4.06072,1.70926 7.89658,3.85878 11.43068,6.38774 3.91304,-3.70635 7.66161,-7.59015 11.22897,-11.63241 -5.0259,-3.85391 -10.53479,-7.11253 -16.44002,-9.61522 -9.00648,-3.81702 -18.90874,-5.91706 -29.28272,-5.91706 -5.67796,0 -11.21799,0.61655 -16.54087,1.81546 -5.32287,1.19891 -10.42857,2.98018 -15.26333,5.24467 -0.38351,-0.81914 -0.77831,-1.64129 -1.17669,-2.45424 -0.39837,-0.81296 -0.80035,-1.61671 -1.2103,-2.42061 5.18809,-2.42265 10.68499,-4.32904 16.40639,-5.61448 5.7214,-1.28545 11.6673,-1.94994 17.7848,-1.94994 11.16446,0 21.77764,2.24394 31.43438,6.32049 6.42254,2.71125 12.411,6.25735 17.85204,10.45572 3.42159,-4.12156 6.63449,-8.38886 9.68246,-12.80909 -6.50746,-5.01649 -13.6542,-9.22334 -21.31486,-12.4729 -11.57608,-4.91043 -24.30922,-7.63166 -37.65402,-7.63166 -7.56718,0 -14.91916,0.87009 -21.98726,2.52147 -7.06809,1.65139 -13.8523,4.08408 -20.23903,7.19461 -0.49951,-0.77655 -0.99578,-1.52672 -1.51289,-2.28614 -0.51709,-0.75941 -1.05502,-1.52807 -1.58012,-2.28613 6.82703,-3.37755 14.09825,-6.00501 21.68468,-7.79976 7.58643,-1.79477 15.48809,-2.75682 23.63462,-2.75682 14.13529,0 27.60456,2.86618 39.8393,8.0351 7.97653,3.36991 15.40384,7.72637 22.18897,12.90995 2.91602,-4.51749 5.62636,-9.16844 8.13596,-13.95216 -7.43374,-5.49037 -15.52313,-10.13455 -24.13892,-13.78406 -14.15409,-5.99544 -29.70969,-9.31264 -46.02531,-9.31264 -9.97569,0 -19.65235,1.22858 -28.91291,3.56368 -9.26056,2.33509 -18.10501,5.77669 -26.35781,10.15314 -0.60545,-0.7095 -1.1996,-1.4168 -1.81546,-2.11804 -0.61587,-0.70125 -1.25345,-1.39644 -1.8827,-2.08442 8.76107,-4.7498 18.15763,-8.45769 28.03879,-10.99363 9.88117,-2.53593 20.24695,-3.89988 30.93009,-3.89988 17.1061,0 33.40625,3.46112 48.21059,9.71608 8.715,3.68217 16.88588,8.33165 24.44149,13.81768 2.37528,-4.88952 4.55613,-9.90295 6.4886,-15.02798 -7.73196,-5.3294 -15.99895,-9.90908 -24.74407,-13.61597 -16.72369,-7.08884 -35.11017,-11.02725 -54.39661,-11.02725 -12.92216,0 -25.43788,1.77638 -37.31782,5.07657 -11.87994,3.30018 -23.1241,8.12418 -33.5188,14.25474 -0.71873,-0.64003 -1.42404,-1.28858 -2.15166,-1.91632 -0.72762,-0.62775 -1.47753,-1.23469 -2.2189,-1.84908 10.96535,-6.64185 22.88588,-11.88925 35.50236,-15.46505 12.6165,-3.57579 25.92895,-5.48 39.70482,-5.48 20.07693,0 39.19954,4.0571 56.58189,11.39706 8.61585,3.63819 16.8065,8.08843 24.47511,13.24615 1.79492,-5.26561 3.36627,-10.631 4.67313,-16.10382 -7.27947,-4.57918 -14.96416,-8.5816 -22.96223,-11.9686 -19.30168,-8.17384 -40.51064,-12.70823 -62.7679,-12.70823 -16.44549,0 -32.31566,2.47073 -47.26924,7.06013 -14.95358,4.58941 -28.99057,11.29752 -41.75562,19.76836 -12.76505,-8.47084 -26.80204,-15.17895 -41.75561,-19.76836 -14.95359,-4.5894 -30.82376,-7.06013 -47.26925,-7.06013 z m 0,21.51658 c -19.28642,0 -37.67291,3.93841 -54.39659,11.02725 -8.74513,3.70689 -17.01211,8.28657 -24.74407,13.61597 1.93247,5.12503 4.11331,10.13846 6.48859,15.02798 7.55562,-5.48603 15.72649,-10.13551 24.44149,-13.81768 14.80434,-6.25496 31.10448,-9.71608 48.21058,-9.71608 17.10612,0 33.40625,3.46112 48.2106,9.71608 14.80433,6.25496 28.11286,15.30377 39.30138,26.49229 11.18851,11.18852 20.23732,24.49704 26.49229,39.30139 5.97512,14.14201 9.38817,29.65519 9.68246,45.92445 5.43713,-1.06285 10.787,-2.35855 16.03658,-3.89988 -0.74496,-17.03193 -4.56583,-33.28436 -10.89277,-48.21059 -7.08885,-16.72369 -17.32813,-31.78458 -29.98874,-44.44519 -12.66061,-12.66062 -27.7215,-22.89989 -44.44519,-29.98874 -16.72368,-7.08884 -35.11016,-11.02725 -54.39661,-11.02725 z m 0,21.51659 c -16.3156,0 -31.87121,3.31721 -46.0253,9.31264 -8.6158,3.64951 -16.70517,8.29368 -24.13891,13.78406 2.50959,4.78372 5.21994,9.43467 8.13595,13.95216 6.78514,-5.18358 14.21245,-9.54004 22.18898,-12.90995 12.23474,-5.16892 25.70401,-8.0351 39.83928,-8.0351 14.1353,0 27.60456,2.86618 39.8393,8.0351 12.23474,5.16891 23.23494,12.64055 32.47659,21.8864 9.24165,9.24585 16.72484,20.24291 21.8864,32.47659 5.16156,12.2337 8.00148,25.704 8.00148,39.8393 0,0.19008 10e-4,0.3817 0,0.57153 5.44762,-0.39517 10.83531,-1.01251 16.13744,-1.8827 -0.17247,-15.83852 -3.47778,-30.93913 -9.31265,-44.71415 -5.99545,-14.15408 -14.6691,-26.90665 -25.38284,-37.62039 -10.71375,-10.71375 -23.46632,-19.38741 -37.6204,-25.38285 -14.15409,-5.99544 -29.7097,-9.31264 -46.02532,-9.31264 z m 0,21.51658 c -13.34478,0 -26.07792,2.72123 -37.654,7.63166 -7.66066,3.24956 -14.8074,7.45641 -21.31487,12.4729 3.04798,4.42023 6.26088,8.68753 9.68246,12.80909 5.44104,-4.19837 11.42951,-7.74447 17.85204,-10.45572 9.65673,-4.07655 20.26991,-6.32049 31.43437,-6.32049 11.16446,0 21.77765,2.24394 31.43439,6.32049 9.65672,4.07655 18.35701,9.98572 25.6518,17.28051 7.29477,7.29477 13.20395,15.99507 17.2805,25.6518 4.07655,9.65674 6.3205,20.26991 6.3205,31.43438 0,0.29272 -0.0306,0.58214 -0.0336,0.87411 2.77508,0.1273 5.56476,0.20172 8.3713,0.20172 2.61399,0 5.21297,-0.0576 7.79976,-0.1681 0.003,-0.30361 0,-0.60348 0,-0.90773 0,-13.3448 -2.72124,-26.07794 -7.63167,-37.65402 -4.91043,-11.57608 -12.01007,-21.99511 -20.77695,-30.76199 -8.76687,-8.76688 -19.1859,-15.86651 -30.76198,-20.77695 -11.57609,-4.91043 -24.30922,-7.63166 -37.65402,-7.63166 z m 0,21.51658 c -10.37396,0 -20.27622,2.10004 -29.28271,5.91706 -5.90522,2.50269 -11.41413,5.76131 -16.44001,9.61522 3.56735,4.04226 7.31593,7.92606 11.22896,11.63241 3.5341,-2.52896 7.36996,-4.67848 11.43069,-6.38774 7.08713,-2.98314 14.86944,-4.63951 23.06307,-4.63951 8.19365,0 15.97596,1.65637 23.06309,4.63951 7.08713,2.98315 13.4791,7.29308 18.82701,12.64099 5.34791,5.34792 9.65784,11.73988 12.64099,18.82701 2.81104,6.67824 4.42788,13.97409 4.6059,21.65106 5.31352,0.88978 10.71035,1.53749 16.17105,1.94994 0.001,-0.18001 0,-0.35761 0,-0.53791 0,-10.37399 -2.10003,-20.27624 -5.91706,-29.28273 -3.81702,-9.00647 -9.35104,-17.11719 -16.17105,-23.93719 -6.82002,-6.82002 -14.93073,-12.35403 -23.9372,-16.17106 -9.00649,-3.81702 -18.90874,-5.91706 -29.28273,-5.91706 z m 0,21.48296 c -7.40314,0 -14.44932,1.50511 -20.87779,4.23608 -3.35541,1.42545 -6.54489,3.19637 -9.51437,5.24467 4.26951,3.80113 8.7272,7.37321 13.34701,10.75829 0.77142,-0.3899 1.55207,-0.77214 2.35337,-1.10945 4.50914,-1.89814 9.46897,-2.95853 14.69178,-2.95853 5.22283,0 10.18266,1.06038 14.6918,2.95853 4.50912,1.89815 8.56754,4.63405 11.96859,8.0351 3.40106,3.40105 6.13695,7.45947 8.0351,11.9686 1.08487,2.57715 1.89452,5.29808 2.387,8.13595 5.44341,1.64148 10.99391,3.0098 16.64173,4.13522 -0.29267,-6.52174 -1.73669,-12.76141 -4.16884,-18.49081 -2.73202,-6.43584 -6.69202,-12.23506 -11.56516,-17.11241 -4.87314,-4.87734 -10.68393,-8.83418 -17.11241,-11.56516 -6.42848,-2.73097 -13.47465,-4.23608 -20.87781,-4.23608 z m 0,21.5502 c -4.20727,0 -8.23617,0.83529 -11.93496,2.31976 13.19968,8.98237 27.66887,16.24449 43.06677,21.48296 -0.38034,-1.38644 -0.85702,-2.76094 -1.41203,-4.06798 -1.63861,-3.85888 -3.99937,-7.32773 -6.92565,-10.25399 -2.92627,-2.92628 -6.39511,-5.28703 -10.25399,-6.92565 -3.85888,-1.63862 -8.1078,-2.5551 -12.54014,-2.5551 z"
         style="font-size:medium;font-style:normal;font-variant:normal;font-weight:normal;font-stretch:normal;text-indent:0;text-align:start;text-decoration:none;line-height:normal;letter-spacing:normal;word-spacing:normal;text-transform:none;direction:ltr;block-progression:tb;writing-mode:lr-tb;text-anchor:start;baseline-shift:baseline;color:#000000;fill:#000000;fill-opacity:1;stroke:none;stroke-width:20.84210587;marker:none;visibility:visible;display:inline;overflow:visible;enable-background:accumulate;font-family:Sans;-inkscape-font-specification:Sans"
         inkscape:connector-curvature="0" />
      <path
         style="font-size:medium;font-style:normal;font-variant:normal;font-weight:normal;font-stretch:normal;text-indent:0;text-align:start;text-decoration:none;line-height:normal;letter-spacing:normal;word-spacing:normal;text-transform:none;direction:ltr;block-progression:tb;writing-mode:lr-tb;text-anchor:start;baseline-shift:baseline;color:#000000;fill:#000000;fill-opacity:1;stroke:none;stroke-width:20.84210587;marker:none;visibility:visible;display:inline;overflow:visible;enable-background:accumulate;font-family:Sans;-inkscape-font-specification:Sans"
         d="m 295.26086,360.79232 c -22.25724,0 -43.4662,4.5344 -62.76789,12.70823 -7.99807,3.38702 -15.68276,7.38942 -22.96223,11.9686 1.30687,5.47282 2.87821,10.83821 4.67314,16.10382 7.6686,-5.15772 15.85926,-9.60796 24.47511,-13.24615 17.38234,-7.33996 36.50496,-11.39706 56.58187,-11.39706 20.07693,0 39.19955,4.0571 56.58189,11.39706 17.38233,7.33998 33.0244,17.96281 46.15979,31.09819 13.13538,13.13538 23.75822,28.77746 31.09819,46.15979 6.38067,15.11056 10.25153,31.52501 11.16173,48.74851 16.11408,-5.2795 31.23825,-12.76839 44.9831,-22.12174 -3.6988,-1.48447 -7.72769,-2.31976 -11.93498,-2.31976 -3.49904,0 -6.85849,0.56327 -10.01866,1.61375 -3.16018,1.05048 -6.1211,2.58817 -8.77473,4.50503 -0.16069,-0.98279 -0.32449,-1.97602 -0.50429,-2.95853 -0.17981,-0.98252 -0.3756,-1.95432 -0.57154,-2.92491 2.87938,-1.78258 6.0128,-3.17724 9.34627,-4.13522 3.33346,-0.95797 6.86697,-1.47926 10.52295,-1.47926 5.22283,0 10.18266,1.06038 14.69179,2.95853 0.8013,0.33731 1.58195,0.71955 2.35338,1.10945 4.6198,-3.38508 9.0775,-6.95716 13.347,-10.75829 -2.96948,-2.04828 -6.15896,-3.81921 -9.51436,-5.24467 -6.42849,-2.73097 -13.47465,-4.23608 -20.87781,-4.23608 -4.31049,0 -8.4877,0.51384 -12.50651,1.47927 -4.01882,0.96543 -7.87924,2.38244 -11.49793,4.20246 -0.27208,-0.86944 -0.55497,-1.72586 -0.84049,-2.58872 -0.28551,-0.86287 -0.57363,-1.73216 -0.87411,-2.58871 3.88683,-1.87144 8.001,-3.34234 12.3048,-4.33694 4.3038,-0.99459 8.79724,-1.51288 13.41424,-1.51288 8.19364,0 15.97595,1.65637 23.06309,4.63951 4.06072,1.70926 7.89658,3.85878 11.43068,6.38774 3.91304,-3.70635 7.66161,-7.59015 11.22897,-11.63241 -5.0259,-3.85391 -10.53479,-7.11253 -16.44002,-9.61522 -9.00648,-3.81702 -18.90874,-5.91706 -29.28272,-5.91706 -5.67796,0 -11.21799,0.61655 -16.54087,1.81546 -5.32287,1.19891 -10.42857,2.98018 -15.26333,5.24467 -0.38351,-0.81914 -0.77831,-1.64129 -1.17669,-2.45424 -0.39837,-0.81296 -0.80035,-1.61671 -1.2103,-2.42061 5.18809,-2.42265 10.68499,-4.32904 16.40639,-5.61448 5.7214,-1.28545 11.6673,-1.94994 17.7848,-1.94994 11.16446,0 21.77764,2.24394 31.43438,6.32049 6.42254,2.71125 12.411,6.25735 17.85204,10.45572 3.42159,-4.12156 6.63449,-8.38886 9.68246,-12.80909 -6.50746,-5.01649 -13.6542,-9.22334 -21.31486,-12.4729 -11.57608,-4.91043 -24.30922,-7.63166 -37.65402,-7.63166 -7.56718,0 -14.91916,0.87009 -21.98726,2.52147 -7.06809,1.65139 -13.8523,4.08408 -20.23903,7.19461 -0.49951,-0.77655 -0.99578,-1.52672 -1.51289,-2.28614 -0.51709,-0.75941 -1.05502,-1.52807 -1.58012,-2.28613 6.82703,-3.37755 14.09825,-6.00501 21.68468,-7.79976 7.58643,-1.79477 15.48809,-2.75682 23.63462,-2.75682 14.13529,0 27.60456,2.86618 39.8393,8.0351 7.97653,3.36991 15.40384,7.72637 22.18897,12.90995 2.91602,-4.51749 5.62636,-9.16844 8.13596,-13.95216 -7.43374,-5.49037 -15.52313,-10.13455 -24.13892,-13.78406 -14.15409,-5.99544 -29.70969,-9.31264 -46.02531,-9.31264 -9.97569,0 -19.65235,1.22858 -28.91291,3.56368 -9.26056,2.33509 -18.10501,5.77669 -26.35781,10.15314 -0.60545,-0.7095 -1.1996,-1.4168 -1.81546,-2.11804 -0.61587,-0.70125 -1.25345,-1.39644 -1.8827,-2.08442 8.76107,-4.7498 18.15763,-8.45769 28.03879,-10.99363 9.88117,-2.53593 20.24695,-3.89988 30.93009,-3.89988 17.1061,0 33.40625,3.46112 48.21059,9.71608 8.715,3.68217 16.88588,8.33165 24.44149,13.81768 2.37528,-4.88952 4.55613,-9.90295 6.4886,-15.02798 -7.73196,-5.3294 -15.99895,-9.90908 -24.74407,-13.61597 -16.72369,-7.08884 -35.11017,-11.02725 -54.39661,-11.02725 -12.92216,0 -25.43788,1.77638 -37.31782,5.07657 -11.87994,3.30018 -23.1241,8.12418 -33.5188,14.25474 -0.71873,-0.64003 -1.42404,-1.28858 -2.15166,-1.91632 -0.72762,-0.62775 -1.47753,-1.23469 -2.2189,-1.84908 10.96535,-6.64185 22.88588,-11.88925 35.50236,-15.46505 12.6165,-3.57579 25.92895,-5.48 39.70482,-5.48 20.07693,0 39.19954,4.0571 56.58189,11.39706 8.61585,3.63819 16.8065,8.08843 24.47511,13.24615 1.79492,-5.26561 3.36627,-10.631 4.67313,-16.10382 -7.27947,-4.57918 -14.96416,-8.5816 -22.96223,-11.9686 -19.30168,-8.17384 -40.51064,-12.70823 -62.7679,-12.70823 -16.44549,0 -32.31566,2.47073 -47.26924,7.06013 -14.95358,4.58941 -28.99057,11.29752 -41.75562,19.76836 -12.76505,-8.47084 -26.80204,-15.17895 -41.75561,-19.76836 -14.95359,-4.5894 -30.82376,-7.06013 -47.26925,-7.06013 z m 0,21.51658 c -19.28642,0 -37.67291,3.93841 -54.39659,11.02725 -8.74513,3.70689 -17.01211,8.28657 -24.74407,13.61597 1.93247,5.12503 4.11331,10.13846 6.48859,15.02798 7.55562,-5.48603 15.72649,-10.13551 24.44149,-13.81768 14.80434,-6.25496 31.10448,-9.71608 48.21058,-9.71608 17.10612,0 33.40625,3.46112 48.2106,9.71608 14.80433,6.25496 28.11286,15.30377 39.30138,26.49229 11.18851,11.18852 20.23732,24.49704 26.49229,39.30139 5.97512,14.14201 9.38817,29.65519 9.68246,45.92445 5.43713,-1.06285 10.787,-2.35855 16.03658,-3.89988 -0.74496,-17.03193 -4.56583,-33.28436 -10.89277,-48.21059 -7.08885,-16.72369 -17.32813,-31.78458 -29.98874,-44.44519 -12.66061,-12.66062 -27.7215,-22.89989 -44.44519,-29.98874 -16.72368,-7.08884 -35.11016,-11.02725 -54.39661,-11.02725 z m 0,21.51659 c -16.3156,0 -31.87121,3.31721 -46.0253,9.31264 -8.6158,3.64951 -16.70517,8.29368 -24.13891,13.78406 2.50959,4.78372 5.21994,9.43467 8.13595,13.95216 6.78514,-5.18358 14.21245,-9.54004 22.18898,-12.90995 12.23474,-5.16892 25.70401,-8.0351 39.83928,-8.0351 14.1353,0 27.60456,2.86618 39.8393,8.0351 12.23474,5.16891 23.23494,12.64055 32.47659,21.8864 9.24165,9.24585 16.72484,20.24291 21.8864,32.47659 5.16156,12.2337 8.00148,25.704 8.00148,39.8393 0,0.19008 10e-4,0.3817 0,0.57153 5.44762,-0.39517 10.83531,-1.01251 16.13744,-1.8827 -0.17247,-15.83852 -3.47778,-30.93913 -9.31265,-44.71415 -5.99545,-14.15408 -14.6691,-26.90665 -25.38284,-37.62039 -10.71375,-10.71375 -23.46632,-19.38741 -37.6204,-25.38285 -14.15409,-5.99544 -29.7097,-9.31264 -46.02532,-9.31264 z m 0,21.51658 c -13.34478,0 -26.07792,2.72123 -37.654,7.63166 -7.66066,3.24956 -14.8074,7.45641 -21.31487,12.4729 3.04798,4.42023 6.26088,8.68753 9.68246,12.80909 5.44104,-4.19837 11.42951,-7.74447 17.85204,-10.45572 9.65673,-4.07655 20.26991,-6.32049 31.43437,-6.32049 11.16446,0 21.77765,2.24394 31.43439,6.32049 9.65672,4.07655 18.35701,9.98572 25.6518,17.28051 7.29477,7.29477 13.20395,15.99507 17.2805,25.6518 4.07655,9.65674 6.3205,20.26991 6.3205,31.43438 0,0.29272 -0.0306,0.58214 -0.0336,0.87411 2.77508,0.1273 5.56476,0.20172 8.3713,0.20172 2.61399,0 5.21297,-0.0576 7.79976,-0.1681 0.003,-0.30361 0,-0.60348 0,-0.90773 0,-13.3448 -2.72124,-26.07794 -7.63167,-37.65402 -4.91043,-11.57608 -12.01007,-21.99511 -20.77695,-30.76199 -8.76687,-8.76688 -19.1859,-15.86651 -30.76198,-20.77695 -11.57609,-4.91043 -24.30922,-7.63166 -37.65402,-7.63166 z m 0,21.51658 c -10.37396,0 -20.27622,2.10004 -29.28271,5.91706 -5.90522,2.50269 -11.41413,5.76131 -16.44001,9.61522 3.56735,4.04226 7.31593,7.92606 11.22896,11.63241 3.5341,-2.52896 7.36996,-4.67848 11.43069,-6.38774 7.08713,-2.98314 14.86944,-4.63951 23.06307,-4.63951 8.19365,0 15.97596,1.65637 23.06309,4.63951 7.08713,2.98315 13.4791,7.29308 18.82701,12.64099 5.34791,5.34792 9.65784,11.73988 12.64099,18.82701 2.81104,6.67824 4.42788,13.97409 4.6059,21.65106 5.31352,0.88978 10.71035,1.53749 16.17105,1.94994 0.001,-0.18001 0,-0.35761 0,-0.53791 0,-10.37399 -2.10003,-20.27624 -5.91706,-29.28273 -3.81702,-9.00647 -9.35104,-17.11719 -16.17105,-23.93719 -6.82002,-6.82002 -14.93073,-12.35403 -23.9372,-16.17106 -9.00649,-3.81702 -18.90874,-5.91706 -29.28273,-5.91706 z m 0,21.48296 c -7.40314,0 -14.44932,1.50511 -20.87779,4.23608 -3.35541,1.42545 -6.54489,3.19637 -9.51437,5.24467 4.26951,3.80113 8.7272,7.37321 13.34701,10.75829 0.77142,-0.3899 1.55207,-0.77214 2.35337,-1.10945 4.50914,-1.89814 9.46897,-2.95853 14.69178,-2.95853 5.22283,0 10.18266,1.06038 14.6918,2.95853 4.50912,1.89815 8.56754,4.63405 11.96859,8.0351 3.40106,3.40105 6.13695,7.45947 8.0351,11.9686 1.08487,2.57715 1.89452,5.29808 2.387,8.13595 5.44341,1.64148 10.99391,3.0098 16.64173,4.13522 -0.29267,-6.52174 -1.73669,-12.76141 -4.16884,-18.49081 -2.73202,-6.43584 -6.69202,-12.23506 -11.56516,-17.11241 -4.87314,-4.87734 -10.68393,-8.83418 -17.11241,-11.56516 -6.42848,-2.73097 -13.47465,-4.23608 -20.87781,-4.23608 z m 0,21.5502 c -4.20727,0 -8.23617,0.83529 -11.93496,2.31976 13.19968,8.98237 27.66887,16.24449 43.06677,21.48296 -0.38034,-1.38644 -0.85702,-2.76094 -1.41203,-4.06798 -1.63861,-3.85888 -3.99937,-7.32773 -6.92565,-10.25399 -2.92627,-2.92628 -6.39511,-5.28703 -10.25399,-6.92565 -3.85888,-1.63862 -8.1078,-2.5551 -12.54014,-2.5551 z"
         id="path3906"
         inkscape:connector-curvature="0" />
      <path
         transform="matrix(0.86297689,0,0,0.86297689,468.85745,-114.97423)"
         d="m 127,531.36218 c 0,124.26407 -100.735931,225 -225,225 -124.26407,0 -225,-100.73593 -225,-225 0,-124.26407 100.73593,-225 225,-225 124.264069,0 225,100.73593 225,225 z"
         sodipodi:ry="225"
         sodipodi:rx="225"
         sodipodi:cy="531.36218"
         sodipodi:cx="-98"
         id="path3969"
         style="fill:none;stroke:#000000;stroke-width:15;stroke-miterlimit:4;stroke-opacity:1;stroke-dasharray:none;stroke-dashoffset:0"
         sodipodi:type="arc" />
    </g>
  </g>
</svg>
