<?xml version="1.0" encoding="UTF-8" standalone="no"?>
<!-- Created with Inkscape (http://www.inkscape.org/) -->

<svg
   xmlns:dc="http://purl.org/dc/elements/1.1/"
   xmlns:cc="http://creativecommons.org/ns#"
   xmlns:rdf="http://www.w3.org/1999/02/22-rdf-syntax-ns#"
   xmlns:svg="http://www.w3.org/2000/svg"
   xmlns="http://www.w3.org/2000/svg"
   xmlns:sodipodi="http://sodipodi.sourceforge.net/DTD/sodipodi-0.dtd"
   xmlns:inkscape="http://www.inkscape.org/namespaces/inkscape"
   width="744.09448819"
   height="1052.3622047"
   id="svg5603"
   version="1.1"
   inkscape:version="0.48.4 r9939"
   sodipodi:docname="New document 7">
  <defs
     id="defs5605" />
  <sodipodi:namedview
     id="base"
     pagecolor="#ffffff"
     bordercolor="#666666"
     borderopacity="1.0"
     inkscape:pageopacity="0.0"
     inkscape:pageshadow="2"
     inkscape:zoom="0.12374369"
     inkscape:cx="142.82303"
     inkscape:cy="377.14781"
     inkscape:document-units="px"
     inkscape:current-layer="layer1"
     showgrid="false"
     inkscape:window-width="472"
     inkscape:window-height="447"
     inkscape:window-x="796"
     inkscape:window-y="24"
     inkscape:window-maximized="0" />
  <metadata
     id="metadata5608">
    <rdf:RDF>
      <cc:Work
         rdf:about="">
        <dc:format>image/svg+xml</dc:format>
        <dc:type
           rdf:resource="http://purl.org/dc/dcmitype/StillImage" />
        <dc:title></dc:title>
      </cc:Work>
    </rdf:RDF>
  </metadata>
  <g
     inkscape:label="Layer 1"
     inkscape:groupmode="layer"
     id="layer1">
    <path
       inkscape:connector-curvature="0"
       style="fill:#000000;fill-opacity:1;stroke:none;display:inline"
       d="m 491.89836,-383.10513 -16.50018,46.4189 -49.56476,0.7062 39.29227,29.9829 -14.57408,47.0607 40.83313,-27.9281 40.44792,28.3777 -14.06046,-47.1894 39.67748,-29.5335 -49.56476,-1.284 -15.98656,-46.6114 z m -0.25681,159.5447 c -10.58163,4.5186 -20.98891,9.4127 -31.13848,14.7024 -10.14955,5.2899 -20.0479,10.9877 -29.72601,17.0139 -9.67809,6.0263 -19.08204,12.4048 -28.24934,19.1325 -9.16729,6.7276 -18.09139,13.7926 -26.70847,21.187 -9.75208,8.3682 -19.12206,17.1585 -28.12092,26.3233 -7.61825,7.7585 -14.98074,15.7806 -22.02165,24.076 -7.04093,8.295601 -13.72855,16.883701 -20.15976,25.681201 -6.4312,8.7977 -12.573,17.829 -18.36207,27.0938 -5.78909,9.2649 -11.25721,18.7449 -16.37178,28.4419 -3.34228,-6.3369 -6.83823,-12.5925 -10.4651,-18.7473 -3.62687,-6.1546 -7.38466,-12.2081 -11.29974,-18.1694 -4.44262,-6.7645 -9.07515,-13.3972 -13.86785,-19.9031 -4.79271,-6.5055 -9.76587,-12.9001 -14.89511,-19.1324 -5.12922,-6.232101 -10.40594,-12.289901 -15.85816,-18.233701 -5.45218,-5.9438 -11.05959,-11.7581 -16.82119,-17.399 -1.35903,-1.3305 -2.73323,-2.6673 -4.109,-3.9806 -3.524,3.364 -6.98772,6.7966 -10.40088,10.2726 -5.12907,5.2235 -10.15196,10.5803 -15.02352,16.0507 -4.87156,5.4705 -9.58573,11.051301 -14.18888,16.756801 -4.60314,5.7059 -9.09462,11.5338 -13.41843,17.4634 -4.32382,5.9295 -8.48602,11.9637 -12.5196,18.1053 -5.77389,8.7915 -11.27879,17.8253 -16.43598,27.0295 -5.15718,9.2041 -9.93524,18.5977 -14.44569,28.1850997 -4.51043,9.5872 -8.75008,19.3356003 -12.58379,29.2766003 -3.83371,9.941 -7.27391,20.0384 -10.4009,30.3038 -3.12698,10.2655 -5.89195,20.7066 -8.28219,31.2669 -2.39023,10.5604 -4.41158,21.275699 -6.03508,32.101599 -1.6235,10.8258 -2.89704,21.746 -3.72378,32.8076 -0.82675,11.0618 -1.21986,22.2457 -1.21986,33.514 0,11.2684 0.39311,22.4519 1.21986,33.5141 0.82674,11.0621 2.10028,21.9814 3.72378,32.8075 1.6235,10.8264 3.64485,21.5408 6.03508,32.1016 2.39024,10.5609 5.15521,21.0011 8.28219,31.2669 3.12699,10.2658 6.56719,20.3628 10.4009,30.3039 3.83371,9.941 8.07336,19.6897 12.58379,29.2766 4.51045,9.5868 9.28851,19.0463 14.44569,28.2493 5.15719,9.2032 10.66209,18.1755 16.43598,26.9654 4.03227,6.1383 8.1954,12.1815 12.5196,18.1052 4.3242,5.9237 8.81445,11.6996 13.41843,17.3988 4.60399,5.6995 9.31727,11.2922 14.18888,16.7572 4.8716,5.465 9.89645,10.8298 15.02352,16.0508 3.41966,3.4821 6.86997,6.967 10.40088,10.3365 7.52119,7.1778 15.30146,14.0926 23.30572,20.7378 8.00423,6.6448 16.25982,13.049 24.71816,19.1324 8.45835,6.0834 17.11876,11.842 26.00224,17.3349 8.88348,5.4928 17.94244,10.6637 27.22208,15.5372 9.27966,4.8734 18.79509,9.45 28.44195,13.6751 9.64688,4.2252 19.41986,8.1368 29.40501,11.6849 9.98513,3.5483 20.13779,6.7242 30.43224,9.5664 10.29445,2.8421 20.75628,5.3402 31.33109,7.4475 7.06227,1.4073 14.20289,2.6533 21.37961,3.7238 7.17673,1.0704 14.41835,1.9729 21.70063,2.6964 7.2823,0.7238 14.57851,1.2383 21.95744,1.605 7.37894,0.3671 14.8118,0.578 22.27846,0.578 7.46666,0 14.89952,-0.2109 22.27846,-0.578 7.37894,-0.3667 14.67518,-0.8812 21.95744,-1.605 7.28229,-0.7235 14.5239,-1.626 21.70064,-2.6964 7.17674,-1.0705 14.31733,-2.3165 21.3796,-3.7238 10.57483,-2.1073 21.03664,-4.6054 31.33109,-7.4475 10.29445,-2.8422 20.44709,-6.0181 30.43224,-9.5664 9.98515,-3.5481 19.75813,-7.4597 29.40501,-11.6849 9.64686,-4.2251 19.16229,-8.8017 28.44195,-13.6751 9.27964,-4.8735 18.33861,-10.0444 27.22208,-15.5372 8.88348,-5.4929 17.54389,-11.2515 26.00224,-17.3349 8.45834,-6.0834 16.71393,-12.4876 24.71817,-19.1324 8.00425,-6.6452 15.78453,-13.56 23.3057,-20.7378 3.53093,-3.3695 6.98123,-6.8544 10.4009,-10.3365 5.12704,-5.221 10.15191,-10.5858 15.02352,-16.0508 4.8716,-5.465 9.58489,-11.0577 14.18886,-16.7572 4.60399,-5.6992 9.09425,-11.4751 13.41845,-17.3988 4.3242,-5.9237 8.48733,-11.9669 12.51959,-18.1052 5.7739,-8.7899 11.2788,-17.7622 16.43598,-26.9654 5.15718,-9.203 9.93525,-18.6625 14.44568,-28.2493 4.51045,-9.5869 8.7501,-19.3356 12.58381,-29.2766 3.83371,-9.9411 7.27389,-20.0381 10.40089,-30.3039 3.12699,-10.2658 5.89195,-20.706 8.28219,-31.2669 2.39024,-10.5608 4.41158,-21.2752 6.03509,-32.1016 1.62349,-10.8261 2.89701,-21.7454 3.72377,-32.8075 0.82675,-11.0622 1.21985,-22.2457 1.21985,-33.5141 0,-11.2683 -0.3931,-22.4522 -1.21985,-33.514 -0.82676,-11.0616 -2.10028,-21.9818 -3.72377,-32.8076 -1.62351,-10.8259 -3.64485,-21.541199 -6.03509,-32.101599 -2.39024,-10.5603 -5.1552,-21.0014 -8.28219,-31.2669 -3.127,-10.2654 -6.56718,-20.3628 -10.40089,-30.3038 -3.83371,-9.941 -8.07336,-19.6894003 -12.58381,-29.2766003 -4.51043,-9.5873997 -9.2885,-18.9809997 -14.44568,-28.1850997 -5.15718,-9.2042 -10.66208,-18.238 -16.43598,-27.0295 -4.03358,-6.1416 -8.19578,-12.1758 -12.51959,-18.1053 -4.32381,-5.9296 -8.81529,-11.7575 -13.41845,-17.4634 -4.60314,-5.7055 -9.31731,-11.286301 -14.18886,-16.756801 -4.87156,-5.4704 -9.89447,-10.8272 -15.02352,-16.0507 -3.41317,-3.476 -6.87689,-6.9086 -10.4009,-10.2726 -1.37577,1.3133 -2.74995,2.6501 -4.10898,3.9806 -5.76163,5.6409 -11.369,11.4552 -16.8212,17.399 -5.45222,5.9438 -10.72892,12.0016 -15.85816,18.233701 -5.12923,6.2323 -10.10239,12.6269 -14.89511,19.1324 -4.7927,6.5059 -9.42521,13.1386 -13.86785,19.9031 -3.91508,5.9613 -7.67287,12.0148 -11.29974,18.1694 -3.62686,6.1548 -7.12282,12.4104 -10.4651,18.7473 -5.11456,-9.697 -10.5827,-19.177 -16.37178,-28.4419 -5.78907,-9.2648 -11.93085,-18.2961 -18.36206,-27.0938 -6.43122,-8.7975 -13.11884,-17.3856 -20.15977,-25.681201 -7.04093,-8.2954 -14.4034,-16.3175 -22.02164,-24.076 -8.99887,-9.1648 -18.36885,-17.9551 -28.12094,-26.3233 -8.61706,-7.3944 -17.54117,-14.4594 -26.70846,-21.187 -9.16726,-6.7277 -18.57121,-13.1062 -28.24934,-19.1325 -9.6781,-6.0262 -19.57644,-11.724 -29.72602,-17.0139 -10.14955,-5.2897 -20.55685,-10.1838 -31.13847,-14.7024 z m 0,114.3455 c 6.34996,3.7311 12.54058,7.6308 18.61888,11.749301 6.07832,4.1185 12.05849,8.4799 17.84845,12.969 5.78997,4.4891 11.40048,9.1532 16.8854,13.9962 5.48494,4.8431 10.82339,9.8432 15.98656,15.0235 5.1632,5.1805 10.19877,10.5496 15.02352,16.0509 4.82476,5.5011 9.46245,11.1446 13.93205,16.9495 4.46963,5.805 8.74284,11.7563 12.84062,17.8484997 4.09777,6.0922 7.9757,12.3202 11.68496,18.6830003 3.70925,6.3629 7.22524,12.8369 10.5293,19.4536 3.30404,6.6168 6.42729,13.3701 9.30943,20.2238 2.88213,6.854 5.51767,13.7916 7.96119,20.8661 2.44351,7.0744 4.68891,14.2938 6.67711,21.5723 1.9882,7.278199 3.74845,14.620399 5.26465,22.085899 1.51619,7.4654 2.76048,15.0275 3.78797,22.6635 1.02749,7.6362 1.85343,15.3876 2.37552,23.1774 0.52209,7.7899 0.77044,15.6355 0.77044,23.5624 0,7.9267 -0.24829,15.7734 -0.77044,23.5627 -0.52215,7.7891 -1.34793,15.5421 -2.37552,23.1771 -1.02757,7.6353 -2.27167,15.1992 -3.78797,22.6637 -1.51631,7.4644 -3.27633,14.8085 -5.26465,22.0858 -1.98832,7.2773 -4.23347,14.4349 -6.67711,21.508 -2.44364,7.0733 -5.07893,14.0776 -7.96119,20.9303 -2.88226,6.8526 -6.00527,13.5445 -9.30943,20.1597 -3.30418,6.6153 -6.81996,13.1564 -10.5293,19.5178 -3.70936,6.3613 -7.5871,12.5923 -11.68496,18.6829 -4.09787,6.0908 -8.37094,12.0452 -12.84062,17.8485 -4.46964,5.8035 -9.17152,11.4503 -13.99626,16.9496 -4.82471,5.4994 -9.79619,10.8079 -14.95931,15.9867 -5.16309,5.1787 -10.50177,10.2461 -15.98656,15.0876 -5.48476,4.8416 -11.09566,9.5088 -16.8854,13.9962 -5.78973,4.4877 -11.77044,8.7881 -17.84845,12.9049 -6.078,4.1168 -12.26932,8.0196 -18.61888,11.749 -6.34955,-3.7294 -12.54088,-7.6322 -18.61888,-11.749 -6.07801,-4.1168 -12.05872,-8.4172 -17.84844,-12.9049 -5.78974,-4.4874 -11.40065,-9.1546 -16.8854,-13.9962 -5.48478,-4.8415 -10.82347,-9.9089 -15.98657,-15.0876 -5.16309,-5.1788 -10.13459,-10.4873 -14.95931,-15.9867 -4.82472,-5.4993 -9.52663,-11.1461 -13.99626,-16.9496 -4.46964,-5.8033 -8.74276,-11.7577 -12.84062,-17.8485 -4.09786,-6.0906 -7.97559,-12.3216 -11.68495,-18.6829 -3.70935,-6.3614 -7.22514,-12.9025 -10.5293,-19.5178 -3.30417,-6.6152 -6.42719,-13.3071 -9.30944,-20.1597 -2.88225,-6.8527 -5.51754,-13.857 -7.96118,-20.9303 -2.44364,-7.0731 -4.68879,-14.2307 -6.67712,-21.508 -1.98832,-7.2773 -3.74834,-14.6214 -5.26465,-22.0858 -1.51629,-7.4645 -2.7604,-15.0284 -3.78797,-22.6637 -1.02758,-7.635 -1.85337,-15.388 -2.37552,-23.1771 -0.52213,-7.7893 -0.77043,-15.636 -0.77043,-23.5627 0,-7.9269 0.24834,-15.7725 0.77043,-23.5624 0.52209,-7.7898 1.34801,-15.5412 2.37552,-23.1774 1.0275,-7.636 2.27177,-15.1981 3.78797,-22.6635 1.5162,-7.4655 3.27645,-14.8077 5.26465,-22.085899 1.9882,-7.2785 4.2336,-14.4979 6.67712,-21.5723 2.44351,-7.0745 5.07905,-14.0121 7.96118,-20.8661 2.88214,-6.8537 6.00539,-13.607 9.30944,-20.2238 3.30404,-6.6167 6.82005,-13.0907 10.5293,-19.4536 3.70925,-6.3628003 7.58717,-12.5908003 11.68495,-18.6830003 4.09778,-6.0921997 8.37099,-12.0434997 12.84062,-17.8484997 4.46961,-5.8049 9.10731,-11.4484 13.93206,-16.9495 4.82474,-5.5013 9.86033,-10.8704 15.02351,-16.0509 5.16317,-5.1803 10.50164,-10.1804 15.98657,-15.0235 5.48491,-4.843 11.09542,-9.5071 16.8854,-13.9962 5.78995,-4.4891 11.77012,-8.8505 17.84844,-12.969 6.07831,-4.118501 12.26892,-8.018201 18.61888,-11.749301 z M 183.46692,33.893871 c 2.87778,5.7795 5.59691,11.6314 8.15379,17.5916 2.55688,5.9598 4.96583,12.0399 7.19074,18.1693 2.22493,6.1295 4.28166,12.3309 6.16349,18.6189 1.88185,6.2882 3.54439,12.632599 5.07204,19.068499 1.52767,6.4359 2.8824,12.9448 4.0448,19.5175 1.1624,6.5729 2.16731,13.2041 2.95333,19.9031 0.78603,6.6988 1.39914,13.4742 1.7977,20.2882 0.39854,6.8139 0.57782,13.6909 0.57782,20.609 0,9.3582 0.2617,18.647 0.83464,27.8641 0.57294,9.2173 1.43974,18.3553 2.56812,27.4149 1.12837,9.0592 2.57108,18.0161 4.2374,26.901 1.66632,8.8848 3.59151,17.6939 5.77827,26.3872 2.18677,8.6936 4.62945,17.3244 7.31915,25.8097 2.68971,8.4855 5.62067,16.8432 8.79582,25.1035 3.17517,8.2602 6.56517,16.3787 10.20829,24.3971 3.64311,8.0185 7.52718,15.931 11.62075,23.6909 5.11344,9.6932 10.58222,19.1828 16.37178,28.442 5.78955,9.2592 11.93003,18.3023 18.36207,27.0937 6.43203,8.7914 13.11889,17.3269 20.15976,25.6169 7.04085,8.2904 14.40558,16.3209 22.02165,24.0763 -9.22292,-4.2293 -18.20515,-8.8728 -26.96529,-13.8679 -8.76015,-4.9951 -17.29986,-10.3308 -25.55282,-16.0507 -8.25295,-5.7199 -16.24639,-11.8298 -23.94773,-18.2337 -7.70134,-6.4039 -15.10897,-13.1126 -22.21426,-20.1597 -6.62914,-6.5749 -12.99531,-13.4486 -19.06829,-20.5451 -6.07299,-7.0964 -11.85053,-14.4386 -17.33483,-22.0217 -5.48431,-7.5831 -10.67406,-15.399 -15.53714,-23.4341 -4.86308,-8.0349 -9.4017,-16.2659 -13.61105,-24.7182 -2.87777,-5.7782 -5.5969,-11.6321 -8.15378,-17.5916 -2.55688,-5.9593 -4.96583,-12.0403 -7.19074,-18.1695 -2.22493,-6.1293 -4.28166,-12.3305 -6.16349,-18.6188 -1.88185,-6.2881 -3.54439,-12.632 -5.07204,-19.0684 -1.52767,-6.436 -2.8824,-12.9444 -4.0448,-19.5177 -1.1624,-6.5732 -2.16732,-13.2034 -2.95333,-19.9027 -0.78603,-6.6993 -1.39914,-13.4741 -1.7977,-20.2882 -0.39855,-6.8143 -0.57782,-13.6909 -0.57782,-20.6093 0,-6.9181 0.17936,-13.7951 0.57782,-20.609 0.39856,-6.814 1.01167,-13.5894 1.7977,-20.2882 0.78601,-6.699 1.79093,-13.3302 2.95333,-19.9031 1.1624,-6.5727 2.51713,-13.0816 4.0448,-19.5175 1.52765,-6.4359 3.19019,-12.780299 5.07204,-19.068499 1.88183,-6.288 3.93856,-12.4894 6.16349,-18.6189 2.22491,-6.1294 4.63386,-12.2095 7.19074,-18.1693 2.55688,-5.9602 5.27601,-11.8121 8.15378,-17.5916 z m 616.34925,0 c 2.87779,5.7795 5.59692,11.6314 8.1538,17.5916 2.55688,5.9598 4.96582,12.0399 7.19073,18.1693 2.22493,6.1295 4.28167,12.3309 6.16349,18.6189 1.88185,6.2882 3.54439,12.632599 5.07205,19.068499 1.52767,6.4359 2.8824,12.9448 4.04479,19.5175 1.1624,6.5729 2.16732,13.2041 2.95334,19.9031 0.78603,6.6988 1.39914,13.4742 1.79769,20.2882 0.39854,6.8139 0.57783,13.6909 0.57783,20.609 0,6.9184 -0.17936,13.795 -0.57783,20.6093 -0.39855,6.8141 -1.01166,13.5889 -1.79769,20.2882 -0.78602,6.6991 -1.79094,13.3295 -2.95334,19.9027 -1.16239,6.5733 -2.51712,13.0817 -4.04479,19.5177 -1.52766,6.4364 -3.1902,12.7803 -5.07205,19.0684 -1.88182,6.2883 -3.93856,12.4895 -6.16349,18.6188 -2.22491,6.1292 -4.63385,12.2102 -7.19073,18.1695 -2.55688,5.9595 -5.27601,11.8134 -8.1538,17.5916 -4.20933,8.4523 -8.74796,16.6833 -13.61104,24.7182 -4.86308,8.0351 -10.05285,15.851 -15.53714,23.4341 -5.48429,7.5831 -11.26182,14.9253 -17.33482,22.0217 -6.07298,7.0965 -12.43916,13.9702 -19.0683,20.5451 -7.10531,7.0471 -14.51291,13.7558 -22.21426,20.1597 -7.70134,6.4039 -15.69478,12.5138 -23.94773,18.2337 -8.25296,5.7199 -16.79266,11.0556 -25.55282,16.0507 -8.76016,4.9951 -17.74237,9.6386 -26.96528,13.8679 7.61609,-7.7554 14.98077,-15.7859 22.02164,-24.0763 7.04087,-8.29 13.72773,-16.8255 20.15977,-25.6169 6.43203,-8.7914 12.57251,-17.8345 18.36206,-27.0937 5.78956,-9.2592 11.25835,-18.7488 16.37178,-28.442 4.09357,-7.7599 7.97764,-15.6724 11.62075,-23.6909 3.64312,-8.0184 7.03312,-16.1369 10.20829,-24.3971 3.17516,-8.2603 6.10611,-16.618 8.79581,-25.1035 2.68971,-8.4853 5.13239,-17.1161 7.31916,-25.8097 2.18676,-8.6933 4.11195,-17.5024 5.77827,-26.3872 1.66632,-8.8849 3.10902,-17.8418 4.23739,-26.901 1.12839,-9.0596 1.9952,-18.1976 2.56813,-27.4149 0.57294,-9.2171 0.83464,-18.5059 0.83464,-27.8641 0,-6.9181 0.17936,-13.7951 0.57783,-20.609 0.39855,-6.814 1.01166,-13.5894 1.79768,-20.2882 0.78603,-6.699 1.79094,-13.3302 2.95334,-19.9031 1.1624,-6.5727 2.51713,-13.0816 4.0448,-19.5175 1.52765,-6.4359 3.1902,-12.780299 5.07204,-19.068499 1.88183,-6.288 3.93857,-12.4894 6.16349,-18.6189 2.22491,-6.1294 4.63386,-12.2095 7.19074,-18.1693 2.55688,-5.9602 5.27601,-11.8121 8.15378,-17.5916 z"
       id="path5554" />
    <text
       xml:space="preserve"
       style="font-size:431.88031006px;font-style:normal;font-variant:normal;font-weight:bold;font-stretch:normal;line-height:125%;letter-spacing:0px;word-spacing:0px;fill:#000000;fill-opacity:1;stroke:none;display:inline;font-family:Bowlby One;-inkscape-font-specification:Bowlby One Bold"
       x="7.9645801"
       y="1016.123"
       id="text5556"
       sodipodi:linespacing="125%"><tspan
         sodipodi:role="line"
         id="tspan5558"
         x="7.9645801"
         y="1016.123">KMI</tspan></text>
    <text
       xml:space="preserve"
       style="font-size:285.0866394px;font-style:normal;font-variant:normal;font-weight:normal;font-stretch:normal;line-height:125%;letter-spacing:0px;word-spacing:0px;fill:#000000;fill-opacity:1;stroke:none;display:inline;font-family:League Gothic;-inkscape-font-specification:League Gothic"
       x="19.757793"
       y="1285.5488"
       id="text5560"
       sodipodi:linespacing="125%"><tspan
         sodipodi:role="line"
         id="tspan5562"
         x="19.757793"
         y="1285.5488">FOUNDATION</tspan></text>
  </g>
</svg>
