<?xml version="1.0" encoding="UTF-8" standalone="no"?>
<!-- Created with Inkscape (http://www.inkscape.org/) -->

<svg
   xmlns:dc="http://purl.org/dc/elements/1.1/"
   xmlns:cc="http://creativecommons.org/ns#"
   xmlns:rdf="http://www.w3.org/1999/02/22-rdf-syntax-ns#"
   xmlns:svg="http://www.w3.org/2000/svg"
   xmlns="http://www.w3.org/2000/svg"
   xmlns:sodipodi="http://sodipodi.sourceforge.net/DTD/sodipodi-0.dtd"
   xmlns:inkscape="http://www.inkscape.org/namespaces/inkscape"
   width="744.09448819"
   height="1052.3622047"
   id="svg2"
   version="1.1"
   inkscape:version="0.48.4 r9939"
   sodipodi:docname="kmi_foundation_office_of_tech_and_science.svg">
  <defs
     id="defs4">
    <inkscape:path-effect
       effect="spiro"
       id="path-effect5566"
       is_visible="true" />
    <inkscape:path-effect
       is_visible="true"
       id="path-effect5542"
       effect="spiro" />
    <inkscape:path-effect
       effect="spiro"
       id="path-effect5514"
       is_visible="true" />
    <inkscape:path-effect
       is_visible="true"
       id="path-effect5510"
       effect="spiro" />
    <inkscape:path-effect
       effect="spiro"
       id="path-effect5462"
       is_visible="true" />
  </defs>
  <sodipodi:namedview
     id="base"
     pagecolor="#ffffff"
     bordercolor="#666666"
     borderopacity="1.0"
     inkscape:pageopacity="0.0"
     inkscape:pageshadow="2"
     inkscape:zoom="0.70710678"
     inkscape:cx="350.29355"
     inkscape:cy="756.14436"
     inkscape:document-units="px"
     inkscape:current-layer="layer1"
     showgrid="false"
     showborder="true"
     inkscape:showpageshadow="true"
     inkscape:snap-bbox="false"
     inkscape:bbox-nodes="false"
     inkscape:snap-bbox-edge-midpoints="false"
     inkscape:window-width="1879"
     inkscape:window-height="1056"
     inkscape:window-x="41"
     inkscape:window-y="24"
     inkscape:window-maximized="1" />
  <metadata
     id="metadata7">
    <rdf:RDF>
      <cc:Work
         rdf:about="">
        <dc:format>image/svg+xml</dc:format>
        <dc:type
           rdf:resource="http://purl.org/dc/dcmitype/StillImage" />
        <dc:title></dc:title>
      </cc:Work>
    </rdf:RDF>
  </metadata>
  <g
     inkscape:label="lotus"
     inkscape:groupmode="layer"
     id="layer1"
     style="display:inline">
    <path
       inkscape:connector-curvature="0"
       style="fill:#000000;fill-opacity:1;stroke:none"
       d="m 190.86121,342.46374 -2.63485,7.41247 -7.91483,0.11277 6.27445,4.78787 -2.32729,7.51496 6.5205,-4.45975 6.45899,4.53154 -2.24527,-7.53551 6.33596,-4.7161 -7.91482,-0.20504 -2.55284,-7.44321 z m -0.041,25.47714 c -1.68974,0.72156 -3.35164,1.50308 -4.97239,2.34777 -1.62075,0.84473 -3.20138,1.75459 -4.74685,2.71689 -1.54546,0.96232 -3.04714,1.98088 -4.51103,3.0552 -1.4639,1.07431 -2.88896,2.2025 -4.26499,3.38328 -1.55727,1.33629 -3.05353,2.73998 -4.49053,4.20348 -1.21653,1.23893 -2.39222,2.51995 -3.51656,3.84461 -1.12434,1.3247 -2.19226,2.6961 -3.21924,4.10094 -1.02698,1.40488 -2.00774,2.84705 -2.93218,4.32652 -0.92444,1.47948 -1.79762,2.99331 -2.61435,4.54179 -0.53372,-1.01192 -1.09197,-2.01086 -1.67113,-2.9937 -0.57917,-0.9828 -1.17924,-1.94946 -1.80442,-2.9014 -0.70943,-1.0802 -1.44918,-2.13936 -2.21451,-3.17826 -0.76533,-1.03884 -1.55948,-2.05997 -2.37855,-3.05519 -0.81907,-0.99518 -1.66169,-1.96253 -2.53233,-2.91167 -0.87064,-0.94915 -1.76607,-1.87761 -2.68612,-2.77839 -0.21702,-0.21246 -0.43646,-0.42593 -0.65615,-0.63565 -0.56274,0.53719 -1.11585,1.08533 -1.66089,1.6404 -0.81903,0.83412 -1.62112,1.68953 -2.39905,2.56308 -0.77791,0.87356 -1.5307,1.76474 -2.26577,2.67583 -0.73506,0.91116 -1.45229,1.8418 -2.14274,2.78867 -0.69045,0.94687 -1.3551,1.91045 -1.99921,2.89118 -0.92202,1.40388 -1.80107,2.84646 -2.62461,4.31624 -0.82353,1.46977 -1.58652,2.96981 -2.30678,4.50078 -0.72025,1.53095 -1.39726,3.08764 -2.00947,4.67508 -0.61219,1.58745 -1.16154,3.19986 -1.66088,4.83911 -0.49932,1.63926 -0.94086,3.30657 -1.32254,4.9929 -0.3817,1.68636 -0.70447,3.39745 -0.96372,5.1262 -0.25925,1.72873 -0.46263,3.47254 -0.59464,5.23893 -0.13203,1.76642 -0.19481,3.55234 -0.19481,5.35173 0,1.79941 0.0628,3.58527 0.19481,5.35175 0.13201,1.76647 0.33539,3.51013 0.59464,5.23892 0.25925,1.72883 0.58202,3.43977 0.96372,5.12619 0.38168,1.68643 0.82322,3.35359 1.32254,4.9929 0.49934,1.63931 1.04869,3.25167 1.66088,4.83913 0.61221,1.58744 1.28922,3.14418 2.00947,4.67507 0.72026,1.53089 1.48325,3.04144 2.30678,4.51104 0.82354,1.46962 1.70259,2.90238 2.62461,4.30601 0.6439,0.9802 1.30869,1.94522 1.99921,2.89115 0.69052,0.94594 1.40756,1.86827 2.14274,2.77836 0.73519,0.91013 1.48784,1.80321 2.26577,2.6759 0.77793,0.87268 1.58034,1.72937 2.39905,2.56309 0.54608,0.55605 1.09705,1.11254 1.66089,1.6506 1.20103,1.1462 2.44344,2.2504 3.72161,3.31155 1.27817,1.06108 2.59647,2.08375 3.94715,3.05519 1.35069,0.97143 2.73364,1.891 4.15221,2.76815 1.41857,0.87712 2.86517,1.70284 4.347,2.48108 1.48184,0.77821 3.00132,1.50903 4.5418,2.18373 1.54047,0.6747 3.10109,1.29933 4.69558,1.86592 1.59449,0.56661 3.21573,1.07376 4.85962,1.52762 1.64388,0.45385 3.3145,0.85276 5.00315,1.18927 1.12775,0.22472 2.26801,0.42369 3.41404,0.59464 1.14602,0.17093 2.30241,0.31504 3.4653,0.43058 1.16288,0.11558 2.32799,0.19774 3.5063,0.25629 1.17832,0.0586 2.36525,0.0923 3.55757,0.0923 1.19233,0 2.37925,-0.0337 3.55757,-0.0923 1.17832,-0.0585 2.34343,-0.14071 3.50631,-0.25629 1.16288,-0.11554 2.31927,-0.25965 3.4653,-0.43058 1.14603,-0.17095 2.28628,-0.36992 3.41403,-0.59464 1.68866,-0.33651 3.35927,-0.73542 5.00316,-1.18927 1.64388,-0.45386 3.26512,-0.96101 4.85961,-1.52762 1.5945,-0.56659 3.15511,-1.19122 4.69559,-1.86592 1.54047,-0.6747 3.05996,-1.40552 4.54179,-2.18373 1.48184,-0.77824 2.92843,-1.60396 4.347,-2.48108 1.41857,-0.87715 2.80153,-1.79672 4.15221,-2.76815 1.35068,-0.97144 2.66899,-1.99411 3.94716,-3.05519 1.27817,-1.06115 2.52058,-2.16535 3.7216,-3.31155 0.56385,-0.53806 1.11481,-1.09455 1.66089,-1.6506 0.81872,-0.83372 1.62112,-1.69041 2.39905,-2.56309 0.77793,-0.87269 1.53058,-1.76577 2.26577,-2.6759 0.7352,-0.91009 1.45223,-1.83242 2.14275,-2.77836 0.69051,-0.94593 1.35531,-1.91095 1.99921,-2.89115 0.92201,-1.40363 1.80107,-2.83639 2.6246,-4.30601 0.82353,-1.4696 1.58652,-2.98015 2.30678,-4.51104 0.72026,-1.53089 1.39727,-3.08763 2.00947,-4.67507 0.61219,-1.58746 1.16154,-3.19982 1.66088,-4.83913 0.49934,-1.63931 0.94086,-3.30647 1.32255,-4.9929 0.38169,-1.68642 0.70447,-3.39736 0.96372,-5.12619 0.25925,-1.72879 0.46262,-3.47245 0.59464,-5.23892 0.13202,-1.76648 0.19479,-3.55234 0.19479,-5.35175 0,-1.79939 -0.0628,-3.58531 -0.19479,-5.35173 -0.13202,-1.76639 -0.33539,-3.5102 -0.59464,-5.23893 -0.25925,-1.72875 -0.58203,-3.43984 -0.96372,-5.1262 -0.38169,-1.68633 -0.82321,-3.35364 -1.32255,-4.9929 -0.49934,-1.63925 -1.04869,-3.25166 -1.66088,-4.83911 -0.6122,-1.58744 -1.28921,-3.14413 -2.00947,-4.67508 -0.72026,-1.53097 -1.48325,-3.03101 -2.30678,-4.50078 -0.82353,-1.46978 -1.70259,-2.91236 -2.6246,-4.31624 -0.64411,-0.98073 -1.30876,-1.94431 -1.99921,-2.89118 -0.69046,-0.94687 -1.40769,-1.87751 -2.14275,-2.78867 -0.73506,-0.91109 -1.48785,-1.80227 -2.26577,-2.67583 -0.77792,-0.87355 -1.58001,-1.72896 -2.39905,-2.56308 -0.54504,-0.55507 -1.09815,-1.10321 -1.66089,-1.6404 -0.21969,0.20972 -0.43913,0.42319 -0.65614,0.63565 -0.92006,0.90078 -1.81548,1.82924 -2.68612,2.77839 -0.87065,0.94914 -1.71327,1.91649 -2.53234,2.91167 -0.81907,0.99522 -1.61321,2.01635 -2.37855,3.05519 -0.76533,1.0389 -1.50507,2.09806 -2.2145,3.17826 -0.62519,0.95194 -1.22526,1.9186 -1.80442,2.9014 -0.57916,0.98284 -1.13742,1.98178 -1.67114,2.9937 -0.81672,-1.54848 -1.68991,-3.06231 -2.61435,-4.54179 -0.92443,-1.47947 -1.90519,-2.92164 -2.93217,-4.32652 -1.02698,-1.40484 -2.0949,-2.77624 -3.21925,-4.10094 -1.12434,-1.32466 -2.30002,-2.60568 -3.51655,-3.84461 -1.437,-1.4635 -2.93326,-2.86719 -4.49054,-4.20348 -1.37603,-1.18078 -2.80109,-2.30897 -4.26498,-3.38328 -1.46389,-1.07432 -2.96557,-2.09288 -4.51104,-3.0552 -1.54546,-0.9623 -3.12609,-1.87216 -4.74684,-2.71689 -1.62075,-0.84469 -3.28266,-1.62621 -4.9724,-2.34777 z m 0,18.25943 c 1.01401,0.59581 2.00256,1.21854 2.97319,1.87621 0.97062,0.65767 1.92557,1.35412 2.85015,2.07097 0.92458,0.71685 1.82051,1.46164 2.69637,2.23501 0.87587,0.77337 1.72835,1.57182 2.55284,2.39905 0.8245,0.82725 1.62861,1.68462 2.39906,2.56311 0.77044,0.87845 1.51102,1.77964 2.22476,2.7066 0.71374,0.92699 1.39611,1.87733 2.05047,2.85017 0.65436,0.97284 1.27361,1.96737 1.86593,2.98342 0.59232,1.01607 1.15377,2.04988 1.68139,3.10648 0.52761,1.05661 1.02635,2.13503 1.48659,3.22947 0.46024,1.09449 0.8811,2.20233 1.27129,3.33203 0.3902,1.12969 0.74876,2.28253 1.06625,3.44481 0.31749,1.16223 0.59857,2.33468 0.84069,3.52682 0.24212,1.19212 0.44081,2.39969 0.60489,3.61906 0.16408,1.21939 0.29597,2.45719 0.37934,3.70111 0.0834,1.24395 0.12303,2.49678 0.12303,3.7626 0,1.26579 -0.0396,2.5188 -0.12303,3.76265 -0.0834,1.24381 -0.21525,2.48186 -0.37934,3.70107 -0.16409,1.21925 -0.36276,2.4271 -0.60489,3.61908 -0.24213,1.19197 -0.52318,2.36472 -0.84069,3.52681 -0.31751,1.16209 -0.67603,2.30506 -1.06625,3.43454 -0.39021,1.12951 -0.81103,2.248 -1.27129,3.34228 -0.46026,1.09427 -0.95896,2.16288 -1.48659,3.21924 -0.52763,1.05637 -1.08906,2.1009 -1.68139,3.11673 -0.59233,1.01581 -1.21156,2.01082 -1.86593,2.9834 -0.65437,0.97262 -1.33673,1.92346 -2.05047,2.85017 -0.71374,0.92674 -1.46457,1.82846 -2.23502,2.70662 -0.77044,0.87818 -1.56432,1.72588 -2.3888,2.55286 -0.82447,0.82697 -1.67699,1.63616 -2.55284,2.40929 -0.87584,0.77313 -1.77182,1.51842 -2.69637,2.235 -0.92454,0.71663 -1.87958,1.40334 -2.85015,2.06074 -0.97058,0.6574 -1.95925,1.28062 -2.97319,1.87616 -1.01394,-0.59554 -2.00261,-1.21876 -2.97318,-1.87616 -0.97058,-0.6574 -1.92562,-1.34411 -2.85016,-2.06074 -0.92454,-0.71658 -1.82053,-1.46187 -2.69637,-2.235 -0.87584,-0.77313 -1.72836,-1.58232 -2.55284,-2.40929 -0.82447,-0.82698 -1.61835,-1.67468 -2.3888,-2.55286 -0.77044,-0.87816 -1.52127,-1.77988 -2.23501,-2.70662 -0.71374,-0.92671 -1.3961,-1.87755 -2.05048,-2.85017 -0.65437,-0.97258 -1.27359,-1.96759 -1.86592,-2.9834 -0.59234,-1.01583 -1.15376,-2.06036 -1.68139,-3.11673 -0.52763,-1.05636 -1.02634,-2.12497 -1.48659,-3.21924 -0.46026,-1.09428 -0.88108,-2.21277 -1.2713,-3.34228 -0.39021,-1.12948 -0.74873,-2.27245 -1.06624,-3.43454 -0.31751,-1.16209 -0.59856,-2.33484 -0.8407,-3.52681 -0.24213,-1.19198 -0.4408,-2.39983 -0.60488,-3.61908 -0.1641,-1.21921 -0.29596,-2.45726 -0.37934,-3.70107 -0.0834,-1.24385 -0.12303,-2.49686 -0.12303,-3.76265 0,-1.26582 0.0397,-2.51865 0.12303,-3.7626 0.0834,-1.24392 0.21526,-2.48172 0.37934,-3.70111 0.16407,-1.21937 0.36277,-2.42694 0.60488,-3.61906 0.24212,-1.19214 0.52321,-2.36459 0.8407,-3.52682 0.31749,-1.16228 0.67605,-2.31512 1.06624,-3.44481 0.3902,-1.1297 0.81106,-2.23754 1.2713,-3.33203 0.46023,-1.09444 0.95898,-2.17286 1.48659,-3.22947 0.52761,-1.0566 1.08907,-2.09041 1.68139,-3.10648 0.59231,-1.01605 1.21156,-2.01058 1.86592,-2.98342 0.65436,-0.97284 1.33674,-1.92318 2.05048,-2.85017 0.71373,-0.92696 1.45431,-1.82815 2.22476,-2.7066 0.77045,-0.87849 1.57456,-1.73586 2.39905,-2.56311 0.82449,-0.82723 1.67697,-1.62568 2.55284,-2.39905 0.87587,-0.77337 1.77179,-1.51816 2.69637,-2.23501 0.92458,-0.71685 1.87953,-1.4133 2.85016,-2.07097 0.97062,-0.65767 1.95918,-1.2804 2.97318,-1.87621 z m -49.21133,22.85255 c 0.45954,0.92291 0.89375,1.85738 1.30205,2.80914 0.4083,0.9517 0.79297,1.92261 1.14826,2.90139 0.35529,0.9788 0.68373,1.96908 0.98423,2.97319 0.30051,1.00414 0.56599,2.01725 0.80994,3.04498 0.24394,1.02773 0.46028,2.06711 0.6459,3.11668 0.18562,1.04961 0.34609,2.10852 0.4716,3.17826 0.12552,1.06971 0.22343,2.15165 0.28707,3.23975 0.0636,1.08809 0.0923,2.18625 0.0923,3.29098 0,1.49438 0.0418,2.97768 0.13328,4.44952 0.0915,1.47188 0.22991,2.9311 0.4101,4.37779 0.18018,1.44663 0.41056,2.87693 0.67665,4.29573 0.26609,1.41878 0.57352,2.82548 0.92271,4.21368 0.3492,1.38825 0.73926,2.76647 1.16877,4.12146 0.42951,1.35502 0.89755,2.68963 1.40458,4.00869 0.50703,1.31904 1.04837,2.61546 1.63012,3.89589 0.58176,1.28045 1.20199,2.54396 1.85568,3.78312 0.81655,1.54787 1.68984,3.06323 2.61435,4.5418 0.92452,1.47857 1.90507,2.92263 2.93218,4.3265 1.02711,1.40387 2.09491,2.76687 3.21924,4.09067 1.12433,1.32387 2.30038,2.60623 3.51656,3.84466 -1.47278,-0.67536 -2.90712,-1.41686 -4.30599,-2.21451 -1.39888,-0.79765 -2.76256,-1.64969 -4.08044,-2.56308 -1.31789,-0.9134 -2.59433,-1.88906 -3.82413,-2.91168 -1.2298,-1.02262 -2.4127,-2.09391 -3.54732,-3.21923 -1.05859,-1.04993 -2.07518,-2.14756 -3.04495,-3.28078 -0.96977,-1.1332 -1.89237,-2.30565 -2.76814,-3.51657 -0.87577,-1.21092 -1.7045,-2.45901 -2.48107,-3.74211 -0.77657,-1.28306 -1.50133,-2.59744 -2.1735,-3.94716 -0.45954,-0.9227 -0.89375,-1.85749 -1.30205,-2.80914 -0.40829,-0.95162 -0.79298,-1.92267 -1.14826,-2.90143 -0.35529,-0.97876 -0.68373,-1.96901 -0.98423,-2.97317 -0.3005,-1.00412 -0.56599,-2.01716 -0.80993,-3.04496 -0.24395,-1.02775 -0.46028,-2.06705 -0.6459,-3.11672 -0.18562,-1.04965 -0.34611,-2.1084 -0.47162,-3.17819 -0.12551,-1.06979 -0.22342,-2.15163 -0.28707,-3.23975 -0.0636,-1.08815 -0.0923,-2.18625 -0.0923,-3.29103 0,-1.10473 0.0286,-2.20289 0.0923,-3.29098 0.0636,-1.0881 0.16156,-2.17004 0.28707,-3.23975 0.12551,-1.06974 0.286,-2.12865 0.47162,-3.17826 0.18562,-1.04957 0.40195,-2.08895 0.6459,-3.11668 0.24394,-1.02773 0.50943,-2.04084 0.80993,-3.04498 0.3005,-1.00411 0.62894,-1.99439 0.98423,-2.97319 0.35528,-0.97878 0.73997,-1.94969 1.14826,-2.90139 0.4083,-0.95176 0.84251,-1.88623 1.30205,-2.80914 z m 98.42266,0 c 0.45955,0.92291 0.89376,1.85738 1.30206,2.80914 0.4083,0.9517 0.79297,1.92261 1.14826,2.90139 0.35529,0.9788 0.68372,1.96908 0.98423,2.97319 0.3005,1.00414 0.56599,2.01725 0.80993,3.04498 0.24395,1.02773 0.46028,2.06711 0.6459,3.11668 0.18562,1.04961 0.34609,2.10852 0.47161,3.17826 0.12552,1.06971 0.22342,2.15165 0.28707,3.23975 0.0636,1.08809 0.0923,2.18625 0.0923,3.29098 0,1.10478 -0.0286,2.20288 -0.0923,3.29103 -0.0636,1.08812 -0.16155,2.16996 -0.28707,3.23975 -0.12552,1.06976 -0.28599,2.12854 -0.47161,3.17819 -0.18562,1.04967 -0.40195,2.08897 -0.6459,3.11672 -0.24394,1.0278 -0.50943,2.04084 -0.80993,3.04496 -0.30051,1.00416 -0.62894,1.99441 -0.98423,2.97317 -0.35529,0.97876 -0.73996,1.94981 -1.14826,2.90143 -0.4083,0.95165 -0.84251,1.88644 -1.30206,2.80914 -0.67217,1.34972 -1.39693,2.6641 -2.1735,3.94716 -0.77656,1.2831 -1.6053,2.53119 -2.48107,3.74211 -0.87576,1.21092 -1.79836,2.38337 -2.76813,3.51657 -0.96978,1.13322 -1.98637,2.23085 -3.04495,3.28078 -1.13463,1.12532 -2.31752,2.19661 -3.54732,3.21923 -1.2298,1.02262 -2.50625,1.99828 -3.82413,2.91168 -1.31789,0.91339 -2.68156,1.76543 -4.08044,2.56308 -1.39888,0.79765 -2.83322,1.53915 -4.30599,2.21451 1.21618,-1.23843 2.39222,-2.52079 3.51655,-3.84466 1.12434,-1.3238 2.19214,-2.6868 3.21925,-4.09067 1.02711,-1.40387 2.00766,-2.84793 2.93217,-4.3265 0.92452,-1.47857 1.79781,-2.99393 2.61435,-4.5418 0.65369,-1.23916 1.27393,-2.50267 1.85568,-3.78312 0.58176,-1.28043 1.1231,-2.57685 1.63013,-3.89589 0.50703,-1.31906 0.97506,-2.65367 1.40457,-4.00869 0.42951,-1.35499 0.81957,-2.73321 1.16877,-4.12146 0.3492,-1.3882 0.65662,-2.7949 0.92271,-4.21368 0.26609,-1.4188 0.49647,-2.8491 0.67666,-4.29573 0.18019,-1.44669 0.3186,-2.90591 0.41009,-4.37779 0.0915,-1.47184 0.13328,-2.95514 0.13328,-4.44952 0,-1.10473 0.0286,-2.20289 0.0923,-3.29098 0.0636,-1.0881 0.16155,-2.17004 0.28707,-3.23975 0.12552,-1.06974 0.28599,-2.12865 0.47161,-3.17826 0.18562,-1.04957 0.40195,-2.08895 0.6459,-3.11668 0.24394,-1.02773 0.50943,-2.04084 0.80994,-3.04498 0.3005,-1.00411 0.62893,-1.99439 0.98422,-2.97319 0.35529,-0.97878 0.73997,-1.94969 1.14827,-2.90139 0.4083,-0.95176 0.8425,-1.88623 1.30204,-2.80914 z"
       id="path5554" />
    <g
       style="font-size:68.96546173px;font-style:normal;font-variant:normal;font-weight:bold;font-stretch:normal;line-height:125%;letter-spacing:0px;word-spacing:0px;fill:#000000;fill-opacity:1;stroke:none;font-family:Bowlby One;-inkscape-font-specification:Bowlby One Bold"
       id="text5556">
      <path
         d="m 154.73379,539.36607 c 4.88281,-8.04821 9.26051,-16.09644 13.63819,-24.00995 -4.57973,0 -8.92376,-0.23572 -13.67186,-0.23572 -2.39089,0 -4.37769,0 -6.73491,0.0337 -1.11126,1.38065 -2.28987,4.10829 -3.03071,5.99407 -0.94288,2.39089 -1.91945,4.17564 -2.89601,6.33081 l -0.37042,0.80819 c -1.04391,2.22252 -2.52559,4.78179 -3.36745,7.0043 l -1.17861,-0.20204 c 0,-6.53286 0.0337,-12.96471 0.16837,-19.53124 -0.47144,-0.47144 -2.59294,-0.67349 -4.27667,-0.67349 -1.21228,0 -2.25619,0.0674 -2.69396,0.10102 l -4.74811,-0.0673 c -1.8521,-0.0337 -3.7042,-0.0337 -5.45528,-0.0337 -0.97656,0 -1.48168,0 -2.39089,0.0337 -0.33674,0.4041 -0.37042,1.27964 -0.37042,2.28987 0,0.80819 0.10103,2.02048 0.10103,2.89601 l -0.10103,16.6689 0,19.02612 c 0,1.75107 -0.0674,3.40113 -0.0674,5.2869 l 0,5.11853 0.10103,0.10103 c 0.26939,0.50511 0.43777,0.70716 1.34698,0.70716 l 3.09806,0 c 2.49191,0 6.29714,-0.0674 9.52989,-0.0674 l 1.81843,0 c 0.23572,0 0.47144,0.0337 0.70716,0.0337 1.65005,0 3.19908,-0.10103 3.53583,-0.60615 0,-1.98679 -0.0674,-6.02774 -0.0674,-7.64412 l 0,-0.43777 c 0.1347,-2.55926 0.37042,-8.51966 0.80819,-12.72897 3.60317,7.30737 7.61045,15.11987 10.77585,21.04659 l 15.11987,0 c 0.94289,-0.0337 2.42457,-0.0674 3.30011,-0.0674 1.01023,0 1.8521,0.0337 2.79498,0.0674 l 0.20205,0 c 0.10102,-0.1347 0.20205,-0.2694 0.20205,-0.43777 0,-0.50512 -0.87554,-1.95313 -1.48168,-2.96336 l -0.80819,-1.31331 c -3.97359,-6.4655 -7.4084,-12.83001 -11.31465,-19.26184 -0.37042,-0.57246 -0.87554,-1.3133 -1.448,-2.02047 l -0.77452,-1.24596"
         style=""
         id="path5684" />
      <path
         d="m 233.33017,567.01287 1.75108,0 c 0.90921,0 1.78475,-0.0337 2.69396,-0.0674 l 1.51536,-0.0674 c 0.67349,-0.0337 1.24596,-0.0337 1.34698,-0.47144 0.1347,-3.97359 0.20205,-8.62069 0.20205,-12.76265 -0.16838,-8.25026 -0.37042,-16.50054 -0.57247,-24.64977 l -0.33675,-12.72897 c -0.0337,-0.80819 -0.13469,-1.14494 -0.33674,-1.24596 l -3.77155,0 c -0.43777,0 -0.90921,-0.0337 -1.31331,-0.0337 -7.34104,0 -14.34536,0.20205 -21.92212,0.20205 l -0.1347,0 c -0.2694,0.37042 -0.60614,3.19908 -0.90922,4.78179 l -0.10102,0.53879 c 0,0.26939 -0.0674,0.43777 -0.0674,0.50512 l -4.27666,21.85477 -1.17861,0 -2.3909,-12.05548 c -1.04391,-5.21955 -1.9868,-10.00135 -2.89601,-15.35559 -6.12876,0 -3.0644,-0.5388 -19.46388,-0.5388 -1.04391,0 -1.88578,0.0337 -2.69397,0.0337 l -4.61341,0 c -0.30307,0.30307 -0.37042,0.50512 -0.37042,0.70716 0,1.07759 0.0674,2.1215 0.0674,3.16541 l 0,1.68373 c 0,0.57247 0.0337,1.14493 0.0337,1.75108 -0.0674,12.66161 0,24.91917 -0.1347,37.61446 0,1.61637 0.0674,4.44504 0.16837,5.89304 0,0.0337 -0.0337,0.10103 -0.0337,0.1347 l 0,0.20205 c -0.0674,0.26939 -0.1347,0.50512 -0.1347,0.57247 0.0674,-0.0337 0.63981,-0.0337 1.21228,-0.0337 4.00727,0 7.91352,-0.10102 11.95446,-0.10102 0.30307,0 0.57247,0.0337 0.84187,0.0337 l 2.45824,0 c 0.0337,0 0.0337,-0.0337 0.0337,-0.0674 -0.0337,-3.46847 -0.0337,-9.02478 -0.0337,-12.25753 0,-5.79202 0.16837,-11.75242 0.40409,-17.30871 l 1.24596,-0.0674 2.52559,10.91055 c 0.0674,1.68372 0.74084,3.36745 1.14494,5.05118 l 3.06438,13.36879 -0.0337,-0.0337 c 0.30307,0.80819 1.5827,0.70716 2.66028,0.70716 0.90922,0 1.81843,-0.0337 2.66029,-0.0337 l 1.58271,0 c 0.63981,0 1.38065,-0.0337 2.05414,-0.0337 1.24596,0 2.49192,0.10103 3.77155,0.10103 l 0.43777,0 c 1.54903,0 3.16541,0 3.5695,-0.47145 0.60614,-2.52558 1.11126,-5.25323 1.68373,-7.77882 l 0.30307,-1.34698 c 1.27963,-5.69099 2.76131,-12.59428 4.27667,-18.15057 l 1.27963,0.23572 c 0.0337,1.7174 0.0337,3.73787 0.0337,5.32057 l 0,2.72764 c 0,3.03071 -0.0673,6.26347 -0.0673,10.57381 0,3.80522 0.0337,8.01454 1.1786,9.02478 3.23276,0 6.3645,0 9.63092,-0.0337"
         style=""
         id="path5686" />
      <path
         d="m 267.00472,515.79389 0.23572,0 c -0.0337,-0.33674 -0.0673,-0.50512 -0.10102,-0.57246 -1.68373,0.16837 -3.36746,0.20204 -5.25323,0.20204 -5.25323,0 -9.83297,-0.1347 -14.8168,-0.43777 -0.10102,0.1347 -0.16837,0.30308 -0.16837,0.47145 0,0.80819 0.0337,1.65005 0.13469,2.42456 l 0,1.11126 c 0,1.38066 0.0337,2.86234 0.10103,4.27667 -0.2694,9.93398 -0.4041,19.83432 -0.4041,29.53257 -0.43777,3.19908 -0.30307,6.26347 -0.37042,9.49623 l -0.10102,3.70419 c 0,0.2694 -0.0337,0.37043 -0.0337,0.57247 0.26939,0.16837 0.60614,0.37042 0.87553,0.50512 6.09509,0 12.29122,-0.30307 18.85775,-0.30307 l 1.14493,0 c 0.23572,-0.10102 0.50512,-0.33675 0.60614,-0.57247 l -0.1347,-4.84913 c -0.0337,-1.54903 -0.13469,-3.33378 -0.13469,-4.95016 0,-0.16837 -0.0337,-0.30307 -0.10103,-0.43777 l 0,-0.0674 c -0.0673,-0.1347 -0.10102,-0.30307 -0.10102,-0.50512 0,-9.19314 -0.23572,-18.01589 -0.23572,-27.41107 l 0,-1.95313 0,-10.23706"
         style=""
         id="path5688" />
    </g>
    <text
       xml:space="preserve"
       style="font-size:45.52449417px;font-style:normal;font-variant:normal;font-weight:normal;font-stretch:normal;line-height:125%;letter-spacing:0px;word-spacing:0px;fill:#000000;fill-opacity:1;stroke:none;font-family:League Gothic;-inkscape-font-specification:League Gothic"
       x="115.46674"
       y="608.92529"
       id="text5560"
       sodipodi:linespacing="125%"><tspan
         sodipodi:role="line"
         id="tspan5562"
         x="115.46674"
         y="608.92529">FOUNDATION</tspan></text>
    <path
       style="fill:none;stroke:#000000;stroke-width:7.98432589;stroke-linecap:butt;stroke-linejoin:miter;stroke-miterlimit:4;stroke-opacity:1;stroke-dasharray:none"
       d="m 299.09724,609.07726 0,-254.84472"
       id="path5564"
       inkscape:path-effect="#path-effect5566"
       inkscape:original-d="m 299.09724,609.07726 0,-254.84472"
       inkscape:connector-curvature="0" />
    <text
       xml:space="preserve"
       style="font-size:105.61241913px;font-style:normal;font-variant:normal;font-weight:normal;font-stretch:normal;line-height:125%;letter-spacing:0px;word-spacing:0px;fill:#000000;fill-opacity:1;stroke:none;font-family:League Gothic;-inkscape-font-specification:League Gothic"
       x="324.03809"
       y="428.71036"
       id="text5568"
       sodipodi:linespacing="125%"><tspan
         sodipodi:role="line"
         id="tspan5570"
         x="324.03809"
         y="428.71036">Office of </tspan></text>
    <text
       xml:space="preserve"
       style="font-size:100.96340179px;font-style:normal;font-variant:normal;font-weight:normal;font-stretch:normal;line-height:125%;letter-spacing:0px;word-spacing:0px;fill:#000000;fill-opacity:1;stroke:none;font-family:League Gothic;-inkscape-font-specification:League Gothic"
       x="324.40155"
       y="519.95697"
       id="text5572"
       sodipodi:linespacing="125%"><tspan
         sodipodi:role="line"
         id="tspan5574"
         x="324.40155"
         y="519.95697">TECHNOLOGY</tspan></text>
    <text
       xml:space="preserve"
       style="font-size:114.16889191px;font-style:normal;font-variant:normal;font-weight:normal;font-stretch:normal;text-align:start;line-height:125%;letter-spacing:0px;word-spacing:0px;writing-mode:lr-tb;text-anchor:start;fill:#000000;fill-opacity:1;stroke:none;font-family:Liberation Mono;-inkscape-font-specification:Liberation Mono"
       x="322.40942"
       y="608.35455"
       id="text5576"
       sodipodi:linespacing="125%"><tspan
         sodipodi:role="line"
         id="tspan5578"
         x="322.40942"
         y="608.35455">&amp;</tspan></text>
    <text
       sodipodi:linespacing="125%"
       id="text5584"
       y="608.10986"
       x="401.58478"
       style="font-size:100.96340179px;font-style:normal;font-variant:normal;font-weight:normal;font-stretch:normal;line-height:125%;letter-spacing:0px;word-spacing:0px;fill:#000000;fill-opacity:1;stroke:none;font-family:League Gothic;-inkscape-font-specification:League Gothic"
       xml:space="preserve"><tspan
         y="608.10986"
         x="401.58478"
         id="tspan5586"
         sodipodi:role="line">SCIENCE</tspan></text>
  </g>
  <g
     inkscape:groupmode="layer"
     id="layer2"
     inkscape:label="wireframe"
     style="display:none">
    <path
       inkscape:connector-curvature="0"
       id="path4031"
       d="m 49.5,-122.64637 c -119.825814,0 -217.48489,97.699183 -217.48489,217.524997 0,119.825823 97.659076,217.484893 217.48489,217.484893 119.82582,0 217.48489,-97.65907 217.48489,-217.484893 0,-119.825814 -97.65907,-217.524997 -217.48489,-217.524997 z m 0,50.009897 c 92.80381,0 167.5151,74.7112914 167.5151,167.5151 0,92.803813 -74.71129,167.474993 -167.5151,167.474993 -92.803809,0 -167.5151,-74.67118 -167.5151,-167.474993 0,-92.8038086 74.711291,-167.5151 167.5151,-167.5151 z"
       style="font-size:medium;font-style:normal;font-variant:normal;font-weight:normal;font-stretch:normal;text-indent:0;text-align:start;text-decoration:none;line-height:normal;letter-spacing:normal;word-spacing:normal;text-transform:none;direction:ltr;block-progression:tb;writing-mode:lr-tb;text-anchor:start;baseline-shift:baseline;color:#000000;fill:#000000;fill-opacity:1;stroke:none;stroke-width:38.9610405;marker:none;visibility:visible;display:inline;overflow:visible;enable-background:accumulate;font-family:Sans;-inkscape-font-specification:Sans" />
    <path
       inkscape:connector-curvature="0"
       id="path4033"
       d="m 349.5,-122.64637 c -119.82581,0 -217.48489,97.699183 -217.48489,217.524997 0,119.825823 97.65908,217.484893 217.48489,217.484893 119.82582,0 217.48489,-97.65907 217.48489,-217.484893 0,-119.825814 -97.65907,-217.524997 -217.48489,-217.524997 z m 0,50.009897 c 92.80381,0 167.5151,74.7112914 167.5151,167.5151 0,92.803813 -74.71129,167.474993 -167.5151,167.474993 -92.80381,0 -167.5151,-74.67118 -167.5151,-167.474993 0,-92.8038086 74.71129,-167.5151 167.5151,-167.5151 z"
       style="font-size:medium;font-style:normal;font-variant:normal;font-weight:normal;font-stretch:normal;text-indent:0;text-align:start;text-decoration:none;line-height:normal;letter-spacing:normal;word-spacing:normal;text-transform:none;direction:ltr;block-progression:tb;writing-mode:lr-tb;text-anchor:start;baseline-shift:baseline;color:#000000;fill:#000000;fill-opacity:1;stroke:none;stroke-width:38.9610405;marker:none;visibility:visible;display:inline;overflow:visible;enable-background:accumulate;font-family:Sans;-inkscape-font-specification:Sans" />
    <path
       inkscape:connector-curvature="0"
       id="path4035"
       d="m -250.5,-122.64637 c -119.82581,0 -217.48489,97.699183 -217.48489,217.524997 0,119.825823 97.65908,217.484893 217.48489,217.484893 119.82582,0 217.484893,-97.65907 217.484893,-217.484893 0,-119.825814 -97.659073,-217.524997 -217.484893,-217.524997 z m 0,50.009897 c 92.80381,0 167.515103,74.7112914 167.515103,167.5151 0,92.803813 -74.711293,167.474993 -167.515103,167.474993 -92.80381,0 -167.5151,-74.67118 -167.5151,-167.474993 0,-92.8038086 74.71129,-167.5151 167.5151,-167.5151 z"
       style="font-size:medium;font-style:normal;font-variant:normal;font-weight:normal;font-stretch:normal;text-indent:0;text-align:start;text-decoration:none;line-height:normal;letter-spacing:normal;word-spacing:normal;text-transform:none;direction:ltr;block-progression:tb;writing-mode:lr-tb;text-anchor:start;baseline-shift:baseline;color:#000000;fill:#000000;fill-opacity:1;stroke:none;stroke-width:38.9610405;marker:none;visibility:visible;display:inline;overflow:visible;enable-background:accumulate;font-family:Sans;-inkscape-font-specification:Sans" />
    <path
       inkscape:connector-curvature="0"
       id="path4037"
       d="m 134.49999,-122.64637 c -119.825811,0 -217.484887,97.699183 -217.484887,217.524997 0,119.825823 97.659076,217.484893 217.484887,217.484893 119.82582,0 217.48489,-97.65907 217.48489,-217.484893 0,-119.825814 -97.65907,-217.524997 -217.48489,-217.524997 z m 0,50.009897 c 92.80381,0 167.5151,74.7112914 167.5151,167.5151 0,92.803813 -74.71129,167.474993 -167.5151,167.474993 -92.803806,0 -167.515097,-74.67118 -167.515097,-167.474993 0,-92.8038086 74.711291,-167.5151 167.515097,-167.5151 z"
       style="font-size:medium;font-style:normal;font-variant:normal;font-weight:normal;font-stretch:normal;text-indent:0;text-align:start;text-decoration:none;line-height:normal;letter-spacing:normal;word-spacing:normal;text-transform:none;direction:ltr;block-progression:tb;writing-mode:lr-tb;text-anchor:start;baseline-shift:baseline;color:#000000;fill:#000000;fill-opacity:1;stroke:none;stroke-width:38.9610405;marker:none;visibility:visible;display:inline;overflow:visible;enable-background:accumulate;font-family:Sans;-inkscape-font-specification:Sans" />
    <path
       inkscape:connector-curvature="0"
       id="path4039"
       d="m -35.499987,-122.64637 c -119.825813,0 -217.484893,97.699183 -217.484893,217.524997 0,119.825823 97.65908,217.484893 217.484893,217.484893 119.825818,0 217.484887,-97.65907 217.484887,-217.484893 0,-119.825814 -97.659069,-217.524997 -217.484887,-217.524997 z m 0,50.009897 c 92.803809,0 167.515097,74.7112914 167.515097,167.5151 0,92.803813 -74.711288,167.474993 -167.515097,167.474993 -92.803813,0 -167.515103,-74.67118 -167.515103,-167.474993 0,-92.8038086 74.71129,-167.5151 167.515103,-167.5151 z"
       style="font-size:medium;font-style:normal;font-variant:normal;font-weight:normal;font-stretch:normal;text-indent:0;text-align:start;text-decoration:none;line-height:normal;letter-spacing:normal;word-spacing:normal;text-transform:none;direction:ltr;block-progression:tb;writing-mode:lr-tb;text-anchor:start;baseline-shift:baseline;color:#000000;fill:#000000;fill-opacity:1;stroke:none;stroke-width:38.9610405;marker:none;visibility:visible;display:inline;overflow:visible;enable-background:accumulate;font-family:Sans;-inkscape-font-specification:Sans" />
  </g>
</svg>
