<?xml version="1.0" encoding="UTF-8" standalone="no"?>
<!-- Created with Inkscape (http://www.inkscape.org/) -->

<svg
   xmlns:dc="http://purl.org/dc/elements/1.1/"
   xmlns:cc="http://creativecommons.org/ns#"
   xmlns:rdf="http://www.w3.org/1999/02/22-rdf-syntax-ns#"
   xmlns:svg="http://www.w3.org/2000/svg"
   xmlns="http://www.w3.org/2000/svg"
   xmlns:sodipodi="http://sodipodi.sourceforge.net/DTD/sodipodi-0.dtd"
   xmlns:inkscape="http://www.inkscape.org/namespaces/inkscape"
   width="744.09448819"
   height="1052.3622047"
   id="svg2"
   version="1.1"
   inkscape:version="0.48.4 r9939"
   sodipodi:docname="kmi_foundation_office_of_tech_and_science.svg">
  <defs
     id="defs4">
    <inkscape:path-effect
       effect="spiro"
       id="path-effect5566"
       is_visible="true" />
    <inkscape:path-effect
       is_visible="true"
       id="path-effect5542"
       effect="spiro" />
    <inkscape:path-effect
       effect="spiro"
       id="path-effect5514"
       is_visible="true" />
    <inkscape:path-effect
       is_visible="true"
       id="path-effect5510"
       effect="spiro" />
    <inkscape:path-effect
       effect="spiro"
       id="path-effect5462"
       is_visible="true" />
  </defs>
  <sodipodi:namedview
     id="base"
     pagecolor="#ffffff"
     bordercolor="#666666"
     borderopacity="1.0"
     inkscape:pageopacity="0.0"
     inkscape:pageshadow="2"
     inkscape:zoom="1"
     inkscape:cx="57.979058"
     inkscape:cy="609.43535"
     inkscape:document-units="px"
     inkscape:current-layer="layer1"
     showgrid="false"
     showborder="true"
     inkscape:showpageshadow="true"
     inkscape:snap-bbox="false"
     inkscape:bbox-nodes="false"
     inkscape:snap-bbox-edge-midpoints="false"
     inkscape:window-width="1879"
     inkscape:window-height="1056"
     inkscape:window-x="41"
     inkscape:window-y="24"
     inkscape:window-maximized="1" />
  <metadata
     id="metadata7">
    <rdf:RDF>
      <cc:Work
         rdf:about="">
        <dc:format>image/svg+xml</dc:format>
        <dc:type
           rdf:resource="http://purl.org/dc/dcmitype/StillImage" />
        <dc:title />
      </cc:Work>
    </rdf:RDF>
  </metadata>
  <g
     inkscape:label="lotus"
     inkscape:groupmode="layer"
     id="layer1"
     style="display:inline">
    <path
       style="fill:none;stroke:#000000;stroke-width:7.98432589;stroke-linecap:butt;stroke-linejoin:miter;stroke-miterlimit:4;stroke-opacity:1;stroke-dasharray:none"
       d="m 299.09724,609.07726 0,-254.84472"
       id="path5564"
       inkscape:path-effect="#path-effect5566"
       inkscape:original-d="m 299.09724,609.07726 0,-254.84472"
       inkscape:connector-curvature="0" />
    <g
       id="g4425">
      <text
         sodipodi:linespacing="125%"
         id="text5568"
         y="428.71033"
         x="322.93796"
         style="font-size:105.61241913px;font-style:normal;font-variant:normal;font-weight:normal;font-stretch:normal;line-height:125%;letter-spacing:0px;word-spacing:0px;fill:#000000;fill-opacity:1;stroke:none;font-family:League Gothic;-inkscape-font-specification:League Gothic"
         xml:space="preserve"><tspan
           y="428.71033"
           x="322.93796"
           id="tspan5570"
           sodipodi:role="line">Office of </tspan></text>
      <text
         sodipodi:linespacing="125%"
         id="text5572"
         y="518.42871"
         x="326.22125"
         style="font-size:100.96340179px;font-style:normal;font-variant:normal;font-weight:normal;font-stretch:normal;line-height:125%;letter-spacing:0px;word-spacing:0px;fill:#000000;fill-opacity:1;stroke:none;font-family:League Gothic;-inkscape-font-specification:League Gothic"
         xml:space="preserve"><tspan
           y="518.42871"
           x="326.22125"
           id="tspan5574"
           sodipodi:role="line">TECHNOLOGY</tspan></text>
      <text
         sodipodi:linespacing="125%"
         id="text5576"
         y="607.80261"
         x="322.40942"
         style="font-size:114.16889191px;font-style:normal;font-variant:normal;font-weight:normal;font-stretch:normal;text-align:start;line-height:125%;letter-spacing:0px;word-spacing:0px;writing-mode:lr-tb;text-anchor:start;fill:#000000;fill-opacity:1;stroke:none;font-family:Liberation Sans;-inkscape-font-specification:Liberation Sans"
         xml:space="preserve"><tspan
           y="607.80261"
           x="322.40942"
           id="tspan5578"
           sodipodi:role="line">&amp;</tspan></text>
      <text
         xml:space="preserve"
         style="font-size:100.96340179px;font-style:normal;font-variant:normal;font-weight:normal;font-stretch:normal;line-height:125%;letter-spacing:0px;word-spacing:0px;fill:#000000;fill-opacity:1;stroke:none;font-family:League Gothic;-inkscape-font-specification:League Gothic"
         x="401.58478"
         y="608.10986"
         id="text5584"
         sodipodi:linespacing="125%"><tspan
           sodipodi:role="line"
           id="tspan5586"
           x="401.58478"
           y="608.10986">SCIENCE</tspan></text>
    </g>
    <path
       inkscape:connector-curvature="0"
       style="fill:#000000;fill-opacity:1;stroke:none;display:inline"
       d="m 201.3756,353.98138 -2.41223,6.78618 -7.24609,0.10319 5.74431,4.38333 -2.13065,6.87999 5.96957,-4.08292 5.91325,4.14865 -2.05557,-6.89881 5.80063,-4.31762 -7.24608,-0.18772 -2.33714,-6.81431 z m -0.0375,23.3245 c -1.54697,0.6606 -3.06846,1.37608 -4.55227,2.14941 -1.4838,0.77335 -2.93089,1.60635 -4.34577,2.48733 -1.41488,0.88101 -2.78968,1.8135 -4.12988,2.79707 -1.34021,0.98353 -2.64487,2.01639 -3.90463,3.0974 -1.42569,1.22339 -2.79554,2.50848 -4.11112,3.84833 -1.11373,1.13423 -2.19009,2.30701 -3.21942,3.51976 -1.02935,1.21277 -2.00705,2.4683 -2.94724,3.75444 -0.94022,1.28617 -1.83811,2.60649 -2.68443,3.96095 -0.84635,1.35448 -1.64574,2.74041 -2.39346,4.15805 -0.48862,-0.92642 -0.99971,-1.84095 -1.52994,-2.74075 -0.53023,-0.89976 -1.0796,-1.78475 -1.65196,-2.65626 -0.64948,-0.98893 -1.32673,-1.9586 -2.02739,-2.90971 -0.70066,-0.95107 -1.42771,-1.88592 -2.17758,-2.79705 -0.74987,-0.91109 -1.52128,-1.7967 -2.31838,-2.66566 -0.79706,-0.86895 -1.61684,-1.71897 -2.45915,-2.54363 -0.19867,-0.19452 -0.39959,-0.38994 -0.60071,-0.58195 -0.51519,0.49181 -1.02157,0.99362 -1.52054,1.50181 -0.74985,0.76363 -1.48416,1.54678 -2.19635,2.34651 -0.71221,0.79976 -1.40139,1.61563 -2.07434,2.44975 -0.67295,0.83416 -1.32959,1.68617 -1.96171,2.55304 -0.6321,0.86686 -1.2406,1.74902 -1.83028,2.64689 -0.84411,1.28527 -1.64889,2.60596 -2.40284,3.95156 -0.75396,1.34558 -1.45248,2.71887 -2.11188,4.12049 -0.6594,1.4016 -1.27921,2.82675 -1.83968,4.28007 -0.56046,1.45332 -1.0634,2.92951 -1.52055,4.43025 -0.45714,1.50075 -0.86136,3.02718 -1.2108,4.57103 -0.34944,1.54386 -0.64496,3.11037 -0.8823,4.69306 -0.23735,1.58268 -0.42353,3.17915 -0.5444,4.79628 -0.12087,1.61718 -0.17833,3.2522 -0.17833,4.89956 0,1.64737 0.0575,3.28234 0.17833,4.89956 0.12087,1.61722 0.30705,3.21355 0.5444,4.79627 0.23734,1.58276 0.53286,3.14914 0.8823,4.69306 0.34944,1.54394 0.75366,3.07024 1.2108,4.57104 0.45715,1.50079 0.96009,2.97692 1.52055,4.43025 0.56047,1.45332 1.18028,2.87852 1.83968,4.28008 0.6594,1.40153 1.35792,2.78445 2.11188,4.12988 0.75395,1.34545 1.55873,2.65715 2.40284,3.94218 0.58949,0.89738 1.19811,1.78086 1.83028,2.64687 0.63218,0.86601 1.28863,1.71042 1.96171,2.54361 0.67308,0.83323 1.36212,1.65084 2.07434,2.4498 0.7122,0.79895 1.44679,1.58326 2.19635,2.34653 0.49993,0.50906 1.00434,1.01854 1.52054,1.51113 1.09955,1.04936 2.23698,2.06027 3.40716,3.03174 1.17017,0.97145 2.37709,1.9077 3.61365,2.79705 1.23656,0.88936 2.50267,1.73124 3.80137,2.53427 1.29872,0.80301 2.62308,1.55897 3.97971,2.27145 1.35663,0.71246 2.74773,1.38153 4.15805,1.99922 1.41032,0.61769 2.83908,1.18955 4.29883,1.70826 1.45977,0.51875 2.94404,0.98303 4.44902,1.39855 1.50499,0.41551 3.03445,0.78071 4.58043,1.08879 1.03246,0.20573 2.07637,0.38789 3.12556,0.54439 1.04921,0.15649 2.10789,0.28843 3.17251,0.3942 1.06463,0.10578 2.13129,0.18103 3.21006,0.23464 1.07875,0.0537 2.16539,0.0845 3.25698,0.0845 1.09158,0 2.17822,-0.0308 3.25698,-0.0845 1.07875,-0.0536 2.14542,-0.12883 3.21004,-0.23464 1.06464,-0.10578 2.12332,-0.23771 3.17251,-0.3942 1.04919,-0.1565 2.09311,-0.33866 3.12558,-0.54439 1.54598,-0.30808 3.07542,-0.67328 4.58042,-1.08879 1.50499,-0.41552 2.98925,-0.8798 4.44901,-1.39855 1.45978,-0.51871 2.88852,-1.09057 4.29885,-1.70826 1.41031,-0.61769 2.80141,-1.28676 4.15803,-1.99922 1.35664,-0.71248 2.68101,-1.46844 3.97972,-2.27145 1.29871,-0.80303 2.56482,-1.64491 3.80137,-2.53427 1.23657,-0.88935 2.44349,-1.8256 3.61366,-2.79705 1.17017,-0.97147 2.30761,-1.98238 3.40714,-3.03174 0.51622,-0.49259 1.02064,-1.00207 1.52057,-1.51113 0.74953,-0.76327 1.48415,-1.54758 2.19635,-2.34653 0.71219,-0.79896 1.40126,-1.61657 2.07432,-2.4498 0.67308,-0.83319 1.32953,-1.6776 1.9617,-2.54361 0.63217,-0.86601 1.2408,-1.74949 1.83029,-2.64687 0.84412,-1.28503 1.64889,-2.59673 2.40285,-3.94218 0.75395,-1.34543 1.45247,-2.72835 2.11188,-4.12988 0.6594,-1.40156 1.27921,-2.82676 1.83968,-4.28008 0.56045,-1.45333 1.06339,-2.92946 1.52054,-4.43025 0.45716,-1.5008 0.86138,-3.0271 1.21081,-4.57104 0.34944,-1.54392 0.64495,-3.1103 0.88229,-4.69306 0.23735,-1.58272 0.42353,-3.17905 0.5444,-4.79627 0.12086,-1.61722 0.17833,-3.25219 0.17833,-4.89956 0,-1.64736 -0.0575,-3.28238 -0.17833,-4.89956 -0.12087,-1.61713 -0.30705,-3.2136 -0.5444,-4.79628 -0.23734,-1.58269 -0.53285,-3.1492 -0.88229,-4.69306 -0.34943,-1.54385 -0.75365,-3.07028 -1.21081,-4.57103 -0.45715,-1.50074 -0.96009,-2.97693 -1.52054,-4.43025 -0.56047,-1.45332 -1.18028,-2.87847 -1.83968,-4.28007 -0.65941,-1.40162 -1.35793,-2.77491 -2.11188,-4.12049 -0.75396,-1.3456 -1.55873,-2.66629 -2.40285,-3.95156 -0.58968,-0.89787 -1.19816,-1.78003 -1.83029,-2.64689 -0.63211,-0.86687 -1.28874,-1.71888 -1.9617,-2.55304 -0.67294,-0.83412 -1.36213,-1.64999 -2.07432,-2.44975 -0.71219,-0.79973 -1.44652,-1.58288 -2.19635,-2.34651 -0.49899,-0.50819 -1.00536,-1.01 -1.52057,-1.50181 -0.20111,0.19201 -0.40201,0.38743 -0.6007,0.58195 -0.84232,0.82466 -1.66207,1.67468 -2.45916,2.54363 -0.79708,0.86896 -1.5685,1.75457 -2.31837,2.66566 -0.74986,0.91113 -1.4769,1.84598 -2.17758,2.79705 -0.70067,0.95111 -1.37791,1.92078 -2.0274,2.90971 -0.57235,0.87151 -1.12173,1.7565 -1.65195,2.65626 -0.53022,0.8998 -1.04132,1.81433 -1.52994,2.74075 -0.74771,-1.41764 -1.54713,-2.80357 -2.39346,-4.15805 -0.84632,-1.35446 -1.74422,-2.67478 -2.68442,-3.96095 -0.94021,-1.28614 -1.91789,-2.54167 -2.94724,-3.75444 -1.02934,-1.21275 -2.1057,-2.38553 -3.21944,-3.51976 -1.31559,-1.33985 -2.68541,-2.62494 -4.11112,-3.84833 -1.25976,-1.08101 -2.56442,-2.11387 -3.90462,-3.0974 -1.3402,-0.98357 -2.715,-1.91606 -4.12988,-2.79707 -1.41487,-0.88098 -2.86196,-1.71398 -4.34577,-2.48733 -1.4838,-0.77333 -3.00529,-1.48881 -4.55226,-2.14941 z m 0,16.71665 c 0.92832,0.54546 1.83336,1.11557 2.72196,1.71769 0.88862,0.60209 1.76289,1.2397 2.60934,1.89598 0.84647,0.65629 1.6667,1.33814 2.46856,2.04616 0.80185,0.70804 1.58231,1.43903 2.33714,2.19635 0.75482,0.75735 1.491,1.54229 2.19634,2.34655 0.70535,0.80423 1.38336,1.62927 2.03679,2.47791 0.65343,0.84866 1.27815,1.71871 1.87722,2.60936 0.59907,0.89064 1.166,1.80113 1.70827,2.73134 0.54227,0.93022 1.05629,1.87668 1.53933,2.844 0.48303,0.96734 0.93963,1.95463 1.36098,2.9566 0.42134,1.00202 0.80665,2.01626 1.16388,3.0505 0.35723,1.03424 0.68549,2.08968 0.97616,3.15375 0.29066,1.06403 0.548,2.13741 0.76965,3.22883 0.22167,1.0914 0.40357,2.19693 0.55378,3.31327 0.15021,1.11637 0.27096,2.24958 0.34729,3.3884 0.0764,1.13883 0.11263,2.28582 0.11263,3.44469 0,1.15883 -0.0364,2.30597 -0.11263,3.44472 -0.0764,1.13873 -0.19705,2.27217 -0.34729,3.38837 -0.15022,1.11623 -0.3321,2.22203 -0.55378,3.31329 -0.22166,1.09126 -0.47898,2.16492 -0.76965,3.22882 -0.29068,1.0639 -0.61891,2.1103 -0.97616,3.14434 -0.35724,1.03408 -0.74252,2.05806 -1.16388,3.05989 -0.42137,1.00181 -0.87793,1.98012 -1.36098,2.94723 -0.48306,0.96711 -0.99703,1.92339 -1.53933,2.85339 -0.54228,0.92998 -1.10919,1.84093 -1.70827,2.73133 -0.59908,0.89044 -1.22378,1.76093 -1.87722,2.60934 -0.65343,0.84843 -1.34083,1.67397 -2.04617,2.47794 -0.70535,0.80398 -1.43215,1.58005 -2.18696,2.33716 -0.75482,0.7571 -1.5353,1.49792 -2.33714,2.20571 -0.80185,0.70781 -1.62213,1.39013 -2.46856,2.04616 -0.84642,0.65609 -1.72076,1.28478 -2.60934,1.88663 -0.88856,0.60185 -1.79369,1.17242 -2.72196,1.71764 -0.92827,-0.54522 -1.83341,-1.11579 -2.72197,-1.71764 -0.88858,-0.60185 -1.76292,-1.23054 -2.60935,-1.88663 -0.84641,-0.65603 -1.66671,-1.33835 -2.46855,-2.04616 -0.80183,-0.70779 -1.58232,-1.44861 -2.33713,-2.20571 -0.75482,-0.75711 -1.48162,-1.53318 -2.18697,-2.33716 -0.70535,-0.80397 -1.39273,-1.62951 -2.04617,-2.47794 -0.65343,-0.84841 -1.27814,-1.7189 -1.87723,-2.60934 -0.59908,-0.8904 -1.16599,-1.80135 -1.70826,-2.73133 -0.54228,-0.93 -1.05628,-1.88628 -1.53932,-2.85339 -0.48305,-0.96711 -0.93963,-1.94542 -1.36099,-2.94723 -0.42137,-1.00183 -0.80663,-2.02581 -1.16389,-3.05989 -0.35724,-1.03404 -0.68546,-2.08044 -0.97614,-3.14434 -0.29068,-1.0639 -0.54799,-2.13756 -0.76967,-3.22882 -0.22167,-1.09126 -0.40355,-2.19706 -0.55378,-3.31329 -0.15022,-1.1162 -0.27095,-2.24964 -0.34729,-3.38837 -0.0764,-1.13875 -0.11263,-2.28589 -0.11263,-3.44472 0,-1.15887 0.0364,-2.30586 0.11263,-3.44469 0.0764,-1.13882 0.19708,-2.27203 0.34729,-3.3884 0.15021,-1.11634 0.33212,-2.22187 0.55378,-3.31327 0.22167,-1.09142 0.479,-2.1648 0.76967,-3.22883 0.29066,-1.06407 0.61892,-2.11951 0.97614,-3.15375 0.35724,-1.03424 0.74254,-2.04848 1.16389,-3.0505 0.42135,-1.00197 0.87795,-1.98926 1.36099,-2.9566 0.48303,-0.96732 0.99705,-1.91378 1.53932,-2.844 0.54227,-0.93021 1.10919,-1.8407 1.70826,-2.73134 0.59908,-0.89065 1.2238,-1.7607 1.87723,-2.60936 0.65342,-0.84864 1.33144,-1.67368 2.03679,-2.47791 0.70534,-0.80426 1.44152,-1.5892 2.19635,-2.34655 0.75482,-0.75732 1.53528,-1.48831 2.33713,-2.19635 0.80188,-0.70802 1.6221,-1.38987 2.46855,-2.04616 0.84646,-0.65628 1.72072,-1.29389 2.60935,-1.89598 0.8886,-0.60212 1.79363,-1.17223 2.72197,-1.71769 z m -45.05334,20.92166 c 0.42073,0.84494 0.81824,1.70046 1.19204,2.5718 0.37381,0.87128 0.72598,1.76016 1.05125,2.65624 0.32526,0.89611 0.62595,1.80271 0.90107,2.72198 0.2751,0.9193 0.51816,1.84682 0.7415,2.7877 0.22332,0.94089 0.42139,1.89246 0.59132,2.85335 0.16993,0.96091 0.31685,1.93036 0.43176,2.90972 0.11491,0.97932 0.20454,1.96984 0.26282,2.96601 0.0582,0.99615 0.0845,2.00153 0.0845,3.01292 0,1.36811 0.0383,2.72608 0.12203,4.07357 0.0837,1.34752 0.21048,2.68344 0.37543,4.00789 0.16497,1.32441 0.37589,2.63385 0.6195,3.93277 0.2436,1.2989 0.52505,2.58674 0.84474,3.85766 0.3197,1.27095 0.6768,2.53272 1.07002,3.77323 0.39322,1.24053 0.82171,2.46237 1.2859,3.66997 0.46419,1.2076 0.95979,2.39448 1.49239,3.56672 0.5326,1.17226 1.10043,2.32902 1.69888,3.46347 0.74757,1.4171 1.54707,2.80441 2.39346,4.15806 0.8464,1.35364 1.7441,2.67568 2.68443,3.96093 0.94033,1.28525 1.91791,2.5331 2.94724,3.74504 1.02933,1.21202 2.10601,2.38603 3.21943,3.51982 -1.34833,-0.61829 -2.66148,-1.29714 -3.94216,-2.0274 -1.28068,-0.73026 -2.52914,-1.5103 -3.73567,-2.34652 -1.20654,-0.83621 -2.37514,-1.72945 -3.50103,-2.66566 -1.12589,-0.93622 -2.20884,-1.917 -3.24759,-2.94723 -0.96914,-0.96121 -1.89984,-1.96611 -2.78767,-3.00358 -0.88784,-1.03745 -1.73248,-2.11083 -2.53425,-3.21944 -0.80178,-1.1086 -1.56049,-2.25125 -2.27144,-3.42593 -0.71094,-1.17465 -1.37447,-2.37797 -1.98986,-3.61366 -0.42071,-0.84473 -0.81824,-1.70054 -1.19203,-2.57178 -0.37381,-0.87122 -0.72598,-1.76022 -1.05124,-2.65627 -0.32527,-0.89608 -0.62596,-1.80265 -0.90108,-2.72197 -0.2751,-0.91929 -0.51816,-1.84673 -0.74149,-2.78769 -0.22333,-0.9409 -0.4214,-1.8924 -0.59132,-2.85337 -0.16994,-0.96097 -0.31686,-1.93025 -0.43177,-2.90966 -0.11491,-0.9794 -0.20455,-1.96983 -0.26281,-2.96601 -0.0582,-0.99621 -0.0845,-2.00153 -0.0845,-3.01296 0,-1.01139 0.0262,-2.01677 0.0845,-3.01292 0.0582,-0.99617 0.1479,-1.98669 0.26281,-2.96601 0.11491,-0.97936 0.26183,-1.94881 0.43177,-2.90972 0.16992,-0.96089 0.36799,-1.91246 0.59132,-2.85335 0.22333,-0.94088 0.46639,-1.8684 0.74149,-2.7877 0.27512,-0.91927 0.57581,-1.82587 0.90108,-2.72198 0.32526,-0.89608 0.67743,-1.78496 1.05124,-2.65624 0.37379,-0.87134 0.77132,-1.72686 1.19203,-2.5718 z m 90.10665,0 c 0.42073,0.84494 0.81825,1.70046 1.19206,2.5718 0.37379,0.87128 0.72596,1.76016 1.05124,2.65624 0.32527,0.89611 0.62595,1.80271 0.90106,2.72198 0.27512,0.9193 0.51817,1.84682 0.7415,2.7877 0.22335,0.94089 0.42139,1.89246 0.59133,2.85335 0.16994,0.96091 0.31685,1.93036 0.43176,2.90972 0.11492,0.97932 0.20455,1.96984 0.26282,2.96601 0.0582,0.99615 0.0845,2.00153 0.0845,3.01292 0,1.01143 -0.0263,2.01675 -0.0845,3.01296 -0.0583,0.99618 -0.1479,1.98661 -0.26282,2.96601 -0.11491,0.97936 -0.26182,1.94869 -0.43176,2.90966 -0.16994,0.96097 -0.36798,1.91247 -0.59133,2.85337 -0.22333,0.94096 -0.46638,1.8684 -0.7415,2.78769 -0.27511,0.91932 -0.57579,1.82589 -0.90106,2.72197 -0.32528,0.89605 -0.67745,1.78505 -1.05124,2.65627 -0.37381,0.87124 -0.77133,1.72705 -1.19206,2.57178 -0.61536,1.23569 -1.27889,2.43901 -1.98983,3.61366 -0.71097,1.17468 -1.46968,2.31733 -2.27144,3.42593 -0.80178,1.10861 -1.64642,2.18199 -2.53425,3.21944 -0.88784,1.03747 -1.81854,2.04237 -2.78769,3.00358 -1.03875,1.03023 -2.1217,2.01101 -3.24759,2.94723 -1.12589,0.93621 -2.29448,1.82945 -3.50102,2.66566 -1.20653,0.83622 -2.45498,1.61626 -3.73566,2.34652 -1.28069,0.73026 -2.59384,1.40911 -3.94218,2.0274 1.11343,-1.13379 2.19011,-2.3078 3.21944,-3.51982 1.02933,-1.21194 2.0069,-2.45979 2.94724,-3.74504 0.94032,-1.28525 1.83803,-2.60729 2.68441,-3.96093 0.84642,-1.35365 1.64592,-2.74096 2.39347,-4.15806 0.59845,-1.13445 1.16628,-2.29121 1.69889,-3.46347 0.5326,-1.17224 1.02819,-2.35912 1.49239,-3.56672 0.46419,-1.2076 0.89268,-2.42944 1.2859,-3.66997 0.39322,-1.24051 0.75033,-2.50228 1.07002,-3.77323 0.31969,-1.27092 0.60114,-2.55876 0.84474,-3.85766 0.24361,-1.29892 0.45453,-2.60836 0.61949,-3.93277 0.16497,-1.32445 0.29168,-2.66037 0.37544,-4.00789 0.0837,-1.34749 0.12202,-2.70546 0.12202,-4.07357 0,-1.01139 0.0263,-2.01677 0.0845,-3.01292 0.0582,-0.99617 0.1479,-1.98669 0.26282,-2.96601 0.11491,-0.97936 0.26182,-1.94881 0.43176,-2.90972 0.16994,-0.96089 0.36799,-1.91246 0.59132,-2.85335 0.22334,-0.94088 0.46639,-1.8684 0.74151,-2.7877 0.27511,-0.91927 0.57578,-1.82587 0.90107,-2.72198 0.32527,-0.89608 0.67744,-1.78496 1.05124,-2.65624 0.37381,-0.87134 0.77133,-1.72686 1.19202,-2.5718 z"
       id="path5554" />
    <text
       xml:space="preserve"
       style="font-size:90.52114105px;font-style:normal;font-variant:normal;font-weight:normal;font-stretch:normal;line-height:125%;letter-spacing:0px;word-spacing:0px;fill:#000000;fill-opacity:1;stroke:none;display:inline;font-family:Trebuchet MS;-inkscape-font-specification:Trebuchet MS"
       x="131.34772"
       y="571.92511"
       id="text5556"
       sodipodi:linespacing="125%"><tspan
         sodipodi:role="line"
         id="tspan5558"
         x="131.34772"
         y="571.92511">KMI</tspan></text>
    <text
       xml:space="preserve"
       style="font-size:41.67799759px;font-style:normal;font-variant:normal;font-weight:normal;font-stretch:normal;line-height:125%;letter-spacing:0px;word-spacing:0px;fill:#000000;fill-opacity:1;stroke:none;display:inline;font-family:League Gothic;-inkscape-font-specification:League Gothic"
       x="130.71175"
       y="608.19708"
       id="text5560"
       sodipodi:linespacing="125%"><tspan
         sodipodi:role="line"
         id="tspan5562"
         x="130.71175"
         y="608.19708">FOUNDATION</tspan></text>
  </g>
  <g
     inkscape:groupmode="layer"
     id="layer2"
     inkscape:label="wireframe"
     style="display:none">
    <path
       inkscape:connector-curvature="0"
       id="path4031"
       d="m 49.5,-122.64637 c -119.825814,0 -217.48489,97.699183 -217.48489,217.524997 0,119.825823 97.659076,217.484893 217.48489,217.484893 119.82582,0 217.48489,-97.65907 217.48489,-217.484893 0,-119.825814 -97.65907,-217.524997 -217.48489,-217.524997 z m 0,50.009897 c 92.80381,0 167.5151,74.7112914 167.5151,167.5151 0,92.803813 -74.71129,167.474993 -167.5151,167.474993 -92.803809,0 -167.5151,-74.67118 -167.5151,-167.474993 0,-92.8038086 74.711291,-167.5151 167.5151,-167.5151 z"
       style="font-size:medium;font-style:normal;font-variant:normal;font-weight:normal;font-stretch:normal;text-indent:0;text-align:start;text-decoration:none;line-height:normal;letter-spacing:normal;word-spacing:normal;text-transform:none;direction:ltr;block-progression:tb;writing-mode:lr-tb;text-anchor:start;baseline-shift:baseline;color:#000000;fill:#000000;fill-opacity:1;stroke:none;stroke-width:38.9610405;marker:none;visibility:visible;display:inline;overflow:visible;enable-background:accumulate;font-family:Sans;-inkscape-font-specification:Sans" />
    <path
       inkscape:connector-curvature="0"
       id="path4033"
       d="m 349.5,-122.64637 c -119.82581,0 -217.48489,97.699183 -217.48489,217.524997 0,119.825823 97.65908,217.484893 217.48489,217.484893 119.82582,0 217.48489,-97.65907 217.48489,-217.484893 0,-119.825814 -97.65907,-217.524997 -217.48489,-217.524997 z m 0,50.009897 c 92.80381,0 167.5151,74.7112914 167.5151,167.5151 0,92.803813 -74.71129,167.474993 -167.5151,167.474993 -92.80381,0 -167.5151,-74.67118 -167.5151,-167.474993 0,-92.8038086 74.71129,-167.5151 167.5151,-167.5151 z"
       style="font-size:medium;font-style:normal;font-variant:normal;font-weight:normal;font-stretch:normal;text-indent:0;text-align:start;text-decoration:none;line-height:normal;letter-spacing:normal;word-spacing:normal;text-transform:none;direction:ltr;block-progression:tb;writing-mode:lr-tb;text-anchor:start;baseline-shift:baseline;color:#000000;fill:#000000;fill-opacity:1;stroke:none;stroke-width:38.9610405;marker:none;visibility:visible;display:inline;overflow:visible;enable-background:accumulate;font-family:Sans;-inkscape-font-specification:Sans" />
    <path
       inkscape:connector-curvature="0"
       id="path4035"
       d="m -250.5,-122.64637 c -119.82581,0 -217.48489,97.699183 -217.48489,217.524997 0,119.825823 97.65908,217.484893 217.48489,217.484893 119.82582,0 217.484893,-97.65907 217.484893,-217.484893 0,-119.825814 -97.659073,-217.524997 -217.484893,-217.524997 z m 0,50.009897 c 92.80381,0 167.515103,74.7112914 167.515103,167.5151 0,92.803813 -74.711293,167.474993 -167.515103,167.474993 -92.80381,0 -167.5151,-74.67118 -167.5151,-167.474993 0,-92.8038086 74.71129,-167.5151 167.5151,-167.5151 z"
       style="font-size:medium;font-style:normal;font-variant:normal;font-weight:normal;font-stretch:normal;text-indent:0;text-align:start;text-decoration:none;line-height:normal;letter-spacing:normal;word-spacing:normal;text-transform:none;direction:ltr;block-progression:tb;writing-mode:lr-tb;text-anchor:start;baseline-shift:baseline;color:#000000;fill:#000000;fill-opacity:1;stroke:none;stroke-width:38.9610405;marker:none;visibility:visible;display:inline;overflow:visible;enable-background:accumulate;font-family:Sans;-inkscape-font-specification:Sans" />
    <path
       inkscape:connector-curvature="0"
       id="path4037"
       d="m 134.49999,-122.64637 c -119.825811,0 -217.484887,97.699183 -217.484887,217.524997 0,119.825823 97.659076,217.484893 217.484887,217.484893 119.82582,0 217.48489,-97.65907 217.48489,-217.484893 0,-119.825814 -97.65907,-217.524997 -217.48489,-217.524997 z m 0,50.009897 c 92.80381,0 167.5151,74.7112914 167.5151,167.5151 0,92.803813 -74.71129,167.474993 -167.5151,167.474993 -92.803806,0 -167.515097,-74.67118 -167.515097,-167.474993 0,-92.8038086 74.711291,-167.5151 167.515097,-167.5151 z"
       style="font-size:medium;font-style:normal;font-variant:normal;font-weight:normal;font-stretch:normal;text-indent:0;text-align:start;text-decoration:none;line-height:normal;letter-spacing:normal;word-spacing:normal;text-transform:none;direction:ltr;block-progression:tb;writing-mode:lr-tb;text-anchor:start;baseline-shift:baseline;color:#000000;fill:#000000;fill-opacity:1;stroke:none;stroke-width:38.9610405;marker:none;visibility:visible;display:inline;overflow:visible;enable-background:accumulate;font-family:Sans;-inkscape-font-specification:Sans" />
    <path
       inkscape:connector-curvature="0"
       id="path4039"
       d="m -35.499987,-122.64637 c -119.825813,0 -217.484893,97.699183 -217.484893,217.524997 0,119.825823 97.65908,217.484893 217.484893,217.484893 119.825818,0 217.484887,-97.65907 217.484887,-217.484893 0,-119.825814 -97.659069,-217.524997 -217.484887,-217.524997 z m 0,50.009897 c 92.803809,0 167.515097,74.7112914 167.515097,167.5151 0,92.803813 -74.711288,167.474993 -167.515097,167.474993 -92.803813,0 -167.515103,-74.67118 -167.515103,-167.474993 0,-92.8038086 74.71129,-167.5151 167.515103,-167.5151 z"
       style="font-size:medium;font-style:normal;font-variant:normal;font-weight:normal;font-stretch:normal;text-indent:0;text-align:start;text-decoration:none;line-height:normal;letter-spacing:normal;word-spacing:normal;text-transform:none;direction:ltr;block-progression:tb;writing-mode:lr-tb;text-anchor:start;baseline-shift:baseline;color:#000000;fill:#000000;fill-opacity:1;stroke:none;stroke-width:38.9610405;marker:none;visibility:visible;display:inline;overflow:visible;enable-background:accumulate;font-family:Sans;-inkscape-font-specification:Sans" />
  </g>
</svg>
