<?xml version="1.0" encoding="UTF-8" standalone="no"?>
<!-- Created with Inkscape (http://www.inkscape.org/) -->

<svg
   xmlns:dc="http://purl.org/dc/elements/1.1/"
   xmlns:cc="http://creativecommons.org/ns#"
   xmlns:rdf="http://www.w3.org/1999/02/22-rdf-syntax-ns#"
   xmlns:svg="http://www.w3.org/2000/svg"
   xmlns="http://www.w3.org/2000/svg"
   xmlns:sodipodi="http://sodipodi.sourceforge.net/DTD/sodipodi-0.dtd"
   xmlns:inkscape="http://www.inkscape.org/namespaces/inkscape"
   width="744.09448819"
   height="1052.3622047"
   id="svg2983"
   version="1.1"
   inkscape:version="0.48.4 r9939"
   sodipodi:docname="lotus_v2.svg">
  <defs
     id="defs2985" />
  <sodipodi:namedview
     id="base"
     pagecolor="#ffffff"
     bordercolor="#666666"
     borderopacity="1.0"
     inkscape:pageopacity="0.0"
     inkscape:pageshadow="2"
     inkscape:zoom="0.70710678"
     inkscape:cx="690.25567"
     inkscape:cy="601.34964"
     inkscape:document-units="px"
     inkscape:current-layer="layer1"
     showgrid="false"
     showborder="true"
     inkscape:showpageshadow="false"
     inkscape:object-nodes="true"
     inkscape:window-width="1920"
     inkscape:window-height="1027"
     inkscape:window-x="0"
     inkscape:window-y="31"
     inkscape:window-maximized="1" />
  <metadata
     id="metadata2988">
    <rdf:RDF>
      <cc:Work
         rdf:about="">
        <dc:format>image/svg+xml</dc:format>
        <dc:type
           rdf:resource="http://purl.org/dc/dcmitype/StillImage" />
        <dc:title></dc:title>
      </cc:Work>
    </rdf:RDF>
  </metadata>
  <g
     inkscape:label="Layer 1"
     inkscape:groupmode="layer"
     id="layer1">
    <path
       style="font-size:medium;font-style:normal;font-variant:normal;font-weight:normal;font-stretch:normal;text-indent:0;text-align:start;text-decoration:none;line-height:normal;letter-spacing:normal;word-spacing:normal;text-transform:none;direction:ltr;block-progression:tb;writing-mode:lr-tb;text-anchor:start;baseline-shift:baseline;opacity:1;color:#000000;fill:#000000;fill-opacity:1;fill-rule:nonzero;stroke:none;stroke-width:25;marker:none;visibility:visible;display:inline;overflow:visible;enable-background:accumulate;font-family:Sans;-inkscape-font-specification:Sans"
       d="m 364.35655,266.4078 -6.78233,10.87582 -5.41784,8.66854 c 0,0 1.5e-4,0.0399 0,0.0401 -0.0741,0.11553 -18.30567,28.583 -34.87484,69.16776 -20.97726,-25.60101 -38.54404,-41.60153 -38.6272,-41.67723 l -0.0401,-0.02 -7.12346,-6.66193 -8.94947,-8.34749 -3.61189,11.71859 -2.86945,9.33072 c 0,0 9e-5,0.0399 0,0.0401 -0.041,0.1284 -10.40596,32.6204 -15.53114,75.93003 -23.79691,-16.80419 -42.10897,-26.28021 -42.19895,-26.32669 l -0.0401,-0.02 -8.06656,-4.27408 -10.1133,-5.39777 -0.42139,11.47779 -0.34112,9.13007 c 0,0 0.0201,0.0399 0.0201,0.0401 -0.006,0.12752 -1.52842,32.78141 4.57506,73.86322 -24.72458,-9.01932 -42.79087,-12.9831 -42.8812,-13.00282 l -0.0401,0 -8.26723,-1.90627 -10.37416,-2.40793 2.38787,10.39423 1.88621,8.26722 c 0,0 0.02,0.0399 0.0201,0.0401 0.025,0.11451 6.3522,29.09823 21.33024,63.95058 -14.7118,-1.34411 -26.93304,-1.62989 -34.57385,-1.62535 -5.45628,0.003 -8.57171,0.15881 -8.60835,0.16053 l -0.0401,0 -7.946162,0.28092 -9.952773,0.32106 4.675396,8.82907 3.712224,7.02313 0.02007,0.0401 c 0.05037,0.0975 12.828515,24.79157 34.834705,52.69351 -23.3221,4.02549 -39.271144,9.10506 -39.349572,9.13007 l -0.04013,0 -7.103391,2.1872 -8.909339,2.70892 6.340882,6.84253 5.076717,5.45797 0.02007,0.02 c 0.07028,0.0772 18.170803,19.94202 45.549993,40.17228 -19.07953,8.91811 -31.50137,16.87556 -31.56394,16.9157 l -0.0401,0 -5.819161,3.65203 -7.324117,4.555 7.324117,4.59513 5.819161,3.67209 c 0,0 0.04,-10e-5 0.0401,0 0.14253,0.0915 64.35373,41.27592 125.53336,41.27592 61.17966,0 125.3909,-41.18455 125.53337,-41.27592 l 0.0401,0 5.81916,-3.67209 7.30405,-4.57507 0.0401,0 7.30405,4.57507 5.81916,3.67209 0.0401,0 c 0.14247,0.0914 64.35372,41.27592 125.53337,41.27592 61.17964,0 125.39083,-41.18445 125.53336,-41.27592 1.6e-4,-10e-5 0.0401,0 0.0401,0 l 5.81917,-3.67209 7.32411,-4.59513 -7.32411,-4.555 -5.81917,-3.65203 -0.0401,0 c -0.0625,-0.0401 -12.48441,-7.99759 -31.56393,-16.9157 27.37918,-20.23026 45.47971,-40.09508 45.54999,-40.17228 l 0.02,-0.02 5.07672,-5.45797 6.34088,-6.84253 -8.90934,-2.70892 -7.10339,-2.1872 -0.0401,0 c -0.0784,-0.025 -16.02748,-5.10458 -39.34958,-9.13007 22.0062,-27.90194 34.78434,-52.59596 34.83471,-52.69351 l 0.02,-0.0401 3.71223,-7.02313 4.67539,-8.82907 -9.95277,-0.32106 -7.94617,-0.28092 -0.0401,0 c -0.0367,-0.002 -3.15207,-0.15729 -8.60834,-0.16053 -7.64081,-0.005 -19.86205,0.28124 -34.57385,1.62535 14.97804,-34.85235 21.30525,-63.83607 21.33024,-63.95058 5e-5,-2.3e-4 0.02,-0.0401 0.02,-0.0401 l 1.88621,-8.26722 2.38786,-10.39423 -10.37416,2.40793 -8.26722,1.90627 -0.0401,0 c -0.0903,0.0197 -18.15663,3.9835 -42.8812,13.00282 6.10348,-41.08181 4.58105,-73.7357 4.57506,-73.86322 0,-2.5e-4 0.02,-0.0401 0.02,-0.0401 l -0.34113,-9.13007 -0.42138,-11.47779 -10.11331,5.39777 -8.06656,4.27408 -0.0401,0.02 c -0.09,0.0465 -18.40206,9.5225 -42.19896,26.32669 -5.12518,-43.30963 -15.4902,-75.80163 -15.53114,-75.93003 -9e-5,-2.5e-4 0,-0.0401 0,-0.0401 l -2.86945,-9.33072 -3.61189,-11.71859 -8.94947,8.34749 -7.12346,6.66193 -0.0401,0.02 c -0.083,0.0757 -17.65707,16.08554 -38.62706,41.67723 -16.56937,-40.5829 -34.80072,-69.05224 -34.87484,-69.16776 l -0.02,-0.0401 -5.41784,-8.66854 -6.78233,-10.87582 -0.0401,0.0401 -0.02,-0.0401 z m 0.0401,15.16996 5.43791,8.66854 c 0,0 0.24193,0.38675 0.68224,1.10364 1.32096,2.15064 4.5017,7.40893 8.72875,15.10975 4.93155,8.98429 11.28902,21.29386 17.83874,35.83801 1.87134,4.15547 3.76722,8.48613 5.63856,12.98275 0.98033,2.3556 1.94164,4.76502 2.90959,7.20372 -1.55503,1.97715 -3.12369,4.01083 -4.69547,6.08002 -9.58599,-24.73832 -20.19505,-45.74641 -27.51059,-59.15479 7.9164,21.49767 15.2139,44.43185 20.96905,67.98386 0.11875,-0.16476 0.24251,-0.31744 0.36119,-0.48158 -10.7397,14.85793 -21.42538,31.64024 -30.35997,49.60334 -8.83637,-17.76831 -19.37766,-34.3842 -29.99878,-49.12176 5.75515,-23.55201 13.05265,-46.48619 20.96905,-67.98386 -7.31553,13.40838 -17.92459,34.41647 -27.51059,59.15479 -1.57814,-2.07734 -3.1543,-4.11556 -4.71553,-6.10008 0.9657,-2.43313 1.95155,-4.83341 2.92965,-7.18366 1.87134,-4.49662 3.76722,-8.82728 5.63856,-12.98275 12.16376,-27.01057 23.70543,-46.28802 26.56749,-50.94776 0.44032,-0.71689 0.68224,-1.10364 0.68224,-1.10364 l 5.43791,-8.66854 z m -98.14317,30.82149 7.16359,6.70207 c 0,0 78.92846,72.71765 100.51097,153.26468 4.77938,17.8369 6.92907,36.74807 7.38431,55.38236 -0.002,0.006 0.002,0.0141 0,0.02 -11.03055,33.42264 -15.32094,68.00546 -16.9157,93.14672 -2.27992,-35.94326 -10.05437,-91.21208 -35.17583,-134.72363 -17.02998,-29.49679 -42.72652,-54.78454 -66.86016,-74.24448 -0.71941,-24.39688 0.35329,-48.6489 2.44806,-71.59575 -3.5882,14.81306 -8.46925,38.16423 -11.13667,64.77329 -1.97407,-1.5071 -3.91046,-2.95293 -5.83923,-4.37441 4.83433,-44.57337 15.55121,-78.96 15.55121,-78.96 l 2.86945,-9.39092 z m 196.28634,0 2.86945,9.39092 c 0,0 10.71688,34.38663 15.55121,78.96001 -1.92877,1.42148 -3.86516,2.86731 -5.83923,4.3744 -2.66741,-26.60906 -7.54846,-49.96022 -11.13667,-64.77329 2.09477,22.94685 3.16747,47.19887 2.44806,71.59576 -24.13362,19.45994 -49.83017,44.74768 -66.86016,74.24447 -4.33684,7.51163 -8.15356,15.38329 -11.51793,23.43718 -1.16561,-13.24267 -3.29793,-26.46997 -6.72213,-39.24924 -3.19194,-11.91247 -7.56019,-23.60222 -12.68176,-34.89491 30.51642,-64.58245 86.72557,-116.38323 86.72557,-116.38323 l 7.16359,-6.70207 z m -275.6878,58.77353 8.1067,4.31421 c 0,0 89.01985,46.65386 128.06168,114.27629 33.4664,57.9655 35.21226,139.83952 35.03537,162.09376 -6.22685,-23.56465 -27.56776,-93.46478 -71.47533,-137.37235 -22.61602,-22.61602 -52.14702,-39.23351 -78.69914,-50.90763 -6.7782,-22.35105 -11.82566,-45.05903 -15.57128,-66.7799 0.35096,14.53308 1.64058,37.40212 5.8593,62.66635 -2.15418,-0.87806 -4.27207,-1.71794 -6.36095,-2.52832 -6.67751,-42.12063 -5.27738,-76.57215 -5.27738,-76.57215 l 0.32106,-9.19026 z m 355.08926,0 0.32106,9.19026 c 0,0 1.40014,34.45152 -5.27738,76.57215 -2.08888,0.81038 -4.20677,1.65026 -6.36094,2.52832 4.21871,-25.26423 5.50833,-48.13327 5.85929,-62.66635 -3.74561,21.72087 -8.79308,44.42885 -15.57127,66.7799 -26.55213,11.67412 -56.08313,28.29161 -78.69915,50.90763 -43.90757,43.90758 -65.24847,113.8077 -71.47536,137.37235 -0.17689,-22.25424 1.56897,-104.12826 35.03537,-162.09376 39.04186,-67.62243 128.06172,-114.27629 128.06172,-114.27629 l 8.10669,-4.31421 z m -410.69235,74.36488 8.30735,1.92634 c 0,0 91.03851,20.44605 142.3086,71.71615 43.91219,43.91218 65.17971,116.83657 70.3918,136.91083 -11.23482,-19.64459 -47.53754,-77.90484 -98.02278,-107.05251 -25.64857,-14.8082 -55.99959,-22.67105 -82.6321,-26.82834 -11.15519,-18.06689 -20.89381,-36.80278 -29.29646,-55.00111 3.7386,12.71631 10.22172,32.43548 19.78515,53.63661 -2.13514,-0.27529 -4.2366,-0.53172 -6.30075,-0.76251 -15.73908,-35.66824 -22.63453,-66.23811 -22.63453,-66.23811 l -1.90628,-8.30735 z m 466.29545,0 -1.90628,8.30735 c 0,0 -6.89546,30.56987 -22.63453,66.23811 -2.06415,0.23079 -4.16561,0.48722 -6.30075,0.76251 9.56343,-21.20113 16.04655,-40.9203 19.78515,-53.63661 -8.40267,18.19833 -18.14128,36.93422 -29.29647,55.00111 -26.63251,4.15729 -56.98353,12.02014 -82.6321,26.82834 -50.48524,29.14767 -86.78795,87.40792 -98.02277,107.05251 5.21208,-20.07426 26.47961,-92.99865 70.39179,-136.91083 51.2701,-51.2701 142.3086,-71.71615 142.3086,-71.71615 l 8.30736,-1.92634 z m -484.0539,78.41822 c 23.28945,0.0879 89.86819,2.90322 137.63321,30.48036 50.38575,29.09024 87.29261,89.95043 96.83888,106.79166 -14.90386,-15.03 -61.84676,-58.93685 -114.55723,-73.06058 -15.97052,-4.27929 -32.84939,-5.92098 -49.20201,-5.97969 -11.08327,-0.0398 -21.90723,0.6549 -32.04552,1.74574 -14.47697,-13.64313 -27.83475,-28.22968 -39.85123,-42.66047 6.47001,10.60649 17.13194,26.86696 30.94189,43.74404 -1.99769,0.2688 -3.97683,0.55094 -5.89943,0.84278 -22.90062,-28.46156 -36.54032,-54.45933 -36.54032,-54.45933 l -3.752357,-7.06326 7.986297,-0.28092 c 0,0 3.07333,-0.12062 8.44782,-0.10033 z m 501.8124,0 c 5.37449,-0.0203 8.44782,0.10033 8.44782,0.10033 l 7.9863,0.28092 -3.75236,7.06326 c 0,0 -13.6397,25.99777 -36.54032,54.45933 -1.92259,-0.29184 -3.90173,-0.57398 -5.89943,-0.84278 13.80996,-16.87708 24.47188,-33.13754 30.94189,-43.74404 -12.01648,14.43079 -25.37425,29.01734 -39.85122,42.66047 -10.1383,-1.09084 -20.96225,-1.78554 -32.04553,-1.74574 -16.35262,0.0587 -33.23149,1.7004 -49.20201,5.97969 -52.71046,14.12373 -99.65336,58.03058 -114.55722,73.06058 9.54627,-16.84123 46.45313,-77.70143 96.83887,-106.79166 47.76502,-27.57715 114.34376,-30.39243 137.63321,-30.48036 z M 184.2234,588.10712 c 15.94702,0.0277 32.33578,1.58809 47.67699,5.69876 52.58204,14.08932 100.67053,60.15598 113.39339,73.08065 -17.17442,-9.98482 -69.3764,-37.70415 -119.61388,-37.70416 -26.04808,0 -52.63638,7.47104 -74.60566,16.05286 -16.93532,-9.02214 -33.06535,-19.27691 -47.85759,-29.71785 8.6284,8.22148 22.6926,20.7733 39.83116,32.96856 -1.74398,0.7372 -3.45068,1.46933 -5.11685,2.20727 -28.29363,-20.4849 -47.496401,-41.29599 -47.496401,-41.29599 l -5.096783,-5.47803 7.143522,-2.18721 c 0,0 43.901042,-13.70789 91.742102,-13.62486 z m 360.34657,0 c 47.84105,-0.083 91.74209,13.62486 91.74209,13.62486 l 7.14353,2.18721 -5.09679,5.47803 c 0,0 -19.20277,20.81109 -47.4964,41.29599 -1.66616,-0.73794 -3.37286,-1.47007 -5.11685,-2.20727 17.13856,-12.19526 31.20276,-24.74708 39.83116,-32.96856 -14.79225,10.44094 -30.92227,20.69571 -47.85759,29.71785 -21.96928,-8.58182 -48.55757,-16.05286 -74.60566,-16.05286 -50.23747,10e-6 -102.43945,27.71934 -119.61388,37.70416 12.72286,-12.92467 60.81136,-58.99133 113.39339,-73.08065 15.34122,-4.11067 31.72998,-5.67109 47.677,-5.69876 z M 225.6799,634.58015 c 58.76891,0 122.68399,40.4532 122.68399,40.4532 l 5.85929,3.65203 -5.85929,3.67209 c 0,0 -63.91508,40.45321 -122.68399,40.45321 -58.76889,0 -122.68398,-40.45321 -122.68398,-40.45321 l -5.859292,-3.67209 5.859292,-3.65203 c 0,0 63.91509,-40.4532 122.68398,-40.4532 z m 277.43356,0 c 58.7689,0 122.68398,40.4532 122.68398,40.4532 l 5.85929,3.65203 -5.85929,3.67209 c 0,0 -63.91508,40.45321 -122.68398,40.45321 -58.7689,0 -122.68399,-40.45321 -122.68399,-40.45321 l -5.85929,-3.67209 5.85929,-3.65203 c 0,0 63.91509,-40.4532 122.68399,-40.4532 z m -387.21505,50.20532 c 20.43098,11.14703 67.04971,33.711 109.78149,33.711 42.7318,0 89.35052,-22.56397 109.7815,-33.711 -33.67684,12.40131 -72.60409,22.55427 -109.7815,22.55427 -37.17739,0 -76.10466,-10.15296 -109.78149,-22.55427 z m 277.43355,0 c 20.43098,11.14703 67.04971,33.711 109.7815,33.711 42.73178,0 89.35051,-22.56397 109.78149,-33.711 -33.67684,12.40131 -72.6041,22.55427 -109.78149,22.55427 -37.1774,0 -76.10465,-10.15296 -109.7815,-22.55427 z"
       id="path3825"
       inkscape:connector-curvature="0" />
  </g>
</svg>
