<?xml version="1.0" encoding="UTF-8" standalone="no"?>
<!-- Created with Inkscape (http://www.inkscape.org/) -->

<svg
   xmlns:dc="http://purl.org/dc/elements/1.1/"
   xmlns:cc="http://creativecommons.org/ns#"
   xmlns:rdf="http://www.w3.org/1999/02/22-rdf-syntax-ns#"
   xmlns:svg="http://www.w3.org/2000/svg"
   xmlns="http://www.w3.org/2000/svg"
   xmlns:sodipodi="http://sodipodi.sourceforge.net/DTD/sodipodi-0.dtd"
   xmlns:inkscape="http://www.inkscape.org/namespaces/inkscape"
   width="744.09448819"
   height="1052.3622047"
   id="svg2983"
   version="1.1"
   inkscape:version="0.48.4 r9939"
   sodipodi:docname="New document 1">
  <defs
     id="defs2985" />
  <sodipodi:namedview
     id="base"
     pagecolor="#ffffff"
     bordercolor="#666666"
     borderopacity="1.0"
     inkscape:pageopacity="0.0"
     inkscape:pageshadow="2"
     inkscape:zoom="0.70710678"
     inkscape:cx="690.25567"
     inkscape:cy="997.32944"
     inkscape:document-units="px"
     inkscape:current-layer="layer1"
     showgrid="false"
     showborder="false"
     inkscape:showpageshadow="false"
     inkscape:object-nodes="true"
     inkscape:window-width="1920"
     inkscape:window-height="1027"
     inkscape:window-x="0"
     inkscape:window-y="31"
     inkscape:window-maximized="1" />
  <metadata
     id="metadata2988">
    <rdf:RDF>
      <cc:Work
         rdf:about="">
        <dc:format>image/svg+xml</dc:format>
        <dc:type
           rdf:resource="http://purl.org/dc/dcmitype/StillImage" />
        <dc:title></dc:title>
      </cc:Work>
    </rdf:RDF>
  </metadata>
  <g
     inkscape:label="Layer 1"
     inkscape:groupmode="layer"
     id="layer1">
    <path
       style="font-size:medium;font-style:normal;font-variant:normal;font-weight:normal;font-stretch:normal;text-indent:0;text-align:start;text-decoration:none;line-height:normal;letter-spacing:normal;word-spacing:normal;text-transform:none;direction:ltr;block-progression:tb;writing-mode:lr-tb;text-anchor:start;baseline-shift:baseline;opacity:0.51121072;color:#000000;fill:#000000;fill-opacity:1;fill-rule:nonzero;stroke:none;stroke-width:25;marker:none;visibility:visible;display:inline;overflow:visible;enable-background:accumulate;font-family:Sans;-inkscape-font-specification:Sans"
       d="M 526.96875 -333.21875 L 516.40625 -316.28125 L 507.96875 -302.78125 C 507.96875 -302.78125 507.96899 -302.71912 507.96875 -302.71875 C 507.85331 -302.53884 479.46033 -258.20488 453.65625 -195 C 420.98722 -234.86987 393.62951 -259.78835 393.5 -259.90625 L 393.4375 -259.9375 L 382.34375 -270.3125 L 368.40625 -283.3125 L 362.78125 -265.0625 L 358.3125 -250.53125 C 358.3125 -250.53125 358.31263 -250.46914 358.3125 -250.46875 C 358.24873 -250.26879 342.10672 -199.66721 334.125 -132.21875 C 297.06476 -158.38884 268.54638 -173.14637 268.40625 -173.21875 L 268.34375 -173.25 L 255.78125 -179.90625 L 240.03125 -188.3125 L 239.375 -170.4375 L 238.84375 -156.21875 C 238.84375 -156.21875 238.87502 -156.15664 238.875 -156.15625 C 238.86567 -155.95766 236.49471 -105.10396 246 -41.125 C 207.49506 -55.171281 179.35942 -61.344291 179.21875 -61.375 L 179.15625 -61.375 L 166.28125 -64.34375 L 150.125 -68.09375 L 153.84375 -51.90625 L 156.78125 -39.03125 C 156.78125 -39.03125 156.81241 -38.969118 156.8125 -38.96875 C 156.85142 -38.790417 166.70513 6.3475239 190.03125 60.625 C 167.11976 58.531741 148.08695 58.086684 136.1875 58.09375 C 127.69014 58.098796 122.8383 58.341071 122.78125 58.34375 L 122.71875 58.34375 L 110.34375 58.78125 L 94.84375 59.28125 L 102.125 73.03125 L 107.90625 83.96875 L 107.9375 84.03125 C 108.01594 84.183151 127.91605 122.64052 162.1875 166.09375 C 125.86672 172.36286 101.02839 180.27356 100.90625 180.3125 L 100.84375 180.3125 L 89.78125 183.71875 L 75.90625 187.9375 L 85.78125 198.59375 L 93.6875 207.09375 L 93.71875 207.125 C 93.828193 207.24523 122.01714 238.1818 164.65625 269.6875 C 134.94266 283.57616 115.59744 295.96873 115.5 296.03125 L 115.4375 296.03125 L 106.375 301.71875 L 94.96875 308.8125 L 106.375 315.96875 L 115.4375 321.6875 C 115.4375 321.6875 115.49975 321.68735 115.5 321.6875 C 115.72197 321.82995 215.7216 385.96875 311 385.96875 C 406.27843 385.96875 506.27813 321.8298 506.5 321.6875 L 506.5625 321.6875 L 515.625 315.96875 L 527 308.84375 L 527.0625 308.84375 L 538.4375 315.96875 L 547.5 321.6875 L 547.5625 321.6875 C 547.78437 321.8298 647.78407 385.96875 743.0625 385.96875 C 838.34091 385.96875 938.34053 321.82995 938.5625 321.6875 C 938.56275 321.68735 938.625 321.6875 938.625 321.6875 L 947.6875 315.96875 L 959.09375 308.8125 L 947.6875 301.71875 L 938.625 296.03125 L 938.5625 296.03125 C 938.46506 295.96873 919.11984 283.57616 889.40625 269.6875 C 932.04536 238.1818 960.23431 207.24523 960.34375 207.125 L 960.375 207.09375 L 968.28125 198.59375 L 978.15625 187.9375 L 964.28125 183.71875 L 953.21875 180.3125 L 953.15625 180.3125 C 953.03411 180.27356 928.19578 172.36286 891.875 166.09375 C 926.14645 122.64052 946.04656 84.183156 946.125 84.03125 L 946.15625 83.96875 L 951.9375 73.03125 L 959.21875 59.28125 L 943.71875 58.78125 L 931.34375 58.34375 L 931.28125 58.34375 C 931.22419 58.341071 926.37236 58.098795 917.875 58.09375 C 905.97555 58.086685 886.94274 58.531741 864.03125 60.625 C 887.35737 6.3475247 897.21108 -38.790417 897.25 -38.96875 C 897.25008 -38.96911 897.28125 -39.03125 897.28125 -39.03125 L 900.21875 -51.90625 L 903.9375 -68.09375 L 887.78125 -64.34375 L 874.90625 -61.375 L 874.84375 -61.375 C 874.70307 -61.344303 846.56743 -55.171284 808.0625 -41.125 C 817.56779 -105.10396 815.19683 -155.95766 815.1875 -156.15625 C 815.18749 -156.15664 815.21875 -156.21875 815.21875 -156.21875 L 814.6875 -170.4375 L 814.03125 -188.3125 L 798.28125 -179.90625 L 785.71875 -173.25 L 785.65625 -173.21875 C 785.51601 -173.14638 756.99772 -158.38884 719.9375 -132.21875 C 711.95577 -199.66721 695.81376 -250.26879 695.75 -250.46875 C 695.74986 -250.46914 695.75 -250.53125 695.75 -250.53125 L 691.28125 -265.0625 L 685.65625 -283.3125 L 671.71875 -270.3125 L 660.625 -259.9375 L 660.5625 -259.90625 C 660.43303 -259.78839 633.06398 -234.85535 600.40625 -195 C 574.60187 -258.20198 546.20918 -302.53885 546.09375 -302.71875 L 546.0625 -302.78125 L 537.625 -316.28125 L 527.0625 -333.21875 L 527 -333.15625 L 526.96875 -333.21875 z M 527.03125 -309.59375 L 535.5 -296.09375 C 535.5 -296.09375 535.87677 -295.49144 536.5625 -294.375 C 538.61969 -291.02568 543.57324 -282.83666 550.15625 -270.84375 C 557.83643 -256.85202 567.73727 -237.68165 577.9375 -215.03125 C 580.85185 -208.55971 583.8044 -201.81533 586.71875 -194.8125 C 588.24547 -191.14399 589.74257 -187.39167 591.25 -183.59375 C 588.82827 -180.51463 586.38531 -177.34746 583.9375 -174.125 C 569.0087 -212.65135 552.48663 -245.3684 541.09375 -266.25 C 553.42239 -232.7705 564.78719 -197.05384 573.75 -160.375 C 573.93493 -160.6316 574.12767 -160.86938 574.3125 -161.125 C 557.58697 -137.98593 540.94557 -111.84992 527.03125 -83.875 C 513.26988 -111.54656 496.85335 -137.42339 480.3125 -160.375 C 489.27531 -197.05384 500.64011 -232.7705 512.96875 -266.25 C 501.57587 -245.3684 485.0538 -212.65135 470.125 -174.125 C 467.66728 -177.36016 465.21264 -180.53439 462.78125 -183.625 C 464.28518 -187.41424 465.8205 -191.15233 467.34375 -194.8125 C 470.2581 -201.81533 473.21065 -208.55971 476.125 -215.03125 C 495.06829 -257.09629 513.04276 -287.11813 517.5 -294.375 C 518.18573 -295.49144 518.5625 -296.09375 518.5625 -296.09375 L 527.03125 -309.59375 z M 374.1875 -261.59375 L 385.34375 -251.15625 C 385.34375 -251.15625 508.26337 -137.90906 541.875 -12.46875 C 549.3182 15.309629 552.66603 44.761036 553.375 73.78125 C 553.37191 73.790617 553.37809 73.803133 553.375 73.8125 C 536.19651 125.86342 529.51485 179.72114 527.03125 218.875 C 523.4806 162.89859 511.37302 76.825417 472.25 9.0625 C 445.72827 -36.87447 405.70965 -76.256465 368.125 -106.5625 C 367.00462 -144.55711 368.6752 -182.32611 371.9375 -218.0625 C 366.34939 -194.9933 358.74787 -158.62725 354.59375 -117.1875 C 351.51942 -119.53458 348.50378 -121.78625 345.5 -124 C 353.02877 -193.41656 369.71875 -246.96875 369.71875 -246.96875 L 374.1875 -261.59375 z M 679.875 -261.59375 L 684.34375 -246.96875 C 684.34375 -246.96875 701.03373 -193.41656 708.5625 -124 C 705.55872 -121.78625 702.54308 -119.53458 699.46875 -117.1875 C 695.31464 -158.62725 687.71311 -194.9933 682.125 -218.0625 C 685.3873 -182.32611 687.05788 -144.55711 685.9375 -106.5625 C 648.35288 -76.256461 608.33423 -36.87447 581.8125 9.0625 C 575.0585 20.760766 569.11452 33.019737 563.875 45.5625 C 562.05973 24.938969 558.73894 4.3393603 553.40625 -15.5625 C 548.43527 -34.114438 541.63235 -52.319529 533.65625 -69.90625 C 581.18114 -170.48404 668.71875 -251.15625 668.71875 -251.15625 L 679.875 -261.59375 z M 250.53125 -170.0625 L 263.15625 -163.34375 C 263.15625 -163.34375 401.79176 -90.687133 462.59375 14.625 C 514.71281 104.89785 517.43173 232.40476 517.15625 267.0625 C 507.45878 230.36398 474.22342 121.50467 405.84375 53.125 C 370.62258 17.903832 324.63233 -7.9754985 283.28125 -26.15625 C 272.72519 -60.964771 264.8645 -96.329136 259.03125 -130.15625 C 259.57782 -107.52308 261.58621 -71.907865 268.15625 -32.5625 C 264.80143 -33.929954 261.50313 -35.237954 258.25 -36.5 C 247.85074 -102.09676 250.03125 -155.75 250.03125 -155.75 L 250.53125 -170.0625 z M 803.53125 -170.0625 L 804.03125 -155.75 C 804.03125 -155.75 806.21176 -102.09676 795.8125 -36.5 C 792.55937 -35.237953 789.26107 -33.929955 785.90625 -32.5625 C 792.47629 -71.907865 794.48468 -107.52308 795.03125 -130.15625 C 789.198 -96.329136 781.33731 -60.964772 770.78125 -26.15625 C 729.43017 -7.9754946 683.43992 17.903835 648.21875 53.125 C 579.83908 121.50468 546.60373 230.36398 536.90625 267.0625 C 536.63077 232.40476 539.34969 104.89785 591.46875 14.625 C 652.27074 -90.687134 790.90625 -163.34375 790.90625 -163.34375 L 803.53125 -170.0625 z M 163.9375 -54.25 L 176.875 -51.25 C 176.875 -51.25 318.65427 -19.408235 398.5 60.4375 C 466.88685 128.82434 500.00793 242.3935 508.125 273.65625 C 490.6284 243.06265 434.09218 152.33077 355.46875 106.9375 C 315.52483 83.875871 268.25752 71.630626 226.78125 65.15625 C 209.40866 37.019691 194.24217 7.8412665 181.15625 -20.5 C 186.97858 -0.69619225 197.0751 30.013564 211.96875 63.03125 C 208.64358 62.602517 205.37086 62.203165 202.15625 61.84375 C 177.64492 6.2956252 166.90625 -41.3125 166.90625 -41.3125 L 163.9375 -54.25 z M 890.125 -54.25 L 887.15625 -41.3125 C 887.15625 -41.3125 876.41758 6.2956255 851.90625 61.84375 C 848.69164 62.203166 845.41892 62.602517 842.09375 63.03125 C 856.9874 30.013565 867.08392 -0.69619225 872.90625 -20.5 C 859.82032 7.8412701 844.65384 37.019693 827.28125 65.15625 C 785.80498 71.630626 738.53767 83.875874 698.59375 106.9375 C 619.97031 152.33077 563.43411 243.06265 545.9375 273.65625 C 554.05456 242.3935 587.17565 128.82435 655.5625 60.4375 C 735.40824 -19.408237 877.1875 -51.25 877.1875 -51.25 L 890.125 -54.25 z M 136.28125 67.875 C 172.55119 68.011951 276.23791 72.396355 350.625 115.34375 C 429.09349 160.64757 486.57057 255.42849 501.4375 281.65625 C 478.2269 258.24921 405.12015 189.87066 323.03125 167.875 C 298.15948 161.21063 271.87309 158.65394 246.40625 158.5625 C 229.14566 158.50052 212.28892 159.58242 196.5 161.28125 C 173.95422 140.03405 153.15142 117.31761 134.4375 94.84375 C 144.5136 111.36182 161.118 136.68515 182.625 162.96875 C 179.51388 163.38737 176.43166 163.82676 173.4375 164.28125 C 137.77311 119.95651 116.53125 79.46875 116.53125 79.46875 L 110.6875 68.46875 L 123.125 68.03125 C 123.125 68.03125 127.91126 67.843396 136.28125 67.875 z M 917.78125 67.875 C 926.15124 67.843397 930.9375 68.03125 930.9375 68.03125 L 943.375 68.46875 L 937.53125 79.46875 C 937.53125 79.46875 916.28939 119.9565 880.625 164.28125 C 877.63084 163.82676 874.54862 163.38737 871.4375 162.96875 C 892.9445 136.68515 909.5489 111.36183 919.625 94.84375 C 900.91108 117.31762 880.10828 140.03405 857.5625 161.28125 C 841.77358 159.58242 824.91684 158.50052 807.65625 158.5625 C 782.18941 158.65394 755.90302 161.21063 731.03125 167.875 C 648.94236 189.87066 575.83561 258.24921 552.625 281.65625 C 567.49193 255.42849 624.96901 160.64756 703.4375 115.34375 C 777.82458 72.396345 881.51131 68.011948 917.78125 67.875 z M 246.4375 167.78125 C 271.27267 167.82435 296.79579 170.25448 320.6875 176.65625 C 402.5764 198.59832 477.46725 270.34046 497.28125 290.46875 C 470.53458 274.91884 389.23757 231.75001 311 231.75 C 270.43388 231.75 229.02647 243.38505 194.8125 256.75 C 168.4382 242.69932 143.31802 226.72901 120.28125 210.46875 C 133.71873 223.27252 155.62168 242.82015 182.3125 261.8125 C 179.5965 262.96058 176.93856 264.10077 174.34375 265.25 C 130.28053 233.34775 100.375 200.9375 100.375 200.9375 L 92.4375 192.40625 L 103.5625 189 C 103.5625 189 171.932 167.65194 246.4375 167.78125 z M 807.625 167.78125 C 882.1305 167.65194 950.5 189 950.5 189 L 961.625 192.40625 L 953.6875 200.9375 C 953.6875 200.9375 923.78197 233.34775 879.71875 265.25 C 877.12394 264.10077 874.466 262.96058 871.75 261.8125 C 898.44082 242.82015 920.34377 223.27252 933.78125 210.46875 C 910.74447 226.72901 885.6243 242.69932 859.25 256.75 C 825.03603 243.38505 783.62862 231.75 743.0625 231.75 C 664.82493 231.75001 583.52792 274.91884 556.78125 290.46875 C 576.59525 270.34046 651.48611 198.59831 733.375 176.65625 C 757.26672 170.25448 782.78983 167.82435 807.625 167.78125 z M 311 240.15625 C 402.52404 240.15625 502.0625 303.15625 502.0625 303.15625 L 511.1875 308.84375 L 502.0625 314.5625 C 502.0625 314.5625 402.52404 377.5625 311 377.5625 C 219.47597 377.5625 119.9375 314.5625 119.9375 314.5625 L 110.8125 308.84375 L 119.9375 303.15625 C 119.9375 303.15625 219.47597 240.15625 311 240.15625 z M 743.0625 240.15625 C 834.58654 240.15625 934.125 303.15625 934.125 303.15625 L 943.25 308.84375 L 934.125 314.5625 C 934.125 314.5625 834.58654 377.5625 743.0625 377.5625 C 651.53847 377.5625 552 314.5625 552 314.5625 L 542.875 308.84375 L 552 303.15625 C 552 303.15625 651.53847 240.15625 743.0625 240.15625 z M 140.03125 318.34375 C 171.84954 335.70363 244.45145 370.84375 311 370.84375 C 377.54857 370.84375 450.15046 335.70363 481.96875 318.34375 C 429.52195 337.65699 368.89841 353.46875 311 353.46875 C 253.1016 353.46875 192.47803 337.65699 140.03125 318.34375 z M 572.09375 318.34375 C 603.91204 335.70363 676.51394 370.84375 743.0625 370.84375 C 809.61105 370.84375 882.21296 335.70363 914.03125 318.34375 C 861.58446 337.65699 800.9609 353.46875 743.0625 353.46875 C 685.1641 353.46875 624.54055 337.65699 572.09375 318.34375 z "
       id="path3825" />
  </g>
</svg>
