<?xml version="1.0" encoding="UTF-8" standalone="no"?>
<!-- Created with Inkscape (http://www.inkscape.org/) -->

<svg
   xmlns:dc="http://purl.org/dc/elements/1.1/"
   xmlns:cc="http://creativecommons.org/ns#"
   xmlns:rdf="http://www.w3.org/1999/02/22-rdf-syntax-ns#"
   xmlns:svg="http://www.w3.org/2000/svg"
   xmlns="http://www.w3.org/2000/svg"
   xmlns:sodipodi="http://sodipodi.sourceforge.net/DTD/sodipodi-0.dtd"
   xmlns:inkscape="http://www.inkscape.org/namespaces/inkscape"
   width="744.09448819"
   height="1052.3622047"
   id="svg2"
   version="1.1"
   inkscape:version="0.48.4 r9939"
   sodipodi:docname="New document 1">
  <defs
     id="defs4" />
  <sodipodi:namedview
     id="base"
     pagecolor="#ffffff"
     bordercolor="#666666"
     borderopacity="1.0"
     inkscape:pageopacity="0.0"
     inkscape:pageshadow="2"
     inkscape:zoom="1"
     inkscape:cx="319.85126"
     inkscape:cy="666.27182"
     inkscape:document-units="px"
     inkscape:current-layer="layer1"
     showgrid="false"
     showborder="false"
     inkscape:showpageshadow="false"
     inkscape:object-nodes="true"
     inkscape:window-width="1920"
     inkscape:window-height="1027"
     inkscape:window-x="0"
     inkscape:window-y="31"
     inkscape:window-maximized="1" />
  <metadata
     id="metadata7">
    <rdf:RDF>
      <cc:Work
         rdf:about="">
        <dc:format>image/svg+xml</dc:format>
        <dc:type
           rdf:resource="http://purl.org/dc/dcmitype/StillImage" />
        <dc:title></dc:title>
      </cc:Work>
    </rdf:RDF>
  </metadata>
  <g
     inkscape:label="Layer 1"
     inkscape:groupmode="layer"
     id="layer1">
    <path
       style="font-size:medium;font-style:normal;font-variant:normal;font-weight:normal;font-stretch:normal;text-indent:0;text-align:start;text-decoration:none;line-height:normal;letter-spacing:normal;word-spacing:normal;text-transform:none;direction:ltr;block-progression:tb;writing-mode:lr-tb;text-anchor:start;baseline-shift:baseline;opacity:1;color:#000000;fill:#000000;fill-opacity:1;fill-rule:nonzero;stroke:none;stroke-width:25;marker:none;visibility:visible;display:inline;overflow:visible;enable-background:accumulate;font-family:Sans;-inkscape-font-specification:Sans"
       d="m 539.66813,473.20687 -9.84375,-0.8125 -7.84375,-0.625 -0.0625,0 c -0.0819,-0.008 -4.17563,-0.42446 -10.90625,-0.65625 14.79339,-35.09023 19.89688,-66.12509 19.9375,-66.375 4e-5,-8.7e-4 0,-0.0625 0,-0.0625 l 1.6875,-9.3125 2.0625,-11.65625 -11.625,2.09375 -9.28125,1.6875 -0.0625,0.0312 c -0.11102,0.0181 -6.42591,1.05688 -16.34375,3.46875 2.25589,-17.77685 2.97743,-34.17304 3.03125,-47.25 0.0748,-18.17175 -1.10817,-29.95832 -1.125,-30.125 -2.2e-4,-10e-4 0,-0.0625 0,-0.0625 l -0.9375,-11.03125 -1.1875,-13.84375 -12.53125,5.9375 -9.96875,4.71875 -0.0937,0.0312 c -0.13948,0.0628 -9.14353,4.1115 -22.65625,11.78125 -6.8604,-45.11202 -19.63904,-78.92615 -19.75,-79.21875 -5.4e-4,-0.001 -0.0312,-0.0937 -0.0312,-0.0937 l -4.25,-11.8125 -5.375,-14.84375 -12,10.1875 -9.5625,8.09375 -0.0625,0.0937 c -0.13042,0.10649 -8.33051,6.80942 -20.28125,18.5 -21.07981,-48.61129 -45.72612,-82.89406 -45.9375,-83.1875 -9.1e-4,-0.001 -0.0625,-0.0937 -0.0625,-0.0937 l -8.1875,-11.78125 -10.3125,-14.8125 -10.25,14.8125 -8.15625,11.78125 -0.0625,0.0937 c -0.21138,0.29344 -24.85769,34.57621 -45.9375,83.1875 1.02892,1.00652 2.10867,2.10965 3.1875,3.1875 1.52378,1.52239 3.09961,3.11609 4.71875,4.78125 -1.60028,-1.64453 -3.20944,-3.27456 -4.71875,-4.78125 -13.69288,-13.66917 -23.32685,-21.57164 -23.46875,-21.6875 -0.001,-6.3e-4 -0.0625,-0.0937 -0.0625,-0.0937 l -9.59375,-8.09375 -12.0625,-10.15625 -5.3125,14.8125 -4.21875,11.8125 -0.0312,0.0937 c -0.11096,0.29261 -12.89344,34.10993 -19.75,79.21875 -13.51273,-7.66975 -22.51677,-11.71847 -22.65625,-11.78125 -9.9e-4,-3.1e-4 -0.0937,-0.0312 -0.0937,-0.0312 l -10,-4.71875 -12.59375,-5.90625 -1.125,13.84375 -0.90625,11 0,0.0625 c -0.029,0.28662 -3.48444,34.89542 1.90625,77.375 -9.91784,-2.41186 -16.23273,-3.4507 -16.34375,-3.46875 -8.8e-4,-4e-5 -0.0625,-0.0312 -0.0625,-0.0312 l -9.28125,-1.65625 -11.687498,-2.09375 2.125,11.65625 1.687498,9.28125 0,0.0625 c 0.0406,0.24991 5.14412,31.28477 19.9375,66.375 -6.73062,0.2318 -10.82432,0.64798 -10.90625,0.65625 -7.1e-4,1.5e-4 -0.0625,0 -0.0625,0 l -7.84375,0.65625 -9.874998,0.84375 4.21875,8.9375 3.374998,7.09375 0.0312,0.0625 c 0.14258,0.31677 29.18661,64.74412 78.34375,93.125 49.15713,28.38089 119.46687,21.31615 119.8125,21.28125 l 0.0625,0 7.84375,-0.625 9.84375,-0.8125 0,-0.0625 9.875,0.84375 7.84375,0.65625 c 0,0 0.0618,0 0.0625,0 0.34563,0.0349 70.65537,7.09963 119.8125,-21.28125 49.15714,-28.38089 78.20117,-92.80822 78.34375,-93.125 2.3e-4,-6.9e-4 0.0312,-0.0625 0.0312,-0.0625 l 3.375,-7.125 4.1875,-8.96875 z m -10.40625,6.03125 -3.375,7.1875 c 0,0 -29.26798,63.39685 -75.5625,90.125 -46.29451,26.72815 -115.84375,20.375 -115.84375,20.375 l -7.90625,-0.65625 3.40625,-7.15625 c 0,0 29.26799,-63.39685 75.5625,-90.125 46.29452,-26.72815 115.8125,-20.375 115.8125,-20.375 l 7.90625,0.625 z m -4.71875,-85.34375 -1.6875,9.375 c 0,0 -5.6164,32.37415 -20.9375,67.6875 -2.33769,-0.003 -4.76665,0.0286 -7.40625,0.0937 10.20001,-22.9247 16.34775,-45.07083 19.40625,-57.8125 -7.30287,18.94571 -16.45571,39.07575 -27.6875,58.125 -24.57328,1.31583 -57.45244,6.28808 -84.125,21.6875 -36.18596,20.89197 -61.42948,61.24583 -72.3125,81.25 4.94937,-22.11783 21.24932,-82.71807 57.75,-119.21875 45.26766,-45.26766 127.65625,-59.46875 127.65625,-59.46875 l 9.34375,-1.71875 z m -8,98.65625 c -18.94626,26.00106 -44.1655,54.0985 -73.65625,71.125 -29.49076,17.02649 -66.4468,24.81134 -98.4375,28.21875 20.31807,0.53281 69.15742,-0.48256 103.125,-20.09375 33.96759,-19.6112 59.27114,-61.38763 68.96875,-79.25 z m -25.9375,-154.625 c 0.0755,14.44273 -0.60404,34.27094 -3.5625,55.78125 -2.6393,0.73205 -5.41051,1.52249 -8.3125,2.40625 3.5665,-24.2922 4.17281,-46.823 4,-61.90625 -0.0238,-2.07908 -0.0783,-4.03098 -0.125,-5.8125 -2.3965,22.49974 -6.3401,46.73539 -12.6875,70.53125 -27.67458,9.25363 -62.85003,25.00628 -88.1875,50.34375 -35.71975,35.71974 -52.39995,90.9659 -58.65625,117.1875 -1.105,-26.53948 -1.01102,-100.01549 29.21875,-152.375 37.49709,-64.94685 126.40625,-106 126.40625,-106 l 10.0625,-4.75 0.9375,11.09375 c 0,0 0.8307,9.05727 0.90625,23.5 z m -49.125,-20.625 c -2.69649,1.63917 -5.48921,3.36633 -8.375,5.21875 -3.83819,-29.06404 -10.46026,-54.49265 -14.90625,-69.5 3.68723,23.49197 6.37953,49.00217 6.78125,74.84375 -27.83114,18.84805 -60.88681,46.51506 -81.03125,81.40625 -16.02081,27.74886 -23.97672,60.31177 -27.78125,89.34375 -3.28273,-25.0491 -9.67831,-52.71183 -21.65625,-77.65625 0.98443,-12.08337 2.8695,-24.08968 5.96875,-35.65625 22.03633,-82.24068 107.46875,-153.40625 107.46875,-153.40625 l 9.625,-8.1875 4.28125,11.90625 c 0,0 13.11914,35.6463 19.625,81.6875 z m -70.625,-65.40625 c -2.49735,2.59628 -5.06477,5.32006 -7.71875,8.21875 -12.97667,-31.60443 -28.12623,-58.31321 -37.625,-73.8125 11.23375,25.32628 21.9426,53.28088 30.09375,82.28125 -13.17812,15.13893 -27.26434,33.41417 -39.4375,53.8125 -17.06962,-28.60791 -37.94937,-53.06448 -54.71875,-70.5 20.93328,-49.69483 46.46875,-85.90625 46.46875,-85.90625 l 8.21875,-11.875 8.25,11.875 c 0,0 25.53547,36.21142 46.46875,85.90625 z m -61.03125,81.625 c -1.67937,3.11438 -3.31175,6.2743 -4.875,9.46875 -23.06175,-42.04352 -57.52875,-77.54983 -75.0625,-94.1875 25.45784,31.52748 51.29524,69.62302 67.9375,110.09375 -3.09847,7.6889 -5.76231,15.5612 -7.90625,23.5625 -1.92612,7.18837 -3.40461,14.51175 -4.53125,21.875 -24.75333,-39.67575 -65.71841,-69.49721 -94.5625,-87.03125 6.50638,-46.03186 19.625,-81.6875 19.625,-81.6875 l 4.25,-11.90625 9.65625,8.1875 c 0,0 52.14568,43.40714 85.46875,101.625 z m -0.28125,213.5 c 0.0679,7.82779 -0.10531,14.46135 -0.3125,19.4375 -1.73443,-7.26942 -4.25739,-16.73513 -7.78125,-27.4375 -1.03102,-33.66558 -6.5329,-83.74925 -28.09375,-121.09375 -27.51267,-47.65333 -86.12827,-83.11391 -111.1875,-96.71875 36.47706,26.57983 75.89468,61.93974 99.78125,103.3125 17.15276,29.70945 27.59298,64.80006 33.90625,98.84375 -9.59701,-24.81412 -24.08982,-52.90233 -45.28125,-74.09375 -30.96419,-30.9642 -76.61771,-47.60353 -105.3125,-55.5625 -5.91692,-43.02063 -2.65625,-79.28125 -2.65625,-79.28125 l 0.9375,-11.09375 10.0625,4.75 c 0,0 88.90916,41.05315 126.40625,106 24.56169,42.5421 29.23718,99.0171 29.53125,132.9375 z m -3.8125,49.28125 -7.90625,0.625 c 0,0 -69.54924,6.35315 -115.84375,-20.375 -46.29451,-26.72815 -75.5625,-90.125 -75.5625,-90.125 l -3.375,-7.15625 7.90625,-0.65625 c 0,0 69.51799,-6.35315 115.8125,20.375 46.29451,26.72815 75.5625,90.125 75.5625,90.125 l 3.40625,7.1875 z m -3.21875,-22 c -3.03353,-5.57597 -7.14772,-12.6789 -12.34375,-20.5625 -8.25787,-27.54105 -23.88114,-67.84989 -50.03125,-94 -33.21416,-33.21416 -89.39397,-49.53737 -113.0625,-55.21875 35.94983,13.85732 76.25713,34.31963 105.09375,63.15625 20.9133,20.9133 37.4073,47.87062 50.1875,74.8125 -13.06215,-17.79274 -30.70001,-37.04973 -52.15625,-49.4375 -32.9391,-19.0174 -75.29093,-22.12475 -99.8125,-22.09375 -15.3211,-35.31335 -20.9375,-67.6875 -20.9375,-67.6875 l -1.6875,-9.34375 9.34375,1.6875 c 0,0 82.38859,14.20109 127.65625,59.46875 36.50068,36.50068 52.80063,97.10092 57.75,119.21875 z m -9.53125,8.6875 c -9.69761,-17.86237 -35.00116,-59.6388 -68.96875,-79.25 -33.96759,-19.61119 -82.77568,-20.62656 -103.09375,-20.09375 31.99071,3.40741 68.91549,11.19226 98.40625,28.21875 29.49075,17.0265 54.70999,45.12394 73.65625,71.125 z m -2.25,-169.4375 c -0.77525,-1.43816 -1.55847,-2.86697 -2.375,-4.28125 0.8159,1.41319 1.60039,2.84391 2.375,4.28125 z"
       id="path3775"
       inkscape:connector-curvature="0" />
  </g>
</svg>
