<?xml version="1.0" encoding="UTF-8" standalone="no"?>
<!-- Created with Inkscape (http://www.inkscape.org/) -->

<svg
   xmlns:dc="http://purl.org/dc/elements/1.1/"
   xmlns:cc="http://creativecommons.org/ns#"
   xmlns:rdf="http://www.w3.org/1999/02/22-rdf-syntax-ns#"
   xmlns:svg="http://www.w3.org/2000/svg"
   xmlns="http://www.w3.org/2000/svg"
   xmlns:sodipodi="http://sodipodi.sourceforge.net/DTD/sodipodi-0.dtd"
   xmlns:inkscape="http://www.inkscape.org/namespaces/inkscape"
   width="744.09448819"
   height="1052.3622047"
   id="svg4025"
   version="1.1"
   inkscape:version="0.48.4 r9939"
   sodipodi:docname="drawing.svg">
  <defs
     id="defs4027" />
  <sodipodi:namedview
     id="base"
     pagecolor="#ffffff"
     bordercolor="#666666"
     borderopacity="1.0"
     inkscape:pageopacity="0.0"
     inkscape:pageshadow="2"
     inkscape:zoom="1"
     inkscape:cx="454.95091"
     inkscape:cy="530.97327"
     inkscape:document-units="px"
     inkscape:current-layer="layer1"
     showgrid="false"
     showborder="true"
     inkscape:showpageshadow="true"
     inkscape:window-width="1920"
     inkscape:window-height="1027"
     inkscape:window-x="0"
     inkscape:window-y="31"
     inkscape:window-maximized="1" />
  <metadata
     id="metadata4030">
    <rdf:RDF>
      <cc:Work
         rdf:about="">
        <dc:format>image/svg+xml</dc:format>
        <dc:type
           rdf:resource="http://purl.org/dc/dcmitype/StillImage" />
        <dc:title />
      </cc:Work>
    </rdf:RDF>
  </metadata>
  <g
     inkscape:label="Layer 1"
     inkscape:groupmode="layer"
     id="layer1">
    <path
       style="font-size:medium;font-style:normal;font-variant:normal;font-weight:normal;font-stretch:normal;text-indent:0;text-align:start;text-decoration:none;line-height:normal;letter-spacing:normal;word-spacing:normal;text-transform:none;direction:ltr;block-progression:tb;writing-mode:lr-tb;text-anchor:start;baseline-shift:baseline;color:#000000;fill:#000000;fill-opacity:1;fill-rule:nonzero;stroke:none;stroke-width:15;marker:none;visibility:visible;display:inline;overflow:visible;enable-background:accumulate;font-family:Sans;-inkscape-font-specification:Sans"
       d="m 338.67374,325.30455 c -103.66214,0 -187.77698,84.1148 -187.77698,187.77695 0,103.66215 84.11484,187.77698 187.77698,187.77698 103.66214,0 187.77698,-84.11483 187.77698,-187.77698 0,-103.66215 -84.11484,-187.77695 -187.77698,-187.77695 z"
       id="path4944"
       inkscape:connector-curvature="0" />
    <path
       style="fill:#ffffff;stroke:none"
       d="m 338.67374,326.71853 c -102.89751,0 -186.363,83.46546 -186.363,186.36297 0,102.89751 83.46549,186.363 186.363,186.363 102.89751,0 186.363,-83.46549 186.363,-186.363 0,-102.89751 -83.46549,-186.36297 -186.363,-186.36297 z m 0,4.71327 c 0.18861,0 0.3771,0.005 0.56559,0.006 l -0.40651,8.85507 c -0.0531,-5e-5 -0.10597,0 -0.15908,0 -1.26193,0 -2.52104,0.0202 -3.7765,0.0472 l -0.59508,-8.85507 c 1.45306,-0.0343 2.91024,-0.053 4.37158,-0.053 z m 7.03455,0.13551 c 1.65067,0.0628 3.2981,0.15269 4.93718,0.25923 l -0.96623,8.81383 c -1.3053,-0.0821 -2.6167,-0.14737 -3.92967,-0.20031 l -0.0413,-8.87275 z m -17.86918,0.18853 0.14138,8.86685 c -1.30953,0.08 -2.61638,0.17374 -3.91791,0.2828 l -1.15477,-8.79615 c 1.63756,-0.14066 3.28159,-0.25654 4.9313,-0.3535 z m 29.25766,0.60095 c 1.64168,0.16523 3.2792,0.35106 4.90768,0.5597 l -1.52003,8.74312 c -1.29862,-0.16371 -2.59872,-0.31894 -3.90609,-0.45364 l 0.51844,-8.84918 z m -40.62255,0.42419 0.69518,8.84328 c -1.30226,0.16182 -2.6012,0.3396 -3.8943,0.53025 l -1.70269,-8.71367 c 1.62612,-0.24306 3.26185,-0.46017 4.90181,-0.65986 z m 51.9403,1.07227 c 1.63028,0.26828 3.25114,0.5606 4.86644,0.87196 l -2.06793,8.63119 c -1.28735,-0.24549 -2.57941,-0.47849 -3.87667,-0.69521 l 1.07816,-8.80794 z m -63.22273,0.65986 1.25491,8.78437 c -1.29259,0.24401 -2.5767,0.49915 -3.85898,0.7718 l -2.25059,-8.58995 c 1.60979,-0.34559 3.22933,-0.66358 4.85466,-0.96622 z m 74.41675,1.5436 c 1.61003,0.37058 3.21423,0.76528 4.80755,1.17832 l -2.60999,8.48979 c -1.26876,-0.32626 -2.54373,-0.6388 -3.82365,-0.93677 l 1.62609,-8.73134 z m -85.56953,0.89552 1.80874,8.696 c -1.27357,0.32497 -2.53802,0.66613 -3.80011,1.01924 l -2.7867,-8.43676 c 1.58478,-0.44673 3.17599,-0.87399 4.77807,-1.27848 z m 96.59861,2.01492 c 1.58417,0.47186 3.15935,0.96523 4.72506,1.4788 l -3.13434,8.31303 c -1.2457,-0.40594 -2.50089,-0.7942 -3.75883,-1.17242 l 2.16811,-8.61941 z m -107.56287,1.1253 2.34484,8.57227 c -1.24955,0.40466 -2.49246,0.82273 -3.72938,1.25491 l -3.31109,-8.24823 c 1.55429,-0.54641 3.12232,-1.07394 4.69563,-1.57895 z m 118.39753,2.48036 c 1.55077,0.57107 3.08843,1.16744 4.61902,1.77927 l -3.65282,8.09505 c -1.21626,-0.48345 -2.44083,-0.95166 -3.67045,-1.40809 l 2.70425,-8.46623 z m -129.15557,1.35507 2.88096,8.40731 c -1.22197,0.48317 -2.43872,0.97462 -3.64686,1.48468 l -3.81778,-8.01846 c 1.51764,-0.64414 3.04519,-1.2698 4.58368,-1.87353 z m 66.35703,1.07816 c 92.85341,0 168.07547,75.22204 168.07547,168.07546 0,92.85341 -75.22206,168.07548 -168.07547,168.07548 -92.85341,0 -168.07547,-75.22207 -168.07547,-168.07548 0,-92.85342 75.22206,-168.07546 168.07547,-168.07546 z m 73.37983,1.84997 c 1.50993,0.66724 3.00731,1.35521 4.4953,2.06205 l -4.1536,7.85939 c -1.18597,-0.56062 -2.37554,-1.10954 -3.57618,-1.64376 l 3.23448,-8.27768 z m -150.22983,1.57305 3.41127,8.21289 c -1.18773,0.55877 -2.36815,1.1296 -3.54085,1.71445 l -4.31856,-7.76512 c 1.47261,-0.73796 2.95304,-1.46346 4.44814,-2.16222 z m 76.85,3.35821 c -3.65362,0 -7.27691,0.12613 -10.86999,0.36528 l 4.42457,65.54401 c 0.53474,-0.8799 0.83611,-1.35101 0.84251,-1.36096 4e-5,0 0,-0.0176 0,-0.0176 l 2.48036,-3.97094 3.10489,-4.97839 0.006,0.0177 0.0236,-0.0177 3.10485,4.97839 2.4804,3.97094 0.006,0.0176 c 0.006,0.01 0.30278,0.4749 0.83069,1.34329 l 4.43048,-65.52634 c -3.59116,-0.23889 -7.21241,-0.36528 -10.86408,-0.36528 z m 83.67244,0.0118 c 1.46473,0.76118 2.91876,1.53938 4.35979,2.33897 l -4.64846,7.58837 c -1.14809,-0.63407 -2.30037,-1.25911 -3.46429,-1.86763 l 3.75296,-8.05971 z m -170.69721,1.78516 3.91792,7.989 c -1.15029,0.63252 -2.29478,1.27468 -3.42892,1.93244 l -4.80164,-7.48821 c 1.42414,-0.82973 2.86417,-1.64148 4.31264,-2.43323 z m 55.86414,1.21366 c -7.18337,1.4062 -14.20194,3.28917 -21.00944,5.6147 l 29.45206,86.20587 c 0.38206,0.45848 0.76132,0.91155 1.14889,1.38453 2.02945,-4.971 4.11552,-9.5397 6.08011,-13.57424 l -15.67162,-79.63082 z m 62.30951,0 -15.67166,79.60726 c 1.96835,4.04093 4.05797,8.61621 6.09189,13.5978 0.37931,-0.46289 0.75125,-0.90605 1.12532,-1.35506 l 29.46977,-86.2353 c -6.80946,-2.32593 -13.82988,-4.20863 -21.01532,-5.6147 z m 62.48039,2.58053 c 1.4133,0.85143 2.81282,1.71558 4.20067,2.60408 l -5.108,7.28791 c -1.10605,-0.70501 -2.21758,-1.3994 -3.34053,-2.07974 l 4.24786,-7.81225 z m -190.49298,1.99725 4.41278,7.72977 c -1.10745,0.70302 -2.20911,1.41131 -3.2993,2.13865 l -5.26709,-7.17008 c 1.37008,-0.91811 2.75745,-1.81688 4.15361,-2.69834 z m 200.07858,4.19481 c 1.356,0.93769 2.69506,1.89591 4.02397,2.86921 l -5.54988,6.9403 c -1.0589,-0.77225 -2.12811,-1.53148 -3.20503,-2.28005 l 4.73094,-7.52946 z m -209.53463,2.19757 4.88415,7.4293 c -1.0597,0.7699 -2.10477,1.55755 -3.14609,2.35075 l -5.70901,-6.83425 c 1.30853,-1.00103 2.63472,-1.97991 3.97095,-2.9458 z m 177.37831,2.48036 -28.06169,57.18384 3.63512,-3.39357 1.65554,5.36725 1.31385,4.27141 c 0,0 -9e-5,0.0175 0,0.0176 0.006,0.0209 0.61338,1.93307 1.49054,5.23763 l 38.7844,-57.79656 c -5.99895,-4.03307 -12.2841,-7.67603 -18.81776,-10.88768 z m -142.12298,0.006 c -6.53653,3.21345 -12.82835,6.85208 -18.82954,10.88767 l 38.79614,57.81423 c 0.88068,-3.31951 1.48983,-5.24031 1.49651,-5.26119 3e-5,-1.9e-4 0,-0.0177 0,-0.0177 l 1.3138,-4.27141 1.65554,-5.36724 3.60567,3.36998 -28.03812,-57.15437 z m 183.45838,2.1033 c 1.29447,1.0206 2.57575,2.05602 3.84136,3.11076 l -5.98589,6.5868 c -1.0079,-0.83638 -2.02477,-1.66075 -3.05182,-2.47447 l 5.19635,-7.22309 z m -227.75142,2.3861 5.34369,7.11116 c -1.00899,0.83425 -2.00927,1.67685 -2.99884,2.53338 l -6.12134,-6.4513 c 1.24402,-1.08149 2.50309,-2.14539 3.77649,-3.19324 z m 236.48868,4.95483 c 1.22849,1.09984 2.44303,2.21397 3.64103,3.34643 l -6.38648,6.19796 c -0.95441,-0.89823 -1.91816,-1.78643 -2.89279,-2.663 l 5.63824,-6.88139 z m -245.07273,2.56284 5.78557,6.76356 c -0.95632,0.89673 -1.89818,1.80388 -2.83388,2.72192 l -6.5102,-6.06246 c 1.17215,-1.15506 2.35544,-2.29993 3.55851,-3.42302 z m 253.33278,5.31423 c 1.15608,1.17311 2.2989,2.36033 3.423,3.56441 l -6.76354,5.77966 c -0.89586,-0.95524 -1.79896,-1.89918 -2.71604,-2.83386 l 6.05658,-6.51021 z m -261.42783,2.7337 6.19796,6.38648 c -0.89822,0.95441 -1.78642,1.91815 -2.66298,2.89278 l -6.88139,-5.63825 c 1.09983,-1.22849 2.21394,-2.44301 3.34641,-3.64101 z m 238.13831,3.2934 -51.81658,59.32249 c 0.7542,3.89636 1.48479,8.24453 2.09741,12.90259 l 65.09625,-56.85391 c -4.77482,-5.46198 -9.91495,-10.59651 -15.37708,-15.37117 z m -212.21527,0.006 c -5.45965,4.77325 -10.59247,9.91114 -15.36529,15.37117 l 65.09037,56.8598 c 0.61203,-4.65588 1.34957,-9.0013 2.10329,-12.89671 l -51.82837,-59.33425 z m 243.2581,2.33896 c 1.08231,1.24497 2.15056,2.50211 3.19916,3.77651 l -7.11707,5.34368 c -0.83505,-1.01 -1.68189,-2.00831 -2.53927,-2.99882 l 6.45718,-6.12137 z m -276.75771,2.89866 6.5868,5.98587 c -0.8364,1.00793 -1.66077,2.0248 -2.47447,3.05184 l -7.22309,-5.20228 c 1.01966,-1.29318 2.05698,-2.57099 3.11076,-3.83543 z m 283.97492,5.93874 c 1.00108,1.30847 1.97986,2.63476 2.94581,3.97093 l -7.42932,4.89003 c -0.77087,-1.06098 -1.55652,-2.10943 -2.35072,-3.15201 l 6.83423,-5.70895 z m -290.99772,3.04596 6.94028,5.55577 c -0.7723,1.05889 -1.53142,2.12813 -2.28003,3.20503 l -7.53534,-4.73095 c 0.93927,-1.35822 1.9001,-2.69885 2.87509,-4.02985 z m 297.64346,6.2333 c 0.91717,1.36869 1.81771,2.753 2.69834,4.14769 l -7.72978,4.41281 c -0.70273,-1.10695 -1.41746,-2.20371 -2.14453,-3.29341 l 7.17597,-5.26709 z m -304.10064,3.18147 7.2879,5.11391 c -0.70561,1.10694 -1.40475,2.21664 -2.08563,3.34053 l -7.81226,-4.24784 c 0.85283,-1.41565 1.71996,-2.81647 2.60999,-4.2066 z m 310.1513,6.49843 c 0.8289,1.42269 1.6422,2.85982 2.43325,4.30676 l -7.989,3.91791 c -0.63181,-1.14876 -1.27556,-2.29035 -1.93246,-3.42302 l 7.48821,-4.80165 z m -23.11864,1.44344 -49.33031,33.10488 0.11192,3.11076 c 0,0 -0.006,0.0176 -0.006,0.0176 0,0.0326 0.21943,4.72298 -0.0766,12.13079 l 60.19444,-29.52868 c -3.21434,-6.53905 -6.85653,-12.83205 -10.89357,-18.83543 z m -267.88499,0.0118 c -4.03413,6.00012 -7.67528,12.28853 -10.88766,18.82366 l 60.19444,29.53457 c -0.29639,-7.41136 -0.0781,-12.10405 -0.0766,-12.13668 0,-2e-4 -0.006,-0.0177 -0.006,-0.0177 l 0.11193,-3.09309 -49.33623,-33.11078 z m -24.99805,1.84997 7.58841,4.64258 c -0.63414,1.14807 -1.25911,2.30042 -1.86766,3.46425 l -8.05968,-3.74705 c 0.76115,-1.46473 1.53937,-2.91877 2.33893,-4.35978 z m 321.43372,6.7282 c 0.73879,1.47415 1.4627,2.95731 2.16224,4.45405 l -8.21881,3.40534 c -0.5588,-1.1877 -1.12951,-2.36811 -1.71444,-3.54085 l 7.77101,-4.31854 z m -326.64778,3.42302 7.85349,4.15358 c -0.56027,1.18526 -1.10392,2.37634 -1.63783,3.57619 l -8.27771,-3.23448 c 0.66733,-1.50995 1.35512,-3.00731 2.06205,-4.49529 z m 331.43767,6.9403 c 0.64411,1.51764 1.26981,3.0452 1.87352,4.58366 l -8.4073,2.8751 c -0.48255,-1.22028 -0.97534,-2.43451 -1.48471,-3.64101 l 8.01849,-3.81775 z m -336.00953,3.51728 8.10093,3.65868 c -0.48371,1.21693 -0.95729,2.44015 -1.41398,3.67047 l -8.4662,-2.70424 c 0.57166,-1.55249 1.16671,-3.0927 1.77925,-4.62491 z m 340.13364,7.12294 c 0.54649,1.55426 1.07388,3.1223 1.57894,4.6956 l -8.56638,2.34486 c -0.40472,-1.24951 -0.8227,-2.49251 -1.25491,-3.72938 l 8.24235,-3.31108 z m -344.03389,3.60566 8.30716,3.13433 c -0.4054,1.2439 -0.79468,2.49684 -1.17243,3.75295 l -8.61941,-2.16811 c 0.47157,-1.58292 0.97143,-3.1547 1.48468,-4.71917 z m 325.29861,4.53064 -68.94935,23.56049 c -0.28695,2.79019 -0.65038,5.72281 -1.10173,8.76081 11.31978,-4.12935 19.58946,-5.94717 19.63081,-5.95641 l 0.0236,0 3.78242,-0.87196 4.74864,-1.10173 -1.08995,4.76042 -0.34174,1.47879 48.91206,-9.62687 c -1.40583,-7.18162 -3.28999,-14.19758 -5.6147,-21.00354 z m -305.33788,0.006 c -2.32388,6.80419 -4.20923,13.81802 -5.6147,20.99765 l 48.91206,9.62687 -0.34174,-1.47879 -1.08991,-4.76041 4.74861,1.10173 3.78241,0.87195 0.0236,0 c 0.0414,0.009 8.31096,1.82705 19.63078,5.9564 -0.45103,-3.03565 -0.80903,-5.96663 -1.09582,-8.75491 L 186.0048,460.92318 z m 327.51975,2.74548 c 0.44671,1.58481 0.87396,3.176 1.27847,4.77809 l -8.69601,1.80872 c -0.32499,-1.27355 -0.66613,-2.538 -1.01925,-3.80008 l 8.43679,-2.78673 z m -350.6973,3.66458 8.48982,2.60997 c -0.32632,1.26879 -0.63876,2.54378 -0.93679,3.82365 l -8.73133,-1.62019 c 0.37099,-1.61187 0.76475,-3.2183 1.1783,-4.81343 z m 353.44866,7.41163 c 0.34562,1.60977 0.66362,3.22934 0.96623,4.85467 l -8.78436,1.24901 c -0.24371,-1.29067 -0.49958,-2.57271 -0.77179,-3.8531 l 8.58992,-2.25058 z m -355.95846,3.72939 8.63119,2.06795 c -0.24547,1.28732 -0.47848,2.57939 -0.69523,3.87667 l -8.80794,-1.07816 c 0.2683,-1.63028 0.5606,-3.25115 0.87198,-4.86646 z m 357.99698,7.50589 c 0.24304,1.62612 0.46014,3.26187 0.65986,4.90181 l -8.8433,0.69521 c -0.16184,-1.30227 -0.33963,-2.60122 -0.53023,-3.89434 l 8.71367,-1.70268 z m -359.8057,3.76473 8.74313,1.52003 c -0.164,1.30055 -0.31876,2.60265 -0.45367,3.91202 l -8.84917,-0.51846 c 0.16543,-1.64365 0.35076,-3.28318 0.55971,-4.91359 z m 361.13716,7.56481 c 0.14074,1.63752 0.25651,3.2816 0.35349,4.93126 l -8.86684,0.1473 c -0.0801,-1.3115 -0.1735,-2.62036 -0.2828,-3.92381 l 8.79615,-1.15475 z m -362.2271,3.79419 8.81381,0.96622 c -0.0822,1.30528 -0.14733,2.61672 -0.20032,3.9297 l -8.87275,0.0413 c 0.0629,-1.65065 0.15264,-3.29809 0.25926,-4.93716 z m 20.326,1.10173 c -0.2394,3.595 -0.36527,7.22025 -0.36527,10.87589 0,3.65563 0.12587,7.28087 0.36527,10.87588 l 60.48902,-4.08877 c -2.09238,-5.14901 -3.75432,-9.90154 -5.03144,-13.91595 l -55.45758,-3.74705 z m 321.8579,0 -55.45758,3.74705 c -1.27708,4.01441 -2.93906,8.76694 -5.03144,13.91595 l 60.48902,4.08877 c 0.23936,-3.59501 0.36527,-7.22025 0.36527,-10.87588 0,-3.65564 -0.12587,-7.28089 -0.36527,-10.87589 z m 20.66774,6.50432 c 0.0344,1.45307 0.053,2.91023 0.053,4.37157 0,0.18862 -0.005,0.37709 -0.006,0.56559 l -8.85509,-0.40652 c 4e-5,-0.0531 0,-0.10599 0,-0.15907 0,-1.26194 -0.0204,-2.52102 -0.0471,-3.77652 l 8.85509,-0.59505 z m -363.24049,3.80597 8.85504,0.40652 c -3e-5,0.0531 0,0.10598 0,0.15908 0,1.26193 0.0204,2.52102 0.0472,3.7765 l -8.8551,0.59506 c -0.0344,-1.45307 -0.053,-2.91023 -0.053,-4.37156 0,-0.18864 0.005,-0.3771 0.006,-0.5656 z m 363.15797,7.60016 c -0.0627,1.65064 -0.15264,3.29809 -0.25922,4.93716 l -8.81381,-0.96623 c 0.0821,-1.30528 0.14737,-2.61669 0.20032,-3.9297 l 8.87271,-0.0412 z m -353.97297,3.65823 c 0.08,1.30952 0.1737,2.61639 0.2828,3.9179 l -8.79616,1.15475 c -0.14066,-1.63752 -0.25654,-3.28161 -0.35352,-4.93125 l 8.86688,-0.1414 z m 344.33435,7.20541 8.85505,0.51846 c -0.16539,1.64386 -0.35669,3.28299 -0.56559,4.9136 l -8.74313,-1.52004 c 0.164,-1.30056 0.3188,-2.60263 0.45367,-3.91202 z m -343.3328,3.60566 c 0.1618,1.30226 0.33962,2.60122 0.53023,3.89435 l -8.71363,1.70267 c -0.24308,-1.62612 -0.46018,-3.26188 -0.65986,-4.90181 l 8.84326,-0.69521 z m 52.01691,2.00905 -38.8433,7.64727 c 1.40547,7.17968 3.29082,14.19349 5.6147,20.99764 l 42.7141,-14.59347 c -4.04228,-5.4107 -7.23663,-10.35365 -9.4855,-14.05144 z m 238.88068,0 c -2.24979,3.6993 -5.44682,8.64406 -9.49137,14.05732 l 42.71997,14.5935 c 2.32475,-6.80598 4.20887,-13.82188 5.6147,-21.00355 l -38.8433,-7.64727 z m 50.97999,5.14335 8.80794,1.07817 c -0.26822,1.63026 -0.56064,3.2511 -0.87198,4.86645 l -8.63119,-2.06797 c 0.24547,-1.28733 0.47856,-2.57935 0.69523,-3.87665 z m -340.20437,3.57032 c 0.24403,1.29258 0.49918,2.57674 0.77183,3.85898 l -8.58996,2.25062 c -0.34562,-1.60983 -0.66358,-3.2294 -0.96623,-4.8547 l 8.78436,-1.2549 z m 338.0775,7.08167 8.73133,1.62609 c -0.37059,1.61002 -0.76527,3.21422 -1.1783,4.80754 l -8.48982,-2.60998 c 0.32628,-1.26877 0.6388,-2.54374 0.93679,-3.82365 z m -335.72673,3.5114 c 0.32479,1.27305 0.66041,2.5385 1.01334,3.80007 l -8.43088,2.79265 c -0.44723,-1.58665 -0.87356,-3.18006 -1.27847,-4.78397 l 8.69601,-1.80875 z m 332.92821,6.98153 8.6194,2.16811 c -0.47132,1.58237 -0.96579,3.15528 -1.47879,4.71919 l -8.31304,-3.13434 c 0.40535,-1.24392 0.79472,-2.49678 1.17243,-3.75296 z m -329.91172,3.4525 c 0.40464,1.24955 0.82274,2.49246 1.25491,3.72939 l -8.24822,3.31108 c -0.54641,-1.55428 -1.07397,-3.12232 -1.57898,-4.69562 l 8.57229,-2.34485 z m 43.3386,6.15084 -23.75493,11.65357 c 3.21238,6.53518 6.85353,12.82352 10.88766,18.82362 l 8.62532,-5.78552 -1.69678,-1.06641 3.35228,-2.08559 2.66301,-1.67321 0.0175,0 c 0.0284,-0.0184 5.61894,-3.59695 14.22232,-7.63551 l 0.20032,-0.12963 c -5.94305,-4.39356 -10.91451,-8.73525 -14.5169,-12.10132 z m 242.1564,0 c -3.60455,3.36806 -8.58101,7.71104 -14.52869,12.10719 l 0.12963,0.0884 c 8.65006,4.05434 14.27634,7.65265 14.30479,7.67087 l 0.0175,0 2.66302,1.67321 3.35233,2.08559 -1.70857,1.07229 8.63119,5.79143 c 4.03703,-6.00338 7.67927,-12.29636 10.89357,-18.83541 l -23.75493,-11.65357 z m 40.96425,0.68931 8.4662,2.70425 c -0.57166,1.55248 -1.16671,3.09266 -1.77921,4.62489 l -8.10097,-3.6587 c 0.48371,-1.21694 0.95728,-2.44015 1.41398,-3.67044 z m -322.78881,3.38177 c 0.48252,1.2203 0.97539,2.43448 1.48472,3.641 l -8.02436,3.81777 c -0.64308,-1.51532 -1.26486,-3.04175 -1.86765,-4.57777 l 8.40729,-2.881 z m 318.69416,6.66929 8.27766,3.23448 c -0.66792,1.51156 -1.3544,3.01162 -2.06205,4.50121 l -7.85937,-4.1536 c 0.5614,-1.18762 1.10881,-2.37986 1.64376,-3.58209 z m -314.38738,3.29337 c 0.55875,1.18777 1.12962,2.36815 1.71443,3.54086 l -7.7651,4.31855 c -0.73873,-1.4742 -1.46273,-2.95727 -2.16223,-4.45401 l 8.2129,-3.4054 z m 309.66231,6.48076 8.05973,3.75296 c -0.76044,1.46321 -1.54026,2.91435 -2.33898,4.35388 l -7.58841,-4.64256 c 0.63409,-1.14809 1.25914,-2.30041 1.86766,-3.46428 z m -153.23454,3.12259 -3.34053,2.0915 -2.50981,1.59073 -5.00786,74.20465 c 3.59308,0.23912 7.21637,0.36527 10.86999,0.36527 3.65166,0 7.27296,-0.12636 10.86412,-0.36527 l -5.01374,-74.21644 -2.49806,-1.57894 -3.34053,-2.0915 -0.0236,0 z m -151.49651,0.0707 c 0.6322,1.14957 1.28091,2.28951 1.93833,3.42302 l -7.49409,4.80167 c -0.82841,-1.4219 -1.6368,-2.8607 -2.42733,-4.30677 l 7.98309,-3.91792 z m 299.39915,6.26864 7.81226,4.24787 c -0.85199,1.41422 -1.72088,2.81194 -2.60999,4.20068 l -7.28199,-5.10801 c 0.70501,-1.10605 1.3994,-2.21758 2.07972,-3.34054 z m -293.86693,3.06953 c 0.70301,1.10745 1.4113,2.20911 2.13865,3.2993 l -7.17597,5.26708 c -0.91748,-1.36915 -1.81159,-2.75835 -2.69246,-4.15359 l 7.72978,-4.41279 z m 164.38732,1.12532 12.73764,64.70739 c 7.18553,-1.40607 14.20578,-3.28871 21.01532,-5.6147 l -17.94579,-52.50593 c -5.9518,-2.06341 -11.35683,-4.42721 -15.80717,-6.58676 z m -36.83427,0.006 c -4.45242,2.16012 -9.85973,4.52379 -15.81305,6.58681 l -17.93399,52.50002 c 6.80938,2.32622 13.82987,4.20834 21.01531,5.61469 l 12.73173,-64.70148 z m -89.23411,0.44775 -13.82168,12.07187 c 4.77282,5.46009 9.90564,10.59794 15.36529,15.37121 l 17.43322,-19.96073 c -7.14636,-2.1998 -13.6771,-4.95368 -18.97683,-7.48235 z m 215.3084,0 c -5.30332,2.53014 -11.8375,5.28823 -18.98862,7.48826 l 17.4391,19.96073 c 5.46217,-4.77474 10.6023,-9.90919 15.37708,-15.3712 L 446.325,607.11159 z m 34.33035,4.45406 7.52942,4.73098 c -0.93922,1.35824 -1.9001,2.69874 -2.87509,4.02985 l -6.94028,-5.5558 c 0.7729,-1.05982 1.53665,-2.12715 2.28595,-3.20503 z m -281.86575,2.95168 c 0.77146,1.06194 1.56171,2.10853 2.35659,3.15201 l -6.83423,5.70896 c -1.00276,-1.31065 -1.98421,-2.6384 -2.95169,-3.97682 l 7.42933,-4.88415 z m 191.21761,3.19916 19.72508,40.19834 c 6.5337,-3.21166 12.81881,-6.85461 18.81776,-10.88765 l -19.20661,-28.62145 c -2.38373,0.24963 -4.77573,0.38886 -7.15831,0.38886 -4.06181,0 -8.15123,-0.40017 -12.17792,-1.07816 z m -102.67873,0.006 c -4.02269,0.67676 -8.10848,1.07229 -12.16613,1.07229 -2.38861,0 -4.78629,-0.1439 -7.17598,-0.39477 l -19.2066,28.62138 c 6.00119,4.03559 12.29301,7.67424 18.82954,10.88769 l 19.71917,-40.18659 z m 186.84612,2.55696 7.22304,5.19639 c -1.02057,1.29443 -2.05598,2.57571 -3.11076,3.84132 l -6.58677,-5.98589 c 0.83637,-1.00791 1.6607,-2.02477 2.47449,-3.05182 z m -268.72752,2.81038 c 0.83517,1.01019 1.67584,2.01399 2.53339,3.00472 l -6.45722,6.12134 c -1.08143,-1.24399 -2.14545,-2.50309 -3.19324,-3.7765 l 7.11707,-5.34956 z m 261.72828,5.47916 6.88727,5.63827 c -1.1007,1.22953 -2.21898,2.44199 -3.35232,3.64099 l -6.19208,-6.38648 c 0.8973,-0.95345 1.78146,-1.91912 2.65713,-2.89278 z m -254.55822,2.66892 c 0.89675,0.95624 1.80388,1.89814 2.72192,2.83385 l -6.05658,6.51611 c -1.15704,-1.1741 -2.30393,-2.35932 -3.42888,-3.56443 l 6.76354,-5.78553 z m 247.0523,5.1787 6.51024,6.05657 c -1.1741,1.15704 -2.35931,2.30394 -3.56442,3.42889 l -5.78554,-6.76942 c 0.95625,-0.89682 1.90402,-1.79796 2.83972,-2.71604 z m -239.38146,2.50393 c 0.95441,0.89822 1.91816,1.78642 2.89279,2.66302 l -5.63824,6.88138 c -1.22849,-1.0999 -2.44303,-2.21398 -3.64103,-3.34645 l 6.38648,-6.19795 z m 231.39838,4.84878 6.12134,6.45718 c -1.24399,1.08151 -2.50309,2.14541 -3.77649,3.19324 l -5.34369,-7.11703 c 1.00903,-0.83429 2.00927,-1.67681 2.99884,-2.53339 z m -223.26796,2.33898 c 1.00907,0.83732 2.02949,1.65978 3.05774,2.47449 l -5.19636,7.22304 c -1.29566,-1.0215 -2.5805,-2.05498 -3.84723,-3.11076 l 5.98585,-6.58677 z m 214.84296,4.50118 5.70896,6.83423 c -1.30973,1.00204 -2.63932,1.97894 -3.97682,2.94581 l -4.88415,-7.42932 c 1.06098,-0.77087 2.10945,-1.55652 3.15201,-2.35072 z m -206.27658,2.1681 c 1.05982,0.77291 2.12715,1.53666 3.20503,2.28595 l -4.73686,7.52942 c -1.35592,-0.9377 -2.6951,-1.89586 -4.02392,-2.8692 l 5.55575,-6.94617 z m 197.44506,4.1359 5.26121,7.17597 c -1.36867,0.91717 -2.753,1.81771 -4.14769,2.69834 l -4.41282,-7.72978 c 1.10838,-0.70361 2.20828,-1.41653 3.2993,-2.14453 z m -188.47804,1.97958 c 1.10605,0.70501 2.21754,1.3994 3.34053,2.07972 l -4.24786,7.81225 c -1.41422,-0.85198 -2.81195,-1.72087 -4.20067,-2.60999 l 5.108,-7.28198 z m 179.25771,3.75883 4.80167,7.4941 c -1.42189,0.82837 -2.86069,1.6368 -4.30676,2.42737 l -3.91792,-7.98313 c 1.14957,-0.6322 2.28951,-1.28095 3.42301,-1.93834 z m -169.91954,1.78514 c 1.14661,0.63324 2.29606,1.25989 3.45837,1.86764 l -3.74704,8.05974 c -1.46474,-0.76124 -2.91876,-1.53943 -4.35979,-2.33898 l 4.64846,-7.5884 z m 160.36927,3.37002 4.31851,7.7651 c -1.47412,0.73879 -2.95731,1.4627 -4.45401,2.16224 l -3.41127,-8.213 c 1.18933,-0.55948 2.37246,-1.12879 3.54677,-1.71444 z m -150.70703,1.57894 c 1.1853,0.56028 2.3763,1.10394 3.57618,1.63784 l -3.23448,8.28358 c -1.51157,-0.66793 -3.01162,-1.3544 -4.50118,-2.06205 l 4.15948,-7.85937 z m 140.84446,2.95756 3.82365,8.01849 c -1.51759,0.64419 -3.04523,1.26977 -4.58364,1.87352 l -2.881,-8.4073 c 1.22026,-0.48255 2.43452,-0.97534 3.64099,-1.48471 z M 274.909,673.71041 c 1.2169,0.48371 2.44016,0.95728 3.67045,1.41398 l -2.71013,8.46621 c -1.55073,-0.57107 -3.08851,-1.1674 -4.61902,-1.77922 l 3.6587,-8.10097 z m 120.74827,2.53338 3.31108,8.24822 c -1.55196,0.54561 -3.11879,1.06873 -4.68974,1.57307 l -2.34485,-8.56638 c 1.24775,-0.40416 2.48835,-0.82334 3.72351,-1.25491 z m -110.53813,1.16064 c 1.2457,0.40595 2.50089,0.79421 3.75883,1.17243 l -2.17398,8.6194 c -1.58238,-0.47132 -3.15528,-0.96579 -4.71919,-1.47879 l 3.13434,-8.31304 z m 100.18658,2.09151 2.78673,8.43679 c -1.58661,0.44727 -3.18006,0.87352 -4.78398,1.27847 l -1.80874,-8.69601 c 1.27544,-0.32547 2.54209,-0.66557 3.80599,-1.01925 z m -89.76434,0.94265 c 1.26881,0.32628 2.54373,0.6388 3.82365,0.93679 l -1.62609,8.73133 c -1.61003,-0.37059 -3.21423,-0.76527 -4.80755,-1.1783 l 2.60999,-8.48982 z m 79.21838,1.65559 2.25062,8.58991 c -1.60982,0.34562 -3.2294,0.66361 -4.85469,0.96623 l -1.24903,-8.78436 c 1.2907,-0.24372 2.57274,-0.49958 3.8531,-0.77178 z m -68.62532,0.71284 c 1.28736,0.24551 2.57942,0.47848 3.87668,0.69522 l -1.07816,8.80794 c -1.63028,-0.26829 -3.25114,-0.56056 -4.86644,-0.87197 l 2.06792,-8.63119 z m 57.93799,1.20192 1.70264,8.71367 c -1.62612,0.24304 -3.26185,0.46014 -4.90181,0.65986 l -0.69518,-8.84331 c 1.30226,-0.16183 2.6012,-0.33961 3.89435,-0.53022 z m -47.21528,0.49486 c 1.30057,0.16399 2.60263,0.31876 3.91204,0.45366 l -0.51848,8.84918 c -1.64368,-0.16543 -3.28319,-0.35077 -4.91356,-0.55972 l 1.52,-8.74312 z m 36.42775,0.75413 1.15477,8.79614 c -1.63756,0.14071 -3.28159,0.25659 -4.93126,0.35349 l -0.14142,-8.86684 c 1.30953,-0.08 2.61642,-0.1737 3.91791,-0.28279 z m -25.61666,0.26513 c 1.3053,0.0821 2.6167,0.14738 3.92971,0.20032 l 0.0413,8.87271 c -1.65067,-0.0627 -3.2981,-0.15264 -4.93717,-0.25922 l 0.96623,-8.81381 z m 14.78204,0.30046 0.59504,8.85509 c -1.45307,0.0343 -2.91024,0.053 -4.37158,0.053 -0.18861,0 -0.37711,-0.005 -0.56559,-0.006 l 0.40651,-8.85506 c 0.0531,4e-5 0.10597,0 0.15908,0 1.26193,0 2.52103,-0.0204 3.77654,-0.0471 z"
       id="path4624"
       inkscape:connector-curvature="0" />
    <path
       style="font-size:medium;font-style:normal;font-variant:normal;font-weight:normal;font-stretch:normal;text-indent:0;text-align:start;text-decoration:none;line-height:normal;letter-spacing:normal;word-spacing:normal;text-transform:none;direction:ltr;block-progression:tb;writing-mode:lr-tb;text-anchor:start;baseline-shift:baseline;color:#000000;fill:#ffffff;fill-opacity:1;fill-rule:nonzero;stroke:none;stroke-width:25;marker:none;visibility:visible;display:inline;overflow:visible;enable-background:accumulate;font-family:Sans;-inkscape-font-specification:Sans"
       d="m 338.65532,407.36712 -3.10522,4.97933 -2.48047,3.96876 c 0,0 4e-5,0.0182 0,0.0182 -0.034,0.0529 -8.38101,13.08635 -15.96696,31.66753 -9.60415,-11.72107 -17.64686,-19.04671 -17.68494,-19.08135 l -0.0184,-0.009 -3.26133,-3.05009 -4.09742,-3.82178 -1.65366,5.36521 -1.31372,4.27193 c 0,0 3e-5,0.0182 0,0.0185 -0.0188,0.0588 -4.76424,14.93481 -7.11073,34.76352 -10.89509,-7.69358 -19.27901,-12.03206 -19.3202,-12.05333 l -0.0184,-0.009 -3.69318,-1.95682 -4.63025,-2.4713 -0.19292,5.25492 -0.15616,4.18011 c 0,0 0.009,0.0182 0.009,0.0185 -0.004,0.0584 -0.69975,15.00848 2.09466,33.8172 -11.31982,-4.12935 -19.59126,-5.94413 -19.63262,-5.95312 l -0.0184,0 -3.78505,-0.87275 -4.74964,-1.10246 1.09322,4.75888 0.86358,3.78501 c 0,0 0.009,0.0182 0.009,0.0182 0.0116,0.0524 2.90829,13.32224 9.76578,29.27889 -6.73561,-0.61542 -12.33093,-0.74621 -15.82919,-0.74415 -2.4981,0 -3.92443,0.0727 -3.94121,0.0734 l -0.0184,0 -3.63803,0.12865 -4.55676,0.14698 2.14057,4.04226 1.69959,3.21543 0.009,0.0183 c 0.0232,0.0449 5.87332,11.35049 15.94858,24.12498 -10.6777,1.84304 -17.97979,4.16867 -18.01568,4.1801 l -0.0184,0 -3.25219,1.0014 -4.07899,1.24024 2.90309,3.13274 2.32431,2.49885 0.009,0.009 c 0.0324,0.0352 8.31923,9.13017 20.8544,18.3923 -8.73529,4.08303 -14.42248,7.7263 -14.45109,7.74464 l -0.0184,0 -2.66425,1.67201 -3.35321,2.08547 3.35321,2.10381 2.66425,1.68124 c 0,0 0.0184,-8e-5 0.0184,0 0.0652,0.0417 29.46349,18.89759 57.47372,18.89759 28.01026,0 57.40846,-18.85579 57.47372,-18.89759 l 0.0184,0 2.66424,-1.68124 3.34406,-2.09462 0.0184,0 3.34405,2.09462 2.66422,1.68124 0.0184,0 c 0.0652,0.0417 29.46346,18.89759 57.47372,18.89759 28.01023,0 57.40847,-18.85576 57.47372,-18.89759 9e-5,-8e-5 0.0184,0 0.0184,0 l 2.66425,-1.68124 3.35324,-2.10381 -3.35324,-2.08547 -2.66425,-1.67201 -0.0184,0 c -0.0288,-0.0184 -5.71579,-3.66161 -14.45112,-7.74464 12.5352,-9.26213 20.82226,-18.35698 20.85443,-18.3923 l 0.009,-0.009 2.32435,-2.49885 2.90306,-3.13274 -4.079,-1.24024 -3.25222,-1.0014 -0.0184,0 c -0.036,-0.0116 -7.33793,-2.33706 -18.01568,-4.1801 10.07527,-12.77449 15.92557,-24.0803 15.94863,-24.12498 l 0.009,-0.0183 1.69962,-3.21543 2.14054,-4.04226 -4.55672,-0.14698 -3.63804,-0.12865 -0.0184,0 c -0.0168,0 -1.44315,-0.072 -3.94121,-0.0734 -3.49822,0 -9.09354,0.12873 -15.82915,0.74415 6.85753,-15.95665 9.75431,-29.22646 9.76578,-29.27889 0,-1.3e-4 0.009,-0.0182 0.009,-0.0182 l 0.86358,-3.78501 1.09326,-4.75888 -4.74968,1.10246 -3.78501,0.87275 -0.0184,0 c -0.0414,0.009 -8.31275,1.82377 -19.63253,5.95312 2.79435,-18.80872 2.09734,-33.75882 2.09462,-33.8172 0,-1.4e-4 0.009,-0.0185 0.009,-0.0185 l -0.15621,-4.18011 -0.19289,-5.25492 -4.63027,2.4713 -3.69319,1.95682 -0.0184,0.009 c -0.0413,0.0212 -8.42513,4.35975 -19.32022,12.05331 -2.34649,-19.8287 -7.09197,-34.70472 -7.11072,-34.76352 -4e-5,-1.1e-4 0,-0.0185 0,-0.0185 l -1.31376,-4.27194 -1.65363,-5.36519 -4.09742,3.82176 -3.26133,3.05009 -0.0184,0.009 c -0.038,0.0346 -8.08406,7.36453 -17.68485,19.08135 -7.58611,-18.58034 -15.93308,-31.61463 -15.967,-31.66752 l -0.009,-0.0182 -2.48047,-3.96877 -3.10522,-4.97933 -0.0184,0.0185 -0.009,-0.0185 z m 0.0184,6.94534 2.48967,3.96877 c 0,0 0.11077,0.17706 0.31237,0.50528 0.60475,0.98466 2.06105,3.3921 3.99631,6.9178 2.25786,4.11334 5.16855,9.74909 8.16722,16.40794 0.85679,1.90252 1.7248,3.88525 2.58154,5.94397 0.44887,1.07848 0.88899,2.18161 1.33215,3.29814 -0.71197,0.90521 -1.43013,1.83628 -2.14977,2.78365 -4.38881,-11.32611 -9.24602,-20.94438 -12.59535,-27.08322 3.62441,9.84243 6.96546,20.34253 9.60039,31.12547 0.0544,-0.0754 0.11105,-0.14533 0.16535,-0.22047 -4.91699,6.80249 -9.8093,14.48604 -13.89988,22.71018 -4.04559,-8.13496 -8.87176,-15.74232 -13.73452,-22.48971 2.63492,-10.78294 5.97597,-21.28304 9.60038,-31.12547 -3.34932,6.13884 -8.20654,15.75711 -12.59535,27.08322 -0.72251,-0.95109 -1.44414,-1.88426 -2.15895,-2.79284 0.44216,-1.11396 0.8935,-2.21292 1.34134,-3.28895 0.85674,-2.05872 1.72474,-4.04145 2.58153,-5.94397 5.56902,-12.3664 10.85317,-21.19234 12.16354,-23.32574 0.20159,-0.32822 0.31236,-0.50528 0.31236,-0.50528 l 2.48967,-3.96877 z m -44.93348,14.11119 3.27976,3.06847 c 0,0 36.13629,33.29276 46.01755,70.17012 2.18817,8.16637 3.17239,16.82459 3.38078,25.35603 0,0.005 0,0.007 0,0.009 -5.05018,15.30209 -7.01446,31.13537 -7.74461,42.64592 -1.04383,-16.45611 -4.60322,-41.76016 -16.10475,-61.68134 -7.79695,-13.50466 -19.56177,-25.08233 -30.61098,-33.99178 -0.32939,-11.1698 0.16176,-22.27324 1.1208,-32.77915 -1.64284,6.78195 -3.87752,17.47298 -5.09878,29.65555 -0.90378,-0.68999 -1.79037,-1.35192 -2.6734,-2.00275 2.2133,-20.4073 7.11991,-36.15074 7.11991,-36.15074 l 1.31372,-4.29951 z m 89.867,0 1.31373,4.29951 c 0,0 4.90656,15.74344 7.1199,36.15077 -0.88307,0.6508 -1.76962,1.31276 -2.6734,2.00275 -1.22126,-12.1826 -3.45598,-22.8736 -5.09877,-29.65555 0.95904,10.50588 1.45019,21.60935 1.12079,32.77909 -11.04925,8.90951 -22.81407,20.48712 -30.61102,33.99183 -1.98553,3.43906 -3.73298,7.04301 -5.27332,10.73036 -0.53366,-6.06296 -1.50988,-12.11888 -3.07763,-17.96968 -1.46138,-5.45397 -3.46133,-10.80599 -5.80619,-15.97619 13.97157,-29.56816 39.70616,-53.28442 39.70616,-53.28442 l 3.27975,-3.06847 z m -126.21987,26.90866 3.71156,1.97521 c 0,0 40.75651,21.35978 58.63125,52.31982 15.32213,26.5387 16.12145,64.02359 16.04045,74.21234 -2.85087,-10.78872 -12.62148,-42.79151 -32.72394,-62.89401 -10.35444,-10.3544 -23.87482,-17.96249 -36.03136,-23.30732 -3.10329,-10.23314 -5.41418,-20.62968 -7.12906,-30.57426 0.16068,6.65374 0.75113,17.12405 2.68255,28.69089 -0.98621,-0.40202 -1.95588,-0.7865 -2.91224,-1.15753 -3.05722,-19.28434 -2.41618,-35.05752 -2.41618,-35.05752 l 0.14701,-4.20762 z m 162.5727,0 0.14697,4.20762 c 0,0 0.64105,15.77318 -2.41614,35.05752 -0.9564,0.37103 -1.92602,0.75551 -2.91227,1.15753 1.93146,-11.56684 2.52191,-22.03715 2.68258,-28.69089 -1.71488,9.94458 -4.02576,20.34112 -7.1291,30.57426 -12.1565,5.34483 -25.67688,12.95292 -36.03131,23.30732 -20.10247,20.1025 -29.87308,52.10529 -32.72399,62.89401 -0.081,-10.18875 0.71832,-47.67364 16.04046,-74.21234 17.87478,-30.96004 58.63128,-52.31982 58.63128,-52.31982 l 3.71156,-1.97521 z m -188.02981,34.04696 3.8034,0.88193 c 0,0 41.68077,9.36092 65.15406,32.83421 20.10459,20.10459 29.8416,53.49201 32.22789,62.68273 -5.14369,-8.99399 -21.76441,-35.66764 -44.87838,-49.01247 -11.74283,-6.77973 -25.63864,-10.37965 -37.83195,-12.28301 -5.10724,-8.27171 -9.56593,-16.84966 -13.413,-25.18149 1.71168,5.82196 4.67987,14.85013 9.05836,24.55677 -0.97754,-0.12605 -1.93966,-0.24342 -2.88471,-0.3491 -7.20594,-16.33019 -10.3629,-30.32621 -10.3629,-30.32621 l -0.87277,-3.80336 z m 213.48696,0 -0.87277,3.80336 c 0,0 -3.157,13.99602 -10.36294,30.32621 -0.94505,0.10568 -1.90717,0.22305 -2.88467,0.3491 4.37845,-9.70664 7.34668,-18.73481 9.05833,-24.55677 -3.84703,8.33183 -8.30572,16.90978 -13.41297,25.18149 -12.19335,1.90336 -26.08915,5.50328 -37.83199,12.28301 -23.11393,13.34483 -39.73464,40.01848 -44.87838,49.01247 2.3863,-9.19072 12.12334,-42.57814 32.22793,-62.68273 23.47329,-23.47329 65.15403,-32.83421 65.15403,-32.83421 l 3.80343,-0.88193 z m -221.61733,35.90268 c 10.66272,0.0403 41.14491,1.32918 63.01345,13.95498 23.06841,13.3186 39.9657,41.18258 44.33636,48.8931 -6.82353,-6.88127 -28.31573,-26.98342 -52.44848,-33.44979 -7.31187,-1.95924 -15.03962,-2.71084 -22.52643,-2.73773 -5.07433,-0.0184 -10.02992,0.29985 -14.67159,0.79928 -6.62813,-6.24635 -12.7438,-12.92454 -18.24537,-19.5315 2.96223,4.85604 7.84362,12.30066 14.16634,20.0276 -0.91465,0.12307 -1.82078,0.25227 -2.70098,0.38585 -10.48474,-13.0307 -16.72949,-24.93344 -16.72949,-24.93344 l -1.71795,-3.23384 3.65637,-0.12859 c 0,0 1.40707,-0.0552 3.86777,-0.0459 z m 229.74786,0 c 2.46062,-0.009 3.86769,0.0459 3.86769,0.0459 l 3.65646,0.12859 -1.71796,3.23384 c 0,0 -6.24474,11.90274 -16.72952,24.93344 -0.8802,-0.13358 -1.78634,-0.26277 -2.70098,-0.38585 6.32271,-7.72694 11.20414,-15.17156 14.16633,-20.0276 -5.50157,6.60696 -11.61724,13.28515 -18.24532,19.5315 -4.64168,-0.49943 -9.59727,-0.81751 -14.67159,-0.79928 -7.48682,0.0267 -15.2146,0.77849 -22.52652,2.73773 -24.13271,6.46637 -45.62486,26.56852 -52.44839,33.44979 4.37062,-7.71052 21.26789,-35.5745 44.33632,-48.8931 21.86854,-12.6258 52.35073,-13.91476 63.01348,-13.95498 z m -197.36377,29.37072 c 7.30113,0.0128 14.80449,0.72711 21.82825,2.60915 24.07394,6.45058 46.09061,27.54158 51.91557,33.45893 -7.86304,-4.57138 -31.76303,-17.26231 -54.76356,-17.26231 -11.92573,0 -24.09882,3.42049 -34.15714,7.34956 -7.75364,-4.13063 -15.13856,-8.82568 -21.91098,-13.60585 3.95041,3.76407 10.38952,9.51071 18.23614,15.09412 -0.79844,0.33754 -1.57982,0.67276 -2.34266,1.01058 -12.95387,-9.37873 -21.74558,-18.90682 -21.74558,-18.90682 l -2.3335,-2.50801 3.27056,-1.00136 c 0,0 20.09951,-6.27599 42.0029,-6.23799 z m 164.97969,0 c 21.90338,-0.038 42.00281,6.23799 42.00281,6.23799 l 3.27057,1.00136 -2.33346,2.50801 c 0,0 -8.79172,9.52809 -21.74555,18.90682 -0.76288,-0.33782 -1.54425,-0.67304 -2.34269,-1.01058 7.84662,-5.58341 14.28573,-11.33005 18.23614,-15.09412 -6.77242,4.78017 -14.15735,9.47522 -21.91094,13.60585 -10.05833,-3.92907 -22.23142,-7.34956 -34.15719,-7.34956 -23.00049,0 -46.90047,12.69093 -54.76356,17.26235 5.82501,-5.91739 27.84168,-27.00839 51.91561,-33.45897 7.02376,-1.88204 14.52713,-2.59644 21.82826,-2.60911 z m -145.99943,21.27705 c 26.90654,0 56.16919,18.52093 56.16919,18.52093 l 2.6826,1.67205 -2.6826,1.68123 c 0,0 -29.26265,18.52094 -56.16919,18.52094 -26.90649,0 -56.16914,-18.52094 -56.16914,-18.52094 l -2.68263,-1.68123 2.68263,-1.67205 c 0,0 29.26265,-18.52093 56.16914,-18.52093 z m 127.01912,0 c 26.90653,0 56.16919,18.52093 56.16919,18.52093 l 2.68258,1.67205 -2.68258,1.68123 c 0,0 -29.26266,18.52094 -56.16919,18.52094 -26.90649,0 -56.16919,-18.52094 -56.16919,-18.52094 l -2.68255,-1.68123 2.68255,-1.67205 c 0,0 29.2627,-18.52093 56.16919,-18.52093 z m -177.28105,22.98583 c 9.35403,5.10348 30.69781,15.43409 50.26193,15.43409 19.56421,0 40.90792,-10.33061 50.26195,-15.43409 -15.41848,5.67778 -33.24079,10.32613 -50.26195,10.32613 -17.02115,0 -34.84346,-4.64835 -50.26193,-10.32613 z m 127.0191,0 c 9.35408,5.10348 30.69782,15.43409 50.26195,15.43409 19.56416,0 40.90791,-10.33061 50.26198,-15.43409 -15.41852,5.67778 -33.24079,10.32613 -50.26198,10.32613 -17.02115,0 -34.84343,-4.64835 -50.26195,-10.32613 z"
       id="path3825"
       inkscape:connector-curvature="0" />
  </g>
</svg>
