<?xml version="1.0" encoding="UTF-8" standalone="no"?>
<!-- Created with Inkscape (http://www.inkscape.org/) -->

<svg
   xmlns:dc="http://purl.org/dc/elements/1.1/"
   xmlns:cc="http://creativecommons.org/ns#"
   xmlns:rdf="http://www.w3.org/1999/02/22-rdf-syntax-ns#"
   xmlns:svg="http://www.w3.org/2000/svg"
   xmlns="http://www.w3.org/2000/svg"
   xmlns:sodipodi="http://sodipodi.sourceforge.net/DTD/sodipodi-0.dtd"
   xmlns:inkscape="http://www.inkscape.org/namespaces/inkscape"
   width="420mm"
   height="297mm"
   viewBox="0 0 1488.189 1052.3622"
   id="svg2"
   version="1.1"
   inkscape:version="0.91 r13725"
   sodipodi:docname="random.svg">
  <defs
     id="defs4" />
  <sodipodi:namedview
     id="base"
     pagecolor="#ffffff"
     bordercolor="#666666"
     borderopacity="1.0"
     inkscape:pageopacity="0.0"
     inkscape:pageshadow="2"
     inkscape:zoom="0.49497475"
     inkscape:cx="329.74668"
     inkscape:cy="551.58463"
     inkscape:document-units="px"
     inkscape:current-layer="layer1"
     showgrid="false"
     inkscape:object-nodes="false"
     inkscape:snap-center="true"
     inkscape:snap-object-midpoints="true"
     inkscape:snap-smooth-nodes="true"
     inkscape:window-width="1879"
     inkscape:window-height="1056"
     inkscape:window-x="41"
     inkscape:window-y="24"
     inkscape:window-maximized="1" />
  <metadata
     id="metadata7">
    <rdf:RDF>
      <cc:Work
         rdf:about="">
        <dc:format>image/svg+xml</dc:format>
        <dc:type
           rdf:resource="http://purl.org/dc/dcmitype/StillImage" />
        <dc:title></dc:title>
      </cc:Work>
    </rdf:RDF>
  </metadata>
  <g
     inkscape:label="Layer 1"
     inkscape:groupmode="layer"
     id="layer1"
     transform="translate(0,-3.464567e-6)">
    <path
       style="color:#000000;font-style:normal;font-variant:normal;font-weight:normal;font-stretch:normal;font-size:medium;line-height:normal;font-family:sans-serif;text-indent:0;text-align:start;text-decoration:none;text-decoration-line:none;text-decoration-style:solid;text-decoration-color:#000000;letter-spacing:normal;word-spacing:normal;text-transform:none;direction:ltr;block-progression:tb;writing-mode:lr-tb;baseline-shift:baseline;text-anchor:start;white-space:normal;clip-rule:nonzero;display:inline;overflow:visible;visibility:visible;opacity:0.52899996;isolation:auto;mix-blend-mode:normal;color-interpolation:sRGB;color-interpolation-filters:linearRGB;solid-color:#000000;solid-opacity:1;fill:#0000ff;fill-opacity:1;fill-rule:nonzero;stroke:none;stroke-width:15;stroke-linecap:round;stroke-linejoin:round;stroke-miterlimit:4;stroke-dasharray:none;stroke-dashoffset:0;stroke-opacity:1;color-rendering:auto;image-rendering:auto;shape-rendering:auto;text-rendering:auto;enable-background:accumulate"
       d="m 1747.558,356.89668 c -1.3163,-0.0188 -2.6339,-0.0188 -3.9512,0.002 -8.538,0.13419 -17.0826,1.10059 -25.5136,2.89649 l 2.9472,14.85351 c 7.5349,-1.67047 15.1642,-2.63354 22.8047,-2.7539 9.6235,-0.1516 19.2329,0.89411 28.6133,3.08789 1.175,-4.87582 2.0017,-9.83092 2.4961,-14.82227 -9.0003,-2.03685 -18.1821,-3.13233 -27.3965,-3.26367 z m 53.3555,12.05274 c -0.7594,5.09656 -1.7867,10.15201 -3.0899,15.13476 2.183,1.08081 4.3416,2.22464 6.4668,3.44727 2.1482,1.24218 4.2428,2.55521 6.293,3.92187 4.2032,-3.04986 8.2017,-6.38158 11.9551,-9.9707 -3.4571,-2.47215 -7.0393,-4.79798 -10.7539,-6.94531 a 7.50075,7.50075 0 0 0 -0.014,-0.008 c -3.5457,-2.03982 -7.1727,-3.8907 -10.8574,-5.58007 z m -86.4082,13.16015 c -4.86,1.43902 -9.6133,3.23183 -14.2344,5.32617 9.7767,31.77679 31.2253,58.92762 60.3223,75.74805 a 7.50075,7.50075 0 0 0 0,0.002 c 19.2247,11.09977 40.9322,17.19277 63.125,17.7168 a 7.50075,7.50075 0 0 0 0.023,0 c 16.0313,0.32482 31.9887,-2.26227 47.0957,-7.63672 a 7.50075,7.50075 0 0 0 4.8574,-8.44922 c -4.6207,-24.62766 -16.075,-47.14965 -32.6757,-65.21679 -3.5453,3.56523 -7.2931,6.90804 -11.2188,10.01953 13.2597,14.45045 22.7848,32.13018 27.5684,51.48242 -11.4553,3.34889 -23.3384,5.0444 -35.2969,4.80469 0,-5e-5 0,4e-5 -0.01,0 -19.6789,-0.46566 -38.9255,-5.86844 -55.9726,-15.71094 -26.0702,-15.07197 -45.065,-39.52786 -53.5918,-68.08594 z"
       id="path4139"
       inkscape:connector-curvature="0" />
    <path
       style="color:#000000;font-style:normal;font-variant:normal;font-weight:normal;font-stretch:normal;font-size:medium;line-height:normal;font-family:sans-serif;text-indent:0;text-align:start;text-decoration:none;text-decoration-line:none;text-decoration-style:solid;text-decoration-color:#000000;letter-spacing:normal;word-spacing:normal;text-transform:none;direction:ltr;block-progression:tb;writing-mode:lr-tb;baseline-shift:baseline;text-anchor:start;white-space:normal;clip-rule:nonzero;display:inline;overflow:visible;visibility:visible;opacity:0.52899996;isolation:auto;mix-blend-mode:normal;color-interpolation:sRGB;color-interpolation-filters:linearRGB;solid-color:#000000;solid-opacity:1;fill:#ff0000;fill-opacity:1;fill-rule:nonzero;stroke:none;stroke-width:15;stroke-linecap:round;stroke-linejoin:round;stroke-miterlimit:4;stroke-dasharray:none;stroke-dashoffset:0;stroke-opacity:1;color-rendering:auto;image-rendering:auto;shape-rendering:auto;text-rendering:auto;enable-background:accumulate"
       d="m 1746.7045,356.85371 c -0.9521,-0.008 -1.9031,-0.006 -2.8535,0.006 -45.6196,0.59284 -89.1512,24.80936 -113.0664,66.17188 a 7.50075,7.50075 0 0 0 -0.016,0.0273 c -7.429,12.97322 -12.6089,27.10877 -15.3203,41.81055 a 7.50075,7.50075 0 0 0 4.8672,8.42968 c 15.079,5.35182 31.0026,7.92742 46.9999,7.60352 a 7.50075,7.50075 0 0 0 0.025,0 c 8.6526,-0.20445 17.229,-1.26666 25.6153,-3.13086 -1.3055,-4.83537 -2.3244,-9.74026 -3.0664,-14.68555 -7.4953,1.67906 -15.1622,2.63713 -22.8985,2.82032 -11.9629,0.24022 -23.849,-1.45744 -35.3086,-4.8086 2.6053,-10.68802 6.6129,-20.99156 12.0879,-30.55859 l 0.01,-0.0117 c 21.2433,-36.73114 59.7765,-58.1883 100.2285,-58.69141 9.4401,-0.1174 18.9753,0.99796 28.4258,3.25977 1.1887,-4.90969 2.0232,-9.90049 2.5215,-14.92773 -9.3881,-2.14556 -18.8551,-3.2334 -28.25,-3.31446 z m 28.5859,29.22461 c -5.3957,16.00089 -14.1186,30.59852 -25.5468,42.82422 3.6288,3.47387 7.4833,6.71343 11.5488,9.66797 12.46,-13.43958 22.0564,-29.37506 28.0879,-46.82813 l -14.0899,-5.66406 z m -46.2753,60.35742 c -1.9751,1.30924 -3.991,2.56769 -6.0567,3.76172 -2.2254,1.28478 -4.4907,2.48873 -6.7871,3.6211 0.5444,5.16257 1.4328,10.28586 2.6699,15.32422 3.9586,-1.7917 7.8394,-3.77359 11.6211,-5.95704 a 7.50075,7.50075 0 0 0 0,-0.002 c 3.4984,-2.0222 6.8862,-4.19486 10.1563,-6.50586 -4.0543,-3.19977 -7.9321,-6.61979 -11.6074,-10.24219 z"
       id="path4143"
       inkscape:connector-curvature="0" />
    <path
       style="color:#000000;font-style:normal;font-variant:normal;font-weight:normal;font-stretch:normal;font-size:medium;line-height:normal;font-family:sans-serif;text-indent:0;text-align:start;text-decoration:none;text-decoration-line:none;text-decoration-style:solid;text-decoration-color:#000000;letter-spacing:normal;word-spacing:normal;text-transform:none;direction:ltr;block-progression:tb;writing-mode:lr-tb;baseline-shift:baseline;text-anchor:start;white-space:normal;clip-rule:nonzero;display:inline;overflow:visible;visibility:visible;opacity:0.52899996;isolation:auto;mix-blend-mode:normal;color-interpolation:sRGB;color-interpolation-filters:linearRGB;solid-color:#000000;solid-opacity:1;fill:#00ff00;fill-opacity:1;fill-rule:nonzero;stroke:none;stroke-width:15;stroke-linecap:round;stroke-linejoin:round;stroke-miterlimit:4;stroke-dasharray:none;stroke-dashoffset:0;stroke-opacity:1;color-rendering:auto;image-rendering:auto;shape-rendering:auto;text-rendering:auto;enable-background:accumulate"
       d="m 1745.4115,246.1252 a 7.50075,7.50075 0 0 0 -4.9375,1.80664 c -29.3187,25.15281 -46.2053,61.86055 -46.2265,100.49023 a 7.50075,7.50075 0 0 0 0,0.004 c -10e-5,4.03571 0.1892,8.05836 0.5547,12.05859 4.7932,-1.9244 9.6869,-3.58617 14.664,-4.95508 -0.1428,-2.35973 -0.2187,-4.72759 -0.2187,-7.09961 l 0,-0.002 0,-0.002 c 0.019,-32.00026 13.2077,-62.37983 36.1172,-84.44336 22.9568,22.04072 36.1942,52.42295 36.248,84.4414 l 0,0.008 0,0.008 c -0.02,30.04517 -11.6499,58.66225 -32.0351,80.30664 3.6517,3.51005 7.5364,6.77891 11.6328,9.76172 22.6087,-24.35071 35.3839,-56.48493 35.4023,-90.07617 a 7.50075,7.50075 0 0 0 0,-0.0156 c -0.06,-38.65507 -17.0038,-75.36832 -46.3809,-100.49219 a 7.50075,7.50075 0 0 0 -4.8203,-1.79882 z m -31.1953,136.06836 c -4.8013,1.43627 -9.4977,3.21883 -14.0644,5.29492 2.6059,8.44665 6.0448,16.64725 10.3144,24.46289 a 7.50075,7.50075 0 0 0 0.014,0.0215 c 4.7694,8.66145 10.4862,16.7433 17.0293,24.10547 l 11.2344,-10.08594 c -5.8001,-6.4857 -10.8976,-13.58019 -15.1133,-21.23242 0,-0.003 0,-0.007 0,-0.01 -3.9312,-7.19761 -7.071,-14.76091 -9.4102,-22.55664 z"
       id="path4162"
       inkscape:connector-curvature="0" />
    <path
       style="color:#000000;font-style:normal;font-variant:normal;font-weight:normal;font-stretch:normal;font-size:medium;line-height:normal;font-family:sans-serif;text-indent:0;text-align:start;text-decoration:none;text-decoration-line:none;text-decoration-style:solid;text-decoration-color:#000000;letter-spacing:normal;word-spacing:normal;text-transform:none;direction:ltr;block-progression:tb;writing-mode:lr-tb;baseline-shift:baseline;text-anchor:start;white-space:normal;clip-rule:nonzero;display:inline;overflow:visible;visibility:visible;opacity:0.52899996;isolation:auto;mix-blend-mode:normal;color-interpolation:sRGB;color-interpolation-filters:linearRGB;solid-color:#000000;solid-opacity:1;fill:#808000;fill-opacity:1;fill-rule:nonzero;stroke:none;stroke-width:15;stroke-linecap:butt;stroke-linejoin:miter;stroke-miterlimit:4;stroke-dasharray:none;stroke-dashoffset:0;stroke-opacity:1;color-rendering:auto;image-rendering:auto;shape-rendering:auto;text-rendering:auto;enable-background:accumulate"
       d="m 1745.4994,337.38106 -4.875,4.18359 c -29.3187,25.1528 -46.2053,61.86055 -46.2265,100.49023 l 0,0.002 0,0.002 c -4e-4,22.19898 5.5781,44.04384 16.2207,63.52539 l 0.01,0.01 0.01,0.0117 c 7.7343,14.04587 17.9542,26.57097 30.1621,36.96679 l 4.8809,4.15625 4.8652,-4.17383 c 18.9028,-16.21692 32.6274,-37.24079 40.0058,-60.48242 -4.8345,-1.33696 -9.6022,-2.9229 -14.2695,-4.76758 -5.9064,18.56581 -16.4094,35.52274 -30.6836,49.25196 -8.627,-8.24549 -16.0372,-17.68882 -21.8086,-28.16406 -7e-4,-10e-4 -9e-4,-0.003 0,-0.004 -9.4361,-17.27447 -14.3825,-36.64251 -14.3828,-56.32617 l 0,-0.002 0,-0.002 c 0.019,-32.0005 13.2074,-62.38174 36.1172,-84.44531 22.9575,22.0408 36.1942,52.42244 36.248,84.4414 l 0,0.008 0,0.008 c 0,2.6932 -0.1047,5.37475 -0.291,8.04101 4.7392,2.11547 9.6181,3.911 14.5937,5.36915 0.4539,-4.43631 0.6948,-8.9122 0.6973,-13.41602 l 0,-0.008 0,-0.008 c -0.06,-38.65507 -17.0038,-75.36832 -46.3809,-100.49218 l -4.8828,-4.17578 z"
       id="path4164"
       inkscape:connector-curvature="0" />
    <path
       style="color:#000000;font-style:normal;font-variant:normal;font-weight:normal;font-stretch:normal;font-size:medium;line-height:normal;font-family:sans-serif;text-indent:0;text-align:start;text-decoration:none;text-decoration-line:none;text-decoration-style:solid;text-decoration-color:#000000;letter-spacing:normal;word-spacing:normal;text-transform:none;direction:ltr;block-progression:tb;writing-mode:lr-tb;baseline-shift:baseline;text-anchor:start;white-space:normal;clip-rule:nonzero;display:inline;overflow:visible;visibility:visible;opacity:0.52899996;isolation:auto;mix-blend-mode:normal;color-interpolation:sRGB;color-interpolation-filters:linearRGB;solid-color:#000000;solid-opacity:1;fill:#800080;fill-opacity:1;fill-rule:nonzero;stroke:none;stroke-width:15;stroke-linecap:butt;stroke-linejoin:miter;stroke-miterlimit:4;stroke-dasharray:none;stroke-dashoffset:0;stroke-opacity:1;color-rendering:auto;image-rendering:auto;shape-rendering:auto;text-rendering:auto;enable-background:accumulate"
       d="m 1664.2358,309.55879 c -14.9497,0.0529 -29.7814,2.63592 -43.8692,7.63867 l -6.0273,2.14063 1.1602,6.28906 c 2.9047,15.73472 8.6368,30.81374 16.9159,44.50586 l 0.01,0.01 0.01,0.0117 c 4.553,7.47266 9.8276,14.43838 15.7129,20.82618 3.5743,-3.49845 7.3324,-6.81236 11.2558,-9.91993 -5.3035,-5.72437 -10.0521,-11.97609 -14.1445,-18.68945 0,-0.003 0,-0.005 0,-0.008 -6.1924,-10.24267 -10.6696,-21.3888 -13.4981,-32.99219 10.564,-3.08932 21.4952,-4.77199 32.5235,-4.8125 54.3052,0.0412 101.0049,37.16418 113.873,89.32227 -30.5968,8.85431 -63.5538,5.09685 -91.3144,-10.91016 l 0,-0.002 c -2.1882,-1.26342 -4.329,-2.59752 -6.4239,-3.99414 -4.2189,3.03863 -8.2313,6.35877 -12,9.93164 3.518,2.52103 7.1609,4.87998 10.9278,7.05468 l 0,0.002 c 33.4872,19.31066 73.7526,23.03428 110.2129,10.1914 l 6.0605,-2.13671 -1.1816,-6.31641 c -11.7256,-62.61938 -66.4675,-108.10267 -130.1723,-108.1426 l -0.016,0 -0.016,0 z"
       id="path4166"
       inkscape:connector-curvature="0" />
    <path
       style="color:#000000;font-style:normal;font-variant:normal;font-weight:normal;font-stretch:normal;font-size:medium;line-height:normal;font-family:sans-serif;text-indent:0;text-align:start;text-decoration:none;text-decoration-line:none;text-decoration-style:solid;text-decoration-color:#000000;letter-spacing:normal;word-spacing:normal;text-transform:none;direction:ltr;block-progression:tb;writing-mode:lr-tb;baseline-shift:baseline;text-anchor:start;white-space:normal;clip-rule:nonzero;display:inline;overflow:visible;visibility:visible;opacity:0.52899996;isolation:auto;mix-blend-mode:normal;color-interpolation:sRGB;color-interpolation-filters:linearRGB;solid-color:#000000;solid-opacity:1;fill:#00ffff;fill-opacity:1;fill-rule:nonzero;stroke:none;stroke-width:15;stroke-linecap:butt;stroke-linejoin:miter;stroke-miterlimit:4;stroke-dasharray:none;stroke-dashoffset:0;stroke-opacity:1;color-rendering:auto;image-rendering:auto;shape-rendering:auto;text-rendering:auto;enable-background:accumulate"
       d="m 1828.7123,309.51582 c -10.3388,-0.1486 -20.6644,0.91258 -30.7617,3.16406 1.2654,4.84057 2.2736,9.74741 3.0059,14.70118 9.0366,-2.03737 18.2803,-3.00253 27.5371,-2.86914 10.3552,0.14922 20.6944,1.83808 30.8047,4.75195 -7.6104,30.90727 -27.3082,57.56578 -55.0176,73.62109 -27.7421,15.99165 -60.6731,19.75236 -91.252,10.91797 2.8287,-11.60042 7.3029,-22.74389 13.4942,-32.98437 0,-0.002 0,-0.005 0,-0.008 10.2413,-16.8009 24.538,-30.761 41.5781,-40.59961 l 0,-0.002 c 2.1921,-1.2639 4.4203,-2.44565 6.6738,-3.55859 -0.5641,-5.15524 -1.4792,-10.27034 -2.7304,-15.30078 -3.8863,1.76355 -7.7069,3.71295 -11.4395,5.86523 l 0,0.002 0,0 c -19.225,11.09921 -35.3541,26.85304 -46.9043,45.81055 l -0.01,0.01 -0.01,0.0117 c -8.2969,13.72105 -14.0345,28.83325 -16.9336,44.60352 l -1.1582,6.30469 6.0469,2.12695 c 36.4424,12.81437 76.6758,9.0836 110.1406,-10.21289 l 0.01,-0.004 0.01,-0.004 c 33.4464,-19.37938 56.7685,-52.41087 63.8379,-90.41406 l 1.1738,-6.31446 -6.0586,-2.13281 c -13.6658,-4.8054 -27.8658,-7.28259 -42.041,-7.48633 z"
       id="path4168"
       inkscape:connector-curvature="0" />
    <path
       style="color:#000000;font-style:normal;font-variant:normal;font-weight:normal;font-stretch:normal;font-size:medium;line-height:normal;font-family:sans-serif;text-indent:0;text-align:start;text-decoration:none;text-decoration-line:none;text-decoration-style:solid;text-decoration-color:#000000;letter-spacing:normal;word-spacing:normal;text-transform:none;direction:ltr;block-progression:tb;writing-mode:lr-tb;baseline-shift:baseline;text-anchor:start;white-space:normal;clip-rule:nonzero;display:inline;overflow:visible;visibility:visible;opacity:0.52899996;isolation:auto;mix-blend-mode:normal;color-interpolation:sRGB;color-interpolation-filters:linearRGB;solid-color:#000000;solid-opacity:1;fill:#0000ff;fill-opacity:1;fill-rule:nonzero;stroke:none;stroke-width:15;stroke-linecap:round;stroke-linejoin:round;stroke-miterlimit:4;stroke-dasharray:none;stroke-dashoffset:0;stroke-opacity:1;color-rendering:auto;image-rendering:auto;shape-rendering:auto;text-rendering:auto;enable-background:accumulate"
       d="m 1744.5363,590.69807 a 7.50075,7.50075 0 0 0 -4.9375,1.80664 c -29.3188,25.15281 -46.2054,61.86055 -46.2266,100.49023 a 7.50075,7.50075 0 0 0 0,0.004 c -10e-5,4.03571 0.1892,8.05836 0.5547,12.05859 4.7932,-1.9244 9.687,-3.58617 14.6641,-4.95508 -0.1429,-2.35973 -0.2188,-4.72759 -0.2188,-7.09961 l 0,-0.002 0,-0.002 c 0.019,-32.00026 13.2077,-62.37983 36.1172,-84.44336 22.9569,22.04072 36.1942,52.42296 36.248,84.4414 l 0,0.008 0,0.008 c -0.01,12.9657 -2.1837,25.66413 -6.2871,37.65234 l -0.035,-0.0137 c -0.9632,2.85653 -2.0372,5.66617 -3.209,8.42774 -5.408,12.55315 -13.0046,24.1542 -22.5039,34.24023 0.054,0.0524 0.1115,0.10203 0.1661,0.1543 -4e-4,3.5e-4 3e-4,0.002 0,0.002 0.1897,0.1816 0.3872,0.35485 0.5781,0.53516 0.7113,0.6717 1.4239,1.34098 2.1523,1.99414 0.3878,0.34787 0.7872,0.68288 1.1797,1.02539 0.539,0.46999 1.0732,0.94665 1.6211,1.40625 0.9541,0.80102 1.9216,1.58515 2.9024,2.35351 0.9974,0.78148 2.0086,1.54494 3.0332,2.29102 0.028,0.0202 0.054,0.0423 0.082,0.0625 12.46,-13.43958 22.0563,-29.37506 28.0878,-46.82813 l -0.072,-0.0293 c 4.7719,-13.77317 7.2966,-28.38292 7.3047,-43.28125 a 7.50075,7.50075 0 0 0 0,-0.0156 c -0.06,-38.65507 -17.0038,-75.36832 -46.3808,-100.49219 a 7.50075,7.50075 0 0 0 -4.8203,-1.79882 z m 1.2929,110.72851 c -0.952,-0.008 -1.9031,-0.006 -2.8535,0.006 -45.6196,0.59284 -89.1511,24.80936 -113.0664,66.17188 a 7.50075,7.50075 0 0 0 -0.016,0.0273 c -7.429,12.97322 -12.6089,27.10877 -15.3203,41.81057 a 7.50075,7.50075 0 0 0 4.8672,8.4297 c 15.079,5.3518 31.0027,7.9274 47,7.6035 a 7.50075,7.50075 0 0 0 0.025,0 c 22.1921,-0.5244 43.897,-6.6174 63.1211,-17.71682 a 7.50075,7.50075 0 0 0 0,-0.002 c 3.4983,-2.0222 6.8861,-4.19486 10.1562,-6.50586 -4.0542,-3.19977 -7.932,-6.61979 -11.6074,-10.24219 -1.9751,1.30924 -3.991,2.56769 -6.0566,3.76172 -17.0457,9.84082 -36.29,15.24305 -55.9668,15.70895 -11.9629,0.2403 -23.8491,-1.4574 -35.3086,-4.80856 2.6053,-10.68802 6.6128,-20.99156 12.0879,-30.55859 l 0.01,-0.0117 c 17.1584,-29.66812 45.5984,-49.36372 77.2168,-56.10937 l 0.045,0.23046 c 7.5349,-1.67047 15.1641,-2.63354 22.8047,-2.7539 3.9805,-0.0627 7.9574,0.092 11.9179,0.43555 5.5616,0.52059 11.1303,1.43982 16.67,2.76562 0.5991,-2.47472 1.1078,-4.97025 1.5292,-7.48047 0.065,-0.38824 0.1148,-0.77904 0.1758,-1.16797 0.1333,-0.84963 0.2694,-1.69817 0.3828,-2.55078 0.1654,-1.24263 0.31,-2.48849 0.4336,-3.73633 -0.663,-0.15004 -1.3292,-0.28009 -1.9941,-0.41992 -0.5905,-0.12542 -1.1805,-0.25593 -1.7715,-0.37305 -0.1807,-0.0354 -0.3621,-0.0669 -0.543,-0.10156 -1.1483,-0.22256 -2.2975,-0.42972 -3.4472,-0.62109 -0.01,-0.002 -0.018,-0.002 -0.027,-0.004 -6.8218,-1.13401 -13.6633,-1.72841 -20.4668,-1.78711 z m 54.209,12.09571 c -0.7594,5.09656 -1.7867,10.15201 -3.0898,15.13476 2.1829,1.08081 4.3415,2.22464 6.4668,3.44727 27.721,16.02995 47.4438,42.66995 55.082,73.57031 -11.4552,3.34889 -23.3384,5.0444 -35.2969,4.8047 0,-10e-5 0,0 -0.01,0 -19.6789,-0.4657 -38.9255,-5.86845 -55.9726,-15.71095 -11.1881,-6.46815 -21.0691,-14.6686 -29.3828,-24.17578 l 0.029,-0.0274 c -0.9293,-1.03908 -1.8342,-2.09979 -2.7266,-3.16992 -9.713,-11.94306 -17.0484,-25.76439 -21.5117,-40.71289 -0.096,0.0285 -0.1911,0.0611 -0.2871,0.0898 -6e-4,-0.002 -10e-4,-0.004 0,-0.006 -0.8507,0.25447 -1.6932,0.53267 -2.5371,0.80859 -0.2863,0.0936 -0.5758,0.17742 -0.8614,0.27344 -0.9747,0.32785 -1.9429,0.67965 -2.9082,1.03515 -0.2166,0.0798 -0.4362,0.15129 -0.6523,0.23243 -1.0127,0.38022 -2.0161,0.78185 -3.0176,1.1914 -0.1672,0.0684 -0.337,0.13005 -0.5039,0.19922 -0.9994,0.41425 -1.9908,0.8487 -2.9785,1.29102 -0.1613,0.0722 -0.3254,0.13798 -0.4863,0.21093 -0.04,0.0179 -0.08,0.0348 -0.1192,0.0527 2.6059,8.44665 6.0449,16.64725 10.3145,24.46289 a 7.50075,7.50075 0 0 0 0.014,0.0215 c 4.4899,8.15399 9.8302,15.78516 15.8984,22.79493 0.3416,0.39807 0.681,0.79731 1.0274,1.1914 0.035,0.0394 0.069,0.0798 0.1035,0.11914 l 0,-0.002 c 9.3872,10.65408 20.5197,19.8454 33.082,27.10742 a 7.50075,7.50075 0 0 0 0,0.002 c 19.2247,11.09978 40.9322,17.19278 63.125,17.71678 a 7.50075,7.50075 0 0 0 0.023,0 c 16.0312,0.3249 31.9887,-2.2622 47.0957,-7.6367 a 7.50075,7.50075 0 0 0 4.8574,-8.4492 c -7.1236,-37.9672 -30.4703,-70.94613 -63.914,-90.27931 a 7.50075,7.50075 0 0 0 -0.014,-0.008 c -3.5458,-2.03982 -7.1728,-3.8907 -10.8575,-5.58007 z"
       id="path4251"
       inkscape:connector-curvature="0" />
    <circle
       style="opacity:0.52899996;fill:none;fill-opacity:1;stroke:#000000;stroke-width:1;stroke-linecap:round;stroke-linejoin:round;stroke-miterlimit:4;stroke-dasharray:none;stroke-opacity:1"
       id="path4344"
       cx="-267.00034"
       cy="596.82355"
       r="149.26761"
       inkscape:transform-center-x="-149.28572"
       inkscape:transform-center-y="2.2107222e-05" />
    <circle
       r="149.26761"
       cy="596.82355"
       cx="-417.0007"
       id="circle4346"
       style="opacity:0.52899996;fill:none;fill-opacity:1;stroke:#000000;stroke-width:1;stroke-linecap:round;stroke-linejoin:round;stroke-miterlimit:4;stroke-dasharray:none;stroke-opacity:1" />
    <circle
       inkscape:transform-center-y="-129.28522"
       inkscape:transform-center-x="-74.642867"
       r="149.26761"
       cy="-62.102535"
       cx="-575.72168"
       id="circle4350"
       style="opacity:0.52899996;fill:none;fill-opacity:1;stroke:#000000;stroke-width:1;stroke-linecap:round;stroke-linejoin:round;stroke-miterlimit:4;stroke-dasharray:none;stroke-opacity:1"
       transform="matrix(0.5,-0.8660254,0.8660254,0.5,0,0)" />
    <circle
       inkscape:transform-center-y="129.28526"
       inkscape:transform-center-x="-74.64285"
       r="149.26761"
       cy="658.92609"
       cx="458.00705"
       id="circle4352"
       style="opacity:0.52899996;fill:none;fill-opacity:1;stroke:#000000;stroke-width:1;stroke-linecap:round;stroke-linejoin:round;stroke-miterlimit:4;stroke-dasharray:none;stroke-opacity:1"
       transform="matrix(0.5,0.8660254,-0.8660254,0.5,0,0)" />
    <circle
       transform="matrix(-0.5,-0.8660254,0.8660254,-0.5,0,0)"
       style="opacity:0.52899996;fill:none;fill-opacity:1;stroke:#000000;stroke-width:1;stroke-linecap:round;stroke-linejoin:round;stroke-miterlimit:4;stroke-dasharray:none;stroke-opacity:1"
       id="circle4358"
       cx="-159.43558"
       cy="-658.92609"
       r="149.26761"
       inkscape:transform-center-x="74.642862"
       inkscape:transform-center-y="-129.28524" />
    <circle
       transform="matrix(-0.5,0.8660254,-0.8660254,-0.5,0,0)"
       style="opacity:0.52899996;fill:none;fill-opacity:1;stroke:#000000;stroke-width:1;stroke-linecap:round;stroke-linejoin:round;stroke-miterlimit:4;stroke-dasharray:none;stroke-opacity:1"
       id="circle4360"
       cx="874.29309"
       cy="62.102596"
       r="149.26761"
       inkscape:transform-center-x="74.642914"
       inkscape:transform-center-y="129.28521" />
    <circle
       inkscape:transform-center-y="2.0925987e-05"
       inkscape:transform-center-x="149.28573"
       r="149.26761"
       cy="-596.82355"
       cx="565.57178"
       id="circle4362"
       style="opacity:0.52899996;fill:none;fill-opacity:1;stroke:#000000;stroke-width:1;stroke-linecap:round;stroke-linejoin:round;stroke-miterlimit:4;stroke-dasharray:none;stroke-opacity:1"
       transform="scale(-1,-1)" />
    <path
       style="opacity:1;fill:none;fill-opacity:1;stroke:#000000;stroke-width:5;stroke-linecap:round;stroke-linejoin:round;stroke-miterlimit:4;stroke-dasharray:none;stroke-opacity:1"
       d="M 693.21484 257.36133 A 197.5 197.5 0 0 0 495.71484 454.86133 A 197.5 197.5 0 0 0 693.21484 652.36133 A 197.5 197.5 0 0 0 862.62891 555.92383 A 105 105 0 0 1 785.71484 454.86133 A 105 105 0 0 1 862.58789 353.70312 A 197.5 197.5 0 0 0 693.21484 257.36133 z "
       transform="translate(0,3.464567e-6)"
       id="path4551" />
    <circle
       r="97.5"
       cy="454.86218"
       cx="890.71429"
       id="circle4553"
       style="opacity:1;fill:none;fill-opacity:1;stroke:#000000;stroke-width:5;stroke-linecap:round;stroke-linejoin:round;stroke-miterlimit:4;stroke-dasharray:none;stroke-opacity:1" />
    <circle
       style="opacity:1;fill:none;fill-opacity:1;stroke:#000000;stroke-width:5;stroke-linecap:round;stroke-linejoin:round;stroke-miterlimit:4;stroke-dasharray:none;stroke-opacity:1"
       id="circle4555"
       cx="495.71429"
       cy="454.86218"
       r="97.5" />
    <circle
       r="97.5"
       cy="257.36218"
       cx="693.21429"
       id="circle4559"
       style="opacity:1;fill:none;fill-opacity:1;stroke:#000000;stroke-width:5;stroke-linecap:round;stroke-linejoin:round;stroke-miterlimit:4;stroke-dasharray:none;stroke-opacity:1" />
    <circle
       style="opacity:1;fill:none;fill-opacity:1;stroke:#000000;stroke-width:5;stroke-linecap:round;stroke-linejoin:round;stroke-miterlimit:4;stroke-dasharray:none;stroke-opacity:1"
       id="circle4561"
       cx="693.21429"
       cy="652.36218"
       r="97.5" />
    <path
       style="opacity:1;fill:none;fill-opacity:1;stroke:#000000;stroke-width:5.00000048;stroke-linecap:round;stroke-linejoin:round;stroke-miterlimit:4;stroke-dasharray:none;stroke-opacity:1"
       d="M 693.21484 249.86133 A 205 205 0 0 0 488.21484 454.86133 A 205 205 0 0 0 693.21484 659.86133 A 205 205 0 0 0 870.24609 557.82812 A 105 105 0 0 1 785.71484 454.86133 A 105 105 0 0 1 870.23633 351.98047 A 205 205 0 0 0 693.21484 249.86133 z "
       id="circle4563"
       transform="translate(0,3.464567e-6)" />
    <path
       style="opacity:1;fill:none;fill-opacity:1;stroke:#ff0000;stroke-width:5;stroke-linecap:round;stroke-linejoin:round;stroke-miterlimit:4;stroke-dasharray:none;stroke-opacity:1"
       d="M 890.71484 349.86133 A 105 105 0 0 0 870.23633 351.98047 A 105 105 0 0 0 870.17773 351.99414 A 105 105 0 0 0 785.71484 454.86133 A 105 105 0 0 0 786.00195 462.49219 A 105 105 0 0 0 786.51758 466.73633 A 105 105 0 0 0 787.29102 472.92773 A 105 105 0 0 0 788.19141 476.93945 A 105 105 0 0 0 789.61719 483.17969 A 105 105 0 0 0 790.71484 486.48438 A 105 105 0 0 0 792.96289 493.16406 A 105 105 0 0 0 794.05859 495.61328 A 105 105 0 0 0 797.28711 502.75195 A 105 105 0 0 0 798.40039 504.69336 A 105 105 0 0 0 802.53516 511.83984 A 105 105 0 0 0 803.74219 513.52734 A 105 105 0 0 0 808.68164 520.37695 A 105 105 0 0 0 809.71289 521.55273 A 105 105 0 0 0 815.63477 528.24023 A 105 105 0 0 0 816.74609 529.27734 A 105 105 0 0 0 823.33594 535.37109 A 105 105 0 0 0 824.48242 536.24219 A 105 105 0 0 0 831.72461 541.70312 A 105 105 0 0 0 832.61719 542.25195 A 105 105 0 0 0 840.71094 547.16992 A 105 105 0 0 0 841.1543 547.38477 A 105 105 0 0 0 850.18555 551.70508 A 105 105 0 0 0 850.37695 551.77539 A 105 105 0 0 0 860.0625 555.26758 A 105 105 0 0 0 860.15234 555.29102 A 105 105 0 0 0 870.24609 557.82812 A 105 105 0 0 0 890.71484 559.86133 A 105 105 0 0 0 995.71484 454.86133 A 105 105 0 0 0 890.71484 349.86133 z "
       id="circle4565"
       transform="translate(0,3.464567e-6)" />
    <circle
       style="opacity:1;fill:none;fill-opacity:1;stroke:#000000;stroke-width:5;stroke-linecap:round;stroke-linejoin:round;stroke-miterlimit:4;stroke-dasharray:none;stroke-opacity:1"
       id="circle4567"
       cx="693.21429"
       cy="257.36218"
       r="105" />
    <circle
       r="105"
       cy="454.86218"
       cx="495.71429"
       id="circle4569"
       style="opacity:1;fill:none;fill-opacity:1;stroke:#000000;stroke-width:5;stroke-linecap:round;stroke-linejoin:round;stroke-miterlimit:4;stroke-dasharray:none;stroke-opacity:1" />
    <circle
       r="105"
       cy="652.36218"
       cx="693.21429"
       id="circle4571"
       style="opacity:1;fill:none;fill-opacity:1;stroke:#000000;stroke-width:5;stroke-linecap:round;stroke-linejoin:round;stroke-miterlimit:4;stroke-dasharray:none;stroke-opacity:1" />
    <path
       id="path4593"
       transform="translate(0,3.464567e-6)"
       d="M 693.21484 257.36133 A 197.5 197.5 0 0 0 495.71484 454.86133 A 197.5 197.5 0 0 0 693.21484 652.36133 A 197.5 197.5 0 0 0 862.62891 555.92383 A 105 105 0 0 1 785.71484 454.86133 A 105 105 0 0 1 862.58789 353.70312 A 197.5 197.5 0 0 0 693.21484 257.36133 z "
       style="opacity:1;fill:none;fill-opacity:1;stroke:#000000;stroke-width:5;stroke-linecap:round;stroke-linejoin:round;stroke-miterlimit:4;stroke-dasharray:none;stroke-opacity:1" />
  </g>
</svg>
