<?xml version="1.0" encoding="UTF-8" standalone="no"?>
<!-- Created with Inkscape (http://www.inkscape.org/) -->

<svg
   xmlns:dc="http://purl.org/dc/elements/1.1/"
   xmlns:cc="http://creativecommons.org/ns#"
   xmlns:rdf="http://www.w3.org/1999/02/22-rdf-syntax-ns#"
   xmlns:svg="http://www.w3.org/2000/svg"
   xmlns="http://www.w3.org/2000/svg"
   xmlns:sodipodi="http://sodipodi.sourceforge.net/DTD/sodipodi-0.dtd"
   xmlns:inkscape="http://www.inkscape.org/namespaces/inkscape"
   width="744.09448819"
   height="1052.3622047"
   id="svg2"
   version="1.1"
   inkscape:version="0.48.4 r9939"
   sodipodi:docname="New document 1">
  <defs
     id="defs4">
    <inkscape:path-effect
       effect="spiro"
       id="path-effect4194"
       is_visible="true" />
    <inkscape:path-effect
       is_visible="true"
       id="path-effect4192"
       effect="spiro" />
    <inkscape:path-effect
       is_visible="true"
       id="path-effect4190"
       effect="spiro" />
    <inkscape:path-effect
       effect="spiro"
       id="path-effect4188"
       is_visible="true" />
    <inkscape:path-effect
       is_visible="true"
       id="path-effect4186"
       effect="spiro" />
    <inkscape:path-effect
       effect="spiro"
       id="path-effect4184"
       is_visible="true" />
    <inkscape:path-effect
       effect="spiro"
       id="path-effect4182"
       is_visible="true" />
    <inkscape:path-effect
       is_visible="true"
       id="path-effect4180"
       effect="spiro" />
    <inkscape:path-effect
       is_visible="true"
       id="path-effect4178"
       effect="spiro" />
    <inkscape:path-effect
       effect="spiro"
       id="path-effect4176"
       is_visible="true" />
    <inkscape:path-effect
       effect="spiro"
       id="path-effect4174"
       is_visible="true" />
    <inkscape:path-effect
       is_visible="true"
       id="path-effect4172"
       effect="spiro" />
    <inkscape:path-effect
       effect="spiro"
       id="path-effect4170"
       is_visible="true" />
    <inkscape:path-effect
       is_visible="true"
       id="path-effect4168"
       effect="spiro" />
    <inkscape:path-effect
       is_visible="true"
       id="path-effect4166"
       effect="spiro" />
    <inkscape:path-effect
       effect="spiro"
       id="path-effect4164"
       is_visible="true" />
    <inkscape:path-effect
       is_visible="true"
       id="path-effect4162"
       effect="spiro" />
    <inkscape:path-effect
       effect="spiro"
       id="path-effect4160"
       is_visible="true" />
    <inkscape:path-effect
       effect="spiro"
       id="path-effect4158"
       is_visible="true" />
    <inkscape:path-effect
       is_visible="true"
       id="path-effect4156"
       effect="spiro" />
    <inkscape:path-effect
       effect="spiro"
       id="path-effect4154"
       is_visible="true" />
    <inkscape:path-effect
       is_visible="true"
       id="path-effect4152"
       effect="spiro" />
    <inkscape:path-effect
       is_visible="true"
       id="path-effect4150"
       effect="spiro" />
    <inkscape:path-effect
       effect="spiro"
       id="path-effect4148"
       is_visible="true" />
    <inkscape:path-effect
       effect="spiro"
       id="path-effect4146"
       is_visible="true" />
    <inkscape:path-effect
       is_visible="true"
       id="path-effect4144"
       effect="spiro" />
    <inkscape:path-effect
       is_visible="true"
       id="path-effect4142"
       effect="spiro" />
    <inkscape:path-effect
       effect="spiro"
       id="path-effect4140"
       is_visible="true" />
    <inkscape:path-effect
       is_visible="true"
       id="path-effect4138"
       effect="spiro" />
    <inkscape:path-effect
       effect="spiro"
       id="path-effect4136"
       is_visible="true" />
    <inkscape:path-effect
       effect="spiro"
       id="path-effect4134"
       is_visible="true" />
    <inkscape:path-effect
       is_visible="true"
       id="path-effect4132"
       effect="spiro" />
    <inkscape:path-effect
       is_visible="true"
       id="path-effect4066"
       effect="spiro" />
    <inkscape:path-effect
       effect="spiro"
       id="path-effect4064"
       is_visible="true" />
    <inkscape:path-effect
       effect="spiro"
       id="path-effect4062"
       is_visible="true" />
    <inkscape:path-effect
       is_visible="true"
       id="path-effect4060"
       effect="spiro" />
    <inkscape:path-effect
       effect="spiro"
       id="path-effect4058"
       is_visible="true" />
    <inkscape:path-effect
       is_visible="true"
       id="path-effect4056"
       effect="spiro" />
    <inkscape:path-effect
       is_visible="true"
       id="path-effect4054"
       effect="spiro" />
    <inkscape:path-effect
       effect="spiro"
       id="path-effect4052"
       is_visible="true" />
    <inkscape:path-effect
       effect="spiro"
       id="path-effect4050"
       is_visible="true" />
    <inkscape:path-effect
       is_visible="true"
       id="path-effect4048"
       effect="spiro" />
    <inkscape:path-effect
       is_visible="true"
       id="path-effect4046"
       effect="spiro" />
    <inkscape:path-effect
       effect="spiro"
       id="path-effect4044"
       is_visible="true" />
    <inkscape:path-effect
       is_visible="true"
       id="path-effect4042"
       effect="spiro" />
    <inkscape:path-effect
       effect="spiro"
       id="path-effect4040"
       is_visible="true" />
    <inkscape:path-effect
       effect="spiro"
       id="path-effect4038"
       is_visible="true" />
    <inkscape:path-effect
       is_visible="true"
       id="path-effect4036"
       effect="spiro" />
    <inkscape:path-effect
       effect="spiro"
       id="path-effect4002"
       is_visible="true" />
    <inkscape:path-effect
       is_visible="true"
       id="path-effect4000"
       effect="spiro" />
    <inkscape:path-effect
       is_visible="true"
       id="path-effect3998"
       effect="spiro" />
    <inkscape:path-effect
       effect="spiro"
       id="path-effect3996"
       is_visible="true" />
    <inkscape:path-effect
       is_visible="true"
       id="path-effect3994"
       effect="spiro" />
    <inkscape:path-effect
       effect="spiro"
       id="path-effect3992"
       is_visible="true" />
    <inkscape:path-effect
       effect="spiro"
       id="path-effect3990"
       is_visible="true" />
    <inkscape:path-effect
       is_visible="true"
       id="path-effect3988"
       effect="spiro" />
    <inkscape:path-effect
       is_visible="true"
       id="path-effect3970"
       effect="spiro" />
    <inkscape:path-effect
       effect="spiro"
       id="path-effect3968"
       is_visible="true" />
    <inkscape:path-effect
       effect="spiro"
       id="path-effect3966"
       is_visible="true" />
    <inkscape:path-effect
       is_visible="true"
       id="path-effect3964"
       effect="spiro" />
    <inkscape:path-effect
       effect="spiro"
       id="path-effect3954"
       is_visible="true" />
    <inkscape:path-effect
       is_visible="true"
       id="path-effect3952"
       effect="spiro" />
    <inkscape:path-effect
       is_visible="true"
       id="path-effect3942"
       effect="spiro" />
    <inkscape:path-effect
       effect="spiro"
       id="path-effect3938"
       is_visible="true" />
    <inkscape:path-effect
       effect="spiro"
       id="path-effect3769"
       is_visible="true" />
  </defs>
  <sodipodi:namedview
     id="base"
     pagecolor="#ffffff"
     bordercolor="#666666"
     borderopacity="1.0"
     inkscape:pageopacity="0.0"
     inkscape:pageshadow="2"
     inkscape:zoom="0.70710678"
     inkscape:cx="44.842968"
     inkscape:cy="529.66409"
     inkscape:document-units="px"
     inkscape:current-layer="layer1"
     showgrid="false"
     showborder="true"
     inkscape:showpageshadow="false"
     inkscape:window-width="1879"
     inkscape:window-height="1056"
     inkscape:window-x="41"
     inkscape:window-y="24"
     inkscape:window-maximized="1" />
  <metadata
     id="metadata7">
    <rdf:RDF>
      <cc:Work
         rdf:about="">
        <dc:format>image/svg+xml</dc:format>
        <dc:type
           rdf:resource="http://purl.org/dc/dcmitype/StillImage" />
        <dc:title></dc:title>
      </cc:Work>
    </rdf:RDF>
  </metadata>
  <g
     inkscape:label="Layer 1"
     inkscape:groupmode="layer"
     id="layer1">
    <path
       sodipodi:type="arc"
       style="fill:#000000;fill-opacity:1;stroke:none"
       id="path3903"
       sodipodi:cx="120.91526"
       sodipodi:cy="484.55545"
       sodipodi:rx="198.69701"
       sodipodi:ry="198.69701"
       d="m 319.61227,484.55545 a 198.69701,198.69701 0 1 1 -397.394016,0 198.69701,198.69701 0 1 1 397.394016,0 z"
       transform="matrix(0.97951118,0,0,0.97951118,252.0861,31.141171)" />
    <path
       style="fill:#ffffff;fill-opacity:1;stroke:none"
       d="m 367.33645,319.7999 c -1.40221,0.0235 -2.79301,0.0706 -4.1875,0.125 L 213.2427,406.4874 c -0.7444,1.17682 -1.46898,2.36801 -2.1875,3.5625 l 156.28125,-90.25 z m 19.15625,0.65625 -184.46875,106.5 c -0.48693,1.03909 -0.96933,2.07553 -1.4375,3.125 l 189.3125,-109.3125 c -1.12893,-0.11677 -2.27141,-0.21602 -3.40625,-0.3125 z m -48.15625,2.09375 c -1.9885,0.34684 -3.97124,0.71553 -5.9375,1.125 L 231.9927,381.64365 c -1.35073,1.50637 -2.66706,3.04367 -3.96875,4.59375 l 110.3125,-63.6875 z m 67.6875,0.625 -211.40625,122.0625 c -0.32498,0.94456 -0.62738,1.89238 -0.9375,2.84375 l 215.3125,-124.3125 c -0.98757,-0.20765 -1.97548,-0.40183 -2.96875,-0.59375 z m 17,4.125 -233.3125,134.71875 c -0.21377,0.88637 -0.42397,1.76498 -0.625,2.65625 l 236.5625,-136.59375 c -0.86777,-0.26889 -1.75185,-0.52477 -2.625,-0.78125 z m 15.25,5.21875 L 186.6177,477.7999 c -0.12553,0.83206 -0.22928,1.66436 -0.34375,2.5 L 440.6177,333.45615 c -0.77614,-0.31606 -1.56242,-0.63167 -2.34375,-0.9375 z m 13.78125,6.03125 -267.0625,154.1875 c -0.0546,0.78897 -0.11149,1.58335 -0.15625,2.375 l 269.34375,-155.5 c -0.70383,-0.35505 -1.41608,-0.71616 -2.125,-1.0625 z m 12.53125,6.75 -280.03125,161.6875 c 0.005,0.76998 -0.0143,1.54477 0,2.3125 L 466.58645,346.4874 c -0.66623,-0.40267 -1.32835,-0.79298 -2,-1.1875 z m 11.53125,7.34375 -291,168.03125 c 0.0578,0.72874 0.12134,1.46115 0.1875,2.1875 L 477.96145,353.9249 c -0.61086,-0.43295 -1.22747,-0.85552 -1.84375,-1.28125 z m 10.625,7.875 -300.09375,173.28125 c 0.10707,0.70791 0.22873,1.41973 0.34375,2.125 L 488.39895,361.89365 c -0.55486,-0.45514 -1.09606,-0.92618 -1.65625,-1.375 z m 9.71875,8.375 L 188.9927,546.4249 c 0.15417,0.69136 0.30691,1.37406 0.46875,2.0625 l 308.5625,-178.15625 c -0.51233,-0.48241 -1.04472,-0.96086 -1.5625,-1.4375 z m 8.96875,8.84375 -313.28125,180.875 c 0.19378,0.65505 0.39297,1.31673 0.59375,1.96875 L 506.83645,379.2374 c -0.46375,-0.49941 -0.9371,-1.00572 -1.40625,-1.5 z m 8.21875,9.25 -317.59375,183.375 c 0.23585,0.63662 0.47615,1.27293 0.71875,1.90625 L 514.96145,388.5499 c -0.42933,-0.52835 -0.87752,-1.03898 -1.3125,-1.5625 z m 7.53125,9.65625 -320.5,185.03125 c 0.27678,0.61829 0.56044,1.22906 0.84375,1.84375 L 522.3677,398.2999 c -0.39476,-0.55681 -0.78679,-1.104 -1.1875,-1.65625 z m 6.78125,10.0625 -321.96875,185.875 c 0.31466,0.59511 0.6166,1.18999 0.9375,1.78125 L 529.02395,408.4249 c -0.3526,-0.57289 -0.70388,-1.15 -1.0625,-1.71875 z m 6.15625,10.4375 -322.09375,185.96875 c 0.34797,0.56536 0.70867,1.12616 1.0625,1.6875 L 535.0552,418.9249 c -0.31474,-0.59506 -0.61651,-1.19004 -0.9375,-1.78125 z m 5.40625,10.875 L 218.6802,613.2374 c 0.39476,0.55681 0.7868,1.104 1.1875,1.65625 l 320.5,-185.03125 c -0.27678,-0.61829 -0.56044,-1.22906 -0.84375,-1.84375 z m 4.75,11.25 -318.1875,183.71875 c 0.42933,0.52835 0.87752,1.03898 1.3125,1.5625 L 544.9927,441.1749 c -0.23585,-0.63662 -0.47615,-1.27293 -0.71875,-1.90625 z m 4.03125,11.6875 -314.09375,181.34375 c 0.46375,0.49941 0.9371,1.00572 1.40625,1.5 l 313.28125,-180.875 c -0.19378,-0.65505 -0.39297,-1.31673 -0.59375,-1.96875 z m 3.28125,12.09375 -308.5625,178.15625 c 0.51233,0.48241 1.04473,0.96086 1.5625,1.4375 L 552.0552,465.1124 c -0.15417,-0.69136 -0.3069,-1.37406 -0.46875,-2.0625 z m 2.46875,12.5625 -301.40625,174.03125 c 0.55486,0.45514 1.09606,0.92618 1.65625,1.375 L 554.39895,477.7374 c -0.10706,-0.70791 -0.22873,-1.41973 -0.34375,-2.125 z m 1.6875,13.0625 -292.65625,168.9375 c 0.61086,0.43295 1.22747,0.85552 1.84375,1.28125 l 291,-168.03125 c -0.0578,-0.72874 -0.12134,-1.46115 -0.1875,-2.1875 z m 0.75,13.5625 -282.03125,162.8125 c 0.66623,0.40267 1.32835,0.79298 2,1.1875 L 556.4927,504.5499 c -0.005,-0.76998 0.0143,-1.54477 0,-2.3125 z m -0.28125,14.1875 -269.34375,155.5 c 0.70383,0.35505 1.41608,0.71616 2.125,1.0625 L 556.0552,518.7999 c 0.0546,-0.78897 0.1115,-1.58335 0.15625,-2.375 z m -1.4375,14.78125 -254.375,146.875 c 0.76701,0.31248 1.54042,0.63501 2.3125,0.9375 L 554.4302,533.70615 c 0.1254,-0.83211 0.22941,-1.66432 0.34375,-2.5 z m -2.78125,15.59375 -236.65625,136.625 c 0.86763,0.2692 1.75198,0.52446 2.625,0.78125 l 233.40625,-134.75 c 0.21342,-0.88633 0.42433,-1.76503 0.625,-2.65625 z m -4.625,16.65625 -215.3125,124.3125 c 0.98757,0.20765 1.97548,0.40183 2.96875,0.59375 L 546.4302,566.2999 c 0.32498,-0.94456 0.62738,-1.89238 0.9375,-2.84375 z m -6.90625,18 -189.3125,109.3125 c 1.12893,0.11677 2.27141,0.21602 3.40625,0.3125 l 184.46875,-106.5 c 0.48694,-1.03909 0.96933,-2.07553 1.4375,-3.125 z m -10.46875,20.03125 -156.28125,90.25 c 1.40221,-0.0235 2.79301,-0.0706 4.1875,-0.125 L 527.8052,605.0499 c 0.7444,-1.17682 1.46898,-2.36801 2.1875,-3.5625 z m -16.96875,23.8125 -110.3125,63.6875 c 1.9885,-0.34684 3.97124,-0.71553 5.9375,-1.125 L 509.0552,629.89365 c 1.35073,-1.50637 2.66706,-3.04367 3.96875,-4.59375 z"
       id="path3765"
       inkscape:connector-curvature="0" />
    <path
       style="fill:#000000;fill-opacity:1;stroke:none"
       d="m 370.54619,272.18503 -7.40261,31.35604 c 1.594,-0.041 3.1871,-0.0654 4.78422,-0.0647 3.34261,-0.0645 6.68333,-0.053 10.021,0.0647 l -7.40261,-31.35604 z m -89.44554,17.7792 5.17213,31.87325 c 4.47766,-2.07455 9.05878,-3.97748 13.67382,-5.72167 l -18.84595,-26.15158 z m 178.89108,0 -18.7813,26.08693 c 4.60501,1.72273 9.14743,3.59534 13.60917,5.65702 l 5.17213,-31.74395 z m -254.72745,50.65456 16.97105,27.44462 c 3.38666,-3.60593 6.89842,-7.08781 10.53822,-10.44124 l -27.50927,-17.00338 z m 330.5315,0 -27.5416,17.0357 c 3.62437,3.37065 7.13303,6.8832 10.50589,10.50589 l 17.03571,-27.54159 z m -381.18606,75.83637 26.11926,18.81362 c 1.03353,-2.78374 2.13372,-5.54057 3.29723,-8.27541 0.73907,-1.79993 1.50073,-3.59322 2.29514,-5.36608 l -31.71163,-5.17213 z m 431.87294,0 -31.84093,5.17213 c 2.08935,4.46629 4.02789,8.99978 5.754,13.60917 l 26.08693,-18.7813 z m -418.03749,82.0106 -31.61465,7.43494 31.64697,7.46726 c -0.1872,-4.96605 -0.20035,-9.93574 -0.0323,-14.9022 z m 404.26669,0 c 0.16094,4.95885 0.13099,9.91025 -0.0646,14.86988 l 31.61465,-7.43494 -31.55,-7.43494 z m -12.54241,77.93755 c -1.7149,4.64563 -3.598,9.23575 -5.65702,13.73848 l 31.97023,5.20445 -26.31321,-18.94293 z m -379.37582,0.097 -26.18391,18.84595 31.8086,-5.17213 c -2.03871,-4.48408 -3.92771,-9.04857 -5.62469,-13.67382 z m 41.53868,67.04375 -17.06803,27.60625 27.60625,-17.06803 c -3.6524,-3.36756 -7.14554,-6.9074 -10.53822,-10.53822 z m 296.46009,0.097 c -3.39043,3.62281 -6.91889,7.11433 -10.57054,10.47356 l 27.57392,17.03571 -17.00338,-27.50927 z m -64.03745,45.99964 c -4.53538,2.08256 -9.12776,4.00467 -13.80313,5.75399 l 19.03991,26.44252 -5.23678,-32.19651 z m -168.41752,0.0323 -5.23678,32.16419 19.00758,-26.37786 c -4.66145,-1.75363 -9.24772,-3.69983 -13.7708,-5.78633 z m 91.35277,18.42572 c -4.8541,0.2138 -9.70756,0.22741 -14.54662,0.0647 l 7.40261,31.45302 7.43494,-31.51767 c -0.0968,0.004 -0.19411,-0.004 -0.29093,0 z"
       id="path3915"
       inkscape:connector-curvature="0" />
    <path
       inkscape:connector-curvature="0"
       id="path4210"
       d="m 370.54619,272.18503 -7.40261,31.35604 c 1.594,-0.041 3.1871,-0.0654 4.78422,-0.0647 3.34261,-0.0645 6.68333,-0.053 10.021,0.0647 l -7.40261,-31.35604 z m -89.44554,17.7792 5.17213,31.87325 c 4.47766,-2.07455 9.05878,-3.97748 13.67382,-5.72167 l -18.84595,-26.15158 z m 178.89108,0 -18.7813,26.08693 c 4.60501,1.72273 9.14743,3.59534 13.60917,5.65702 l 5.17213,-31.74395 z m -254.72745,50.65456 16.97105,27.44462 c 3.38666,-3.60593 6.89842,-7.08781 10.53822,-10.44124 l -27.50927,-17.00338 z m 330.5315,0 -27.5416,17.0357 c 3.62437,3.37065 7.13303,6.8832 10.50589,10.50589 l 17.03571,-27.54159 z m -381.18606,75.83637 26.11926,18.81362 c 1.03353,-2.78374 2.13372,-5.54057 3.29723,-8.27541 0.73907,-1.79993 1.50073,-3.59322 2.29514,-5.36608 l -31.71163,-5.17213 z m 431.87294,0 -31.84093,5.17213 c 2.08935,4.46629 4.02789,8.99978 5.754,13.60917 l 26.08693,-18.7813 z m -418.03749,82.0106 -31.61465,7.43494 31.64697,7.46726 c -0.1872,-4.96605 -0.20035,-9.93574 -0.0323,-14.9022 z m 404.26669,0 c 0.16094,4.95885 0.13099,9.91025 -0.0646,14.86988 l 31.61465,-7.43494 -31.55,-7.43494 z m -12.54241,77.93755 c -1.7149,4.64563 -3.598,9.23575 -5.65702,13.73848 l 31.97023,5.20445 -26.31321,-18.94293 z m -379.37582,0.097 -26.18391,18.84595 31.8086,-5.17213 c -2.03871,-4.48408 -3.92771,-9.04857 -5.62469,-13.67382 z m 41.53868,67.04375 -17.06803,27.60625 27.60625,-17.06803 c -3.6524,-3.36756 -7.14554,-6.9074 -10.53822,-10.53822 z m 296.46009,0.097 c -3.39043,3.62281 -6.91889,7.11433 -10.57054,10.47356 l 27.57392,17.03571 -17.00338,-27.50927 z m -64.03745,45.99964 c -4.53538,2.08256 -9.12776,4.00467 -13.80313,5.75399 l 19.03991,26.44252 -5.23678,-32.19651 z m -168.41752,0.0323 -5.23678,32.16419 19.00758,-26.37786 c -4.66145,-1.75363 -9.24772,-3.69983 -13.7708,-5.78633 z m 91.35277,18.42572 c -4.8541,0.2138 -9.70756,0.22741 -14.54662,0.0647 l 7.40261,31.45302 7.43494,-31.51767 c -0.0968,0.004 -0.19411,-0.004 -0.29093,0 z"
       style="fill:#000000;fill-opacity:1;stroke:none" />
    <path
       inkscape:connector-curvature="0"
       id="path4214"
       d="m 211.06404,601.51348 c 0.72145,1.2026 1.45764,2.38352 2.202,3.56398 l 149.91845,86.54137 c 1.39135,0.0563 2.78524,0.0882 4.17896,0.11318 L 211.06404,601.51348 z m -9.0098,-16.91792 184.46608,106.50462 c 1.14335,-0.0978 2.28213,-0.1983 3.42508,-0.31759 L 200.62175,581.48941 c 0.46334,1.03606 0.94863,2.0751 1.43249,3.10615 z m 25.89137,40.65766 c 1.29462,1.54867 2.60528,3.08143 3.94303,4.57952 l 100.40553,57.96999 c 1.97992,0.41658 3.96943,0.78791 5.96268,1.14016 L 227.94561,625.25322 z m -33.30249,-58.9316 211.41235,122.05193 c 0.9805,-0.19084 1.95254,-0.40286 2.93151,-0.60997 L 193.67295,563.45373 c 0.31395,0.95909 0.63975,1.91173 0.97017,2.86789 z m -4.92764,-16.78493 233.32611,134.69518 c 0.8745,-0.25805 1.7405,-0.51532 2.61288,-0.78686 L 189.07956,546.87275 c 0.20102,0.88595 0.42146,1.77953 0.63592,2.66394 z m -3.10543,-15.81626 251.64537,145.30008 c 0.78336,-0.30731 1.55602,-0.63362 2.33694,-0.95231 L 186.25007,531.22193 c 0.11436,0.83019 0.23417,1.66893 0.35998,2.4985 z m -1.66741,-14.95054 267.06154,154.18916 c 0.71058,-0.34718 1.42697,-0.69512 2.13493,-1.05218 L 184.80029,516.39834 c 0.0444,0.78706 0.0878,1.58444 0.14235,2.37155 z m -0.41996,-14.22738 280.04111,161.67043 c 0.66437,-0.38924 1.34495,-0.76003 2.00268,-1.15625 L 184.55109,502.21671 c -0.0156,0.77831 -0.0226,1.54687 -0.0284,2.3258 z m 0.59425,-13.65823 291.01933,167.99777 c 0.60222,-0.41441 1.20473,-0.83566 1.80068,-1.25613 l -292.63229,-168.979 c -0.0695,0.74549 -0.12716,1.49078 -0.18772,2.23736 z m 1.50745,-13.13902 300.11284,173.24818 c 0.55954,-0.44667 1.11516,-0.90795 1.66843,-1.36019 L 186.98704,475.6234 c -0.11673,0.7081 -0.25406,1.41231 -0.36266,2.12186 z m 2.39359,-12.60419 307.48095,177.51013 c 0.52165,-0.4792 1.03652,-0.95282 1.5518,-1.4372 L 189.48163,463.06916 c -0.16161,0.6849 -0.30977,1.38518 -0.46366,2.07191 z m 3.17454,-12.18904 313.28297,180.87202 c 0.4704,-0.49534 0.94383,-0.99868 1.40811,-1.49857 L 192.78842,450.98419 c -0.20063,0.65132 -0.40243,1.31441 -0.59591,1.96784 z m 3.90136,-11.74264 317.60428,183.35675 c 0.43341,-0.52256 0.86431,-1.04882 1.29149,-1.57558 L 196.79078,439.29148 c -0.2429,0.63598 -0.46102,1.27944 -0.69691,1.91791 z m 4.59693,-11.35038 320.49176,185.04552 c 0.39707,-0.54885 0.78418,-1.09989 1.17486,-1.65259 L 201.53141,428.00248 c -0.28484,0.62028 -0.5627,1.23338 -0.84061,1.85653 z m 5.32376,-10.90399 321.95684,185.89562 c 0.35805,-0.57006 0.72227,-1.12898 1.07386,-1.70252 L 206.97179,417.1755 c -0.31984,0.5918 -0.64399,1.18457 -0.95723,1.77952 z m 5.96101,-10.55022 322.10054,185.957 c 0.31563,-0.58403 0.62095,-1.1768 0.93017,-1.7639 L 213.04943,406.70228 c -0.35797,0.5701 -0.72235,1.12893 -1.07386,1.70252 z m 6.7149,-10.11944 320.82602,185.24946 c 0.28483,-0.62028 0.56269,-1.23339 0.8406,-1.85653 L 219.86533,396.63277 c -0.39706,0.54884 -0.78417,1.09989 -1.17486,1.65259 z m 7.36779,-9.73863 318.19885,183.69909 c 0.2429,-0.63598 0.46103,-1.27944 0.69692,-1.91791 L 227.34975,386.97115 c -0.43341,0.52257 -0.86432,1.04883 -1.29149,1.57558 z m 8.10605,-9.33491 314.09516,181.34129 c 0.20063,-0.65132 0.40243,-1.31441 0.59592,-1.96785 L 235.57242,377.71324 c -0.4704,0.49535 -0.94384,0.99869 -1.40811,1.49858 z m 8.83287,-8.88852 308.56908,178.14484 c 0.16162,-0.6849 0.30977,-1.38519 0.46366,-2.07192 L 244.54898,368.8861 c -0.52165,0.47919 -1.03652,0.95281 -1.5518,1.4372 z m 9.64506,-8.41925 301.41861,174.00984 c 0.11673,-0.70809 0.25407,-1.4123 0.36266,-2.12185 L 254.31067,360.54385 c -0.55953,0.44667 -1.11515,0.90795 -1.66843,1.3602 z m 10.46871,-7.99267 292.63229,168.979 c 0.0695,-0.7455 0.12717,-1.49078 0.18772,-2.23736 L 264.91163,352.65525 c -0.60221,0.41443 -1.20472,0.83566 -1.80068,1.25613 z m 11.37047,-7.43077 282.01539,162.83998 c 0.0156,-0.77831 0.0226,-1.54687 0.0284,-2.3258 L 276.48411,345.32436 c -0.66433,0.38932 -1.34496,0.76 -2.00269,1.15625 z m 12.42736,-6.85018 269.33883,155.50853 c -0.0444,-0.78706 -0.0878,-1.58444 -0.14235,-2.37155 L 289.04372,338.57825 c -0.71057,0.3472 -1.42697,0.69511 -2.13494,1.05218 z m 13.51969,-6.14571 254.38498,146.85771 c -0.11289,-0.82049 -0.22027,-1.65155 -0.34435,-2.47143 L 302.76541,332.53241 c -0.78333,0.30746 -1.55605,0.63349 -2.33694,0.95231 z m 14.89521,-5.38824 236.64884,136.63782 c -0.20068,-0.88599 -0.42179,-1.77949 -0.63591,-2.66394 L 317.93656,327.30962 c -0.8743,0.25833 -1.74073,0.51503 -2.61288,0.78686 z m 16.73723,-4.32276 215.31404,124.30984 c -0.31396,-0.95908 -0.63975,-1.91173 -0.97018,-2.86788 L 334.99242,323.16374 c -0.9805,0.19084 -1.95254,0.40287 -2.93151,0.60998 z m 19.04158,-3.01901 189.32366,109.29318 c -0.46334,-1.03607 -0.94863,-2.07511 -1.4325,-3.10615 L 354.52757,320.43712 c -1.14334,0.0978 -2.28212,0.1983 -3.42508,0.31759 z m 22.58195,-0.94943 156.29942,90.21854 c -0.72146,-1.2026 -1.45765,-2.38352 -2.202,-3.56398 L 377.86341,319.91847 c -1.39136,-0.0563 -2.78525,-0.0882 -4.17897,-0.11319 z m 29.10661,2.78912 110.31124,63.68968 c -1.29462,-1.54867 -2.60529,-3.08143 -3.94303,-4.57953 L 408.75373,323.73457 c -1.97992,-0.41658 -3.96943,-0.78791 -5.96268,-1.14017 z"
       style="fill:#ffffff;fill-opacity:1;stroke:none" />
    <text
       xml:space="preserve"
       style="font-size:339.66949463px;font-style:normal;font-variant:normal;font-weight:normal;font-stretch:normal;text-align:start;line-height:125%;letter-spacing:0px;word-spacing:0px;writing-mode:lr-tb;text-anchor:start;fill:#000000;fill-opacity:1;stroke:none;font-family:League Gothic;-inkscape-font-specification:League Gothic"
       x="248.79489"
       y="630.59717"
       id="text4216"
       sodipodi:linespacing="125%"><tspan
         sodipodi:role="line"
         id="tspan4218"
         x="248.79489"
         y="630.59717">SN</tspan></text>
  </g>
</svg>
