<?xml version="1.0" encoding="UTF-8" standalone="no"?>
<!-- Created with Inkscape (http://www.inkscape.org/) -->

<svg
   xmlns:dc="http://purl.org/dc/elements/1.1/"
   xmlns:cc="http://creativecommons.org/ns#"
   xmlns:rdf="http://www.w3.org/1999/02/22-rdf-syntax-ns#"
   xmlns:svg="http://www.w3.org/2000/svg"
   xmlns="http://www.w3.org/2000/svg"
   xmlns:sodipodi="http://sodipodi.sourceforge.net/DTD/sodipodi-0.dtd"
   xmlns:inkscape="http://www.inkscape.org/namespaces/inkscape"
   width="744.09448819"
   height="1052.3622047"
   id="svg2"
   version="1.1"
   inkscape:version="0.48.4 r9939"
   sodipodi:docname="New document 1">
  <defs
     id="defs4" />
  <sodipodi:namedview
     id="base"
     pagecolor="#ffffff"
     bordercolor="#666666"
     borderopacity="1.0"
     inkscape:pageopacity="0.0"
     inkscape:pageshadow="2"
     inkscape:zoom="0.70710678"
     inkscape:cx="15.47721"
     inkscape:cy="476.76184"
     inkscape:document-units="px"
     inkscape:current-layer="layer1"
     showgrid="false"
     showborder="false"
     inkscape:showpageshadow="false"
     inkscape:window-width="1879"
     inkscape:window-height="1056"
     inkscape:window-x="41"
     inkscape:window-y="24"
     inkscape:window-maximized="1" />
  <metadata
     id="metadata7">
    <rdf:RDF>
      <cc:Work
         rdf:about="">
        <dc:format>image/svg+xml</dc:format>
        <dc:type
           rdf:resource="http://purl.org/dc/dcmitype/StillImage" />
        <dc:title></dc:title>
      </cc:Work>
    </rdf:RDF>
  </metadata>
  <g
     inkscape:label="Layer 1"
     inkscape:groupmode="layer"
     id="layer1">
    <path
       style="fill:#1a1a1a;stroke:none;opacity:1"
       d="M 207 166.15625 L 196.46875 210.875 C 198.90269 210.79623 201.34181 210.75127 203.78125 210.75 C 208.37891 210.68391 212.97233 210.75313 217.5625 210.9375 L 207 166.15625 z M 93.28125 188.78125 L 100.65625 234.21875 C 107.02679 231.23452 113.53194 228.5099 120.125 226.0625 L 93.28125 188.78125 z M 320.71875 188.78125 L 293.96875 225.9375 C 300.54928 228.33656 307.03915 231.01189 313.375 233.96875 L 320.71875 188.78125 z M -3.15625 253.21875 L 21 292.25 C 25.783549 287.1023 30.773913 282.14257 35.96875 277.40625 L -3.15625 253.21875 z M 417.15625 253.21875 L 377.96875 277.46875 C 383.14837 282.25018 388.13202 287.25024 392.90625 292.4375 L 417.15625 253.21875 z M -67.5625 349.625 L -30.40625 376.40625 C -28.007111 369.81075 -25.315398 363.33733 -22.34375 356.96875 L -67.5625 349.625 z M 481.5625 349.625 L 436.3125 357 C 438.53338 361.74787 440.61842 366.55214 442.53125 371.4375 C 443.18722 373.07713 443.81982 374.72223 444.4375 376.375 L 481.5625 349.625 z M -45.34375 452.8125 L -90.1875 463.375 L -45.3125 473.96875 C -45.60039 466.91961 -45.628797 459.8624 -45.34375 452.8125 z M 459.5 452.84375 C 459.75689 459.87233 459.72744 466.908 459.40625 473.9375 L 504.1875 463.375 L 459.5 452.84375 z M 444.25 550.21875 C 441.86016 556.82733 439.21206 563.33526 436.28125 569.71875 L 481.5625 577.09375 L 444.25 550.21875 z M -30.4375 550.375 L -67.5625 577.09375 L -22.46875 569.75 C -25.403539 563.40917 -28.061327 556.9428 -30.4375 550.375 z M 21 634.4375 L -3.15625 673.5 L 35.96875 649.3125 C 30.768236 644.56498 25.787826 639.60216 21 634.4375 z M 393.0625 634.5625 C 388.30753 639.72036 383.36325 644.67873 378.1875 649.40625 L 417.15625 673.5 L 393.0625 634.5625 z M 313.34375 692.46875 C 306.95027 695.4339 300.42733 698.12794 293.8125 700.5625 L 320.71875 737.9375 L 313.34375 692.46875 z M 100.65625 692.5 L 93.28125 737.9375 L 120.125 700.65625 C 113.52921 698.204 107.02991 695.48755 100.65625 692.5 z M 217.53125 715.9375 C 213.41226 716.11099 209.28452 716.19487 205.15625 716.15625 C 202.26366 716.16119 199.38536 716.10284 196.5 716 L 207 760.5625 L 217.53125 715.9375 z "
       id="path2985" />
    <path
       sodipodi:type="arc"
       style="fill:none;stroke:#000000;opacity:1;stroke-opacity:1;stroke-width:3.78048793000000005;stroke-miterlimit:4;stroke-dasharray:none"
       id="path3755"
       sodipodi:cx="107"
       sodipodi:cy="391.36218"
       sodipodi:rx="186"
       sodipodi:ry="186"
       d="m 293,391.36218 a 186,186 0 1 1 -372,0 186,186 0 1 1 372,0 z"
       transform="matrix(1.3225806,0,0,1.3225806,65.483871,-54.245865)" />
    <path
       sodipodi:type="arc"
       style="opacity:1;fill:#000000;fill-opacity:1;stroke:#000000;stroke-width:5;stroke-miterlimit:4;stroke-opacity:1;stroke-dasharray:none;stroke-dashoffset:0"
       id="path3766"
       sodipodi:cx="133"
       sodipodi:cy="391.36218"
       sodipodi:rx="209"
       sodipodi:ry="209"
       d="m 342,391.36218 a 209,209 0 1 1 -418,0 209,209 0 1 1 418,0 z"
       transform="matrix(1.1371158,0,0,1.1371158,55.763588,18.338029)" />
    <text
       xml:space="preserve"
       style="font-size:267.39331055000002380px;font-style:normal;font-variant:normal;font-weight:normal;font-stretch:normal;text-align:start;line-height:125%;letter-spacing:0px;word-spacing:0px;writing-mode:lr-tb;text-anchor:start;fill:#ffffff;fill-opacity:1;stroke:none;font-family:League Gothic;-inkscape-font-specification:League Gothic;opacity:1"
       x="111.17291"
       y="561.62921"
       id="text3768"
       sodipodi:linespacing="125%"><tspan
         sodipodi:role="line"
         id="tspan3770"
         x="111.17291"
         y="561.62921">SN</tspan></text>
  </g>
</svg>
