<?xml version="1.0" encoding="UTF-8" standalone="no"?>
<!-- Created with Inkscape (http://www.inkscape.org/) -->

<svg
   xmlns:dc="http://purl.org/dc/elements/1.1/"
   xmlns:cc="http://creativecommons.org/ns#"
   xmlns:rdf="http://www.w3.org/1999/02/22-rdf-syntax-ns#"
   xmlns:svg="http://www.w3.org/2000/svg"
   xmlns="http://www.w3.org/2000/svg"
   xmlns:sodipodi="http://sodipodi.sourceforge.net/DTD/sodipodi-0.dtd"
   xmlns:inkscape="http://www.inkscape.org/namespaces/inkscape"
   width="744.09448819"
   height="1052.3622047"
   id="svg3850"
   version="1.1"
   inkscape:version="0.48.4 r9939"
   sodipodi:docname="New document 6">
  <defs
     id="defs3852">
    <inkscape:path-effect
       effect="spiro"
       id="path-effect4495"
       is_visible="true" />
  </defs>
  <sodipodi:namedview
     id="base"
     pagecolor="#ffffff"
     bordercolor="#666666"
     borderopacity="1.0"
     inkscape:pageopacity="0.0"
     inkscape:pageshadow="2"
     inkscape:zoom="1.4142136"
     inkscape:cx="335.80001"
     inkscape:cy="522.6326"
     inkscape:document-units="px"
     inkscape:current-layer="layer1"
     showgrid="false"
     inkscape:window-width="1879"
     inkscape:window-height="1056"
     inkscape:window-x="41"
     inkscape:window-y="24"
     inkscape:window-maximized="1" />
  <metadata
     id="metadata3855">
    <rdf:RDF>
      <cc:Work
         rdf:about="">
        <dc:format>image/svg+xml</dc:format>
        <dc:type
           rdf:resource="http://purl.org/dc/dcmitype/StillImage" />
        <dc:title></dc:title>
      </cc:Work>
    </rdf:RDF>
  </metadata>
  <g
     inkscape:label="Layer 1"
     inkscape:groupmode="layer"
     id="layer1">
    <path
       style="font-size:medium;font-style:normal;font-variant:normal;font-weight:normal;font-stretch:normal;text-indent:0;text-align:start;text-decoration:none;line-height:normal;letter-spacing:normal;word-spacing:normal;text-transform:none;direction:ltr;block-progression:tb;writing-mode:lr-tb;text-anchor:start;baseline-shift:baseline;opacity:1;color:#000000;fill:#000000;fill-opacity:1;stroke:none;stroke-width:7.43661976000000013;marker:none;visibility:visible;display:inline;overflow:visible;enable-background:accumulate;font-family:Sans;-inkscape-font-specification:Sans"
       d="m 337.3125,318.21875 c -80.5862,0 -146,65.41381 -146,146 0,1.7314 0.0339,3.47061 0.0937,5.1875 A 6.1523357,6.1523357 0 0 1 193.4375,469 l 5.125,-0.15625 0.0312,0 0.78125,-0.0312 c -0.0492,-1.5168 -0.0625,-3.06489 -0.0625,-4.59375 0,-76.26267 61.73733,-138 138,-138 76.26267,0 138,61.73733 138,138 0,1.52886 -0.0133,3.07695 -0.0625,4.59375 l 0.78125,0.0312 0.0312,0 5.125,0.15625 a 6.1523357,6.1523357 0 0 1 2.03125,0.40625 c 0.0599,-1.71667 0.0937,-3.45633 0.0937,-5.1875 0,-80.58619 -65.4138,-146 -146,-146 z"
       id="path4426" />
    <path
       style="font-size:medium;font-style:normal;font-variant:normal;font-weight:normal;font-stretch:normal;text-indent:0;text-align:start;text-decoration:none;line-height:normal;letter-spacing:normal;word-spacing:normal;text-transform:none;direction:ltr;block-progression:tb;writing-mode:lr-tb;text-anchor:start;baseline-shift:baseline;opacity:1;color:#000000;fill:#000000;fill-opacity:1;stroke:none;stroke-width:12.33644866999999934;marker:none;visibility:visible;display:inline;overflow:visible;enable-background:accumulate;font-family:Sans;-inkscape-font-specification:Sans"
       d="m 337.3125,296.21875 c -92.695,0 -168,75.33625 -168,168.03125 0,31.73398 8.83042,61.41835 24.15625,86.75 l 0.75,-0.46875 2.96875,-1.84375 c -0.01,0.006 0.0393,-0.0362 0.0312,-0.0312 a 6.1523357,6.1523357 0 0 1 0.3125,-0.1875 c 0.14748,-0.0934 0.34432,-0.23295 0.9375,-0.59375 0.81097,-0.49328 1.98654,-1.19018 3.46875,-2.03125 0.87133,-0.49443 2.54634,-1.26032 3.625,-1.84375 -3.8846,-3.19906 -7.39873,-6.24007 -10.03125,-8.71875 -2.13004,-2.00557 -3.80914,-3.6885 -4.96875,-4.875 -1.14045,-1.1669 -2.09728,-2.21668 -1.8125,-1.90625 0.005,0.005 -0.0373,-0.0372 -0.0312,-0.0312 l -2.625,-2.8125 0.0312,0 -3.28125,-3.53125 a 6.1523357,6.1523357 0 0 1 2.6875,-10.0625 l 4.59375,-1.40625 a 6.1523357,6.1523357 0 0 1 0.0312,0 l 1.1875,-0.34375 c -4.57947,-14.5407 -7.03125,-29.99512 -7.03125,-46.0625 0,-84.5884 68.4116,-153.03125 153,-153.03125 84.5884,0 153,68.44285 153,153.03125 0,16.06738 -2.45178,31.5218 -7.03125,46.0625 l 1.1875,0.34375 a 6.1523357,6.1523357 0 0 1 0.0312,0 l 4.59375,1.40625 a 6.1523357,6.1523357 0 0 1 2.6875,10.0625 l -3.28125,3.53125 0.0312,0 -2.59375,2.8125 -0.0312,0.0312 c -0.59219,0.65 -2.57188,2.78846 -6.8125,6.78125 -2.63254,2.47868 -6.14663,5.5197 -10.03125,8.71875 1.07865,0.58343 2.75368,1.34932 3.625,1.84375 1.4822,0.84106 2.6578,1.53799 3.46875,2.03125 0.31351,0.19069 0.51494,0.34184 0.71875,0.46875 0.0598,0.0372 0.16875,0.0936 0.21875,0.125 a 6.1523357,6.1523357 0 0 1 0.3125,0.1875 c -0.0206,-0.0131 0.0695,0.0557 0.0312,0.0312 l 2.96875,1.84375 a 6.1523357,6.1523357 0 0 1 0.0312,0 L 481.15625,551 c 15.32583,-25.33165 24.15625,-55.01602 24.15625,-86.75 0,-92.695 -75.305,-168.03125 -168,-168.03125 z"
       id="path4410" />
    <path
       style="font-size:medium;font-style:normal;font-variant:normal;font-weight:normal;font-stretch:normal;text-indent:0;text-align:start;text-decoration:none;line-height:normal;letter-spacing:normal;word-spacing:normal;text-transform:none;direction:ltr;block-progression:tb;writing-mode:lr-tb;text-anchor:start;baseline-shift:baseline;opacity:1;color:#000000;fill:#000000;fill-opacity:1;fill-rule:nonzero;stroke:none;stroke-width:25;marker:none;visibility:visible;display:inline;overflow:visible;enable-background:accumulate;font-family:Sans;-inkscape-font-specification:Sans"
       d="M 337.28125 344.65625 L 333.78125 350.3125 L 330.96875 354.78125 C 330.96875 354.78125 330.96879 354.8125 330.96875 354.8125 C 330.93025 354.8723 321.48487 369.61238 312.90625 390.625 C 302.04536 377.37017 292.94931 369.07042 292.90625 369.03125 L 289.21875 365.59375 L 284.5625 361.25 L 282.71875 367.34375 L 281.21875 372.15625 C 281.21875 372.15625 281.21879 372.1872 281.21875 372.1875 C 281.19745 372.254 275.84104 389.0766 273.1875 411.5 C 260.86673 402.79968 251.39033 397.89905 251.34375 397.875 L 251.3125 397.84375 L 247.125 395.65625 L 241.90625 392.84375 L 241.6875 398.78125 L 241.5 403.53125 C 241.495 403.59725 240.71493 420.51131 243.875 441.78125 C 231.07392 437.11154 221.73426 435.07267 221.6875 435.0625 L 221.65625 435.0625 L 217.375 434.0625 L 212 432.8125 L 213.25 438.1875 L 214.21875 442.46875 L 214.21875 442.5 C 214.23185 442.5593 217.52643 457.54908 225.28125 475.59375 C 217.66425 474.8978 211.33103 474.74768 207.375 474.75 C 204.55001 474.75 202.92523 474.84295 202.90625 474.84375 L 198.78125 475 L 193.625 475.15625 L 196.0625 479.71875 L 197.96875 483.375 C 197.99505 483.4258 204.63759 496.21015 216.03125 510.65625 C 203.95631 512.74047 195.69684 515.39333 195.65625 515.40625 L 195.625 515.40625 L 191.9375 516.53125 L 187.34375 517.9375 L 190.625 521.46875 L 193.25 524.3125 C 193.2866 524.3524 202.66829 534.61962 216.84375 545.09375 C 206.96541 549.71106 200.53235 553.85426 200.5 553.875 L 200.46875 553.875 L 197.46875 555.75 L 193.65625 558.125 L 197.46875 560.5 L 200.46875 562.40625 C 200.46875 562.40625 200.5 562.40617 200.5 562.40625 C 200.51877 562.41827 202.69127 563.80755 206.4375 565.875 L 212.53125 565.875 C 206.0349 562.57244 201.96875 560.03125 201.96875 560.03125 L 198.9375 558.125 L 201.96875 556.25 C 201.96875 556.25 235.07266 535.28125 265.5 535.28125 C 295.92741 535.28125 329 556.25 329 556.25 L 332.03125 558.125 L 329 560.03125 C 329 560.03125 324.95866 562.57516 318.46875 565.875 L 324.53125 565.875 C 328.27748 563.80755 330.48121 562.41829 330.5 562.40625 L 333.53125 560.5 L 337.3125 558.125 L 341.09375 560.5 L 344.125 562.40625 C 344.14377 562.41827 346.34752 563.80755 350.09375 565.875 L 356.15625 565.875 C 349.66634 562.57516 345.625 560.03125 345.625 560.03125 L 342.59375 558.125 L 345.625 556.25 C 345.625 556.25 378.69766 535.28125 409.125 535.28125 C 439.5524 535.28125 472.65625 556.25 472.65625 556.25 L 475.6875 558.125 L 472.65625 560.03125 C 472.65625 560.03125 468.5901 562.57244 462.09375 565.875 L 468.1875 565.875 C 471.93374 563.80755 474.10621 562.4183 474.125 562.40625 C 474.1251 562.40617 474.15625 562.40625 474.15625 562.40625 L 477.15625 560.5 L 480.9375 558.125 L 477.15625 555.75 L 474.15625 553.875 L 474.125 553.875 C 474.0924 553.8542 467.65964 549.71106 457.78125 545.09375 C 471.95675 534.61962 481.33862 524.35244 481.375 524.3125 L 484 521.46875 L 487.28125 517.9375 L 482.6875 516.53125 L 479 515.40625 L 478.96875 515.40625 C 478.92805 515.39315 470.66874 512.74047 458.59375 510.65625 C 469.98743 496.21015 476.59892 483.42553 476.625 483.375 L 476.65625 483.375 L 478.5625 479.71875 L 481 475.15625 L 475.84375 475 L 471.71875 474.84375 C 471.69975 474.84375 470.07495 474.7515 467.25 474.75 C 463.29402 474.75 456.96074 474.8978 449.34375 475.59375 C 457.09862 457.54908 460.39328 442.55929 460.40625 442.5 C 460.40625 442.49985 460.40625 442.46875 460.40625 442.46875 L 461.375 438.1875 L 462.625 432.8125 L 457.25 434.0625 L 452.96875 435.0625 L 452.9375 435.0625 C 452.8907 435.0727 443.55103 437.11154 430.75 441.78125 C 433.91 420.51131 433.12807 403.59727 433.125 403.53125 L 432.9375 398.78125 L 432.71875 392.84375 L 427.5 395.65625 L 423.3125 397.84375 L 423.28125 397.875 C 423.23455 397.899 413.75827 402.79971 401.4375 411.5 C 398.78396 389.07662 393.42745 372.25399 393.40625 372.1875 C 393.4062 372.18737 393.40625 372.15625 393.40625 372.15625 L 391.90625 367.34375 L 390.03125 361.25 L 385.40625 365.59375 L 381.71875 369.03125 C 381.67575 369.07035 372.57585 377.37497 361.71875 390.625 C 353.13996 369.61331 343.69461 354.87231 343.65625 354.8125 L 343.625 354.78125 L 340.84375 350.3125 L 337.3125 344.6875 L 337.3125 344.65625 L 337.28125 344.65625 z M 337.3125 352.53125 L 340.125 357 C 340.125 357 340.24077 357.22258 340.46875 357.59375 C 341.15263 358.70725 342.8115 361.41919 345 365.40625 C 347.55331 370.05783 350.85894 376.43855 354.25 383.96875 C 355.21891 386.12022 356.1874 388.35939 357.15625 390.6875 C 357.66386 391.90711 358.15511 393.14361 358.65625 394.40625 C 357.85112 395.4299 357.03256 396.49116 356.21875 397.5625 C 351.25564 384.75431 345.7876 373.87964 342 366.9375 C 346.09868 378.06786 349.86402 389.93105 352.84375 402.125 C 347.34424 409.75565 341.88826 418.36287 337.3125 427.5625 C 332.73752 418.36304 327.28032 409.75532 321.78125 402.125 C 324.76096 389.93105 328.52632 378.06786 332.625 366.9375 C 328.83741 373.87964 323.36936 384.75431 318.40625 397.5625 C 317.58919 396.48695 316.74585 395.43372 315.9375 394.40625 C 316.43752 393.14653 316.96231 391.90434 317.46875 390.6875 C 318.4376 388.35939 319.40609 386.12022 320.375 383.96875 C 326.67276 369.98413 332.67441 360.00631 334.15625 357.59375 C 334.38422 357.22258 334.5 357 334.5 357 L 337.3125 352.53125 z M 286.5 368.46875 L 290.21875 371.96875 C 290.21875 371.96875 331.07572 409.60955 342.25 451.3125 C 344.72451 460.54748 345.82684 470.32093 346.0625 479.96875 L 346.0625 480 C 340.35148 497.30445 338.13818 515.20198 337.3125 528.21875 C 336.13207 509.60927 332.10032 480.99672 319.09375 458.46875 C 310.27653 443.19693 296.9638 430.10654 284.46875 420.03125 C 284.09625 407.39982 284.66546 394.84942 285.75 382.96875 C 283.89218 390.63816 281.38107 402.72328 280 416.5 C 278.97796 415.71972 277.96733 414.95474 276.96875 414.21875 C 279.47168 391.14104 285 373.34375 285 373.34375 L 286.5 368.46875 z M 388.125 368.46875 L 389.625 373.34375 C 389.625 373.34375 395.15328 391.14101 397.65625 414.21875 C 396.65762 414.95471 395.64705 415.71972 394.625 416.5 C 393.24394 402.72324 390.73275 390.63815 388.875 382.96875 C 389.95953 394.84937 390.52876 407.39989 390.15625 420.03125 C 377.66115 430.10662 364.34847 443.19688 355.53125 458.46875 C 353.2859 462.35783 351.30441 466.4239 349.5625 470.59375 C 348.95901 463.73742 347.86665 456.89765 346.09375 450.28125 C 344.44114 444.11359 342.15171 438.06551 339.5 432.21875 C 355.29983 398.78145 384.40625 371.96875 384.40625 371.96875 L 388.125 368.46875 z M 245.375 398.90625 L 249.59375 401.15625 C 249.59375 401.15625 295.66126 425.30118 315.875 460.3125 C 333.20211 490.32393 334.12284 532.728 334.03125 544.25 C 330.80732 532.04952 319.76423 495.85801 297.03125 473.125 C 285.32189 461.41567 270.02854 452.79423 256.28125 446.75 C 252.77188 435.17781 250.15803 423.43338 248.21875 412.1875 C 248.40045 419.71192 249.06583 431.54459 251.25 444.625 C 250.13473 444.17038 249.05026 443.73209 247.96875 443.3125 C 244.51148 421.50471 245.21875 403.65625 245.21875 403.65625 L 245.375 398.90625 z M 429.25 398.90625 L 429.40625 403.65625 C 429.40625 403.65625 430.11349 421.50471 426.65625 443.3125 C 425.57471 443.73209 424.4903 444.17038 423.375 444.625 C 425.5592 431.54459 426.22455 419.71192 426.40625 412.1875 C 424.46697 423.43338 421.85317 435.17781 418.34375 446.75 C 404.5965 452.79423 389.30311 461.41567 377.59375 473.125 C 354.86077 495.85801 343.81772 532.04952 340.59375 544.25 C 340.50215 532.728 341.42289 490.32393 358.75 460.3125 C 378.9638 425.30118 425.03125 401.15625 425.03125 401.15625 L 429.25 398.90625 z M 216.59375 437.40625 L 220.90625 438.40625 C 220.90625 438.40625 268.04887 448.98637 294.59375 475.53125 C 317.32913 498.26663 328.33271 536.04413 331.03125 546.4375 C 325.21449 536.2666 306.4198 506.09107 280.28125 491 C 267.00181 483.33311 251.28887 479.27743 237.5 477.125 C 231.72445 467.7709 226.66298 458.04709 222.3125 448.625 C 224.24816 455.20878 227.61107 465.42945 232.5625 476.40625 C 231.45704 476.26371 230.38121 476.11951 229.3125 476 C 221.16362 457.53292 217.59375 441.71875 217.59375 441.71875 L 216.59375 437.40625 z M 458.03125 437.40625 L 457.03125 441.71875 C 457.03125 441.71875 453.46137 457.53292 445.3125 476 C 444.24378 476.11951 443.16791 476.26371 442.0625 476.40625 C 447.01388 465.42945 450.37687 455.20878 452.3125 448.625 C 447.96207 458.04709 442.90056 467.7709 437.125 477.125 C 423.33609 479.27743 407.62321 483.33311 394.34375 491 C 368.20524 506.09107 349.41058 536.2666 343.59375 546.4375 C 346.29231 536.04413 357.29586 498.26663 380.03125 475.53125 C 406.57613 448.98637 453.71875 438.40625 453.71875 438.40625 L 458.03125 437.40625 z M 204.1875 478.03125 C 204.93313 478.01696 206.01491 478.026 207.40625 478.03125 C 219.46425 478.07685 253.92609 479.53455 278.65625 493.8125 C 304.74328 508.87391 323.86991 540.37426 328.8125 549.09375 C 321.09607 541.31202 296.79065 518.56253 269.5 511.25 C 261.23134 509.03439 252.49775 508.18666 244.03125 508.15625 C 238.29292 508.13545 232.68656 508.49771 227.4375 509.0625 C 219.94204 501.99878 213.00273 494.44027 206.78125 486.96875 C 210.1311 492.46023 215.66241 500.88695 222.8125 509.625 C 221.77816 509.76417 220.74539 509.91144 219.75 510.0625 C 207.89329 495.32666 200.84375 481.875 200.84375 481.875 L 198.90625 478.21875 L 203.03125 478.0625 C 203.03125 478.0625 203.44187 478.04554 204.1875 478.03125 z M 467.21875 478.03125 C 470.00135 478.02105 471.59375 478.0625 471.59375 478.0625 L 475.71875 478.21875 L 473.78125 481.875 C 473.78125 481.875 466.73177 495.32667 454.875 510.0625 C 453.87962 509.91145 452.84683 509.76419 451.8125 509.625 C 458.96256 500.88695 464.49394 492.46024 467.84375 486.96875 C 461.62227 494.44027 454.6829 501.99878 447.1875 509.0625 C 441.93843 508.49772 436.33207 508.13563 430.59375 508.15625 C 422.12723 508.18645 413.39372 509.03438 405.125 511.25 C 377.8344 518.56253 353.52893 541.31202 345.8125 549.09375 C 350.75504 540.37426 369.88169 508.87391 395.96875 493.8125 C 420.6989 479.53455 455.16073 478.07674 467.21875 478.03125 z M 244.03125 511.21875 C 252.28776 511.23325 260.77589 512.05918 268.71875 514.1875 C 295.94289 521.48217 320.85031 545.33958 327.4375 552.03125 C 318.54554 546.86167 291.51027 532.5 265.5 532.5 C 252.01373 532.5 238.24951 536.36929 226.875 540.8125 C 218.10676 536.14136 209.75237 530.84318 202.09375 525.4375 C 206.56109 529.69412 213.84535 536.18597 222.71875 542.5 C 221.81583 542.8817 220.92516 543.24298 220.0625 543.625 C 205.41355 533.01901 195.46875 522.25 195.46875 522.25 L 192.84375 519.40625 L 196.53125 518.28125 C 196.53125 518.28125 219.26168 511.17578 244.03125 511.21875 z M 430.59375 511.21875 C 455.36331 511.17575 478.09375 518.28125 478.09375 518.28125 L 481.78125 519.40625 L 479.15625 522.25 C 479.15625 522.25 469.21141 533.01901 454.5625 543.625 C 453.69979 543.24298 452.80916 542.8817 451.90625 542.5 C 460.77963 536.18597 468.06391 529.69412 472.53125 525.4375 C 464.87263 530.84318 456.51819 536.14136 447.75 540.8125 C 436.37548 536.36929 422.61132 532.5 409.125 532.5 C 383.11478 532.5 356.07951 546.86162 347.1875 552.03125 C 353.77474 545.33953 378.68212 521.48217 405.90625 514.1875 C 413.84911 512.05918 422.33723 511.23307 430.59375 511.21875 z M 208.65625 561.28125 C 211.03402 562.57854 214.1164 564.18018 217.6875 565.875 L 222.40625 565.875 C 217.68814 564.46186 213.08321 562.91146 208.65625 561.28125 z M 322.34375 561.28125 C 317.91679 562.91146 313.31187 564.46186 308.59375 565.875 L 313.28125 565.875 C 316.85676 564.17836 319.96369 562.57979 322.34375 561.28125 z M 352.28125 561.28125 C 354.66132 562.57979 357.76823 564.17836 361.34375 565.875 L 366.03125 565.875 C 361.31313 564.46186 356.70822 562.91146 352.28125 561.28125 z M 465.96875 561.28125 C 461.54178 562.91146 456.93687 564.46186 452.21875 565.875 L 456.9375 565.875 C 460.5086 564.18018 463.59097 562.57854 465.96875 561.28125 z "
       id="path3825" />
    <rect
       style="opacity:1;fill:#000000;stroke:none"
       id="rect4491"
       width="354.2605"
       height="10.253048"
       x="160.18225"
       y="557.38745" />
    <rect
       y="572.84332"
       x="160.18225"
       height="6.3639612"
       width="354.2605"
       id="rect4498"
       style="opacity:1;fill:#000000;stroke:none" />
    <text
       xml:space="preserve"
       style="font-size:89.98365020999999331px;font-style:normal;font-variant:normal;font-weight:normal;font-stretch:normal;text-align:start;line-height:125%;letter-spacing:0px;word-spacing:0px;writing-mode:lr-tb;text-anchor:start;fill:#000000;fill-opacity:1;stroke:none;font-family:League Gothic;-inkscape-font-specification:League Gothic;opacity:1"
       x="158.56279"
       y="653.33875"
       id="text4500"
       sodipodi:linespacing="125%"><tspan
         sodipodi:role="line"
         id="tspan4502"
         x="158.56279"
         y="653.33875">SERENITY NOW</tspan></text>
    <rect
       y="-683.15198"
       x="160.18225"
       height="10.253048"
       width="354.2605"
       id="rect4504"
       style="opacity:1;fill:#000000;stroke:none"
       transform="scale(1,-1)" />
    <rect
       style="opacity:1;fill:#000000;stroke:none"
       id="rect4506"
       width="354.2605"
       height="6.3639612"
       x="160.18225"
       y="-667.69611"
       transform="scale(1,-1)" />
  </g>
</svg>
