<?xml version="1.0" encoding="UTF-8" standalone="no"?>
<!-- Created with Inkscape (http://www.inkscape.org/) -->

<svg
   xmlns:dc="http://purl.org/dc/elements/1.1/"
   xmlns:cc="http://creativecommons.org/ns#"
   xmlns:rdf="http://www.w3.org/1999/02/22-rdf-syntax-ns#"
   xmlns:svg="http://www.w3.org/2000/svg"
   xmlns="http://www.w3.org/2000/svg"
   xmlns:sodipodi="http://sodipodi.sourceforge.net/DTD/sodipodi-0.dtd"
   xmlns:inkscape="http://www.inkscape.org/namespaces/inkscape"
   width="744.09448819"
   height="1052.3622047"
   id="svg2"
   version="1.1"
   inkscape:version="0.48.4 r9939"
   sodipodi:docname="New document 1">
  <defs
     id="defs4" />
  <sodipodi:namedview
     id="base"
     pagecolor="#ffffff"
     bordercolor="#666666"
     borderopacity="1.0"
     inkscape:pageopacity="0.0"
     inkscape:pageshadow="2"
     inkscape:zoom="1"
     inkscape:cx="210.53891"
     inkscape:cy="381.75003"
     inkscape:document-units="px"
     inkscape:current-layer="layer1"
     showgrid="false"
     showborder="false"
     inkscape:showpageshadow="false"
     inkscape:window-width="1879"
     inkscape:window-height="1056"
     inkscape:window-x="41"
     inkscape:window-y="24"
     inkscape:window-maximized="1" />
  <metadata
     id="metadata7">
    <rdf:RDF>
      <cc:Work
         rdf:about="">
        <dc:format>image/svg+xml</dc:format>
        <dc:type
           rdf:resource="http://purl.org/dc/dcmitype/StillImage" />
        <dc:title></dc:title>
      </cc:Work>
    </rdf:RDF>
  </metadata>
  <g
     inkscape:label="Layer 1"
     inkscape:groupmode="layer"
     id="layer1">
    <path
       inkscape:connector-curvature="0"
       style="fill:#333333;stroke:none"
       d="m 174,375.36218 c -7.22683,0 -14.35892,0.45323 -21.34375,1.34375 L 172.625,577.67468 c 0.44725,0.28085 0.89955,0.55812 1.34375,0.84375 0.46761,-0.30779 0.93519,-0.60438 1.40625,-0.90625 L 195.34375,376.70593 C 188.35892,375.81541 181.22683,375.36218 174,375.36218 z m -34.84375,3.65625 C 125.0775,382.0068 111.64758,386.7584 99.125,393.04968 l 68.59375,181.65625 c 1.32587,0.76287 2.63592,1.54046 3.9375,2.34375 l -32.5,-198.03125 z m 69.6875,0 -32.46875,197.9375 c 1.30291,-0.81903 2.64098,-1.60078 3.96875,-2.375 L 248.875,393.04968 C 236.35242,386.7584 222.9225,382.0068 208.84375,379.01843 z m -121.5,20.5625 c -11.904267,7.24002 -22.825077,15.92305 -32.53125,25.8125 l 103.75,144.46875 c 2.53324,1.23409 5.04085,2.53269 7.5,3.90625 L 87.34375,399.58093 z m 173.3125,0 L 182,573.61218 c 2.49209,-1.40758 5.0243,-2.71658 7.59375,-3.96875 l 103.59375,-144.25 c -9.70617,-9.88945 -20.62698,-18.57248 -32.53125,-25.8125 z m -214.625,35.5 C 37.456716,445.2967 30.081008,456.53034 24.125,468.61218 l 113.40625,92.875 c 5.96015,1.87985 11.81914,4.12985 17.5,6.71875 l -109,-133.125 z m 255.9375,0 -108.78125,132.875 c 5.6829,-2.57734 11.53621,-4.81911 17.5,-6.65625 l 113.1875,-92.6875 c -5.95601,-12.08184 -13.33172,-23.31548 -21.90625,-33.53125 z m -282.9375,45 c -4.681106,11.63893 -8.099616,23.92314 -10.0625,36.6875 l 83.1875,37.59375 c 12.4353,0.0491 24.84257,1.63825 36.875,4.6875 l -110,-78.96875 z m 309.9375,0 -109.875,78.90625 c 11.91976,-2.93515 24.19886,-4.41842 36.5,-4.5 l 83.4375,-37.71875 c -1.96288,-12.76436 -5.38139,-25.04857 -10.0625,-36.6875 z M 7.59375,528.54968 C 7.22028,533.10787 7,537.70767 7,542.36218 c 0,7.40128 0.504165,14.69699 1.4375,21.84375 l 20.5,3.375 c 15.398446,-6.81272 31.864721,-11.12933 48.65625,-12.59375 l -70,-26.4375 z m 332.8125,0 -70.25,26.5 c 16.95313,1.44413 33.66261,5.58822 49.1875,12.46875 l 20.21875,-3.3125 C 340.49584,557.05917 341,549.76346 341,542.36218 c 0,-4.65451 -0.22028,-9.25431 -0.59375,-13.8125 z m -330.1875,46.5 c 0.139127,0.70102 0.289799,1.39589 0.4375,2.09375 0.970497,-0.59336 1.954384,-1.17814 2.9375,-1.75 l -3.375,-0.34375 z m 327.5625,0 -3.25,0.3125 c 0.94439,0.56175 1.88087,1.1344 2.8125,1.71875 0.14324,-0.67801 0.30235,-1.35026 0.4375,-2.03125 z"
       id="path3836" />
    <path
       inkscape:connector-curvature="0"
       style="font-size:medium;font-style:normal;font-variant:normal;font-weight:normal;font-stretch:normal;text-indent:0;text-align:start;text-decoration:none;line-height:normal;letter-spacing:normal;word-spacing:normal;text-transform:none;direction:ltr;block-progression:tb;writing-mode:lr-tb;text-anchor:start;baseline-shift:baseline;color:#000000;fill:#000000;fill-opacity:1;stroke:none;stroke-width:20.84210587;marker:none;visibility:visible;display:inline;overflow:visible;enable-background:accumulate;font-family:Sans;-inkscape-font-specification:Sans"
       d="m 91.25,558.36218 c -20.688469,0 -40.402526,4.21479 -58.34375,11.8125 -7.434332,3.14828 -14.577367,6.86858 -21.34375,11.125 1.214754,5.08707 2.675344,10.07428 4.34375,14.96875 7.128094,-4.79418 14.74143,-8.93075 22.75,-12.3125 16.157159,-6.82261 33.931931,-10.59375 52.59375,-10.59375 18.66182,0 36.43659,3.77114 52.59375,10.59375 16.15715,6.82262 30.6967,16.69671 42.90625,28.90625 12.20954,12.20954 22.08363,26.7491 28.90625,42.90625 5.93093,14.0455 9.52896,29.30299 10.375,45.3125 14.97829,-4.90738 29.03645,-11.86842 41.8125,-20.5625 -3.43809,-1.37984 -7.18301,-2.15625 -11.09375,-2.15625 -3.25241,0 -6.37507,0.52356 -9.3125,1.5 -2.93744,0.97644 -5.68966,2.40575 -8.15625,4.1875 -0.14936,-0.91352 -0.30162,-1.83674 -0.46875,-2.75 -0.16713,-0.91327 -0.34912,-1.81657 -0.53125,-2.71875 2.67643,-1.65694 5.58899,-2.9533 8.6875,-3.84375 3.09851,-0.89045 6.38296,-1.375 9.78125,-1.375 4.8547,0 9.46494,0.98564 13.65625,2.75 0.74482,0.31354 1.47045,0.66883 2.1875,1.03125 4.29418,-3.14648 8.43768,-6.46679 12.40625,-10 -2.76018,-1.90391 -5.72485,-3.55001 -8.84375,-4.875 -5.97538,-2.53848 -12.5249,-3.9375 -19.40625,-3.9375 -4.00667,0 -7.88945,0.47762 -11.625,1.375 -3.73555,0.89738 -7.32387,2.21452 -10.6875,3.90625 -0.25291,-0.80815 -0.51586,-1.60421 -0.78125,-2.40625 -0.26539,-0.80205 -0.5332,-1.61007 -0.8125,-2.40625 3.61287,-1.73953 7.43705,-3.10676 11.4375,-4.03125 4.00045,-0.92449 8.17718,-1.40625 12.46875,-1.40625 7.61612,0 14.8499,1.53962 21.4375,4.3125 3.77451,1.58878 7.34,3.5868 10.625,5.9375 3.63723,-3.44511 7.12159,-7.05516 10.4375,-10.8125 -4.67165,-3.58227 -9.79225,-6.61121 -15.28125,-8.9375 -8.37167,-3.54798 -17.57597,-5.5 -27.21875,-5.5 -5.27775,0 -10.4273,0.57309 -15.375,1.6875 -4.94769,1.1144 -9.69352,2.77012 -14.1875,4.875 -0.35648,-0.7614 -0.72345,-1.5256 -1.09375,-2.28125 -0.3703,-0.75566 -0.74394,-1.50276 -1.125,-2.25 4.82241,-2.25189 9.93187,-4.02391 15.25,-5.21875 5.31813,-1.19484 10.84494,-1.8125 16.53125,-1.8125 10.37754,0 20.24266,2.08578 29.21875,5.875 5.96985,2.52015 11.53622,5.8163 16.59375,9.71875 3.18042,-3.83105 6.16686,-7.79757 9,-11.90625 -6.04879,-4.6629 -12.6918,-8.57323 -19.8125,-11.59375 -10.76015,-4.56432 -22.5958,-7.09375 -35,-7.09375 -7.03381,0 -13.86759,0.80876 -20.4375,2.34375 -6.5699,1.53499 -12.87593,3.79621 -18.8125,6.6875 -0.4643,-0.72182 -0.92559,-1.41911 -1.40625,-2.125 -0.48065,-0.70589 -0.98066,-1.42037 -1.46875,-2.125 6.34583,-3.13948 13.10454,-5.58175 20.15625,-7.25 7.05171,-1.66826 14.39642,-2.5625 21.96875,-2.5625 13.13897,0 25.65887,2.66416 37.03125,7.46875 7.41431,3.13238 14.31811,7.18178 20.625,12 2.71048,-4.19908 5.22979,-8.52221 7.5625,-12.96875 -6.90978,-5.10339 -14.42899,-9.42023 -22.4375,-12.8125 -13.15645,-5.57286 -27.61563,-8.65625 -42.78125,-8.65625 -9.27256,0 -18.26717,1.14199 -26.875,3.3125 -8.60784,2.1705 -16.82889,5.36952 -24.5,9.4375 -0.56278,-0.65949 -1.11505,-1.31694 -1.6875,-1.96875 -0.57246,-0.65182 -1.1651,-1.29801 -1.75,-1.9375 8.14355,-4.41501 16.8778,-7.86156 26.0625,-10.21875 9.1847,-2.35719 18.81985,-3.625 28.75,-3.625 15.90039,0 31.05163,3.21716 44.8125,9.03125 8.10073,3.42263 15.69569,7.7444 22.71875,12.84375 2.20786,-4.54489 4.23499,-9.20495 6.03125,-13.96875 -7.18698,-4.95376 -14.87127,-9.21064 -23,-12.65625 -15.54493,-6.58919 -32.63545,-10.25 -50.5625,-10.25 -12.01135,0 -23.64491,1.65117 -34.6875,4.71875 -11.04259,3.06757 -21.49421,7.55155 -31.15625,13.25 -0.66807,-0.59492 -1.32367,-1.19775 -2,-1.78125 -0.67633,-0.5835 -1.37339,-1.14766 -2.0625,-1.71875 10.19246,-6.1737 21.27278,-11.05124 33,-14.375 11.72723,-3.32376 24.10136,-5.09375 36.90625,-5.09375 18.66182,0 36.43659,3.77114 52.59375,10.59375 8.00857,3.38175 15.62191,7.51832 22.75,12.3125 1.66841,-4.89447 3.129,-9.88168 4.34375,-14.96875 -6.76638,-4.25642 -13.90942,-7.97673 -21.34375,-11.125 -17.94122,-7.59772 -37.65528,-11.8125 -58.34375,-11.8125 -15.28634,0 -30.03791,2.29658 -43.9375,6.5625 -13.89959,4.26593 -26.94719,10.50122 -38.8125,18.375 -11.86532,-7.87378 -24.91292,-14.10907 -38.8125,-18.375 -13.89959,-4.26592 -28.65116,-6.5625 -43.9375,-6.5625 z m 0,20 c -17.927045,0 -35.017571,3.66081 -50.5625,10.25 -8.128725,3.44561 -15.813021,7.70249 -23,12.65625 1.796261,4.7638 3.82339,9.42386 6.03125,13.96875 7.023065,-5.09935 14.618019,-9.42112 22.71875,-12.84375 13.760863,-5.81409 28.912104,-9.03125 44.8125,-9.03125 15.9004,0 31.05163,3.21716 44.8125,9.03125 13.76086,5.81408 26.13135,14.22509 36.53125,24.625 10.3999,10.3999 18.81091,22.77038 24.625,36.53125 5.55397,13.14522 8.72645,27.56497 9,42.6875 5.0539,-0.98794 10.02668,-2.19231 14.90625,-3.625 -0.69245,-15.83145 -4.24401,-30.93833 -10.125,-44.8125 -6.5892,-15.54493 -16.10677,-29.54426 -27.875,-41.3125 -11.76824,-11.76824 -25.76757,-21.28581 -41.3125,-27.875 -15.54493,-6.58919 -32.63545,-10.25 -50.5625,-10.25 z m 0,20 c -15.165622,0 -29.624804,3.0834 -42.78125,8.65625 -8.008517,3.39227 -15.527723,7.7091 -22.4375,12.8125 2.332708,4.44654 4.852023,8.76967 7.5625,12.96875 6.306888,-4.81822 13.210691,-8.86762 20.625,-12 11.37238,-4.80459 23.892279,-7.46875 37.03125,-7.46875 13.13898,0 25.65887,2.66416 37.03125,7.46875 11.37238,4.80458 21.59724,11.74959 30.1875,20.34375 8.59026,8.59416 15.546,18.8161 20.34375,30.1875 4.79775,11.37141 7.4375,23.89227 7.4375,37.03125 0,0.17668 9.6e-4,0.3548 0,0.53125 5.06365,-0.36732 10.07159,-0.94115 15,-1.75 -0.16031,-14.72215 -3.23265,-28.75841 -8.65625,-41.5625 C 187.02089,652.42449 178.95859,640.57077 169,630.61218 159.0414,620.65359 147.18769,612.59128 134.03125,607.01843 120.8748,601.44557 106.41562,598.36218 91.25,598.36218 z m 0,20 c -12.404199,0 -24.23985,2.52943 -35,7.09375 -7.120696,3.02052 -13.763707,6.93085 -19.8125,11.59375 2.833137,4.10868 5.819579,8.0752 9,11.90625 5.057527,-3.90245 10.623899,-7.1986 16.59375,-9.71875 8.976085,-3.78922 18.841203,-5.875 29.21875,-5.875 10.37754,0 20.24266,2.08578 29.21875,5.875 8.97608,3.78922 17.06313,9.28188 23.84375,16.0625 6.78061,6.78061 12.27328,14.86767 16.0625,23.84375 3.78922,8.97609 5.875,18.8412 5.875,29.21875 0,0.27209 -0.0284,0.54111 -0.0312,0.8125 2.57948,0.11833 5.17253,0.1875 7.78125,0.1875 2.42975,0 4.84554,-0.0535 7.25,-0.15625 0.003,-0.28221 0,-0.56094 0,-0.84375 0,-12.4042 -2.52943,-24.23985 -7.09375,-35 -4.56433,-10.76015 -11.16355,-20.4448 -19.3125,-28.59375 -8.14895,-8.14895 -17.8336,-14.74817 -28.59375,-19.3125 -10.76015,-4.56432 -22.5958,-7.09375 -35,-7.09375 z m 0,20 c -9.642775,0 -18.847083,1.95202 -27.21875,5.5 -5.489004,2.32629 -10.609605,5.35523 -15.28125,8.9375 3.315913,3.75734 6.800272,7.36739 10.4375,10.8125 3.285,-2.3507 6.850489,-4.34872 10.625,-5.9375 6.587601,-2.77288 13.821376,-4.3125 21.4375,-4.3125 7.61612,0 14.8499,1.53962 21.4375,4.3125 6.5876,2.77288 12.52903,6.77903 17.5,11.75 4.97097,4.97097 8.97711,10.9124 11.75,17.5 2.6129,6.20753 4.11578,12.98913 4.28125,20.125 4.939,0.82706 9.95544,1.42912 15.03125,1.8125 0.001,-0.16732 0,-0.33241 0,-0.5 0,-9.64278 -1.95201,-18.84708 -5.5,-27.21875 -3.54798,-8.37166 -8.69194,-15.9107 -15.03125,-22.25 -6.33931,-6.33931 -13.87834,-11.48326 -22.25,-15.03125 -8.37167,-3.54798 -17.57597,-5.5 -27.21875,-5.5 z m 0,19.96875 c -6.88135,0 -13.430878,1.39902 -19.40625,3.9375 -3.118902,1.32498 -6.083573,2.97108 -8.84375,4.875 3.968567,3.53321 8.112074,6.85352 12.40625,10 0.717053,-0.36242 1.442681,-0.71771 2.1875,-1.03125 4.191306,-1.76435 8.801549,-2.75 13.65625,-2.75 4.8547,0 9.46494,0.98564 13.65625,2.75 4.1913,1.76436 7.96367,4.30742 11.125,7.46875 3.16133,3.16133 5.70439,6.9337 7.46875,11.125 1.0084,2.3955 1.76098,4.92465 2.21875,7.5625 5.05974,1.52578 10.21901,2.79765 15.46875,3.84375 -0.27204,-6.06206 -1.61428,-11.86193 -3.875,-17.1875 -2.53946,-5.98221 -6.22034,-11.37268 -10.75,-15.90625 -4.52966,-4.53357 -9.93088,-8.21151 -15.90625,-10.75 -5.97538,-2.53848 -12.5249,-3.9375 -19.40625,-3.9375 z m 0,20.03125 c -3.91074,0 -7.655656,0.77641 -11.09375,2.15625 12.269317,8.34925 25.71866,15.09951 40.03125,19.96875 -0.35353,-1.28872 -0.79661,-2.56634 -1.3125,-3.78125 -1.52312,-3.58689 -3.71748,-6.81124 -6.4375,-9.53125 -2.72002,-2.72002 -5.94436,-4.91438 -9.53125,-6.4375 -3.58689,-1.52312 -7.53632,-2.375 -11.65625,-2.375 z"
       id="path3753" />
    <path
       inkscape:connector-curvature="0"
       id="path3906"
       d="m 91.25,558.36218 c -20.688469,0 -40.402526,4.21479 -58.34375,11.8125 -7.434332,3.14828 -14.577367,6.86858 -21.34375,11.125 1.214754,5.08707 2.675344,10.07428 4.34375,14.96875 7.128094,-4.79418 14.74143,-8.93075 22.75,-12.3125 16.157159,-6.82261 33.931931,-10.59375 52.59375,-10.59375 18.66182,0 36.43659,3.77114 52.59375,10.59375 16.15715,6.82262 30.6967,16.69671 42.90625,28.90625 12.20954,12.20954 22.08363,26.7491 28.90625,42.90625 5.93093,14.0455 9.52896,29.30299 10.375,45.3125 14.97829,-4.90738 29.03645,-11.86842 41.8125,-20.5625 -3.43809,-1.37984 -7.18301,-2.15625 -11.09375,-2.15625 -3.25241,0 -6.37507,0.52356 -9.3125,1.5 -2.93744,0.97644 -5.68966,2.40575 -8.15625,4.1875 -0.14936,-0.91352 -0.30162,-1.83674 -0.46875,-2.75 -0.16713,-0.91327 -0.34912,-1.81657 -0.53125,-2.71875 2.67643,-1.65694 5.58899,-2.9533 8.6875,-3.84375 3.09851,-0.89045 6.38296,-1.375 9.78125,-1.375 4.8547,0 9.46494,0.98564 13.65625,2.75 0.74482,0.31354 1.47045,0.66883 2.1875,1.03125 4.29418,-3.14648 8.43768,-6.46679 12.40625,-10 -2.76018,-1.90391 -5.72485,-3.55001 -8.84375,-4.875 -5.97538,-2.53848 -12.5249,-3.9375 -19.40625,-3.9375 -4.00667,0 -7.88945,0.47762 -11.625,1.375 -3.73555,0.89738 -7.32387,2.21452 -10.6875,3.90625 -0.25291,-0.80815 -0.51586,-1.60421 -0.78125,-2.40625 -0.26539,-0.80205 -0.5332,-1.61007 -0.8125,-2.40625 3.61287,-1.73953 7.43705,-3.10676 11.4375,-4.03125 4.00045,-0.92449 8.17718,-1.40625 12.46875,-1.40625 7.61612,0 14.8499,1.53962 21.4375,4.3125 3.77451,1.58878 7.34,3.5868 10.625,5.9375 3.63723,-3.44511 7.12159,-7.05516 10.4375,-10.8125 -4.67165,-3.58227 -9.79225,-6.61121 -15.28125,-8.9375 -8.37167,-3.54798 -17.57597,-5.5 -27.21875,-5.5 -5.27775,0 -10.4273,0.57309 -15.375,1.6875 -4.94769,1.1144 -9.69352,2.77012 -14.1875,4.875 -0.35648,-0.7614 -0.72345,-1.5256 -1.09375,-2.28125 -0.3703,-0.75566 -0.74394,-1.50276 -1.125,-2.25 4.82241,-2.25189 9.93187,-4.02391 15.25,-5.21875 5.31813,-1.19484 10.84494,-1.8125 16.53125,-1.8125 10.37754,0 20.24266,2.08578 29.21875,5.875 5.96985,2.52015 11.53622,5.8163 16.59375,9.71875 3.18042,-3.83105 6.16686,-7.79757 9,-11.90625 -6.04879,-4.6629 -12.6918,-8.57323 -19.8125,-11.59375 -10.76015,-4.56432 -22.5958,-7.09375 -35,-7.09375 -7.03381,0 -13.86759,0.80876 -20.4375,2.34375 -6.5699,1.53499 -12.87593,3.79621 -18.8125,6.6875 -0.4643,-0.72182 -0.92559,-1.41911 -1.40625,-2.125 -0.48065,-0.70589 -0.98066,-1.42037 -1.46875,-2.125 6.34583,-3.13948 13.10454,-5.58175 20.15625,-7.25 7.05171,-1.66826 14.39642,-2.5625 21.96875,-2.5625 13.13897,0 25.65887,2.66416 37.03125,7.46875 7.41431,3.13238 14.31811,7.18178 20.625,12 2.71048,-4.19908 5.22979,-8.52221 7.5625,-12.96875 -6.90978,-5.10339 -14.42899,-9.42023 -22.4375,-12.8125 -13.15645,-5.57286 -27.61563,-8.65625 -42.78125,-8.65625 -9.27256,0 -18.26717,1.14199 -26.875,3.3125 -8.60784,2.1705 -16.82889,5.36952 -24.5,9.4375 -0.56278,-0.65949 -1.11505,-1.31694 -1.6875,-1.96875 -0.57246,-0.65182 -1.1651,-1.29801 -1.75,-1.9375 8.14355,-4.41501 16.8778,-7.86156 26.0625,-10.21875 9.1847,-2.35719 18.81985,-3.625 28.75,-3.625 15.90039,0 31.05163,3.21716 44.8125,9.03125 8.10073,3.42263 15.69569,7.7444 22.71875,12.84375 2.20786,-4.54489 4.23499,-9.20495 6.03125,-13.96875 -7.18698,-4.95376 -14.87127,-9.21064 -23,-12.65625 -15.54493,-6.58919 -32.63545,-10.25 -50.5625,-10.25 -12.01135,0 -23.64491,1.65117 -34.6875,4.71875 -11.04259,3.06757 -21.49421,7.55155 -31.15625,13.25 -0.66807,-0.59492 -1.32367,-1.19775 -2,-1.78125 -0.67633,-0.5835 -1.37339,-1.14766 -2.0625,-1.71875 10.19246,-6.1737 21.27278,-11.05124 33,-14.375 11.72723,-3.32376 24.10136,-5.09375 36.90625,-5.09375 18.66182,0 36.43659,3.77114 52.59375,10.59375 8.00857,3.38175 15.62191,7.51832 22.75,12.3125 1.66841,-4.89447 3.129,-9.88168 4.34375,-14.96875 -6.76638,-4.25642 -13.90942,-7.97673 -21.34375,-11.125 -17.94122,-7.59772 -37.65528,-11.8125 -58.34375,-11.8125 -15.28634,0 -30.03791,2.29658 -43.9375,6.5625 -13.89959,4.26593 -26.94719,10.50122 -38.8125,18.375 -11.86532,-7.87378 -24.91292,-14.10907 -38.8125,-18.375 -13.89959,-4.26592 -28.65116,-6.5625 -43.9375,-6.5625 z m 0,20 c -17.927045,0 -35.017571,3.66081 -50.5625,10.25 -8.128725,3.44561 -15.813021,7.70249 -23,12.65625 1.796261,4.7638 3.82339,9.42386 6.03125,13.96875 7.023065,-5.09935 14.618019,-9.42112 22.71875,-12.84375 13.760863,-5.81409 28.912104,-9.03125 44.8125,-9.03125 15.9004,0 31.05163,3.21716 44.8125,9.03125 13.76086,5.81408 26.13135,14.22509 36.53125,24.625 10.3999,10.3999 18.81091,22.77038 24.625,36.53125 5.55397,13.14522 8.72645,27.56497 9,42.6875 5.0539,-0.98794 10.02668,-2.19231 14.90625,-3.625 -0.69245,-15.83145 -4.24401,-30.93833 -10.125,-44.8125 -6.5892,-15.54493 -16.10677,-29.54426 -27.875,-41.3125 -11.76824,-11.76824 -25.76757,-21.28581 -41.3125,-27.875 -15.54493,-6.58919 -32.63545,-10.25 -50.5625,-10.25 z m 0,20 c -15.165622,0 -29.624804,3.0834 -42.78125,8.65625 -8.008517,3.39227 -15.527723,7.7091 -22.4375,12.8125 2.332708,4.44654 4.852023,8.76967 7.5625,12.96875 6.306888,-4.81822 13.210691,-8.86762 20.625,-12 11.37238,-4.80459 23.892279,-7.46875 37.03125,-7.46875 13.13898,0 25.65887,2.66416 37.03125,7.46875 11.37238,4.80458 21.59724,11.74959 30.1875,20.34375 8.59026,8.59416 15.546,18.8161 20.34375,30.1875 4.79775,11.37141 7.4375,23.89227 7.4375,37.03125 0,0.17668 9.6e-4,0.3548 0,0.53125 5.06365,-0.36732 10.07159,-0.94115 15,-1.75 -0.16031,-14.72215 -3.23265,-28.75841 -8.65625,-41.5625 C 187.02089,652.42449 178.95859,640.57077 169,630.61218 159.0414,620.65359 147.18769,612.59128 134.03125,607.01843 120.8748,601.44557 106.41562,598.36218 91.25,598.36218 z m 0,20 c -12.404199,0 -24.23985,2.52943 -35,7.09375 -7.120696,3.02052 -13.763707,6.93085 -19.8125,11.59375 2.833137,4.10868 5.819579,8.0752 9,11.90625 5.057527,-3.90245 10.623899,-7.1986 16.59375,-9.71875 8.976085,-3.78922 18.841203,-5.875 29.21875,-5.875 10.37754,0 20.24266,2.08578 29.21875,5.875 8.97608,3.78922 17.06313,9.28188 23.84375,16.0625 6.78061,6.78061 12.27328,14.86767 16.0625,23.84375 3.78922,8.97609 5.875,18.8412 5.875,29.21875 0,0.27209 -0.0284,0.54111 -0.0312,0.8125 2.57948,0.11833 5.17253,0.1875 7.78125,0.1875 2.42975,0 4.84554,-0.0535 7.25,-0.15625 0.003,-0.28221 0,-0.56094 0,-0.84375 0,-12.4042 -2.52943,-24.23985 -7.09375,-35 -4.56433,-10.76015 -11.16355,-20.4448 -19.3125,-28.59375 -8.14895,-8.14895 -17.8336,-14.74817 -28.59375,-19.3125 -10.76015,-4.56432 -22.5958,-7.09375 -35,-7.09375 z m 0,20 c -9.642775,0 -18.847083,1.95202 -27.21875,5.5 -5.489004,2.32629 -10.609605,5.35523 -15.28125,8.9375 3.315913,3.75734 6.800272,7.36739 10.4375,10.8125 3.285,-2.3507 6.850489,-4.34872 10.625,-5.9375 6.587601,-2.77288 13.821376,-4.3125 21.4375,-4.3125 7.61612,0 14.8499,1.53962 21.4375,4.3125 6.5876,2.77288 12.52903,6.77903 17.5,11.75 4.97097,4.97097 8.97711,10.9124 11.75,17.5 2.6129,6.20753 4.11578,12.98913 4.28125,20.125 4.939,0.82706 9.95544,1.42912 15.03125,1.8125 0.001,-0.16732 0,-0.33241 0,-0.5 0,-9.64278 -1.95201,-18.84708 -5.5,-27.21875 -3.54798,-8.37166 -8.69194,-15.9107 -15.03125,-22.25 -6.33931,-6.33931 -13.87834,-11.48326 -22.25,-15.03125 -8.37167,-3.54798 -17.57597,-5.5 -27.21875,-5.5 z m 0,19.96875 c -6.88135,0 -13.430878,1.39902 -19.40625,3.9375 -3.118902,1.32498 -6.083573,2.97108 -8.84375,4.875 3.968567,3.53321 8.112074,6.85352 12.40625,10 0.717053,-0.36242 1.442681,-0.71771 2.1875,-1.03125 4.191306,-1.76435 8.801549,-2.75 13.65625,-2.75 4.8547,0 9.46494,0.98564 13.65625,2.75 4.1913,1.76436 7.96367,4.30742 11.125,7.46875 3.16133,3.16133 5.70439,6.9337 7.46875,11.125 1.0084,2.3955 1.76098,4.92465 2.21875,7.5625 5.05974,1.52578 10.21901,2.79765 15.46875,3.84375 -0.27204,-6.06206 -1.61428,-11.86193 -3.875,-17.1875 -2.53946,-5.98221 -6.22034,-11.37268 -10.75,-15.90625 -4.52966,-4.53357 -9.93088,-8.21151 -15.90625,-10.75 -5.97538,-2.53848 -12.5249,-3.9375 -19.40625,-3.9375 z m 0,20.03125 c -3.91074,0 -7.655656,0.77641 -11.09375,2.15625 12.269317,8.34925 25.71866,15.09951 40.03125,19.96875 -0.35353,-1.28872 -0.79661,-2.56634 -1.3125,-3.78125 -1.52312,-3.58689 -3.71748,-6.81124 -6.4375,-9.53125 -2.72002,-2.72002 -5.94436,-4.91438 -9.53125,-6.4375 -3.58689,-1.52312 -7.53632,-2.375 -11.65625,-2.375 z"
       style="font-size:medium;font-style:normal;font-variant:normal;font-weight:normal;font-stretch:normal;text-indent:0;text-align:start;text-decoration:none;line-height:normal;letter-spacing:normal;word-spacing:normal;text-transform:none;direction:ltr;block-progression:tb;writing-mode:lr-tb;text-anchor:start;baseline-shift:baseline;color:#000000;fill:#000000;fill-opacity:1;stroke:none;stroke-width:20.84210587;marker:none;visibility:visible;display:inline;overflow:visible;enable-background:accumulate;font-family:Sans;-inkscape-font-specification:Sans" />
    <path
       sodipodi:type="arc"
       style="fill:none;stroke:#000000;stroke-width:15;stroke-miterlimit:4;stroke-opacity:1;stroke-dasharray:none;stroke-dashoffset:0"
       id="path3969"
       sodipodi:cx="-98"
       sodipodi:cy="531.36218"
       sodipodi:rx="225"
       sodipodi:ry="225"
       d="m 127,531.36218 a 225,225 0 1 1 -450,0 225,225 0 1 1 450,0 z"
       transform="matrix(0.80215054,0,0,0.80215054,252.61075,116.12972)" />
  </g>
</svg>
