<?xml version="1.0" encoding="UTF-8" standalone="no"?>
<!-- Created with Inkscape (http://www.inkscape.org/) -->

<svg
   xmlns:dc="http://purl.org/dc/elements/1.1/"
   xmlns:cc="http://creativecommons.org/ns#"
   xmlns:rdf="http://www.w3.org/1999/02/22-rdf-syntax-ns#"
   xmlns:svg="http://www.w3.org/2000/svg"
   xmlns="http://www.w3.org/2000/svg"
   xmlns:sodipodi="http://sodipodi.sourceforge.net/DTD/sodipodi-0.dtd"
   xmlns:inkscape="http://www.inkscape.org/namespaces/inkscape"
   width="744.09448819"
   height="1052.3622047"
   id="svg2"
   version="1.1"
   inkscape:version="0.48.4 r9939"
   sodipodi:docname="serenity_now_3.svg">
  <defs
     id="defs4" />
  <sodipodi:namedview
     id="base"
     pagecolor="#ffffff"
     bordercolor="#666666"
     borderopacity="1.0"
     inkscape:pageopacity="0.0"
     inkscape:pageshadow="2"
     inkscape:zoom="0.70710678"
     inkscape:cx="15.47721"
     inkscape:cy="476.76184"
     inkscape:document-units="px"
     inkscape:current-layer="layer1"
     showgrid="false"
     showborder="true"
     inkscape:showpageshadow="false"
     inkscape:window-width="1879"
     inkscape:window-height="1056"
     inkscape:window-x="41"
     inkscape:window-y="24"
     inkscape:window-maximized="1" />
  <metadata
     id="metadata7">
    <rdf:RDF>
      <cc:Work
         rdf:about="">
        <dc:format>image/svg+xml</dc:format>
        <dc:type
           rdf:resource="http://purl.org/dc/dcmitype/StillImage" />
        <dc:title />
      </cc:Work>
    </rdf:RDF>
  </metadata>
  <g
     inkscape:label="Layer 1"
     inkscape:groupmode="layer"
     id="layer1">
    <path
       style="fill:#1a1a1a;stroke:none"
       d="M 387,166.15625 376.46875,210.875 c 2.43394,-0.0788 4.87306,-0.12373 7.3125,-0.125 4.59766,-0.0661 9.19108,0.003 13.78125,0.1875 L 387,166.15625 z m -113.71875,22.625 7.375,45.4375 c 6.37054,-2.98423 12.87569,-5.70885 19.46875,-8.15625 l -26.84375,-37.28125 z m 227.4375,0 -26.75,37.15625 c 6.58053,2.39906 13.0704,5.07439 19.40625,8.03125 l 7.34375,-45.1875 z m -323.875,64.4375 L 201,292.25 c 4.78355,-5.1477 9.77391,-10.10743 14.96875,-14.84375 l -39.125,-24.1875 z m 420.3125,0 -39.1875,24.25 c 5.17962,4.78143 10.16327,9.78149 14.9375,14.96875 l 24.25,-39.21875 z M 112.4375,349.625 l 37.15625,26.78125 c 2.39914,-6.5955 5.09085,-13.06892 8.0625,-19.4375 L 112.4375,349.625 z m 549.125,0 -45.25,7.375 c 2.22088,4.74787 4.30592,9.55214 6.21875,14.4375 0.65597,1.63963 1.28857,3.28473 1.90625,4.9375 l 37.125,-26.75 z M 134.65625,452.8125 89.8125,463.375 l 44.875,10.59375 c -0.28789,-7.04914 -0.3163,-14.10635 -0.0312,-21.15625 z M 639.5,452.84375 c 0.25689,7.02858 0.22744,14.06425 -0.0937,21.09375 L 684.1875,463.375 639.5,452.84375 z m -15.25,97.375 c -2.38984,6.60858 -5.03794,13.11651 -7.96875,19.5 l 45.28125,7.375 -37.3125,-26.875 z m -474.6875,0.15625 -37.125,26.71875 45.09375,-7.34375 c -2.93479,-6.34083 -5.59258,-12.8072 -7.96875,-19.375 z M 201,634.4375 176.84375,673.5 l 39.125,-24.1875 C 210.76824,644.56498 205.78783,639.60216 201,634.4375 z m 372.0625,0.125 c -4.75497,5.15786 -9.69925,10.11623 -14.875,14.84375 L 597.15625,673.5 573.0625,634.5625 z m -79.71875,57.90625 c -6.39348,2.96515 -12.91642,5.65919 -19.53125,8.09375 l 26.90625,37.375 -7.375,-45.46875 z m -212.6875,0.0312 -7.375,45.4375 26.84375,-37.28125 c -6.59579,-2.4522 -13.09509,-5.16865 -19.46875,-8.1562 z m 116.875,23.4375 c -4.11899,0.17349 -8.24673,0.25737 -12.375,0.21875 -2.89259,0.005 -5.77089,-0.0534 -8.65625,-0.15625 l 10.5,44.5625 10.53125,-44.625 z"
       id="path2985"
       inkscape:connector-curvature="0" />
    <path
       sodipodi:type="arc"
       style="fill:none;stroke:#000000;stroke-width:3.78048801;stroke-miterlimit:4;stroke-opacity:1;stroke-dasharray:none"
       id="path3755"
       sodipodi:cx="107"
       sodipodi:cy="391.36218"
       sodipodi:rx="186"
       sodipodi:ry="186"
       d="m 293,391.36218 a 186,186 0 1 1 -372,0 186,186 0 1 1 372,0 z"
       transform="matrix(1.3225806,0,0,1.3225806,245.48387,-54.245865)" />
    <path
       sodipodi:type="arc"
       style="fill:#000000;fill-opacity:1;stroke:#000000;stroke-width:5;stroke-miterlimit:4;stroke-opacity:1;stroke-dasharray:none;stroke-dashoffset:0"
       id="path3766"
       sodipodi:cx="133"
       sodipodi:cy="391.36218"
       sodipodi:rx="209"
       sodipodi:ry="209"
       d="m 342,391.36218 a 209,209 0 1 1 -418,0 209,209 0 1 1 418,0 z"
       transform="matrix(1.1371158,0,0,1.1371158,235.76359,18.338029)" />
    <text
       xml:space="preserve"
       style="font-size:267.39331055px;font-style:normal;font-variant:normal;font-weight:normal;font-stretch:normal;text-align:start;line-height:125%;letter-spacing:0px;word-spacing:0px;writing-mode:lr-tb;text-anchor:start;fill:#ffffff;fill-opacity:1;stroke:none;font-family:League Gothic;-inkscape-font-specification:League Gothic"
       x="291.17291"
       y="561.62921"
       id="text3768"
       sodipodi:linespacing="125%"><tspan
         sodipodi:role="line"
         id="tspan3770"
         x="291.17291"
         y="561.62921">SN</tspan></text>
  </g>
</svg>
