<?xml version="1.0" encoding="UTF-8" standalone="no"?>
<!-- Created with Inkscape (http://www.inkscape.org/) -->

<svg
   xmlns:dc="http://purl.org/dc/elements/1.1/"
   xmlns:cc="http://creativecommons.org/ns#"
   xmlns:rdf="http://www.w3.org/1999/02/22-rdf-syntax-ns#"
   xmlns:svg="http://www.w3.org/2000/svg"
   xmlns="http://www.w3.org/2000/svg"
   xmlns:sodipodi="http://sodipodi.sourceforge.net/DTD/sodipodi-0.dtd"
   xmlns:inkscape="http://www.inkscape.org/namespaces/inkscape"
   width="420mm"
   height="297mm"
   viewBox="0 0 1488.189 1052.3622"
   id="svg5184"
   version="1.1"
   inkscape:version="0.91 r13725"
   sodipodi:docname="something___.svg">
  <defs
     id="defs5186" />
  <sodipodi:namedview
     id="base"
     pagecolor="#ffffff"
     bordercolor="#666666"
     borderopacity="1.0"
     inkscape:pageopacity="0.0"
     inkscape:pageshadow="2"
     inkscape:zoom="0.98994949"
     inkscape:cx="917.47749"
     inkscape:cy="778.13641"
     inkscape:document-units="px"
     inkscape:current-layer="layer1"
     showgrid="false"
     inkscape:object-nodes="true"
     inkscape:snap-object-midpoints="true"
     inkscape:window-width="1879"
     inkscape:window-height="1056"
     inkscape:window-x="41"
     inkscape:window-y="24"
     inkscape:window-maximized="1" />
  <metadata
     id="metadata5189">
    <rdf:RDF>
      <cc:Work
         rdf:about="">
        <dc:format>image/svg+xml</dc:format>
        <dc:type
           rdf:resource="http://purl.org/dc/dcmitype/StillImage" />
        <dc:title></dc:title>
      </cc:Work>
    </rdf:RDF>
  </metadata>
  <g
     inkscape:label="Layer 1"
     inkscape:groupmode="layer"
     id="layer1"
     transform="translate(0,-3.464567e-6)">
    <circle
       r="117.5"
       cy="25.493999"
       cx="759.64288"
       id="circle5744"
       style="opacity:1;fill:none;fill-opacity:1;stroke:#000000;stroke-width:15.00000095;stroke-linecap:round;stroke-linejoin:round;stroke-miterlimit:4;stroke-dasharray:none;stroke-opacity:1" />
    <circle
       style="opacity:1;fill:none;fill-opacity:1;stroke:#000000;stroke-width:15.00000095;stroke-linecap:round;stroke-linejoin:round;stroke-miterlimit:4;stroke-dasharray:none;stroke-opacity:1"
       id="circle5748"
       cx="1002.1429"
       cy="267.36215"
       r="117.5" />
    <circle
       r="117.5"
       cy="509.86215"
       cx="1244.011"
       id="circle5752"
       style="opacity:1;fill:none;fill-opacity:1;stroke:#000000;stroke-width:15.00000095;stroke-linecap:round;stroke-linejoin:round;stroke-miterlimit:4;stroke-dasharray:none;stroke-opacity:1" />
    <circle
       style="opacity:1;fill:none;fill-opacity:1;stroke:#000000;stroke-width:15.00000095;stroke-linecap:round;stroke-linejoin:round;stroke-miterlimit:4;stroke-dasharray:none;stroke-opacity:1"
       id="circle5756"
       cx="1002.1429"
       cy="752.36212"
       r="117.5" />
    <circle
       r="117.5"
       cy="994.23029"
       cx="759.64288"
       id="circle5760"
       style="opacity:1;fill:none;fill-opacity:1;stroke:#000000;stroke-width:15.00000095;stroke-linecap:round;stroke-linejoin:round;stroke-miterlimit:4;stroke-dasharray:none;stroke-opacity:1" />
    <circle
       style="opacity:1;fill:none;fill-opacity:1;stroke:#000000;stroke-width:15.00000095;stroke-linecap:round;stroke-linejoin:round;stroke-miterlimit:4;stroke-dasharray:none;stroke-opacity:1"
       id="circle5764"
       cx="517.14288"
       cy="752.36212"
       r="117.5" />
    <circle
       r="117.5"
       cy="509.86215"
       cx="275.27472"
       id="circle5768"
       style="opacity:1;fill:none;fill-opacity:1;stroke:#000000;stroke-width:15.00000095;stroke-linecap:round;stroke-linejoin:round;stroke-miterlimit:4;stroke-dasharray:none;stroke-opacity:1" />
    <circle
       style="opacity:1;fill:none;fill-opacity:1;stroke:#000000;stroke-width:15.00000095;stroke-linecap:round;stroke-linejoin:round;stroke-miterlimit:4;stroke-dasharray:none;stroke-opacity:1"
       id="circle5772"
       cx="517.14288"
       cy="267.36215"
       r="117.5" />
    <path
       style="opacity:1;fill:none;fill-opacity:1;stroke:#000000;stroke-width:14.99999905;stroke-linecap:round;stroke-linejoin:round;stroke-miterlimit:4;stroke-dasharray:none;stroke-opacity:1"
       d="M 492.14258 242.36133 L 492.14258 777.36133 L 1027.1426 777.36133 L 1027.1426 407.61328 A 142.5 142.5 0 0 1 1002.1426 409.86133 A 142.5 142.5 0 0 1 859.64258 267.36133 A 142.5 142.5 0 0 1 861.98242 242.36133 L 492.14258 242.36133 z "
       transform="translate(0,3.464567e-6)"
       id="path5852" />
    <path
       style="opacity:1;fill:none;fill-opacity:1;stroke:#000000;stroke-width:14.99999905;stroke-linecap:round;stroke-linejoin:round;stroke-miterlimit:4;stroke-dasharray:none;stroke-opacity:1"
       d="M 467.14258 217.36133 L 467.14258 802.36133 L 1052.1426 802.36133 L 1052.1426 400.7207 A 142.5 142.5 0 0 1 1002.1426 409.86133 A 142.5 142.5 0 0 1 859.64258 267.36133 A 142.5 142.5 0 0 1 868.88672 217.36133 L 467.14258 217.36133 z "
       transform="translate(0,3.464567e-6)"
       id="path5854" />
    <path
       style="opacity:1;fill:none;fill-opacity:1;stroke:#000000;stroke-width:14.99999905;stroke-linecap:round;stroke-linejoin:round;stroke-miterlimit:4;stroke-dasharray:none;stroke-opacity:1"
       d="M 442.14258 192.36133 L 442.14258 827.36133 L 1077.1426 827.36133 L 1077.1426 388.41602 A 142.5 142.5 0 0 1 1002.1426 409.86133 A 142.5 142.5 0 0 1 859.64258 267.36133 A 142.5 142.5 0 0 1 881.18555 192.36133 L 442.14258 192.36133 z "
       id="path5856"
       transform="translate(0,3.464567e-6)" />
    <path
       style="opacity:1;fill:none;fill-opacity:1;stroke:#000000;stroke-width:14.99999905;stroke-linecap:round;stroke-linejoin:round;stroke-miterlimit:4;stroke-dasharray:none;stroke-opacity:1"
       d="M 417.53906 166.93555 L 417.53906 851.93555 L 1102.5391 851.93555 L 1102.5391 368.38867 A 142.5 142.5 0 0 1 1092.3652 377.54297 A 142.5 142.5 0 0 1 1091.8906 377.96094 A 142.5 142.5 0 0 1 1081.4551 385.61328 A 142.5 142.5 0 0 1 1080.3203 386.42578 A 142.5 142.5 0 0 1 1069.9316 392.55078 A 142.5 142.5 0 0 1 1067.9453 393.69141 A 142.5 142.5 0 0 1 1057.7246 398.41211 A 142.5 142.5 0 0 1 1054.916 399.66797 A 142.5 142.5 0 0 1 1045.1367 403.05078 A 142.5 142.5 0 0 1 1041.332 404.31445 A 142.5 142.5 0 0 1 1032.1738 406.48438 A 142.5 142.5 0 0 1 1027.3535 407.56641 A 142.5 142.5 0 0 1 1018.9043 408.69531 A 142.5 142.5 0 0 1 1013.0508 409.40625 A 142.5 142.5 0 0 1 1002.1426 409.86133 A 142.5 142.5 0 0 1 973.83203 407.02148 A 142.5 142.5 0 0 1 946.65039 398.61328 A 142.5 142.5 0 0 1 910.3418 376.35156 A 142.5 142.5 0 0 1 899.91992 366.64258 A 142.5 142.5 0 0 1 885.6875 349.18555 A 142.5 142.5 0 0 1 882.23242 344.35352 A 142.5 142.5 0 0 1 875.14648 332 A 142.5 142.5 0 0 1 875.14648 331.99805 A 142.5 142.5 0 0 1 873.34766 327.97852 A 142.5 142.5 0 0 1 864.83594 305.48047 A 142.5 142.5 0 0 1 859.64258 267.36133 A 142.5 142.5 0 0 1 901.1875 166.93555 L 417.53906 166.93555 z "
       transform="translate(0,3.464567e-6)"
       id="path5858" />
    <path
       style="opacity:1;fill:none;fill-opacity:1;stroke:#000000;stroke-width:14.99999905;stroke-linecap:round;stroke-linejoin:round;stroke-miterlimit:4;stroke-dasharray:none;stroke-opacity:1"
       d="M 392.14258 142.36133 L 392.14258 199.24414 A 142.5 142.5 0 0 1 448.73438 142.36133 L 392.14258 142.36133 z M 585.31641 142.36133 A 142.5 142.5 0 0 1 618.16992 166.9668 L 642.77539 142.36133 L 585.31641 142.36133 z M 876.50977 142.36133 L 901.13672 166.98828 A 142.5 142.5 0 0 1 902.30859 165.90625 A 142.5 142.5 0 0 1 905.12891 163.30469 A 142.5 142.5 0 0 1 912.50391 156.84375 A 142.5 142.5 0 0 1 916.50977 153.79102 A 142.5 142.5 0 0 1 924.24414 148.27344 A 142.5 142.5 0 0 1 929.75 144.88867 A 142.5 142.5 0 0 1 933.86914 142.36133 L 876.50977 142.36133 z M 1070.5508 142.36133 A 142.5 142.5 0 0 1 1074.4219 144.74805 A 142.5 142.5 0 0 1 1081.2012 148.92773 A 142.5 142.5 0 0 1 1085.6211 152.08789 A 142.5 142.5 0 0 1 1092.9199 157.66602 A 142.5 142.5 0 0 1 1096.1191 160.47656 A 142.5 142.5 0 0 1 1103.6562 167.53516 A 142.5 142.5 0 0 1 1105.8125 169.84961 A 142.5 142.5 0 0 1 1113.3281 178.44922 A 142.5 142.5 0 0 1 1114.5898 180.10938 A 142.5 142.5 0 0 1 1121.8242 190.28125 A 142.5 142.5 0 0 1 1122.6973 191.70312 A 142.5 142.5 0 0 1 1127.1426 198.95312 L 1127.1426 142.36133 L 1070.5508 142.36133 z M 392.14258 335.63477 L 392.14258 392.99414 L 416.76953 368.36719 A 142.5 142.5 0 0 1 392.14258 335.63477 z M 1127.1426 335.77148 A 142.5 142.5 0 0 1 1121.7754 344.50977 A 142.5 142.5 0 0 1 1120.4512 346.66797 A 142.5 142.5 0 0 1 1112.9902 356.70703 A 142.5 142.5 0 0 1 1112.0059 358.00195 A 142.5 142.5 0 0 1 1103.0039 367.87891 A 142.5 142.5 0 0 1 1102.5391 368.38867 L 1127.1426 392.99219 L 1127.1426 335.77148 z M 392.14258 626.73047 L 392.14258 684.1875 A 142.5 142.5 0 0 1 416.74609 651.33398 L 392.14258 626.73047 z M 1127.1426 626.73047 L 1102.5156 651.35742 A 142.5 142.5 0 0 1 1127.1426 684.09375 L 1127.1426 626.73047 z M 1127.1426 820.48047 A 142.5 142.5 0 0 1 1070.5508 877.36133 L 1127.1426 877.36133 L 1127.1426 820.48047 z M 392.14258 820.76953 L 392.14258 877.36133 L 449.02539 877.36133 A 142.5 142.5 0 0 1 392.14258 820.76953 z M 618.14844 852.73633 A 142.5 142.5 0 0 1 585.41602 877.36133 L 642.77344 877.36133 L 618.14844 852.73633 z M 901.11523 852.75781 L 876.51172 877.36133 L 933.96875 877.36133 A 142.5 142.5 0 0 1 901.11523 852.75781 z "
       transform="translate(0,3.464567e-6)"
       id="path5860" />
    <path
       style="opacity:1;fill:none;fill-opacity:1;stroke:#000000;stroke-width:14.99999905;stroke-linecap:round;stroke-linejoin:round;stroke-miterlimit:4;stroke-dasharray:none;stroke-opacity:1"
       d="M 367.14258 117.36133 L 367.14258 401.16211 A 142.5 142.5 0 0 1 375.97461 409.16211 L 416.76953 368.36719 A 142.5 142.5 0 0 1 374.64258 267.36133 A 142.5 142.5 0 0 1 517.14258 124.86133 A 142.5 142.5 0 0 1 618.16992 166.9668 L 658.94336 126.19336 A 142.5 142.5 0 0 1 650.82227 117.36133 L 367.14258 117.36133 z M 868.3418 117.36133 A 142.5 142.5 0 0 1 860.3418 126.19336 L 901.13672 166.98828 A 142.5 142.5 0 0 1 1002.1426 124.86133 A 142.5 142.5 0 0 1 1144.6426 267.36133 A 142.5 142.5 0 0 1 1102.5391 368.38867 L 1143.3125 409.16211 A 142.5 142.5 0 0 1 1152.1426 401.04297 L 1152.1426 117.36133 L 868.3418 117.36133 z M 375.97461 610.5625 A 142.5 142.5 0 0 1 367.14258 618.68359 L 367.14258 902.36133 L 650.94531 902.36133 A 142.5 142.5 0 0 1 658.94336 893.53125 L 618.14844 852.73633 A 142.5 142.5 0 0 1 517.14258 894.86133 A 142.5 142.5 0 0 1 374.64258 752.36133 A 142.5 142.5 0 0 1 416.74609 651.33398 L 375.97461 610.5625 z M 1143.3105 610.5625 L 1102.5156 651.35742 A 142.5 142.5 0 0 1 1144.6426 752.36133 A 142.5 142.5 0 0 1 1002.1426 894.86133 A 142.5 142.5 0 0 1 901.11523 852.75781 L 860.3418 893.53125 A 142.5 142.5 0 0 1 868.46094 902.36133 L 1152.1426 902.36133 L 1152.1426 618.5625 A 142.5 142.5 0 0 1 1143.3105 610.5625 z "
       transform="translate(0,3.464567e-6)"
       id="path5862" />
    <path
       style="opacity:1;fill:none;fill-opacity:1;stroke:#000000;stroke-width:15;stroke-linecap:round;stroke-linejoin:round;stroke-miterlimit:4;stroke-dasharray:none;stroke-opacity:1"
       d="M 342.14258 92.361328 L 342.14258 384.11914 A 142.5 142.5 0 0 1 375.97461 409.16211 L 416.76953 368.36719 A 142.5 142.5 0 0 1 374.64258 267.36133 A 142.5 142.5 0 0 1 517.14258 124.86133 A 142.5 142.5 0 0 1 618.16992 166.9668 L 658.94336 126.19336 A 142.5 142.5 0 0 1 633.95312 92.361328 L 342.14258 92.361328 z M 885.38477 92.361328 A 142.5 142.5 0 0 1 860.3418 126.19336 L 901.13672 166.98828 A 142.5 142.5 0 0 1 1002.1426 124.86133 A 142.5 142.5 0 0 1 1144.6426 267.36133 A 142.5 142.5 0 0 1 1102.5391 368.38867 L 1143.3125 409.16211 A 142.5 142.5 0 0 1 1177.1426 384.17383 L 1177.1426 92.361328 L 885.38477 92.361328 z M 375.97461 610.5625 A 142.5 142.5 0 0 1 342.14258 635.55273 L 342.14258 927.36133 L 633.90039 927.36133 A 142.5 142.5 0 0 1 658.94336 893.53125 L 618.14844 852.73633 A 142.5 142.5 0 0 1 517.14258 894.86133 A 142.5 142.5 0 0 1 374.64258 752.36133 A 142.5 142.5 0 0 1 416.74609 651.33398 L 375.97461 610.5625 z M 1143.3105 610.5625 L 1102.5156 651.35742 A 142.5 142.5 0 0 1 1144.6426 752.36133 A 142.5 142.5 0 0 1 1002.1426 894.86133 A 142.5 142.5 0 0 1 901.11523 852.75781 L 860.3418 893.53125 A 142.5 142.5 0 0 1 885.33008 927.36133 L 1177.1426 927.36133 L 1177.1426 635.60547 A 142.5 142.5 0 0 1 1143.3105 610.5625 z "
       transform="translate(0,3.464567e-6)"
       id="path5864" />
    <path
       style="opacity:1;fill:none;fill-opacity:1;stroke:#000000;stroke-width:15;stroke-linecap:round;stroke-linejoin:round;stroke-miterlimit:4;stroke-dasharray:none;stroke-opacity:1"
       d="M 317.14258 67.361328 L 317.14258 373.77539 A 142.5 142.5 0 0 1 375.97461 409.16211 L 416.76953 368.36719 A 142.5 142.5 0 0 1 374.64258 267.36133 A 142.5 142.5 0 0 1 517.14258 124.86133 A 142.5 142.5 0 0 1 618.16992 166.9668 L 658.94336 126.19336 A 142.5 142.5 0 0 1 623.48438 67.361328 L 317.14258 67.361328 z M 895.72852 67.361328 A 142.5 142.5 0 0 1 860.3418 126.19336 L 901.13672 166.98828 A 142.5 142.5 0 0 1 1002.1426 124.86133 A 142.5 142.5 0 0 1 1144.6426 267.36133 A 142.5 142.5 0 0 1 1102.5391 368.38867 L 1143.3125 409.16211 A 142.5 142.5 0 0 1 1202.1426 373.70312 L 1202.1426 67.361328 L 895.72852 67.361328 z M 375.97461 610.5625 A 142.5 142.5 0 0 1 317.14258 646.01953 L 317.14258 952.36133 L 623.55664 952.36133 A 142.5 142.5 0 0 1 658.94336 893.53125 L 618.14844 852.73633 A 142.5 142.5 0 0 1 517.14258 894.86133 A 142.5 142.5 0 0 1 374.64258 752.36133 A 142.5 142.5 0 0 1 416.74609 651.33398 L 375.97461 610.5625 z M 1143.3105 610.5625 L 1102.5156 651.35742 A 142.5 142.5 0 0 1 1144.6426 752.36133 A 142.5 142.5 0 0 1 1002.1426 894.86133 A 142.5 142.5 0 0 1 901.11523 852.75781 L 860.3418 893.53125 A 142.5 142.5 0 0 1 895.80078 952.36133 L 1202.1426 952.36133 L 1202.1426 645.94727 A 142.5 142.5 0 0 1 1143.3105 610.5625 z "
       transform="translate(0,3.464567e-6)"
       id="path5866" />
    <path
       style="opacity:1;fill:none;fill-opacity:1;stroke:#000000;stroke-width:15;stroke-linecap:round;stroke-linejoin:round;stroke-miterlimit:4;stroke-dasharray:none;stroke-opacity:1"
       d="M 292.14258 42.361328 L 292.14258 368.53906 A 142.5 142.5 0 0 1 375.97461 409.16211 L 416.76953 368.36719 A 142.5 142.5 0 0 1 374.64258 267.36133 A 142.5 142.5 0 0 1 517.14258 124.86133 A 142.5 142.5 0 0 1 618.16992 166.9668 L 658.94336 126.19336 A 142.5 142.5 0 0 1 618.26953 42.361328 L 292.14258 42.361328 z M 900.96484 42.361328 A 142.5 142.5 0 0 1 860.3418 126.19336 L 901.13672 166.98828 A 142.5 142.5 0 0 1 1002.1426 124.86133 A 142.5 142.5 0 0 1 1144.6426 267.36133 A 142.5 142.5 0 0 1 1102.5391 368.38867 L 1143.3125 409.16211 A 142.5 142.5 0 0 1 1227.1426 368.48828 L 1227.1426 42.361328 L 900.96484 42.361328 z M 375.97461 610.5625 A 142.5 142.5 0 0 1 292.14258 651.23438 L 292.14258 977.36133 L 618.32031 977.36133 A 142.5 142.5 0 0 1 658.94336 893.53125 L 618.14844 852.73633 A 142.5 142.5 0 0 1 517.14258 894.86133 A 142.5 142.5 0 0 1 374.64258 752.36133 A 142.5 142.5 0 0 1 416.74609 651.33398 L 375.97461 610.5625 z M 1143.3105 610.5625 L 1102.5156 651.35742 A 142.5 142.5 0 0 1 1144.6426 752.36133 A 142.5 142.5 0 0 1 1002.1426 894.86133 A 142.5 142.5 0 0 1 901.11523 852.75781 L 860.3418 893.53125 A 142.5 142.5 0 0 1 901.01562 977.36133 L 1227.1426 977.36133 L 1227.1426 651.18359 A 142.5 142.5 0 0 1 1143.3105 610.5625 z "
       transform="translate(0,3.464567e-6)"
       id="path5868" />
    <path
       style="opacity:1;fill:none;fill-opacity:1;stroke:#000000;stroke-width:15;stroke-linecap:round;stroke-linejoin:round;stroke-miterlimit:4;stroke-dasharray:none;stroke-opacity:1"
       d="M 267.14258 17.361328 L 267.14258 367.76758 A 142.5 142.5 0 0 1 275.27539 367.36133 A 142.5 142.5 0 0 1 375.97461 409.16211 L 416.76953 368.36719 A 142.5 142.5 0 0 1 374.64258 267.36133 A 142.5 142.5 0 0 1 517.14258 124.86133 A 142.5 142.5 0 0 1 618.16992 166.9668 L 658.94336 126.19336 A 142.5 142.5 0 0 1 617.14258 25.494141 A 142.5 142.5 0 0 1 617.43164 17.361328 L 267.14258 17.361328 z M 901.73633 17.361328 A 142.5 142.5 0 0 1 902.14258 25.494141 A 142.5 142.5 0 0 1 860.3418 126.19336 L 901.13672 166.98828 A 142.5 142.5 0 0 1 1002.1426 124.86133 A 142.5 142.5 0 0 1 1144.6426 267.36133 A 142.5 142.5 0 0 1 1102.5391 368.38867 L 1143.3125 409.16211 A 142.5 142.5 0 0 1 1244.0117 367.36133 A 142.5 142.5 0 0 1 1252.1426 367.65039 L 1252.1426 17.361328 L 901.73633 17.361328 z M 375.97461 610.5625 A 142.5 142.5 0 0 1 275.27539 652.36133 A 142.5 142.5 0 0 1 267.14258 652.07227 L 267.14258 1002.3613 L 617.54883 1002.3613 A 142.5 142.5 0 0 1 617.14258 994.23047 A 142.5 142.5 0 0 1 658.94336 893.53125 L 618.14844 852.73633 A 142.5 142.5 0 0 1 517.14258 894.86133 A 142.5 142.5 0 0 1 374.64258 752.36133 A 142.5 142.5 0 0 1 416.74609 651.33398 L 375.97461 610.5625 z M 1143.3105 610.5625 L 1102.5156 651.35742 A 142.5 142.5 0 0 1 1144.6426 752.36133 A 142.5 142.5 0 0 1 1002.1426 894.86133 A 142.5 142.5 0 0 1 901.11523 852.75781 L 860.3418 893.53125 A 142.5 142.5 0 0 1 902.14258 994.23047 A 142.5 142.5 0 0 1 901.85352 1002.3613 L 1252.1426 1002.3613 L 1252.1426 651.95508 A 142.5 142.5 0 0 1 1244.0117 652.36133 A 142.5 142.5 0 0 1 1143.3105 610.5625 z "
       transform="translate(0,3.464567e-6)"
       id="path5870" />
    <path
       style="opacity:1;fill:none;fill-opacity:1;stroke:#000000;stroke-width:15;stroke-linecap:round;stroke-linejoin:round;stroke-miterlimit:4;stroke-dasharray:none;stroke-opacity:1"
       d="M 242.14258 -7.6386719 L 242.14258 371.43359 A 142.5 142.5 0 0 1 275.27539 367.36133 A 142.5 142.5 0 0 1 375.97461 409.16211 L 416.76953 368.36719 A 142.5 142.5 0 0 1 374.64258 267.36133 A 142.5 142.5 0 0 1 517.14258 124.86133 A 142.5 142.5 0 0 1 618.16992 166.9668 L 658.94336 126.19336 A 142.5 142.5 0 0 1 617.14258 25.494141 A 142.5 142.5 0 0 1 621.2168 -7.6386719 L 242.14258 -7.6386719 z M 898.07031 -7.6386719 A 142.5 142.5 0 0 1 902.14258 25.494141 A 142.5 142.5 0 0 1 860.3418 126.19336 L 901.13672 166.98828 A 142.5 142.5 0 0 1 1002.1426 124.86133 A 142.5 142.5 0 0 1 1144.6426 267.36133 A 142.5 142.5 0 0 1 1102.5391 368.38867 L 1143.3125 409.16211 A 142.5 142.5 0 0 1 1244.0117 367.36133 A 142.5 142.5 0 0 1 1277.1426 371.43555 L 1277.1426 -7.6386719 L 898.07031 -7.6386719 z M 375.97461 610.5625 A 142.5 142.5 0 0 1 275.27539 652.36133 A 142.5 142.5 0 0 1 242.14258 648.28711 L 242.14258 1027.3613 L 621.21289 1027.3613 A 142.5 142.5 0 0 1 617.14258 994.23047 A 142.5 142.5 0 0 1 658.94336 893.53125 L 618.14844 852.73633 A 142.5 142.5 0 0 1 517.14258 894.86133 A 142.5 142.5 0 0 1 374.64258 752.36133 A 142.5 142.5 0 0 1 416.74609 651.33398 L 375.97461 610.5625 z M 1143.3105 610.5625 L 1102.5156 651.35742 A 142.5 142.5 0 0 1 1144.6426 752.36133 A 142.5 142.5 0 0 1 1002.1426 894.86133 A 142.5 142.5 0 0 1 901.11523 852.75781 L 860.3418 893.53125 A 142.5 142.5 0 0 1 902.14258 994.23047 A 142.5 142.5 0 0 1 898.06836 1027.3613 L 1277.1426 1027.3613 L 1277.1426 648.29102 A 142.5 142.5 0 0 1 1244.0117 652.36133 A 142.5 142.5 0 0 1 1143.3105 610.5625 z "
       transform="translate(0,3.464567e-6)"
       id="path5872" />
    <path
       style="opacity:1;fill:none;fill-opacity:1;stroke:#000000;stroke-width:15;stroke-linecap:round;stroke-linejoin:round;stroke-miterlimit:4;stroke-dasharray:none;stroke-opacity:1"
       d="M 217.14258 -32.638672 L 217.14258 379.88477 A 142.5 142.5 0 0 1 275.27539 367.36133 A 142.5 142.5 0 0 1 375.97461 409.16211 L 416.76953 368.36719 A 142.5 142.5 0 0 1 374.64258 267.36133 A 142.5 142.5 0 0 1 517.14258 124.86133 A 142.5 142.5 0 0 1 618.16992 166.9668 L 658.94336 126.19336 A 142.5 142.5 0 0 1 617.14258 25.494141 A 142.5 142.5 0 0 1 629.73438 -32.638672 L 217.14258 -32.638672 z M 889.61914 -32.638672 A 142.5 142.5 0 0 1 902.14258 25.494141 A 142.5 142.5 0 0 1 860.3418 126.19336 L 901.13672 166.98828 A 142.5 142.5 0 0 1 1002.1426 124.86133 A 142.5 142.5 0 0 1 1144.6426 267.36133 A 142.5 142.5 0 0 1 1102.5391 368.38867 L 1143.3125 409.16211 A 142.5 142.5 0 0 1 1244.0117 367.36133 A 142.5 142.5 0 0 1 1302.1426 379.95312 L 1302.1426 -32.638672 L 889.61914 -32.638672 z M 375.97461 610.5625 A 142.5 142.5 0 0 1 275.27539 652.36133 A 142.5 142.5 0 0 1 217.14258 639.76953 L 217.14258 1052.3613 L 629.66602 1052.3613 A 142.5 142.5 0 0 1 617.14258 994.23047 A 142.5 142.5 0 0 1 658.94336 893.53125 L 618.14844 852.73633 A 142.5 142.5 0 0 1 517.14258 894.86133 A 142.5 142.5 0 0 1 374.64258 752.36133 A 142.5 142.5 0 0 1 416.74609 651.33398 L 375.97461 610.5625 z M 1143.3105 610.5625 L 1102.5156 651.35742 A 142.5 142.5 0 0 1 1144.6426 752.36133 A 142.5 142.5 0 0 1 1002.1426 894.86133 A 142.5 142.5 0 0 1 901.11523 852.75781 L 860.3418 893.53125 A 142.5 142.5 0 0 1 902.14258 994.23047 A 142.5 142.5 0 0 1 889.55078 1052.3613 L 1302.1426 1052.3613 L 1302.1426 639.83789 A 142.5 142.5 0 0 1 1244.0117 652.36133 A 142.5 142.5 0 0 1 1143.3105 610.5625 z "
       transform="translate(0,3.464567e-6)"
       id="path5874" />
    <path
       style="opacity:1;fill:none;fill-opacity:1;stroke:#000000;stroke-width:15;stroke-linecap:round;stroke-linejoin:round;stroke-miterlimit:4;stroke-dasharray:none;stroke-opacity:1"
       d="M 192.14258 -57.638672 L 192.14258 394.2832 A 142.5 142.5 0 0 1 275.27539 367.36133 A 142.5 142.5 0 0 1 375.97461 409.16211 L 416.76953 368.36719 A 142.5 142.5 0 0 1 374.64258 267.36133 A 142.5 142.5 0 0 1 517.14258 124.86133 A 142.5 142.5 0 0 1 618.16992 166.9668 L 658.94336 126.19336 A 142.5 142.5 0 0 1 617.14258 25.494141 A 142.5 142.5 0 0 1 644.12305 -57.638672 L 192.14258 -57.638672 z M 875.2207 -57.638672 A 142.5 142.5 0 0 1 902.14258 25.494141 A 142.5 142.5 0 0 1 860.3418 126.19336 L 901.13672 166.98828 A 142.5 142.5 0 0 1 1002.1426 124.86133 A 142.5 142.5 0 0 1 1144.6426 267.36133 A 142.5 142.5 0 0 1 1102.5391 368.38867 L 1143.3125 409.16211 A 142.5 142.5 0 0 1 1244.0117 367.36133 A 142.5 142.5 0 0 1 1327.1426 394.33984 L 1327.1426 -57.638672 L 875.2207 -57.638672 z M 375.97461 610.5625 A 142.5 142.5 0 0 1 275.27539 652.36133 A 142.5 142.5 0 0 1 192.14258 625.38086 L 192.14258 1077.3613 L 644.0625 1077.3613 A 142.5 142.5 0 0 1 617.14258 994.23047 A 142.5 142.5 0 0 1 658.94336 893.53125 L 618.14844 852.73633 A 142.5 142.5 0 0 1 517.14258 894.86133 A 142.5 142.5 0 0 1 374.64258 752.36133 A 142.5 142.5 0 0 1 416.74609 651.33398 L 375.97461 610.5625 z M 1143.3105 610.5625 L 1102.5156 651.35742 A 142.5 142.5 0 0 1 1144.6426 752.36133 A 142.5 142.5 0 0 1 1002.1426 894.86133 A 142.5 142.5 0 0 1 901.11523 852.75781 L 860.3418 893.53125 A 142.5 142.5 0 0 1 902.14258 994.23047 A 142.5 142.5 0 0 1 875.16406 1077.3613 L 1327.1426 1077.3613 L 1327.1426 625.44141 A 142.5 142.5 0 0 1 1244.0117 652.36133 A 142.5 142.5 0 0 1 1143.3105 610.5625 z "
       transform="translate(0,3.464567e-6)"
       id="path5876" />
    <path
       style="opacity:1;fill:none;fill-opacity:1;stroke:#000000;stroke-width:15.00000095;stroke-linecap:round;stroke-linejoin:round;stroke-miterlimit:4;stroke-dasharray:none;stroke-opacity:1"
       d="M 167.14258 -82.638672 L 167.14258 417.30664 A 142.5 142.5 0 0 1 275.27539 367.36133 A 142.5 142.5 0 0 1 375.97461 409.16211 L 416.76953 368.36719 A 142.5 142.5 0 0 1 374.64258 267.36133 A 142.5 142.5 0 0 1 517.14258 124.86133 A 142.5 142.5 0 0 1 618.16992 166.9668 L 658.94336 126.19336 A 142.5 142.5 0 0 1 617.14258 25.494141 A 142.5 142.5 0 0 1 666.92188 -82.638672 L 167.14258 -82.638672 z M 852.19727 -82.638672 A 142.5 142.5 0 0 1 902.14258 25.494141 A 142.5 142.5 0 0 1 860.3418 126.19336 L 901.13672 166.98828 A 142.5 142.5 0 0 1 1002.1426 124.86133 A 142.5 142.5 0 0 1 1144.6426 267.36133 A 142.5 142.5 0 0 1 1102.5391 368.38867 L 1143.3125 409.16211 A 142.5 142.5 0 0 1 1244.0117 367.36133 A 142.5 142.5 0 0 1 1352.1426 417.13867 L 1352.1426 -82.638672 L 852.19727 -82.638672 z M 1352.1426 602.41797 A 142.5 142.5 0 0 1 1244.0117 652.36133 A 142.5 142.5 0 0 1 1143.3105 610.5625 L 1102.5156 651.35742 A 142.5 142.5 0 0 1 1144.6426 752.36133 A 142.5 142.5 0 0 1 1002.1426 894.86133 A 142.5 142.5 0 0 1 901.11523 852.75781 L 860.3418 893.53125 A 142.5 142.5 0 0 1 902.14258 994.23047 A 142.5 142.5 0 0 1 852.36523 1102.3613 L 1352.1426 1102.3613 L 1352.1426 602.41797 z M 167.14258 602.58203 L 167.14258 1102.3613 L 667.08594 1102.3613 A 142.5 142.5 0 0 1 617.14258 994.23047 A 142.5 142.5 0 0 1 658.94336 893.53125 L 618.14844 852.73633 A 142.5 142.5 0 0 1 517.14258 894.86133 A 142.5 142.5 0 0 1 374.64258 752.36133 A 142.5 142.5 0 0 1 416.74609 651.33398 L 375.97461 610.5625 A 142.5 142.5 0 0 1 275.27539 652.36133 A 142.5 142.5 0 0 1 167.14258 602.58203 z "
       transform="translate(0,3.464567e-6)"
       id="path5878" />
    <path
       style="opacity:1;fill:none;fill-opacity:1;stroke:#000000;stroke-width:15.00000095;stroke-linecap:round;stroke-linejoin:round;stroke-miterlimit:4;stroke-dasharray:none;stroke-opacity:1"
       d="M 142.14258 -107.63867 L 142.14258 459.17773 A 142.5 142.5 0 0 1 275.27539 367.36133 A 142.5 142.5 0 0 1 375.97461 409.16211 L 416.76953 368.36719 A 142.5 142.5 0 0 1 374.64258 267.36133 A 142.5 142.5 0 0 1 517.14258 124.86133 A 142.5 142.5 0 0 1 618.16992 166.9668 L 658.94336 126.19336 A 142.5 142.5 0 0 1 617.14258 25.494141 A 142.5 142.5 0 0 1 709.30469 -107.63867 L 142.14258 -107.63867 z M 810.32617 -107.63867 A 142.5 142.5 0 0 1 902.14258 25.494141 A 142.5 142.5 0 0 1 860.3418 126.19336 L 901.13672 166.98828 A 142.5 142.5 0 0 1 1002.1426 124.86133 A 142.5 142.5 0 0 1 1144.6426 267.36133 A 142.5 142.5 0 0 1 1102.5391 368.38867 L 1143.3125 409.16211 A 142.5 142.5 0 0 1 1244.0117 367.36133 A 142.5 142.5 0 0 1 1377.1426 459.51758 L 1377.1426 -107.63867 L 810.32617 -107.63867 z M 142.14258 560.19922 L 142.14258 1127.3613 L 708.95312 1127.3613 A 142.5 142.5 0 0 1 617.14258 994.23047 A 142.5 142.5 0 0 1 658.94336 893.53125 L 618.14844 852.73633 A 142.5 142.5 0 0 1 517.14258 894.86133 A 142.5 142.5 0 0 1 374.64258 752.36133 A 142.5 142.5 0 0 1 416.74609 651.33398 L 375.97461 610.5625 A 142.5 142.5 0 0 1 275.27539 652.36133 A 142.5 142.5 0 0 1 142.14258 560.19922 z M 1377.1426 560.55078 A 142.5 142.5 0 0 1 1244.0117 652.36133 A 142.5 142.5 0 0 1 1143.3105 610.5625 L 1102.5156 651.35742 A 142.5 142.5 0 0 1 1144.6426 752.36133 A 142.5 142.5 0 0 1 1002.1426 894.86133 A 142.5 142.5 0 0 1 901.11523 852.75781 L 860.3418 893.53125 A 142.5 142.5 0 0 1 902.14258 994.23047 A 142.5 142.5 0 0 1 809.98633 1127.3613 L 1377.1426 1127.3613 L 1377.1426 560.55078 z "
       transform="translate(0,3.464567e-6)"
       id="path5880" />
    <path
       style="opacity:1;fill:none;fill-opacity:1;stroke:#000000;stroke-width:15.00000095;stroke-linecap:round;stroke-linejoin:round;stroke-miterlimit:4;stroke-dasharray:none;stroke-opacity:1"
       d="M 117.14258 -132.63867 L 117.14258 1152.3613 L 1402.1426 1152.3613 L 1402.1426 -132.63867 L 117.14258 -132.63867 z M 759.64258 -117.00586 A 142.5 142.5 0 0 1 902.14258 25.494141 A 142.5 142.5 0 0 1 860.3418 126.19336 L 901.13672 166.98828 A 142.5 142.5 0 0 1 1002.1426 124.86133 A 142.5 142.5 0 0 1 1144.6426 267.36133 A 142.5 142.5 0 0 1 1102.5391 368.38867 L 1143.3125 409.16211 A 142.5 142.5 0 0 1 1244.0117 367.36133 A 142.5 142.5 0 0 1 1386.5117 509.86133 A 142.5 142.5 0 0 1 1244.0117 652.36133 A 142.5 142.5 0 0 1 1143.3105 610.5625 L 1102.5156 651.35742 A 142.5 142.5 0 0 1 1144.6426 752.36133 A 142.5 142.5 0 0 1 1002.1426 894.86133 A 142.5 142.5 0 0 1 901.11523 852.75781 L 860.3418 893.53125 A 142.5 142.5 0 0 1 902.14258 994.23047 A 142.5 142.5 0 0 1 759.64258 1136.7305 A 142.5 142.5 0 0 1 617.14258 994.23047 A 142.5 142.5 0 0 1 658.94336 893.53125 L 618.14844 852.73633 A 142.5 142.5 0 0 1 517.14258 894.86133 A 142.5 142.5 0 0 1 374.64258 752.36133 A 142.5 142.5 0 0 1 416.74609 651.33398 L 375.97461 610.5625 A 142.5 142.5 0 0 1 275.27539 652.36133 A 142.5 142.5 0 0 1 132.77539 509.86133 A 142.5 142.5 0 0 1 275.27539 367.36133 A 142.5 142.5 0 0 1 375.97461 409.16211 L 416.76953 368.36719 A 142.5 142.5 0 0 1 374.64258 267.36133 A 142.5 142.5 0 0 1 517.14258 124.86133 A 142.5 142.5 0 0 1 618.16992 166.9668 L 658.94336 126.19336 A 142.5 142.5 0 0 1 617.14258 25.494141 A 142.5 142.5 0 0 1 759.64258 -117.00586 z "
       transform="translate(0,3.464567e-6)"
       id="path5882" />
    <path
       style="opacity:1;fill:none;fill-opacity:1;stroke:#000000;stroke-width:15;stroke-linecap:round;stroke-linejoin:round;stroke-miterlimit:4;stroke-dasharray:none;stroke-opacity:1"
       d="M 517.14258 267.36133 L 517.14258 752.36133 L 1002.1426 752.36133 L 1002.1426 409.86133 A 142.5 142.5 0 0 1 859.64258 267.36133 L 517.14258 267.36133 z "
       transform="translate(0,3.464567e-6)"
       id="rect5732" />
    <path
       style="opacity:1;fill:none;fill-opacity:1;stroke:#000000;stroke-width:15;stroke-linecap:round;stroke-linejoin:round;stroke-miterlimit:4;stroke-dasharray:none;stroke-opacity:1"
       d="M 542.14258 292.36133 L 542.14258 727.36133 L 977.14258 727.36133 L 977.14258 407.52148 A 142.5 142.5 0 0 1 861.89258 292.36133 L 542.14258 292.36133 z "
       transform="translate(0,3.464567e-6)"
       id="path5774" />
    <path
       style="opacity:1;fill:none;fill-opacity:1;stroke:#000000;stroke-width:15;stroke-linecap:round;stroke-linejoin:round;stroke-miterlimit:4;stroke-dasharray:none;stroke-opacity:1"
       d="M 567.14258 317.36133 L 567.14258 702.36133 L 952.14258 702.36133 L 952.14258 400.61914 A 142.5 142.5 0 0 1 868.78516 317.36133 L 567.14258 317.36133 z "
       transform="translate(0,3.464567e-6)"
       id="path5884" />
    <path
       style="opacity:1;fill:none;fill-opacity:1;stroke:#000000;stroke-width:15;stroke-linecap:round;stroke-linejoin:round;stroke-miterlimit:4;stroke-dasharray:none;stroke-opacity:1"
       d="M 592.14258 342.36133 L 592.14258 677.36133 L 927.14258 677.36133 L 927.14258 388.32031 A 142.5 142.5 0 0 1 881.08789 342.36133 L 592.14258 342.36133 z "
       transform="translate(0,3.464567e-6)"
       id="path5886" />
    <path
       inkscape:connector-curvature="0"
       style="opacity:1;fill:none;fill-opacity:1;stroke:#000000;stroke-width:15;stroke-linecap:round;stroke-linejoin:round;stroke-miterlimit:4;stroke-dasharray:none;stroke-opacity:1"
       d="m 617.14289,367.36216 285,0 0,284.99999 -285,0 z"
       id="path5888" />
    <path
       id="path5890"
       d="m 642.14289,392.36216 235,0 0,234.99999 -235,0 z"
       style="opacity:1;fill:none;fill-opacity:1;stroke:#000000;stroke-width:15.00000095;stroke-linecap:round;stroke-linejoin:round;stroke-miterlimit:4;stroke-dasharray:none;stroke-opacity:1"
       inkscape:connector-curvature="0" />
    <path
       inkscape:connector-curvature="0"
       style="opacity:1;fill:none;fill-opacity:1;stroke:#000000;stroke-width:15.00000191;stroke-linecap:round;stroke-linejoin:round;stroke-miterlimit:4;stroke-dasharray:none;stroke-opacity:1"
       d="m 667.14289,417.36216 185,0 0,184.99999 -185,0 z"
       id="path5892" />
    <path
       id="path5894"
       d="m 692.14289,442.36216 135,0 0,134.99999 -135,0 z"
       style="opacity:1;fill:none;fill-opacity:1;stroke:#000000;stroke-width:15.00000286;stroke-linecap:round;stroke-linejoin:round;stroke-miterlimit:4;stroke-dasharray:none;stroke-opacity:1"
       inkscape:connector-curvature="0" />
    <path
       inkscape:connector-curvature="0"
       style="opacity:1;fill:none;fill-opacity:1;stroke:#000000;stroke-width:15.00000286;stroke-linecap:round;stroke-linejoin:round;stroke-miterlimit:4;stroke-dasharray:none;stroke-opacity:1"
       d="m 717.14289,467.36216 84.99999,0 0,84.99999 -84.99999,0 z"
       id="path5896" />
    <path
       style="opacity:1;fill:none;fill-opacity:1;stroke:#ffff00;stroke-width:14.99999905;stroke-linecap:round;stroke-linejoin:round;stroke-miterlimit:4;stroke-dasharray:none;stroke-opacity:1"
       d="M 759.64258 -117.00586 A 142.5 142.5 0 0 0 617.14258 25.494141 A 142.5 142.5 0 0 0 658.94336 126.19336 L 618.16992 166.9668 A 142.5 142.5 0 0 0 517.14258 124.86133 A 142.5 142.5 0 0 0 374.64258 267.36133 A 142.5 142.5 0 0 0 416.76953 368.36719 L 375.97461 409.16211 A 142.5 142.5 0 0 0 275.27539 367.36133 A 142.5 142.5 0 0 0 132.77539 509.86133 A 142.5 142.5 0 0 0 275.27539 652.36133 A 142.5 142.5 0 0 0 375.97461 610.5625 L 416.74609 651.33398 A 142.5 142.5 0 0 0 374.64258 752.36133 A 142.5 142.5 0 0 0 517.14258 894.86133 A 142.5 142.5 0 0 0 618.14844 852.73633 L 658.94336 893.53125 A 142.5 142.5 0 0 0 617.14258 994.23047 A 142.5 142.5 0 0 0 759.64258 1136.7305 A 142.5 142.5 0 0 0 902.14258 994.23047 A 142.5 142.5 0 0 0 860.3418 893.53125 L 901.11523 852.75781 A 142.5 142.5 0 0 0 1002.1426 894.86133 A 142.5 142.5 0 0 0 1144.6426 752.36133 A 142.5 142.5 0 0 0 1102.5156 651.35742 L 1143.3105 610.5625 A 142.5 142.5 0 0 0 1244.0117 652.36133 A 142.5 142.5 0 0 0 1386.5117 509.86133 A 142.5 142.5 0 0 0 1244.0117 367.36133 A 142.5 142.5 0 0 0 1143.3125 409.16211 L 1102.5391 368.38867 A 142.5 142.5 0 0 0 1144.6426 267.36133 A 142.5 142.5 0 0 0 1002.1426 124.86133 A 142.5 142.5 0 0 0 901.13672 166.98828 L 860.3418 126.19336 A 142.5 142.5 0 0 0 902.14258 25.494141 A 142.5 142.5 0 0 0 759.64258 -117.00586 z "
       transform="translate(0,3.464567e-6)"
       id="rect5734" />
    <path
       id="path5948"
       d="m 742.14288,492.36215 35,0 0,35 -35,0 z"
       style="opacity:1;fill:none;fill-opacity:1;stroke:#000000;stroke-width:15.00000286;stroke-linecap:round;stroke-linejoin:round;stroke-miterlimit:4;stroke-dasharray:none;stroke-opacity:1"
       inkscape:connector-curvature="0" />
    <path
       style="opacity:1;fill:none;fill-opacity:1;stroke:#ff0000;stroke-width:14.99999905;stroke-linecap:round;stroke-linejoin:round;stroke-miterlimit:4;stroke-dasharray:none;stroke-opacity:1"
       d="M 841.25195 142.10352 A 142.5 142.5 0 0 1 759.64258 167.99414 A 142.5 142.5 0 0 1 677.96094 142.17578 L 634.01562 186.12109 A 142.5 142.5 0 0 1 659.64258 267.36133 A 142.5 142.5 0 0 1 517.14258 409.86133 A 142.5 142.5 0 0 1 435.82031 384.31641 L 391.88281 428.25391 A 142.5 142.5 0 0 1 417.77539 509.86133 A 142.5 142.5 0 0 1 391.95703 591.54492 L 435.90234 635.49023 A 142.5 142.5 0 0 1 517.14258 609.86133 A 142.5 142.5 0 0 1 659.64258 752.36133 A 142.5 142.5 0 0 1 634.09766 833.68555 L 678.0332 877.62109 A 142.5 142.5 0 0 1 759.64258 851.73047 A 142.5 142.5 0 0 1 841.32422 877.54883 L 885.26953 833.60352 A 142.5 142.5 0 0 1 859.64258 752.36133 A 142.5 142.5 0 0 1 1002.1426 609.86133 A 142.5 142.5 0 0 1 1083.4648 635.4082 L 1127.4023 591.4707 A 142.5 142.5 0 0 1 1101.5117 509.86133 A 142.5 142.5 0 0 1 1127.3281 428.17969 L 1083.3828 384.23438 A 142.5 142.5 0 0 1 1002.1426 409.86133 A 142.5 142.5 0 0 1 859.64258 267.36133 A 142.5 142.5 0 0 1 885.1875 186.03906 L 841.25195 142.10352 z "
       id="path5776"
       transform="translate(0,3.464567e-6)" />
    <circle
       r="142.5"
       cy="171.39766"
       cx="1519.3409"
       id="circle6020"
       style="opacity:1;fill:none;fill-opacity:1;stroke:#00ff00;stroke-width:15.00000095;stroke-linecap:round;stroke-linejoin:round;stroke-miterlimit:4;stroke-dasharray:none;stroke-opacity:1" />
  </g>
</svg>
