<?xml version="1.0" encoding="UTF-8" standalone="no"?>
<!-- Created with Inkscape (http://www.inkscape.org/) -->

<svg
   xmlns:dc="http://purl.org/dc/elements/1.1/"
   xmlns:cc="http://creativecommons.org/ns#"
   xmlns:rdf="http://www.w3.org/1999/02/22-rdf-syntax-ns#"
   xmlns:svg="http://www.w3.org/2000/svg"
   xmlns="http://www.w3.org/2000/svg"
   xmlns:sodipodi="http://sodipodi.sourceforge.net/DTD/sodipodi-0.dtd"
   xmlns:inkscape="http://www.inkscape.org/namespaces/inkscape"
   width="210mm"
   height="297mm"
   viewBox="0 0 744.09448819 1052.3622047"
   id="svg2"
   version="1.1"
   inkscape:version="0.91 r13725"
   sodipodi:docname="spiral.svg">
  <defs
     id="defs4" />
  <sodipodi:namedview
     id="base"
     pagecolor="#ffffff"
     bordercolor="#666666"
     borderopacity="1.0"
     inkscape:pageopacity="0.0"
     inkscape:pageshadow="2"
     inkscape:zoom="0.7"
     inkscape:cx="84.701504"
     inkscape:cy="515.95442"
     inkscape:document-units="px"
     inkscape:current-layer="layer1"
     showgrid="false"
     inkscape:object-nodes="true"
     inkscape:window-width="1879"
     inkscape:window-height="1056"
     inkscape:window-x="41"
     inkscape:window-y="24"
     inkscape:window-maximized="1" />
  <metadata
     id="metadata7">
    <rdf:RDF>
      <cc:Work
         rdf:about="">
        <dc:format>image/svg+xml</dc:format>
        <dc:type
           rdf:resource="http://purl.org/dc/dcmitype/StillImage" />
        <dc:title></dc:title>
      </cc:Work>
    </rdf:RDF>
  </metadata>
  <g
     inkscape:label="Layer 1"
     inkscape:groupmode="layer"
     id="layer1">
    <g
       id="g4151"
       transform="matrix(1.050149,0,0,1.050149,21.275533,-14.488071)">
      <path
         id="path4136"
         d="m 378.80664,327.33008 -157.24219,90.78515 0,43.4375 157.24219,-90.78515 157.24414,90.78515 0,-43.4375 -157.24414,-90.78515 z"
         style="opacity:1;fill:none;stroke:#000000;stroke-width:5;stroke-miterlimit:4;stroke-dasharray:none;stroke-opacity:1"
         inkscape:connector-curvature="0" />
      <path
         inkscape:connector-curvature="0"
         style="opacity:1;fill:none;stroke:#000000;stroke-width:5;stroke-miterlimit:4;stroke-dasharray:none;stroke-opacity:1"
         d="m 183.94434,396.39618 10e-4,181.5683 37.61797,21.71875 -0.001,-181.5683 157.24433,-90.78485 -37.61798,-21.71875 -157.24432,90.78485 z"
         id="path4141" />
      <path
         id="path4143"
         d="m 146.32737,599.68322 157.24326,90.78328 37.61797,-21.71874 -157.24326,-90.78328 1.8e-4,-181.57001 -37.61798,21.71875 -1.7e-4,181.57 z"
         style="opacity:1;fill:none;stroke:#000000;stroke-width:5;stroke-miterlimit:4;stroke-dasharray:none;stroke-opacity:1"
         inkscape:connector-curvature="0" />
      <path
         inkscape:connector-curvature="0"
         style="opacity:1;fill:none;stroke:#000000;stroke-width:5;stroke-miterlimit:4;stroke-dasharray:none;stroke-opacity:1"
         d="m 303.57062,733.90399 157.24226,-90.78502 10e-6,-43.43749 -157.24226,90.78502 -157.24415,-90.78516 0,43.4375 157.24414,90.78515 z"
         id="path4145" />
      <path
         id="path4147"
         d="m 498.43084,664.83772 -10e-4,-181.5683 -37.61796,-21.71875 0.001,181.5683 -157.24433,90.78485 37.61798,21.71875 157.24431,-90.78485 z"
         style="opacity:1;fill:none;stroke:#000000;stroke-width:5;stroke-miterlimit:4;stroke-dasharray:none;stroke-opacity:1"
         inkscape:connector-curvature="0" />
      <path
         inkscape:connector-curvature="0"
         style="opacity:1;fill:none;stroke:#000000;stroke-width:5;stroke-miterlimit:4;stroke-dasharray:none;stroke-opacity:1"
         d="m 536.04781,461.55069 -157.24326,-90.78329 -37.61797,21.71874 157.24326,90.78328 -1.8e-4,181.57001 37.61798,-21.71875 1.7e-4,-181.56999 z"
         id="path4149" />
    </g>
    <g
       id="g4159"
       transform="matrix(0.63845624,0,0,0.63845624,161.74042,203.96307)">
      <path
         style="opacity:1;fill:none;stroke:#000000;stroke-width:5;stroke-miterlimit:4;stroke-dasharray:none;stroke-opacity:1"
         d="m 378.80664,327.33008 -157.24219,90.78515 0,43.4375 157.24219,-90.78515 157.24414,90.78515 0,-43.4375 -157.24414,-90.78515 z"
         id="path4161"
         inkscape:connector-curvature="0" />
      <path
         id="path4163"
         d="m 183.94434,396.39618 10e-4,181.5683 37.61797,21.71875 -0.001,-181.5683 157.24433,-90.78485 -37.61798,-21.71875 -157.24432,90.78485 z"
         style="opacity:1;fill:none;stroke:#000000;stroke-width:5;stroke-miterlimit:4;stroke-dasharray:none;stroke-opacity:1"
         inkscape:connector-curvature="0" />
      <path
         inkscape:connector-curvature="0"
         style="opacity:1;fill:none;stroke:#000000;stroke-width:5;stroke-miterlimit:4;stroke-dasharray:none;stroke-opacity:1"
         d="m 146.32737,599.68322 157.24326,90.78328 37.61797,-21.71874 -157.24326,-90.78328 1.8e-4,-181.57001 -37.61798,21.71875 -1.7e-4,181.57 z"
         id="path4165" />
      <path
         id="path4167"
         d="m 303.57062,733.90399 157.24226,-90.78502 10e-6,-43.43749 -157.24226,90.78502 -157.24415,-90.78516 0,43.4375 157.24414,90.78515 z"
         style="opacity:1;fill:none;stroke:#000000;stroke-width:5;stroke-miterlimit:4;stroke-dasharray:none;stroke-opacity:1"
         inkscape:connector-curvature="0" />
      <path
         inkscape:connector-curvature="0"
         style="opacity:1;fill:none;stroke:#000000;stroke-width:5;stroke-miterlimit:4;stroke-dasharray:none;stroke-opacity:1"
         d="m 498.43084,664.83772 -10e-4,-181.5683 -37.61796,-21.71875 0.001,181.5683 -157.24433,90.78485 37.61798,21.71875 157.24431,-90.78485 z"
         id="path4169" />
      <path
         id="path4171"
         d="m 536.04781,461.55069 -157.24326,-90.78329 -37.61797,21.71874 157.24326,90.78328 -1.8e-4,181.57001 37.61798,-21.71875 1.7e-4,-181.56999 z"
         style="opacity:1;fill:none;stroke:#000000;stroke-width:5;stroke-miterlimit:4;stroke-dasharray:none;stroke-opacity:1"
         inkscape:connector-curvature="0" />
    </g>
    <g
       id="g4173"
       transform="matrix(1.7180789,0,0,1.7180789,-206.61457,-368.90303)">
      <path
         style="opacity:1;fill:none;stroke:#000000;stroke-width:5;stroke-miterlimit:4;stroke-dasharray:none;stroke-opacity:1"
         d="m 378.80664,327.33008 -157.24219,90.78515 0,43.4375 157.24219,-90.78515 157.24414,90.78515 0,-43.4375 -157.24414,-90.78515 z"
         id="path4175"
         inkscape:connector-curvature="0" />
      <path
         id="path4177"
         d="m 183.94434,396.39618 10e-4,181.5683 37.61797,21.71875 -0.001,-181.5683 157.24433,-90.78485 -37.61798,-21.71875 -157.24432,90.78485 z"
         style="opacity:1;fill:none;stroke:#000000;stroke-width:5;stroke-miterlimit:4;stroke-dasharray:none;stroke-opacity:1"
         inkscape:connector-curvature="0" />
      <path
         inkscape:connector-curvature="0"
         style="opacity:1;fill:none;stroke:#000000;stroke-width:5;stroke-miterlimit:4;stroke-dasharray:none;stroke-opacity:1"
         d="m 146.32737,599.68322 157.24326,90.78328 37.61797,-21.71874 -157.24326,-90.78328 1.8e-4,-181.57001 -37.61798,21.71875 -1.7e-4,181.57 z"
         id="path4179" />
      <path
         id="path4181"
         d="m 303.57062,733.90399 157.24226,-90.78502 10e-6,-43.43749 -157.24226,90.78502 -157.24415,-90.78516 0,43.4375 157.24414,90.78515 z"
         style="opacity:1;fill:none;stroke:#000000;stroke-width:5;stroke-miterlimit:4;stroke-dasharray:none;stroke-opacity:1"
         inkscape:connector-curvature="0" />
      <path
         inkscape:connector-curvature="0"
         style="opacity:1;fill:none;stroke:#000000;stroke-width:5;stroke-miterlimit:4;stroke-dasharray:none;stroke-opacity:1"
         d="m 498.43084,664.83772 -10e-4,-181.5683 -37.61796,-21.71875 0.001,181.5683 -157.24433,90.78485 37.61798,21.71875 157.24431,-90.78485 z"
         id="path4183" />
      <path
         id="path4185"
         d="m 536.04781,461.55069 -157.24326,-90.78329 -37.61797,21.71874 157.24326,90.78328 -1.8e-4,181.57001 37.61798,-21.71875 1.7e-4,-181.56999 z"
         style="opacity:1;fill:none;stroke:#000000;stroke-width:5;stroke-miterlimit:4;stroke-dasharray:none;stroke-opacity:1"
         inkscape:connector-curvature="0" />
    </g>
    <g
       transform="matrix(0.39277933,0,0,0.39277933,245.56259,334.3234)"
       id="g4187">
      <path
         inkscape:connector-curvature="0"
         id="path4189"
         d="m 378.80664,327.33008 -157.24219,90.78515 0,43.4375 157.24219,-90.78515 157.24414,90.78515 0,-43.4375 -157.24414,-90.78515 z"
         style="opacity:1;fill:none;stroke:#000000;stroke-width:5;stroke-miterlimit:4;stroke-dasharray:none;stroke-opacity:1" />
      <path
         inkscape:connector-curvature="0"
         style="opacity:1;fill:none;stroke:#000000;stroke-width:5;stroke-miterlimit:4;stroke-dasharray:none;stroke-opacity:1"
         d="m 183.94434,396.39618 10e-4,181.5683 37.61797,21.71875 -0.001,-181.5683 157.24433,-90.78485 -37.61798,-21.71875 -157.24432,90.78485 z"
         id="path4191" />
      <path
         id="path4193"
         d="m 146.32737,599.68322 157.24326,90.78328 37.61797,-21.71874 -157.24326,-90.78328 1.8e-4,-181.57001 -37.61798,21.71875 -1.7e-4,181.57 z"
         style="opacity:1;fill:none;stroke:#000000;stroke-width:5;stroke-miterlimit:4;stroke-dasharray:none;stroke-opacity:1"
         inkscape:connector-curvature="0" />
      <path
         inkscape:connector-curvature="0"
         style="opacity:1;fill:none;stroke:#000000;stroke-width:5;stroke-miterlimit:4;stroke-dasharray:none;stroke-opacity:1"
         d="m 303.57062,733.90399 157.24226,-90.78502 10e-6,-43.43749 -157.24226,90.78502 -157.24415,-90.78516 0,43.4375 157.24414,90.78515 z"
         id="path4195" />
      <path
         id="path4197"
         d="m 498.43084,664.83772 -10e-4,-181.5683 -37.61796,-21.71875 0.001,181.5683 -157.24433,90.78485 37.61798,21.71875 157.24431,-90.78485 z"
         style="opacity:1;fill:none;stroke:#000000;stroke-width:5;stroke-miterlimit:4;stroke-dasharray:none;stroke-opacity:1"
         inkscape:connector-curvature="0" />
      <path
         inkscape:connector-curvature="0"
         style="opacity:1;fill:none;stroke:#000000;stroke-width:5;stroke-miterlimit:4;stroke-dasharray:none;stroke-opacity:1"
         d="m 536.04781,461.55069 -157.24326,-90.78329 -37.61797,21.71874 157.24326,90.78328 -1.8e-4,181.57001 37.61798,-21.71875 1.7e-4,-181.56999 z"
         id="path4199" />
    </g>
    <g
       id="g4201"
       transform="matrix(0.23925213,0,0,0.23925213,297.94433,415.78754)">
      <path
         style="opacity:1;fill:none;stroke:#000000;stroke-width:5;stroke-miterlimit:4;stroke-dasharray:none;stroke-opacity:1"
         d="m 378.80664,327.33008 -157.24219,90.78515 0,43.4375 157.24219,-90.78515 157.24414,90.78515 0,-43.4375 -157.24414,-90.78515 z"
         id="path4203"
         inkscape:connector-curvature="0" />
      <path
         id="path4205"
         d="m 183.94434,396.39618 10e-4,181.5683 37.61797,21.71875 -0.001,-181.5683 157.24433,-90.78485 -37.61798,-21.71875 -157.24432,90.78485 z"
         style="opacity:1;fill:none;stroke:#000000;stroke-width:5;stroke-miterlimit:4;stroke-dasharray:none;stroke-opacity:1"
         inkscape:connector-curvature="0" />
      <path
         inkscape:connector-curvature="0"
         style="opacity:1;fill:none;stroke:#000000;stroke-width:5;stroke-miterlimit:4;stroke-dasharray:none;stroke-opacity:1"
         d="m 146.32737,599.68322 157.24326,90.78328 37.61797,-21.71874 -157.24326,-90.78328 1.8e-4,-181.57001 -37.61798,21.71875 -1.7e-4,181.57 z"
         id="path4207" />
      <path
         id="path4209"
         d="m 303.57062,733.90399 157.24226,-90.78502 10e-6,-43.43749 -157.24226,90.78502 -157.24415,-90.78516 0,43.4375 157.24414,90.78515 z"
         style="opacity:1;fill:none;stroke:#000000;stroke-width:5;stroke-miterlimit:4;stroke-dasharray:none;stroke-opacity:1"
         inkscape:connector-curvature="0" />
      <path
         inkscape:connector-curvature="0"
         style="opacity:1;fill:none;stroke:#000000;stroke-width:5;stroke-miterlimit:4;stroke-dasharray:none;stroke-opacity:1"
         d="m 498.43084,664.83772 -10e-4,-181.5683 -37.61796,-21.71875 0.001,181.5683 -157.24433,90.78485 37.61798,21.71875 157.24431,-90.78485 z"
         id="path4211" />
      <path
         id="path4213"
         d="m 536.04781,461.55069 -157.24326,-90.78329 -37.61797,21.71874 157.24326,90.78328 -1.8e-4,181.57001 37.61798,-21.71875 1.7e-4,-181.56999 z"
         style="opacity:1;fill:none;stroke:#000000;stroke-width:5;stroke-miterlimit:4;stroke-dasharray:none;stroke-opacity:1"
         inkscape:connector-curvature="0" />
    </g>
    <g
       transform="matrix(0.14678994,0,0,0.14678994,329.49138,464.84955)"
       id="g4215">
      <path
         inkscape:connector-curvature="0"
         id="path4217"
         d="m 378.80664,327.33008 -157.24219,90.78515 0,43.4375 157.24219,-90.78515 157.24414,90.78515 0,-43.4375 -157.24414,-90.78515 z"
         style="opacity:1;fill:none;stroke:#000000;stroke-width:5;stroke-miterlimit:4;stroke-dasharray:none;stroke-opacity:1" />
      <path
         inkscape:connector-curvature="0"
         style="opacity:1;fill:none;stroke:#000000;stroke-width:5;stroke-miterlimit:4;stroke-dasharray:none;stroke-opacity:1"
         d="m 183.94434,396.39618 10e-4,181.5683 37.61797,21.71875 -0.001,-181.5683 157.24433,-90.78485 -37.61798,-21.71875 -157.24432,90.78485 z"
         id="path4219" />
      <path
         id="path4221"
         d="m 146.32737,599.68322 157.24326,90.78328 37.61797,-21.71874 -157.24326,-90.78328 1.8e-4,-181.57001 -37.61798,21.71875 -1.7e-4,181.57 z"
         style="opacity:1;fill:none;stroke:#000000;stroke-width:5;stroke-miterlimit:4;stroke-dasharray:none;stroke-opacity:1"
         inkscape:connector-curvature="0" />
      <path
         inkscape:connector-curvature="0"
         style="opacity:1;fill:none;stroke:#000000;stroke-width:5;stroke-miterlimit:4;stroke-dasharray:none;stroke-opacity:1"
         d="m 303.57062,733.90399 157.24226,-90.78502 10e-6,-43.43749 -157.24226,90.78502 -157.24415,-90.78516 0,43.4375 157.24414,90.78515 z"
         id="path4223" />
      <path
         id="path4225"
         d="m 498.43084,664.83772 -10e-4,-181.5683 -37.61796,-21.71875 0.001,181.5683 -157.24433,90.78485 37.61798,21.71875 157.24431,-90.78485 z"
         style="opacity:1;fill:none;stroke:#000000;stroke-width:5;stroke-miterlimit:4;stroke-dasharray:none;stroke-opacity:1"
         inkscape:connector-curvature="0" />
      <path
         inkscape:connector-curvature="0"
         style="opacity:1;fill:none;stroke:#000000;stroke-width:5;stroke-miterlimit:4;stroke-dasharray:none;stroke-opacity:1"
         d="m 536.04781,461.55069 -157.24326,-90.78329 -37.61797,21.71874 157.24326,90.78328 -1.8e-4,181.57001 37.61798,-21.71875 1.7e-4,-181.56999 z"
         id="path4227" />
    </g>
  </g>
</svg>
